<svg width="73" height="78" viewBox="0 0 73 78" fill="none" xmlns="http://www.w3.org/2000/svg">
<g filter="url(#filter0_i_11396_315)">
<path d="M73 17.9958V5.33062C73 2.38629 70.6197 0 67.6828 0H51.8696C48.9327 0 46.5524 2.38629 46.5524 5.33062V11.506C45.9112 13.7289 43.8677 15.3537 41.4443 15.3537C41.4443 15.3537 41.4489 15.3675 41.4582 15.3891H31.7417C31.7494 15.366 31.7556 15.3537 31.7556 15.3537C28.9324 15.3537 26.6229 13.1477 26.4491 10.3606V5.33216C26.4491 2.38783 24.0689 0.00154153 21.1319 0.00154153H5.3172C2.38028 0 0 2.38629 0 5.33062V17.9958C0 20.9402 2.38028 23.3265 5.3172 23.3265H6.13984L6.13677 23.3342C9.07368 23.3342 11.454 25.7205 11.454 28.6648C11.454 28.6648 11.4617 28.6617 11.4709 28.6586V49.329C11.4601 49.326 11.454 49.3229 11.454 49.3229C11.454 52.2672 9.07368 54.6535 6.13677 54.6535L6.14445 54.672H5.3172C2.38028 54.672 0 57.0583 0 60.0026V72.6678C0 75.6122 2.38028 77.9985 5.3172 77.9985H21.1304C24.0673 77.9985 26.4476 75.6122 26.4476 72.6678V67.6548C26.6214 64.8677 28.9294 62.6618 31.754 62.6618C31.754 62.6618 31.7479 62.6433 31.7356 62.6109H41.4628C41.4505 62.6433 41.4443 62.6618 41.4443 62.6618C43.8677 62.6618 45.9112 64.2865 46.5524 66.5094V72.6694C46.5524 75.6137 48.9327 78 51.8696 78H67.6828C70.6197 78 73 75.6137 73 72.6694V60.0042C73 57.0598 70.6197 54.6735 67.6828 54.6735H66.3743L66.382 54.655C64.2185 54.655 62.3579 53.3586 61.5276 51.4995V26.4897C62.3579 24.6306 64.2185 23.3342 66.382 23.3342L66.3789 23.3265H67.6828C70.6197 23.3265 73 20.9402 73 17.9958Z" fill="#F0F3F8"/>
</g>
<defs>
<filter id="filter0_i_11396_315" x="0" y="0" width="73" height="78" filterUnits="userSpaceOnUse" color-interpolation-filters="sRGB">
<feFlood flood-opacity="0" result="BackgroundImageFix"/>
<feBlend mode="normal" in="SourceGraphic" in2="BackgroundImageFix" result="shape"/>
<feColorMatrix in="SourceAlpha" type="matrix" values="0 0 0 0 0 0 0 0 0 0 0 0 0 0 0 0 0 0 127 0" result="hardAlpha"/>
<feOffset/>
<feGaussianBlur stdDeviation="10"/>
<feComposite in2="hardAlpha" operator="arithmetic" k2="-1" k3="1"/>
<feColorMatrix type="matrix" values="0 0 0 0 0.0313726 0 0 0 0 0.364706 0 0 0 0 0.941176 0 0 0 1 0"/>
<feBlend mode="normal" in2="shape" result="effect1_innerShadow_11396_315"/>
</filter>
</defs>
</svg>
