<svg width="74" height="78" viewBox="0 0 74 78" fill="none" xmlns="http://www.w3.org/2000/svg">
<g filter="url(#filter0_i_11396_288)">
<path fill-rule="evenodd" clip-rule="evenodd" d="M55.1045 77.585H69.1856C71.8003 77.585 73.9199 75.4654 73.9199 72.8507V4.73432C73.9199 2.11963 71.8003 0 69.1856 0H55.1045L55.076 8.39233e-05H44.0195C44.0134 6.1042e-05 44.0074 4.95911e-05 44.0013 4.95911e-05H29.9202C27.3055 4.95911e-05 25.1859 2.11967 25.1859 4.73437V33.4579C25.1859 36.0726 27.3055 38.1922 29.9202 38.1922H44.0013C46.616 38.1922 48.7356 36.0726 48.7356 33.4579V23.5498H50.3702L50.3702 72.8507C50.3702 75.4654 52.4898 77.585 55.1045 77.585ZM4.73432 0.165855H18.8154C21.4301 0.165855 23.5497 2.28548 23.5497 4.90017V54.1627H25.1843V44.2615C25.1843 41.6468 27.304 39.5272 29.9186 39.5272H43.9997C46.6144 39.5272 48.7341 41.6468 48.7341 44.2615V72.985C48.7341 75.5997 46.6144 77.7194 43.9997 77.7194H29.9186C29.8319 77.7194 29.7458 77.717 29.6602 77.7124H19.0747C18.9889 77.7171 18.9024 77.7194 18.8154 77.7194H4.73432C2.11963 77.7194 0 75.5998 0 72.9851V4.90017C0 2.28548 2.11963 0.165855 4.73432 0.165855Z" fill="#F0F3F8"/>
</g>
<defs>
<filter id="filter0_i_11396_288" x="0" y="0" width="73.9199" height="77.7192" filterUnits="userSpaceOnUse" color-interpolation-filters="sRGB">
<feFlood flood-opacity="0" result="BackgroundImageFix"/>
<feBlend mode="normal" in="SourceGraphic" in2="BackgroundImageFix" result="shape"/>
<feColorMatrix in="SourceAlpha" type="matrix" values="0 0 0 0 0 0 0 0 0 0 0 0 0 0 0 0 0 0 127 0" result="hardAlpha"/>
<feOffset/>
<feGaussianBlur stdDeviation="10"/>
<feComposite in2="hardAlpha" operator="arithmetic" k2="-1" k3="1"/>
<feColorMatrix type="matrix" values="0 0 0 0 0.0313726 0 0 0 0 0.364706 0 0 0 0 0.941176 0 0 0 1 0"/>
<feBlend mode="normal" in2="shape" result="effect1_innerShadow_11396_288"/>
</filter>
</defs>
</svg>
