<svg width="95" height="79" viewBox="0 0 95 79" fill="none" xmlns="http://www.w3.org/2000/svg">
<g filter="url(#filter0_i_11396_295)">
<path fill-rule="evenodd" clip-rule="evenodd" d="M40.0978 0H54.59C57.2811 0 59.4626 2.18152 59.4626 4.87256V16.4509C59.4626 19.1419 57.2811 21.3234 54.59 21.3234H40.0978C37.4067 21.3234 35.2252 19.1419 35.2252 16.4509V4.87256C35.2252 2.18152 37.4067 0 40.0978 0ZM4.87255 28.5479H19.3648C22.0558 28.5479 24.2374 30.7294 24.2374 33.4204V44.9987C24.2374 47.6898 22.0558 49.8713 19.3648 49.8713H4.87255C2.18152 49.8713 0 47.6898 0 44.9987V33.4204C0 30.7294 2.18152 28.5479 4.87255 28.5479ZM35.2985 28.5479H30.9177C28.2267 28.5479 26.0452 30.7294 26.0452 33.4205V44.9988C26.0452 47.6898 28.2267 49.8713 30.9177 49.8713H35.2985V50.8914C35.2985 53.5824 37.48 55.7639 40.1711 55.7639H54.6633C57.3544 55.7639 59.5359 53.5824 59.5359 50.8914V49.8713H63.5841C66.2752 49.8713 68.4567 47.6898 68.4567 44.9988V33.4205C68.4567 30.7294 66.2752 28.5479 63.5841 28.5479H59.5359V27.5093C59.5359 24.8183 57.3544 22.6367 54.6633 22.6367H40.1711C37.48 22.6367 35.2985 24.8183 35.2985 27.5093V28.5479ZM75.0413 28.5479H89.5336C92.2246 28.5479 94.4061 30.7294 94.4061 33.4205V44.9988C94.4061 47.6898 92.2246 49.8713 89.5336 49.8713H75.0413C72.3503 49.8713 70.1688 47.6898 70.1688 44.9988V33.4205C70.1688 30.7294 72.3503 28.5479 75.0413 28.5479ZM29.0523 6.06909H14.5601C11.869 6.06909 9.6875 8.25061 9.6875 10.9416V22.52C9.6875 25.211 11.869 27.3925 14.5601 27.3925H29.0523C31.7433 27.3925 33.9249 25.211 33.9249 22.52V10.9416C33.9249 8.25061 31.7433 6.06909 29.0523 6.06909ZM65.8513 6.06898H80.3435C83.0346 6.06898 85.2161 8.2505 85.2161 10.9415V22.5198C85.2161 25.2109 83.0346 27.3924 80.3435 27.3924H65.8513C63.1603 27.3924 60.9787 25.2109 60.9787 22.5198V10.9415C60.9787 8.2505 63.1603 6.06898 65.8513 6.06898ZM40.2669 78.4727H54.7591C57.4501 78.4727 59.6317 76.2911 59.6317 73.6001V62.0218C59.6317 59.3308 57.4501 57.1493 54.7591 57.1493H40.2669C37.5758 57.1493 35.3943 59.3308 35.3943 62.0218V73.6001C35.3943 76.2911 37.5758 78.4727 40.2669 78.4727ZM80.3423 72.4034H65.85C63.159 72.4034 60.9775 70.2219 60.9775 67.5309V55.9526C60.9775 53.2615 63.159 51.08 65.85 51.08H80.3423C83.0333 51.08 85.2148 53.2615 85.2148 55.9526V67.5309C85.2148 70.2219 83.0333 72.4034 80.3423 72.4034ZM14.5585 72.4034H29.0508C31.7418 72.4034 33.9233 70.2219 33.9233 67.5309V55.9526C33.9233 53.2615 31.7418 51.08 29.0508 51.08H14.5585C11.8675 51.08 9.68597 53.2615 9.68597 55.9526V67.5309C9.68597 70.2219 11.8675 72.4034 14.5585 72.4034Z" fill="#F0F3F8"/>
</g>
<defs>
<filter id="filter0_i_11396_295" x="0" y="0" width="94.4062" height="78.4727" filterUnits="userSpaceOnUse" color-interpolation-filters="sRGB">
<feFlood flood-opacity="0" result="BackgroundImageFix"/>
<feBlend mode="normal" in="SourceGraphic" in2="BackgroundImageFix" result="shape"/>
<feColorMatrix in="SourceAlpha" type="matrix" values="0 0 0 0 0 0 0 0 0 0 0 0 0 0 0 0 0 0 127 0" result="hardAlpha"/>
<feOffset/>
<feGaussianBlur stdDeviation="10"/>
<feComposite in2="hardAlpha" operator="arithmetic" k2="-1" k3="1"/>
<feColorMatrix type="matrix" values="0 0 0 0 0.0313726 0 0 0 0 0.364706 0 0 0 0 0.941176 0 0 0 1 0"/>
<feBlend mode="normal" in2="shape" result="effect1_innerShadow_11396_295"/>
</filter>
</defs>
</svg>
