<svg width="79" height="79" viewBox="0 0 79 79" fill="none" xmlns="http://www.w3.org/2000/svg">
<rect x="0.104492" width="78.1916" height="78.1916" rx="39.0958" fill="#231815"/>
<path d="M47.5739 44.399C48.697 45.9081 49.8552 47.4523 51.0133 48.9965C48.697 51.734 45.8192 53.4888 42.3447 54.2258C38.4842 55.033 34.8342 54.4363 31.2895 52.471C34.4482 50.1196 37.5366 47.8033 40.6601 45.4869C41.362 46.1538 42.0288 46.8206 42.6956 47.4523C43.4326 48.1542 43.1519 48.1893 44.0995 47.6629C45.398 46.9259 46.486 45.9081 47.3283 44.6797C47.3634 44.6095 47.4335 44.5394 47.4686 44.4692C47.4335 44.4692 47.4686 44.4692 47.5739 44.399ZM33.7813 47.4874C32.9039 48.1542 32.0967 48.7508 31.2895 49.3826C30.6929 49.8388 30.0963 50.26 29.4997 50.7162C29.254 50.9268 29.0785 50.9268 28.7977 50.6811C26.1305 48.2946 24.4459 45.3466 23.8142 41.837C23.1824 38.2923 23.744 34.9231 25.4286 31.7294C25.4637 31.6592 25.5338 31.554 25.5689 31.4838C25.5689 31.4487 25.604 31.4487 25.6742 31.4136C27.9905 34.4669 30.342 37.5202 32.6583 40.5735C32.5881 40.6788 32.553 40.749 32.4828 40.8192C31.7809 41.5562 31.079 42.2932 30.342 42.9951C30.1314 43.2057 30.0963 43.3812 30.2367 43.6269C30.9737 45.0307 31.9915 46.1889 33.2549 47.1364C33.4304 47.2417 33.5708 47.347 33.7813 47.4874ZM46.872 25.693C45.749 26.5002 44.6259 27.3074 43.5028 28.0795C41.5726 29.4482 39.6423 30.852 37.7471 32.2208C37.5015 32.3962 37.326 32.4313 37.1154 32.1857C36.4837 31.5189 35.8169 30.9222 35.1852 30.2554C35.0097 30.0799 34.8342 30.0448 34.5885 30.1501C33.0794 30.9222 31.8862 32.0102 30.9035 33.3789C30.8333 33.4491 30.7631 33.5544 30.6929 33.6597C30.1314 32.9227 29.6049 32.2559 29.0785 31.554C28.517 30.8169 27.9905 30.0799 27.4641 29.378C27.2886 29.1323 27.2535 28.9569 27.4992 28.7112C30.2016 25.7281 33.5357 23.9733 37.5366 23.5521C40.6952 23.2012 43.7134 23.8329 46.5211 25.342C46.6264 25.4122 46.7316 25.4473 46.8369 25.5175C46.8369 25.6228 46.8369 25.6579 46.872 25.693ZM52.5926 46.7504C51.8556 45.8028 51.1888 44.9254 50.522 44.048C48.9778 42.0125 47.4336 39.9418 45.8542 37.9063C45.6437 37.6255 45.6437 37.45 45.8893 37.2044C46.5562 36.5375 47.1879 35.8707 47.8547 35.2039C48.0302 35.0284 48.1004 34.8529 47.96 34.6073C47.1879 33.1333 46.135 31.9049 44.7663 30.9222C44.661 30.852 44.5557 30.7468 44.4153 30.6766C44.5206 30.5713 44.6259 30.5011 44.6961 30.4309C46.0297 29.4131 47.3634 28.4304 48.697 27.4127C48.9076 27.2372 49.083 27.167 49.3287 27.4127C52.6628 30.4309 54.4527 34.1861 54.6282 38.7135C54.6984 41.3456 54.1017 43.8374 52.9085 46.1889C52.8032 46.3292 52.6979 46.5047 52.5926 46.7504Z" fill="white"/>
</svg>
