<svg width="79" height="79" viewBox="0 0 79 79" fill="none" xmlns="http://www.w3.org/2000/svg">
<rect x="0.396484" y="0.0377197" width="78.1916" height="78.1916" rx="39.0958" fill="#5453D3"/>
<path fill-rule="evenodd" clip-rule="evenodd" d="M35.8804 23.4147C35.8804 22.4997 35.1404 21.7579 34.2274 21.7579H30.3101C29.3972 21.7579 28.6572 22.4997 28.6572 23.4147V27.3411C28.6572 28.2561 27.9171 28.9979 27.0042 28.9979H23.3346C22.4217 28.9979 21.6816 29.7397 21.6816 30.6547V54.853C21.6816 55.7679 22.4217 56.5098 23.3346 56.5098H27.2519C28.1648 56.5098 28.9048 55.7679 28.9048 54.853V30.6547C28.9048 29.7397 29.6449 28.9979 30.5578 28.9979H34.2274C35.1404 28.9979 35.8804 28.2561 35.8804 27.3411V23.4147ZM50.3268 23.4147C50.3268 22.4997 49.5866 21.7579 48.6738 21.7579H44.7565C43.8435 21.7579 43.1035 22.4997 43.1035 23.4147V27.3411C43.1035 28.2561 43.8435 28.9979 44.7565 28.9979H48.426C49.339 28.9979 50.079 29.7397 50.079 30.6547V54.853C50.079 55.7679 50.8192 56.5098 51.732 56.5098H55.6493C56.5622 56.5098 57.3023 55.7679 57.3023 54.853V30.6547C57.3023 29.7397 56.5622 28.9979 55.6493 28.9979H51.9797C51.0668 28.9979 50.3268 28.2561 50.3268 27.3411V23.4147ZM43.1035 37.274C43.1035 36.3591 42.3635 35.6172 41.4506 35.6172H37.5334C36.6204 35.6172 35.8804 36.3591 35.8804 37.274V48.0266C35.8804 48.9417 36.6204 49.6834 37.5334 49.6834H41.4506C42.3635 49.6834 43.1035 48.9417 43.1035 48.0266V37.274Z" fill="white"/>
</svg>
