<svg width="79" height="79" viewBox="0 0 79 79" fill="none" xmlns="http://www.w3.org/2000/svg">
<rect x="0.294922" y="0.0377197" width="78.1916" height="78.1916" rx="39.0958" fill="#21325B"/>
<g clip-path="url(#clip0_4345_5000)">
<path d="M27.7727 38.1995C27.7727 37.9811 27.8158 37.7649 27.8996 37.5633C27.9833 37.3617 28.1061 37.1786 28.2608 37.0246C28.4156 36.8705 28.5992 36.7486 28.8012 36.6657C29.0032 36.5829 29.2196 36.5407 29.4379 36.5417L32.1986 36.5508C32.6388 36.5508 33.061 36.7257 33.3722 37.0369C33.6835 37.3482 33.8584 37.7703 33.8584 38.2105V48.6498C34.1693 48.5576 34.5682 48.4594 35.0051 48.3569C35.3085 48.2855 35.5789 48.1137 35.7724 47.8694C35.966 47.6251 36.0713 47.3226 36.0714 47.0109V34.0619C36.0713 33.6217 36.2462 33.1995 36.5574 32.8881C36.8687 32.5768 37.2909 32.4019 37.7311 32.4018H40.4974C40.9376 32.4019 41.3598 32.5769 41.671 32.8882C41.9823 33.1995 42.1571 33.6217 42.1571 34.0619V46.0804C42.1571 46.0804 42.8494 45.8 43.5242 45.5152C43.7748 45.4092 43.9887 45.2318 44.1391 45.005C44.2895 44.7783 44.3698 44.5123 44.37 44.2402V29.9119C44.37 29.6939 44.4129 29.4781 44.4963 29.2768C44.5797 29.0754 44.7019 28.8924 44.856 28.7383C45.0101 28.5842 45.1931 28.4619 45.3944 28.3785C45.5957 28.2951 45.8115 28.2522 46.0295 28.2522H48.7958C49.236 28.2522 49.6582 28.427 49.9694 28.7383C50.2807 29.0495 50.4556 29.4717 50.4557 29.9119V41.7105C52.8539 39.9725 55.2844 37.882 57.2132 35.3683C57.493 35.0035 57.6782 34.575 57.7522 34.1212C57.8262 33.6673 57.7867 33.2022 57.6372 32.7674C56.3321 28.964 53.8842 25.6566 50.628 23.2973C47.3719 20.9381 43.4665 19.6421 39.4458 19.5867C28.6039 19.4411 19.6436 28.2914 19.6446 39.1347C19.634 42.5659 20.5295 45.939 22.2407 48.9131C22.4766 49.3199 22.8238 49.6509 23.2414 49.8672C23.6589 50.0835 24.1296 50.1762 24.598 50.1343C25.1213 50.0882 25.7729 50.0231 26.5474 49.9322C26.8845 49.8938 27.1958 49.7328 27.4219 49.4798C27.6479 49.2268 27.7731 48.8995 27.7734 48.5602V38.1995" fill="white"/>
<path d="M27.712 54.9417C30.6278 57.0628 34.0736 58.3361 37.6681 58.6205C41.2626 58.9049 44.8657 58.1894 48.0788 56.5531C51.2919 54.9169 53.9897 52.4237 55.8738 49.3494C57.7579 46.275 58.7548 42.7394 58.7542 39.1337C58.7542 38.6836 58.7333 38.2386 58.7032 37.7959C51.5618 48.4463 38.3761 53.426 27.7119 54.9421" fill="#BFCFDA"/>
</g>
<defs>
<clipPath id="clip0_4345_5000">
<rect width="39.1102" height="39.0958" fill="white" transform="translate(19.6445 19.5857)"/>
</clipPath>
</defs>
</svg>
