<svg width="80" height="79" viewBox="0 0 80 79" fill="none" xmlns="http://www.w3.org/2000/svg">
<rect x="0.938477" y="0.124023" width="78.1916" height="78.1916" rx="39.0958" fill="#0C2129"/>
<path d="M44.7453 18.6005L21.5585 28.9239C19.4241 29.8742 18.4642 32.3748 19.4145 34.5092C20.3648 36.6436 22.8654 37.6035 24.9998 36.6532L48.1866 26.3298C50.321 25.3795 51.2809 22.8788 50.3306 20.7445C49.3803 18.6101 46.8797 17.6502 44.7453 18.6005Z" fill="#37BEC1"/>
<path d="M38.3134 35.356L22.8554 42.2383C20.721 43.1886 19.7611 45.6892 20.7114 47.8236C21.6617 49.958 24.1623 50.9179 26.2967 49.9676L41.7547 43.0853C43.8891 42.135 44.849 39.6344 43.8987 37.5C42.9484 35.3656 40.4478 34.4057 38.3134 35.356Z" fill="#FBB144"/>
<path d="M55.069 41.787L31.8822 52.1104C29.7478 53.0607 28.7879 55.5613 29.7382 57.6957C30.6885 59.8301 33.1891 60.79 35.3235 59.8397L58.5103 49.5163C60.6447 48.566 61.6046 46.0654 60.6543 43.931C59.704 41.7966 57.2034 40.8367 55.069 41.787Z" fill="#E4615E"/>
</svg>
