<svg width="79" height="79" viewBox="0 0 79 79" fill="none" xmlns="http://www.w3.org/2000/svg">
<rect x="0.605957" width="78.1916" height="78.1916" rx="39.0958" fill="#1E1E1E"/>
<path d="M39.6303 58.6437C38.199 58.6437 36.7244 58.2525 35.4232 57.5136C32.4738 55.8185 28.6136 53.6019 25.6642 51.9068C23.0618 50.429 21.457 47.6473 21.457 44.6917V33.478C21.457 30.479 23.0618 27.7408 25.6642 26.263C28.6136 24.5679 32.4738 22.3513 35.4232 20.6562C38.0255 19.1784 41.1918 19.1784 43.7942 20.6562C46.7435 22.3513 50.6037 24.5679 53.5531 26.263C54.8109 27.0019 55.8519 28.0016 56.5458 29.2186L43.7508 36.6944C41.2352 38.1721 39.6303 40.9973 39.6303 43.9094V58.6437ZM57.7603 42.7793V44.6917C57.7603 47.6908 56.1555 50.429 53.5531 51.9068C50.6037 53.6019 46.7435 55.8185 43.7942 57.5136C43.5339 57.6875 43.2303 57.8179 42.9701 57.9482V54.4711C42.9701 52.7326 43.9243 51.0809 45.399 50.1682C49.0423 47.995 52.729 45.9087 56.3724 43.7355C56.8928 43.4748 57.3266 43.127 57.7603 42.7793ZM57.6735 32.3914C57.7169 32.7392 57.7603 33.0869 57.7603 33.478V35.5208C57.7603 37.694 56.5458 39.7803 54.6808 40.9104C51.0375 43.0836 47.3508 45.1698 43.7074 47.343C43.4472 47.4734 43.2303 47.6473 42.9701 47.8212V43.9094C42.9701 42.1274 43.9677 40.4757 45.4423 39.563L57.6735 32.3914Z" fill="white"/>
</svg>
