<svg width="79" height="79" viewBox="0 0 79 79" fill="none" xmlns="http://www.w3.org/2000/svg">
<path d="M39.0949 78.2876C60.6864 78.2876 78.1898 60.7842 78.1898 39.1927C78.1898 17.6012 60.6864 0.0977783 39.0949 0.0977783C17.5034 0.0977783 0 17.6012 0 39.1927C0 60.7842 17.5034 78.2876 39.0949 78.2876Z" fill="#EE5E44"/>
<path d="M39.0949 78.2876C60.6864 78.2876 78.1898 60.7842 78.1898 39.1927C78.1898 17.6012 60.6864 0.0977783 39.0949 0.0977783C17.5034 0.0977783 0 17.6012 0 39.1927C0 60.7842 17.5034 78.2876 39.0949 78.2876Z" fill="white"/>
<path fill-rule="evenodd" clip-rule="evenodd" d="M39.0958 78.2894C60.6879 78.2894 78.1916 60.7856 78.1916 39.1936C78.1916 17.6016 60.6879 0.0977783 39.0958 0.0977783C17.5038 0.0977783 0 17.6016 0 39.1936C0 60.7856 17.5038 78.2894 39.0958 78.2894ZM28.8637 36.521L37.0161 43.3958L39.0958 45.2259L49.328 36.5974V53.931L58.4911 61.6432V16.8968L39.1206 33.2931L39.0958 33.2375L19.7006 16.8204V61.5668L28.8637 53.8545V36.521Z" fill="#3A36FF"/>
</svg>
