<svg width="79" height="79" viewBox="0 0 79 79" fill="none" xmlns="http://www.w3.org/2000/svg">
<rect x="0.120605" y="0.439087" width="78.1916" height="78.1916" rx="39.0958" fill="#1E1E1E"/>
<mask id="mask0_4345_5063" style="mask-type:luminance" maskUnits="userSpaceOnUse" x="14" y="14" width="50" height="51">
<path d="M63.9772 14.3396H14.0215V64.2954H63.9772V14.3396Z" fill="white"/>
</mask>
<g mask="url(#mask0_4345_5063)">
<path d="M24.4289 19.1271L63.1446 45.562L53.5697 59.7161L14.854 33.0731L24.4289 19.1271Z" fill="url(#paint0_linear_4345_5063)"/>
<path d="M63.1447 45.562C59.8144 50.3494 48.5743 48.4761 37.9587 40.9827C27.1349 33.6975 21.3068 23.9145 24.429 19.127C27.7594 14.3396 38.9994 16.2129 49.615 23.7063C60.4388 30.7834 66.267 40.7745 63.1447 45.562Z" fill="url(#paint1_linear_4345_5063)"/>
<path d="M53.5696 59.5078C50.2392 64.2952 38.9992 62.4219 28.3836 54.9285C17.768 47.4351 11.7317 37.8603 15.062 32.8647C18.3924 28.0773 29.6325 29.9506 40.2481 37.444C50.8637 44.9374 56.6919 54.7204 53.5696 59.5078Z" fill="url(#paint2_linear_4345_5063)"/>
<path d="M63.1447 45.562L53.5699 59.7161C50.2395 64.5036 38.9994 62.4221 28.3838 55.1368C26.3023 53.6798 24.429 52.2228 22.5557 50.5576C24.0127 50.3494 25.886 49.5168 27.7594 47.4353C31.0898 43.8968 32.755 43.0642 34.212 43.2723C35.6691 43.2723 37.3342 44.7294 40.0402 48.2679C42.7461 51.8065 46.4928 52.8472 48.7824 50.9739C48.9906 50.7657 49.1987 50.7657 49.4069 50.5576C51.2802 49.1005 51.9047 48.4761 55.4432 41.8153C56.2758 40.1501 59.1899 37.4442 63.1447 38.6931C64.1855 41.399 64.1855 43.6886 63.1447 45.562Z" fill="#0E0F23"/>
<path fill-rule="evenodd" clip-rule="evenodd" d="M61.6876 44.7293C58.7736 48.8923 48.5743 46.8108 38.7913 39.9418C28.8001 33.0729 22.9719 24.3307 25.886 20.1677C28.8001 16.0047 38.9994 18.0862 48.7824 24.9551C58.5654 31.824 64.3936 40.5663 61.6876 44.7293ZM52.5291 38.4848C51.072 40.5663 46.0765 39.5255 41.0809 36.1952C36.2935 32.8648 33.3794 28.4936 34.8364 26.4122C36.2935 24.3307 41.289 25.3714 46.2846 28.7018C51.072 32.0322 53.9861 36.4033 52.5291 38.4848Z" fill="white"/>
<path d="M23.5963 23.9144C23.5963 23.7062 23.3881 23.4981 23.18 23.7062C22.9718 23.9144 22.7637 23.9144 22.7637 24.1225C22.9718 24.747 23.18 25.1633 23.18 25.5796C23.18 25.7877 23.3881 25.9959 23.5963 25.7877C23.8044 25.7877 24.0126 25.5796 23.8044 25.3714C23.8044 24.9551 23.8044 24.5388 23.5963 23.9144Z" fill="white"/>
<path d="M24.6367 27.2449C24.6367 27.0368 24.4285 26.8286 24.2204 27.0368C24.0122 27.2449 24.0122 27.2449 24.0122 27.4531C26.3018 32.6568 31.0893 38.2768 37.3337 42.4398C37.5419 42.648 37.75 42.4398 37.9582 42.4398C38.1663 42.2317 37.9582 42.0235 37.9582 41.8154C31.5056 37.6524 26.9263 32.2405 24.6367 27.2449Z" fill="white"/>
<path d="M49.823 47.6433C49.6149 47.6433 49.4067 47.6433 49.4067 47.8515C49.4067 48.0596 49.4067 48.2678 49.6149 48.2678C50.2393 48.4759 51.0719 48.6841 51.6964 48.8922C51.9045 48.8922 52.1127 48.8922 52.1127 48.6841C52.1127 48.4759 52.1127 48.2678 51.9045 48.2678C51.2801 48.0596 50.4475 47.8515 49.823 47.6433Z" fill="white"/>
<path d="M53.5696 48.4761C53.3615 48.4761 53.1533 48.6842 53.1533 48.8924C53.1533 49.1005 53.3615 49.3087 53.5696 49.3087C55.2348 49.5168 57.1082 49.725 58.5652 49.5168C58.7733 49.5168 58.9815 49.3087 58.9815 49.1005C58.9815 48.8924 58.7733 48.6842 58.5652 48.6842C56.9 48.8924 55.2348 48.6842 53.5696 48.4761Z" fill="white"/>
</g>
<defs>
<linearGradient id="paint0_linear_4345_5063" x1="32.0142" y1="15.3685" x2="39.692" y2="41.7331" gradientUnits="userSpaceOnUse">
<stop stop-color="#03B8FF"/>
<stop offset="1" stop-color="#FA52A0"/>
</linearGradient>
<linearGradient id="paint1_linear_4345_5063" x1="38.3371" y1="13.527" x2="46.0151" y2="39.8918" gradientUnits="userSpaceOnUse">
<stop stop-color="#03B8FF"/>
<stop offset="1" stop-color="#FA52A0"/>
</linearGradient>
<linearGradient id="paint2_linear_4345_5063" x1="25.7109" y1="17.2038" x2="33.3889" y2="43.5686" gradientUnits="userSpaceOnUse">
<stop stop-color="#03B8FF"/>
<stop offset="1" stop-color="#FA52A0"/>
</linearGradient>
</defs>
</svg>
