<svg width="79" height="79" viewBox="0 0 79 79" fill="none" xmlns="http://www.w3.org/2000/svg">
<rect x="0.324219" y="0.439087" width="78.1916" height="78.1916" rx="39.0958" fill="url(#paint0_linear_4345_5052)"/>
<path fill-rule="evenodd" clip-rule="evenodd" d="M17.3827 28.5176C16.9537 27.4452 17.758 26.2924 18.9109 26.2924H26.096C26.7663 26.2924 27.3561 26.6945 27.6242 27.3111L33.3348 41.5474C33.4956 41.9227 33.4956 42.3517 33.3348 42.7538L29.7422 51.7084C29.206 53.0757 27.2488 53.0757 26.6858 51.7084L17.3827 28.5176ZM31.2436 28.464C30.8682 27.3916 31.6457 26.2924 32.7717 26.2924H39.0453C39.7424 26.2924 40.359 26.7213 40.5735 27.3648L45.7747 41.601C45.9087 41.9495 45.9087 42.3517 45.7747 42.7002L42.6647 51.2527C42.1553 52.6736 40.0909 52.6736 39.5815 51.2527L31.2436 28.464ZM45.2921 26.2924C44.1393 26.2924 43.335 27.4452 43.7639 28.5176L53.0671 51.7084C53.6033 53.0757 55.5604 53.0757 56.1234 51.7084L59.716 42.7538C59.8769 42.3517 59.8769 41.9227 59.716 41.5474L54.0054 27.3111C53.7641 26.6945 53.1475 26.2924 52.4772 26.2924H45.2921Z" fill="white"/>
<defs>
<linearGradient id="paint0_linear_4345_5052" x1="18688.1" y1="22.3479" x2="18688.1" y2="98.1959" gradientUnits="userSpaceOnUse">
<stop stop-color="#F213A4"/>
<stop offset="1" stop-color="#8009B8"/>
</linearGradient>
</defs>
</svg>
