<svg width="17" height="16" viewBox="0 0 17 16" fill="none" xmlns="http://www.w3.org/2000/svg">
<path d="M8.18872 -0.00488281H9.78872V2.49512H8.18872V-0.00488281Z" fill="white"/>
<path d="M8.98877 12.4951C11.4741 12.4951 13.4888 10.4804 13.4888 7.99512C13.4888 5.50984 11.4741 3.49512 8.98877 3.49512C6.50349 3.49512 4.48877 5.50984 4.48877 7.99512C4.48877 10.4804 6.50349 12.4951 8.98877 12.4951ZM8.98877 10.8951C7.38714 10.8951 6.08877 9.59674 6.08877 7.99512C6.08877 6.39349 7.38714 5.09512 8.98877 5.09512C10.5904 5.09512 11.8888 6.39349 11.8888 7.99512C11.8888 9.59674 10.5904 10.8951 8.98877 10.8951Z" fill="white"/>
<path d="M3.89773 1.77261L2.76636 2.90398L4.53412 4.67174L5.6655 3.54037L3.89773 1.77261Z" fill="white"/>
<path d="M0.98877 8.79512V7.19512H3.48877V8.79512H0.98877Z" fill="white"/>
<path d="M2.76633 13.0863L3.89771 14.2177L5.66547 12.4499L4.5341 11.3185L2.76633 13.0863Z" fill="white"/>
<path d="M8.18872 13.4951H9.78872V15.9951H8.18872V13.4951Z" fill="white"/>
<path d="M13.4436 11.3186L12.3123 12.4499L14.08 14.2177L15.2114 13.0863L13.4436 11.3186Z" fill="white"/>
<path d="M14.4888 8.79512V7.19512H16.9888V8.79512H14.4888Z" fill="white"/>
<path d="M12.3122 3.54034L13.4436 4.67171L15.2114 2.90394L14.08 1.77257L12.3122 3.54034Z" fill="white"/>
</svg>