<svg width="74" height="74" viewBox="0 0 74 74" fill="none" xmlns="http://www.w3.org/2000/svg">
<g id="ui/currencies">
<g id="Vector">
<path d="M58.5833 38.5417C58.5833 54.719 45.469 67.8333 29.2917 67.8333C13.1143 67.8333 0 54.719 0 38.5417C0 22.3643 13.1143 9.25 29.2917 9.25C45.469 9.25 58.5833 22.3643 58.5833 38.5417ZM29.2917 22.3542L25.0041 33.1933L13.875 34.1315L22.3542 41.7686L19.7636 53.1875L29.2917 47.0683L38.8197 53.1875L36.2292 41.7686L44.7083 34.1315L33.5793 33.1933L29.2917 22.3542Z" fill="#22AD73"/>
<path d="M58.5833 38.5417C58.5833 54.719 45.469 67.8333 29.2917 67.8333C13.1143 67.8333 0 54.719 0 38.5417C0 22.3643 13.1143 9.25 29.2917 9.25C45.469 9.25 58.5833 22.3643 58.5833 38.5417ZM29.2917 22.3542L25.0041 33.1933L13.875 34.1315L22.3542 41.7686L19.7636 53.1875L29.2917 47.0683L38.8197 53.1875L36.2292 41.7686L44.7083 34.1315L33.5793 33.1933L29.2917 22.3542Z" fill="white" fill-opacity="0.9"/>
<path d="M74 38.5417C74 48.399 69.1309 57.119 61.6667 62.4279V54.2638C65.4936 50.1379 67.8333 44.613 67.8333 38.5417C67.8333 32.4703 65.4936 26.9455 61.6667 22.8195V14.6554C69.1309 19.9643 74 28.6844 74 38.5417Z" fill="#22AD73"/>
<path d="M74 38.5417C74 48.399 69.1309 57.119 61.6667 62.4279V54.2638C65.4936 50.1379 67.8333 44.613 67.8333 38.5417C67.8333 32.4703 65.4936 26.9455 61.6667 22.8195V14.6554C69.1309 19.9643 74 28.6844 74 38.5417Z" fill="white" fill-opacity="0.9"/>
</g>
</g>
</svg>
