<svg width="74" height="74" viewBox="0 0 74 74" fill="none" xmlns="http://www.w3.org/2000/svg">
<g id="ui/faceScan">
<g id="Vector">
<path d="M23.7477 41.2396C24.8238 47.5848 30.347 52.4167 36.9986 52.4167C43.6503 52.4167 49.1734 47.5848 50.2496 41.2396H23.7477Z" fill="#1D66FF"/>
<path d="M23.7477 41.2396C24.8238 47.5848 30.347 52.4167 36.9986 52.4167C43.6503 52.4167 49.1734 47.5848 50.2496 41.2396H23.7477Z" fill="white" fill-opacity="0.9"/>
<path d="M28.5208 28.5208C28.5208 33.2038 25.6736 37 22.1615 37C18.6493 37 15.8021 33.2038 15.8021 28.5208C15.8021 23.8379 18.6493 20.0417 22.1615 20.0417C25.6736 20.0417 28.5208 23.8379 28.5208 28.5208Z" fill="#1D66FF"/>
<path d="M28.5208 28.5208C28.5208 33.2038 25.6736 37 22.1615 37C18.6493 37 15.8021 33.2038 15.8021 28.5208C15.8021 23.8379 18.6493 20.0417 22.1615 20.0417C25.6736 20.0417 28.5208 23.8379 28.5208 28.5208Z" fill="white" fill-opacity="0.9"/>
<path d="M58.1979 28.5208C58.1979 33.2038 55.3507 37 51.8385 37C48.3264 37 45.4792 33.2038 45.4792 28.5208C45.4792 23.8379 48.3264 20.0417 51.8385 20.0417C55.3507 20.0417 58.1979 23.8379 58.1979 28.5208Z" fill="#1D66FF"/>
<path d="M58.1979 28.5208C58.1979 33.2038 55.3507 37 51.8385 37C48.3264 37 45.4792 33.2038 45.4792 28.5208C45.4792 23.8379 48.3264 20.0417 51.8385 20.0417C55.3507 20.0417 58.1979 23.8379 58.1979 28.5208Z" fill="white" fill-opacity="0.9"/>
<path d="M12.75 7.5C9.85051 7.5 7.5 9.85051 7.5 12.75V27.75H0V12.75C0 5.70837 5.70837 1.21299e-06 12.75 1.21299e-06H27.75V7.5H12.75Z" fill="#1D66FF"/>
<path d="M12.75 7.5C9.85051 7.5 7.5 9.85051 7.5 12.75V27.75H0V12.75C0 5.70837 5.70837 1.21299e-06 12.75 1.21299e-06H27.75V7.5H12.75Z" fill="white" fill-opacity="0.9"/>
<path d="M66.5 12.75C66.5 9.85051 64.1495 7.5 61.25 7.5L46.25 7.5V0L61.25 6.5567e-07C68.2916 9.6347e-07 74 5.70837 74 12.75V27.75L66.5 27.75V12.75Z" fill="#1D66FF"/>
<path d="M66.5 12.75C66.5 9.85051 64.1495 7.5 61.25 7.5L46.25 7.5V0L61.25 6.5567e-07C68.2916 9.6347e-07 74 5.70837 74 12.75V27.75L66.5 27.75V12.75Z" fill="white" fill-opacity="0.9"/>
<path d="M61.25 66.5C64.1495 66.5 66.5 64.1495 66.5 61.25V46.25H74V61.25C74 68.2916 68.2916 74 61.25 74H46.25V66.5H61.25Z" fill="#1D66FF"/>
<path d="M61.25 66.5C64.1495 66.5 66.5 64.1495 66.5 61.25V46.25H74V61.25C74 68.2916 68.2916 74 61.25 74H46.25V66.5H61.25Z" fill="white" fill-opacity="0.9"/>
<path d="M7.5 61.25C7.5 64.1495 9.85051 66.5 12.75 66.5H27.75V74L12.75 74C5.70837 74 7.48562e-07 68.2916 1.67196e-06 61.25L3.63897e-06 46.25H7.5L7.5 61.25Z" fill="#1D66FF"/>
<path d="M7.5 61.25C7.5 64.1495 9.85051 66.5 12.75 66.5H27.75V74L12.75 74C5.70837 74 7.48562e-07 68.2916 1.67196e-06 61.25L3.63897e-06 46.25H7.5L7.5 61.25Z" fill="white" fill-opacity="0.9"/>
</g>
</g>
</svg>
