<svg width="74" height="75" viewBox="0 0 74 75" fill="none" xmlns="http://www.w3.org/2000/svg">
<g id="ui/sofort">
<g id="Vector">
<path d="M55.5631 37.558C55.2393 37.4655 54.9154 37.4192 54.5916 37.3729C60.2818 10.1712 60.2818 8.69082 60.2818 7.90437C60.2818 4.57354 58.4776 1.75159 55.2855 0.45627C51.2145 -0.839052 47.6986 0.733839 45.6169 4.71233L40.5281 19.9786C37.5211 6.60905 37.2435 5.96139 37.0122 5.45251C34.5604 -0.14513 30.4431 -0.0988681 28.2225 0.363747C26.3258 0.7801 22.0235 2.53804 22.4861 9.61605L24.1053 27.6118C21.8847 26.9178 19.5254 27.1954 17.166 28.6758L16.6572 29.0459C14.7142 30.9426 13.3726 34.0421 14.4366 37.6043C13.0488 38.2057 11.7997 39.1771 10.7819 40.6112C8.28383 43.757 8.88523 48.1981 12.2623 51.4364L15.3618 54.3509C16.5184 66.8415 25.6782 74.0121 40.8519 74.0121C57.4598 74.0121 60.1892 57.4042 61.3458 50.3262L61.4383 49.7248C62.8261 41.3977 58.6163 38.5757 55.5631 37.558ZM29.4716 6.00765C30.3968 5.8226 30.9057 5.91513 31.7384 7.76559C31.9235 8.36699 32.9412 12.253 37.2435 31.3589L42.7949 31.6365L50.8444 7.16419C51.6771 5.68382 52.371 5.5913 53.3425 5.86887C54.3603 6.28522 54.4991 7.30297 54.4991 7.85811C54.4528 8.69082 53.6664 13.5483 48.9014 36.1701C44.229 35.1524 41.037 34.5047 39.4641 34.1346C36.3183 33.3945 33.7739 34.1809 31.9697 35.6613L30.4431 33.5795L28.2225 9.15343C28.0375 6.33148 28.9165 6.14643 29.4716 6.00765ZM20.4969 33.3945C21.7459 32.7005 22.4398 32.8856 23.18 33.487L29.1015 41.4902C28.9627 43.4795 29.3328 45.2837 30.3043 46.764C30.2118 46.9028 30.073 46.9953 30.0267 47.0879C29.5641 47.3654 28.9165 47.7818 27.5749 46.6252C24.244 42.4617 21.8384 39.2234 20.4969 37.0954C20.1268 36.494 19.1553 34.9211 20.4969 33.3945ZM15.4081 44.1271C16.2408 42.9706 16.8885 42.7393 17.4436 42.7855C18.924 44.8673 20.867 47.3654 23.4113 50.5575C25.0768 52.0841 26.6496 52.778 28.0375 53.0093C28.2225 53.842 27.945 54.3972 27.6674 54.7673C26.3721 56.4327 25.7707 56.1089 25.123 55.7388L16.2871 47.3192C15.5931 46.6252 14.5291 45.1911 15.4081 44.1271ZM55.7481 48.7995L55.6556 49.4009C54.0827 58.9308 51.6771 68.2294 40.8519 68.2294C32.2935 68.2294 26.5109 65.8238 23.5039 61.1976C24.3366 61.5214 25.2155 61.7065 26.0482 61.7065C28.2688 61.7065 30.3968 60.5962 32.1548 58.3757C33.4963 56.8028 34.4216 54.3047 33.6351 51.4364C34.0977 51.0663 34.5141 50.65 34.8842 50.1874L39.3253 51.2514C37.4748 53.2869 36.5033 56.0626 36.5033 59.5785H42.286C42.286 57.4042 42.7949 55.785 43.7664 54.8598C44.9692 53.7495 47.0972 53.2406 50.1042 53.4257L50.4743 47.643C50.058 47.5967 49.6416 47.643 49.2253 47.643L36.5033 44.7285C34.9305 43.9421 34.3291 42.9243 35.1155 40.6112C35.4393 39.9636 36.4108 39.3622 38.1688 39.7323C40.4356 40.2412 45.8482 41.3977 54.0365 43.0631C54.7766 43.3869 56.5346 43.9883 55.7481 48.7995Z" fill="#8A55E9"/>
<path d="M55.5631 37.558C55.2393 37.4655 54.9154 37.4192 54.5916 37.3729C60.2818 10.1712 60.2818 8.69082 60.2818 7.90437C60.2818 4.57354 58.4776 1.75159 55.2855 0.45627C51.2145 -0.839052 47.6986 0.733839 45.6169 4.71233L40.5281 19.9786C37.5211 6.60905 37.2435 5.96139 37.0122 5.45251C34.5604 -0.14513 30.4431 -0.0988681 28.2225 0.363747C26.3258 0.7801 22.0235 2.53804 22.4861 9.61605L24.1053 27.6118C21.8847 26.9178 19.5254 27.1954 17.166 28.6758L16.6572 29.0459C14.7142 30.9426 13.3726 34.0421 14.4366 37.6043C13.0488 38.2057 11.7997 39.1771 10.7819 40.6112C8.28383 43.757 8.88523 48.1981 12.2623 51.4364L15.3618 54.3509C16.5184 66.8415 25.6782 74.0121 40.8519 74.0121C57.4598 74.0121 60.1892 57.4042 61.3458 50.3262L61.4383 49.7248C62.8261 41.3977 58.6163 38.5757 55.5631 37.558ZM29.4716 6.00765C30.3968 5.8226 30.9057 5.91513 31.7384 7.76559C31.9235 8.36699 32.9412 12.253 37.2435 31.3589L42.7949 31.6365L50.8444 7.16419C51.6771 5.68382 52.371 5.5913 53.3425 5.86887C54.3603 6.28522 54.4991 7.30297 54.4991 7.85811C54.4528 8.69082 53.6664 13.5483 48.9014 36.1701C44.229 35.1524 41.037 34.5047 39.4641 34.1346C36.3183 33.3945 33.7739 34.1809 31.9697 35.6613L30.4431 33.5795L28.2225 9.15343C28.0375 6.33148 28.9165 6.14643 29.4716 6.00765ZM20.4969 33.3945C21.7459 32.7005 22.4398 32.8856 23.18 33.487L29.1015 41.4902C28.9627 43.4795 29.3328 45.2837 30.3043 46.764C30.2118 46.9028 30.073 46.9953 30.0267 47.0879C29.5641 47.3654 28.9165 47.7818 27.5749 46.6252C24.244 42.4617 21.8384 39.2234 20.4969 37.0954C20.1268 36.494 19.1553 34.9211 20.4969 33.3945ZM15.4081 44.1271C16.2408 42.9706 16.8885 42.7393 17.4436 42.7855C18.924 44.8673 20.867 47.3654 23.4113 50.5575C25.0768 52.0841 26.6496 52.778 28.0375 53.0093C28.2225 53.842 27.945 54.3972 27.6674 54.7673C26.3721 56.4327 25.7707 56.1089 25.123 55.7388L16.2871 47.3192C15.5931 46.6252 14.5291 45.1911 15.4081 44.1271ZM55.7481 48.7995L55.6556 49.4009C54.0827 58.9308 51.6771 68.2294 40.8519 68.2294C32.2935 68.2294 26.5109 65.8238 23.5039 61.1976C24.3366 61.5214 25.2155 61.7065 26.0482 61.7065C28.2688 61.7065 30.3968 60.5962 32.1548 58.3757C33.4963 56.8028 34.4216 54.3047 33.6351 51.4364C34.0977 51.0663 34.5141 50.65 34.8842 50.1874L39.3253 51.2514C37.4748 53.2869 36.5033 56.0626 36.5033 59.5785H42.286C42.286 57.4042 42.7949 55.785 43.7664 54.8598C44.9692 53.7495 47.0972 53.2406 50.1042 53.4257L50.4743 47.643C50.058 47.5967 49.6416 47.643 49.2253 47.643L36.5033 44.7285C34.9305 43.9421 34.3291 42.9243 35.1155 40.6112C35.4393 39.9636 36.4108 39.3622 38.1688 39.7323C40.4356 40.2412 45.8482 41.3977 54.0365 43.0631C54.7766 43.3869 56.5346 43.9883 55.7481 48.7995Z" fill="white" fill-opacity="0.9"/>
</g>
</g>
</svg>
