<svg width="3000" height="3000" viewBox="0 0 3000 3000" fill="none" xmlns="http://www.w3.org/2000/svg">
<g clip-path="url(#clip0_5569_72826)">
<rect width="3000" height="3000" fill="#155DFD"/>
<circle cx="1500" cy="1500" r="1500" fill="#155DFD"/>
<path d="M587.596 2230.75C839.799 2148.27 1126.41 2048.74 1282.85 1934.35C1406.13 1849.79 1458.98 1757.13 1483.16 1651.34C1488.13 1629.73 1511.93 1629.73 1516.8 1651.34C1540.98 1757.01 1593.83 1849.67 1717.11 1934.35C1873.55 2048.74 2160.26 2148.28 2412.36 2230.75C2681.77 2308.44 2735.86 2334.34 2656.73 2207.31C2588.97 2088.63 2388.28 1817.51 2407.39 1489.82C2407.39 1489.21 2407.39 1488.59 2407.39 1487.86C2397.17 1162.25 2598.34 899.36 2662.18 786.079C2737.77 664.821 2675.65 693.54 2406.72 771.597C2154.43 854.195 1870.3 953.362 1715.2 1067.5C1593.25 1151.7 1540.79 1203.99 1516.8 1309.05C1511.83 1330.65 1488.03 1330.65 1483.16 1309.05C1459.17 1203.87 1406.71 1151.7 1284.76 1067.5C1129.66 953.362 845.533 854.195 593.234 771.597C324.307 693.54 262.284 664.821 337.782 786.079C401.621 899.36 602.791 1162.37 592.47 1488.1C592.47 1488.72 592.47 1489.33 592.47 1490.07C611.583 1817.76 410.891 2088.87 343.134 2207.55C264.004 2334.46 318.095 2308.68 587.5 2231L587.596 2230.75Z" fill="white"/>
<path d="M769.249 587.596C851.725 839.799 951.26 1126.41 1065.65 1282.85C1150.21 1406.13 1242.87 1458.98 1348.66 1483.16C1370.26 1488.13 1370.26 1511.93 1348.66 1516.8C1242.99 1540.98 1150.33 1593.83 1065.65 1717.11C951.26 1873.55 851.725 2160.26 769.249 2412.36C691.56 2681.77 665.664 2735.86 792.691 2656.73C911.372 2588.97 1182.49 2388.28 1510.18 2407.39C1510.79 2407.39 1511.41 2407.39 1512.14 2407.39C1837.75 2397.17 2100.64 2598.34 2213.92 2662.18C2335.18 2737.77 2306.46 2675.65 2228.4 2406.72C2145.8 2154.43 2046.64 1870.3 1932.5 1715.2C1848.3 1593.25 1796.01 1540.79 1690.95 1516.8C1669.35 1511.83 1669.35 1488.03 1690.95 1483.16C1796.13 1459.17 1848.3 1406.71 1932.5 1284.76C2046.64 1129.66 2145.8 845.533 2228.4 593.234C2306.46 324.307 2335.18 262.284 2213.92 337.782C2100.64 401.621 1837.63 602.791 1511.9 592.47C1511.28 592.47 1510.67 592.47 1509.93 592.47C1182.24 611.583 911.127 410.891 792.446 343.134C665.541 264.004 691.315 318.095 769.004 587.5L769.249 587.596Z" fill="white"/>
<path d="M1391.06 1500C1391.06 1352.11 1358.4 1218.38 1305.74 1121.72C1253.03 1024.95 1180.69 966 1101.53 966C1022.36 966 950.031 1024.95 897.314 1121.72C844.66 1218.38 812 1352.11 812 1500C812 1647.89 844.66 1781.62 897.314 1878.28C950.031 1975.05 1022.36 2034 1101.53 2034C1180.69 2034 1253.03 1975.05 1305.74 1878.28C1358.4 1781.62 1391.06 1647.89 1391.06 1500Z" fill="#155DFD" stroke="white" stroke-width="6"/>
<ellipse cx="126.414" cy="231.934" rx="126.414" ry="231.934" transform="matrix(1 0 0 -1 976.159 2037)" fill="white"/>
<path d="M2187.16 1500C2187.16 1352.11 2154.5 1218.38 2101.84 1121.72C2049.12 1024.95 1976.79 966 1897.63 966C1818.46 966 1746.13 1024.95 1693.41 1121.72C1640.76 1218.38 1608.1 1352.11 1608.1 1500C1608.1 1647.89 1640.76 1781.62 1693.41 1878.28C1746.13 1975.05 1818.46 2034 1897.63 2034C1976.79 2034 2049.12 1975.05 2101.84 1878.28C2154.5 1781.62 2187.16 1647.89 2187.16 1500Z" fill="#155DFD" stroke="white" stroke-width="6"/>
<ellipse cx="126.414" cy="231.934" rx="126.414" ry="231.934" transform="matrix(1 0 0 -1 1770.17 2037)" fill="white"/>
</g>
<defs>
<clipPath id="clip0_5569_72826">
<rect width="3000" height="3000" fill="white"/>
</clipPath>
</defs>
</svg>
