<svg width="3000" height="3000" viewBox="0 0 3000 3000" fill="none" xmlns="http://www.w3.org/2000/svg">
<g clip-path="url(#clip0_5569_72843)">
<rect width="3000" height="3000" fill="#155DFD"/>
<circle cx="1500" cy="1500" r="1500" fill="#155DFD"/>
<path d="M2321.64 1500C3048.65 1727.51 2902.59 1900.1 2182.54 1787.44C2625.43 2169.27 2494.23 2265.93 1974.71 1974.53C2266.19 2493.97 2169.44 2625.34 1787.53 2182.54C1900.19 2902.68 1727.6 3048.65 1500 2321.64C1272.49 3048.65 1099.9 2902.59 1212.56 2182.54C830.733 2625.43 734.069 2494.23 1025.47 1974.71C506.03 2266.19 374.655 2169.44 817.464 1787.53C97.3173 1900.19 -48.6455 1727.6 678.356 1500C-48.6455 1272.49 97.4051 1099.9 817.464 1212.56C374.567 830.733 505.767 734.069 1025.29 1025.47C733.806 506.03 830.558 374.655 1212.47 817.464C1099.81 97.3173 1272.4 -48.6455 1500 678.356C1727.51 -48.6455 1900.1 97.4051 1787.44 817.464C2169.27 374.567 2265.93 505.767 1974.53 1025.29C2493.97 733.806 2625.34 830.558 2182.54 1212.47C2902.68 1099.81 3048.65 1272.4 2321.64 1500Z" fill="white"/>
<path d="M1402.29 1500.15C1402.29 1632.88 1372.98 1752.91 1325.73 1839.64C1278.42 1926.48 1213.56 1979.29 1142.65 1979.29C1071.73 1979.29 1006.87 1926.48 959.562 1839.64C912.315 1752.91 883 1632.88 883 1500.15C883 1367.41 912.315 1247.38 959.562 1160.65C1006.87 1073.81 1071.73 1021 1142.65 1021C1213.56 1021 1278.42 1073.81 1325.73 1160.65C1372.98 1247.38 1402.29 1367.41 1402.29 1500.15Z" fill="#155DFD" stroke="white" stroke-width="6"/>
<ellipse cx="998.466" cy="1500.14" rx="113.501" ry="208.242" fill="white"/>
<path d="M2117.07 1500.15C2117.07 1632.88 2087.76 1752.91 2040.51 1839.64C1993.2 1926.48 1928.34 1979.29 1857.42 1979.29C1786.51 1979.29 1721.65 1926.48 1674.34 1839.64C1627.09 1752.91 1597.78 1632.88 1597.78 1500.15C1597.78 1367.41 1627.09 1247.38 1674.34 1160.65C1721.65 1073.81 1786.51 1021 1857.42 1021C1928.34 1021 1993.2 1073.81 2040.51 1160.65C2087.76 1247.38 2117.07 1367.41 2117.07 1500.15Z" fill="#155DFD" stroke="white" stroke-width="6"/>
<ellipse cx="1712.74" cy="1498.06" rx="113.501" ry="208.242" fill="white"/>
</g>
<defs>
<clipPath id="clip0_5569_72843">
<rect width="3000" height="3000" fill="white"/>
</clipPath>
</defs>
</svg>
