<svg width="428" height="424" viewBox="0 0 428 424" fill="none" xmlns="http://www.w3.org/2000/svg">
<circle cx="219.5" cy="256.5" r="49.5" fill="#0A0B0D"/>
<path d="M242.208 244.354C258.807 226.509 247.774 215.479 229.925 232.074C228.33 233.559 227.339 235.594 227.199 237.769C227.199 237.814 227.194 237.854 227.189 237.899C226.844 243.124 231.16 247.439 236.386 247.094C236.432 247.094 236.472 247.089 236.517 247.084C238.692 246.944 240.727 245.954 242.213 244.359L242.208 244.354Z" fill="white"/>
<path d="M195.076 266.93C178.477 284.775 189.51 295.805 207.359 279.21C208.954 277.725 209.944 275.69 210.084 273.515C210.084 273.47 210.089 273.43 210.094 273.385C210.439 268.16 206.124 263.845 200.897 264.19C200.852 264.19 200.812 264.195 200.767 264.2C198.592 264.34 196.556 265.33 195.071 266.925L195.076 266.93Z" fill="white"/>
<path d="M207.355 232.077C189.511 215.475 178.477 226.512 195.076 244.359C196.561 245.954 198.595 246.944 200.77 247.084C200.815 247.084 200.855 247.089 200.9 247.094C206.125 247.439 210.439 243.124 210.094 237.898C210.094 237.853 210.089 237.813 210.084 237.768C209.944 235.593 208.955 233.558 207.36 232.072L207.355 232.077Z" fill="white"/>
<path d="M229.929 279.208C247.775 295.807 258.805 284.774 242.21 266.925C240.725 265.33 238.69 264.34 236.515 264.2C236.47 264.2 236.43 264.195 236.385 264.19C231.159 263.845 226.844 268.16 227.189 273.387C227.189 273.432 227.194 273.472 227.199 273.517C227.339 275.692 228.329 277.728 229.924 279.213L229.929 279.208Z" fill="white"/>
<path d="M227.327 230.992C226.442 206.659 210.843 206.659 209.958 230.992C209.878 233.165 210.618 235.303 212.058 236.941C212.088 236.976 212.113 237.006 212.143 237.041C215.593 240.978 221.692 240.978 225.142 237.041C225.172 237.006 225.197 236.976 225.227 236.941C226.667 235.308 227.402 233.17 227.327 230.992Z" fill="white"/>
<path d="M193.992 246.957C169.659 247.842 169.659 263.441 193.992 264.326C196.165 264.406 198.303 263.666 199.941 262.226C199.971 262.196 200.006 262.171 200.041 262.141C203.977 258.692 203.977 252.592 200.041 249.142C200.006 249.112 199.976 249.087 199.941 249.057C198.308 247.617 196.17 246.882 193.992 246.957Z" fill="white"/>
<path d="M237.343 249.058C237.308 249.088 237.278 249.113 237.243 249.143C233.306 252.593 233.306 258.692 237.243 262.142C237.278 262.172 237.308 262.197 237.343 262.227C238.976 263.667 241.114 264.402 243.292 264.327C267.625 263.442 267.625 247.843 243.292 246.958C241.119 246.878 238.981 247.618 237.343 249.058Z" fill="white"/>
<path d="M209.957 280.292C210.842 304.625 226.441 304.625 227.326 280.292C227.406 278.119 226.666 275.981 225.226 274.343C225.196 274.308 225.171 274.278 225.141 274.243C221.692 270.306 215.592 270.306 212.142 274.243C212.112 274.278 212.087 274.308 212.057 274.343C210.617 275.976 209.882 278.114 209.957 280.292Z" fill="white"/>
<circle cx="218.659" cy="255.659" r="29.2545" fill="white"/>
<path d="M201.218 247L200 248.218L206.201 254.42L200 260.621L201.218 261.839L207.42 255.638L213.621 261.839L214.839 260.621L208.638 254.42L214.839 248.218L213.621 247L207.42 253.201L201.218 247Z" fill="#0A0B0D" stroke="black" stroke-linecap="square" stroke-linejoin="round"/>
<path d="M225.379 247L224.161 248.218L230.362 254.42L224.161 260.621L225.379 261.839L231.581 255.638L237.782 261.839L239 260.621L232.799 254.42L239 248.218L237.782 247L231.581 253.201L225.379 247Z" fill="#0A0B0D" stroke="black" stroke-linecap="square" stroke-linejoin="round"/>
<circle cx="105.048" cy="152.048" r="77.6067" transform="rotate(-15 105.048 152.048)" fill="#0A0B0D"/>
<path d="M162.875 148.415C162.336 144.672 161.577 140.916 160.574 137.17C159.57 133.425 158.351 129.8 156.944 126.282C164.256 118.885 163.018 105.132 151.875 100.528C147.225 98.6067 142.415 97.0404 137.485 95.866C133.998 92.1936 130.242 88.8013 126.253 85.7352C116.696 78.3947 104.166 84.1916 101.415 94.2222C97.6722 94.7611 93.9165 95.5195 90.1705 96.5232C86.4245 97.527 82.8003 98.746 79.2822 100.153C71.8847 92.8413 58.1321 94.0789 53.528 105.222C51.6067 109.872 50.0405 114.682 48.866 119.611C45.1937 123.099 41.8013 126.855 38.7352 130.844C31.3947 140.4 37.1917 152.931 47.2222 155.682C47.7611 159.425 48.5195 163.18 49.5233 166.926C50.527 170.672 51.746 174.297 53.1526 177.815C45.8413 185.212 47.0789 198.965 58.2219 203.569C62.8716 205.49 67.682 207.056 72.6115 208.231C76.0988 211.903 79.855 215.295 83.8437 218.362C93.4005 225.702 105.931 219.905 108.682 209.875C112.425 209.336 116.18 208.577 119.926 207.574C123.672 206.57 127.297 205.351 130.815 203.944C138.212 211.256 151.965 210.018 156.569 198.875C158.49 194.225 160.056 189.415 161.231 184.485C164.903 180.998 168.296 177.242 171.362 173.253C178.702 163.696 172.905 151.165 162.875 148.415Z" fill="white"/>
<path d="M69.9678 142.933L68.3387 145.613L81.9818 153.907L73.688 167.55L76.3678 169.179L84.6615 155.536L98.3045 163.83L99.9336 161.15L86.2905 152.856L94.5843 139.213L91.9045 137.584L83.6108 151.227L69.9678 142.933Z" fill="#0A0B0D" stroke="black" stroke-linecap="square" stroke-linejoin="round"/>
<path d="M112.701 132.513L111.072 135.193L124.715 143.486L116.421 157.129L119.101 158.758L127.395 145.115L141.038 153.409L142.667 150.729L129.024 142.436L137.317 128.793L134.638 127.163L126.344 140.807L112.701 132.513Z" fill="#0A0B0D" stroke="black" stroke-linecap="square" stroke-linejoin="round"/>
<circle cx="298.162" cy="107.162" r="94.838" fill="#0A0B0D"/>
<path d="M350.111 107.162C396.076 121.547 386.842 132.459 341.316 125.336C369.318 149.477 361.023 155.588 328.176 137.165C346.605 170.006 340.488 178.312 316.341 150.316C323.464 195.847 312.552 205.076 298.162 159.111C283.778 205.076 272.866 195.842 279.988 150.316C255.848 178.318 249.736 170.023 268.16 137.176C235.318 155.605 227.012 149.488 255.009 125.341C209.477 132.464 200.249 121.552 246.213 107.162C200.249 92.7775 209.483 81.8655 255.009 88.9883C227.006 64.8474 235.301 58.7358 268.149 77.1595C249.719 44.3179 255.836 36.0117 279.983 64.0085C272.86 18.4769 283.772 9.24836 298.162 55.2133C312.547 9.24836 323.459 18.4825 316.336 64.0085C340.477 36.0061 346.588 44.3013 328.165 77.1484C361.006 58.7191 369.313 64.8363 341.316 88.9827C386.847 81.8599 396.076 92.7719 350.111 107.162Z" fill="white"/>
<path d="M268.968 95L267 96.9677L277.018 106.985L267 117.003L268.968 118.971L278.985 108.953L289.003 118.971L290.971 117.003L280.953 106.985L290.971 96.9677L289.003 95L278.985 105.018L268.968 95Z" fill="#0A0B0D" stroke="black" stroke-linecap="square" stroke-linejoin="round"/>
<path d="M307.997 95L306.029 96.9677L316.047 106.985L306.029 117.003L307.997 118.971L318.015 108.953L328.032 118.971L330 117.003L319.982 106.985L330 96.9677L328.032 95L318.015 105.018L307.997 95Z" fill="#0A0B0D" stroke="black" stroke-linecap="square" stroke-linejoin="round"/>
<circle cx="125.565" cy="347.565" r="56" transform="rotate(-28.3225 125.565 347.565)" fill="#0A0B0D"/>
<path d="M165.433 326.077C169.231 331.703 167.847 338.269 166.202 343.663C164.393 349.206 162.326 353.575 161.008 358.175C159.579 362.743 158.901 367.538 157.364 373.162C155.77 378.574 153.316 384.82 147.052 387.433C141.426 391.232 134.86 389.848 129.466 388.202C123.923 386.393 119.554 384.326 114.954 383.008C110.386 381.579 105.591 380.901 99.9666 379.364C94.5548 377.77 88.3095 375.316 85.696 369.052C81.8975 363.426 83.2814 356.86 84.9273 351.466C86.7356 345.924 88.8028 341.555 90.1211 336.954C91.5496 332.386 92.2278 327.591 93.765 321.967C95.3572 316.552 97.8114 310.307 104.077 307.696C109.703 303.898 116.269 305.282 121.663 306.927C127.206 308.736 131.574 310.803 136.175 312.121C140.743 313.55 145.538 314.228 151.162 315.765C156.574 317.359 162.819 319.813 165.433 326.077Z" fill="white"/>
<path d="M98.1267 349.969L97.4013 352.257L109.05 355.95L105.357 367.599L107.645 368.324L111.338 356.675L122.987 360.368L123.713 358.08L112.064 354.387L115.757 342.738L113.469 342.013L109.776 353.662L98.1267 349.969Z" fill="#0A0B0D" stroke="black" stroke-linecap="square" stroke-linejoin="round"/>
<path d="M128.013 334.471L127.288 336.759L138.937 340.452L135.244 352.101L137.532 352.826L141.225 341.177L152.874 344.87L153.599 342.582L141.95 338.889L145.643 327.24L143.355 326.515L139.662 338.164L128.013 334.471Z" fill="#0A0B0D" stroke="black" stroke-linecap="square" stroke-linejoin="round"/>
<circle cx="347.79" cy="277.791" r="55.103" transform="rotate(18.513 347.79 277.791)" fill="#0A0B0D"/>
<path d="M307.484 292.603C317.231 292.672 328.376 292.548 335.16 290.388C340.441 288.88 343.362 286.269 345.439 282.866C345.864 282.171 346.693 282.449 346.611 283.258C346.22 287.221 346.98 291.065 350.287 295.453C354.402 301.263 363.229 308.074 371.049 313.888C379.527 319.736 381.109 321.269 379.834 315.922C378.858 310.997 375.03 299.212 379.518 288.02C379.525 287.999 379.532 287.977 379.541 287.952C382.982 276.49 393.056 269.679 396.602 266.477C400.649 263.135 398.15 263.411 387.872 262.993C378.12 262.928 367.066 263.068 360.332 265.235C355.102 266.745 352.664 267.955 350.603 271.335C350.178 272.029 349.349 271.752 349.431 270.942C349.822 266.999 348.603 264.569 345.338 260.214C341.266 254.429 332.525 247.661 324.7 241.84C316.243 235.985 314.417 234.261 315.633 239.365C316.535 244.056 320.475 255.564 316.316 266.791C316.309 266.812 316.302 266.833 316.293 266.859C313.137 278.497 302.983 285.6 299.239 288.944C295.002 292.442 297.187 292.175 307.478 292.611L307.484 292.603Z" fill="white"/>
<path d="M332.978 237.484C332.909 247.231 333.033 258.376 335.193 265.16C336.701 270.441 339.312 273.362 342.715 275.439C343.41 275.864 343.132 276.693 342.323 276.611C338.36 276.22 334.516 276.98 330.128 280.287C324.318 284.402 317.507 293.229 311.693 301.049C305.845 309.527 304.312 311.109 309.66 309.834C314.584 308.858 326.369 305.03 337.561 309.518C337.582 309.525 337.604 309.532 337.63 309.541C349.091 312.982 355.902 323.056 359.104 326.602C362.446 330.649 362.17 328.15 362.588 317.872C362.653 308.12 362.513 297.066 360.346 290.332C358.836 285.102 357.626 282.664 354.246 280.603C353.552 280.178 353.829 279.349 354.639 279.431C358.582 279.823 361.012 278.603 365.367 275.338C371.152 271.266 377.921 262.525 383.741 254.7C389.597 246.243 391.32 244.417 386.216 245.633C381.525 246.535 370.017 250.475 358.791 246.316C358.769 246.309 358.748 246.302 358.722 246.293C347.084 243.137 339.981 232.983 336.637 229.239C333.14 225.002 333.406 227.187 332.97 237.478L332.978 237.484Z" fill="white"/>
<path d="M329.011 260.242L326.967 261.226L331.974 271.631L321.569 276.638L322.552 278.682L332.958 273.675L337.965 284.081L340.009 283.097L335.002 272.691L345.407 267.684L344.424 265.641L334.018 270.648L329.011 260.242Z" fill="#0A0B0D" stroke="black" stroke-linecap="square" stroke-linejoin="round"/>
<path d="M359.035 270.758L356.992 271.742L361.999 282.148L351.593 287.155L352.577 289.198L362.982 284.191L367.989 294.597L370.033 293.613L365.026 283.208L375.432 278.201L374.448 276.157L364.042 281.164L359.035 270.758Z" fill="#0A0B0D" stroke="black" stroke-linecap="square" stroke-linejoin="round"/>
<circle cx="269" cy="366" r="31" transform="rotate(15 269 366)" fill="#0A0B0D"/>
<path d="M291.3 365.714C290.315 364.957 289.408 364.193 288.569 363.411C289.177 362.439 289.854 361.464 290.61 360.479C294.158 355.861 290.345 349.256 284.572 350.02C283.34 350.183 282.157 350.284 281.012 350.322C280.754 349.207 280.546 348.037 280.383 346.805C279.628 341.031 272.26 339.057 268.719 343.68C267.963 344.665 267.198 345.571 266.416 346.411C265.444 345.803 264.47 345.126 263.484 344.37C258.866 340.822 252.261 344.635 253.026 350.408C253.188 351.64 253.29 352.823 253.328 353.968C252.212 354.226 251.042 354.434 249.81 354.596C244.037 355.352 242.062 362.72 246.685 366.261C247.67 367.017 248.577 367.782 249.417 368.564C248.808 369.536 248.132 370.51 247.375 371.496C243.827 376.113 247.64 382.719 253.414 381.954C254.645 381.792 255.828 381.69 256.973 381.652C257.231 382.768 257.439 383.938 257.602 385.17C258.357 390.943 265.725 392.918 269.266 388.295C270.023 387.31 270.787 386.403 271.569 385.563C272.541 386.172 273.516 386.848 274.501 387.605C279.119 391.153 285.724 387.34 284.96 381.566C284.797 380.335 284.696 379.152 284.658 378.007C285.773 377.749 286.943 377.54 288.175 377.378C293.949 376.623 295.923 369.255 291.3 365.714ZM272.478 371.807C272.416 371.844 272.353 371.88 272.29 371.916C271.515 372.378 270.686 372.657 269.848 372.777C269.032 372.865 268.188 372.804 267.346 372.567C267.275 372.547 267.206 372.529 267.134 372.51C266.287 372.295 265.523 371.922 264.862 371.441C264.197 370.918 263.618 370.262 263.178 369.475C263.142 369.412 263.105 369.349 263.069 369.286C262.608 368.511 262.329 367.682 262.208 366.845C262.12 366.031 262.182 365.184 262.419 364.342C262.438 364.271 262.456 364.202 262.476 364.131C262.691 363.283 263.064 362.519 263.544 361.858C264.067 361.194 264.724 360.615 265.511 360.174C265.574 360.138 265.636 360.102 265.699 360.065C266.474 359.604 267.304 359.325 268.141 359.204C268.954 359.116 269.802 359.178 270.643 359.415C270.715 359.434 270.783 359.453 270.855 359.472C271.702 359.687 272.466 360.06 273.127 360.541C273.792 361.064 274.371 361.72 274.811 362.507C274.847 362.57 274.884 362.633 274.92 362.695C275.381 363.47 275.66 364.3 275.781 365.137C275.869 365.953 275.808 366.798 275.57 367.639C275.551 367.711 275.533 367.78 275.514 367.851C275.298 368.698 274.926 369.462 274.445 370.123C273.922 370.788 273.266 371.367 272.478 371.807Z" fill="white"/>
<circle cx="268.831" cy="364.714" r="9.15533" transform="rotate(15 268.831 364.714)" fill="white"/>
<path d="M260.706 352.39L259.567 352.836L261.841 358.638L256.04 360.912L256.486 362.051L262.288 359.777L264.562 365.579L265.701 365.132L263.427 359.33L269.229 357.056L268.782 355.917L262.98 358.191L260.706 352.39Z" fill="#0A0B0D" stroke="black" stroke-linecap="square" stroke-linejoin="round"/>
<path d="M276.438 359.26L275.298 359.707L277.573 365.509L271.771 367.783L272.218 368.922L278.019 366.648L280.294 372.449L281.433 372.003L279.159 366.201L284.96 363.927L284.514 362.788L278.712 365.062L276.438 359.26Z" fill="#0A0B0D" stroke="black" stroke-linecap="square" stroke-linejoin="round"/>
<circle cx="169.5" cy="31.5" r="31.5" fill="#89909E"/>
<circle cx="31.5" cy="273.5" r="31.5" fill="#89909E"/>
<circle cx="409.5" cy="199.5" r="18.5" fill="#89909E"/>
<circle cx="204.5" cy="404.5" r="18.5" fill="#89909E"/>
</svg>
