<svg xmlns="http://www.w3.org/2000/svg" width="151" height="129" viewBox="0 0 151 129" fill="none">
  <g filter="url(#filter0_dd_9579_8959)">
    <path fill-rule="evenodd" clip-rule="evenodd"
      d="M41.1926 14.0542C36.5085 13.5408 32.2214 16.7274 31.3627 21.3607L27.8527 40.302L26.3866 40.1436L17.3001 88.4334C16.3296 93.5911 19.9602 98.4818 25.1781 99.0456L113.102 108.545C117.772 109.05 122.045 105.878 122.913 101.262L126.681 81.2351L126.76 81.2438L131.998 52.9795L132.261 51.5829L132.257 51.5825L134.709 38.349C136.087 30.9168 130.857 23.8811 123.343 23.0576L41.1926 14.0542Z"
      fill="url(#paint0_linear_9579_8959)" />
    <path
      d="M25.5 38.4648L129.875 49.9039L120.898 98.3479C120.039 102.981 115.752 106.168 111.068 105.654L24.6349 96.1817C19.4331 95.6116 15.8126 90.7407 16.7661 85.5954L25.5 38.4648Z"
      fill="url(#paint1_linear_9579_8959)" />
    <path
      d="M28.9773 19.6818C29.8359 15.0485 34.123 11.8619 38.8071 12.3753L120.958 21.3787C128.472 22.2021 133.701 29.2379 132.324 36.67L124.375 79.5648L20 68.1258L28.9773 19.6818Z"
      fill="url(#paint2_linear_9579_8959)" />
    <path fill-rule="evenodd" clip-rule="evenodd"
      d="M61.4628 37.9821C60.6472 38.2467 59.7919 38.4784 58.8859 38.6796C54.6376 39.6185 53.6489 45.2317 57.3207 47.5656C58.1035 48.0643 58.8302 48.5747 59.5042 49.1017C59.117 49.8652 58.6748 50.6341 58.1762 51.4169C55.8363 55.0855 59.1057 59.7529 63.3531 58.8074C64.2591 58.6062 65.1325 58.4555 65.9827 58.3503C66.2473 59.166 66.479 60.0212 66.6802 60.9273C67.6191 65.1756 73.2323 66.1643 75.5663 62.4924C76.0649 61.7097 76.5753 60.983 77.1023 60.3089C77.8658 60.6962 78.6347 61.1384 79.4175 61.637C83.0861 63.9769 87.7536 60.7074 86.808 56.4601C86.6068 55.5541 86.4561 54.6807 86.3509 53.8305C87.1666 53.5659 88.0218 53.3341 88.9279 53.1329C93.1762 52.1941 94.1649 46.5808 90.4931 44.2469C89.7103 43.7483 88.9836 43.2379 88.3095 42.7109C88.6968 41.9474 89.139 41.1784 89.6376 40.3957C91.9775 36.7271 88.708 32.0596 84.4607 33.0051C83.5547 33.2063 82.6813 33.3571 81.8311 33.4622C81.5665 32.6466 81.3347 31.7913 81.1336 30.8853C80.1947 26.637 74.5815 25.6483 72.2475 29.3201C71.7489 30.1029 71.2385 30.8296 70.7115 31.5036C69.948 31.1164 69.179 30.6742 68.3963 30.1755C64.7277 27.8357 60.0602 31.1051 61.0058 35.3524C61.2069 36.2585 61.3577 37.1319 61.4628 37.9821Z"
      fill="white" />
    <path
      d="M72.8296 42.3245C72.1199 46.1488 69.8558 48.9357 67.7725 48.5491C65.6892 48.1625 64.5757 44.7489 65.2853 40.9246C65.995 37.1002 68.2592 34.3134 70.3424 34.7C72.4257 35.0866 73.5393 38.5002 72.8296 42.3245Z"
      fill="#8B40BB" />
    <path
      d="M72.8296 42.3245C72.1199 46.1488 69.8558 48.9357 67.7725 48.5491C65.6892 48.1625 64.5757 44.7489 65.2853 40.9246C65.995 37.1002 68.2592 34.3134 70.3424 34.7C72.4257 35.0866 73.5393 38.5002 72.8296 42.3245Z"
      stroke="white" />
    <ellipse cx="69.7526" cy="37.7151" rx="1.65793" ry="3.04182" transform="rotate(10.5127 69.7526 37.7151)"
      fill="white" />
    <path
      d="M83.0952 44.2298C82.3855 48.0541 80.1214 50.841 78.0381 50.4544C75.9548 50.0678 74.8413 46.6542 75.551 42.8298C76.2606 39.0055 78.5248 36.2187 80.6081 36.6053C82.6914 36.9919 83.8049 40.4055 83.0952 44.2298Z"
      fill="#8B40BB" />
    <path
      d="M83.0952 44.2298C82.3855 48.0541 80.1214 50.841 78.0381 50.4544C75.9548 50.0678 74.8413 46.6542 75.551 42.8298C76.2606 39.0055 78.5248 36.2187 80.6081 36.6053C82.6914 36.9919 83.8049 40.4055 83.0952 44.2298Z"
      stroke="white" />
    <ellipse cx="80.1227" cy="39.6087" rx="1.65793" ry="3.04182" transform="rotate(10.5127 80.1227 39.6087)"
      fill="white" />
    <path
      d="M94.9053 68.8716C95.6056 67.5747 96.6009 66.4605 97.811 65.619C99.0211 64.7775 100.412 64.2323 101.872 64.0273C100.575 63.3268 99.4609 62.3314 98.6195 61.1214C97.778 59.9113 97.2327 58.5205 97.0274 57.061C96.3271 58.3579 95.3318 59.4721 94.1217 60.3136C92.9116 61.155 91.5206 61.7003 90.0611 61.9053C91.3582 62.6053 92.4726 63.6005 93.3141 64.8106C94.1556 66.0208 94.7007 67.4119 94.9053 68.8716Z"
      fill="white" />
    <path
      d="M51.5928 32.0115C52.1376 31.0028 52.9118 30.1363 53.8531 29.4819C54.7944 28.8274 55.8763 28.4035 57.0116 28.2442C56.0029 27.6993 55.1363 26.925 54.4818 25.9837C53.8272 25.0424 53.403 23.9605 53.2433 22.8252C52.6988 23.834 51.9247 24.7007 50.9835 25.3553C50.0424 26.0099 48.9605 26.4341 47.8253 26.5937C48.8341 27.1381 49.7007 27.9121 50.3551 28.8533C51.0096 29.7944 51.4336 30.8763 51.5928 32.0115Z"
      fill="white" />
  </g>
  <defs>
    <filter id="filter0_dd_9579_8959" x="0.613525" y="0.321289" width="150.316" height="128.277"
      filterUnits="userSpaceOnUse" color-interpolation-filters="sRGB">
      <feFlood flood-opacity="0" result="BackgroundImageFix" />
      <feColorMatrix in="SourceAlpha" type="matrix" values="0 0 0 0 0 0 0 0 0 0 0 0 0 0 0 0 0 0 127 0"
        result="hardAlpha" />
      <feOffset dy="4" />
      <feGaussianBlur stdDeviation="8" />
      <feComposite in2="hardAlpha" operator="out" />
      <feColorMatrix type="matrix" values="0 0 0 0 0.270588 0 0 0 0 0.294118 0 0 0 0 0.52549 0 0 0 0.25 0" />
      <feBlend mode="normal" in2="BackgroundImageFix" result="effect1_dropShadow_9579_8959" />
      <feColorMatrix in="SourceAlpha" type="matrix" values="0 0 0 0 0 0 0 0 0 0 0 0 0 0 0 0 0 0 127 0"
        result="hardAlpha" />
      <feOffset dy="4" />
      <feGaussianBlur stdDeviation="4" />
      <feComposite in2="hardAlpha" operator="out" />
      <feColorMatrix type="matrix" values="0 0 0 0 0 0 0 0 0 0 0 0 0 0 0 0 0 0 0.1 0" />
      <feBlend mode="normal" in2="effect1_dropShadow_9579_8959" result="effect2_dropShadow_9579_8959" />
      <feBlend mode="normal" in="SourceGraphic" in2="effect2_dropShadow_9579_8959" result="shape" />
    </filter>
    <linearGradient id="paint0_linear_9579_8959" x1="115" y1="106.5" x2="133.5" y2="40" gradientUnits="userSpaceOnUse">
      <stop stop-color="#9176A2" />
      <stop offset="1" stop-color="#D3C7DA" />
    </linearGradient>
    <linearGradient id="paint1_linear_9579_8959" x1="134" y1="78" x2="46" y2="98" gradientUnits="userSpaceOnUse">
      <stop stop-color="#FFFDD4" />
      <stop offset="1" stop-color="#C8BAE6" />
    </linearGradient>
    <linearGradient id="paint2_linear_9579_8959" x1="29.4447" y1="69.1609" x2="128.614" y2="80.0295"
      gradientUnits="userSpaceOnUse">
      <stop stop-color="#B139FF" />
      <stop offset="1" stop-color="#FF9533" />
    </linearGradient>
  </defs>
</svg>