<svg width="33" height="32" viewBox="0 0 33 32" fill="none" xmlns="http://www.w3.org/2000/svg">
<g id="nav/faces">
<g id="vector">
<path d="M19.819 2.66022C14.2962 2.66022 9.81901 7.13737 9.81901 12.6602C9.81901 18.1831 14.2962 22.6602 19.819 22.6602C25.3419 22.6602 29.819 18.1831 29.819 12.6602C29.819 7.13737 25.3419 2.66022 19.819 2.66022ZM19.8143 17.9935C18.1849 17.9935 16.822 16.8531 16.4801 15.3269H23.1484C22.8066 16.8531 21.4436 17.9935 19.8143 17.9935ZM24.4857 10.9936C24.4857 12.2822 23.7395 13.3269 22.819 13.3269C21.8985 13.3269 21.1523 12.2822 21.1523 10.9936C21.1523 9.70489 21.8985 8.66022 22.819 8.66022C23.7395 8.66022 24.4857 9.70489 24.4857 10.9936ZM16.819 13.3269C15.8985 13.3269 15.1523 12.2822 15.1523 10.9936C15.1523 9.70489 15.8985 8.66022 16.819 8.66022C17.7395 8.66022 18.4857 9.70489 18.4857 10.9936C18.4857 12.2822 17.7395 13.3269 16.819 13.3269Z" fill="#578BFA"/>
<path d="M8.48568 14.6602C8.48568 16.133 7.29177 17.3269 5.81901 17.3269C4.34625 17.3269 3.15234 16.133 3.15234 14.6602C3.15234 13.1875 4.34625 11.9936 5.81901 11.9936C7.29177 11.9936 8.48568 13.1875 8.48568 14.6602Z" fill="#578BFA"/>
<path d="M8.15234 29.3269C10.9138 29.3269 13.1523 27.0883 13.1523 24.3269C13.1523 21.5655 10.9138 19.3269 8.15234 19.3269C5.39092 19.3269 3.15234 21.5655 3.15234 24.3269C3.15234 27.0883 5.39092 29.3269 8.15234 29.3269Z" fill="#578BFA"/>
</g>
</g>
</svg>
