<svg width="32" height="32" viewBox="0 0 32 32" fill="none" xmlns="http://www.w3.org/2000/svg">
<g id="ui/globe">
<g id="vector">
<path d="M12.1229 14.6602C12.3612 10.7523 13.6484 6.89529 15.9843 3.53771C18.3202 6.89529 19.6074 10.7523 19.8457 14.6602H12.1229Z" fill="#578BFA"/>
<path d="M9.4518 14.6602C9.67343 10.5803 10.9131 6.54448 13.1709 2.95758C7.58105 4.15821 3.29237 8.86306 2.7168 14.6602H9.4518Z" fill="#578BFA"/>
<path d="M2.7168 17.3269H9.4518C9.67343 21.4068 10.9131 25.4426 13.1709 29.0295C7.58105 27.8289 3.29237 23.124 2.7168 17.3269Z" fill="#578BFA"/>
<path d="M12.1229 17.3269H19.8457C19.6074 21.2348 18.3202 25.0918 15.9843 28.4494C13.6484 25.0918 12.3612 21.2348 12.1229 17.3269Z" fill="#578BFA"/>
<path d="M22.5168 17.3269C22.2952 21.4068 21.0555 25.4426 18.7977 29.0295C24.3875 27.8289 28.6762 23.124 29.2518 17.3269H22.5168Z" fill="#578BFA"/>
<path d="M29.2518 14.6602C28.6762 8.86306 24.3875 4.15822 18.7977 2.95759C21.0555 6.54449 22.2952 10.5803 22.5168 14.6602H29.2518Z" fill="#578BFA"/>
</g>
</g>
</svg>
