<svg width="58" height="10" viewBox="0 0 58 10" fill="none" xmlns="http://www.w3.org/2000/svg">
<path d="M1.476 9.072C0.576 9.084 0.132 8.472 0.228 7.488L0.708 2.556C0.828 1.26 1.5 0.528 2.58 0.528C3.504 0.528 4.128 1.116 4.344 2.208L4.776 4.38L5.22 2.208C5.448 1.116 6.084 0.528 7.008 0.528C8.088 0.528 8.736 1.272 8.856 2.556L9.372 7.488C9.48 8.508 9.012 9.084 8.148 9.072C7.368 9.072 6.924 8.604 6.852 7.704L6.612 4.608L6.024 7.812C5.868 8.652 5.46 9.072 4.8 9.072C4.152 9.072 3.744 8.652 3.576 7.812L2.94 4.608L2.748 7.704C2.688 8.604 2.256 9.06 1.476 9.072ZM13.1885 9.12C11.0645 9.12 9.67247 7.416 9.67247 4.8C9.67247 2.184 11.0645 0.48 13.1885 0.48C15.3245 0.48 16.7165 2.184 16.7165 4.8C16.7165 7.416 15.3245 9.12 13.1885 9.12ZM13.1885 6.876C13.8005 6.876 14.0765 6.228 14.0765 4.776C14.0765 3.324 13.8005 2.676 13.1885 2.676C12.5885 2.676 12.3125 3.324 12.3125 4.776C12.3125 6.228 12.5885 6.876 13.1885 6.876ZM20.7622 9.12C18.5782 9.12 17.1022 7.524 17.1022 4.812C17.1022 2.136 18.5422 0.48 20.8702 0.48C22.3462 0.48 23.3542 1.164 23.3542 2.16C23.3542 2.832 22.8622 3.36 22.2142 3.36C21.5782 3.36 21.4942 2.832 20.9062 2.832C20.1862 2.832 19.7422 3.588 19.7422 4.8C19.7422 6 20.1982 6.768 20.9182 6.768C21.5302 6.768 21.6262 6.204 22.2502 6.204C22.9102 6.204 23.3902 6.708 23.3902 7.38C23.3902 8.412 22.3222 9.12 20.7622 9.12ZM25.2107 9.072C24.3947 9.072 23.9147 8.568 23.9147 7.716V1.884C23.9147 1.032 24.3947 0.528 25.2107 0.528C26.0267 0.528 26.5067 1.032 26.5067 1.884V3.084C26.5067 3.516 26.6867 3.768 26.9867 3.768H27.1067C27.4067 3.768 27.5867 3.516 27.5867 3.084V1.884C27.5867 1.032 28.0667 0.528 28.8827 0.528C29.6987 0.528 30.1787 1.032 30.1787 1.884V7.716C30.1787 8.568 29.6987 9.072 28.8827 9.072C28.0667 9.072 27.5867 8.568 27.5867 7.716V6.516C27.5867 6.084 27.4067 5.832 27.1067 5.832H26.9867C26.6867 5.832 26.5067 6.084 26.5067 6.516V7.716C26.5067 8.568 26.0267 9.072 25.2107 9.072ZM32.1951 9.072C31.3791 9.072 30.8991 8.568 30.8991 7.716V1.884C30.8991 1.032 31.3791 0.528 32.1951 0.528C33.0111 0.528 33.4911 1.032 33.4911 1.884V7.716C33.4911 8.568 33.0111 9.072 32.1951 9.072ZM37.7075 9.12C35.5235 9.12 34.0475 7.524 34.0475 4.812C34.0475 2.136 35.4875 0.48 37.8155 0.48C39.2915 0.48 40.2995 1.164 40.2995 2.16C40.2995 2.832 39.8075 3.36 39.1595 3.36C38.5235 3.36 38.4395 2.832 37.8515 2.832C37.1315 2.832 36.6875 3.588 36.6875 4.8C36.6875 6 37.1435 6.768 37.8635 6.768C38.4755 6.768 38.5715 6.204 39.1955 6.204C39.8555 6.204 40.3355 6.708 40.3355 7.38C40.3355 8.412 39.2675 9.12 37.7075 9.12ZM42.0812 9.084C40.9532 9.084 40.5332 8.16 40.7852 7.356L42.5372 1.764C42.7892 0.96 43.3892 0.528 44.2772 0.528C45.1652 0.528 45.7652 0.96 46.0172 1.764L47.7692 7.356C48.0092 8.112 47.6612 9.084 46.4612 9.084C45.7652 9.084 45.3692 8.676 45.2132 7.884L45.1652 7.644H43.4372L43.3412 7.932C43.1012 8.712 42.6692 9.084 42.0812 9.084ZM43.7372 5.772H44.8292L44.2772 3.204L43.7372 5.772ZM49.4643 9.072C48.5643 9.084 48.1203 8.472 48.2163 7.488L48.6963 2.556C48.8163 1.26 49.4883 0.528 50.5683 0.528C51.4923 0.528 52.1163 1.116 52.3323 2.208L52.7643 4.38L53.2083 2.208C53.4363 1.116 54.0723 0.528 54.9963 0.528C56.0763 0.528 56.7243 1.272 56.8443 2.556L57.3603 7.488C57.4683 8.508 57.0003 9.084 56.1363 9.072C55.3563 9.072 54.9123 8.604 54.8403 7.704L54.6003 4.608L54.0123 7.812C53.8563 8.652 53.4483 9.072 52.7883 9.072C52.1403 9.072 51.7323 8.652 51.5643 7.812L50.9283 4.608L50.7363 7.704C50.6763 8.604 50.2443 9.06 49.4643 9.072Z" fill="#5B616E"/>
</svg>
