<svg width="24" height="24" viewBox="0 0 24 24" fill="none" xmlns="http://www.w3.org/2000/svg">
<g id="Wallet 1">
<path id="Vector" d="M17.9951 14.8471V12.6508C17.9951 11.8373 18.6459 11.0625 19.4593 11.0625H20.7926C20.9997 11.0625 21.1676 10.8946 21.1676 10.6875V8.58356C21.1676 7.52606 20.3541 6.71261 19.2966 6.71261H18.4019V5.32976C18.4019 4.19093 17.5071 3.21478 16.2869 3.21478H2.86497C1.72614 3.21478 0.75 4.10959 0.75 5.32976V18.9144C0.75 19.9718 1.56345 20.7853 2.62093 20.7853H19.2966C20.3541 20.7853 21.1676 19.9718 21.1676 18.9144V16.6875C21.1676 16.4804 20.9997 16.3125 20.7926 16.3125H19.4593C18.6459 16.3938 17.9951 15.6606 17.9951 14.8471ZM17.4257 6.71261H2.94631C2.29555 6.71261 1.72614 6.14321 1.72614 5.49244C1.72614 4.84166 2.29555 4.27226 2.94631 4.27226H16.3682C16.9376 4.27226 17.4257 4.76033 17.4257 5.32976V6.71261Z" fill="#474950"/>
<path id="Vector_2" d="M21.9485 11.7559H19.9148C19.1827 11.7559 18.6133 12.3071 18.6133 13.0158V14.4332C18.6133 15.1418 19.1827 15.693 19.9148 15.693H21.9485C22.6805 15.693 23.25 15.1418 23.25 14.4332V13.0158C23.25 12.3071 22.6805 11.7559 21.9485 11.7559Z" fill="#578BFA"/>
</g>
</svg>
