<svg width="1194" height="257" viewBox="0 0 1194 257" fill="none" xmlns="http://www.w3.org/2000/svg">
<mask id="mask0_140_3298" style="mask-type:alpha" maskUnits="userSpaceOnUse" x="0" y="0" width="1194" height="257">
<rect width="1194" height="257" fill="white"/>
</mask>
<g mask="url(#mask0_140_3298)">
<path fill-rule="evenodd" clip-rule="evenodd" d="M323.086 153.5C323.086 238.276 254.22 307 169.27 307C88.6749 307 22.5572 245.141 15.9907 166.403H219.299V140.597H15.9907C22.5572 61.8594 88.6749 0 169.27 0C254.22 0 323.086 68.7242 323.086 153.5ZM893.335 279.191C946.633 279.191 981.589 250.473 981.589 207.226C981.589 167.091 955.285 148.062 915.487 141.488L880.185 135.607C853.191 131.109 835.192 119.345 835.192 93.3966C835.192 67.1018 855.267 47.0349 893.335 47.0349C930.368 47.0349 949.402 65.7181 951.478 92.3587H978.129C976.052 57.0685 949.056 25.5838 893.681 25.5838C838.999 25.5838 808.891 56.3764 808.891 94.4346C808.891 134.915 836.231 153.598 873.609 159.826L909.257 165.361C939.02 170.551 955.631 182.661 955.631 208.263C955.631 238.364 931.06 257.739 893.681 257.739C854.921 257.739 830.693 239.056 828.617 207.226H802.315C804.392 248.744 836.231 279.191 893.335 279.191ZM500.42 274.346H403.514V30.7737H496.959C538.145 30.7737 566.869 54.9926 566.869 93.7427C566.869 121.767 550.949 140.451 525.34 146.678V147.716C555.794 153.598 574.482 174.357 574.482 206.879C574.482 248.744 543.682 274.346 500.42 274.346ZM493.498 137.683C522.917 137.683 540.913 121.767 540.913 96.8565V93.3966C540.913 68.4858 522.917 52.9165 493.498 52.9165H429.472V137.683H493.498ZM496.613 252.203C528.801 252.203 548.527 234.558 548.527 207.571V204.112C548.527 176.087 528.455 159.134 496.267 159.134H429.472V252.203H496.613ZM784.094 274.346H756.405L735.641 208.263H638.735L617.97 274.346H591.666L671.614 30.7737H703.107L784.094 274.346ZM688.572 57.4143H686.495L645.656 186.466H729.065L688.572 57.4143ZM1020.58 274.346V30.7737H1177.01V53.2625H1046.53V136.991H1166.63V159.134H1046.53V251.857H1177.01V274.346H1020.58Z" fill="#E3E7E9"/>
<rect width="1194" height="257" fill="url(#paint0_linear_140_3298)"/>
</g>
<defs>
<linearGradient id="paint0_linear_140_3298" x1="597" y1="128.5" x2="597" y2="257" gradientUnits="userSpaceOnUse">
<stop stop-opacity="0"/>
<stop offset="1"/>
</linearGradient>
</defs>
</svg>
