<svg width="300" height="235" viewBox="0 0 300 235" fill="none" xmlns="http://www.w3.org/2000/svg">
<path d="M0 3.88C0 1.73714 1.73714 0 3.88 0L242.166 0C245.493 0 248.527 0.879617 251.267 2.63885C254.007 4.2026 256.16 6.35276 257.725 9.08934C259.487 11.8259 260.367 14.8557 260.367 18.1787V99.6896C260.367 103.208 259.487 106.433 257.725 109.365C256.16 112.102 254.007 114.35 251.267 116.109C248.527 117.673 245.493 118.455 242.166 118.455H63.6689C62.0495 118.455 60.7368 119.767 60.7368 121.387C60.7368 123.006 62.0495 124.319 63.6689 124.319L261.835 124.319C268.881 124.319 275.242 126.078 280.918 129.596C286.789 132.919 291.388 137.513 294.716 143.377C298.239 149.046 300 155.301 300 162.142V196.154C300 202.995 298.239 209.446 294.716 215.505C291.388 221.37 286.789 226.061 280.918 229.579C275.046 232.902 268.685 234.564 261.835 234.564H3.88C1.73714 234.564 0 232.827 0 230.684L0 3.88ZM105.654 223.129C113.482 223.129 120.724 221.174 127.378 217.265C134.033 213.355 139.317 208.078 143.231 201.432C147.146 194.786 149.103 187.553 149.103 179.734C149.103 171.916 147.146 164.683 143.231 158.037C139.317 151.391 134.033 146.114 127.378 142.204C120.724 138.099 113.482 136.047 105.654 136.047C97.8251 136.047 90.5836 138.099 83.9292 142.204C77.2748 146.114 71.9905 151.391 68.0762 158.037C64.1619 164.683 62.2047 171.916 62.2047 179.734C62.2047 187.553 64.1619 194.786 68.0762 201.432C71.9905 208.078 77.2748 213.355 83.9292 217.265C90.5836 221.174 97.8251 223.129 105.654 223.129ZM221.322 67.1439C228.759 67.1439 235.12 64.505 240.404 59.2273C245.884 53.7542 248.624 47.2059 248.624 39.5826C248.624 31.7638 245.884 25.2156 240.404 19.9379C235.12 14.4647 228.759 11.7282 221.322 11.7282C213.493 11.7282 206.839 14.4647 201.359 19.9379C196.075 25.2156 193.432 31.7638 193.432 39.5826C193.432 47.2059 196.075 53.7542 201.359 59.2273C206.839 64.505 213.493 67.1439 221.322 67.1439Z" fill="#E9E8E8"/>
</svg>
