<svg width="600" height="526" viewBox="0 0 600 526" fill="none" xmlns="http://www.w3.org/2000/svg">
<path d="M0 8.00001C0 3.58173 3.58172 0 8 0L470.32 0C477.781 0 484.583 1.97251 490.727 5.91751C496.871 9.42416 501.698 14.2458 505.209 20.3825C509.158 26.5191 511.133 33.3133 511.133 40.765V223.55C511.133 231.44 509.158 238.672 505.209 245.247C501.698 251.384 496.871 256.425 490.727 260.37C484.583 263.877 477.781 265.63 470.32 265.63H70.0828C66.4515 265.63 63.5078 268.574 63.5078 272.205C63.5078 275.836 66.4515 278.78 70.0828 278.78H514.424C530.223 278.78 544.486 282.725 557.212 290.615C570.378 298.067 580.691 308.367 588.151 321.517C596.05 334.229 600 348.256 600 363.597V439.867C600 455.209 596.05 469.674 588.151 483.262C580.691 496.412 570.378 506.932 557.212 514.823C544.047 522.274 529.784 526 514.424 526H8.00001C3.58174 526 0 522.418 0 518L0 8.00001ZM164.224 500.357C181.778 500.357 198.015 495.974 212.936 487.207C227.856 478.441 239.705 466.606 248.482 451.703C257.259 436.799 261.648 420.581 261.648 403.047C261.648 385.514 257.259 369.296 248.482 354.392C239.705 339.489 227.856 327.654 212.936 318.887C198.015 309.682 181.778 305.08 164.224 305.08C146.67 305.08 130.432 309.682 115.511 318.887C100.59 327.654 88.7416 339.489 79.9646 354.392C71.1877 369.296 66.7992 385.514 66.7992 403.047C66.7992 420.581 71.1877 436.799 79.9646 451.703C88.7416 466.606 100.59 478.441 115.511 487.207C130.432 495.974 146.67 500.357 164.224 500.357ZM423.583 150.567C440.259 150.567 454.522 144.65 466.371 132.815C478.658 120.542 484.802 105.857 484.802 88.7625C484.802 71.2291 478.658 56.545 466.371 44.71C454.522 32.4366 440.259 26.3 423.583 26.3C406.029 26.3 391.108 32.4366 378.82 44.71C366.971 56.545 361.047 71.2291 361.047 88.7625C361.047 105.857 366.971 120.542 378.82 132.815C391.108 144.65 406.029 150.567 423.583 150.567Z" fill="#E9E8E8"/>
</svg>
