<svg width="300" height="310" viewBox="0 0 300 310" fill="none" xmlns="http://www.w3.org/2000/svg">
<path d="M130.899 239.527H167.842C171.995 239.527 175.652 240.434 178.811 242.247C182.028 244.002 184.514 246.488 186.269 249.706C188.024 252.923 188.902 256.609 188.902 260.762C188.902 266.554 187.439 271.409 184.514 275.329C181.648 279.248 177.728 281.734 172.756 282.787L173.019 278.839L194.518 309.726H176.968L158.628 283.314H144.939V309.726H130.899V239.527ZM165.911 271.555C168.836 271.555 171.293 270.59 173.282 268.66C175.271 266.729 176.266 264.36 176.266 261.552C176.266 258.685 175.33 256.375 173.458 254.62C171.644 252.806 169.421 251.9 166.789 251.9H144.939V271.555H165.911Z" fill="#FAFAFA"/>
<path d="M98.1011 309.726C96.8141 309.726 95.5856 309.405 94.4156 308.761C93.3041 308.118 92.4266 307.24 91.7831 306.129C91.1396 304.959 90.8179 303.73 90.8179 302.443V279.102C90.8179 277.815 91.1396 276.616 91.7831 275.504C92.4266 274.334 93.3041 273.427 94.4156 272.784C95.5856 272.14 96.8141 271.819 98.1011 271.819H121.706C121.881 271.819 121.998 271.789 122.057 271.731C122.174 271.614 122.232 271.468 122.232 271.292V270.502C122.232 270.385 122.174 270.298 122.057 270.239C121.998 270.122 121.881 270.064 121.706 270.064H98.4521C96.9311 270.064 95.6441 269.537 94.5911 268.484C93.5966 267.431 93.0993 266.173 93.0993 264.711V244.792C93.0993 243.329 93.5966 242.101 94.5911 241.106C95.6441 240.053 96.9311 239.527 98.4521 239.527H127.322V252.338C127.322 253.04 127.058 253.655 126.532 254.181C126.005 254.649 125.391 254.883 124.689 254.883H120.038C119.336 254.883 118.722 254.649 118.196 254.181C117.669 253.655 117.406 253.04 117.406 252.338V243.212H115.651V255.936H122.671C124.192 255.936 125.508 256.492 126.62 257.603C127.731 258.715 128.287 260.002 128.287 261.464V283.138C128.287 284.308 127.994 285.391 127.409 286.385C126.824 287.321 126.035 288.082 125.04 288.667C124.104 289.252 123.051 289.544 121.881 289.544H115.651V306.392H117.406V293.405C117.406 292.644 117.669 292.001 118.196 291.475C118.722 290.948 119.336 290.685 120.038 290.685H125.391C126.093 290.685 126.707 290.948 127.234 291.475C127.76 292.001 128.024 292.644 128.024 293.405V309.726H98.1011Z" fill="#FAFAFA"/>
<path d="M3.08838 247.073C3.08838 245.61 3.43938 244.265 4.14138 243.036C4.84337 241.808 5.80863 240.843 7.03712 240.141C8.32412 239.38 9.7281 239 11.2491 239H35.2048C36.6673 239 38.0128 239.38 39.2413 240.141C40.5283 240.843 41.5227 241.808 42.2247 243.036C42.9852 244.265 43.3655 245.61 43.3655 247.073V289.807C43.3655 290.275 43.5117 290.685 43.8042 291.036C44.1552 291.328 44.5647 291.474 45.0327 291.474H46.2612C46.7292 291.474 47.1095 291.328 47.402 291.036C47.753 290.685 47.9285 290.275 47.9285 289.807V247.073C47.9285 245.61 48.2795 244.265 48.9815 243.036C49.742 241.808 50.7364 240.843 51.9649 240.141C53.2519 239.38 54.6267 239 56.0892 239H80.1326C81.5366 239 82.8528 239.38 84.0813 240.141C85.3683 240.843 86.3628 241.808 87.0648 243.036C87.8253 244.265 88.2056 245.61 88.2056 247.073V309.726H73.4636C75.6281 306.041 77.4416 302.794 78.9041 299.986C80.3666 297.178 81.5366 294.078 82.4141 290.685C83.3501 287.233 83.8181 283.08 83.8181 278.224C83.8181 275.416 83.0868 272.813 81.6243 270.414C80.2203 268.016 78.3191 266.115 75.9206 264.711C73.5221 263.307 70.9189 262.605 68.1109 262.605C65.1859 262.605 62.5241 263.307 60.1257 264.711C57.7272 266.056 55.8259 267.957 54.4219 270.414C53.018 272.813 52.316 275.416 52.316 278.224C52.316 283.08 52.7547 287.233 53.6322 290.685C54.5682 294.078 55.7674 297.178 57.2299 299.986C58.7509 302.794 60.5937 306.041 62.7582 309.726H28.5358C30.7003 306.041 32.5138 302.794 33.9763 299.986C35.4973 297.178 36.6965 294.078 37.574 290.685C38.51 287.233 38.978 283.08 38.978 278.224C38.978 275.416 38.2467 272.813 36.7842 270.414C35.3803 268.016 33.479 266.115 31.0805 264.711C28.682 263.307 26.0495 262.605 23.1831 262.605C20.3166 262.605 17.6841 263.307 15.2856 264.711C12.8871 266.056 10.9858 267.957 9.58186 270.414C8.17786 272.813 7.47588 275.416 7.47588 278.224C7.47588 283.08 7.91461 287.233 8.79211 290.685C9.7281 294.078 10.9274 297.178 12.3899 299.986C13.8524 302.794 15.6951 306.041 17.9181 309.726H3.08838V247.073Z" fill="#FAFAFA"/>
<path d="M193.902 159.877H211.715L230.669 212.351H231.547L250.501 159.877H268.314V230.077H254.274V186.641H253.396L237.426 230.077H224.79L208.82 186.641H207.942V230.077H193.902V159.877Z" fill="#FAFAFA"/>
<path d="M78.1885 230.515C76.141 230.515 74.386 230.076 72.9235 229.199C71.461 228.263 70.3495 227.034 69.589 225.513C68.8285 223.934 68.4482 222.237 68.4482 220.424V159.877H110.129V201.031C110.129 203.605 110.744 206.004 111.972 208.227C113.259 210.391 114.985 212.117 117.149 213.404C119.372 214.691 121.8 215.335 124.433 215.335C127.006 215.335 129.376 214.691 131.54 213.404C133.763 212.117 135.489 210.391 136.717 208.227C138.004 206.004 138.648 203.605 138.648 201.031V165.142C138.648 163.211 139.145 161.778 140.14 160.842C141.134 159.906 142.363 159.438 143.825 159.438H148.564C149.558 159.438 150.436 159.672 151.196 160.14C151.957 160.608 152.659 161.281 153.302 162.158C153.946 162.977 154.706 164.206 155.584 165.844L189.543 225.162C190.011 226.04 190.274 226.859 190.332 227.619C190.391 228.321 190.215 228.906 189.806 229.374C189.455 229.842 188.841 230.076 187.963 230.076H150.406L150.494 180.761C150.494 180.059 150.231 179.474 149.704 179.006C149.178 178.48 148.564 178.216 147.862 178.216H146.458C145.58 178.216 144.907 178.48 144.439 179.006C144.03 179.533 143.825 180.118 143.825 180.761V220.424C143.825 223.524 143.152 225.981 141.807 227.795C140.52 229.608 138.092 230.515 134.524 230.515H78.1885Z" fill="#FAFAFA"/>
<path d="M33.4316 230.867C23.8377 230.867 16.0572 228.761 10.0903 224.549C4.18179 220.337 1.25681 213.931 1.31531 205.332H15.2675C15.209 209.368 16.9055 212.527 20.3569 214.809C23.8084 217.09 28.1666 218.231 33.4316 218.231C44.3125 218.231 49.753 215.569 49.753 210.246C49.753 208.374 49.1972 206.853 48.0858 205.683C46.9743 204.513 45.2193 203.577 42.8208 202.875C40.4808 202.114 37.2048 201.471 32.9929 200.944C23.5159 199.716 16.1742 197.434 10.9678 194.1C5.81978 190.765 3.2458 185.968 3.2458 179.709C3.2458 175.263 4.53279 171.49 7.10678 168.389C9.68076 165.289 13.22 162.949 17.7245 161.369C22.2874 159.79 27.5231 159 33.4316 159C40.6271 159 46.4185 160.199 50.806 162.598C55.1935 164.938 58.3524 167.863 60.2829 171.373C62.2134 174.824 63.3249 178.363 63.6174 181.99H49.4897C49.1973 178.714 47.647 176.17 44.839 174.356C42.0895 172.484 38.2871 171.548 33.4316 171.548C28.3421 171.548 24.3934 172.25 21.5854 173.654C18.8359 175 17.4612 177.018 17.4612 179.709C17.4612 181.464 18.017 182.926 19.1284 184.096C20.2984 185.208 22.0827 186.144 24.4812 186.904C26.9381 187.606 30.2726 188.279 34.4846 188.923C44.0785 190.327 51.3325 192.491 56.2464 195.416C61.2189 198.341 63.7052 202.787 63.7052 208.754C63.7052 212.556 62.5644 216.154 60.2829 219.547C58.0014 222.94 54.5792 225.69 50.0162 227.796C45.4533 229.843 39.9251 230.867 33.4316 230.867Z" fill="#FAFAFA"/>
<path d="M237.259 80.0884H253.142L285.083 128.438H285.96V80.0884H300V150.288H283.591L252.177 103.868H251.299V150.288H237.259V80.0884Z" fill="#FAFAFA"/>
<path d="M219.727 80.0884H233.766V150.288H219.727V80.0884Z" fill="#FAFAFA"/>
<path d="M145.059 150.727C143.421 150.727 141.93 150.346 140.584 149.586C139.239 148.767 138.157 147.714 137.338 146.427C136.577 145.081 136.197 143.59 136.197 141.952V129.491C136.197 125.63 137.133 122.091 139.005 118.874C140.877 115.598 143.421 113.024 146.639 111.152C149.915 109.28 153.513 108.344 157.432 108.344H181.3C183.172 108.344 184.722 107.817 185.951 106.764C187.179 105.711 187.969 104.424 188.32 102.903C188.729 101.324 188.729 99.8612 188.32 98.5158C187.91 97.1703 187.15 96.1173 186.038 95.3568C184.985 94.5378 183.728 94.0405 182.265 93.865C180.803 93.6895 179.311 93.865 177.79 94.3915L158.046 100.973V80.0884H180.686C182.09 80.0884 183.289 80.3809 184.283 80.9659C185.336 81.5509 186.185 82.4869 186.828 83.7739L216.4 143.97C216.985 145.198 217.189 146.31 217.014 147.304C216.838 148.24 216.4 148.972 215.698 149.498C214.996 150.025 214.235 150.288 213.416 150.288H188.583C187.355 150.288 186.331 149.878 185.512 149.059C184.751 148.182 184.634 147.07 185.161 145.725L188.408 137.828L189.548 135.02C190.894 131.627 191.859 128.906 192.444 126.859C193.088 124.753 193.409 122.852 193.409 121.155C193.409 119.166 192.766 117.499 191.479 116.153C190.25 114.808 188.583 114.135 186.477 114.135C184.547 114.135 182.879 114.837 181.475 116.241C180.13 117.587 179.457 119.225 179.457 121.155V141.952C179.457 143.531 179.048 144.994 178.229 146.339C177.468 147.685 176.415 148.767 175.07 149.586C173.724 150.346 172.262 150.727 170.682 150.727H145.059ZM158.046 141.776C160.328 141.776 162.405 141.25 164.277 140.197C166.149 139.085 167.611 137.594 168.664 135.722C169.776 133.85 170.331 131.744 170.331 129.404C170.331 127.122 169.776 125.045 168.664 123.173C167.611 121.301 166.149 119.839 164.277 118.786C162.405 117.674 160.328 117.119 158.046 117.119C155.765 117.119 153.659 117.674 151.728 118.786C149.856 119.839 148.365 121.301 147.253 123.173C146.2 125.045 145.674 127.122 145.674 129.404C145.674 131.744 146.2 133.85 147.253 135.722C148.365 137.594 149.856 139.085 151.728 140.197C153.6 141.25 155.706 141.776 158.046 141.776Z" fill="#FAFAFA"/>
<path d="M73.4365 80.0878H87.4764V108.694H119.505V80H133.545V150.2H119.505V122.12H87.4764V150.287H73.4365V80.0878Z" fill="#FAFAFA"/>
<path d="M0 80.0884H69.9363V112.907H65.5488C65.1393 107.7 63.5598 102.932 60.8104 98.6035C58.0609 94.216 54.4339 90.7646 49.9294 88.2491C45.425 85.6751 40.4817 84.3881 35.0998 84.3881C29.5423 84.3881 24.3944 85.7628 19.6559 88.5123C14.9759 91.2618 11.2612 95.0058 8.51171 99.7442C5.76222 104.424 4.38749 109.543 4.38749 115.1C4.38749 120.658 5.76222 125.777 8.51171 130.457C11.2612 135.137 14.9759 138.851 19.6559 141.601C24.3944 144.292 29.5423 145.637 35.0998 145.637C40.5987 145.637 45.6297 144.321 50.1927 141.688C54.8141 138.997 58.4704 135.488 61.1613 131.159C63.8523 126.771 65.3148 122.15 65.5488 117.294H69.9363V150.288H0V80.0884Z" fill="#FAFAFA"/>
<path d="M96.061 0.702637H111.944L143.884 49.0526H144.762V0.702637H158.802V70.9022H142.393L110.978 24.4827H110.101V70.9022H96.061V0.702637Z" fill="#FAFAFA"/>
<path d="M0 30.4491C0 24.1897 1.75499 18.7784 5.26498 14.2154C8.83346 9.59396 13.8644 6.08398 20.3579 3.68548C26.8514 1.2285 34.3979 0 42.9973 0H49.754C58.295 0 65.783 1.2285 72.218 3.68548C78.7114 6.08398 83.7132 9.59396 87.2232 14.2154C90.7916 18.7784 92.5759 24.1897 92.5759 30.4491V41.1546C92.5759 47.4141 90.7916 52.8545 87.2232 57.476C83.7132 62.039 78.7114 65.549 72.218 68.006C65.783 70.4045 58.295 71.6037 49.754 71.6037H42.9973C34.3979 71.6037 26.8514 70.4045 20.3579 68.006C13.8644 65.549 8.83346 62.039 5.26498 57.476C1.75499 52.8545 0 47.4141 0 41.1546V30.4491ZM80.3787 55.2823C80.9052 55.2823 81.3732 55.1653 81.7827 54.9313C82.1922 54.6973 82.5139 54.3755 82.7479 53.966C82.9819 53.5565 83.0989 53.0885 83.0989 52.562V22.9027C83.0989 22.4347 82.9819 21.9959 82.7479 21.5864C82.5139 21.1769 82.1922 20.8552 81.7827 20.6212C81.3732 20.3872 80.9052 20.2702 80.3787 20.2702H12.1095C11.6415 20.2702 11.2027 20.3872 10.7932 20.6212C10.3837 20.8552 10.062 21.1769 9.82796 21.5864C9.59396 21.9959 9.47696 22.4347 9.47696 22.9027V52.562C9.47696 53.0885 9.59396 53.5565 9.82796 53.966C10.062 54.3755 10.3837 54.6973 10.7932 54.9313C11.2027 55.1653 11.6415 55.2823 12.1095 55.2823H80.3787Z" fill="#FAFAFA"/>
</svg>
