<svg width="1200" height="376" viewBox="0 0 1200 376" fill="none" xmlns="http://www.w3.org/2000/svg">
<path d="M1035.21 191.74H1130.9C1141.66 191.74 1151.13 194.088 1159.31 198.786C1167.65 203.331 1174.09 209.771 1178.63 218.105C1183.18 226.439 1185.45 235.986 1185.45 246.744C1185.45 261.745 1181.67 274.322 1174.09 284.474C1166.66 294.627 1156.51 301.067 1143.63 303.794L1144.31 293.566L1200 373.573H1154.54L1107.04 305.158H1071.58V373.573H1035.21V191.74ZM1125.9 274.701C1133.48 274.701 1139.84 272.201 1145 267.2C1150.15 262.2 1152.72 256.063 1152.72 248.79C1152.72 241.365 1150.3 235.379 1145.45 230.834C1140.75 226.136 1134.99 223.788 1128.18 223.788H1071.58V274.701H1125.9Z" fill="#FAFAFA"/>
<path d="M950.258 373.573C946.924 373.573 943.742 372.739 940.712 371.072C937.833 369.406 935.56 367.133 933.893 364.254C932.226 361.223 931.393 358.041 931.393 354.707V294.248C931.393 290.914 932.226 287.808 933.893 284.929C935.56 281.898 937.833 279.55 940.712 277.883C943.742 276.216 946.924 275.383 950.258 275.383H1011.4C1011.85 275.383 1012.16 275.307 1012.31 275.155C1012.61 274.852 1012.76 274.474 1012.76 274.019V271.973C1012.76 271.67 1012.61 271.443 1012.31 271.291C1012.16 270.988 1011.85 270.837 1011.4 270.837H951.167C947.227 270.837 943.894 269.473 941.166 266.746C938.59 264.018 937.302 260.76 937.302 256.972V205.377C937.302 201.589 938.59 198.407 941.166 195.831C943.894 193.103 947.227 191.74 951.167 191.74H1025.95V224.924C1025.95 226.742 1025.26 228.333 1023.9 229.697C1022.54 230.909 1020.95 231.515 1019.13 231.515H1007.08C1005.26 231.515 1003.67 230.909 1002.31 229.697C1000.94 228.333 1000.26 226.742 1000.26 224.924V201.286H995.716V234.243H1013.9C1017.84 234.243 1021.25 235.682 1024.13 238.561C1027.01 241.441 1028.45 244.774 1028.45 248.562V304.703C1028.45 307.734 1027.69 310.537 1026.17 313.113C1024.66 315.537 1022.61 317.507 1020.04 319.023C1017.61 320.538 1014.88 321.296 1011.85 321.296H995.716V364.935H1000.26V331.296C1000.26 329.327 1000.94 327.66 1002.31 326.296C1003.67 324.932 1005.26 324.25 1007.08 324.25H1020.95C1022.76 324.25 1024.35 324.932 1025.72 326.296C1027.08 327.66 1027.76 329.327 1027.76 331.296V373.573H950.258Z" fill="#FAFAFA"/>
<path d="M704.154 211.287C704.154 207.499 705.063 204.013 706.881 200.831C708.699 197.649 711.2 195.149 714.382 193.331C717.715 191.361 721.352 190.376 725.292 190.376H787.342C791.131 190.376 794.616 191.361 797.798 193.331C801.131 195.149 803.707 197.649 805.526 200.831C807.496 204.013 808.48 207.499 808.48 211.287V321.978C808.48 323.19 808.859 324.251 809.617 325.16C810.526 325.918 811.587 326.297 812.799 326.297H815.981C817.193 326.297 818.178 325.918 818.936 325.16C819.845 324.251 820.3 323.19 820.3 321.978V211.287C820.3 207.499 821.209 204.013 823.027 200.831C824.997 197.649 827.573 195.149 830.755 193.331C834.089 191.361 837.65 190.376 841.438 190.376H903.716C907.353 190.376 910.762 191.361 913.944 193.331C917.278 195.149 919.854 197.649 921.672 200.831C923.642 204.013 924.627 207.499 924.627 211.287V373.573H886.442C892.048 364.027 896.746 355.617 900.534 348.344C904.322 341.071 907.352 333.04 909.625 324.251C912.05 315.311 913.262 304.552 913.262 291.975C913.262 284.702 911.368 277.959 907.58 271.746C903.943 265.534 899.018 260.609 892.806 256.973C886.593 253.336 879.85 251.518 872.577 251.518C865 251.518 858.106 253.336 851.893 256.973C845.681 260.458 840.756 265.382 837.119 271.746C833.483 277.959 831.664 284.702 831.664 291.975C831.664 304.552 832.801 315.311 835.074 324.251C837.498 333.04 840.604 341.071 844.393 348.344C848.332 355.617 853.105 364.027 858.712 373.573H770.068C775.675 364.027 780.372 355.617 784.16 348.344C788.1 341.071 791.206 333.04 793.479 324.251C795.904 315.311 797.116 304.552 797.116 291.975C797.116 284.702 795.222 277.959 791.434 271.746C787.797 265.534 782.872 260.609 776.66 256.973C770.447 253.336 763.628 251.518 756.203 251.518C748.778 251.518 741.96 253.336 735.747 256.973C729.534 260.458 724.61 265.382 720.973 271.746C717.336 277.959 715.518 284.702 715.518 291.975C715.518 304.552 716.655 315.311 718.927 324.251C721.352 333.04 724.458 341.071 728.246 348.344C732.035 355.617 736.808 364.027 742.566 373.573H704.154V211.287Z" fill="#FAFAFA"/>
<path d="M502.252 191.74H548.392L597.487 327.66H599.76L648.855 191.74H694.995V373.573H658.629V261.063H656.356L614.989 373.573H582.259L540.892 261.063H538.619V373.573H502.252V191.74Z" fill="#FAFAFA"/>
<path d="M202.526 374.708C197.223 374.708 192.677 373.572 188.889 371.299C185.101 368.875 182.222 365.693 180.252 361.753C178.282 357.662 177.297 353.267 177.297 348.57V191.739H285.261V298.338C285.261 305.006 286.852 311.218 290.034 316.976C293.367 322.583 297.837 327.053 303.444 330.387C309.202 333.72 315.49 335.387 322.309 335.387C328.976 335.387 335.113 333.72 340.72 330.387C346.478 327.053 350.948 322.583 354.13 316.976C357.464 311.218 359.13 305.006 359.13 298.338V205.376C359.13 200.376 360.418 196.663 362.994 194.239C365.57 191.814 368.752 190.602 372.541 190.602H384.814C387.39 190.602 389.663 191.208 391.633 192.42C393.603 193.633 395.421 195.375 397.088 197.648C398.755 199.769 400.725 202.952 402.998 207.194L490.96 360.844C492.172 363.117 492.854 365.238 493.005 367.208C493.157 369.026 492.702 370.541 491.642 371.754C490.733 372.966 489.141 373.572 486.869 373.572H389.588L389.815 245.834C389.815 244.016 389.133 242.5 387.769 241.288C386.406 239.924 384.814 239.243 382.996 239.243H379.359C377.087 239.243 375.344 239.924 374.132 241.288C373.071 242.652 372.541 244.167 372.541 245.834V348.57C372.541 356.601 370.798 362.965 367.313 367.662C363.979 372.36 357.691 374.708 348.448 374.708H202.526Z" fill="#FAFAFA"/>
<path d="M86.5956 375.619C61.7451 375.619 41.5919 370.164 26.1361 359.254C10.8318 348.344 3.25543 331.752 3.40695 309.477H39.5463C39.3947 319.933 43.789 328.115 52.7292 334.025C61.6693 339.934 72.9581 342.889 86.5956 342.889C114.78 342.889 128.872 335.994 128.872 322.205C128.872 317.357 127.432 313.417 124.553 310.386C121.674 307.356 117.128 304.931 110.916 303.113C104.855 301.143 96.3691 299.476 85.4591 298.113C60.9117 294.93 41.895 289.021 28.409 280.384C15.0746 271.747 8.40736 259.322 8.40736 243.108C8.40736 231.592 11.741 221.818 18.4082 213.787C25.0754 205.756 34.2428 199.695 45.9104 195.604C57.7296 191.513 71.2913 189.467 86.5956 189.467C105.233 189.467 120.235 192.574 131.599 198.786C142.964 204.847 151.146 212.424 156.147 221.515C161.147 230.455 164.026 239.623 164.784 249.018H128.19C127.432 240.532 123.417 233.941 116.143 229.243C109.022 224.394 99.1724 221.97 86.5956 221.97C73.4127 221.97 63.1846 223.788 55.9113 227.425C48.7895 230.91 45.2286 236.138 45.2286 243.108C45.2286 247.654 46.6681 251.442 49.5471 254.473C52.5776 257.352 57.1992 259.776 63.4119 261.746C69.776 263.564 78.4131 265.307 89.3231 266.974C114.174 270.61 132.963 276.217 145.691 283.793C158.571 291.37 165.011 302.886 165.011 318.341C165.011 328.191 162.056 337.51 156.147 346.298C150.237 355.087 141.373 362.209 129.554 367.664C117.734 372.967 103.415 375.619 86.5956 375.619Z" fill="#FAFAFA"/>
<path d="M1035.09 1.8186H1076.23L1158.97 127.056H1161.24V1.8186H1197.61V183.652H1155.1L1073.73 63.4145H1071.46V183.652H1035.09V1.8186Z" fill="#FAFAFA"/>
<path d="M989.679 1.8186H1026.05V183.652H989.679V1.8186Z" fill="#FAFAFA"/>
<path d="M796.275 184.788C792.032 184.788 788.168 183.803 784.683 181.833C781.198 179.712 778.395 176.984 776.273 173.651C774.303 170.166 773.318 166.302 773.318 162.059V129.784C773.318 119.783 775.743 110.615 780.592 102.281C785.441 93.7958 792.032 87.1286 800.366 82.2797C808.852 77.4309 818.171 75.0064 828.323 75.0064H890.146C894.995 75.0064 899.01 73.6427 902.193 70.9152C905.375 68.1877 907.42 64.8541 908.329 60.9143C909.39 56.8231 909.39 53.0349 908.329 49.5498C907.269 46.0646 905.299 43.3371 902.42 41.3673C899.692 39.2459 896.434 37.9579 892.646 37.5033C888.858 37.0488 884.994 37.5033 881.054 38.8671L829.914 55.9139V1.8186H888.555C892.192 1.8186 895.298 2.57624 897.874 4.09151C900.602 5.60679 902.799 8.03123 904.465 11.3648L981.063 167.287C982.578 170.469 983.108 173.348 982.654 175.924C982.199 178.348 981.063 180.242 979.244 181.606C977.426 182.97 975.456 183.652 973.335 183.652H909.011C905.829 183.652 903.177 182.591 901.056 180.47C899.086 178.197 898.783 175.318 900.147 171.833L908.557 151.376L911.512 144.103C914.997 135.314 917.497 128.268 919.012 122.965C920.679 117.51 921.512 112.585 921.512 108.191C921.512 103.039 919.845 98.7205 916.512 95.2353C913.33 91.7502 909.011 90.0076 903.556 90.0076C898.556 90.0076 894.237 91.826 890.601 95.4626C887.116 98.9478 885.373 103.191 885.373 108.191V162.059C885.373 166.15 884.312 169.938 882.191 173.424C880.221 176.909 877.494 179.712 874.008 181.833C870.523 183.803 866.735 184.788 862.644 184.788H796.275ZM829.914 161.604C835.824 161.604 841.203 160.241 846.052 157.513C850.9 154.634 854.689 150.77 857.416 145.921C860.295 141.072 861.735 135.617 861.735 129.556C861.735 123.647 860.295 118.268 857.416 113.419C854.689 108.57 850.9 104.782 846.052 102.054C841.203 99.175 835.824 97.7355 829.914 97.7355C824.004 97.7355 818.549 99.175 813.549 102.054C808.7 104.782 804.836 108.57 801.957 113.419C799.23 118.268 797.866 123.647 797.866 129.556C797.866 135.617 799.23 141.072 801.957 145.921C804.836 150.77 808.7 154.634 813.549 157.513C818.398 160.241 823.853 161.604 829.914 161.604Z" fill="#FAFAFA"/>
<path d="M610.755 1.8191H647.121V75.9161H730.083V1.5918H766.449V183.425H730.083V110.692H647.121V183.652H610.755V1.8191Z" fill="#FAFAFA"/>
<path d="M420.537 1.8186H601.688V86.8256H590.323C589.263 73.3396 585.171 60.9901 578.05 49.7771C570.928 38.4125 561.533 29.4724 549.866 22.9567C538.198 16.2895 525.394 12.9559 511.453 12.9559C497.058 12.9559 483.724 16.5168 471.45 23.6386C459.328 30.7604 449.706 40.4581 442.584 52.7319C435.462 64.8541 431.901 78.1127 431.901 92.5078C431.901 106.903 435.462 120.162 442.584 132.284C449.706 144.406 459.328 154.028 471.45 161.15C483.724 168.12 497.058 171.605 511.453 171.605C525.697 171.605 538.728 168.196 550.547 161.377C562.518 154.407 571.989 145.315 578.959 134.102C585.929 122.738 589.717 110.767 590.323 98.1901H601.688V183.652H420.537V1.8186Z" fill="#FAFAFA"/>
<path d="M248.821 1.8186H289.961L372.695 127.056H374.968V1.8186H411.334V183.652H368.831L287.461 63.4145H285.188V183.652H248.821V1.8186Z" fill="#FAFAFA"/>
<path d="M0 78.8703C0 62.6568 4.54584 48.6405 13.6375 36.8213C22.8807 24.8506 35.9121 15.7589 52.7317 9.54626C69.5513 3.18209 89.0984 0 111.373 0H128.874C150.998 0 170.393 3.18209 187.061 9.54626C203.881 15.7589 216.836 24.8506 225.928 36.8213C235.171 48.6405 239.793 62.6568 239.793 78.8703V106.6C239.793 122.813 235.171 136.906 225.928 148.876C216.836 160.695 203.881 169.787 187.061 176.151C170.393 182.364 150.998 185.47 128.874 185.47H111.373C89.0984 185.47 69.5513 182.364 52.7317 176.151C35.9121 169.787 22.8807 160.695 13.6375 148.876C4.54584 136.906 0 122.813 0 106.6V78.8703ZM208.199 143.194C209.563 143.194 210.775 142.891 211.836 142.285C212.897 141.679 213.73 140.845 214.336 139.785C214.942 138.724 215.245 137.512 215.245 136.148V59.3232C215.245 58.111 214.942 56.9745 214.336 55.9138C213.73 54.8531 212.897 54.0197 211.836 53.4136C210.775 52.8075 209.563 52.5044 208.199 52.5044H31.3663C30.1541 52.5044 29.0176 52.8075 27.9569 53.4136C26.8962 54.0197 26.0628 54.8531 25.4567 55.9138C24.8506 56.9745 24.5475 58.111 24.5475 59.3232V136.148C24.5475 137.512 24.8506 138.724 25.4567 139.785C26.0628 140.845 26.8962 141.679 27.9569 142.285C29.0176 142.891 30.1541 143.194 31.3663 143.194H208.199Z" fill="#FAFAFA"/>
</svg>
