<svg width="332" height="50" viewBox="0 0 332 50" fill="none" xmlns="http://www.w3.org/2000/svg">
<g clip-path="url(#clip0_3664_2898)">
<path d="M27.8 48.1199C25.62 48.8999 23.26 49.32 20.81 49.32C9.32 49.32 0 40.01 0 28.51C0 17.01 9.32 7.69995 20.81 7.69995C23.26 7.69995 25.61 8.11995 27.8 8.89995C19.74 11.77 13.97 19.47 13.97 28.51C13.97 37.55 19.74 45.2499 27.8 48.1199ZM48.76 7.69995C46.31 7.69995 43.96 8.11995 41.77 8.89995C49.83 11.77 55.6 19.47 55.6 28.51C55.6 37.55 49.83 45.2499 41.77 48.1199C43.95 48.8999 46.31 49.32 48.76 49.32C60.26 49.32 69.57 40 69.57 28.51C69.57 17.02 60.25 7.69995 48.76 7.69995Z" fill="#5B616E"/>
<path d="M133.55 43.3001V28.3501C133.55 25.8701 133.55 23.1001 132.51 21.2501C131.64 19.7501 130.14 19.0001 128.06 19.0001C125.64 19.0001 123.04 20.5601 121.25 23.0401C121.48 24.4801 121.54 26.1601 121.54 27.8301V43.3001H114.55V28.3501C114.55 25.8701 114.55 22.9201 113.39 21.0701C112.58 19.6801 111.14 18.9901 109.23 18.9901C106.86 18.9901 104.21 20.8401 102.53 22.9701V43.2901H95.54V13.5701H101.95L102.24 17.5501C104.55 14.4301 108.01 12.8701 111.13 12.8701C114.25 12.8701 117.25 14.2601 119.16 16.9101C119.39 17.2601 119.56 17.6001 119.79 18.0601C122.5 14.1901 126.31 12.8601 129.89 12.8601C133.47 12.8601 136.07 14.2501 137.86 16.5601C140.11 19.4501 140.57 23.4301 140.57 27.8201V43.2901H133.53L133.55 43.3001Z" fill="#5B616E"/>
<path d="M174.43 28.4099C174.43 37.1299 167.91 43.9999 159.01 43.9999C150.11 43.9999 143.59 37.1299 143.59 28.4099C143.59 19.6899 150.11 12.8799 159.01 12.8799C167.91 12.8799 174.43 19.7499 174.43 28.4099ZM159.01 18.9999C154.16 18.9999 150.7 23.2099 150.7 28.4099C150.7 33.6099 154.16 37.8799 159.01 37.8799C163.86 37.8799 167.32 33.6699 167.32 28.4099C167.32 23.1499 163.86 18.9999 159.01 18.9999Z" fill="#5B616E"/>
<path d="M206.93 28.4099C206.93 37.1299 200.41 43.9999 191.51 43.9999C182.61 43.9999 176.09 37.1299 176.09 28.4099C176.09 19.6899 182.61 12.8799 191.51 12.8799C200.41 12.8799 206.93 19.7499 206.93 28.4099ZM191.51 18.9999C186.66 18.9999 183.2 23.2099 183.2 28.4099C183.2 33.6099 186.66 37.8799 191.51 37.8799C196.36 37.8799 199.82 33.6699 199.82 28.4099C199.82 23.1499 196.36 18.9999 191.51 18.9999Z" fill="#5B616E"/>
<path d="M216.57 13.5699L216.92 17.9599C219.29 14.5499 222.81 12.8799 226.39 12.8799C229.97 12.8799 232.74 14.3199 234.59 16.6899C236.78 19.5799 237.25 23.4999 237.25 27.8299V43.2999H230.26V28.3499C230.26 25.8699 230.2 23.0999 229.1 21.2499C228.23 19.7499 226.73 18.9999 224.6 18.9999C221.83 18.9999 218.94 20.7899 217.21 23.5599V43.3099H210.22V13.5699H216.57Z" fill="#5B616E"/>
<path d="M268.53 33.8399H268.65L273.96 13.6299H281.12L272.52 43.3099H265.19L259.82 23.8499H259.7L254.21 43.3099H246.59L238.39 13.6299H245.9L250.75 33.8999H250.87L256.59 13.6299H263.17L268.54 33.8399H268.53Z" fill="#5B616E"/>
<path d="M287.12 30.1999C287.58 34.6499 290.58 38.2799 295.43 38.2799C299.3 38.2799 301.78 36.7799 303.63 33.6599L308.36 36.8399C305.07 41.6899 301.2 43.9999 295.02 43.9999C285.84 43.9999 280.07 37.4699 280.07 28.6399C280.07 19.8099 286.59 12.8799 295.02 12.8799C303.45 12.8799 309.05 18.7099 309.05 26.6799C309.05 27.7799 308.93 29.0999 308.76 30.1999H287.11H287.12ZM295.2 18.4799C290.93 18.4799 288.45 21.3699 287.52 25.1799H301.9C301.73 21.3099 298.9 18.4799 295.2 18.4799Z" fill="#5B616E"/>
<path d="M319.34 43.3H312.35V0H319.34V43.3Z" fill="#5B616E"/>
<path d="M331.81 43.3H324.82V0H331.81V43.3Z" fill="#5B616E"/>
</g>
<defs>
<clipPath id="clip0_3664_2898">
<rect width="331.81" height="49.32" fill="white"/>
</clipPath>
</defs>
</svg>
