<svg width="32" height="32" viewBox="0 0 32 32" fill="none" xmlns="http://www.w3.org/2000/svg">
<g id="ui/support">
<path id="vector" d="M2.65234 7.99355C2.65234 5.04803 5.04016 2.66022 7.98568 2.66022H23.9857C26.9312 2.66022 29.319 5.04803 29.319 7.99355V19.9935C29.319 22.9391 26.9312 25.3269 23.9857 25.3269H6.65234L2.65234 29.3269V7.99355ZM15.9857 10.8068L14.7727 9.59501C13.5251 8.34862 11.5023 8.34862 10.2547 9.59501C9.00711 10.8414 9.00711 12.8622 10.2547 14.1086L15.9852 19.8335L21.7166 14.1086C22.9642 12.8622 22.9642 10.8414 21.7166 9.59501C20.469 8.34862 18.4463 8.34862 17.1987 9.59501L15.9857 10.8068Z" fill="#578BFA"/>
</g>
</svg>
