<svg width="65" height="64" viewBox="0 0 65 64" fill="none" xmlns="http://www.w3.org/2000/svg">
<path d="M20.6847 41.3541C19.6166 40.8583 18.3842 40.8584 17.3162 41.3543L8.35319 45.516C5.26582 46.9495 5.26596 51.3387 8.35341 52.7721L30.8547 63.2183C31.9229 63.7142 33.1553 63.7142 34.2234 63.2183L56.7247 52.7721C59.8122 51.3387 59.8123 46.9495 56.7249 45.516L47.762 41.3543C46.6939 40.8584 45.4615 40.8583 44.3934 41.3541L34.2231 46.0746C33.1551 46.5703 31.923 46.5703 30.855 46.0746L20.6847 41.3541Z" fill="#474950"/>
<path fill-rule="evenodd" clip-rule="evenodd" d="M32.539 29.7144L46.0777 23.4277L56.7255 28.3718C59.8128 29.8052 59.8128 34.1942 56.7255 35.6277L46.0777 40.5717L46.0778 40.5718L32.5391 46.8558L19.0005 40.5718L32.5391 34.2852L32.539 34.2851L19.0004 40.5717L8.35256 35.6277C5.26529 34.1942 5.26529 29.8052 8.35256 28.3718L19.0004 23.4277L32.539 29.7144Z" fill="#676869"/>
<path fill-rule="evenodd" clip-rule="evenodd" d="M56.7248 18.4844L46.0776 23.4281L32.5389 17.1414L19.0003 23.4281L8.35304 18.4844C5.26568 17.0508 5.26581 12.6616 8.35327 11.2283L30.8546 0.782069C31.9227 0.286185 33.1551 0.286185 34.2233 0.782069L56.7246 11.2283C59.812 12.6616 59.8122 17.0508 56.7248 18.4844ZM32.5414 29.7133L19.0028 23.4294L32.5414 17.1427L46.0801 23.4294L32.5414 29.7133Z" fill="#FFDF44"/>
</svg>
