<svg width="61" height="48" viewBox="0 0 61 48" fill="none" xmlns="http://www.w3.org/2000/svg">
<path d="M46.526 31.5923V25.7354C46.526 23.5662 48.2614 21.5 50.4306 21.5H53.9859C54.5382 21.5 54.9859 21.0523 54.9859 20.5V14.8895C54.9859 12.0695 52.8167 9.9003 49.9968 9.9003H47.6106V6.21267C47.6106 3.17579 45.2245 0.572754 41.9707 0.572754H6.17898C3.1421 0.572754 0.539062 2.95887 0.539062 6.21267V42.4383C0.539062 45.2582 2.70826 47.4274 5.52822 47.4274H49.9968C52.8167 47.4274 54.9859 45.2582 54.9859 42.4383V36.5C54.9859 35.9477 54.5382 35.5 53.9859 35.5H50.4306C48.2614 35.7169 46.526 33.7615 46.526 31.5923ZM45.0076 9.9003H6.3959C4.66054 9.9003 3.1421 8.38186 3.1421 6.64651C3.1421 4.91115 4.66054 3.39271 6.3959 3.39271H42.1877C43.7061 3.39271 45.0076 4.69423 45.0076 6.21267V9.9003Z" fill="#474950"/>
<path d="M57.0685 23.3491H51.6455C49.6932 23.3491 48.1748 24.819 48.1748 26.7088V30.4884C48.1748 32.3782 49.6932 33.848 51.6455 33.848H57.0685C59.0208 33.848 60.5392 32.3782 60.5392 30.4884V26.7088C60.5392 24.819 59.0208 23.3491 57.0685 23.3491Z" fill="#578BFA"/>
</svg>
