<svg width="65" height="64" viewBox="0 0 65 64" fill="none" xmlns="http://www.w3.org/2000/svg">
<path d="M5.46211 43.2186C7.03987 47.0265 10.3265 49.6275 14.2206 50.3215C15.5643 58.5924 25.7468 62.81 32.5435 57.9097C39.468 62.8159 49.4701 58.5899 50.8664 50.3215C59.1373 48.9779 63.3548 38.7953 58.4546 31.9987C63.3551 25.2026 59.1348 15.0168 50.8664 13.6758C49.5228 5.40788 39.3402 1.19334 32.5435 6.08761C25.7445 1.18704 15.5617 5.4074 14.2206 13.6758C5.94975 15.0222 1.73521 25.205 6.63007 32.0016C4.37211 35.2492 3.88429 39.4114 5.46205 43.2192L5.46211 43.2186Z" fill="#474950"/>
<path fill-rule="evenodd" clip-rule="evenodd" d="M30.3996 33.324L39.5803 24.1432C39.7693 23.9542 40.0742 23.9542 40.2633 24.1432L43.0184 26.8983C43.2074 27.0874 43.2074 27.3931 43.0184 27.5821L30.7415 39.8597C30.5525 40.0487 30.2467 40.0487 30.0577 39.8597L22.6828 32.4848C22.4938 32.2958 22.4938 31.99 22.6828 31.801L25.4379 29.0459C25.6269 28.8568 25.9318 28.8568 26.1209 29.0459L30.3996 33.324Z" fill="#44C28D"/>
</svg>
