<svg width="33" height="32" viewBox="0 0 33 32" fill="none" xmlns="http://www.w3.org/2000/svg">
<g id="nav/cloudProduct">
<g id="vector">
<path d="M26.3798 10.9459C28.6254 10.9459 30.5903 12.5173 31.1517 14.6602L1.81836 14.6602C2.23941 12.5173 4.34468 10.803 6.59029 10.803C7.01134 10.803 7.57275 10.9459 7.9938 11.0887C8.2745 6.37444 11.9236 2.66016 16.5552 2.66016C21.1868 2.66016 24.9763 6.37444 25.1166 11.0887C25.3271 11.0887 25.5377 11.053 25.7482 11.0173C25.9587 10.9816 26.1692 10.9459 26.3798 10.9459Z" fill="#818CF8"/>
<path d="M19.3271 16.9691C19.3271 16.6439 19.3271 16.3187 19.1692 15.9935H28.485V18.5951L25.9587 19.4081C25.3271 19.5707 25.0113 20.0585 24.6955 20.5463C24.3798 21.0341 24.5377 21.6845 24.6955 22.1723L25.8008 24.774L23.7482 26.8878L21.3798 25.587C20.9061 25.4244 20.2745 25.4244 19.8008 25.587C19.3271 25.7496 18.8534 26.2374 18.6956 26.7252L17.9061 29.3268H14.9061L14.1166 26.7252C13.9587 26.0748 13.485 25.587 13.0113 25.4244C12.5377 25.0992 11.9061 25.2618 11.4324 25.4244L8.90608 26.7252L6.85345 24.6114L8.1166 22.1723C8.2745 21.6845 8.2745 21.0341 8.11661 20.5463C7.95871 20.0585 7.48503 19.5707 7.01134 19.4081L4.48503 18.5951L4.48503 15.9935L13.8008 15.9935C13.6429 16.3187 13.6429 16.6439 13.6429 16.9691C13.6429 18.5951 14.9061 19.8959 16.485 19.8959C18.064 19.8959 19.3271 18.5951 19.3271 16.9691Z" fill="#818CF8"/>
</g>
</g>
</svg>
