<svg width="25" height="24" viewBox="0 0 25 24" fill="none" xmlns="http://www.w3.org/2000/svg">
<g id="OnchainKit 1">
<path id="Vector" d="M20 14.6058H5C4.17157 14.6058 3.5 15.2773 3.5 16.1058V22.1058C3.5 22.9342 4.17157 23.6058 5 23.6058H20C20.8284 23.6058 21.5 22.9342 21.5 22.1058V16.1058C21.5 15.2773 20.8284 14.6058 20 14.6058Z" fill="#676869"/>
<path id="Vector_2" d="M14.7812 7.3278C15.5837 6.51664 16.9486 6.88238 17.2381 7.98612L19.2731 15.7467C19.5626 16.8505 18.5594 17.8644 17.4675 17.5718L9.7897 15.5145C8.69774 15.222 8.33594 13.8423 9.13847 13.0311L14.7812 7.3278Z" fill="#474950"/>
<path id="Vector_3" d="M9.15324 10.6636C11.9891 10.6636 14.2879 8.36474 14.2879 5.52893C14.2879 2.69312 11.9891 0.394241 9.15324 0.394241C6.31743 0.394241 4.01855 2.69312 4.01855 5.52893C4.01855 8.36474 6.31743 10.6636 9.15324 10.6636Z" fill="#818CF8"/>
</g>
</svg>
