<svg width="30" height="32" viewBox="0 0 30 32" fill="none" xmlns="http://www.w3.org/2000/svg">
<g id="serverless 2 1">
<path id="Vector" fill-rule="evenodd" clip-rule="evenodd" d="M14.1308 3.92053C7.12761 4.28379 1.56104 10.0772 1.56104 17.1707C1.56104 19.3392 2.08119 21.3861 3.00353 23.1934L8.58543 13.5254V11.7073H9.63503L14.1308 3.92053ZM8.89489 16.3902H21.0732V11.7073H11.5985L16.0716 3.95985C22.8169 4.58616 28.0976 10.2618 28.0976 17.1707C28.0976 24.4986 22.1572 30.439 14.8293 30.439C10.3642 30.439 6.41413 28.2334 4.00936 24.8521L8.89489 16.3902ZM21.0732 18.7317V23.4146H8.58543V18.7317H21.0732Z" fill="#C5A0FB"/>
<path id="Vector_2" d="M15.6097 13.2683H10.9268V14.8293H15.6097V13.2683Z" fill="#C5A0FB"/>
<path id="Vector_3" d="M15.6097 20.2927H10.9268V21.8537H15.6097V20.2927Z" fill="#C5A0FB"/>
<path id="Vector_4" d="M17.9511 14.8293C18.3822 14.8293 18.7316 14.4799 18.7316 14.0488C18.7316 13.6177 18.3822 13.2683 17.9511 13.2683C17.5201 13.2683 17.1707 13.6177 17.1707 14.0488C17.1707 14.4799 17.5201 14.8293 17.9511 14.8293Z" fill="#C5A0FB"/>
<path id="Vector_5" d="M17.9511 21.8537C18.3822 21.8537 18.7316 21.5043 18.7316 21.0732C18.7316 20.6421 18.3822 20.2927 17.9511 20.2927C17.5201 20.2927 17.1707 20.6421 17.1707 21.0732C17.1707 21.5043 17.5201 21.8537 17.9511 21.8537Z" fill="#C5A0FB"/>
<path id="Vector_6" d="M19.8301 2.90367L17.5045 1.56104L2.34155 27.8241L4.66707 29.1667L19.8301 2.90367Z" fill="#C5A0FB"/>
</g>
</svg>
