<svg width="32" height="32" viewBox="0 0 32 32" fill="none" xmlns="http://www.w3.org/2000/svg">
<g id="ui/taxesReceiptInactive">
<path id="vector" d="M2.65161 2.66028H29.3183V29.2902L26.4433 26.8776L22.9045 29.3269L19.3656 26.8776L15.8267 29.3269L12.2879 26.8776L8.74903 29.3269L5.21017 26.8776L2.65161 29.1772V2.66028ZM18.19 19.6468C18.8703 20.3937 20.0273 20.4477 20.7742 19.7674C21.5211 19.0871 21.5751 17.9301 20.8948 17.1832C20.2145 16.4363 19.0575 16.3823 18.3106 17.0626C17.5637 17.7429 17.5097 18.8999 18.19 19.6468ZM13.7583 12.0647C14.5052 11.3844 14.5592 10.2274 13.8789 9.48045C13.1986 8.73354 12.0416 8.67955 11.2947 9.35986C10.5478 10.0402 10.4938 11.1972 11.1741 11.9441C11.8544 12.691 13.0114 12.745 13.7583 12.0647ZM20.6754 8.77958L9.84334 18.6458L11.639 20.6172L22.4711 10.751L20.6754 8.77958Z" fill="#818CF8"/>
</g>
</svg>