<svg width="3000" height="3000" viewBox="0 0 3000 3000" fill="none" xmlns="http://www.w3.org/2000/svg">
<g clip-path="url(#clip0_5569_72809)">
<rect width="3000" height="3000" fill="#155DFD"/>
<circle cx="1500" cy="1500" r="1500" fill="#155DFD"/>
<path d="M2188.12 1131.95C2691.11 591.187 2356.8 256.94 1815.91 759.826C1767.57 804.826 1737.56 866.494 1733.32 932.403C1733.32 933.767 1733.17 934.979 1733.02 936.343C1722.56 1094.68 1853.35 1225.44 2011.72 1214.98C2013.08 1214.98 2014.29 1214.83 2015.66 1214.68C2081.58 1210.44 2143.26 1180.44 2188.27 1132.1L2188.12 1131.95Z" fill="white"/>
<path d="M759.879 1816.05C256.885 2356.81 591.204 2691.06 1132.08 2188.17C1180.43 2143.17 1210.44 2081.51 1214.68 2015.6C1214.68 2014.23 1214.83 2013.02 1214.98 2011.66C1225.44 1853.32 1094.65 1722.56 936.283 1733.02C934.919 1733.02 933.706 1733.17 932.342 1733.32C866.418 1737.56 804.738 1767.56 759.727 1815.9L759.879 1816.05Z" fill="white"/>
<path d="M1131.96 759.922C591.247 256.826 256.881 591.264 759.869 1132.09C804.865 1180.43 866.527 1210.44 932.431 1214.68C933.794 1214.68 935.006 1214.83 936.37 1214.98C1094.69 1225.44 1225.44 1094.66 1214.98 936.309C1214.98 934.946 1214.83 933.733 1214.68 932.369C1210.44 866.452 1180.44 804.777 1132.11 759.771L1131.96 759.922Z" fill="white"/>
<path d="M1816.05 2188.12C2356.81 2691.11 2691.06 2356.8 2188.17 1815.91C2143.17 1767.57 2081.51 1737.56 2015.6 1733.32C2014.23 1733.32 2013.02 1733.17 2011.66 1733.02C1853.32 1722.56 1722.56 1853.35 1733.02 2011.72C1733.02 2013.08 1733.17 2014.29 1733.32 2015.66C1737.56 2081.58 1767.56 2143.26 1815.9 2188.27L1816.05 2188.12Z" fill="white"/>
<path d="M1737.18 727.02C1710.36 -10.3398 1237.66 -10.3398 1210.84 727.02C1208.42 792.869 1230.84 857.658 1274.48 907.31C1275.39 908.37 1276.14 909.278 1277.05 910.338C1381.59 1029.62 1566.43 1029.62 1670.97 910.338C1671.88 909.278 1672.63 908.37 1673.54 907.31C1717.18 857.81 1739.45 793.02 1737.18 727.02Z" fill="white"/>
<path d="M727.02 1210.82C-10.3398 1237.64 -10.3398 1710.34 727.02 1737.16C792.869 1739.58 857.658 1717.16 907.31 1673.52C908.218 1672.62 909.278 1671.86 910.338 1670.95C1029.62 1566.41 1029.62 1381.57 910.338 1277.03C909.278 1276.12 908.37 1275.37 907.31 1274.46C857.81 1230.82 793.02 1208.55 727.02 1210.82Z" fill="white"/>
<path d="M2040.69 1274.48C2039.63 1275.39 2038.72 1276.14 2037.66 1277.05C1918.38 1381.59 1918.38 1566.43 2037.66 1670.97C2038.72 1671.88 2039.63 1672.63 2040.69 1673.54C2090.19 1717.18 2154.98 1739.45 2220.98 1737.18C2958.34 1710.36 2958.34 1237.66 2220.98 1210.84C2155.13 1208.42 2090.34 1230.84 2040.69 1274.48Z" fill="white"/>
<path d="M1210.82 2220.98C1237.64 2958.34 1710.34 2958.34 1737.16 2220.98C1739.58 2155.13 1717.16 2090.34 1673.52 2040.69C1672.62 2039.63 1671.86 2038.72 1670.95 2037.66C1566.41 1918.38 1381.57 1918.38 1277.03 2037.66C1276.12 2038.72 1275.37 2039.63 1274.46 2040.69C1230.82 2090.19 1208.55 2154.98 1210.82 2220.98Z" fill="white"/>
<circle cx="1474.5" cy="1474.5" r="886.5" fill="white"/>
<path d="M1391.06 1500C1391.06 1352.11 1358.4 1218.38 1305.74 1121.72C1253.03 1024.95 1180.69 966 1101.53 966C1022.36 966 950.031 1024.95 897.314 1121.72C844.66 1218.38 812 1352.11 812 1500C812 1647.89 844.66 1781.62 897.314 1878.28C950.031 1975.05 1022.36 2034 1101.53 2034C1180.69 2034 1253.03 1975.05 1305.74 1878.28C1358.4 1781.62 1391.06 1647.89 1391.06 1500Z" fill="#155DFD" stroke="white" stroke-width="6"/>
<ellipse cx="126.414" cy="231.934" rx="126.414" ry="231.934" transform="matrix(1 0 0 -1 976.16 2037)" fill="white"/>
<path d="M2187.16 1500C2187.16 1352.11 2154.5 1218.38 2101.84 1121.72C2049.12 1024.95 1976.79 966 1897.63 966C1818.46 966 1746.13 1024.95 1693.41 1121.72C1640.76 1218.38 1608.1 1352.11 1608.1 1500C1608.1 1647.89 1640.76 1781.62 1693.41 1878.28C1746.13 1975.05 1818.46 2034 1897.63 2034C1976.79 2034 2049.12 1975.05 2101.84 1878.28C2154.5 1781.62 2187.16 1647.89 2187.16 1500Z" fill="#155DFD" stroke="white" stroke-width="6"/>
<ellipse cx="126.414" cy="231.934" rx="126.414" ry="231.934" transform="matrix(1 0 0 -1 1770.17 2037)" fill="white"/>
</g>
<defs>
<clipPath id="clip0_5569_72809">
<rect width="3000" height="3000" fill="white"/>
</clipPath>
</defs>
</svg>
