<svg width="3000" height="3000" viewBox="0 0 3000 3000" fill="none" xmlns="http://www.w3.org/2000/svg">
<g clip-path="url(#clip0_5569_72835)">
<rect width="3000" height="3000" fill="#155DFD"/>
<circle cx="1500" cy="1500" r="1500" fill="#155DFD"/>
<path d="M2713.13 1500C2731.2 1680.92 2615.13 1818.15 2507.78 1924.42C2394.7 2032.13 2290.44 2108.88 2200.88 2200.61C2109.15 2290.16 2032.22 2394.61 1924.51 2507.68C1818.15 2615.04 1680.92 2731.11 1500 2713.13C1319.08 2731.2 1181.85 2615.13 1075.58 2507.78C967.866 2394.7 891.12 2290.44 799.389 2200.88C709.837 2109.15 605.39 2032.22 492.315 1924.51C384.962 1818.15 268.89 1680.92 286.873 1500C268.799 1319.08 384.871 1181.85 492.224 1075.58C605.299 967.866 709.564 891.12 799.116 799.389C890.848 709.837 967.775 605.39 1075.49 492.315C1181.85 384.871 1319.08 268.799 1500 286.873C1680.92 268.799 1818.15 384.871 1924.42 492.224C2032.13 605.299 2108.88 709.564 2200.61 799.116C2290.16 890.848 2394.61 967.775 2507.68 1075.49C2615.04 1181.85 2731.11 1319.08 2713.13 1500Z" fill="white"/>
<path d="M1391.06 1500C1391.06 1647.89 1358.4 1781.62 1305.74 1878.28C1253.03 1975.05 1180.69 2034 1101.53 2034C1022.36 2034 950.031 1975.05 897.314 1878.28C844.66 1781.62 812 1647.89 812 1500C812 1352.11 844.66 1218.38 897.314 1121.72C950.031 1024.95 1022.36 966 1101.53 966C1180.69 966 1253.03 1024.95 1305.74 1121.72C1358.4 1218.38 1391.06 1352.11 1391.06 1500Z" fill="#155DFD" stroke="white" stroke-width="6"/>
<ellipse cx="1102.57" cy="1194.93" rx="126.414" ry="231.934" fill="white"/>
<path d="M2187.16 1500C2187.16 1647.89 2154.5 1781.62 2101.84 1878.28C2049.12 1975.05 1976.79 2034 1897.63 2034C1818.46 2034 1746.13 1975.05 1693.41 1878.28C1640.76 1781.62 1608.1 1647.89 1608.1 1500C1608.1 1352.11 1640.76 1218.38 1693.41 1121.72C1746.13 1024.95 1818.46 966 1897.63 966C1976.79 966 2049.12 1024.95 2101.84 1121.72C2154.5 1218.38 2187.16 1352.11 2187.16 1500Z" fill="#155DFD" stroke="white" stroke-width="6"/>
<ellipse cx="1896.58" cy="1194.93" rx="126.414" ry="231.934" fill="white"/>
</g>
<defs>
<clipPath id="clip0_5569_72835">
<rect width="3000" height="3000" fill="white"/>
</clipPath>
</defs>
</svg>
