<svg width="3000" height="3000" viewBox="0 0 3000 3000" fill="none" xmlns="http://www.w3.org/2000/svg">
<g clip-path="url(#clip0_5569_72851)">
<rect width="3000" height="3000" fill="#155DFD"/>
<circle cx="1500" cy="1500" r="1500" fill="#155DFD"/>
<path d="M2538.7 1207.34C2483.17 1184.33 2431.23 1159.94 2382.18 1133.9C2398.44 1080.86 2417.87 1026.85 2440.88 971.324C2548.89 711.06 2287.94 450.106 2027.68 558.125C1972.15 581.134 1918.14 600.699 1865.1 616.819C1839.06 567.907 1814.67 515.827 1791.66 460.302C1684.05 199.899 1314.94 199.899 1207.34 460.302C1184.33 515.827 1159.94 567.769 1133.9 616.819C1080.86 600.561 1026.85 581.134 971.324 558.125C711.06 450.106 450.106 711.06 558.125 971.324C581.134 1026.85 600.699 1080.86 616.819 1133.9C567.907 1159.94 515.827 1184.33 460.302 1207.34C199.899 1314.94 199.899 1684.05 460.302 1791.66C515.827 1814.67 567.769 1839.06 616.819 1865.1C600.561 1918.14 581.134 1972.15 558.125 2027.68C450.106 2287.94 711.06 2548.89 971.324 2440.88C1026.85 2417.87 1080.86 2398.3 1133.9 2382.18C1159.94 2431.09 1184.33 2483.17 1207.34 2538.7C1314.94 2799.1 1684.05 2799.1 1791.66 2538.7C1814.67 2483.17 1839.06 2431.23 1865.1 2382.18C1918.14 2398.44 1972.15 2417.87 2027.68 2440.88C2287.94 2548.89 2548.89 2287.94 2440.88 2027.68C2417.87 1972.15 2398.3 1918.14 2382.18 1865.1C2431.09 1839.06 2483.17 1814.67 2538.7 1791.66C2799.1 1684.05 2799.1 1314.94 2538.7 1207.34ZM1735.31 1727.87C1732.83 1730.35 1730.35 1732.83 1727.87 1735.31C1697.42 1766.58 1662.15 1790.01 1624.53 1806.13C1587.47 1820.46 1547.24 1828.17 1504.94 1827.62C1501.36 1827.62 1497.92 1827.62 1494.33 1827.62C1452.04 1828.17 1411.67 1820.32 1374.74 1806.13C1337.13 1790.01 1301.86 1766.58 1271.41 1735.31C1268.93 1732.83 1266.45 1730.35 1263.97 1727.87C1232.69 1697.42 1209.27 1662.15 1193.15 1624.53C1178.82 1587.61 1171.1 1547.24 1171.65 1504.94C1171.65 1501.36 1171.65 1497.92 1171.65 1494.33C1171.1 1452.04 1178.96 1411.67 1193.15 1374.74C1209.27 1337.13 1232.69 1301.86 1263.97 1271.41C1266.45 1268.93 1268.93 1266.45 1271.41 1263.97C1301.86 1232.69 1337.13 1209.27 1374.74 1193.15C1411.67 1178.82 1452.04 1171.1 1494.33 1171.65C1497.92 1171.65 1501.36 1171.65 1504.94 1171.65C1547.24 1171.1 1587.61 1178.96 1624.53 1193.15C1662.15 1209.27 1697.42 1232.69 1727.87 1263.97C1730.35 1266.45 1732.83 1268.93 1735.31 1271.41C1766.58 1301.86 1790.01 1337.13 1806.13 1374.74C1820.46 1411.8 1828.17 1452.04 1827.62 1494.33C1827.62 1497.92 1827.62 1501.36 1827.62 1504.94C1828.17 1547.24 1820.32 1587.61 1806.13 1624.53C1790.01 1662.15 1766.58 1697.42 1735.31 1727.87Z" fill="white"/>
<circle cx="1476" cy="1442" r="443" fill="white"/>
<path d="M1400.59 1202.5C1400.59 1334.79 1371.37 1454.31 1324.38 1540.58C1277.28 1627.04 1213.04 1679 1143.3 1679C1073.56 1679 1009.31 1627.04 962.215 1540.58C915.221 1454.31 886 1334.79 886 1202.5C886 1070.21 915.221 950.688 962.215 864.42C1009.31 777.961 1073.56 726 1143.3 726C1213.04 726 1277.28 777.961 1324.38 864.42C1371.37 950.688 1400.59 1070.21 1400.59 1202.5Z" fill="#155DFD" stroke="white" stroke-width="10"/>
<ellipse cx="1141.26" cy="931.03" rx="113.349" ry="207.963" fill="white"/>
<path d="M2114.41 1202.5C2114.41 1334.79 2085.19 1454.31 2038.19 1540.58C1991.1 1627.04 1926.85 1679 1857.11 1679C1787.37 1679 1723.13 1627.04 1676.03 1540.58C1629.04 1454.31 1599.82 1334.79 1599.82 1202.5C1599.82 1070.21 1629.04 950.688 1676.03 864.42C1723.13 777.961 1787.37 726 1857.11 726C1926.85 726 1991.1 777.961 2038.19 864.42C2085.19 950.688 2114.41 1070.21 2114.41 1202.5Z" fill="#155DFD" stroke="white" stroke-width="10"/>
<ellipse cx="1861.96" cy="928.963" rx="113.349" ry="207.963" fill="white"/>
</g>
<defs>
<clipPath id="clip0_5569_72851">
<rect width="3000" height="3000" fill="white"/>
</clipPath>
</defs>
</svg>
