<svg width="3000" height="3000" viewBox="0 0 3000 3000" fill="none" xmlns="http://www.w3.org/2000/svg">
<g clip-path="url(#clip0_5569_72860)">
<rect width="3000" height="3000" fill="#155DFD"/>
<circle cx="1500" cy="1500" r="1500" fill="#155DFD"/>
<path d="M1500.19 1499.87C1365.57 1351.79 1298.1 1205.48 1296.93 988.1C1296.16 779.052 1361.71 498.983 1502.29 274.909C1565.01 170.441 1645.1 119.866 1696.41 125.097C1750.22 129.37 1775.2 189.413 1785.5 284.511C1806.04 473.278 1775.29 803.798 1990.99 1009.07C2196.26 1224.77 2526.78 1194.09 2715.59 1214.68C2810.65 1224.78 2870.69 1249.84 2874.93 1303.61C2880.12 1354.96 2829.55 1435.05 2725.08 1497.77C2501.01 1638.35 2220.94 1703.91 2011.89 1703.13C1794.55 1702 1648.19 1634.49 1500.12 1499.87L1500.19 1499.87Z" fill="white"/>
<path d="M1499.98 1500.01C1634.61 1648.08 1702.07 1794.4 1703.24 2011.77C1704.02 2220.82 1638.47 2500.89 1497.89 2724.97C1435.16 2829.43 1355.07 2880.01 1303.77 2874.78C1249.96 2870.5 1224.97 2810.46 1214.68 2715.36C1194.13 2526.6 1224.89 2196.08 1009.18 1990.81C803.914 1775.1 473.394 1805.78 284.59 1785.2C189.528 1775.09 129.486 1750.03 125.249 1696.26C120.055 1644.91 170.63 1564.82 275.098 1502.1C499.172 1361.52 779.24 1295.97 988.289 1296.75C1205.63 1297.88 1351.98 1365.38 1500.06 1500.01L1499.98 1500.01Z" fill="white"/>
<path d="M1481.64 1518.29C1630.16 1383.18 1776.72 1315.24 1994.12 1313.37C2203.19 1311.92 2483.08 1376.57 2706.72 1516.45C2811 1578.84 2861.32 1658.78 2855.93 1710.11C2851.48 1763.93 2791.35 1789.12 2696.21 1799.72C2507.36 1820.87 2176.9 1791.18 1970.91 2007.57C1754.52 2213.55 1784.15 2544.01 1762.95 2732.9C1752.54 2828.01 1727.28 2888.14 1673.49 2892.55C1622.12 2897.91 1542.19 2847.58 1479.79 2743.31C1339.92 2519.66 1275.26 2239.77 1276.71 2030.7C1278.54 1813.33 1346.52 1666.75 1481.64 1518.22L1481.64 1518.29Z" fill="white"/>
<path d="M1481.81 1518.43C1333.29 1653.54 1186.74 1721.48 969.339 1723.34C760.267 1724.79 480.38 1660.13 256.734 1520.25C152.457 1457.85 102.133 1377.92 107.529 1326.59C111.975 1272.76 172.103 1247.58 267.243 1236.98C456.094 1215.83 786.549 1245.53 992.528 1029.15C1208.91 823.167 1179.28 492.713 1200.47 303.825C1210.92 208.685 1236.11 148.557 1289.93 144.111C1341.3 138.752 1421.23 189.076 1483.63 293.353C1623.51 516.999 1688.17 796.885 1686.72 1005.96C1684.9 1223.32 1616.92 1369.91 1481.81 1518.43Z" fill="white"/>
<path d="M1403.24 1500C1403.24 1630.77 1374.36 1749 1327.82 1834.44C1281.21 1919.99 1217.33 1972 1147.49 1972C1077.65 1972 1013.76 1919.99 967.153 1834.44C920.611 1749 891.731 1630.77 891.731 1500C891.731 1369.23 920.611 1251 967.153 1165.56C1013.76 1080.01 1077.65 1028 1147.49 1028C1217.33 1028 1281.21 1080.01 1327.82 1165.56C1374.36 1251 1403.24 1369.23 1403.24 1500Z" fill="#155DFD" stroke="white" stroke-width="6"/>
<ellipse cx="1148.41" cy="1230.16" rx="111.819" ry="205.156" fill="white"/>
<path d="M2107.42 1500C2107.42 1630.77 2078.55 1749 2032 1834.44C1985.4 1919.99 1921.51 1972 1851.67 1972C1781.83 1972 1717.94 1919.99 1671.34 1834.44C1624.79 1749 1595.92 1630.77 1595.92 1500C1595.92 1369.23 1624.79 1251 1671.34 1165.56C1717.94 1080.01 1781.83 1028 1851.67 1028C1921.51 1028 1985.4 1080.01 2032 1165.56C2078.55 1251 2107.42 1369.23 2107.42 1500Z" fill="#155DFD" stroke="white" stroke-width="6"/>
<ellipse cx="1850.75" cy="1230.16" rx="111.819" ry="205.156" fill="white"/>
</g>
<defs>
<clipPath id="clip0_5569_72860">
<rect width="3000" height="3000" fill="white"/>
</clipPath>
</defs>
</svg>
