<?xml version="1.0" encoding="utf-8"?>
<!-- Generator: Adobe Illustrator 27.2.0, SVG Export Plug-In . SVG Version: 6.00 Build 0)  -->
<svg version="1.1" id="Layer_1" fill='#fff' xmlns="http://www.w3.org/2000/svg" xmlns:xlink="http://www.w3.org/1999/xlink" x="0px" y="0px"
	 width="24px" height="24px" viewBox="0 0 30 30" style="enable-background:new 0 0 30 30;" xml:space="preserve">
<style type="text/css">
	.st0{fill:none;}
	.st1{display:none;}
	.st2{display:inline;}
</style>
<g>
	<g>
		<path d="M22.7,26.9H7.3c-0.8,0-1.5-0.7-1.5-1.5V4.6c0-0.8,0.7-1.5,1.5-1.5h15.4c0.8,0,1.5,0.7,1.5,1.5v20.9
			C24.2,26.3,23.5,26.9,22.7,26.9z M7.3,4.1C7,4.1,6.8,4.3,6.8,4.6v20.9c0,0.3,0.2,0.5,0.5,0.5h15.4c0.3,0,0.5-0.2,0.5-0.5V4.6
			c0-0.3-0.2-0.5-0.5-0.5H7.3z"/>
	</g>
	<g>
		<g>
			<g>
				<line class="st0" x1="15.6" y1="15" x2="20.6" y2="15"/>
				<rect x="15.6" y="14.5" width="5" height="1"/>
			</g>
			<g>
				<line class="st0" x1="16.2" y1="15" x2="21.3" y2="15"/>
				<path d="M21.3,15.5h-5c-0.2,0-0.3-0.2-0.3-0.5s0.2-0.5,0.3-0.5h5c0.2,0,0.3,0.2,0.3,0.5S21.4,15.5,21.3,15.5z"/>
			</g>
		</g>
		<path d="M13.1,17.6H8.8c-0.2,0-0.4-0.2-0.4-0.4v-4.5c0-0.2,0.2-0.4,0.4-0.4h4.3c0.2,0,0.4,0.2,0.4,0.4v4.5
			C13.4,17.5,13.3,17.6,13.1,17.6z M9.1,16.9h3.6v-3.8H9.1V16.9z"/>
	</g>
	<g>
		<g>
			<g>
				<line class="st0" x1="15.5" y1="21.6" x2="20.5" y2="21.6"/>
				<rect x="15.5" y="21.1" width="5" height="1"/>
			</g>
			<g>
				<line class="st0" x1="16.2" y1="21.6" x2="21.2" y2="21.6"/>
				<path d="M21.2,22.1h-5c-0.2,0-0.3-0.2-0.3-0.5s0.2-0.5,0.3-0.5h5c0.2,0,0.3,0.2,0.3,0.5S21.4,22.1,21.2,22.1z"/>
			</g>
		</g>
		<path d="M13.1,24.2H8.8c-0.2,0-0.4-0.2-0.4-0.4v-4.5c0-0.2,0.2-0.4,0.4-0.4h4.3c0.2,0,0.4,0.2,0.4,0.4v4.5
			C13.5,24.1,13.3,24.2,13.1,24.2z M9.2,23.5h3.6v-3.8H9.2V23.5z"/>
	</g>
	<g>
		<g>
			<g>
				<line class="st0" x1="15.4" y1="8.6" x2="20.4" y2="8.6"/>
				<rect x="15.4" y="8.1" width="5" height="1"/>
			</g>
			<g>
				<line class="st0" x1="16.1" y1="8.6" x2="21.1" y2="8.6"/>
				<path d="M21.1,9.1h-5c-0.2,0-0.3-0.2-0.3-0.5s0.2-0.5,0.3-0.5h5c0.2,0,0.3,0.2,0.3,0.5S21.3,9.1,21.1,9.1z"/>
			</g>
		</g>
		<g>
			<path d="M11.3,9.8c-0.2,0-0.4-0.1-0.5-0.2l-1-1.2c-0.3-0.3-0.3-0.8,0-1.1C9.9,7.2,10.1,7,10.4,7c0.3,0,0.5,0.1,0.6,0.3l0.2,0.2
				l1-1.4c0.2-0.3,0.7-0.5,1.1-0.3c0.2,0.1,0.4,0.3,0.4,0.6c0.1,0.2,0,0.5-0.1,0.7l-1.8,2.5C11.7,9.7,11.5,9.8,11.3,9.8
				C11.3,9.8,11.3,9.8,11.3,9.8z M10.4,7.7c0,0-0.1,0-0.1,0.1c0,0.1,0,0.2,0,0.2l1,1.2l1.8-2.5c0,0,0-0.1,0-0.1c0,0,0-0.1-0.1-0.1
				c-0.1,0-0.2,0-0.2,0.1l-1.3,1.8c-0.1,0.1-0.2,0.1-0.3,0.1c-0.1,0-0.2,0-0.3-0.1l-0.5-0.5C10.5,7.7,10.4,7.7,10.4,7.7z"/>
			<g class="st1">
				<path class="st2" d="M11.2,9.8L11.2,9.8c-0.1,0-0.2,0-0.3,0l-1-0.6C9.7,9,9.6,8.7,9.8,8.6c0.2-0.2,0.5-0.3,0.6-0.1L11,8.7
					l2.3-3.2c0.2-0.2,0.5-0.3,0.6-0.1C14.1,5.6,14.1,5.9,14,6l-2.6,3.6C11.4,9.7,11.3,9.8,11.2,9.8z"/>
			</g>
			<path d="M13.1,11H8.8c-0.2,0-0.4-0.2-0.4-0.4V6.1c0-0.2,0.2-0.4,0.4-0.4h1.8c0.2,0,0.4,0.2,0.4,0.4c0,0.2-0.2,0.4-0.4,0.4H9.1
				v3.8h3.6V7.4c0-0.2,0.2-0.4,0.4-0.4s0.4,0.2,0.4,0.4v3.2C13.4,10.8,13.3,11,13.1,11z"/>
		</g>
	</g>
</g>
</svg>
