<?xml version="1.0" encoding="utf-8"?>
<!-- Generator: Adobe Illustrator 16.0.0, SVG Export Plug-In . SVG Version: 6.00 Build 0)  -->
<!DOCTYPE svg PUBLIC "-//W3C//DTD SVG 1.1//EN" "http://www.w3.org/Graphics/SVG/1.1/DTD/svg11.dtd">
<svg version="1.1" id="Layer_1" xmlns="http://www.w3.org/2000/svg" xmlns:xlink="http://www.w3.org/1999/xlink" x="0px" y="0px"
	 width="24px" height="24px" viewBox="0 0 24 24" enable-background="new 0 0 24 24" xml:space="preserve">
<g>
	<g>
		<g>
			<path d="M17,23.4H5.8c-1.1,0-2.1-0.9-2.1-2.1V7.9c0-0.1,0.1-0.2,0.1-0.3l5.7-5.7c0.1-0.1,0.2-0.1,0.3-0.1H17
				c1.1,0,2.1,0.9,2.1,2.1v17.6C19.1,22.5,18.1,23.4,17,23.4z M4.6,8.1v13.3c0,0.6,0.5,1.2,1.1,1.2H17c0.6,0,1.2-0.5,1.2-1.2V3.8
				c0-0.6-0.5-1.1-1.2-1.1h-6.9L4.6,8.1z"/>
		</g>
		<g>
			<path d="M8.3,8.4H4.2C4,8.4,3.8,8.3,3.7,8.1c-0.1-0.2,0-0.4,0.1-0.5l5.7-5.7c0.1-0.1,0.3-0.2,0.5-0.1c0.2,0.1,0.3,0.2,0.3,0.4
				v4.1C10.4,7.4,9.4,8.4,8.3,8.4z M5.3,7.5h3c0.6,0,1.2-0.5,1.2-1.2V3.3L5.3,7.5z"/>
		</g>
	</g>
	<g>
		<g>
			<rect x="6.8" y="10.4" width="9.1" height="0.9"/>
		</g>
		<g>
			<rect x="6.8" y="13.1" width="9.1" height="0.9"/>
		</g>
		<g>
			<rect x="6.8" y="15.8" width="9.1" height="0.9"/>
		</g>
		<g>
			<rect x="6.8" y="18.5" width="9.1" height="0.9"/>
		</g>
	</g>
</g>
</svg>
