<?xml version="1.0" encoding="utf-8"?>
<!-- Generator: Adobe Illustrator 16.0.0, SVG Export Plug-In . SVG Version: 6.00 Build 0)  -->
<!DOCTYPE svg PUBLIC "-//W3C//DTD SVG 1.1//EN" "http://www.w3.org/Graphics/SVG/1.1/DTD/svg11.dtd">
<svg version="1.1" id="Layer_1" xmlns="http://www.w3.org/2000/svg" xmlns:xlink="http://www.w3.org/1999/xlink" x="0px" y="0px"
	 width="24px" height="24px" viewBox="0 0 24 24" enable-background="new 0 0 24 24" xml:space="preserve">
<g>
	<g>
		<path d="M16.5,5.5H8.8c-0.3,0-0.4-0.2-0.4-0.4V2.5c0-0.2,0.2-0.4,0.4-0.4h2.3c0.4-0.5,1-0.7,1.5-0.7c0.6,0,1.2,0.3,1.6,0.7h2.3
			c0.2,0,0.4,0.2,0.4,0.4v2.6C17,5.3,16.7,5.5,16.5,5.5z M9.2,4.6h6.9V2.9H14c-0.2,0-0.3-0.1-0.4-0.2c-0.4-0.7-1.5-0.7-1.9,0
			c-0.1,0.1-0.3,0.2-0.4,0.2H9.2V4.6z"/>
	</g>
	<g>
		<path d="M18.4,21.9H6.9c-0.8,0-1.4-0.7-1.4-1.4V4.8c0-0.8,0.6-1.4,1.4-1.4h1.9c0.2,0,0.4,0.2,0.4,0.4v0.8h6.9V3.8
			c0-0.2,0.2-0.4,0.4-0.4h1.9c0.8,0,1.5,0.6,1.5,1.4v15.6C19.9,21.2,19.2,21.9,18.4,21.9z M6.9,4.2c-0.3,0-0.6,0.3-0.6,0.6v15.6
			c0,0.3,0.2,0.6,0.6,0.6h11.5c0.3,0,0.6-0.2,0.6-0.6V4.8c0-0.3-0.3-0.6-0.6-0.6H17v0.8c0,0.2-0.2,0.4-0.4,0.4H8.8
			c-0.3,0-0.4-0.2-0.4-0.4V4.2H6.9z"/>
	</g>
	<g>
		<g>
			<g>
				<rect x="8.4" y="7.7" width="0.9" height="0.9"/>
				<path d="M9.3,9H8.4C8.2,9,8,8.8,8,8.6V7.7c0-0.2,0.2-0.4,0.4-0.4h0.9c0.2,0,0.4,0.2,0.4,0.4v0.9C9.7,8.8,9.6,9,9.3,9z"/>
			</g>
			<g>
				<line x1="11.1" y1="8.1" x2="16.9" y2="8.1"/>
				<rect x="10.7" y="7.7" width="6.7" height="0.8"/>
			</g>
		</g>
		<g>
			<g>
				<rect x="8.4" y="10.6" width="0.9" height="0.9"/>
				<path d="M9.3,12H8.4C8.2,12,8,11.8,8,11.6v-0.9c0-0.2,0.2-0.4,0.4-0.4h0.9c0.2,0,0.4,0.2,0.4,0.4v0.9C9.7,11.8,9.6,12,9.3,12z"
					/>
			</g>
			<g>
				<line x1="11.1" y1="11.1" x2="16.9" y2="11.1"/>
				<rect x="10.7" y="10.7" width="6.7" height="0.9"/>
			</g>
		</g>
		<g>
			<g>
				<rect x="8.4" y="13.6" width="0.9" height="0.9"/>
				<path d="M9.3,15H8.4C8.2,15,8,14.8,8,14.6v-0.9c0-0.2,0.2-0.4,0.4-0.4h0.9c0.2,0,0.4,0.2,0.4,0.4v0.9C9.7,14.8,9.6,15,9.3,15z"
					/>
			</g>
			<g>
				<line x1="11.1" y1="14.1" x2="16.9" y2="14.1"/>
				<rect x="10.7" y="13.7" width="6.7" height="0.9"/>
			</g>
		</g>
		<g>
			<g>
				<rect x="8.4" y="16.7" width="0.9" height="0.9"/>
				<path d="M9.3,18H8.4C8.2,18,8,17.8,8,17.6v-0.9c0-0.2,0.2-0.4,0.4-0.4h0.9c0.2,0,0.4,0.2,0.4,0.4v0.9C9.7,17.8,9.6,18,9.3,18z"
					/>
			</g>
			<g>
				<line x1="11.1" y1="17.1" x2="16.9" y2="17.1"/>
				<rect x="10.7" y="16.7" width="6.7" height="0.9"/>
			</g>
		</g>
	</g>
</g>
</svg>
