<?xml version="1.0" encoding="utf-8"?>
<!-- Generator: Adobe Illustrator 16.0.0, SVG Export Plug-In . SVG Version: 6.00 Build 0)  -->
<!DOCTYPE svg PUBLIC "-//W3C//DTD SVG 1.1//EN" "http://www.w3.org/Graphics/SVG/1.1/DTD/svg11.dtd">
<svg version="1.1" id="Layer_1" xmlns="http://www.w3.org/2000/svg" xmlns:xlink="http://www.w3.org/1999/xlink" x="0px" y="0px"
	 width="24px" height="24px" fill="#fff" viewBox="0 0 24 24" enable-background="new 0 0 24 24" xml:space="preserve">
<g>
	<g>
		<g>
			<g>
				<path d="M20.3,23H2.6c-1.1,0-2-0.9-2-2V3.4c0-1.1,0.9-2,2-2h17.6c1.1,0,2,0.9,2,2V21C22.3,22.1,21.4,23,20.3,23z M2.6,2.3
					C2,2.3,1.5,2.8,1.5,3.4V21c0,0.6,0.5,1.1,1.1,1.1h17.6c0.6,0,1.1-0.5,1.1-1.1V3.4c0-0.6-0.5-1.1-1.1-1.1H2.6z"/>
			</g>
		</g>
	</g>
	<g>
		<path d="M8.7,14.6c-0.2,0-0.4-0.1-0.6-0.2c-0.4-0.2-0.7-0.6-0.7-1.1V6.2c0-0.5,0.3-0.9,0.7-1.1C8.5,4.9,9,4.9,9.4,5.2l5.4,3.5
			c0.4,0.2,0.6,0.6,0.6,1c0,0.4-0.2,0.8-0.6,1.1l-5.4,3.5C9.2,14.5,9,14.6,8.7,14.6z M8.7,5.9c-0.1,0-0.1,0-0.2,0
			C8.5,6,8.4,6.1,8.4,6.2v7.1c0,0.1,0.1,0.2,0.2,0.3c0.1,0.1,0.3,0.1,0.3,0l5.4-3.5c0.1-0.1,0.1-0.2,0.1-0.3c0-0.1-0.1-0.2-0.2-0.3
			L8.9,5.9C8.9,5.9,8.8,5.9,8.7,5.9z"/>
	</g>
	<g>
		<rect x="8.4" y="18.3" width="10.9" height="0.9"/>
	</g>
	<g>
		<rect x="3.6" y="18.3" width="2.3" height="0.9"/>
	</g>
	<g>
		<path d="M7.2,20.1c-0.3,0-0.5-0.2-0.5-0.5v-1.9c0-0.2,0.2-0.5,0.5-0.5c0.2,0,0.4,0.2,0.4,0.5v1.9C7.7,19.9,7.5,20.1,7.2,20.1z"/>
	</g>
</g>
</svg>
