<svg width="1356" height="445" viewBox="0 0 1356 445" fill="none" xmlns="http://www.w3.org/2000/svg">
<rect width="1356" height="445" rx="16" fill="#582900"/>
<mask id="mask0_4348_2587" style="mask-type:luminance" maskUnits="userSpaceOnUse" x="0" y="0" width="1356" height="445">
<path d="M1356 0H0V445H1356V0Z" fill="white"/>
</mask>
<g mask="url(#mask0_4348_2587)">
<mask id="mask1_4348_2587" style="mask-type:luminance" maskUnits="userSpaceOnUse" x="396" y="186" width="564" height="73">
<path d="M960 186H396V259H960V186Z" fill="white"/>
</mask>
<g mask="url(#mask1_4348_2587)">
<path d="M960 233.601C959.911 234.143 959.843 234.688 959.734 235.226C959.274 237.286 958.266 239.21 956.804 240.83C954.82 243.071 952.349 244.909 949.545 246.226C944.025 248.937 938.401 251.45 932.662 253.765C932.343 253.895 932.004 253.982 931.675 254.098C931.429 254.186 931.168 254.21 930.912 254.168C930.656 254.126 930.416 254.02 930.223 253.861C928.834 252.878 927.445 251.898 926.05 250.918C924.353 249.733 922.672 248.532 920.76 247.63C917.061 245.883 913.197 244.617 909 244.325C908.39 244.284 907.784 244.225 907.181 244.136C907.003 244.119 906.835 244.058 906.694 243.957C906.553 243.857 906.445 243.723 906.384 243.569C906.323 243.416 906.31 243.249 906.348 243.089C906.385 242.93 906.471 242.783 906.596 242.666C906.833 242.428 907.092 242.21 907.37 242.014C909.486 240.388 911.595 238.753 913.727 237.143C914.793 236.339 915.907 235.586 916.988 234.799C917.455 234.469 918.037 234.307 918.624 234.342C920.436 234.4 922.228 234.695 923.946 235.218C927.011 236.041 929.972 237.165 932.771 238.571C935.398 239.931 937.879 241.458 939.837 243.597C940.14 243.922 940.479 244.22 940.845 244.486C941.78 245.178 942.641 245.188 943.623 244.242C944.098 243.739 944.453 243.15 944.662 242.514C945.561 240.218 945.132 238.117 943.55 236.174C942.464 234.799 941.085 233.632 939.508 232.74C937.32 231.53 935.111 230.354 932.865 229.242C929.356 227.506 925.794 225.864 922.29 224.126C920.05 223.039 917.947 221.732 916.017 220.228C912.937 217.787 911.217 214.744 911.192 210.994C911.15 208.315 912.221 205.721 914.19 203.739C916.333 201.565 918.953 199.83 921.883 198.648C924.52 197.533 927.236 196.561 929.91 195.51C933.059 194.273 936.265 193.172 939.529 192.205C939.686 192.158 939.847 192.12 939.999 192.062C940.176 191.981 940.38 191.96 940.579 192.001C940.772 192.042 940.949 192.143 941.069 192.288C942.077 193.245 943.096 194.189 944.114 195.138C945.211 196.163 946.281 197.216 947.414 198.207C949.258 199.772 951.404 201.011 953.744 201.863C954.976 202.336 956.183 202.867 957.394 203.379C957.624 203.474 957.833 203.604 958.12 203.753C957.984 203.897 957.838 204.029 957.676 204.148C956.987 204.551 956.308 204.985 955.582 205.328C953.232 206.446 950.856 207.525 948.495 208.631C948.057 208.839 947.555 208.897 947.075 208.795C944.145 208.295 941.289 207.46 938.584 206.309C935.936 205.178 933.67 203.42 932.014 201.218C931.586 200.656 931.137 200.108 930.662 199.582C929.789 198.622 928.693 198.536 927.633 199.311C926.896 199.856 926.291 200.538 925.862 201.312C925.429 202.086 925.183 202.934 925.131 203.802C925.089 204.112 925.131 204.427 925.257 204.718C925.382 205.009 925.586 205.265 925.847 205.464C926.614 206.093 927.439 206.657 928.317 207.15C931.147 208.585 934.014 209.961 936.892 211.324C941.602 213.496 946.182 215.907 950.6 218.549C952.605 219.706 954.454 221.071 956.115 222.619C957.425 223.874 958.444 225.363 959.097 226.993C959.54 228.073 959.802 229.207 959.88 230.358C959.901 230.545 959.943 230.73 960 230.911V233.601Z" fill="white"/>
<path d="M905.555 221.417C905.584 225.471 904.994 229.508 903.804 233.412C902.53 237.829 900.225 241.94 897.049 245.462C894.377 248.507 890.906 250.881 886.96 252.363C885.252 252.971 883.463 253.371 881.64 253.552C880.498 253.677 879.348 253.766 878.198 253.793C875.66 253.794 873.13 253.533 870.656 253.015C867.759 252.48 864.849 251.972 861.923 251.594C860.007 251.343 858.058 251.416 856.171 251.81C854.663 252.163 853.274 252.852 852.127 253.815C851.842 254.041 851.501 254.199 851.135 254.274C850.768 254.35 850.386 254.34 850.024 254.247C849.896 254.234 849.776 254.182 849.684 254.099C849.593 254.016 849.534 253.907 849.519 253.79C849.341 253.165 849.405 252.502 849.7 251.916C849.913 251.488 850.155 251.073 850.423 250.672C851.239 249.517 851.64 248.158 851.573 246.785C851.556 242.987 851.566 239.19 851.559 235.393C851.542 223.339 851.52 211.286 851.495 199.233C851.493 198.168 851.416 197.106 851.356 196.04C851.34 195.782 851.26 195.53 851.121 195.304C850.981 195.079 850.788 194.886 850.554 194.74C849.854 194.276 849.117 193.856 848.397 193.414C847.699 192.983 846.984 192.572 846.313 192.107C845.792 191.737 845.405 191.231 845.202 190.656C845.135 190.518 845.115 190.365 845.144 190.217C845.174 190.068 845.251 189.931 845.366 189.824C845.888 189.332 846.407 188.837 846.956 188.371C847.332 188.052 847.466 188.064 847.844 188.414C849.599 190.014 851.778 191.169 854.167 191.766C855.416 192.066 856.689 192.269 857.974 192.373C861.002 192.68 864.033 192.465 867.063 192.329C870.397 192.178 873.725 191.869 877.069 192.009C881.214 192.122 885.297 192.959 889.098 194.475C890.681 195.131 892.173 195.957 893.543 196.936C895.488 198.316 897.243 199.906 898.77 201.673C899.939 203.037 900.951 204.507 901.792 206.06C903.202 208.64 904.207 211.39 904.776 214.228C905.287 216.596 905.548 219.003 905.555 221.417ZM884.524 224.283C884.583 220.937 884.45 217.59 884.125 214.257C883.966 212.066 883.668 209.885 883.23 207.726C882.631 205.041 881.779 202.432 880.276 200.031C879.587 198.862 878.725 197.785 877.714 196.833C877.178 196.28 876.429 195.938 875.625 195.876C874.734 195.845 873.835 195.834 872.947 195.885C872.568 195.894 872.207 196.036 871.939 196.281C871.671 196.527 871.516 196.858 871.507 197.205C871.441 197.714 871.408 198.225 871.408 198.737C871.391 203.452 871.38 208.167 871.373 212.882C871.345 223.657 871.319 234.431 871.294 245.207C871.294 246.057 871.399 246.907 871.464 247.756C871.464 247.913 871.499 248.069 871.566 248.214C871.633 248.359 871.731 248.49 871.855 248.6C871.979 248.709 872.125 248.794 872.286 248.85C872.446 248.907 872.618 248.932 872.789 248.927C874.716 249.045 876.526 248.766 878.074 247.583C879.853 246.242 881.194 244.478 881.951 242.485C882.933 239.838 883.592 237.098 883.917 234.318C884.346 230.988 884.549 227.636 884.524 224.283Z" fill="white"/>
<path d="M822.487 228.908C822.89 229.211 823.314 229.488 823.757 229.739C825.444 230.537 827.138 231.324 828.849 232.078C830.603 232.852 832.386 233.572 834.144 234.337C835.265 234.825 835.303 234.944 834.966 236.023C834.646 237.048 834.278 238.063 834.025 239.101C833.542 241.039 833.453 243.043 833.762 245.011C834.036 246.737 835.058 248.045 836.516 249.109C838.254 250.379 840.287 250.999 842.461 251.271C843.484 251.4 844.516 251.451 845.547 251.545C845.817 251.569 846.086 251.621 846.514 251.683C846.22 251.93 846.047 252.092 845.855 252.233C844.74 252.987 843.496 253.567 842.175 253.951C839.466 254.851 836.554 255.111 833.707 254.706C832.154 254.47 830.637 254.063 829.19 253.493C826.744 252.607 824.458 251.388 822.41 249.877C820.187 248.259 818.371 246.222 817.085 243.905C816.43 242.606 815.989 241.225 815.775 239.807C815.412 237.81 815.536 235.813 815.684 233.81C815.76 232.789 815.803 231.766 815.861 230.744C815.912 230.358 815.832 229.968 815.633 229.624C815.434 229.281 815.125 229.002 814.748 228.823C814.071 228.485 813.383 228.155 812.676 227.872C811.384 227.417 810.159 226.815 809.029 226.082C808.42 225.649 807.842 225.175 807.258 224.714C807.063 224.561 806.898 224.375 806.7 224.226C806.471 224.054 806.262 223.791 805.912 223.91C805.748 223.974 805.61 224.082 805.516 224.22C805.422 224.358 805.377 224.519 805.387 224.682C805.295 225.958 805.155 227.235 805.139 228.512C805.06 235.231 805.018 241.95 804.956 248.67C804.944 250.077 804.914 251.485 804.882 252.893C804.863 253.725 804.585 254.006 803.664 254.047C802.743 254.088 801.83 254.087 800.913 254.086C796.421 254.082 791.929 254.075 787.437 254.063C787.084 254.071 786.731 254.058 786.381 254.023C785.683 253.934 785.448 253.698 785.425 253.053C785.377 251.71 785.319 250.368 785.314 249.023C785.245 232.491 785.174 215.96 785.1 199.428C785.091 197.711 785.04 195.969 784.434 194.305C784.244 193.782 783.994 193.276 783.765 192.765C783.695 192.607 783.589 192.462 783.523 192.303C783.466 192.202 783.441 192.089 783.451 191.976C783.462 191.862 783.507 191.754 783.582 191.664C783.656 191.573 783.758 191.504 783.874 191.464C783.99 191.424 784.116 191.415 784.237 191.438C785.194 191.537 786.146 191.682 787.1 191.798C790.035 192.154 792.965 192.542 795.906 192.845C797.573 192.961 799.247 192.927 800.906 192.745C802.569 192.62 804.234 192.501 805.901 192.427C809.375 192.233 812.86 192.225 816.335 192.404C819.102 192.581 821.869 192.771 824.566 193.416C827.699 194.119 830.628 195.435 833.154 197.272C834.568 198.365 835.845 199.6 836.959 200.954C837.781 201.913 838.532 202.921 839.313 203.908C840.171 204.977 840.87 206.147 841.389 207.385C841.749 208.262 841.991 209.175 842.112 210.105C842.234 211.296 842.189 212.496 841.976 213.676C841.709 215.5 841.028 217.252 839.977 218.82C839.411 219.632 838.753 220.387 838.013 221.071C836.081 222.894 833.736 224.196 831.225 225.25C828.688 226.316 826.124 227.329 823.576 228.371C823.262 228.5 822.966 228.671 822.487 228.908ZM822.55 209.847C822.578 208.452 822.428 207.058 822.103 205.695C821.646 203.66 820.999 201.688 819.76 199.909C818.567 198.193 817.068 196.783 814.973 195.989C813.33 195.367 811.682 195.33 810.096 196.164C809.586 196.428 809.094 196.718 808.62 197.033C806.719 198.311 805.628 199.923 805.659 202.18C805.728 207.276 805.664 212.373 805.675 217.469C805.695 218.236 805.759 219.002 805.865 219.763C805.91 220.143 806.136 220.232 806.504 220.047C806.79 219.903 807.052 219.718 807.331 219.562C807.935 219.196 808.647 219.009 809.37 219.026C810.094 219.042 810.794 219.262 811.377 219.656C812.624 220.423 812.816 221.902 811.388 222.799C811.119 222.927 810.837 223.032 810.547 223.113C810.158 223.268 810.103 223.57 810.445 223.793C810.696 223.953 810.969 224.079 811.256 224.171C814.276 225.147 817.034 224.405 819.116 222.188C820.296 220.929 820.946 219.419 821.436 217.851C822.208 215.242 822.584 212.55 822.55 209.847Z" fill="white"/>
<path d="M640.361 227.24C640.738 227.224 641.114 227.189 641.488 227.135C642.907 226.816 644.225 226.199 645.339 225.333C647.492 223.739 649.251 221.744 650.5 219.481C652.147 216.686 652.929 213.531 652.761 210.358C652.656 208.822 652.251 207.316 651.568 205.91C651.114 204.952 650.572 204.027 650.065 203.091C649.95 202.882 649.811 202.682 649.693 202.473C649.307 201.788 649.316 201.65 649.927 201.14C652.491 199.004 655.071 196.886 657.832 194.956C659.322 193.915 660.834 192.899 662.336 191.874C662.505 191.757 662.681 191.651 662.865 191.556C662.986 191.486 663.13 191.458 663.271 191.478C663.413 191.498 663.541 191.564 663.634 191.664C663.683 191.71 663.729 191.759 663.773 191.808C665.943 194.222 667.43 196.929 667.835 200.043C668.057 201.741 667.96 203.462 667.547 205.13C666.824 207.985 665.587 210.709 663.885 213.191C662.507 215.234 660.813 217.067 659.238 218.979C658.099 220.362 657.017 221.784 655.934 223.205C655.446 223.844 655.48 223.879 655.962 224.503C661.469 231.629 666.975 238.754 672.48 245.881C672.722 246.196 672.954 246.516 673.175 246.844C673.564 247.419 673.551 247.735 673.04 248.214C672.459 248.773 671.847 249.304 671.205 249.805C667.588 252.616 663.528 254.911 659.163 256.613C658.968 256.687 658.771 256.757 658.572 256.823C657.853 257.057 657.549 256.972 657.168 256.373C656.662 255.579 656.177 254.774 655.696 253.967C652.062 247.896 648.431 241.824 644.802 235.751C644.03 234.458 643.29 233.149 642.51 231.86C642.271 231.493 641.997 231.145 641.694 230.821C641.561 230.671 641.395 230.55 641.206 230.465C641.122 230.414 641.024 230.386 640.923 230.384C640.822 230.381 640.723 230.404 640.636 230.45C640.549 230.496 640.477 230.564 640.429 230.645C640.381 230.726 640.359 230.818 640.365 230.91C640.351 231.08 640.347 231.251 640.353 231.421C640.343 237.372 640.332 243.324 640.32 249.277C640.316 250.599 640.248 251.921 640.233 253.243C640.225 254.077 639.957 254.308 638.995 254.353C638.103 254.394 637.208 254.404 636.315 254.402C631.729 254.393 627.143 254.379 622.557 254.361C622.463 254.361 622.367 254.361 622.275 254.357C621.41 254.302 621.157 254.078 621.15 253.284C621.116 249.317 621.068 245.349 621.068 241.382C621.068 226.918 621.077 212.454 621.096 197.99C621.098 196.369 621.144 194.747 621.172 193.127C621.187 192.218 621.415 192 622.431 191.993C625.206 191.974 627.982 191.964 630.757 191.963C633.46 191.965 636.165 191.99 638.87 192.006C639.035 192.002 639.2 192.007 639.365 192.02C639.579 192.016 639.786 192.088 639.943 192.222C640.099 192.357 640.191 192.542 640.2 192.738C640.23 192.928 640.243 193.119 640.238 193.311C640.269 198.644 640.3 203.977 640.329 209.31C640.35 215.006 640.362 220.701 640.364 226.396C640.364 226.646 640.361 226.898 640.361 227.24Z" fill="white"/>
<path d="M560.487 224.17C560.213 228.142 559.029 232.016 557.014 235.542C554.998 239.067 552.195 242.165 548.786 244.633C544.608 247.726 540.104 250.431 535.341 252.706C534.021 253.32 532.636 253.807 531.208 254.159C530.618 254.312 529.993 254.3 529.41 254.125C527.039 253.433 524.746 252.534 522.563 251.439C519.51 249.923 516.652 248.1 514.041 246.003C512.163 244.486 510.464 242.791 508.975 240.947C506.977 238.439 505.468 235.633 504.513 232.654C503.535 229.729 503.209 226.654 503.553 223.612C503.947 219.909 505.281 216.465 507.017 213.134C509.142 209.061 512.356 205.797 516.182 202.973C521.304 199.189 526.823 195.947 532.513 192.93C533.263 192.532 534.027 192.152 534.773 191.744C534.986 191.612 535.24 191.545 535.496 191.554C535.754 191.562 536.002 191.645 536.205 191.79C539.321 193.622 542.286 195.663 545.074 197.896C547.243 199.598 549.286 201.431 551.19 203.381C553.832 206.186 556.123 209.194 557.65 212.636C558.806 215.156 559.645 217.788 560.148 220.482C560.359 221.697 560.379 222.94 560.487 224.17ZM544.817 231.726C544.744 230.941 544.655 229.773 544.518 228.608C544.444 227.974 544.303 227.346 544.171 226.718C543.376 223.14 542.016 219.686 540.135 216.467C537.246 211.384 533.324 206.853 528.579 203.118C527.642 202.406 526.657 201.75 525.63 201.154C525.032 200.79 524.635 200.865 524.095 201.283C523.934 201.407 523.789 201.548 523.661 201.701C522.871 202.655 522.042 203.584 521.311 204.575C519.817 206.522 518.8 208.742 518.33 211.082C517.653 214.755 517.891 218.521 519.028 222.098C520.255 225.911 522.021 229.56 524.281 232.954C527.622 238.165 532.17 242.642 537.605 246.069C537.798 246.19 537.994 246.309 538.198 246.413C538.319 246.483 538.459 246.519 538.601 246.516C538.743 246.514 538.881 246.473 538.998 246.399C539.195 246.284 539.385 246.16 539.569 246.027C541.037 244.852 542.158 243.358 542.83 241.681C544.173 238.613 544.656 235.391 544.817 231.726Z" fill="white"/>
<path d="M724.011 226.663C723.91 223.731 724.4 220.806 725.457 218.036C726.172 216.003 727.088 214.034 728.196 212.155C729.565 209.835 731.307 207.718 733.364 205.874C736.529 203.052 740.079 200.66 743.719 198.386C747.283 196.161 750.99 194.137 754.744 192.188C754.908 192.103 755.072 192.02 755.239 191.944C755.411 191.85 755.61 191.805 755.81 191.814C756.01 191.823 756.203 191.886 756.364 191.994C756.847 192.299 757.343 192.584 757.832 192.879C762.124 195.498 766.101 198.527 769.694 201.915C772.625 204.599 775.074 207.689 776.952 211.073C777.929 212.94 778.73 214.88 779.348 216.872C780.041 218.887 780.448 220.975 780.562 223.086C780.61 224.429 780.519 225.773 780.29 227.1C779.464 231.824 777.353 236.282 774.151 240.061C772.658 241.797 770.939 243.36 769.034 244.715C764.907 247.797 760.449 250.487 755.73 252.745C754.433 253.349 753.072 253.831 751.669 254.184C751.035 254.353 750.36 254.341 749.734 254.149C747.367 253.446 745.079 252.539 742.899 251.44C739.914 249.946 737.118 248.155 734.562 246.1C732.72 244.611 731.051 242.95 729.583 241.146C727.566 238.627 726.039 235.806 725.07 232.81C724.37 230.825 724.014 228.75 724.011 226.663ZM764.936 232.117C764.972 231.394 764.968 230.669 764.924 229.945C764.606 227.166 763.934 224.43 762.92 221.795C761.774 218.777 760.08 215.994 758.281 213.269C756.043 209.878 753.173 206.949 750.023 204.238C748.85 203.186 747.554 202.257 746.157 201.468C745.35 201.033 744.92 201.084 744.3 201.712C743.783 202.235 743.297 202.786 742.834 203.349C740.398 206.313 738.782 209.559 738.512 213.31C738.273 216.313 738.603 219.331 739.487 222.232C740.697 226.049 742.462 229.701 744.735 233.088C747.497 237.272 750.79 241.053 755.03 244.1C756.098 244.867 757.19 245.608 758.294 246.334C758.795 246.665 759.086 246.632 759.576 246.31C759.709 246.223 759.826 246.118 759.95 246.019C761.641 244.666 762.681 242.93 763.394 241.035C764.472 238.168 764.994 235.15 764.936 232.117Z" fill="white"/>
<path d="M594.596 253.903C592.103 253.852 589.618 253.611 587.168 253.18C585.093 252.799 583.114 252.061 581.337 251.006C579.818 250.114 578.316 249.196 576.796 248.304C576.454 248.121 576.099 247.958 575.733 247.816C575.499 247.711 575.235 247.676 574.979 247.716C574.722 247.756 574.486 247.871 574.304 248.042C573.867 248.396 573.463 248.784 573.095 249.2C571.847 250.641 570.604 252.089 569.403 253.565C569.258 253.795 569.044 253.982 568.787 254.105C568.529 254.228 568.239 254.282 567.95 254.26C567.271 254.214 566.587 254.251 565.905 254.24C565.732 254.248 565.561 254.212 565.41 254.136C565.259 254.059 565.134 253.946 565.05 253.808C564.966 253.67 564.926 253.513 564.934 253.355C564.943 253.197 565 253.045 565.098 252.915C565.246 252.674 565.436 252.453 565.607 252.225C567.13 250.199 568.664 248.18 570.176 246.145C570.408 245.877 570.578 245.568 570.676 245.237C570.774 244.906 570.797 244.561 570.744 244.221C570.689 243.907 570.585 243.602 570.436 243.315C569.631 241.893 568.789 240.49 567.979 239.07C566.16 235.866 564.882 232.428 564.187 228.873C563.71 226.609 563.511 224.304 563.593 222C563.703 219.783 564.047 217.581 564.621 215.425C565.868 210.603 568.331 206.115 571.813 202.321C573.253 200.685 574.86 199.179 576.613 197.823C579.827 195.358 583.637 193.63 587.726 192.78C590.362 192.217 593.08 192.042 595.777 192.26C597.975 192.476 600.136 192.935 602.213 193.625C604.228 194.271 606.229 194.956 608.236 195.624C608.39 195.675 608.548 195.719 608.7 195.776C610.232 196.349 611.598 196.012 612.853 195.135C613.262 194.85 613.63 194.515 614.023 194.211C614.451 193.879 614.876 193.54 615.325 193.232C615.902 192.835 616.208 192.827 616.794 193.193C617.043 193.353 617.266 193.543 617.457 193.759C617.681 193.968 617.82 194.241 617.848 194.532C617.878 194.823 617.796 195.115 617.618 195.357C616.854 196.456 616.146 197.595 615.293 198.635C612.429 202.124 609.517 205.581 606.613 209.043C602.257 214.237 597.895 219.427 593.527 224.612C591.069 227.524 588.612 230.439 586.076 233.295C584.495 235.076 584.157 237.028 584.655 239.188C585.459 242.864 587.811 246.103 591.203 248.202C594.476 250.301 598.944 250.238 602.34 248.152C605.124 246.443 606.772 244.025 607.736 241.178C608.002 240.388 608.123 239.556 608.308 238.744C608.347 238.577 608.363 238.405 608.419 238.243C608.55 237.865 608.728 237.773 609.162 237.868C609.437 237.921 609.707 237.998 609.967 238.098C612.04 238.955 614.119 239.799 616.17 240.697C616.98 241.052 617.007 241.253 616.795 242.033C616.415 243.384 615.703 244.637 614.713 245.696C612.252 248.447 609.106 250.616 605.539 252.022C603.414 252.839 601.169 253.365 598.877 253.585C597.456 253.734 596.023 253.798 594.596 253.903ZM583.36 221.148C583.36 222.673 583.331 223.804 583.37 224.933C583.398 225.72 583.48 226.505 583.617 227.282C583.722 227.877 584.058 227.971 584.615 227.631C584.852 227.493 585.071 227.33 585.267 227.146C585.777 226.646 586.302 226.153 586.754 225.612C588.442 223.59 590.06 221.519 591.783 219.523C594.362 216.592 596.775 213.541 599.011 210.382C599.999 209.033 600.731 207.54 601.174 205.967C601.631 204.183 601.689 202.439 600.967 200.69C599.816 197.907 597.184 196.585 594.19 196.777C592.26 196.9 590.757 197.844 589.421 199.032C588.296 200.093 587.392 201.334 586.756 202.693C585.462 205.321 584.6 208.109 584.198 210.967C583.701 214.343 583.421 217.742 583.36 221.148Z" fill="white"/>
<path d="M496.75 212.461C496.511 213.114 496.292 213.606 496.15 214.116C495.672 215.989 495.592 217.928 495.91 219.83C496.481 223.549 497.447 227.208 498.794 230.755C500.455 235.306 502.103 239.864 503.885 244.375C504.891 246.921 506.157 249.381 507.304 251.879C507.449 252.193 507.601 252.507 507.723 252.829C507.98 253.51 507.698 254.005 506.923 254.081C505.688 254.201 504.444 254.305 503.203 254.312C489.469 254.393 475.736 254.463 462.002 254.521C460.943 254.526 459.885 254.548 458.827 254.553C458.38 254.555 457.933 254.542 457.488 254.518C456.793 254.481 456.718 254.416 456.683 253.806C456.652 253.273 456.633 252.74 456.631 252.207C456.566 233.093 456.503 213.98 456.441 194.866C456.438 194.099 456.45 193.331 456.477 192.563C456.499 191.865 456.732 191.656 457.5 191.627C458.064 191.605 458.629 191.603 459.193 191.604C464.132 191.612 469.07 191.622 474.009 191.633C474.056 191.633 474.103 191.634 474.15 191.635C475.176 191.663 475.397 191.841 475.407 192.772C475.441 196.419 475.481 200.067 475.479 203.714C475.473 216.108 475.459 228.502 475.438 240.897C475.438 242.731 475.476 244.565 475.518 246.399C475.533 247.059 475.597 247.72 475.68 248.376C475.711 248.742 475.861 249.092 476.111 249.38C476.36 249.667 476.699 249.88 477.081 249.989C477.435 250.105 477.802 250.185 478.175 250.225C479.859 250.404 481.559 250.409 483.244 250.242C484.277 250.153 485.27 249.828 486.131 249.297C486.731 248.922 487.336 248.55 487.906 248.14C490.384 246.403 493.054 244.907 495.87 243.677C496.711 243.297 497.54 242.894 498.36 242.479C498.623 242.338 498.864 242.166 499.076 241.966C499.229 241.848 499.341 241.692 499.401 241.516C499.462 241.342 499.466 241.155 499.416 240.977C499.242 240.403 499.081 239.823 498.855 239.265C497.575 236.104 496.371 232.922 495.353 229.681C494.23 226.203 493.51 222.627 493.205 219.011C493.066 217.178 493.054 215.342 493.61 213.549C493.945 212.277 494.601 211.094 495.526 210.097C496.149 209.503 496.974 209.122 497.865 209.017C498.756 208.911 499.66 209.086 500.427 209.514C500.967 209.856 501.36 210.361 501.539 210.94C501.718 211.519 501.67 212.137 501.405 212.687C501.179 213.066 500.826 213.369 500.399 213.552C499.972 213.735 499.492 213.789 499.029 213.705C498.473 213.611 497.955 213.378 497.533 213.032C497.328 212.867 497.107 212.719 496.75 212.461Z" fill="white"/>
<path d="M717.378 212.725C717.218 213.075 717.073 213.336 716.978 213.612C716.355 215.54 716.187 217.567 716.483 219.559C717.014 223.908 718.42 228.064 719.862 232.213C722.188 238.904 724.735 245.52 727.895 251.932C728.063 252.261 728.211 252.598 728.335 252.943C728.393 253.062 728.42 253.191 728.411 253.321C728.403 253.451 728.361 253.577 728.287 253.689C728.215 253.8 728.114 253.895 727.993 253.963C727.872 254.031 727.735 254.072 727.594 254.082C726.642 254.213 725.683 254.29 724.721 254.311C716.491 254.377 708.262 254.429 700.031 254.469C693.024 254.508 686.016 254.543 679.008 254.573C677.617 254.58 677.6 254.568 677.591 253.286C677.536 243.068 677.485 232.851 677.436 222.635C677.391 213.697 677.347 204.76 677.305 195.823C677.3 194.884 677.315 193.945 677.331 193.007C677.345 192.115 677.569 191.885 678.527 191.885C683.982 191.882 689.437 191.885 694.892 191.895C695.033 191.892 695.175 191.9 695.314 191.919C695.888 192.01 696.082 192.19 696.158 192.709C696.179 192.879 696.188 193.049 696.187 193.22C696.202 194.094 696.225 194.969 696.225 195.843C696.23 210.839 696.236 225.834 696.241 240.83C696.241 242.919 696.317 245.009 696.372 247.099C696.383 247.524 696.451 247.948 696.49 248.373C696.512 248.762 696.667 249.135 696.933 249.439C697.2 249.742 697.565 249.96 697.975 250.062C698.399 250.188 698.839 250.266 699.284 250.293C701.138 250.417 703 250.524 704.826 250.116C705.482 249.959 706.111 249.72 706.696 249.406C707.36 249.042 707.993 248.635 708.592 248.186C711.068 246.445 713.735 244.946 716.55 243.714C717.203 243.419 717.858 243.128 718.492 242.807C718.858 242.617 719.205 242.398 719.53 242.153C719.732 242.021 719.883 241.834 719.963 241.619C720.043 241.403 720.047 241.171 719.975 240.953C719.813 240.42 719.651 239.885 719.439 239.367C718.107 236.087 716.866 232.781 715.828 229.412C714.707 225.867 714.017 222.219 713.772 218.536C713.616 216.853 713.786 215.157 714.275 213.529C714.614 212.347 715.234 211.249 716.091 210.313C716.718 209.709 717.553 209.321 718.455 209.214C719.357 209.106 720.273 209.286 721.048 209.722C721.575 210.065 721.957 210.563 722.128 211.134C722.301 211.704 722.252 212.311 721.992 212.853C721.754 213.266 721.366 213.59 720.895 213.769C720.424 213.948 719.9 213.97 719.413 213.832C718.936 213.665 718.484 213.445 718.065 213.178C717.852 213.066 717.661 212.915 717.378 212.725Z" fill="white"/>
<path d="M398.997 188.07C400.271 188.489 400.663 189.221 401.021 190.39C401.09 190.616 401.176 190.838 401.266 191.058C401.532 191.814 402.059 192.471 402.767 192.929C403.476 193.387 404.327 193.622 405.194 193.599C406.419 193.566 407.641 193.464 408.853 193.295C412.593 192.833 416.321 192.293 420.066 191.875C422.927 191.551 425.813 191.46 428.692 191.604C431.945 191.792 435.149 192.419 438.202 193.465C441.427 194.506 444.435 196.042 447.097 198.009C448.297 198.873 449.371 199.876 450.292 200.992C451.438 202.445 452.018 204.111 452.426 205.833C452.54 206.313 452.628 206.798 452.74 207.277C452.796 207.454 452.784 207.643 452.705 207.813C452.627 207.983 452.488 208.122 452.31 208.209C451.171 208.853 450.064 209.548 448.886 210.129C447.096 210.945 445.413 211.946 443.871 213.112C443.55 213.363 443.248 213.634 442.969 213.925C442.62 214.3 442.635 214.457 443.036 214.792C443.661 215.313 444.309 215.811 444.944 216.322C447.079 218.039 449.22 219.749 451.339 221.479C451.899 221.936 452.392 222.459 452.923 222.945C453.09 223.095 453.221 223.275 453.309 223.473C453.396 223.672 453.438 223.885 453.431 224.099C453.419 229.995 453.435 235.891 453.393 241.786C453.342 243.555 452.687 245.266 451.521 246.677C449.498 249.322 446.649 251.344 443.348 252.478C441.274 253.259 439.084 253.747 436.85 253.926C435.413 254 433.972 254.005 432.534 253.941C429.802 253.816 427.081 253.534 424.387 253.095C422.203 252.756 420.032 252.356 417.851 252C415.437 251.591 412.983 251.409 410.528 251.456C408.785 251.548 407.059 251.818 405.382 252.262C404.468 252.475 403.558 252.697 402.641 252.902C402.093 253.024 401.924 252.95 401.621 252.553C401.549 252.483 401.504 252.393 401.491 252.298C401.478 252.202 401.499 252.105 401.55 252.02C401.596 251.946 401.622 251.862 401.67 251.789C402.629 250.324 402.885 248.727 402.881 247.05C402.867 239.83 402.888 232.609 402.899 225.389C402.91 218.297 402.922 211.205 402.935 204.113C402.935 202.575 402.871 201.037 402.852 199.499C402.857 199.016 402.75 198.536 402.538 198.093C402.327 197.65 402.016 197.252 401.625 196.927C400.886 196.302 400.067 195.756 399.295 195.163C398.478 194.589 397.701 193.969 396.968 193.306C396.547 192.885 396.25 192.373 396.104 191.818C395.957 191.263 395.966 190.683 396.13 190.132C396.206 189.68 396.418 189.255 396.741 188.906C397.064 188.556 397.487 188.295 397.962 188.152C398.093 188.106 398.23 188.073 398.37 188.055C398.578 188.023 398.791 188.028 398.997 188.07ZM422.405 237.199H422.419C422.419 240.208 422.42 243.218 422.422 246.228C422.422 246.546 422.469 246.865 422.498 247.183C422.527 247.507 422.654 247.816 422.864 248.078C423.074 248.339 423.359 248.542 423.687 248.663C424.072 248.824 424.478 248.937 424.896 248.998C425.996 249.139 427.114 249.11 428.203 248.913C429.231 248.771 430.212 248.422 431.075 247.891C432.348 247.1 433.023 245.946 433.435 244.646C433.805 243.321 433.992 241.959 433.993 240.591C434.07 238.501 434.133 236.407 434.109 234.317C434.082 231.928 433.997 229.54 433.853 227.153C433.804 225.718 433.412 224.309 432.705 223.027C432.18 222.121 431.456 221.423 430.291 221.222C429.285 221.039 428.24 221.208 427.363 221.696C425.591 222.658 424.242 224.025 423.041 225.516C422.797 225.855 422.639 226.241 422.579 226.644C422.47 227.232 422.415 227.829 422.414 228.426C422.398 231.35 422.405 234.275 422.405 237.199ZM422.209 206.696H422.273C422.273 209.75 422.261 212.805 422.281 215.859C422.278 216.564 422.343 217.267 422.476 217.961C422.664 218.875 423.199 219.119 424.176 218.842C424.31 218.803 424.442 218.757 424.57 218.702C425.627 218.276 426.606 217.706 427.476 217.011C429.938 214.975 431.821 212.42 432.963 209.567C434.289 206.477 434.423 203.064 433.344 199.894C433.064 198.994 432.582 198.157 431.93 197.437C431.277 196.717 430.468 196.129 429.553 195.712C427.997 195.015 426.252 194.752 424.535 194.956C424.093 195.015 423.666 195.146 423.275 195.344C422.961 195.47 422.695 195.678 422.511 195.942C422.327 196.207 422.234 196.515 422.241 196.829C422.238 197.212 422.211 197.596 422.21 197.981C422.207 200.887 422.207 203.792 422.209 206.696Z" fill="white"/>
</g>
</g>
</svg>
