<svg width="1356" height="445" viewBox="0 0 1356 445" fill="none" xmlns="http://www.w3.org/2000/svg">
<rect width="1356" height="445" rx="16" fill="#83040E"/>
<mask id="mask0_4348_2657" style="mask-type:luminance" maskUnits="userSpaceOnUse" x="0" y="0" width="1356" height="445">
<path d="M1356 0H0V445H1356V0Z" fill="white"/>
</mask>
<g mask="url(#mask0_4348_2657)">
<mask id="mask1_4348_2657" style="mask-type:luminance" maskUnits="userSpaceOnUse" x="449" y="166" width="114" height="113">
<path d="M562.125 166H449.125V279H562.125V166Z" fill="white"/>
</mask>
<g mask="url(#mask1_4348_2657)">
<g style="mix-blend-mode:luminosity">
<path d="M517.015 166.91C517.244 166.958 517.473 167.006 517.709 167.055C526.033 168.823 534.262 172.519 540.806 178.003C541.158 178.296 541.515 178.583 541.873 178.87C545.062 181.455 548.019 184.395 550.446 187.71C550.74 188.107 551.042 188.497 551.345 188.886C556.333 195.364 559.534 203.15 561.213 211.108C561.285 211.441 561.285 211.441 561.359 211.78C562.832 218.841 562.739 226.85 561.213 233.89C561.165 234.119 561.118 234.348 561.069 234.584C559.3 242.908 555.604 251.137 550.121 257.681C549.827 258.033 549.54 258.39 549.253 258.748C546.668 261.937 543.728 264.894 540.413 267.321C540.016 267.615 539.626 267.917 539.237 268.22C532.76 273.208 524.973 276.409 517.015 278.088C516.683 278.16 516.683 278.16 516.343 278.234C509.283 279.707 501.273 279.614 494.233 278.088C493.89 278.016 493.89 278.016 493.539 277.944C485.215 276.175 476.986 272.479 470.442 266.996C470.09 266.702 469.733 266.415 469.375 266.128C466.186 263.543 463.229 260.603 460.802 257.288C460.508 256.891 460.207 256.501 459.903 256.112C454.915 249.635 451.715 241.848 450.035 233.89C449.987 233.669 449.939 233.447 449.889 233.218C448.416 226.158 448.51 218.148 450.035 211.108C450.083 210.879 450.131 210.65 450.18 210.414C451.948 202.09 455.644 193.862 461.128 187.317C461.421 186.965 461.708 186.608 461.995 186.25C464.58 183.061 467.52 180.104 470.835 177.677C471.232 177.383 471.622 177.082 472.011 176.778C478.488 171.79 486.275 168.59 494.233 166.91C494.455 166.862 494.676 166.814 494.905 166.764C501.966 165.291 509.975 165.385 517.015 166.91Z" fill="#757575"/>
<path d="M512.459 181.036C512.752 181.088 512.752 181.088 513.051 181.14C517.695 181.983 521.995 183.548 526.128 185.82C526.272 185.899 526.416 185.978 526.564 186.06C530.58 188.297 534.027 191.291 537.164 194.634C537.271 194.748 537.379 194.861 537.489 194.978C538.379 195.948 539.09 197.016 539.798 198.123C534.932 200.183 530.057 202.221 525.166 204.221C524.98 204.297 524.795 204.373 524.604 204.451C524.417 204.528 524.23 204.604 524.038 204.683C521.624 205.671 519.213 206.667 516.802 207.663C516.575 207.757 516.348 207.85 516.114 207.947C513.756 208.922 511.397 209.897 509.042 210.881C502.972 213.416 496.888 215.917 490.802 218.413C490.517 218.53 490.517 218.53 490.227 218.649C489.695 218.868 489.162 219.086 488.629 219.304C488.474 219.368 488.319 219.431 488.159 219.497C487.375 219.818 486.591 220.136 485.804 220.45C486.519 220.926 487.246 221.244 488.036 221.569C488.193 221.634 488.349 221.7 488.511 221.767C489.032 221.983 489.554 222.199 490.076 222.415C490.446 222.568 490.816 222.722 491.186 222.875C493.982 224.035 496.783 225.183 499.585 226.329C502.53 227.534 505.467 228.757 508.401 229.99C512.121 231.552 515.851 233.089 519.587 234.613C522.653 235.865 525.716 237.125 528.777 238.391C528.995 238.481 529.213 238.571 529.437 238.663C530.296 239.019 531.154 239.374 532.013 239.729C534.142 240.609 536.272 241.486 538.402 242.363C538.57 242.432 538.738 242.501 538.91 242.572C539.814 242.944 540.717 243.316 541.62 243.687C541.62 245.957 539.216 248.205 537.821 249.923C537.614 250.178 537.409 250.435 537.206 250.693C536.941 251.024 536.662 251.344 536.381 251.661L535.77 252.046C532.917 257.043 525.065 260.445 519.977 262.369C519.758 262.454 519.758 262.454 519.535 262.54C517.017 263.505 514.427 263.984 511.776 264.419C511.536 264.46 511.536 264.46 511.291 264.502C504.958 265.56 498.489 264.756 492.411 262.825C492.25 262.774 492.09 262.724 491.924 262.673C486.23 260.853 481.064 257.509 476.691 253.484C476.566 253.369 476.442 253.255 476.313 253.137C473.359 250.392 470.935 247.19 468.945 243.687C468.796 243.432 468.647 243.176 468.494 242.913C466.415 239.256 465.072 235.251 464.161 231.157C464.123 231.001 464.086 230.845 464.048 230.684C462.763 225.159 463.027 218.629 464.389 213.159C464.437 212.956 464.486 212.754 464.537 212.545C465.25 209.645 466.259 206.95 467.578 204.274C467.659 204.108 467.74 203.943 467.823 203.772C468.981 201.423 470.313 199.288 471.907 197.212C472.057 197.01 472.207 196.809 472.362 196.601C474.8 193.468 477.753 190.584 481.02 188.327C481.258 188.16 481.497 187.994 481.742 187.823C482.547 187.277 483.372 186.77 484.209 186.276C484.377 186.177 484.545 186.078 484.718 185.976C488.972 183.513 493.688 181.757 498.562 181.036C498.803 180.99 499.045 180.945 499.293 180.897C503.539 180.178 508.222 180.269 512.459 181.036Z" fill="#E7E7E7"/>
</g>
</g>
<path d="M611.125 245.5V181.5H636.75C641.458 181.5 645.386 182.198 648.531 183.594C651.677 184.99 654.042 186.927 655.625 189.406C657.208 191.865 658 194.698 658 197.906C658 200.406 657.5 202.604 656.5 204.5C655.5 206.375 654.125 207.917 652.375 209.125C650.646 210.312 648.667 211.156 646.438 211.656V212.281C648.875 212.385 651.156 213.073 653.281 214.344C655.427 215.615 657.167 217.396 658.5 219.687C659.833 221.958 660.5 224.667 660.5 227.812C660.5 231.208 659.656 234.24 657.969 236.906C656.302 239.552 653.833 241.646 650.563 243.187C647.292 244.729 643.261 245.5 638.469 245.5H611.125ZM624.656 234.437H635.688C639.458 234.437 642.208 233.719 643.938 232.281C645.667 230.823 646.531 228.885 646.531 226.469C646.531 224.698 646.104 223.135 645.25 221.781C644.396 220.427 643.177 219.365 641.594 218.594C640.031 217.823 638.167 217.437 636 217.437H624.656V234.437ZM624.656 208.281H634.688C636.542 208.281 638.188 207.958 639.625 207.312C641.083 206.646 642.229 205.708 643.063 204.5C643.917 203.292 644.344 201.844 644.344 200.156C644.344 197.844 643.521 195.979 641.875 194.562C640.25 193.146 637.938 192.438 634.938 192.438H624.656V208.281ZM677.274 263.5C675.586 263.5 674.003 263.365 672.524 263.094C671.065 262.844 669.857 262.521 668.899 262.125L671.899 252.188C673.461 252.667 674.867 252.927 676.117 252.969C677.388 253.01 678.482 252.719 679.399 252.094C680.336 251.469 681.096 250.406 681.68 248.906L682.461 246.875L665.242 197.5H679.242L689.18 232.75H689.68L699.711 197.5H713.805L695.149 250.688C694.253 253.271 693.034 255.521 691.492 257.437C689.971 259.375 688.044 260.865 685.711 261.906C683.378 262.969 680.565 263.5 677.274 263.5ZM746.149 197.5V207.5H717.242V197.5H746.149ZM723.805 186H737.117V230.75C737.117 231.979 737.305 232.937 737.68 233.625C738.055 234.292 738.576 234.76 739.242 235.031C739.93 235.302 740.721 235.437 741.617 235.437C742.242 235.437 742.867 235.385 743.492 235.281C744.117 235.156 744.596 235.062 744.93 235L747.024 244.906C746.357 245.115 745.419 245.354 744.211 245.625C743.003 245.917 741.534 246.094 739.805 246.156C736.596 246.281 733.784 245.854 731.367 244.875C728.971 243.896 727.107 242.375 725.774 240.312C724.44 238.25 723.784 235.646 723.805 232.5V186ZM776.18 246.438C771.242 246.438 766.992 245.438 763.43 243.438C759.888 241.417 757.159 238.562 755.242 234.875C753.326 231.167 752.367 226.781 752.367 221.719C752.367 216.781 753.326 212.448 755.242 208.719C757.159 204.99 759.857 202.083 763.336 200C766.836 197.917 770.94 196.875 775.649 196.875C778.815 196.875 781.763 197.385 784.492 198.406C787.242 199.406 789.638 200.917 791.68 202.938C793.742 204.958 795.346 207.5 796.492 210.562C797.638 213.604 798.211 217.167 798.211 221.25V224.906H757.68V216.656H785.68C785.68 214.74 785.263 213.042 784.43 211.563C783.596 210.083 782.44 208.927 780.961 208.094C779.503 207.24 777.805 206.812 775.867 206.812C773.846 206.812 772.055 207.281 770.492 208.219C768.951 209.135 767.742 210.375 766.867 211.937C765.992 213.479 765.544 215.198 765.524 217.094V224.937C765.524 227.312 765.961 229.365 766.836 231.094C767.732 232.823 768.992 234.156 770.617 235.094C772.242 236.031 774.169 236.5 776.399 236.5C777.878 236.5 779.232 236.292 780.461 235.875C781.69 235.458 782.742 234.833 783.617 234C784.492 233.167 785.159 232.146 785.617 230.938L797.93 231.75C797.305 234.708 796.024 237.292 794.086 239.5C792.169 241.687 789.69 243.396 786.649 244.625C783.628 245.833 780.138 246.438 776.18 246.438ZM838.547 245.5H824.047L846.141 181.5H863.578L885.641 245.5H871.141L855.109 196.125H854.609L838.547 245.5ZM837.641 220.344H871.891V230.906H837.641V220.344ZM906.875 181.5V245.5H893.344V181.5H906.875Z" fill="white"/>
</g>
</svg>
