<svg width="1356" height="445" viewBox="0 0 1356 445" fill="none" xmlns="http://www.w3.org/2000/svg">
<rect width="1356" height="445" rx="16" fill="#6B1C01"/>
<mask id="mask0_4348_2701" style="mask-type:luminance" maskUnits="userSpaceOnUse" x="0" y="0" width="1356" height="445">
<path d="M1356 0H0V445H1356V0Z" fill="white"/>
</mask>
<g mask="url(#mask0_4348_2701)">
<g style="mix-blend-mode:luminosity">
<path d="M686.926 234.011C687.491 237.641 689.203 240.665 692.063 243.084C694.961 245.466 698.837 246.657 703.692 246.657C707.493 246.657 710.786 246.071 713.571 244.899C716.393 243.689 718.82 242.101 720.853 240.135L726.836 248.415C723.449 251.817 719.856 254.142 716.055 255.39C712.291 256.637 708.17 257.261 703.692 257.261C699.627 257.261 695.845 256.58 692.346 255.219C688.846 253.859 685.816 251.968 683.257 249.549C680.698 247.092 678.685 244.181 677.217 240.816C675.787 237.451 675.072 233.709 675.072 229.588C675.072 225.581 675.731 221.895 677.047 218.53C678.402 215.128 680.284 212.198 682.693 209.741C685.139 207.246 688.055 205.318 691.442 203.957C694.829 202.558 698.574 201.859 702.676 201.859C706.928 201.859 710.786 202.596 714.248 204.07C717.71 205.507 720.664 207.605 723.111 210.365C725.595 213.124 727.533 216.508 728.925 220.515C730.317 224.485 731.014 228.983 731.014 234.011H686.926ZM717.804 223.691C717.202 220.288 715.452 217.566 712.555 215.525C709.657 213.446 706.364 212.406 702.676 212.406C698.988 212.406 695.676 213.446 692.741 215.525C689.805 217.566 688.036 220.288 687.434 223.691H717.804ZM773.164 255.957H737.826V245.409H749.342V192.559H737.826V181.955H761.027V245.409H773.164V255.957ZM831.657 240.135C831.657 243.576 830.885 246.373 829.343 248.528C827.799 250.683 825.805 252.422 823.359 253.745C820.949 255.068 818.242 255.975 815.229 256.467C812.257 256.996 809.34 257.261 806.482 257.261C801.7 257.261 796.94 256.562 792.199 255.163C787.457 253.764 783.355 251.93 779.894 249.662L784.746 240.022C788.888 242.442 792.669 244.162 796.094 245.182C799.555 246.165 803.017 246.657 806.482 246.657C811.183 246.657 814.608 246.165 816.756 245.182C818.9 244.162 819.971 242.763 819.971 240.986C819.971 240.117 819.669 239.398 819.069 238.831C818.466 238.264 817.469 237.754 816.075 237.3C814.685 236.809 812.842 236.336 810.546 235.883C808.288 235.391 805.463 234.881 802.079 234.351C799.368 233.898 796.789 233.35 794.343 232.707C791.934 232.026 789.808 231.082 787.965 229.872C786.122 228.662 784.636 227.131 783.506 225.278C782.414 223.426 781.869 221.101 781.869 218.303C781.869 215.468 782.583 213.011 784.014 210.932C785.482 208.815 787.38 207.076 789.715 205.715C792.085 204.354 794.74 203.371 797.675 202.766C800.611 202.161 803.546 201.859 806.482 201.859C810.62 201.859 814.629 202.407 818.503 203.503C822.417 204.562 825.842 206.093 828.777 208.096L824.149 217.169C821.214 215.317 818.352 214.07 815.568 213.427C812.82 212.746 809.792 212.406 806.482 212.406C805.088 212.406 803.639 212.482 802.134 212.633C800.629 212.784 799.236 213.087 797.956 213.54C796.676 213.956 795.605 214.542 794.74 215.298C793.909 216.017 793.497 216.905 793.497 217.963C793.497 219.362 794.719 220.515 797.165 221.423C799.651 222.292 803.866 223.161 809.811 224.031C813.048 224.485 816.002 225.071 818.672 225.789C821.346 226.469 823.642 227.415 825.562 228.624C827.479 229.796 828.965 231.327 830.02 233.217C831.112 235.07 831.657 237.376 831.657 240.135ZM839.872 240.759C839.872 237.659 840.703 234.956 842.359 232.65C844.014 230.306 846.177 228.359 848.851 226.81C851.559 225.26 854.645 224.107 858.106 223.351C861.608 222.557 865.165 222.16 868.777 222.16C870.771 222.16 872.482 222.197 873.912 222.273C875.343 222.349 876.792 222.462 878.26 222.613V220.515C878.26 217.755 877.186 215.695 875.042 214.334C872.934 212.973 870.149 212.293 866.688 212.293C863.528 212.293 860.309 212.746 857.035 213.654C853.762 214.523 850.657 215.809 847.722 217.51L842.98 208.323C846.442 206.32 850.146 204.751 854.1 203.617C858.088 202.445 862.285 201.859 866.688 201.859C869.546 201.859 872.352 202.18 875.097 202.823C877.885 203.465 880.368 204.524 882.549 205.998C884.771 207.473 886.54 209.401 887.857 211.782C889.174 214.126 889.832 217.037 889.832 220.515V255.957H878.26V248.188C876.417 251.061 873.688 253.291 870.076 254.879C866.5 256.467 862.642 257.261 858.503 257.261C855.943 257.261 853.515 256.902 851.22 256.183C848.962 255.503 847.005 254.463 845.349 253.065C843.694 251.666 842.359 249.946 841.34 247.904C840.362 245.825 839.872 243.443 839.872 240.759ZM861.494 246.77C863.789 246.77 865.934 246.487 867.931 245.92C869.962 245.315 871.749 244.502 873.291 243.481C874.836 242.423 876.039 241.156 876.906 239.682C877.808 238.208 878.26 236.582 878.26 234.805V232.821C876.417 232.518 874.685 232.348 873.066 232.31C871.448 232.272 870.017 232.253 868.777 232.253C863.057 232.253 858.728 233.009 855.792 234.522C852.894 236.034 851.445 237.905 851.445 240.135C851.445 244.559 854.796 246.77 861.494 246.77Z" fill="white"/>
<mask id="mask1_4348_2701" style="mask-type:luminance" maskUnits="userSpaceOnUse" x="466" y="154" width="180" height="137">
<g style="mix-blend-mode:luminosity">
<path d="M645.778 154.5H466.168V290.5H645.778V154.5Z" fill="white"/>
</g>
</mask>
<g mask="url(#mask1_4348_2701)">
<path d="M645.776 225.685C645.776 237.451 640.92 248.162 633.129 254.201C633.343 253.372 633.524 252.532 633.706 251.671V251.649C633.791 251.23 633.866 250.799 633.94 250.369C634.015 249.927 634.09 249.486 634.154 249.044C634.218 248.603 634.282 248.151 634.335 247.699C634.389 247.333 634.431 246.978 634.463 246.601C634.517 246.149 634.56 245.697 634.592 245.223C634.645 244.663 634.677 244.093 634.709 243.511C634.741 242.855 634.773 242.241 634.794 241.649C634.816 241.068 634.826 240.508 634.826 239.981V239.076C634.848 237.096 634.869 233.985 634.698 230.099C634.677 229.733 634.666 229.356 634.645 228.968C634.624 228.581 634.602 228.193 634.581 227.795C634.538 227.106 634.496 226.396 634.431 225.674C634.41 225.405 634.389 225.136 634.367 224.856C634.314 224.232 634.26 223.586 634.196 222.929C634.058 221.508 633.898 220.045 633.695 218.548C633.567 217.612 633.428 216.664 633.279 215.696C633.055 214.221 632.788 212.725 632.478 211.196C632.372 210.69 632.265 210.173 632.158 209.657C632.041 209.108 631.923 208.548 631.795 207.999C631.688 207.568 631.582 207.127 631.475 206.686C631.347 206.115 631.197 205.544 631.037 204.974C630.899 204.447 630.76 203.919 630.611 203.392C630.429 202.713 630.226 202.025 630.002 201.336C629.896 200.959 629.778 200.582 629.65 200.205C629.479 199.667 629.308 199.139 629.127 198.601C628.946 198.074 628.753 197.536 628.561 196.997C628.199 195.964 627.804 194.931 627.377 193.897C627.366 193.865 627.355 193.833 627.334 193.8C638.199 198.182 645.776 210.981 645.776 225.685Z" fill="#D80012"/>
<path d="M485.998 193.296C485.731 193.877 485.464 194.459 485.208 195.04C484.685 196.203 484.194 197.365 483.757 198.528C483.554 199.034 483.362 199.54 483.17 200.046C483.106 200.196 483.052 200.358 482.999 200.508C482.817 201.004 482.636 201.509 482.465 202.005C482.262 202.586 482.07 203.167 481.878 203.749C481.302 205.482 480.79 207.193 480.341 208.894C480.181 209.454 480.032 210.024 479.893 210.584C479.754 211.144 479.616 211.704 479.487 212.253C479.349 212.812 479.221 213.361 479.103 213.911C478.932 214.642 478.783 215.374 478.644 216.095C478.602 216.257 478.57 216.418 478.548 216.58C478.399 217.301 478.271 218.023 478.143 218.733C477.961 219.777 477.791 220.811 477.641 221.812C477.107 225.332 476.777 228.583 476.574 231.446C476.51 232.178 476.467 232.889 476.435 233.578C476.424 233.653 476.424 233.728 476.424 233.803C476.403 234.116 476.392 234.417 476.382 234.708C476.36 235.192 476.339 235.655 476.328 236.096C476.307 236.818 476.286 237.496 476.286 238.12C476.264 238.766 476.264 239.358 476.264 239.896C476.264 240.434 476.264 241.005 476.296 241.608C476.307 241.899 476.318 242.211 476.328 242.523C476.328 242.846 476.36 243.169 476.371 243.513C476.414 244.321 476.478 245.117 476.552 245.903C476.574 246.14 476.595 246.377 476.627 246.613C476.67 247.076 476.723 247.528 476.787 247.97C476.915 248.993 477.065 250.004 477.257 250.984C477.332 251.382 477.406 251.77 477.492 252.157C477.566 252.545 477.652 252.932 477.748 253.309C470.597 247.119 466.168 236.774 466.168 225.687C466.168 210.358 474.493 197.096 485.998 193.296Z" fill="#D80012"/>
<path d="M631.617 239.045V239.971C631.607 240.983 631.575 242.07 631.5 243.33C631.446 244.32 631.372 245.299 631.276 246.247C630.977 249.099 630.486 251.758 629.782 254.309C629.739 254.449 629.696 254.6 629.654 254.74C629.6 254.977 629.526 255.214 629.44 255.44C629.334 255.795 629.205 256.161 629.077 256.505C629.045 256.591 629.024 256.667 628.992 256.742C628.906 256.957 628.832 257.173 628.746 257.377C627.38 260.854 625.321 264.127 622.578 267.152C602.694 291.124 556.098 290.522 555.638 290.489H555.468C555.009 290.522 508.391 291.114 488.465 267.098C485.637 263.976 483.502 260.51 482.125 256.796C481.816 255.978 481.549 255.149 481.314 254.309C480.727 252.189 480.29 249.993 479.98 247.668C479.799 246.279 479.671 244.836 479.585 243.34C479.521 242.027 479.489 240.94 479.489 239.885C479.468 234.75 479.863 224.502 482.638 212.844C482.915 211.714 483.203 210.562 483.523 209.399C484.324 206.482 485.274 203.522 486.405 200.551C486.864 199.356 487.344 198.161 487.856 196.977C488.379 195.782 488.924 194.609 489.489 193.425C489.788 192.833 490.076 192.251 490.386 191.66C503.225 166.998 525.873 154.5 557.698 154.5C589.524 154.5 611.542 167.084 622.994 191.896C625.011 196.245 626.548 200.702 627.743 205.061C631.778 219.906 631.66 233.695 631.617 239.045Z" fill="#D80012"/>
<path d="M479.978 247.667C480.277 249.992 480.714 252.188 481.301 254.309H481.312C480.725 252.188 480.287 249.992 479.978 247.667ZM479.903 229.97C479.924 229.755 479.946 229.55 479.967 229.324C479.988 229.044 480.02 228.754 480.042 228.473C479.988 228.99 479.946 229.485 479.903 229.97ZM479.508 237.311C479.54 235.772 479.615 233.964 479.754 231.95C479.593 234.104 479.529 236.02 479.497 237.634V237.903C479.476 238.625 479.476 239.292 479.476 239.884C479.476 240.939 479.508 242.026 479.583 243.34C479.519 242.026 479.487 240.939 479.487 239.884C479.487 239.4 479.487 238.883 479.497 238.312C479.497 237.989 479.508 237.656 479.508 237.311ZM479.497 237.634V238.312C479.497 237.989 479.508 237.656 479.508 237.311C479.508 237.419 479.508 237.526 479.497 237.634Z" fill="white"/>
<path d="M521.661 218.819C515.897 219.39 509.611 219.325 502.759 218.754H502.716C500.443 218.442 498.319 219.96 497.839 222.231C496.078 230.617 494.296 239.024 494.317 247.13C494.317 248.045 494.349 248.949 494.403 249.854C494.573 252.803 495 255.709 495.811 258.551C496.964 262.567 499.045 265.99 501.777 268.907C517.754 287.583 554.084 287.4 555.909 287.304C557.734 287.4 594.064 287.583 610.041 268.907C612.762 265.99 614.854 262.567 616.007 258.551C616.818 255.709 617.245 252.792 617.416 249.843C617.469 248.96 617.501 248.077 617.501 247.195C617.533 239.078 615.751 230.649 613.979 222.242C613.499 219.982 611.385 218.464 609.101 218.765H609.059C602.207 219.336 595.921 219.4 590.158 218.83C584.277 217.958 577.052 214.212 570.744 210.24C561.64 204.524 550.157 204.524 541.053 210.24C534.745 214.201 527.52 217.947 521.639 218.819H521.661Z" fill="white"/>
<path d="M521.784 251.232C526.437 251.232 530.215 247.432 530.215 242.728C530.215 238.023 526.437 234.224 521.784 234.224C517.13 234.224 513.353 238.023 513.353 242.728C513.353 247.432 517.13 251.232 521.784 251.232Z" fill="#D80012"/>
<path d="M589.617 251.232C594.271 251.232 598.049 247.432 598.049 242.728C598.049 238.023 594.271 234.224 589.617 234.224C584.964 234.224 581.186 238.023 581.186 242.728C581.186 247.432 584.964 251.232 589.617 251.232Z" fill="#D80012"/>
<path d="M544.515 260.306L566.447 260.252C566.447 260.252 568.048 274.397 554.686 274.031C542.818 273.697 544.526 260.306 544.526 260.306H544.515Z" fill="#D80012"/>
<path d="M555.157 199.544C563.558 199.544 570.369 192.703 570.369 184.264C570.369 175.824 563.558 168.983 555.157 168.983C546.756 168.983 539.945 175.824 539.945 184.264C539.945 192.703 546.756 199.544 555.157 199.544Z" fill="white"/>
<path d="M555.158 194.961C561.038 194.961 565.806 190.172 565.806 184.264C565.806 178.357 561.038 173.568 555.158 173.568C549.277 173.568 544.509 178.357 544.509 184.264C544.509 190.172 549.277 194.961 555.158 194.961Z" fill="#D80012"/>
<path d="M555.156 190.374C558.516 190.374 561.24 187.638 561.24 184.262C561.24 180.886 558.516 178.15 555.156 178.15C551.795 178.15 549.071 180.886 549.071 184.262C549.071 187.638 551.795 190.374 555.156 190.374Z" fill="white"/>
</g>
</g>
</g>
</svg>
