<svg width="1356" height="445" viewBox="0 0 1356 445" fill="none" xmlns="http://www.w3.org/2000/svg">
<rect width="1356" height="445" rx="16" fill="#422282"/>
<mask id="mask0_4348_2791" style="mask-type:luminance" maskUnits="userSpaceOnUse" x="0" y="0" width="1356" height="445">
<path d="M1356 0H0V445H1356V0Z" fill="white"/>
</mask>
<g mask="url(#mask0_4348_2791)">
<mask id="mask1_4348_2791" style="mask-type:luminance" maskUnits="userSpaceOnUse" x="432" y="172" width="492" height="101">
<path d="M924 172.5H432V272.5H924V172.5Z" fill="white"/>
</mask>
<g mask="url(#mask1_4348_2791)">
<mask id="mask2_4348_2791" style="mask-type:luminance" maskUnits="userSpaceOnUse" x="432" y="172" width="492" height="101">
<path d="M924 172.5H432V272.5H924V172.5Z" fill="white"/>
</mask>
<g mask="url(#mask2_4348_2791)">
<path d="M444.077 237.812V265.791C444.077 267.514 445.524 268.228 445.974 268.391C446.424 268.586 447.935 269.008 449.285 267.741L470.29 247.4C472.078 245.668 473.805 243.848 475.102 241.717C475.713 240.716 475.966 240.152 475.966 240.152C477.252 237.52 477.252 234.985 475.998 232.45C474.134 228.681 469.376 224.846 462.207 221.207L449.96 228.096C446.327 230.176 444.077 233.848 444.077 237.812Z" fill="white" fill-opacity="0.8"/>
<path d="M432 175.582V204.926C432 208.598 434.443 211.848 437.915 212.888C449.745 216.332 470.35 223.741 475.333 234.627C475.975 236.057 476.361 237.455 476.491 238.917C479.801 232.84 481.312 225.854 480.605 218.769C479.64 208.728 474.368 199.597 466.139 193.78L436.79 173.08C436.275 172.69 435.665 172.495 435.054 172.495C434.54 172.495 434.089 172.593 433.607 172.853C432.643 173.405 432 174.413 432 175.582Z" fill="white"/>
<path d="M522.202 237.812V265.791C522.202 267.514 520.756 268.228 520.306 268.391C519.856 268.586 518.344 269.008 516.995 267.741L495.501 246.927C494.038 245.51 492.64 244.012 491.538 242.294C490.665 240.935 490.314 240.152 490.314 240.152C489.028 237.52 489.028 234.985 490.281 232.45C492.146 228.681 496.904 224.846 504.071 221.207L516.319 228.096C519.984 230.176 522.202 233.848 522.202 237.812Z" fill="white" fill-opacity="0.8"/>
<path d="M534.3 175.58V204.924C534.3 208.596 531.856 211.846 528.384 212.886C516.555 216.33 495.949 223.739 490.967 234.625C490.323 236.055 489.937 237.453 489.809 238.915C486.498 232.838 484.987 225.852 485.695 218.767C486.658 208.726 491.93 199.595 500.16 193.778L529.51 173.078C530.024 172.688 530.635 172.493 531.245 172.493C531.759 172.493 532.21 172.591 532.691 172.851C533.656 173.403 534.3 174.41 534.3 175.58Z" fill="white"/>
<path d="M584.091 181.921H595.327L621.367 242.612H622.138L648.178 181.921H659.22V251.893H651.022V196.207H650.251L626.382 251.893H616.93L593.06 196.207H592.288V251.893H584.091V181.921Z" fill="white"/>
<path d="M668.275 227.16C668.275 210.445 678.354 201.212 693.302 201.212C708.202 201.212 718.329 210.445 718.329 227.16C718.329 243.827 708.202 253.059 693.302 253.059C678.354 253.059 668.275 243.827 668.275 227.16ZM676.858 227.16C676.858 239.405 683.465 246.062 693.302 246.062C703.091 246.062 709.698 239.405 709.698 227.16C709.698 214.866 703.091 208.258 693.302 208.258C683.465 208.258 676.858 214.866 676.858 227.16Z" fill="white"/>
<path d="M726.434 202.378H734.632V208.307H735.403C737.092 204.808 740.178 202.184 747.555 202.184H754.403V209.57H747.748C738.538 209.57 734.921 214.672 734.921 224.731V251.893H726.434V202.378Z" fill="white"/>
<path d="M760.931 271.33V202.379H769.226V209.23H769.997C773.662 203.496 779.641 201.261 786.585 201.261C799.363 201.261 809.153 210.007 809.153 227.16C809.153 244.264 799.363 253.011 786.585 253.011C779.785 253.011 773.855 250.824 770.19 245.333H769.418V271.33H760.931ZM769.129 227.16C769.129 239.162 775.494 245.916 784.849 245.916C794.252 245.916 800.618 239.162 800.618 227.16C800.618 215.11 794.252 208.355 784.849 208.355C775.494 208.355 769.129 215.11 769.129 227.16Z" fill="white"/>
<path d="M817.279 181.921H825.766V208.501H826.538C830.057 203.253 835.893 201.261 842.788 201.261C854.217 201.261 861.45 207.092 861.45 219.191V251.893H852.963V220.017C852.963 211.951 848.574 208.404 840.908 208.404C832.517 208.404 825.766 213.409 825.766 224.245V251.893H817.279V181.921Z" fill="white"/>
<path d="M869.085 227.16C869.085 210.445 879.162 201.212 894.111 201.212C909.012 201.212 919.139 210.445 919.139 227.16C919.139 243.827 909.012 253.059 894.111 253.059C879.162 253.059 869.085 243.827 869.085 227.16ZM877.668 227.16C877.668 239.405 884.274 246.062 894.111 246.062C903.901 246.062 910.506 239.405 910.506 227.16C910.506 214.866 903.901 208.258 894.111 208.258C884.274 208.258 877.668 214.866 877.668 227.16Z" fill="white"/>
</g>
</g>
</g>
</svg>
