<svg xmlns="http://www.w3.org/2000/svg" xmlns:xlink="http://www.w3.org/1999/xlink" viewBox="0 0 220 264"><path d="M60 72v75a50 50 0 0 0 50 50 50 50 0 0 0 50-50V72Z" fill="#ff6b00"/><path d="M121.31 77c5.41 0 5.89 6.67 11.31 6.67 5.41 0 7.25-7.44 13.66-7.44 3.3 0 5.37 1.88 5.37 4.89 0 4.37-3.31 4.37-3.31 8.72 0 5.41 6.67 5.89 6.67 11.31s-6.67 5.89-6.67 11.31 6.67 5.89 6.67 11.31-6.67 5.89-6.67 11.31 6.67 5.89 6.67 11.31c.01 5.62-10.08 5.29-7.18 11.49 1.31 2.55 4.44 5.16 2.86 8.28-1.99 4.4-7.88 1.23-10.56 4.52-2.52 3.45 1.84 8.31-1.88 11.36-3.81 2.97-7.67-2.27-11.5-.58-2.82 1.46-2.42 5.31-4.07 7.65-1.04 1.68-3.97 2.47-5.63 1.25-2.54-1.33-3.93-5.18-7.02-5.01-3.09-.17-4.48 3.68-7.02 5.01-1.67 1.21-4.59.44-5.63-1.25-1.39-2.01-1.32-4.91-2.94-6.78-1.8-2.03-4.4-1.15-6.7-.16-2.81 1.51-6.98.84-7.45-2.86-.52-2.9 1.58-6.02-.37-8.64-2.02-2.48-5.65-1.26-8.34-2.37a4.299 4.299 0 0 1-2.44-5.23c.78-2.78 4.13-4.77 3.44-7.91-1.06-4.25-7.45-3.71-7.55-8.76 0-5.41 6.67-5.89 6.67-11.31s-6.7-5.92-6.7-11.33 6.67-5.9 6.67-11.31-6.67-5.89-6.67-11.3 6.67-5.89 6.67-11.31c0-4.35-3.31-4.36-3.31-8.72 0-3 2.07-4.89 5.37-4.89 6.41 0 8.25 7.44 13.66 7.44S93.28 77 98.69 77s5.89 6.67 11.31 6.67S115.89 77 121.31 77zM110 72H60v75c0 27.61 22.38 50 49.99 50h.01c27.61 0 50-22.38 50-49.99V72h-50z" fill="#d3d3d3"/><defs><linearGradient id="h44-a" x1="0" x2="0" y1="0" y2="1"><stop offset="0" stop-color="gray"/><stop offset="1" stop-color="#fff"/></linearGradient><linearGradient id="h44-c" x1="0" x2="0" xlink:href="#h44-a" y1="1" y2="0"/><linearGradient id="h44-b" x1="0" x2="0" y1="0" y2="1"><stop offset="0" stop-color="#fff"/><stop offset="1" stop-color="gray"/></linearGradient><linearGradient id="h44-g" x1="0" x2="0" xlink:href="#h44-b" y1="1" y2="0"/><linearGradient id="h44-f" x1="0" x2="0" xlink:href="#h44-b" y1=".2" y2=".8"/><linearGradient id="h44-i" x1="0" x2="0" y1="1" y2="0"><stop offset="0" stop-color="#4b4b4b"/><stop offset="1" stop-color="#fff"/></linearGradient><symbol id="h44-h" viewBox="0 0 5.61 5.74"><path d="M3.06.92 3.7 0l1.91 4.97-.7.77L3.06.92z" fill="url(#h44-a)"/><path d="M2.54.92 1.91 0 0 4.97l.7.77L2.54.92z" fill="url(#h44-c)"/></symbol><symbol id="h44-d" viewBox="0 0 6.48 5.63"><path d="m5.95 0 .53.99-2.4 4.64-.58-.91L5.95 0z" fill="url(#h44-a)"/><path d="M.53 0 0 .99l2.4 4.64.57-.91L.53 0z" fill="url(#h44-c)"/></symbol><symbol id="h44-j" viewBox="0 0 34.29 26.68"><use height="5.63" transform="translate(27.82)" width="6.48" xlink:href="#h44-d"/><use height="5.63" transform="rotate(-15 17.15 -74.22)" width="6.48" xlink:href="#h44-d"/><use height="5.63" transform="rotate(-30 17.15 -20.48)" width="6.48" xlink:href="#h44-d"/><use height="5.63" transform="rotate(-45 17.15 -2.15)" width="6.48" xlink:href="#h44-d"/><use height="5.63" transform="rotate(-60 17.15 7.34)" width="6.48" xlink:href="#h44-d"/><use height="5.63" transform="rotate(-75 17.15 13.3)" width="6.48" xlink:href="#h44-d"/></symbol><filter id="h44-e"><feDropShadow dx="0" dy="2" stdDeviation="0"/></filter></defs><g filter="url(#h44-e)"><path d="m112.45 91.5-1.88-4.9h-1.14l-1.88 4.9-.67.18-4.07-3.3-1 .58.83 5.17-.5.5-5.17-.83-.58 1 3.3 4.07-.17.67-4.9 1.88v1.15l4.9 1.87.18.67-3.3 4.07.57 1 5.18-.82.5.49-.83 5.17 1 .58 4.06-3.3.68.17 1.87 4.9h1.15l1.88-4.9.67-.18 4.07 3.3 1-.57-.83-5.18.49-.49 5.18.82.57-1-3.3-4.06.18-.67 4.9-1.88v-1.15l-4.9-1.88-.18-.67 3.3-4.07-.58-1-5.17.83-.5-.49.83-5.18-1-.57-4.07 3.3Zm2.19 10.49a4.64 4.64 0 1 1-4.64-4.64 4.64 4.64 0 0 1 4.64 4.64Z" fill="url(#h44-f)" stroke="url(#h44-g)" stroke-width=".9"/><use height="5.74" transform="translate(107.2 86.15)" width="5.61" xlink:href="#h44-h"/><use height="5.74" transform="rotate(-30 217.15 -141.12)" width="5.61" xlink:href="#h44-h"/><use height="5.74" transform="rotate(-60 131 -33.92)" width="5.61" xlink:href="#h44-h"/><use height="5.74" transform="rotate(-90 99.48 5.32)" width="5.61" xlink:href="#h44-h"/><use height="5.74" transform="rotate(-120 81.27 27.97)" width="5.61" xlink:href="#h44-h"/><use height="5.74" transform="rotate(-150 67.94 44.55)" width="5.61" xlink:href="#h44-h"/><use height="5.74" transform="rotate(180 56.4 58.92)" width="5.61" xlink:href="#h44-h"/><use height="5.74" transform="rotate(150 44.86 73.28)" width="5.61" xlink:href="#h44-h"/><use height="5.74" transform="rotate(120 31.54 89.86)" width="5.61" xlink:href="#h44-h"/><use height="5.74" transform="rotate(90 13.33 112.52)" width="5.61" xlink:href="#h44-h"/><use height="5.74" transform="rotate(60 -18.2 151.76)" width="5.61" xlink:href="#h44-h"/><use height="5.74" transform="rotate(30 -104.35 258.95)" width="5.61" xlink:href="#h44-h"/><path d="m140.64 152.83.29-2.16-4.68-2.42v-1.11l4.67-2.42-.27-2.15-5.15-1.13-.29-1.08 3.9-3.54-.84-2.01-5.25.24-.57-.96 2.84-4.43-1.31-1.73-5.02 1.6-.8-.79 1.6-5.01-1.72-1.33-4.43 2.84-.97-.55.25-5.26-2-.84-3.56 3.9-1.07-.3-1.13-5.13-2.15-.3-2.42 4.68h-1.12l-2.41-4.67-2.16.28-1.13 5.14-1.07.3-3.55-3.9-2 .83.24 5.26-.97.57-4.43-2.84-1.72 1.31 1.6 5.02-.8.8-5-1.6-1.34 1.72 2.84 4.43-.55.97-5.26-.25-.83 2 3.89 3.56-.29 1.07-5.14 1.13-.29 2.15 4.68 2.42v1.11l-4.67 2.42.28 2.16 5.14 1.12.3 1.08-3.9 3.54.83 2.01 5.26-.24.56.96-2.84 4.43 1.32 1.73 5.02-1.6.79.8-1.6 5 1.72 1.33 4.43-2.84.97.56-.24 5.25 2 .84 3.55-3.89 1.08.28 1.12 5.15 2.16.28 2.42-4.67h1.11l2.42 4.67 2.15-.28 1.13-5.14 1.07-.3 3.55 3.9 2-.83-.23-5.26.96-.56 4.43 2.84 1.73-1.32-1.6-5.02.79-.79 5.01 1.6 1.33-1.72-2.84-4.44.55-.96 5.26.24.84-2-3.9-3.55.29-1.08Zm-22.07 3.43h-17.14v-17.13h17.14Z" fill="url(#h44-f)" stroke="url(#h44-g)" stroke-width=".9"/><path d="M108.56 135.14a12.89 12.89 0 1 0 14.25 11.36 12.89 12.89 0 0 0-14.25-11.36Zm2.26 20.01a7.25 7.25 0 1 1 6.39-8.02 7.25 7.25 0 0 1-6.4 8.02Z" fill="url(#h44-i)"/><use height="26.68" transform="translate(78.95 116.27)" width="34.29" xlink:href="#h44-j"/><use height="26.68" transform="rotate(-90 128.66 50.09)" width="34.29" xlink:href="#h44-j"/><use height="26.68" transform="rotate(180 70.53 89.56)" width="34.29" xlink:href="#h44-j"/><use height="26.68" transform="rotate(90 12.4 129.03)" width="34.29" xlink:href="#h44-j"/><circle cx="110" cy="147.94" fill="none" r="7.25" stroke="url(#h44-a)"/><circle cx="110" cy="101.99" fill="none" r="4.64" stroke="url(#h44-g)"/></g></svg>