{
	"asset":{
		"version":"2.0",
		"generator":"Maxon Cinema 4D 2024.4.0 (#200000219)"
	},
	"scenes":[{
		"nodes":[0]
	}],
	"nodes":[{
		"name":"SpikeyShape",
		"mesh":0
	}],
	"meshes":[{
		"name":"SpikeyShape",
		"primitives":[{
			"attributes":{
				"POSITION":1,
				"NORMAL":2,
				"TEXCOORD_0":3
			},
			"indices":0
		}]
	}],
	"accessors":[{
		"bufferView":0,
		"type":"SCALAR",
		"componentType":5123,
		"count":5460,
		"byteOffset":0,
		"min":[0],
		"max":[5459]
	},
	{
		"bufferView":1,
		"type":"VEC3",
		"componentType":5126,
		"count":5460,
		"byteOffset":0,
		"min":[-2.9086997509002687,
		-2.9060683250427248,
		-0.44999998807907107],
		"max":[2.9086997509002687,
		2.9060683250427248,
		0.44999998807907107]
	},
	{
		"bufferView":1,
		"type":"VEC3",
		"componentType":5126,
		"count":5460,
		"byteOffset":12,
		"min":[-0.9987599849700928,
		-0.9989252090454102,
		-1.0],
		"max":[0.9999449849128723,
		0.9999281764030457,
		1.0]
	},
	{
		"bufferView":1,
		"type":"VEC2",
		"componentType":5126,
		"count":5460,
		"byteOffset":24,
		"min":[-1.5211155668382049e-9,
		-7.096266272759973e-16],
		"max":[1.0,
		0.9990952014923096]
	}],
	"buffers":[{
		"uri":"data:application/octet-stream;base64,",
		"byteLength":185640
	}],
	"bufferViews":[{
		"buffer":0,
		"byteOffset":0,
		"byteLength":10920,
		"target":34963
	},
	{
		"buffer":0,
		"byteOffset":10920,
		"byteLength":174720,
		"target":34962,
		"byteStride":32
	}]
}