{
	"asset":{
		"version":"2.0",
		"generator":"Maxon Cinema 4D 2024.4.0 (#200000219)"
	},
	"scenes":[{
		"nodes":[0]
	}],
	"nodes":[{
		"name":"L2_Button_remesh",
		"mesh":0,
		"translation":[0.0008803429664112628,
		0.8341561555862427,
		-0.00011981511488556862],
		"rotation":[-1.040834995484758e-17,
		0.0,
		0.0,
		-1.0],
		"scale":[0.75,
		0.75,
		0.75]
	}],
	"meshes":[{
		"name":"L2_Button_remesh",
		"primitives":[{
			"attributes":{
				"POSITION":1,
				"NORMAL":2,
				"TEXCOORD_0":3
			},
			"indices":0
		}]
	}],
	"accessors":[{
		"bufferView":0,
		"type":"SCALAR",
		"componentType":5123,
		"count":31242,
		"byteOffset":0,
		"min":[0],
		"max":[31241]
	},
	{
		"bufferView":1,
		"type":"VEC3",
		"componentType":5126,
		"count":31242,
		"byteOffset":0,
		"min":[-2.196190595626831,
		-1.098021388053894,
		-2.8384017944335939],
		"max":[2.196190595626831,
		1.098021388053894,
		2.8384017944335939]
	},
	{
		"bufferView":1,
		"type":"VEC3",
		"componentType":5126,
		"count":31242,
		"byteOffset":12,
		"min":[-1.0,
		-1.0,
		-0.9999886751174927],
		"max":[0.9999960660934448,
		1.0,
		0.999958336353302]
	},
	{
		"bufferView":1,
		"type":"VEC2",
		"componentType":5126,
		"count":31242,
		"byteOffset":24,
		"min":[0.024783149361610414,
		0.0017835060134530068],
		"max":[0.9765106439590454,
		1.0]
	}],
	"buffers":[{
		"uri":"data:application/octet-stream;base64,",
		"byteLength":1062228
	}],
	"bufferViews":[{
		"buffer":0,
		"byteOffset":0,
		"byteLength":62484,
		"target":34963
	},
	{
		"buffer":0,
		"byteOffset":62484,
		"byteLength":999744,
		"target":34962,
		"byteStride":32
	}]
}