{
	"asset":{
		"version":"2.0",
		"generator":"Maxon Cinema 4D 2024.4.0 (#200000219)"
	},
	"scenes":[{
		"nodes":[0]
	}],
	"nodes":[{
		"name":"Cloth_Avatars.1_remesh",
		"mesh":0
	}],
	"meshes":[{
		"name":"Cloth_Avatars.1_remesh",
		"primitives":[{
			"attributes":{
				"POSITION":1,
				"NORMAL":2,
				"TEXCOORD_0":3
			},
			"indices":0
		}]
	}],
	"accessors":[{
		"bufferView":0,
		"type":"SCALAR",
		"componentType":5123,
		"count":4752,
		"byteOffset":0,
		"min":[0],
		"max":[4751]
	},
	{
		"bufferView":1,
		"type":"VEC3",
		"componentType":5126,
		"count":4752,
		"byteOffset":0,
		"min":[-2.436285972595215,
		-2.5274534225463869,
		-2.311553716659546],
		"max":[2.436285972595215,
		2.5274534225463869,
		2.311553716659546]
	},
	{
		"bufferView":1,
		"type":"VEC3",
		"componentType":5126,
		"count":4752,
		"byteOffset":12,
		"min":[-0.998262882232666,
		-0.9998831152915955,
		-0.9985700249671936],
		"max":[0.9996924996376038,
		0.9957702159881592,
		0.9877523183822632]
	},
	{
		"bufferView":1,
		"type":"VEC2",
		"componentType":5126,
		"count":4752,
		"byteOffset":24,
		"min":[0.0058852266520261768,
		0.07320056855678559],
		"max":[0.9832685589790344,
		0.9912177324295044]
	}],
	"buffers":[{
		"uri":"data:application/octet-stream;base64,",
		"byteLength":161568
	}],
	"bufferViews":[{
		"buffer":0,
		"byteOffset":0,
		"byteLength":9504,
		"target":34963
	},
	{
		"buffer":0,
		"byteOffset":9504,
		"byteLength":152064,
		"target":34962,
		"byteStride":32
	}]
}