{
	"asset":{
		"version":"2.0",
		"generator":"Maxon Cinema 4D 2024.4.0 (#200000219)"
	},
	"scenes":[{
		"nodes":[0]
	}],
	"nodes":[{
		"name":"Play",
		"mesh":0,
		"translation":[0.0,
		0.0,
		0.14553110301494599],
		"rotation":[0.0,
		0.0,
		0.0,
		-1.0],
		"scale":[1.0,
		1.0,
		1.0]
	}],
	"meshes":[{
		"name":"Play",
		"primitives":[{
			"attributes":{
				"POSITION":1,
				"NORMAL":2,
				"TEXCOORD_0":3
			},
			"indices":0
		}]
	}],
	"accessors":[{
		"bufferView":0,
		"type":"SCALAR",
		"componentType":5123,
		"count":8052,
		"byteOffset":0,
		"min":[0],
		"max":[8051]
	},
	{
		"bufferView":1,
		"type":"VEC3",
		"componentType":5126,
		"count":8052,
		"byteOffset":0,
		"min":[-1.7974531650543213,
		-1.7948486804962159,
		-1.045904278755188],
		"max":[1.7938263416290284,
		1.795841097831726,
		0.40597429871559145]
	},
	{
		"bufferView":1,
		"type":"VEC3",
		"componentType":5126,
		"count":8052,
		"byteOffset":12,
		"min":[-1.0,
		-0.9978664517402649,
		-1.0],
		"max":[0.9973134994506836,
		0.998375654220581,
		1.0]
	},
	{
		"bufferView":1,
		"type":"VEC2",
		"componentType":5126,
		"count":8052,
		"byteOffset":24,
		"min":[0.00037114147562533617,
		-0.037795379757881168],
		"max":[0.9917769432067871,
		0.9996711015701294]
	}],
	"buffers":[{
		"uri":"data:application/octet-stream;base64,",
		"byteLength":273768
	}],
	"bufferViews":[{
		"buffer":0,
		"byteOffset":0,
		"byteLength":16104,
		"target":34963
	},
	{
		"buffer":0,
		"byteOffset":16104,
		"byteLength":257664,
		"target":34962,
		"byteStride":32
	}]
}