{
	"asset":{
		"version":"2.0",
		"generator":"Maxon Cinema 4D 2024.4.0 (#200000219)"
	},
	"scenes":[{
		"nodes":[0]
	}],
	"nodes":[{
		"name":"ETH",
		"mesh":0
	}],
	"meshes":[{
		"name":"ETH",
		"primitives":[{
			"attributes":{
				"POSITION":1,
				"NORMAL":2
			},
			"indices":0
		}]
	}],
	"accessors":[{
		"bufferView":0,
		"type":"SCALAR",
		"componentType":5123,
		"count":12324,
		"byteOffset":0,
		"min":[0],
		"max":[12323]
	},
	{
		"bufferView":1,
		"type":"VEC3",
		"componentType":5126,
		"count":12324,
		"byteOffset":0,
		"min":[-1.861374855041504,
		-3.4884049892425539,
		-1.1074143648147584],
		"max":[1.861374855041504,
		3.466820240020752,
		1.1074143648147584]
	},
	{
		"bufferView":1,
		"type":"VEC3",
		"componentType":5126,
		"count":12324,
		"byteOffset":12,
		"min":[-0.9957720637321472,
		-0.9944707751274109,
		-0.9987083673477173],
		"max":[0.9957720637321472,
		0.9986022114753723,
		0.9987083673477173]
	}],
	"buffers":[{
		"uri":"data:application/octet-stream;base64,",
		"byteLength":320424
	}],
	"bufferViews":[{
		"buffer":0,
		"byteOffset":0,
		"byteLength":24648,
		"target":34963
	},
	{
		"buffer":0,
		"byteOffset":24648,
		"byteLength":295776,
		"target":34962,
		"byteStride":24
	}]
}