{
	"asset":{
		"version":"2.0",
		"generator":"Maxon Cinema 4D 2024.4.0 (#200000219)"
	},
	"scenes":[{
		"nodes":[0]
	}],
	"nodes":[{
		"name":"Cursor_remesh",
		"mesh":0
	}],
	"meshes":[{
		"name":"Cursor_remesh",
		"primitives":[{
			"attributes":{
				"POSITION":1,
				"NORMAL":2
			},
			"indices":0
		}]
	}],
	"accessors":[{
		"bufferView":0,
		"type":"SCALAR",
		"componentType":5123,
		"count":34032,
		"byteOffset":0,
		"min":[0],
		"max":[34031]
	},
	{
		"bufferView":1,
		"type":"VEC3",
		"componentType":5126,
		"count":34032,
		"byteOffset":0,
		"min":[-2.232680320739746,
		-1.7076706886291505,
		-2.0324764251708986],
		"max":[3.202329397201538,
		1.9994999170303345,
		1.2233284711837769]
	},
	{
		"bufferView":1,
		"type":"VEC3",
		"componentType":5126,
		"count":34032,
		"byteOffset":12,
		"min":[-0.6926050782203674,
		-0.7312033772468567,
		-0.7827966213226318],
		"max":[0.724365770816803,
		0.71280837059021,
		0.7827966213226318]
	}],
	"buffers":[{
		"uri":"data:application/octet-stream;base64,",
		"byteLength":884832
	}],
	"bufferViews":[{
		"buffer":0,
		"byteOffset":0,
		"byteLength":68064,
		"target":34963
	},
	{
		"buffer":0,
		"byteOffset":68064,
		"byteLength":816768,
		"target":34962,
		"byteStride":24
	}]
}