{
	"asset":{
		"version":"2.0",
		"generator":"Maxon Cinema 4D 2024.4.0 (#200000219)"
	},
	"scenes":[{
		"nodes":[0]
	}],
	"nodes":[{
		"name":"Cloth_Avatars_remesh",
		"mesh":0
	}],
	"meshes":[{
		"name":"Cloth_Avatars_remesh",
		"primitives":[{
			"attributes":{
				"POSITION":1,
				"NORMAL":2,
				"TEXCOORD_0":3
			},
			"indices":0
		}]
	}],
	"accessors":[{
		"bufferView":0,
		"type":"SCALAR",
		"componentType":5123,
		"count":5340,
		"byteOffset":0,
		"min":[0],
		"max":[5339]
	},
	{
		"bufferView":1,
		"type":"VEC3",
		"componentType":5126,
		"count":5340,
		"byteOffset":0,
		"min":[-2.503236770629883,
		-2.8221518993377687,
		-2.123612403869629],
		"max":[2.503236770629883,
		2.8221518993377687,
		2.123612403869629]
	},
	{
		"bufferView":1,
		"type":"VEC3",
		"componentType":5126,
		"count":5340,
		"byteOffset":12,
		"min":[-0.9962487816810608,
		-0.9992585778236389,
		-0.9985554814338684],
		"max":[0.9996852278709412,
		0.9959437251091003,
		0.997148334980011]
	},
	{
		"bufferView":1,
		"type":"VEC2",
		"componentType":5126,
		"count":5340,
		"byteOffset":24,
		"min":[0.010214686393737793,
		0.015054961666464806],
		"max":[0.9943826198577881,
		0.9914509057998657]
	}],
	"buffers":[{
		"uri":"data:application/octet-stream;base64,",
		"byteLength":181560
	}],
	"bufferViews":[{
		"buffer":0,
		"byteOffset":0,
		"byteLength":10680,
		"target":34963
	},
	{
		"buffer":0,
		"byteOffset":10680,
		"byteLength":170880,
		"target":34962,
		"byteStride":32
	}]
}