{
	"asset":{
		"version":"2.0",
		"generator":"Maxon Cinema 4D 2024.4.0 (#200000219)"
	},
	"scenes":[{
		"nodes":[0]
	}],
	"nodes":[{
		"name":"Rock",
		"mesh":0
	}],
	"meshes":[{
		"name":"Rock",
		"primitives":[{
			"attributes":{
				"POSITION":1,
				"NORMAL":2,
				"TEXCOORD_0":3
			},
			"indices":0
		}]
	}],
	"accessors":[{
		"bufferView":0,
		"type":"SCALAR",
		"componentType":5123,
		"count":7710,
		"byteOffset":0,
		"min":[0],
		"max":[7709]
	},
	{
		"bufferView":1,
		"type":"VEC3",
		"componentType":5126,
		"count":7710,
		"byteOffset":0,
		"min":[-1.7682267427444459,
		-2.1848745346069338,
		-1.9848841428756714],
		"max":[1.7682267427444459,
		2.1848745346069338,
		1.9848841428756714]
	},
	{
		"bufferView":1,
		"type":"VEC3",
		"componentType":5126,
		"count":7710,
		"byteOffset":12,
		"min":[-0.9707713723182678,
		-0.9851542711257935,
		-0.9999436736106873],
		"max":[0.9999805688858032,
		0.9868872165679932,
		0.9849036931991577]
	},
	{
		"bufferView":1,
		"type":"VEC2",
		"componentType":5126,
		"count":7710,
		"byteOffset":24,
		"min":[0.0041561308316886429,
		0.051346465945243838],
		"max":[0.9778079986572266,
		0.9949394464492798]
	}],
	"buffers":[{
		"uri":"data:application/octet-stream;base64,",
		"byteLength":262140
	}],
	"bufferViews":[{
		"buffer":0,
		"byteOffset":0,
		"byteLength":15420,
		"target":34963
	},
	{
		"buffer":0,
		"byteOffset":15420,
		"byteLength":246720,
		"target":34962,
		"byteStride":32
	}]
}