{
	"asset":{
		"version":"2.0",
		"generator":"Maxon Cinema 4D 2024.4.0 (#200000219)"
	},
	"scenes":[{
		"nodes":[0]
	}],
	"nodes":[{
		"name":"Box",
		"mesh":0,
		"translation":[0.0,
		0.0,
		0.0],
		"rotation":[0.0,
		0.0,
		1.2246468525851679e-16,
		1.0],
		"scale":[0.5,
		0.5,
		0.5]
	}],
	"meshes":[{
		"name":"Box",
		"primitives":[{
			"attributes":{
				"POSITION":1,
				"NORMAL":2,
				"TEXCOORD_0":3
			},
			"indices":0
		}]
	}],
	"accessors":[{
		"bufferView":0,
		"type":"SCALAR",
		"componentType":5123,
		"count":14676,
		"byteOffset":0,
		"min":[0],
		"max":[14675]
	},
	{
		"bufferView":1,
		"type":"VEC3",
		"componentType":5126,
		"count":14676,
		"byteOffset":0,
		"min":[-0.8450000286102295,
		-1.25,
		-0.8450000286102295],
		"max":[0.8450000286102295,
		0.019999999552965165,
		0.8450000286102295]
	},
	{
		"bufferView":1,
		"type":"VEC3",
		"componentType":5126,
		"count":14676,
		"byteOffset":12,
		"min":[-0.9998710751533508,
		-1.0,
		-0.9998710751533508],
		"max":[0.9998710751533508,
		0.9999668002128601,
		0.9998710751533508]
	},
	{
		"bufferView":1,
		"type":"VEC2",
		"componentType":5126,
		"count":14676,
		"byteOffset":24,
		"min":[0.0,
		0.0],
		"max":[1.0,
		1.0]
	}],
	"buffers":[{
		"uri":"data:application/octet-stream;base64,",
		"byteLength":498984
	}],
	"bufferViews":[{
		"buffer":0,
		"byteOffset":0,
		"byteLength":29352,
		"target":34963
	},
	{
		"buffer":0,
		"byteOffset":29352,
		"byteLength":469632,
		"target":34962,
		"byteStride":32
	}]
}