{
	"asset":{
		"version":"2.0",
		"generator":"Maxon Cinema 4D 2024.4.0 (#200000219)"
	},
	"scenes":[{
		"nodes":[0]
	}],
	"nodes":[{
		"name":"Base_Icon",
		"mesh":0,
		"translation":[0.0,
		0.0,
		1.350998878479004],
		"rotation":[0.0,
		0.0,
		0.0,
		-1.0],
		"scale":[1.0,
		1.0,
		1.0]
	}],
	"meshes":[{
		"name":"Base_Icon",
		"primitives":[{
			"attributes":{
				"POSITION":1,
				"NORMAL":2,
				"TEXCOORD_0":3
			},
			"indices":0
		}]
	}],
	"accessors":[{
		"bufferView":0,
		"type":"SCALAR",
		"componentType":5123,
		"count":3300,
		"byteOffset":0,
		"min":[0],
		"max":[3299]
	},
	{
		"bufferView":1,
		"type":"VEC3",
		"componentType":5126,
		"count":3300,
		"byteOffset":0,
		"min":[-4.511606216430664,
		-4.511605739593506,
		-2.7899999618530275],
		"max":[4.511606216430664,
		4.511605739593506,
		0.07999999821186066]
	},
	{
		"bufferView":1,
		"type":"VEC3",
		"componentType":5126,
		"count":3300,
		"byteOffset":12,
		"min":[-1.0,
		-1.0,
		-1.0],
		"max":[0.9998695254325867,
		1.0,
		1.0]
	},
	{
		"bufferView":1,
		"type":"VEC2",
		"componentType":5126,
		"count":3300,
		"byteOffset":24,
		"min":[0.0,
		0.0],
		"max":[1.0,
		1.0]
	}],
	"bufferViews":[{
		"buffer":0,
		"byteOffset":0,
		"byteLength":6600,
		"target":34963
	},
	{
		"buffer":0,
		"byteOffset":6600,
		"byteLength":105600,
		"target":34962,
		"byteStride":32
	}],
	"buffers":[{
		"uri":"data:application/octet-stream;base64,",
		"byteLength":112200
	}]
}