{
	"asset":{
		"version":"2.0",
		"generator":"Maxon Cinema 4D 2024.4.0 (#200000219)"
	},
	"scenes":[{
		"nodes":[0]
	}],
	"nodes":[{
		"name":"Globe_remesh",
		"mesh":0,
		"translation":[-0.002812042133882642,
		0.0013208008604124189,
		-0.0015071105444803835],
		"rotation":[0.0,
		0.0,
		7.450580596923828e-9,
		-1.0],
		"scale":[1.0,
		1.0,
		1.0]
	}],
	"meshes":[{
		"name":"Globe_remesh",
		"primitives":[{
			"attributes":{
				"POSITION":1,
				"NORMAL":2,
				"TEXCOORD_0":3
			},
			"indices":0
		}]
	}],
	"accessors":[{
		"bufferView":0,
		"type":"SCALAR",
		"componentType":5125,
		"count":87264,
		"byteOffset":0,
		"min":[0],
		"max":[87263]
	},
	{
		"bufferView":1,
		"type":"VEC3",
		"componentType":5126,
		"count":87264,
		"byteOffset":0,
		"min":[-3.191985845565796,
		-3.1635470390319826,
		-3.1927733421325685],
		"max":[3.191985845565796,
		3.1635470390319826,
		3.1927733421325685]
	},
	{
		"bufferView":1,
		"type":"VEC3",
		"componentType":5126,
		"count":87264,
		"byteOffset":12,
		"min":[-0.999963104724884,
		-0.9999951124191284,
		-0.9998152256011963],
		"max":[0.9996795058250427,
		0.9999706745147705,
		0.9999132752418518]
	},
	{
		"bufferView":1,
		"type":"VEC2",
		"componentType":5126,
		"count":87264,
		"byteOffset":24,
		"min":[0.0016909821424633265,
		0.036764875054359439],
		"max":[0.9975894689559937,
		0.963131308555603]
	}],
	"buffers":[{
		"uri":"data:application/octet-stream;base64,",
		"byteLength":3141504
	}],
	"bufferViews":[{
		"buffer":0,
		"byteOffset":0,
		"byteLength":349056,
		"target":34963
	},
	{
		"buffer":0,
		"byteOffset":349056,
		"byteLength":2792448,
		"target":34962,
		"byteStride":32
	}]
}