{
	"asset":{
		"version":"2.0",
		"generator":"Maxon Cinema 4D 2024.4.0 (#200000219)"
	},
	"scenes":[{
		"nodes":[0]
	}],
	"nodes":[{
		"name":"headphone_remesh",
		"mesh":0
	}],
	"meshes":[{
		"name":"headphone_remesh",
		"primitives":[{
			"attributes":{
				"POSITION":1,
				"NORMAL":2,
				"TEXCOORD_0":3
			},
			"indices":0
		}]
	}],
	"accessors":[{
		"bufferView":0,
		"type":"SCALAR",
		"componentType":5123,
		"count":8922,
		"byteOffset":0,
		"min":[0],
		"max":[8921]
	},
	{
		"bufferView":1,
		"type":"VEC3",
		"componentType":5126,
		"count":8922,
		"byteOffset":0,
		"min":[-3.721240758895874,
		-3.9632391929626467,
		-2.1028409004211427],
		"max":[3.7211391925811769,
		4.014780044555664,
		2.1021134853363039]
	},
	{
		"bufferView":1,
		"type":"VEC3",
		"componentType":5126,
		"count":8922,
		"byteOffset":12,
		"min":[-0.9993171691894531,
		-0.9985259175300598,
		-0.999994158744812],
		"max":[0.999920666217804,
		0.999043881893158,
		0.999997615814209]
	},
	{
		"bufferView":1,
		"type":"VEC2",
		"componentType":5126,
		"count":8922,
		"byteOffset":24,
		"min":[0.0,
		0.9999998807907105],
		"max":[0.0,
		1.0]
	}],
	"buffers":[{
		"uri":"data:application/octet-stream;base64,",
		"byteLength":303348
	}],
	"bufferViews":[{
		"buffer":0,
		"byteOffset":0,
		"byteLength":17844,
		"target":34963
	},
	{
		"buffer":0,
		"byteOffset":17844,
		"byteLength":285504,
		"target":34962,
		"byteStride":32
	}]
}