<svg width="54" height="93" viewBox="0 0 54 93" fill="none" xmlns="http://www.w3.org/2000/svg">
<path d="M53.3955 42.4898L11.5595 92.6048C11.3924 92.8007 11.1619 92.9317 10.9081 92.9752C10.6543 93.0186 10.3934 92.9716 10.1707 92.8424C9.94797 92.7132 9.77765 92.51 9.68936 92.2681C9.60106 92.0263 9.6004 91.7611 9.68748 91.5188L24.2685 52.3118H1.09448C0.886345 52.3108 0.682775 52.2507 0.507418 52.1386C0.33206 52.0265 0.192114 51.8669 0.103836 51.6784C0.015558 51.4899 -0.0174286 51.2802 0.00870689 51.0737C0.0348424 50.8672 0.119027 50.6724 0.251484 50.5118L42.0875 0.399837C42.2534 0.204424 42.4823 0.0730799 42.7347 0.028491C42.9871 -0.0160979 43.2472 0.0288679 43.47 0.155622C43.6928 0.282376 43.8643 0.482959 43.955 0.722726C44.0456 0.962494 44.0497 1.22639 43.9665 1.46884L30.1385 40.6878H52.5525C52.7606 40.6889 52.9642 40.749 53.1396 40.8611C53.3149 40.9732 53.4549 41.1328 53.5431 41.3213C53.6314 41.5098 53.6644 41.7195 53.6383 41.9259C53.6121 42.1324 53.5279 42.3273 53.3955 42.4878V42.4898Z" fill="black"/>
</svg>