<svg width="42" height="42" viewBox="0 0 42 42" fill="none" xmlns="http://www.w3.org/2000/svg">
<rect x="2.29492" y="2.39111" width="38.1083" height="38.1083" rx="19.0542" fill="#E0E2E7"/>
<rect x="2.29492" y="2.39111" width="38.1083" height="38.1083" rx="19.0542" stroke="white" stroke-width="3"/>
<path d="M18.682 15.4453H24.0153L24.9042 17.4453H29.3486V27.4453H13.3486V17.4453H17.7931L18.682 15.4453ZM23.3486 22.1953C23.3486 23.2999 22.4532 24.1953 21.3486 24.1953C20.2441 24.1953 19.3486 23.2999 19.3486 22.1953C19.3486 21.0907 20.2441 20.1953 21.3486 20.1953C22.4532 20.1953 23.3486 21.0907 23.3486 22.1953ZM24.8486 22.1953C24.8486 20.2623 23.2816 18.6953 21.3486 18.6953C19.4156 18.6953 17.8486 20.2623 17.8486 22.1953C17.8486 24.1283 19.4156 25.6953 21.3486 25.6953C23.2816 25.6953 24.8486 24.1283 24.8486 22.1953Z" fill="#0A0B0D"/>
</svg>
