<svg width="34" height="34" viewBox="0 0 34 34" fill="none" xmlns="http://www.w3.org/2000/svg">
<path d="M16 32C24.8366 32 32 24.8366 32 16C32 7.16344 24.8366 0 16 0C7.16344 0 0 7.16344 0 16C0 24.8366 7.16344 32 16 32Z" fill="#627EEA"/>
<path d="M31.5 16C31.5 24.5604 24.5604 31.5 16 31.5C7.43959 31.5 0.5 24.5604 0.5 16C0.5 7.43959 7.43959 0.5 16 0.5C24.5604 0.5 31.5 7.43959 31.5 16Z" stroke="#8A919E" stroke-opacity="0.66"/>
<path d="M15.998 4V12.5022L22.9952 15.7133L15.998 4Z" fill="white" fill-opacity="0.602"/>
<path d="M15.9981 4L9 15.7133L15.9981 12.5022V4Z" fill="white"/>
<path d="M15.998 21.2229V27L22.9999 17.0514L15.998 21.2229Z" fill="white" fill-opacity="0.602"/>
<path d="M15.9981 27V21.222L9 17.0514L15.9981 27Z" fill="white"/>
<path d="M15.998 19.8858L22.9952 15.7133L15.998 12.5041V19.8858Z" fill="white" fill-opacity="0.2"/>
<path d="M9 15.7133L15.9981 19.8858V12.5041L9 15.7133Z" fill="white" fill-opacity="0.602"/>
<path d="M26 34C27.5822 34 29.129 33.5308 30.4446 32.6518C31.7602 31.7727 32.7855 30.5233 33.391 29.0615C33.9965 27.5997 34.155 25.9911 33.8463 24.4393C33.5376 22.8874 32.7757 21.462 31.6569 20.3431C30.538 19.2243 29.1126 18.4624 27.5607 18.1537C26.0089 17.845 24.4003 18.0035 22.9385 18.609C21.4767 19.2145 20.2273 20.2398 19.3482 21.5554C18.4692 22.871 18 24.4178 18 26C18 28.1217 18.8429 30.1566 20.3431 31.6569C21.8434 33.1571 23.8783 34 26 34Z" fill="#0052FF"/>
<path fillRule="evenodd" clipRule="evenodd" d="M25.9812 31.6338C29.0926 31.6338 31.615 29.1115 31.615 26C31.615 22.8886 29.0926 20.3662 25.9812 20.3662C23.0294 20.3662 20.6078 22.6363 20.367 25.5259H28.7272V26.464H20.3662C20.6022 29.3584 23.026 31.6338 25.9812 31.6338Z" fill="white"/>
</svg>
