<svg width="98" height="97" viewBox="0 0 98 97" fill="none" xmlns="http://www.w3.org/2000/svg">
<path d="M48.9023 4.289L4.75977 25.9679L5.86146 27.6651L50.004 5.98618L48.9023 4.289Z" fill="white"/>
<path d="M92.1377 68.5386L48.4379 90.0182L49.5403 91.715L93.2401 70.2354L92.1377 68.5386Z" fill="white"/>
<path fillRule="evenodd" clipRule="evenodd" d="M15.4828 62.1361L51.9501 77.2779L46.3766 95.6343L8.70609 79.8168C4.3102 78.938 0.998047 75.0572 0.998047 70.4028C0.998047 65.1007 5.29629 60.8024 10.5984 60.8024C12.3819 60.8024 14.0519 61.2888 15.4828 62.1361Z" fill="#45DAF6"/>
<path fillRule="evenodd" clipRule="evenodd" d="M89.2792 16.1841L50.2006 0L47.0005 18.8008L82.4554 33.8306C83.9001 34.7008 85.5927 35.2014 87.4021 35.2014C92.7043 35.2014 97.0025 30.9032 97.0025 25.601C97.0025 20.9413 93.6827 17.0569 89.2792 16.1841Z" fill="#ECD069"/>
<path d="M18.6224 20.3221L56.7581 80.78L41.401 92.0037L2.2998 30.412L18.6224 20.3221Z" fill="#464B55"/>
<path d="M56.7485 3.98019L95.0859 64.6584L79.745 76.2292L40.7148 14.4547L56.7485 3.98019Z" fill="#464B55"/>
<path d="M58.6007 9.60039C58.6007 14.9025 54.3024 19.2008 49.0003 19.2008C43.6981 19.2008 39.3999 14.9025 39.3999 9.60039C39.3999 4.29824 43.6981 0 49.0003 0C54.3024 0 58.6007 4.29824 58.6007 9.60039Z" fill="#464B55"/>
<path fillRule="evenodd" clipRule="evenodd" d="M57.4138 4.97282L72.9503 29.8011L46.991 18.9902C42.6534 18.0665 39.3999 14.2134 39.3999 9.60039C39.3999 4.29824 43.6981 0 49.0003 0C52.2067 0 55.046 1.57192 56.7896 3.98718L56.7949 3.98376L56.8501 4.07202C57.054 4.36094 57.2423 4.66161 57.4138 4.97282Z" fill="#588AF5"/>
<path fillRule="evenodd" clipRule="evenodd" d="M40.0432 89.867L24.9277 66.0573L51.8251 77.2255C55.7484 78.4318 58.6002 82.0845 58.6002 86.4034C58.6002 91.7055 54.302 96.0038 48.9998 96.0038C44.9188 96.0038 41.4326 93.4575 40.0432 89.867Z" fill="#588AF5"/>
<path d="M20.1988 25.6009C20.1988 30.903 15.9006 35.2013 10.5984 35.2013C5.29629 35.2013 0.998047 30.903 0.998047 25.6009C0.998047 20.2987 5.29629 16.0005 10.5984 16.0005C15.9006 16.0005 20.1988 20.2987 20.1988 25.6009Z" fill="white"/>
<path d="M97.0016 70.4028C97.0016 75.705 92.7033 80.0032 87.4012 80.0032C82.099 80.0032 77.8008 75.705 77.8008 70.4028C77.8008 65.1007 82.099 60.8024 87.4012 60.8024C92.7033 60.8024 97.0016 65.1007 97.0016 70.4028Z" fill="white"/>
</svg>
