<svg width="96" height="96" viewBox="0 0 96 96" fill="none" xmlns="http://www.w3.org/2000/svg">
<g clip-path="url(#clip0_224_85207)">
<path fillRule="evenodd" clipRule="evenodd" d="M37.9958 42.4986C44.0853 37.74 48 30.3272 48 22C48 13.6728 44.0853 6.25996 37.9959 1.50138C40.4764 0.532053 43.1761 0 46 0C58.1503 0 68 9.84974 68 22C68 34.1503 58.1503 44 46 44C43.1761 44 40.4765 43.4679 37.9958 42.4986Z" fill="#44C28D"/>
<circle cx="22" cy="22" r="22" fill="#ECD069"/>
<circle cx="74" cy="22" r="22" fill="#45DAF6"/>
<path fillRule="evenodd" clipRule="evenodd" d="M60 38.9714C64.886 34.9362 68 28.8318 68 22C68 15.1683 64.886 9.06382 60 5.02866C55.114 9.06382 52 15.1683 52 22C52 28.8318 55.114 34.9362 60 38.9714Z" fill="#588AF5"/>
<path d="M22 10V34" stroke="#0A0B0D" stroke-width="2"/>
<path d="M34 22L10 22" stroke="#0A0B0D" stroke-width="2"/>
<path d="M30.4854 13.5147L13.5148 30.4853" stroke="#0A0B0D" stroke-width="2"/>
<path d="M30.4854 30.4853L13.5148 13.5147" stroke="#0A0B0D" stroke-width="2"/>
<path fillRule="evenodd" clipRule="evenodd" d="M58.0042 53.5014C51.9147 58.26 48 65.6728 48 74C48 82.3272 51.9147 89.74 58.0042 94.4986C55.5236 95.4679 52.8239 96 50 96C37.8497 96 28 86.1503 28 74C28 61.8497 37.8497 52 50 52C52.8239 52 55.5236 52.5321 58.0042 53.5014Z" fill="#44C28D"/>
<circle cx="74" cy="74" r="22" transform="rotate(-180 74 74)" fill="#ECD069"/>
<circle cx="22" cy="74" r="22" transform="rotate(-180 22 74)" fill="#45DAF6"/>
<path fillRule="evenodd" clipRule="evenodd" d="M36 57.0286C31.114 61.0638 28 67.1682 28 74C28 80.8317 31.114 86.9362 36 90.9713C40.886 86.9362 44 80.8317 44 74C44 67.1682 40.886 61.0638 36 57.0286Z" fill="#588AF5"/>
<path d="M74 86L74 62" stroke="#0A0B0D" stroke-width="2"/>
<path d="M62 74L86 74" stroke="#0A0B0D" stroke-width="2"/>
<path d="M65.5146 82.4853L82.4852 65.5147" stroke="#0A0B0D" stroke-width="2"/>
<path d="M65.5146 65.5147L82.4852 82.4853" stroke="#0A0B0D" stroke-width="2"/>
</g>
<defs>
<clipPath id="clip0_224_85207">
<rect width="96" height="96" fill="white"/>
</clipPath>
</defs>
</svg>
