<svg width="40" height="40" viewBox="0 0 40 40" fill="none" xmlns="http://www.w3.org/2000/svg">
<g clip-path="url(#clip0_588_7121)">
<path d="M40 0H0V40H40V0Z" fill="#B388F5"/>
<path d="M29.5171 15.755C29.5171 20.9687 25.3125 25.2137 20.0853 25.2137C14.8864 25.2137 10.6534 20.9972 10.6534 15.755H29.5171Z" fill="#D058C1"/>
<path d="M10.6534 32.0513C10.6534 26.8377 14.858 22.5927 20.0853 22.5927C25.3125 22.5927 29.5171 26.8092 29.5171 32.0513H10.6534Z" fill="white"/>
<path d="M20.0852 25.1852C18.3523 25.1852 16.7045 24.7008 15.3125 23.8746C16.7045 23.0484 18.3523 22.5641 20.0852 22.5641C21.8182 22.5641 23.4659 23.0484 24.858 23.8746C23.4659 24.7293 21.8466 25.1852 20.0852 25.1852Z" fill="#0A0B0D"/>
<path d="M19.5739 14.416C21.3637 14.416 22.841 12.963 22.841 11.1396C22.841 9.31627 21.3921 7.86328 19.5739 7.86328C17.7557 7.86328 16.3069 9.31627 16.3069 11.1396C16.3069 12.963 17.7842 14.416 19.5739 14.416Z" fill="#0052FF"/>
</g>
<defs>
<clipPath id="clip0_588_7121">
<rect width="40" height="40" rx="20" fill="white"/>
</clipPath>
</defs>
</svg>
