<svg width="96" height="96" viewBox="0 0 96 96" fill="none" xmlns="http://www.w3.org/2000/svg">
<path d="M64 16H32V80H64V16Z" fill="#464B55"/>
<path d="M64 80C81.6731 80 96 65.6731 96 48C96 30.3269 81.6731 16 64 16C46.3269 16 32 30.3269 32 48C32 65.6731 46.3269 80 64 80Z" fill="#ECD069"/>
<path d="M32 80C49.6731 80 64 65.6731 64 48C64 30.3269 49.6731 16 32 16C14.3269 16 0 30.3269 0 48C0 65.6731 14.3269 80 32 80Z" fill="#45DAF6"/>
<path fillRule="evenodd" clipRule="evenodd" d="M48 20.281C38.4352 25.814 32 36.1555 32 48C32 59.8445 38.4352 70.186 48 75.719C57.5648 70.186 64 59.8445 64 48C64 36.1555 57.5648 25.814 48 20.281Z" fill="#588AF5"/>
<path fillRule="evenodd" clipRule="evenodd" d="M79 49H8V47H79V49Z" fill="#0A0B0D"/>
<path fillRule="evenodd" clipRule="evenodd" d="M76.8015 48L71 42.5329L72.5719 41L80 48L72.5719 55L71 53.4671L76.8015 48Z" fill="#0A0B0D"/>
<path fillRule="evenodd" clipRule="evenodd" d="M64 26.2857C52.0075 26.2857 42.2857 36.0075 42.2857 48C42.2857 59.9925 52.0075 69.7143 64 69.7143C75.9925 69.7143 85.7143 59.9925 85.7143 48C85.7143 36.0075 75.9925 26.2857 64 26.2857ZM40 48C40 34.7452 50.7452 24 64 24C77.2548 24 88 34.7452 88 48C88 61.2548 77.2548 72 64 72C50.7452 72 40 61.2548 40 48Z" fill="#0A0B0D"/>
</svg>
