<svg width="96" height="96" viewBox="0 0 96 96" fill="none" xmlns="http://www.w3.org/2000/svg">
<path d="M44.8001 0H6.39934V36.0007H44.8001V0Z" fill="#CED2DB"/>
<path d="M25.5997 25.6005L6.39932 35.5563V60.4457L25.5997 70.4014L44.8001 60.4457V35.5563L25.5997 25.6005Z" fill="#ECD069"/>
<path fill-rule="evenodd" clip-rule="evenodd" d="M25.5997 48.001L6.39932 60.4457V35.5563L25.5997 25.6005L44.8001 35.5563V45.512V50.4899V60.4457L25.5997 48.001Z" fill="#0A0B0D"/>
<path fill-rule="evenodd" clip-rule="evenodd" d="M25.5997 48.001L44.8001 35.5563L44.8001 60.4457L25.5997 70.4014L6.39932 60.4457L6.39932 50.4899L6.39932 45.512L6.39933 35.5563L25.5997 48.001Z" fill="#FFD200"/>
<path d="M25.5996 36.0007L15.1994 41.3341V54.6677L25.5996 60.0012L35.9998 54.6677V41.3341L25.5996 36.0007Z" fill="#FEFFFF"/>
<path d="M29.1997 48.001L27.3996 51.201H23.7996L21.9995 48.001L23.7996 44.8009L27.3996 44.8009L29.1997 48.001Z" fill="#101114"/>
<path d="M51.1999 96.002L89.6007 96.002L89.6007 60.0012L51.1999 60.0012L51.1999 96.002Z" fill="#CED2DB"/>
<path d="M70.4003 70.4014L89.6007 60.4457L89.6007 35.5563L70.4003 25.6005L51.2 35.5563L51.2 60.4457L70.4003 70.4014Z" fill="#0A0B0D"/>
<path fill-rule="evenodd" clip-rule="evenodd" d="M70.4003 48.001L89.6007 35.5563L89.6007 60.4457L70.4003 70.4014L51.1999 60.4457L51.1999 50.4899L51.1999 45.512L51.1999 35.5563L70.4003 48.001Z" fill="#588AF5"/>
<path fill-rule="evenodd" clip-rule="evenodd" d="M70.4003 48.001L51.1999 60.4457L51.1999 35.5563L70.4003 25.6005L89.6007 35.5563L89.6007 45.512L89.6007 50.4899L89.6007 60.4457L70.4003 48.001Z" fill="#CED2DB"/>
<path d="M70.4002 36.0007L60 41.3341V54.6677L70.4002 60.0012L80.8005 54.6677V41.3341L70.4002 36.0007Z" fill="#FEFFFF"/>
<path fill-rule="evenodd" clip-rule="evenodd" d="M96.0007 49.001L89.6006 49.001L89.6006 47.001L96.0007 47.001L96.0007 49.001Z" fill="#101114"/>
<path fill-rule="evenodd" clip-rule="evenodd" d="M80.8049 49.001L44.8013 49.001L44.8013 47.001L80.8049 47.001L80.8049 49.001Z" fill="#101114"/>
<path fill-rule="evenodd" clip-rule="evenodd" d="M36.0027 49.001L-0.000976388 49.001L-0.000976562 47.001L36.0027 47.001L36.0027 49.001Z" fill="#101114"/>
<path d="M74.0008 48.001L72.2007 51.201H68.6007L66.8006 48.001L68.6007 44.8009L72.2007 44.8009L74.0008 48.001Z" fill="#101114"/>
</svg>
