<svg width="24" height="24" viewBox="0 0 24 20" fill="none" xmlns="http://www.w3.org/2000/svg" > <path d="M20.3303 2.50578C18.7535 1.78387 17.0888 1.27172 15.3789 0.982422C15.1449 1.40071 14.9332 1.83107 14.7446 2.27171C12.9232 1.99724 11.071 1.99724 9.24961 2.27171C9.06095 1.83112 8.84924 1.40076 8.61535 0.982422C6.90433 1.27417 5.2386 1.78753 3.66019 2.50955C0.526644 7.14569 -0.322811 11.6667 0.101917 16.1235C1.937 17.4793 3.99098 18.5105 6.17458 19.1721C6.66626 18.5108 7.10134 17.8093 7.47519 17.0749C6.76511 16.8097 6.07975 16.4825 5.42706 16.0971C5.59884 15.9725 5.76684 15.8441 5.92918 15.7195C7.82837 16.6127 9.90124 17.0758 12 17.0758C14.0987 17.0758 16.1715 16.6127 18.0707 15.7195C18.235 15.8536 18.403 15.9819 18.5729 16.0971C17.9189 16.4831 17.2323 16.8109 16.5209 17.0768C16.8943 17.8108 17.3294 18.5118 17.8216 19.1721C20.007 18.5131 22.0626 17.4825 23.898 16.1254C24.3963 10.9569 23.0467 6.47746 20.3303 2.50578ZM8.01318 13.3826C6.82961 13.3826 5.85179 12.3085 5.85179 10.9871C5.85179 9.66575 6.79563 8.58222 8.0094 8.58222C9.22318 8.58222 10.1934 9.66575 10.1727 10.9871C10.1519 12.3085 9.21941 13.3826 8.01318 13.3826ZM15.9867 13.3826C14.8013 13.3826 13.8272 12.3085 13.8272 10.9871C13.8272 9.66575 14.7711 8.58222 15.9867 8.58222C17.2024 8.58222 18.1651 9.66575 18.1444 10.9871C18.1236 12.3085 17.193 13.3826 15.9867 13.3826Z" fill="white" /></svg>