<svg width="34" height="34" viewBox="0 0 34 34" fill="none" xmlns="http://www.w3.org/2000/svg">
<path d="M16 32C24.8366 32 32 24.8366 32 16C32 7.16344 24.8366 0 16 0C7.16344 0 0 7.16344 0 16C0 24.8366 7.16344 32 16 32Z" fill="#627EEA"/>
<path d="M31.5 16C31.5 24.5604 24.5604 31.5 16 31.5C7.43959 31.5 0.5 24.5604 0.5 16C0.5 7.43959 7.43959 0.5 16 0.5C24.5604 0.5 31.5 7.43959 31.5 16Z" stroke="#8A919E" stroke-opacity="0.66"/>
<path d="M15.998 4V12.5022L22.9952 15.7133L15.998 4Z" fill="white" fill-opacity="0.602"/>
<path d="M15.9981 4L9 15.7133L15.9981 12.5022V4Z" fill="white"/>
<path d="M15.998 21.2229V27L22.9999 17.0514L15.998 21.2229Z" fill="white" fill-opacity="0.602"/>
<path d="M15.9981 27V21.222L9 17.0514L15.9981 27Z" fill="white"/>
<path d="M15.998 19.8858L22.9952 15.7133L15.998 12.5041V19.8858Z" fill="white" fill-opacity="0.2"/>
<path d="M9 15.7133L15.9981 19.8858V12.5041L9 15.7133Z" fill="white" fill-opacity="0.602"/>
<path d="M26 34C30.4183 34 34 30.4183 34 26C34 21.5817 30.4183 18 26 18C21.5817 18 18 21.5817 18 26C18 30.4183 21.5817 34 26 34Z" fill="#627EEA"/>
<path d="M25.999 20V24.2511L29.4976 25.8566L25.999 20Z" fill="white" fill-opacity="0.602"/>
<path d="M25.9991 20L22.5 25.8566L25.9991 24.2511V20Z" fill="white"/>
<path d="M25.999 28.6115V31.5L29.5 26.5257L25.999 28.6115Z" fill="white" fill-opacity="0.602"/>
<path d="M25.9991 31.5V28.611L22.5 26.5257L25.9991 31.5Z" fill="white"/>
<path d="M25.999 27.9429L29.4976 25.8567L25.999 24.2521V27.9429Z" fill="white" fill-opacity="0.2"/>
<path d="M22.5 25.8567L25.9991 27.9429V24.2521L22.5 25.8567Z" fill="white" fill-opacity="0.602"/>
</svg>
