<svg width="24" height="24" viewBox="0 0 24 24" fill="none" xmlns="http://www.w3.org/2000/svg" > <path fillRule="evenodd" clipRule="evenodd" d="M12.0099 0.277344C5.36875 0.277344 0 5.68567 0 12.3765C0 17.7249 3.43994 22.2521 8.21205 23.8545C8.80869 23.9749 9.02724 23.5941 9.02724 23.2738C9.02724 22.9933 9.00757 22.0318 9.00757 21.0301C5.6667 21.7514 4.97099 19.5878 4.97099 19.5878C4.43409 18.1855 3.63858 17.8252 3.63858 17.8252C2.54511 17.084 3.71823 17.084 3.71823 17.084C4.93117 17.1641 5.56763 18.3259 5.56763 18.3259C6.64118 20.1687 8.37111 19.648 9.06706 19.3274C9.16638 18.5462 9.48473 18.0054 9.82275 17.7049C7.15817 17.4244 4.35469 16.3829 4.35469 11.7354C4.35469 10.4133 4.8316 9.33162 5.58729 8.49038C5.46807 8.18997 5.0504 6.94778 5.70677 5.28521C5.70677 5.28521 6.72083 4.96464 9.00732 6.52716C9.98625 6.26231 10.9958 6.12758 12.0099 6.12645C13.024 6.12645 14.0577 6.26682 15.0123 6.52716C17.299 4.96464 18.3131 5.28521 18.3131 5.28521C18.9695 6.94778 18.5515 8.18997 18.4323 8.49038C19.2079 9.33162 19.6652 10.4133 19.6652 11.7354C19.6652 16.3829 16.8617 17.4043 14.1772 17.7049C14.6148 18.0855 14.9924 18.8065 14.9924 19.9484C14.9924 21.5709 14.9727 22.8731 14.9727 23.2736C14.9727 23.5941 15.1915 23.9749 15.7879 23.8547C20.56 22.2519 23.9999 17.7249 23.9999 12.3765C24.0196 5.68567 18.6312 0.277344 12.0099 0.277344Z" fill="white" /> </svg>