<svg width="65" height="64" viewBox="0 0 65 64" fill="none" xmlns="http://www.w3.org/2000/svg">
<path d="M0.5 0H32.5V32L26.1 45.3333H6.89998L0.5 32V0Z" fill="#464B55"/>
<path d="M32.5 32L26.1 18.6667H6.89998L0.5 32H32.5Z" fill="#588AF5"/>
<path d="M10.0999 32L12.6599 37.3334H20.3399L22.8999 32L20.3266 26.6667H12.6599L10.0999 32Z" fill="white"/>
<path fillRule="evenodd" clipRule="evenodd" d="M64.5 32V64H32.5V32L38.9 18.6667H58.0733L64.5 32Z" fill="#464B55"/>
<path d="M32.5 32L38.9 45.3333H58.1L64.5 32H32.5Z" fill="#588AF5"/>
<path d="M42.0999 32L44.6599 37.3334H52.3399L54.8999 32L52.3266 26.6667H44.6599L42.0999 32Z" fill="white"/>
<path d="M13.3001 32L14.5801 34.6666H18.4201L19.0601 33.3333H45.9401L46.5801 34.6666H50.4201L51.7001 32L50.4201 29.3333H46.5801L45.9401 30.6666H19.0601L18.4201 29.3333H14.5801L13.3001 32Z" fill="#0A0B0D"/>
</svg>
