<svg width="96" height="96" viewBox="0 0 96 96" fill="none" xmlns="http://www.w3.org/2000/svg">
<rect x="8" y="36" width="52" height="24" fill="#464B55"/>
<rect x="36" y="20" width="32" height="8" fill="#464B55"/>
<rect x="28" y="68" width="40" height="8" fill="#464B55"/>
<rect x="24" y="28" width="36" height="8" fill="#464B55"/>
<rect x="20" y="60" width="40" height="8" fill="#464B55"/>
<rect x="76" width="20" height="96" fill="#45DAF6"/>
<path d="M68 76C83.464 76 96 63.464 96 48C96 32.536 83.464 20 68 20C52.536 20 40 32.536 40 48C40 63.464 52.536 76 68 76Z" fill="#ECD069"/>
<rect width="20" height="96" fill="#44C28D"/>
<path d="M20 36V60H6V36H20Z" fill="#0A0B0D"/>
<path d="M76 74.8411V21.1602C87.566 24.6024 96 35.3166 96 48.0006C96 60.6847 87.566 71.3989 76 74.8411Z" fill="#588AF5"/>
<path fill-rule="evenodd" clip-rule="evenodd" d="M68 27C56.402 27 47 36.402 47 48C47 59.598 56.402 69 68 69C79.598 69 89 59.598 89 48C89 36.402 79.598 27 68 27ZM45 48C45 35.2975 55.2975 25 68 25C80.7025 25 91 35.2975 91 48C91 60.7025 80.7025 71 68 71C55.2975 71 45 60.7025 45 48Z" fill="#0A0B0D"/>
<path fill-rule="evenodd" clip-rule="evenodd" d="M67 64V32H69V64H67Z" fill="#0A0B0D"/>
<path fill-rule="evenodd" clip-rule="evenodd" d="M52 47H84V49H52V47Z" fill="#0A0B0D"/>
<path fill-rule="evenodd" clip-rule="evenodd" d="M56.293 58.293L78.293 36.293L79.7072 37.7072L57.7072 59.7072L56.293 58.293Z" fill="#0A0B0D"/>
<path fill-rule="evenodd" clip-rule="evenodd" d="M78.293 59.7072L57.293 38.7072L58.7072 37.293L79.7072 58.293L78.293 59.7072Z" fill="#0A0B0D"/>
<path fill-rule="evenodd" clip-rule="evenodd" d="M38 49L12 49L12 47L38 47L38 49Z" fill="#0A0B0D"/>
<path fill-rule="evenodd" clip-rule="evenodd" d="M33.7072 54.707L32.293 53.2928L37.5859 47.9999L32.293 42.707L33.7072 41.2928L40.4143 47.9999L33.7072 54.707Z" fill="#0A0B0D"/>
<rect x="6" y="8" width="8" height="8" fill="white"/>
<rect x="6" y="8" width="4" height="4" fill="#0A0B0D"/>
<rect x="10" y="12" width="4" height="4" fill="#0A0B0D"/>
<rect x="6" y="64" width="8" height="8" fill="white"/>
<rect x="6" y="64" width="4" height="4" fill="#0A0B0D"/>
<rect x="10" y="68" width="4" height="4" fill="#0A0B0D"/>
<rect x="6" y="24" width="8" height="8" fill="white"/>
<rect x="6" y="24" width="4" height="4" fill="#0A0B0D"/>
<rect x="10" y="28" width="4" height="4" fill="#0A0B0D"/>
<rect x="6" y="80" width="8" height="8" fill="white"/>
<rect x="6" y="80" width="4" height="4" fill="#0A0B0D"/>
<rect x="10" y="84" width="4" height="4" fill="#0A0B0D"/>
<rect x="82" y="80" width="8" height="8" fill="white"/>
<rect x="82" y="80" width="4" height="4" fill="#0A0B0D"/>
<rect x="86" y="84" width="4" height="4" fill="#0A0B0D"/>
<rect x="82" y="8" width="8" height="8" fill="white"/>
<rect x="82" y="8" width="4" height="4" fill="#0A0B0D"/>
<rect x="86" y="12" width="4" height="4" fill="#0A0B0D"/>
</svg>
