<svg width="24" height="24" viewBox="0 0 24 20" fill="none" xmlns="http://www.w3.org/2000/svg" > <path d="M21.543 5.18103C21.5576 5.39261 21.5576 5.60419 21.5576 5.81771C21.5576 12.324 16.6045 19.8277 7.54759 19.8277V19.8238C4.87215 19.8277 2.25229 19.0613 0 17.6164C0.389031 17.6632 0.780012 17.6866 1.17197 17.6875C3.38915 17.6895 5.54296 16.9456 7.28726 15.5757C5.18026 15.5357 3.3326 14.1619 2.68714 12.1563C3.42523 12.2986 4.18574 12.2694 4.91018 12.0715C2.61304 11.6074 0.96039 9.58907 0.96039 7.24514V7.18274C1.64485 7.56397 2.41121 7.77554 3.19513 7.79894C1.03157 6.353 0.364656 3.47475 1.67118 1.22442C4.17112 4.30059 7.8596 6.17067 11.8191 6.3686C11.4223 4.65842 11.9644 2.86634 13.2436 1.66415C15.2268 -0.200081 18.3459 -0.104529 20.2101 1.87768C21.3129 1.66025 22.3698 1.25562 23.337 0.682308C22.9694 1.8221 22.2001 2.79029 21.1725 3.40553C22.1484 3.29047 23.102 3.02917 24 2.63039C23.3389 3.621 22.5063 4.48389 21.543 5.18103Z" fill="white" /> </svg>