<svg width="96" height="96" viewBox="0 0 96 96" fill="none" xmlns="http://www.w3.org/2000/svg">
<g id="Spot Square/multipleAccountsWalletsForOneUser">
<path id="Rectangle 266" d="M22.3984 37.6004C22.3984 35.8331 23.8311 34.4004 25.5984 34.4004H92.7984C94.5658 34.4004 95.9984 35.8331 95.9984 37.6004V80.0004C95.9984 81.7677 94.5658 83.2004 92.7984 83.2004H25.5984C23.8311 83.2004 22.3984 81.7677 22.3984 80.0004V37.6004Z" fill="#464B55"/>
<path id="Rectangle 267" d="M0.430105 44.716C-0.455305 43.1938 0.0701368 41.2473 1.60371 40.3685L60.1314 6.82732C61.665 5.94845 63.6259 6.47001 64.5114 7.99225L85.9699 44.8847C86.8553 46.407 86.3299 48.3535 84.7963 49.2323L26.2686 82.7735C24.735 83.6523 22.774 83.1308 21.8886 81.6085L0.430105 44.716Z" fill="#588AF5"/>
<path id="Intersect" fill-rule="evenodd" clip-rule="evenodd" d="M79.8701 34.4004L85.9683 44.8847C86.8537 46.407 86.3283 48.3534 84.7947 49.2323L26.267 82.7735C25.9058 82.9805 25.5209 83.1098 25.1319 83.1666C23.5857 82.9408 22.3984 81.6092 22.3984 80.0004V37.6004C22.3984 35.8331 23.8311 34.4004 25.5984 34.4004H79.8701Z" fill="#0A0B0D"/>
<path id="Intersect_2" fill-rule="evenodd" clip-rule="evenodd" d="M28.7545 83.1998C28.7835 82.9371 28.7984 82.6702 28.7984 82.3999C28.7984 80.2675 27.8714 78.3516 26.3984 77.0332V79.5138C26.9063 80.3566 27.1984 81.3441 27.1984 82.3999C27.1984 82.6714 27.1791 82.9385 27.1417 83.1998H28.7545Z" fill="#464B55"/>
<path id="Intersect_3" fill-rule="evenodd" clip-rule="evenodd" d="M28.7246 81.3645L27.1962 82.2404C27.1684 81.2447 26.8806 80.314 26.3984 79.5138V77.0332C27.6286 78.1342 28.4779 79.652 28.7246 81.3645Z" fill="#0A0B0D"/>
<path id="Intersect_4" fill-rule="evenodd" clip-rule="evenodd" d="M26.6531 79.9873C26.1011 78.8333 25.1657 77.8979 24.0117 77.3459C24.071 76.7843 24.3239 76.2804 24.7026 75.9023C26.1852 76.6119 27.3872 77.8138 28.0967 79.2965C27.7186 79.6751 27.2147 79.928 26.6531 79.9873Z" fill="#0A0B0D"/>
<path id="Union" fill-rule="evenodd" clip-rule="evenodd" d="M95.9985 60.7969V51.1992L86.5594 51.1992C85.2868 51.1992 84.0267 51.4476 82.8515 51.9303C81.6762 52.413 80.6088 53.1208 79.7105 54.0124C78.8123 54.9041 78.1008 55.9623 77.6169 57.1265C77.133 58.2908 76.8862 59.5381 76.8907 60.7969L76.8906 60.8591C76.8906 62.1118 77.1407 63.3524 77.6266 64.5098C78.1125 65.6673 78.8247 66.7189 79.7225 67.6048C80.6203 68.4907 81.6862 69.1934 82.8593 69.6728C84.0323 70.1522 85.2896 70.3992 86.5593 70.3992H95.9985L95.9985 62.1348L95.9985 60.7969Z" fill="#588AF5"/>
<path id="Ellipse 255" d="M91.2016 60.8C91.2016 63.451 89.0525 65.6 86.4016 65.6C83.7506 65.6 81.6016 63.451 81.6016 60.8C81.6016 58.149 83.7506 56 86.4016 56C89.0525 56 91.2016 58.149 91.2016 60.8Z" fill="#ECD069"/>
<path id="Union_2" fill-rule="evenodd" clip-rule="evenodd" d="M21.5984 74.9492C17.4839 74.9492 14.1484 78.2847 14.1484 82.3992C14.1484 86.5137 17.4839 89.8492 21.5984 89.8492C25.713 89.8492 29.0484 86.5137 29.0484 82.3992C29.0484 78.2847 25.713 74.9492 21.5984 74.9492ZM16.2484 82.3992C16.2484 79.4445 18.6437 77.0492 21.5984 77.0492C24.5532 77.0492 26.9484 79.4445 26.9484 82.3992C26.9484 85.3539 24.5532 87.7492 21.5984 87.7492C18.6437 87.7492 16.2484 85.3539 16.2484 82.3992Z" fill="white"/>
</g>
</svg>
