<svg width="32" height="32" viewBox="0 0 32 32" fill="none" xmlns="http://www.w3.org/2000/svg">
<g id="ui/defi">
<path id="vector" d="M10.6523 6.66022C10.6523 7.27777 10.5124 7.86263 10.2625 8.38483L12.3091 10.4314C13.363 9.7334 14.6269 9.32688 15.9857 9.32688C17.6861 9.32688 19.2379 9.96352 20.4156 11.0114L21.7089 9.71816C21.459 9.19597 21.319 8.6111 21.319 7.99355C21.319 5.78441 23.1099 3.99355 25.319 3.99355C27.5281 3.99355 29.319 5.78441 29.319 7.99355C29.319 10.2027 27.5281 11.9936 25.319 11.9936C24.7015 11.9936 24.1167 11.8536 23.5945 11.6037L22.0272 13.1711C22.4283 14.0282 22.6523 14.9847 22.6523 15.9935C22.6523 17.3523 22.2458 18.6162 21.5478 19.6701L23.5944 21.7167C24.1166 21.4668 24.7015 21.3269 25.319 21.3269C27.5281 21.3269 29.319 23.1177 29.319 25.3269C29.319 27.536 27.5281 29.3269 25.319 29.3269C23.1099 29.3269 21.319 27.536 21.319 25.3269C21.319 24.7094 21.4589 24.1246 21.7088 23.6024L19.6621 21.5557C18.6082 22.2537 17.3444 22.6602 15.9857 22.6602C14.2102 22.6602 12.5969 21.9662 11.4021 20.8346L10.4984 21.5576C10.5987 21.9078 10.6523 22.2778 10.6523 22.6602C10.6523 24.8694 8.86148 26.6602 6.65234 26.6602C4.4432 26.6602 2.65234 24.8694 2.65234 22.6602C2.65234 20.4511 4.4432 18.6602 6.65234 18.6602C7.50619 18.6602 8.29755 18.9277 8.94718 19.3836L9.86795 18.6469C9.5148 17.8338 9.31901 16.9366 9.31901 15.9935C9.31901 14.6348 9.7255 13.371 10.4235 12.3171L8.37684 10.2704C7.85468 10.5203 7.26985 10.6602 6.65234 10.6602C4.4432 10.6602 2.65234 8.86936 2.65234 6.66022C2.65234 4.45108 4.4432 2.66022 6.65234 2.66022C8.86148 2.66022 10.6523 4.45108 10.6523 6.66022ZM15.9857 19.9935C18.1948 19.9935 19.9857 18.2027 19.9857 15.9935C19.9857 13.7844 18.1948 11.9936 15.9857 11.9936C13.7765 11.9936 11.9857 13.7844 11.9857 15.9935C11.9857 18.2027 13.7765 19.9935 15.9857 19.9935Z" fill="#578BFA"/>
</g>
</svg>
