<svg width="40" height="34" viewBox="0 0 40 34" fill="none" xmlns="http://www.w3.org/2000/svg">
<g clip-path="url(#clip0_3662_2891)">
<path d="M4.41992 20.1218C5.86503 27.7417 12.5013 33.5 20.4711 33.5C22.2419 33.5 23.9464 33.2151 25.5445 32.6881C22.2998 31.4901 18.6622 29.7652 14.9677 27.6113C10.8454 25.209 7.2109 22.5991 4.42095 20.1218H4.41992Z" fill="#5B616E"/>
<path d="M20.4468 18.2997C21.1444 18.2997 21.71 17.7288 21.71 17.0245C21.71 16.3202 21.1444 15.7493 20.4468 15.7493C19.7491 15.7493 19.1836 16.3202 19.1836 17.0245C19.1836 17.7288 19.7491 18.2997 20.4468 18.2997Z" fill="#5B616E"/>
<path d="M38.474 26.5792C37.8941 25.4261 36.9483 24.1738 35.745 22.8861C36.4366 21.0578 36.817 19.074 36.817 17.0005C36.816 7.88724 29.4984 0.5 20.4712 0.5C15.2624 0.5 10.6231 2.95963 7.63058 6.79048C6.24439 6.50559 4.98122 6.37306 3.90824 6.4315C2.53136 6.50559 1.10176 6.92092 0.391606 8.16378C-0.319577 9.40769 0.0391158 10.8645 0.663468 12.1052C1.12863 13.0298 1.82948 14.017 2.70812 15.0366C3.06061 15.4456 3.44101 15.8589 3.84932 16.2763C3.94235 16.3712 4.03745 16.4673 4.13359 16.5633C4.37444 16.8043 4.62666 17.0475 4.88612 17.2927C7.70087 19.9443 11.5917 22.8099 16.0872 25.4292C20.6376 28.0819 25.0949 30.0667 28.8048 31.1948C29.2328 31.3252 29.6524 31.4442 30.0597 31.5517C32.0196 32.0672 33.7934 32.3291 35.2303 32.2508C36.6071 32.1768 38.0368 31.7614 38.7479 30.5186C39.4591 29.2747 39.1004 27.8179 38.4761 26.5771L38.474 26.5792ZM4.50572 13.4587C3.71701 12.5446 3.14124 11.7202 2.78771 11.0179C2.2657 9.98059 2.36907 9.5183 2.45486 9.36803C2.54066 9.21776 2.88591 8.89635 4.03642 8.83374C4.63286 8.80139 5.35541 8.84626 6.18857 8.97357C5.42364 10.3584 4.85097 11.8652 4.50468 13.4587H4.50572ZM26.1503 18.0378C25.6737 20.7823 23.3024 22.8684 20.4474 22.8684C17.2502 22.8684 14.6576 20.2511 14.6576 17.0235C14.6576 15.2494 15.4412 13.6591 16.6775 12.5874C17.4455 11.9216 18.3872 11.4562 19.4251 11.2694C19.7569 11.2099 20.098 11.1786 20.4463 11.1786C22.9314 11.1786 25.0515 12.7606 25.8722 14.9813C26.1069 15.6168 26.2361 16.3055 26.2361 17.0235C26.2361 17.3689 26.2061 17.708 26.1492 18.0378H26.1503ZM36.6826 29.3174C36.5968 29.4667 36.2516 29.7881 35.1011 29.8507C34.1356 29.9029 32.8424 29.7526 31.2753 29.3801C32.6067 28.1956 33.7459 26.7952 34.639 25.233C35.4246 26.144 35.9973 26.9653 36.3498 27.6676C36.8718 28.7049 36.7684 29.1672 36.6826 29.3174Z" fill="#5B616E"/>
</g>
<defs>
<clipPath id="clip0_3662_2891">
<rect width="40" height="34" fill="white"/>
</clipPath>
</defs>
</svg>
