<?xml version="1.0" encoding="UTF-8"?>
<svg id="Layer_1" xmlns="http://www.w3.org/2000/svg" viewBox="0 0 285.5 214.16">
<defs>
</defs>
<path d="m202.98,43.29l16.58,19.48c1.9,2.19,3.58,3.99,4.26,5.01,4.96,4.93,7.74,11.59,7.74,18.53-.47,8.19-5.8,13.76-10.74,19.73l-11.6,13.62-6.05,7.06c-.22.24-.36.54-.4.86-.05.32,0,.65.15.94.14.29.36.54.64.71.28.17.61.25.94.24h60.49c9.24,0,20.88,7.76,20.2,19.55-.02,5.36-2.19,10.49-6.03,14.28-3.84,3.79-9.05,5.92-14.49,5.94h-94.73c-6.23,0-22.99.67-27.69-13.62-1-2.99-1.13-6.19-.39-9.25,1.36-4.52,3.52-8.78,6.38-12.57,4.76-7.06,9.92-14.12,15.01-20.96,6.55-8.96,13.29-17.65,19.91-26.79.24-.3.36-.66.36-1.04s-.13-.74-.36-1.04l-24.07-28.24c-.16-.2-.36-.37-.59-.48-.23-.11-.49-.17-.75-.17s-.52.06-.75.17c-.23.11-.44.28-.59.48-6.45,8.58-34.67,46.55-40.68,54.25s-20.84,8.12-29.04,0l-37.64-37.24c-.24-.24-.55-.4-.88-.46-.33-.07-.68-.03-1,.1-.32.13-.58.35-.77.63-.19.28-.29.61-.29.94v71.61c.09,5.08-1.44,10.06-4.37,14.25s-7.11,7.36-11.96,9.08c-3.1,1.07-6.41,1.38-9.66.93-3.25-.45-6.34-1.67-9.02-3.54-2.68-1.87-4.86-4.35-6.37-7.22-1.51-2.87-2.3-6.06-2.31-9.29V21.02c.22-4.64,1.91-9.1,4.84-12.73,2.93-3.64,6.95-6.27,11.49-7.53,3.89-1.02,7.99-1.01,11.88.03,3.89,1.04,7.43,3.08,10.26,5.9l57.88,57.11c.17.17.38.31.61.39.23.08.48.12.72.1.25-.02.48-.09.7-.21.22-.12.4-.29.54-.49L142.42,7.5c1.9-2.28,4.28-4.12,6.98-5.39s5.65-1.95,8.64-1.99h106.94c2.93,0,5.82.63,8.48,1.82,2.66,1.19,5.04,2.94,6.96,5.11,1.93,2.17,3.36,4.72,4.2,7.49.84,2.76,1.08,5.67.69,8.53-.76,4.96-3.31,9.48-7.19,12.73-3.88,3.24-8.82,4.99-13.91,4.92h-59.88c-.3,0-.6.09-.85.25-.25.16-.46.38-.6.64-.14.26-.21.56-.19.85.02.3.11.58.28.83" fill="#5B616E" />
<path d="m185.65,209.46h-7.39c-.57-.01-1.12-.24-1.52-.64-.4-.4-.64-.94-.65-1.5v-1.71c.01-.56.25-1.1.65-1.5.4-.4.95-.63,1.52-.64h6.31c.57,0,1.13-.23,1.54-.63.41-.4.64-.94.64-1.51s-.23-1.11-.64-1.51c-.41-.4-.96-.63-1.54-.63h-6.37c-.57-.01-1.12-.25-1.52-.64-.4-.4-.64-.94-.65-1.5v-1.71c.01-.56.25-1.1.65-1.5.4-.4.95-.63,1.52-.64h7.24c.57,0,1.13-.23,1.53-.63.41-.4.64-.94.64-1.51s-.23-1.11-.64-1.51c-.41-.4-.96-.63-1.53-.63h-8.69c-.34,0-.67.1-.93.31-.26.21-.45.5-.52.83l-4.63,21.55v.43c.08.5.35.95.75,1.27.4.31.91.47,1.42.44h12.74c.58,0,1.13-.22,1.54-.63.41-.4.63-.95.63-1.51s-.23-1.11-.63-1.51c-.41-.4-.96-.63-1.54-.63h.06Z" fill="#5B616E" />
<path d="m24.92,189.05h-2.9c-.43,0-.84.13-1.2.36-.36.23-.65.55-.83.93l-6.37,15.13s-.02.07-.04.1c-.03.03-.06.04-.1.04q-.14,0-.14-.14l-6.37-15.13c-.16-.39-.4-.73-.72-1-.58-.43-1.3.14-1.45.85L.01,212.02c-.04.25.01.5.15.71.17.34.44.64.77.83.33.2.72.31,1.11.31h.87c.56-.03,1.09-.26,1.48-.66.39-.4.62-.93.63-1.48v-13.98s.01-.07.04-.1c.03-.03.06-.04.1-.04s.07.02.1.04c.03.03.04.06.04.1l5.94,14.7c.16.4.44.74.8.97.36.23.79.34,1.22.32h.58c.43,0,.84-.13,1.2-.36.36-.23.64-.55.83-.93l5.94-14.56s.01-.07.04-.1c.03-.03.06-.04.1-.04s.07.02.1.04c.03.03.04.06.04.1v13.84c.01.56.25,1.1.65,1.5.4.4.95.63,1.52.64h.87c.57-.01,1.11-.24,1.52-.64.4-.4.64-.94.65-1.5v-20.55c-.1-.57-.39-1.09-.83-1.48-.44-.39-.99-.62-1.58-.66" fill="#5B616E" />
<path d="m91.24,200.61h-6.37c-.54,0-1.05.21-1.43.59-.38.38-.59.88-.59,1.41s.21,1.04.59,1.41c.38.37.9.58,1.43.58h1.16c1.16,0,2.32,1,1.74,2.14-.87,1.86-2.61,2.85-5.36,2.85-4.05,0-6.52-3-6.52-8.13s2.61-8.14,6.52-8.14c.91-.05,1.81.14,2.62.54.81.4,1.51,1,2.01,1.74.23.42.56.77.97,1.02.41.25.87.39,1.35.41h1.3c.29.02.59-.02.86-.14.27-.11.51-.29.69-.52.19-.23.31-.49.37-.78.06-.28.04-.58-.04-.86-.9-1.87-2.35-3.44-4.15-4.5-1.8-1.07-3.89-1.59-5.99-1.49-6.66,0-11.73,4.71-11.73,12.7s4.78,12.7,11.87,12.7c6.37,0,10.86-3.99,10.86-10.42v-1c0-.28-.05-.56-.15-.83-.11-.26-.27-.5-.47-.7-.2-.2-.44-.36-.71-.46-.27-.11-.55-.16-.84-.15" fill="#5B616E" />
<path d="m49.91,204.03h-.43c-.34-.01-.68-.1-.98-.26-.3-.16-.56-.39-.76-.67-.2-.28-.32-.6-.38-.93-.05-.34-.02-.68.09-1l2.17-6.57s.01-.07.04-.1c.03-.03.06-.04.1-.04s.08.02.1.04c.03.03.04.06.04.1l2.17,6.57c.08.33.08.67.01,1.01-.07.33-.22.65-.42.92-.21.27-.47.49-.78.66-.31.16-.64.25-.99.27m3.68-13.56c-.15-.41-.42-.77-.79-1.03-.36-.26-.8-.39-1.24-.4h-3.76c-.45,0-.88.14-1.24.4-.36.26-.64.62-.78,1.03l-7.24,20.55c-.11.32-.14.66-.09,1,.05.33.18.65.37.93.2.28.46.51.76.67.3.16.64.25.98.26h1.16c.45,0,.88-.14,1.24-.4.36-.26.64-.61.79-1.03l.87-2.71c.15-.42.42-.77.79-1.03.36-.26.8-.39,1.24-.4h5.94c.45,0,.88.14,1.24.4.36.26.64.61.79,1.03l.87,2.71c.15.42.42.77.79,1.03.36.26.8.39,1.24.4h1.16c.34,0,.68-.1.98-.26.3-.16.56-.39.76-.67.2-.28.33-.6.38-.93.05-.34.02-.68-.09-1l-7.09-20.55Z" fill="#5B616E" />
<path d="m108.03,189.05h-1.01c-.57.01-1.11.25-1.52.65-.4.4-.64.93-.65,1.5v20.55c.01.56.25,1.1.65,1.5.4.4.95.63,1.52.64h1.01c.57-.01,1.11-.24,1.52-.64.4-.4.64-.94.65-1.5v-20.55c-.04-.56-.28-1.08-.68-1.47-.4-.39-.93-.63-1.49-.67" fill="#5B616E" />
<path d="m133.37,193.33c.98-.03,1.94.2,2.8.65.86.45,1.59,1.11,2.12,1.92.19.5.52.93.96,1.23.44.31.96.47,1.5.48h1.01c.29.02.59-.02.86-.14.27-.11.51-.29.69-.52.19-.22.31-.49.37-.78.06-.28.05-.58-.04-.85-1.45-4.28-5.36-6.71-10.43-6.71-6.66,0-11.73,4.57-11.73,12.7s4.92,12.7,11.73,12.7c5.36,0,8.98-2.86,10.28-6.42.08-.28.1-.57.04-.85-.06-.28-.19-.55-.37-.78-.18-.22-.42-.4-.69-.52-.27-.11-.56-.16-.86-.14h-1.16c-.53.05-1.03.23-1.46.53-.43.3-.78.71-1,1.18-.48.82-1.18,1.49-2.03,1.94-.84.45-1.79.67-2.75.63-3.76,0-6.37-2.85-6.37-8.13s2.61-8.14,6.52-8.14" fill="#5B616E" />
<path d="m208.09,209.31h-1.16c-.57-.01-1.12-.24-1.52-.64-.4-.4-.64-.93-.65-1.5v-11.56c.01-.56.25-1.1.65-1.5.41-.4.95-.63,1.52-.64h1.16c4.78,0,7.24,2.43,7.24,7.85s-2.46,7.99-7.24,7.99m.29-20.26h-6.81c-.57.01-1.12.25-1.52.65-.4.4-.64.93-.65,1.5v20.55c.01.56.25,1.1.65,1.5.41.4.95.63,1.52.64h6.81c7.67,0,12.31-4.71,12.31-12.41s-4.78-12.42-12.31-12.42" fill="#5B616E" />
<path d="m246.75,209.46h-7.39c-.57-.01-1.11-.24-1.52-.64-.4-.4-.64-.94-.65-1.5v-1.71c.01-.56.25-1.1.65-1.5.41-.4.95-.63,1.52-.64h6.37c.58,0,1.13-.23,1.54-.63.41-.4.64-.94.64-1.51s-.23-1.11-.64-1.51c-.4-.4-.96-.63-1.54-.63h-6.37c-.57-.01-1.11-.25-1.52-.64-.4-.4-.64-.94-.65-1.5v-1.71c.01-.56.25-1.1.65-1.5.41-.4.95-.63,1.52-.64h7.24c.58,0,1.13-.23,1.54-.63.41-.4.64-.94.64-1.51s-.23-1.11-.64-1.51c-.41-.4-.96-.63-1.54-.63h-12.6c-.57.01-1.11.24-1.52.64-.4.4-.64.93-.65,1.5v20.55c.01.56.25,1.1.65,1.5.41.4.95.63,1.52.64h12.74c.57-.01,1.11-.24,1.52-.64.4-.4.64-.93.65-1.5,0-.28-.04-.56-.15-.83-.11-.26-.27-.5-.47-.7-.2-.2-.44-.36-.71-.46-.27-.11-.55-.15-.84-.15" fill="#5B616E" />
<path d="m279.48,189.05h-1.02c-.57.01-1.11.25-1.52.65-.4.4-.64.93-.65,1.5v13.27q0,.14-.15.14h-.14l-10.14-14.56c-.2-.27-.46-.49-.76-.64-.3-.15-.64-.22-.98-.22h-1.36c-.57.01-1.11.25-1.52.64-.41.4-.64.94-.65,1.5v20.55c.01.56.25,1.1.65,1.5.4.4.95.63,1.52.64h1.02c.57-.01,1.11-.25,1.52-.64.41-.4.64-.93.65-1.5v-13.41s.02-.07.04-.1c.03-.03.06-.04.1-.04h.14l10.28,14.56c.19.27.46.49.76.64.3.15.64.22.98.22h1.3c.57-.01,1.11-.24,1.52-.64.4-.4.64-.93.65-1.5v-20.55c-.1-.53-.37-1.02-.78-1.38-.41-.36-.93-.58-1.48-.62" fill="#5B616E" />
</svg>
