<svg width="1160" height="302" viewBox="0 0 1160 302" fill="none" xmlns="http://www.w3.org/2000/svg">
<mask id="mask0_3681_1720" style="mask-type:luminance" maskUnits="userSpaceOnUse" x="0" y="0" width="301" height="302">
<path d="M301 0.5H0V301.5H301V0.5Z" fill="white"/>
</mask>
<g mask="url(#mask0_3681_1720)">
<path fill-rule="evenodd" clip-rule="evenodd" d="M122.208 119.923C122.208 103.118 116.439 87.6411 106.807 75.4004L58.2951 159.329H110.469C117.893 148.017 122.208 134.472 122.208 119.923ZM264.857 179.496C265.509 179.22 265.885 178.618 265.885 177.916V167.08C265.885 165.976 264.806 165.149 263.728 165.45C263.728 165.45 212.182 177.289 211.58 177.464C210.978 177.64 210.752 177.991 210.752 177.991C205.535 184.989 194.548 196.603 188.428 196.603H160.033V177.966H182.659C185.894 177.966 188.98 176.662 191.212 174.354C202.826 162.314 209.548 147.992 209.548 132.615C209.548 106.403 189.958 83.2264 160.033 69.255V56.7384C160.033 51.3455 155.669 46.981 150.276 46.981C144.883 46.981 140.519 51.3455 140.519 56.7384V61.9307C132.141 59.4725 123.261 57.6163 113.98 56.5377C129.331 73.2182 138.713 95.5172 138.713 119.973C138.713 141.896 131.213 162.038 118.621 177.991H140.519V196.653H108.462C104.123 196.653 100.611 193.142 100.611 188.802V180.65C100.611 179.22 99.4569 178.041 98.0021 178.041H55.7366C54.9089 178.041 54.2066 178.719 54.2066 179.546C54.1815 212.932 80.5942 237.991 112.174 237.991H201.346C217.584 237.991 227.001 222.178 236.078 206.934C238.948 202.116 241.783 197.354 244.79 193.167C249.656 186.419 261.32 181.001 264.857 179.496ZM149 278C224.111 278 285 217.111 285 142C285 66.8893 224.111 6 149 6C73.8893 6 13 66.8893 13 142C13 217.111 73.8893 278 149 278Z" fill="#5B616E"/>
</g>
<path d="M423.245 216.309C411.338 216.309 400.403 213.514 390.44 207.925C380.477 202.336 372.58 194.621 366.748 184.779C360.916 174.816 358 163.578 358 151.063C358 138.67 360.916 127.553 366.748 117.711C372.58 107.748 380.477 99.9725 390.44 94.3835C400.403 88.7945 411.338 86 423.245 86C435.274 86 446.209 88.7945 456.05 94.3835C466.013 99.9725 473.85 107.748 479.561 117.711C485.393 127.553 488.309 138.67 488.309 151.063C488.309 163.578 485.393 174.816 479.561 184.779C473.85 194.621 466.013 202.336 456.05 207.925C446.087 213.514 435.152 216.309 423.245 216.309ZM423.245 193.527C430.9 193.527 437.643 191.826 443.475 188.424C449.307 184.901 453.863 179.919 457.144 173.48C460.424 167.04 462.065 159.568 462.065 151.063C462.065 142.558 460.424 135.147 457.144 128.829C453.863 122.389 449.307 117.468 443.475 114.066C437.643 110.664 430.9 108.963 423.245 108.963C415.591 108.963 408.787 110.664 402.833 114.066C397.001 117.468 392.445 122.389 389.165 128.829C385.884 135.147 384.244 142.558 384.244 151.063C384.244 159.568 385.884 167.04 389.165 173.48C392.445 179.919 397.001 184.901 402.833 188.424C408.787 191.826 415.591 193.527 423.245 193.527Z" fill="#5B616E"/>
<path d="M525.517 128.646C528.798 124.029 533.293 120.202 539.004 117.165C544.836 114.006 551.457 112.426 558.869 112.426C567.495 112.426 575.271 114.552 582.197 118.805C589.244 123.057 594.772 129.132 598.782 137.03C602.913 144.806 604.978 153.858 604.978 164.185C604.978 174.513 602.913 183.686 598.782 191.705C594.772 199.602 589.244 205.738 582.197 210.112C575.271 214.486 567.495 216.673 558.869 216.673C551.457 216.673 544.896 215.154 539.186 212.117C533.597 209.079 529.041 205.252 525.517 200.635V263.147H500.002V114.066H525.517V128.646ZM578.916 164.185C578.916 158.11 577.641 152.886 575.089 148.512C572.659 144.016 569.379 140.614 565.248 138.306C561.238 135.997 556.864 134.843 552.126 134.843C547.509 134.843 543.135 136.058 539.004 138.488C534.994 140.796 531.714 144.198 529.162 148.694C526.732 153.189 525.517 158.475 525.517 164.55C525.517 170.625 526.732 175.91 529.162 180.405C531.714 184.901 534.994 188.364 539.004 190.794C543.135 193.102 547.509 194.256 552.126 194.256C556.864 194.256 561.238 193.041 565.248 190.611C569.379 188.181 572.659 184.719 575.089 180.223C577.641 175.728 578.916 170.382 578.916 164.185Z" fill="#5B616E"/>
<path d="M715.554 162.363C715.554 166.008 715.311 169.288 714.825 172.204H641.014C641.622 179.494 644.173 185.205 648.669 189.336C653.164 193.467 658.692 195.532 665.253 195.532C674.73 195.532 681.474 191.462 685.483 183.321H713.003C710.087 193.041 704.498 201.06 696.236 207.378C687.974 213.575 677.829 216.673 665.8 216.673C656.08 216.673 647.332 214.547 639.556 210.294C631.902 205.92 625.887 199.785 621.513 191.887C617.261 183.99 615.135 174.877 615.135 164.55C615.135 154.101 617.261 144.927 621.513 137.03C625.766 129.132 631.719 123.057 639.374 118.805C647.028 114.552 655.837 112.426 665.8 112.426C675.399 112.426 683.964 114.492 691.497 118.623C699.152 122.754 705.045 128.646 709.176 136.301C713.428 143.834 715.554 152.521 715.554 162.363ZM689.128 155.073C689.007 148.512 686.637 143.287 682.02 139.399C677.403 135.39 671.754 133.385 665.071 133.385C658.753 133.385 653.407 135.329 649.033 139.217C644.781 142.983 642.168 148.269 641.196 155.073H689.128Z" fill="#5B616E"/>
<path d="M784.661 112.608C796.69 112.608 806.41 116.436 813.821 124.09C821.233 131.623 824.939 142.194 824.939 155.802V215.033H799.424V159.264C799.424 151.245 797.419 145.11 793.409 140.857C789.4 136.483 783.932 134.296 777.007 134.296C769.96 134.296 764.371 136.483 760.24 140.857C756.23 145.11 754.226 151.245 754.226 159.264V215.033H728.711V114.066H754.226V126.642C757.628 122.268 761.941 118.866 767.165 116.436C772.511 113.884 778.343 112.608 784.661 112.608Z" fill="#5B616E"/>
<path d="M884.012 216.309C875.142 216.309 867.123 214.79 859.955 211.752C852.908 208.715 847.319 204.341 843.188 198.63C839.057 192.92 836.93 186.177 836.809 178.401H864.146C864.511 183.625 866.333 187.756 869.614 190.794C873.016 193.831 877.633 195.35 883.465 195.35C889.418 195.35 894.096 193.953 897.498 191.158C900.9 188.242 902.601 184.476 902.601 179.859C902.601 176.092 901.447 172.994 899.138 170.564C896.83 168.134 893.914 166.251 890.39 164.914C886.988 163.456 882.25 161.877 876.175 160.176C867.913 157.746 861.17 155.376 855.945 153.068C850.842 150.638 846.407 147.054 842.641 142.315C838.996 137.455 837.173 131.016 837.173 122.997C837.173 115.464 839.057 108.903 842.823 103.314C846.59 97.7247 851.875 93.4722 858.679 90.5562C865.483 87.5187 873.259 86 882.007 86C895.129 86 905.76 89.2197 913.901 95.6592C922.163 101.977 926.719 110.847 927.569 122.268H899.503C899.26 117.894 897.377 114.309 893.853 111.515C890.451 108.599 885.895 107.141 880.184 107.141C875.203 107.141 871.193 108.417 868.156 110.968C865.24 113.52 863.782 117.225 863.782 122.085C863.782 125.487 864.875 128.343 867.062 130.651C869.371 132.838 872.165 134.661 875.446 136.119C878.848 137.455 883.586 139.035 889.661 140.857C897.923 143.287 904.667 145.717 909.891 148.147C915.116 150.577 919.611 154.222 923.378 159.082C927.144 163.942 929.027 170.321 929.027 178.218C929.027 185.022 927.266 191.34 923.742 197.172C920.219 203.004 915.055 207.682 908.251 211.206C901.447 214.608 893.367 216.309 884.012 216.309Z" fill="#5B616E"/>
<path d="M1037.72 162.363C1037.72 166.008 1037.47 169.288 1036.99 172.204H963.177C963.784 179.494 966.335 185.205 970.831 189.336C975.326 193.467 980.855 195.532 987.416 195.532C996.893 195.532 1003.64 191.462 1007.65 183.321H1035.17C1032.25 193.041 1026.66 201.06 1018.4 207.378C1010.14 213.575 999.991 216.673 987.962 216.673C978.242 216.673 969.495 214.547 961.719 210.294C954.064 205.92 948.05 199.785 943.676 191.887C939.423 183.99 937.297 174.877 937.297 164.55C937.297 154.101 939.423 144.927 943.676 137.03C947.928 129.132 953.882 123.057 961.536 118.805C969.191 114.552 977.999 112.426 987.962 112.426C997.561 112.426 1006.13 114.492 1013.66 118.623C1021.31 122.754 1027.21 128.646 1031.34 136.301C1035.59 143.834 1037.72 152.521 1037.72 162.363ZM1011.29 155.073C1011.17 148.512 1008.8 143.287 1004.18 139.399C999.566 135.39 993.916 133.385 987.233 133.385C980.915 133.385 975.569 135.329 971.195 139.217C966.943 142.983 964.331 148.269 963.359 155.073H1011.29Z" fill="#5B616E"/>
<path d="M1046.13 164.185C1046.13 153.979 1048.14 144.927 1052.15 137.03C1056.28 129.132 1061.81 123.057 1068.73 118.805C1075.78 114.552 1083.62 112.426 1092.24 112.426C1099.78 112.426 1106.34 113.945 1111.93 116.982C1117.64 120.02 1122.19 123.847 1125.6 128.464V114.066H1151.29V215.033H1125.6V200.271C1122.31 205.009 1117.76 208.958 1111.93 212.117C1106.22 215.154 1099.59 216.673 1092.06 216.673C1083.56 216.673 1075.78 214.486 1068.73 210.112C1061.81 205.738 1056.28 199.602 1052.15 191.705C1048.14 183.686 1046.13 174.513 1046.13 164.185ZM1125.6 164.55C1125.6 158.353 1124.38 153.068 1121.95 148.694C1119.52 144.198 1116.24 140.796 1112.11 138.488C1107.98 136.058 1103.54 134.843 1098.8 134.843C1094.07 134.843 1089.69 135.997 1085.68 138.306C1081.67 140.614 1078.39 144.016 1075.84 148.512C1073.41 152.886 1072.2 158.11 1072.2 164.185C1072.2 170.26 1073.41 175.606 1075.84 180.223C1078.39 184.719 1081.67 188.181 1085.68 190.611C1089.81 193.041 1094.19 194.256 1098.8 194.256C1103.54 194.256 1107.98 193.102 1112.11 190.794C1116.24 188.364 1119.52 184.962 1121.95 180.588C1124.38 176.092 1125.6 170.746 1125.6 164.55Z" fill="#5B616E"/>
</svg>
