<svg width="323" height="91" viewBox="0 0 323 91" fill="none" xmlns="http://www.w3.org/2000/svg">
<path fill-rule="evenodd" clip-rule="evenodd" d="M60 46C60 62.5685 46.5685 76 30 76C13.4315 76 0 62.5685 0 46C0 29.4315 13.4315 16 30 16C46.5685 16 60 29.4315 60 46ZM41.2 38.6154C41.2 35.8818 40.1732 33.2328 38.2945 31.1198C36.4159 29.0067 33.8016 27.5603 30.8972 27.027C27.9927 26.4937 24.9778 26.9066 22.3661 28.1951C19.7544 29.4837 17.7076 31.5684 16.5743 34.0938C15.4411 36.6193 15.2915 39.4294 16.1512 42.0452C17.0108 44.6611 18.8264 46.9208 21.2887 48.4395C23.4079 49.7466 25.8932 50.4351 28.4236 50.4308H28.3997V41.1664C27.2649 40.9758 26.4002 39.9887 26.4002 38.7997C26.4002 37.4742 27.4747 36.3997 28.8002 36.3997C30.0637 36.3997 31.0991 37.376 31.1932 38.6154H41.2ZM18.7998 53.3847H28.8071C28.9014 54.6239 29.9367 55.6 31.2001 55.6C32.5256 55.6 33.6001 54.5255 33.6001 53.2001C33.6001 52.0106 32.7349 51.0233 31.5995 50.8331V41.5693C38.6688 41.5693 44.3998 46.8591 44.3998 53.3845C44.3998 59.91 38.6691 65.1999 31.5998 65.1999C24.5306 65.1999 18.7999 59.9101 18.7998 53.3847Z" fill="#5B616E"/>
<path d="M91.9797 33.68C87.6197 33.68 85.4397 35.12 85.4397 38C85.4397 39.28 85.9797 40.26 87.0597 40.94C88.1397 41.62 90.6597 42.6 94.6197 43.88C98.6197 45.16 101.42 46.62 103.02 48.26C104.62 49.86 105.42 52.34 105.42 55.7C105.42 59.98 104.12 63.22 101.52 65.42C98.9197 67.62 95.5197 68.72 91.3197 68.72C88.1997 68.72 84.3797 68.24 79.8597 67.28L77.6997 66.86L78.5397 60.44C83.8997 61.16 87.9997 61.52 90.8397 61.52C95.0797 61.52 97.1997 59.76 97.1997 56.24C97.1997 54.96 96.6997 53.96 95.6997 53.24C94.7397 52.52 92.7997 51.74 89.8797 50.9C85.2397 49.58 81.9597 48.02 80.0397 46.22C78.1597 44.38 77.2197 41.84 77.2197 38.6C77.2197 34.52 78.4597 31.48 80.9397 29.48C83.4197 27.48 86.8197 26.48 91.1397 26.48C94.0997 26.48 97.8597 26.88 102.42 27.68L104.58 28.1L103.92 34.64C98.2797 34 94.2997 33.68 91.9797 33.68ZM117.957 56.42C117.997 58.26 118.477 59.6 119.397 60.44C120.357 61.24 121.717 61.64 123.477 61.64C127.197 61.64 130.517 61.52 133.437 61.28L135.117 61.1L135.237 67.04C130.637 68.16 126.477 68.72 122.757 68.72C118.237 68.72 114.957 67.52 112.917 65.12C110.877 62.72 109.857 58.82 109.857 53.42C109.857 42.66 114.277 37.28 123.117 37.28C131.837 37.28 136.197 41.8 136.197 50.84L135.597 56.42H117.957ZM128.277 50.3C128.277 47.9 127.897 46.24 127.137 45.32C126.377 44.36 125.037 43.88 123.117 43.88C121.237 43.88 119.897 44.38 119.097 45.38C118.337 46.34 117.937 47.98 117.897 50.3H128.277ZM164.923 47.36V59.84C165.003 60.8 165.163 61.48 165.403 61.88C165.643 62.24 166.143 62.5 166.903 62.66L166.663 68.72C164.623 68.72 162.983 68.58 161.743 68.3C160.543 68.02 159.323 67.46 158.083 66.62C155.203 68.02 152.263 68.72 149.263 68.72C143.063 68.72 139.963 65.44 139.963 58.88C139.963 55.68 140.823 53.42 142.543 52.1C144.263 50.74 146.903 49.94 150.463 49.7L156.883 49.22V47.36C156.883 46.12 156.603 45.28 156.043 44.84C155.483 44.36 154.583 44.12 153.343 44.12L142.063 44.6L141.823 39.02C146.103 37.86 150.163 37.28 154.003 37.28C157.883 37.28 160.663 38.08 162.343 39.68C164.063 41.28 164.923 43.84 164.923 47.36ZM151.423 55.28C149.183 55.48 148.063 56.68 148.063 58.88C148.063 61.08 149.043 62.18 151.003 62.18C152.523 62.18 154.183 61.94 155.983 61.46L156.883 61.22V54.8L151.423 55.28ZM180.627 68H172.587V38H180.567V39.68C183.327 38.08 185.687 37.28 187.647 37.28C190.887 37.28 193.387 38.22 195.147 40.1C198.827 38.22 202.187 37.28 205.227 37.28C209.187 37.28 211.927 38.44 213.447 40.76C215.007 43.04 215.787 46.7 215.787 51.74V68H207.747V51.98C207.747 49.42 207.467 47.54 206.907 46.34C206.347 45.1 205.227 44.48 203.547 44.48C202.267 44.48 200.707 44.76 198.867 45.32L197.967 45.62C198.127 48.62 198.207 50.9 198.207 52.46V68H190.167V52.58C190.167 49.62 189.907 47.54 189.387 46.34C188.867 45.1 187.727 44.48 185.967 44.48C184.407 44.48 182.867 44.76 181.347 45.32L180.627 45.56V68ZM223.279 68V26H231.319V68H223.279ZM245.691 56.42C245.731 58.26 246.211 59.6 247.131 60.44C248.091 61.24 249.451 61.64 251.211 61.64C254.931 61.64 258.251 61.52 261.171 61.28L262.851 61.1L262.971 67.04C258.371 68.16 254.211 68.72 250.491 68.72C245.971 68.72 242.691 67.52 240.651 65.12C238.611 62.72 237.591 58.82 237.591 53.42C237.591 42.66 242.011 37.28 250.851 37.28C259.571 37.28 263.931 41.8 263.931 50.84L263.331 56.42H245.691ZM256.011 50.3C256.011 47.9 255.631 46.24 254.871 45.32C254.111 44.36 252.771 43.88 250.851 43.88C248.971 43.88 247.631 44.38 246.831 45.38C246.071 46.34 245.671 47.98 245.631 50.3H256.011ZM291.217 45.5C286.257 44.86 282.777 44.54 280.777 44.54C278.817 44.54 277.537 44.72 276.937 45.08C276.377 45.44 276.097 46.02 276.097 46.82C276.097 47.58 276.477 48.12 277.237 48.44C278.037 48.72 280.037 49.16 283.237 49.76C286.477 50.32 288.777 51.26 290.137 52.58C291.497 53.9 292.177 56.04 292.177 59C292.177 65.48 288.157 68.72 280.117 68.72C277.477 68.72 274.277 68.36 270.517 67.64L268.597 67.28L268.837 60.56C273.797 61.2 277.237 61.52 279.157 61.52C281.117 61.52 282.437 61.34 283.117 60.98C283.837 60.58 284.197 60 284.197 59.24C284.197 58.48 283.817 57.92 283.057 57.56C282.337 57.2 280.417 56.76 277.297 56.24C274.217 55.72 271.917 54.84 270.397 53.6C268.877 52.36 268.117 50.16 268.117 47C268.117 43.8 269.197 41.4 271.357 39.8C273.517 38.16 276.297 37.34 279.697 37.34C282.057 37.34 285.277 37.72 289.357 38.48L291.337 38.84L291.217 45.5ZM319.518 45.5C314.558 44.86 311.078 44.54 309.078 44.54C307.118 44.54 305.838 44.72 305.238 45.08C304.678 45.44 304.398 46.02 304.398 46.82C304.398 47.58 304.778 48.12 305.538 48.44C306.338 48.72 308.338 49.16 311.538 49.76C314.778 50.32 317.078 51.26 318.438 52.58C319.798 53.9 320.478 56.04 320.478 59C320.478 65.48 316.458 68.72 308.418 68.72C305.778 68.72 302.578 68.36 298.818 67.64L296.898 67.28L297.138 60.56C302.098 61.2 305.538 61.52 307.458 61.52C309.418 61.52 310.738 61.34 311.418 60.98C312.138 60.58 312.498 60 312.498 59.24C312.498 58.48 312.118 57.92 311.358 57.56C310.638 57.2 308.718 56.76 305.598 56.24C302.518 55.72 300.218 54.84 298.698 53.6C297.178 52.36 296.418 50.16 296.418 47C296.418 43.8 297.498 41.4 299.658 39.8C301.818 38.16 304.598 37.34 307.998 37.34C310.358 37.34 313.578 37.72 317.658 38.48L319.638 38.84L319.518 45.5Z" fill="#5B616E"/>
</svg>
