<svg width="1001" height="251" viewBox="0 0 1001 251" fill="none" xmlns="http://www.w3.org/2000/svg">
<path d="M83.9071 23.932C80.7921 23.4516 80.6608 23.3952 82.1267 23.1712C84.9358 22.7417 91.5688 23.3271 96.1397 24.4077C106.811 26.9297 116.521 33.3903 126.885 44.8644L129.639 47.9126L133.578 47.283C150.173 44.6314 167.055 46.7388 181.176 53.2244C185.06 55.0087 191.185 58.5605 191.95 59.4732C192.194 59.7642 192.641 61.6366 192.945 63.6347C193.993 70.5471 193.468 75.8456 191.342 79.803C190.185 81.9566 190.12 82.6391 190.898 84.4821C191.519 85.9528 193.251 87.0413 194.965 87.0389C198.474 87.0343 202.251 81.3943 204.001 73.5468L204.696 70.4297L206.073 71.9806C213.627 80.4894 219.559 92.0935 220.579 100.353L220.844 102.507L219.574 100.549C217.389 97.1802 215.194 94.8868 212.382 93.0371C207.314 89.7031 201.956 88.5683 187.764 87.8248C174.947 87.1533 167.693 86.0648 160.5 83.7327C148.262 79.7655 142.093 74.4818 127.556 55.5182C121.099 47.0951 117.108 42.4348 113.138 38.6818C104.117 30.1542 95.2535 25.6819 83.9071 23.932Z" fill="#5B616E"/>
<path d="M194.841 42.7386C195.163 37.0943 195.933 33.3715 197.481 29.9716C198.094 28.6258 198.668 27.5244 198.756 27.5244C198.845 27.5244 198.578 28.5178 198.164 29.7316C197.039 33.0312 196.854 37.5442 197.629 42.795C198.613 49.4572 199.173 50.4185 206.255 57.6152C209.577 60.9908 213.441 65.2481 214.841 67.0759L217.388 70.3994L214.841 68.0242C211.727 65.1197 204.564 59.4551 202.982 58.6454C201.921 58.1023 201.763 58.1117 201.109 58.7593C200.506 59.3561 200.379 60.2527 200.295 64.4917C200.165 71.0983 199.259 75.3388 197.073 79.579C195.891 81.8723 195.705 81.3829 196.774 78.7943C197.573 76.8616 197.654 76.0119 197.648 69.6163C197.636 56.7659 196.102 53.6766 187.103 48.3844C184.824 47.0437 181.068 45.1102 178.757 44.0875C176.446 43.0647 174.61 42.1739 174.677 42.1074C174.932 41.8552 183.707 44.4019 187.239 45.7527C192.493 47.7622 193.36 48.0226 193.999 47.7802C194.426 47.6177 194.633 46.3792 194.841 42.7386Z" fill="#5B616E"/>
<path d="M89.957 64.7221C83.6334 56.066 79.7208 42.7944 80.5679 32.8732L80.8298 29.803L82.2692 30.0642C84.9723 30.5544 89.633 32.2792 91.8154 33.5972C97.8043 37.2136 100.397 41.9749 103.035 54.2011C103.808 57.7822 104.822 61.8348 105.288 63.2068C106.039 65.4151 108.877 70.5735 111.184 73.9236C112.845 76.3363 111.741 77.4797 108.068 77.15C102.458 76.6464 94.8591 71.4321 89.957 64.7221Z" fill="#5B616E"/>
<path d="M187.171 129.145C157.619 117.314 147.21 107.045 147.21 89.7187C147.21 87.1689 147.299 85.0828 147.406 85.0828C147.514 85.0828 148.657 85.9242 149.947 86.9528C155.94 91.7317 162.65 93.7728 181.227 96.4675C192.159 98.0533 198.311 99.3341 203.986 101.205C222.023 107.153 233.183 119.223 235.844 135.663C236.617 140.44 236.164 149.398 234.91 154.12C233.92 157.849 230.9 164.571 230.099 164.828C229.877 164.9 229.659 164.053 229.602 162.902C229.298 156.729 226.16 150.719 220.891 146.217C214.9 141.098 206.851 137.023 187.171 129.145Z" fill="#5B616E"/>
<path d="M166.424 134.059C166.054 131.869 165.412 129.071 164.997 127.842L164.243 125.608L165.644 127.172C167.582 129.334 169.114 132.102 170.412 135.789C171.402 138.603 171.514 139.439 171.506 144.011C171.499 148.5 171.375 149.441 170.46 151.974C169.018 155.967 167.227 158.799 164.223 161.838C158.825 167.301 151.885 170.325 141.869 171.58C140.128 171.798 135.054 172.165 130.593 172.395C119.351 172.977 111.952 174.178 105.304 176.499C104.348 176.833 103.495 177.036 103.408 176.95C103.139 176.683 107.666 174 111.404 172.21C116.676 169.685 121.924 168.307 133.683 166.36C139.491 165.398 145.489 164.231 147.013 163.767C161.397 159.382 168.791 148.066 166.424 134.059Z" fill="#5B616E"/>
<path d="M179.971 157.98C176.045 149.588 175.143 141.485 177.294 133.929C177.525 133.122 177.894 132.461 178.117 132.461C178.34 132.461 179.266 132.959 180.176 133.567C181.985 134.778 185.614 136.818 195.282 142.059C207.346 148.598 214.224 153.662 218.901 159.448C222.998 164.515 225.533 170.285 226.753 177.322C227.444 181.308 227.039 190.899 226.01 194.913C222.767 207.569 215.228 217.51 204.476 223.311C202.901 224.161 201.486 224.858 201.333 224.862C201.18 224.865 201.754 223.414 202.609 221.637C206.226 214.119 206.638 206.806 203.903 198.667C202.229 193.683 198.815 187.602 191.922 177.324C183.908 165.375 181.943 162.194 179.971 157.98Z" fill="#5B616E"/>
<path d="M68.971 203.261C79.9376 194.054 93.5826 187.514 106.012 185.506C111.368 184.641 120.292 184.984 125.252 186.247C133.203 188.27 140.316 192.801 144.014 198.2C147.63 203.477 149.18 208.075 150.795 218.305C151.432 222.341 152.125 226.393 152.334 227.311C153.547 232.613 155.907 236.851 158.831 238.979C163.476 242.359 171.473 242.57 179.341 239.518C180.676 239 181.835 238.642 181.917 238.723C182.202 239.005 178.24 241.642 175.445 243.03C171.685 244.897 168.695 245.619 164.721 245.619C157.515 245.619 151.533 241.975 146.541 234.543C145.559 233.081 143.351 228.7 141.635 224.809C136.365 212.857 133.762 209.216 127.643 205.231C122.317 201.764 115.449 201.143 110.282 203.662C103.495 206.97 101.602 215.594 106.463 221.059C108.395 223.231 111.997 225.104 114.943 225.468C120.455 226.15 125.191 221.981 125.191 216.449C125.191 212.857 123.802 210.806 120.306 209.238C115.532 207.096 110.399 209.6 110.424 214.059C110.435 215.961 111.267 217.155 113.185 218.018C114.415 218.571 114.443 218.615 113.44 218.408C109.059 217.505 108.033 212.254 111.556 208.767C115.785 204.582 124.53 206.429 127.533 212.142C128.794 214.541 128.941 219.32 127.841 222.205C125.379 228.664 118.201 232.06 110.92 230.212C105.962 228.954 103.944 227.591 97.9668 221.47C87.5807 210.832 83.5486 208.771 68.5754 206.447L65.7061 206.002L68.971 203.261Z" fill="#5B616E"/>
<path fill-rule="evenodd" clip-rule="evenodd" d="M20.238 12.8725C54.9228 54.7287 78.812 71.9978 81.4668 75.6463C83.6586 78.6589 82.8337 81.3673 79.0786 83.4899C76.9904 84.6701 72.6972 85.8658 70.5477 85.8658C68.1164 85.8658 67.2817 84.9333 67.2817 84.9333C65.872 83.604 65.0781 83.8365 57.839 71.0602C47.7887 55.5547 39.378 42.6922 39.1485 42.4768C38.618 41.9788 38.6271 41.9956 56.8142 74.3508C59.7527 81.0944 57.3987 83.5698 57.3987 84.5303C57.3987 86.4841 56.8626 87.5112 54.4385 90.1996C50.3973 94.682 48.5908 99.7186 47.2868 110.142C45.8248 121.827 41.714 130.081 30.3218 144.207C23.6531 152.476 22.562 153.992 20.8793 157.325C18.7598 161.522 18.177 163.873 17.9408 169.173C17.6911 174.776 18.1774 178.396 19.8992 183.754C21.4066 188.444 22.9801 191.542 27.0027 197.736C30.4741 203.082 32.4729 207.055 32.4729 208.609C32.4729 209.846 32.7103 209.847 38.0895 208.64C50.9627 205.749 61.4157 200.666 67.2946 194.436C70.933 190.58 71.7872 188.451 71.8149 183.167C71.8331 179.71 71.7108 178.987 70.7712 176.999C69.2416 173.762 66.4571 171.072 60.3198 166.9C52.2783 161.434 48.8436 157.034 47.8949 150.983C47.1166 146.017 48.0195 142.514 52.4681 133.244C57.0727 123.648 58.2137 119.559 58.9856 109.887C59.4842 103.638 60.1746 101.174 61.9803 99.1955C63.8636 97.1328 65.5589 96.4342 70.2197 95.8011C77.8181 94.769 82.6564 92.8143 86.6335 89.1706C90.0835 86.0096 91.5272 82.9637 91.7488 78.3786L91.917 74.9032L89.989 72.6682C83.007 64.574 15.5622 6.50977 15.1325 6.50977C15.0407 6.50977 17.3383 9.37319 20.238 12.8725ZM36.3922 175.513C37.9708 172.734 37.1321 169.16 34.4915 167.415C31.9966 165.765 28.1208 166.542 28.1208 168.691C28.1208 169.347 28.4856 169.825 29.3077 170.245C30.6921 170.954 30.7926 171.75 29.7034 173.378C28.6003 175.026 28.6893 176.476 29.9546 177.461C31.9938 179.048 34.8804 178.175 36.3922 175.513Z" fill="#5B616E"/>
<path fill-rule="evenodd" clip-rule="evenodd" d="M96.7118 97.6241C93.1447 98.7134 89.6772 102.472 88.6038 106.414C87.949 108.818 88.3205 113.036 89.3013 114.339C90.8859 116.443 92.4182 116.997 96.5674 116.968C104.691 116.912 111.753 113.448 112.574 109.117C113.247 105.567 110.145 100.648 105.873 98.4878C103.669 97.3739 98.9801 96.9318 96.7118 97.6241ZM106.208 105.007C107.461 103.237 106.913 101.325 104.782 100.031C100.725 97.5677 94.5892 99.6061 94.5892 103.417C94.5892 105.314 97.7888 107.384 100.722 107.384C102.674 107.384 105.345 106.227 106.208 105.007Z" fill="#5B616E"/>
<path d="M909.862 235.836V109.553H928.088V123.874C933.11 115.691 942.781 107.321 958.961 107.321C983.139 107.321 1000.62 126.478 1000.62 155.491C1000.62 184.504 983.139 203.661 958.961 203.661C942.409 203.661 932.924 194.919 928.274 187.48V235.836H909.862ZM954.684 188.968C972.724 188.968 981.465 173.903 981.465 155.491C981.465 137.079 972.724 122.014 954.684 122.014C936.643 122.014 927.53 137.451 927.53 155.491C927.53 173.531 936.643 188.968 954.684 188.968Z" fill="#5B616E"/>
<path d="M841.153 203.661C824.6 203.661 809.721 193.617 809.721 176.507C809.721 159.769 821.438 152.143 841.339 148.238L853.985 145.634C863.842 143.588 868.492 141.542 868.492 133.917C868.492 126.292 862.169 120.898 851.01 120.898C838.921 120.898 831.109 128.337 830.366 140.612L811.395 138.938C812.697 119.224 828.506 107.321 851.196 107.321C874.629 107.321 887.09 118.666 887.09 138.009V201.429H869.422V190.642H869.236C864.958 197.709 855.473 203.661 841.153 203.661ZM845.988 190.456C859.007 190.456 869.236 181.901 869.236 166.65V155.491C849.894 158.653 840.781 161.256 835.201 164.79C830.923 167.394 828.506 171.113 828.506 176.135C828.506 184.69 835.573 190.456 845.988 190.456Z" fill="#5B616E"/>
<path d="M691.368 201.431L662.168 109.556H681.697L701.783 178.927H701.969L722.799 109.556H741.211L762.227 178.741H762.413L782.499 109.556H801.656L772.456 201.431H753.114L732.284 130.572H732.098L710.896 201.431H691.368Z" fill="#5B616E"/>
<path d="M617.104 203.661C594.228 203.661 577.489 193.06 575.443 171.113L593.67 168.882C594.6 183.388 604.829 190.084 617.476 190.084C629.937 190.084 638.306 184.504 638.306 175.577C638.306 166.65 629.751 164.79 618.22 162.186L604.643 159.025C589.764 155.491 579.535 148.424 579.535 134.289C579.535 118.666 594.972 107.321 616.732 107.321C637.748 107.321 652.068 117.922 654.486 135.033L636.074 137.637C634.772 126.664 626.775 120.898 615.988 120.898C605.015 120.898 597.947 126.292 597.947 133.359C597.947 140.054 602.039 142.472 613.57 145.076L627.147 148.238C646.489 152.701 656.718 159.025 656.718 173.717C656.718 192.13 639.608 203.661 617.104 203.661Z" fill="#5B616E"/>
<path d="M541.157 201.431V109.555H559.57V201.431H541.157ZM541.157 95.2346V73.4746H559.57V95.2346H541.157Z" fill="#5B616E"/>
<path d="M438.22 201.429V109.553H456.446V122.572H456.632C461.84 114.575 472.069 107.321 486.018 107.321C506.476 107.321 518.565 119.596 518.565 141.914V201.429H500.152V149.911C500.152 133.359 496.433 122.758 480.996 122.758C465.559 122.758 456.632 135.219 456.632 150.097V201.429H438.22Z" fill="#5B616E"/>
<path d="M366.618 203.663C336.117 203.663 317.518 186.366 317.518 154.563V73.4746H336.861V153.447C336.861 174.091 346.532 187.482 366.618 187.482C388.378 187.482 396.375 174.091 396.375 153.447V73.4746H415.718V154.563C415.718 186.366 397.119 203.663 366.618 203.663Z" fill="#5B616E"/>
</svg>
