<svg width="311" height="200" viewBox="0 0 311 200" fill="none" xmlns="http://www.w3.org/2000/svg">
<g clip-path="url(#clip0_3667_2930)">
<path fill-rule="evenodd" clip-rule="evenodd" d="M211.5 107.4C236.1 98.8 259.2 84.2 276.9 68.3C277.6 67.7 278 66.8 278.1 65.8C278.2 64.9 277.9 63.9 277.3 63.2C276.7 62.4 275.9 61.9 275 61.8C274.1 61.6 273.1 61.8 272.3 62.3C254.6 72.9 235 81.3 214.9 86.4C215.5 78.8 215.4 71.1 214.4 63.4C212.1 46.4 206.4 29.5 194.4 16.6C181.1 1.89997 159.3 -3.60003 140.5 2.29997C117.9 8.99997 99.0998 29.4 98.3998 53.7C97.4998 85.7 127.3 111.7 157.6 114.7C161.1 115.1 164.7 115.3 168.3 115.3C162.7 127.5 155.5 139.2 147.7 150C123.9 110.7 88.0998 78.5 45.6998 60.9C35.6998 56.6 25.4998 53.3 14.9998 51C11.3998 50.3 7.99982 49.6 4.29982 49.2C3.39982 49.1 2.49982 49.4 1.69982 49.9C0.899824 50.4 0.399824 51.2 0.199824 52.1C-0.100176 53 -0.000176042 53.9 0.399824 54.7C0.799824 55.5 1.49982 56.2 2.29982 56.5C25.9998 68.2 47.7998 83.5 66.7998 101.9C91.3998 125.6 110.8 154.2 123.8 185.7C129.5 199.3 147.4 204.3 159.4 195.5C161.2 194.1 162.9 192.6 164.4 190.9C175.1 179.3 184.6 166.5 192.6 152.8C200.8 139 207.5 123.5 211.5 107.4ZM158.3 169.7L158.6 170.3C158.5 170.1 158.4 169.9 158.3 169.7ZM176.6 91.2C178.5 83.2 179.4 75 179.1 66.8C178.3 52.1 172.6 31.3 155.1 31C140 30.8 126.2 45.1 130.5 60.2C136.9 82.3 156 90.3 176.6 91.2Z" fill="#5B616E"/>
<path d="M288.5 53.3001C290 60.5001 292.4 65.1001 299.4 64.1001C305.4 63.3001 310.3 57.3001 310.3 51.3001C310.3 45.3001 305.4 41.5001 299.4 42.4001C291.9 43.6001 287.3 47.4001 288.5 53.3001Z" fill="#5B616E"/>
</g>
<defs>
<clipPath id="clip0_3667_2930">
<rect width="310.3" height="200" fill="white"/>
</clipPath>
</defs>
</svg>
