<svg width="237" height="38" viewBox="0 0 237 38" fill="none" xmlns="http://www.w3.org/2000/svg">
<path d="M29.6915 -0.00421143H0.0605469V29.6292H14.8799V14.8152H29.6915V-0.00421143ZM37.1063 22.2221H22.287V37.0416H37.1063V22.2221ZM51.2438 37.0416V36.4328L52.5593 36.0762C53.9858 35.6869 54.2302 35.436 54.2302 32.4419V17.6303C54.2302 14.6375 53.9781 14.3539 52.5581 13.9961L51.2452 13.6721V13.0634C53.8081 12.9587 58.5777 12.8125 62.0004 12.8125C66.0566 12.8125 71.4023 13.7373 71.4023 19.684C71.4023 25.628 65.099 27.6239 60.1831 27.6239L60.1506 26.2694C63.282 26.2366 66.3479 24.4535 66.3479 20.1778C66.3479 16.1869 64.0356 14.3043 60.6535 14.3043C60.1179 14.3043 59.4777 14.3371 59.0479 14.4103V32.425C59.0479 35.4191 59.4372 35.7757 60.8977 36.0605L62.9252 36.4171V37.0258H51.2452L51.2438 37.0416ZM73.7459 37.0416V36.5464L74.8483 36.2226C76.0974 35.8973 76.309 35.6869 76.309 33.1237V24.0471C76.309 21.4827 75.9522 21.2321 74.6694 20.9798L73.4206 20.6964V20.1607L79.9747 19.3091L80.1863 19.488V22.4405H80.2188C82.0347 20.1934 83.3894 19.1314 85.0616 19.1314C86.5208 19.1314 87.592 20.2026 87.592 21.6212C87.592 23.0412 86.3431 23.9335 85.3124 23.901L85.102 23.7965C84.7767 22.976 83.8924 22.3032 82.8552 22.3032C81.2156 22.3032 80.4384 23.5116 80.4384 24.3712V33.1316C80.4384 35.6948 80.7622 35.905 82.0034 36.1571L83.8192 36.5464V37.0416H73.7459ZM97.3191 37.5771C91.835 37.5771 88.5574 34.0892 88.5574 28.711C88.5574 23.3325 91.9082 19.0255 97.8534 19.0255C103.799 19.0255 106.687 22.7658 106.687 27.9323C106.687 33.415 102.947 37.5851 97.3179 37.5851L97.3191 37.5771ZM97.0018 20.3723C94.0088 20.3723 93.0513 23.4385 93.0513 26.7083C93.0513 29.7325 94.227 36.2551 98.0402 36.2551C101.172 36.2551 102.168 33.1564 102.168 29.9194C102.168 26.9264 100.92 20.3723 97.0018 20.3723ZM117.442 37.5771C111.96 37.5771 108.682 34.0892 108.682 28.711C108.682 23.3325 112.033 19.0255 117.978 19.0255C123.925 19.0255 126.812 22.7658 126.812 27.9323C126.812 33.415 123.073 37.5851 117.442 37.5851V37.5771ZM117.118 20.3723C114.125 20.3723 113.168 23.4385 113.168 26.7083C113.168 29.7325 114.344 36.2551 118.157 36.2551C121.288 36.2551 122.285 33.1564 122.285 29.9194C122.285 26.9264 121.036 20.3723 117.118 20.3723ZM127.875 37.0416V36.5464L128.978 36.2226C130.226 35.8973 130.438 35.6869 130.438 33.1237V21.9452H127.98L127.834 21.8003L128.191 20.5187L130.398 20.413L130.43 18.8466C130.535 14.2875 135.2 10.4114 139.474 10.4114C141.502 10.4114 143.425 11.548 143.425 13.2592C143.425 14.6453 142.247 15.5062 141.039 15.5062L140.829 15.4003C140.366 13.9398 139.158 12.4793 137.551 12.4793C134.81 12.4793 134.452 15.6839 134.452 17.7518V20.3475L139.222 20.1699V21.808L139.077 21.9544H134.55V33.1316C134.55 35.6948 134.834 35.905 136.083 36.1571L137.9 36.5464V37.0416H127.858H127.875Z" fill="#8A919E"/>
<path d="M159.701 37.2997L155.751 27.2251L151.938 37.2997H149.301L143.997 23.7699C143.073 21.4183 142.894 20.9219 142.18 20.671L141.466 20.3876V19.8519H150.081V20.3876L148.977 20.671C147.906 20.9963 147.549 21.4901 148.482 24.159L150.973 31.1024C151.363 32.239 151.581 32.9522 151.646 33.5936H151.719C151.825 33.0254 152.003 32.4179 152.465 31.0306L154.745 24.6947L154.388 23.7699C153.537 21.4183 153.284 20.9219 152.571 20.671L151.857 20.3876V19.8519H160.472V20.3876L159.368 20.671C158.298 20.9963 157.94 21.4901 158.873 24.159L161.364 31.1024C161.754 32.239 161.972 32.9522 162.037 33.5936H162.11C162.216 33.0254 162.394 32.4179 162.856 31.0306L165.242 24.3706C166.238 21.6288 165.735 20.9558 164.633 20.6633L163.498 20.3797V19.8442H169.905V20.3797L169.264 20.6633C168.591 20.9467 168.34 21.4092 167.448 23.7619L162.321 37.292H159.684L159.701 37.2997ZM178.973 37.6252C173.49 37.6252 170.212 34.137 170.212 28.7588C170.212 23.3806 173.563 19.0735 179.508 19.0735C185.454 19.0735 188.341 22.8136 188.341 27.9802C188.341 33.4631 184.602 37.6329 178.973 37.6329V37.6252ZM178.649 20.4204C175.656 20.4204 174.698 23.4863 174.698 26.7561C174.698 29.7803 175.874 36.3029 179.687 36.3029C182.817 36.3029 183.815 33.2043 183.815 29.9672C183.815 26.9742 182.567 20.4204 178.649 20.4204ZM189.762 37.0895V36.5942L190.866 36.2704C192.115 35.9451 192.326 35.7347 192.326 33.1717V24.0951C192.326 21.5308 191.968 21.2799 190.687 21.0278L189.437 20.7442V20.2087L195.991 19.3569L196.203 19.5358V22.4883H196.235C198.053 20.2413 199.407 19.1792 201.078 19.1792C202.538 19.1792 203.609 20.2504 203.609 21.6692C203.609 23.0892 202.359 23.9815 201.33 23.9488L201.119 23.8443C200.793 23.0238 199.909 22.3511 198.872 22.3511C197.234 22.3511 196.455 23.5595 196.455 24.419V33.1795C196.455 35.7426 196.778 35.9528 198.02 36.2051L199.836 36.5942V37.0895H189.762ZM204.646 37.0895V36.5942L205.75 36.2704C206.998 35.9451 207.209 35.7347 207.209 33.1717V15.2615C207.209 12.6983 206.998 12.4462 205.717 12.2033L204.467 11.9197V11.3842L211.127 10.5324L211.338 10.7101V33.1795C211.338 35.7426 211.55 35.9543 212.798 36.2781L213.902 36.6022V37.0986H204.646V37.0895ZM217.502 37.0895L211.694 27.4772L215.612 23.7699C217.86 21.6692 217.179 20.9963 216.075 20.671L214.939 20.3876V19.8519H223.237V20.3876L222.062 20.671C220.779 21.029 220.033 21.8469 217.933 23.7699L215.337 26.1956L219.928 33.1717C221.357 35.3454 221.818 35.9856 222.922 36.3029L223.813 36.5865V37.0815H217.51L217.502 37.0895ZM229.607 37.4461C228.177 37.4461 226.435 37.1222 225.331 36.5538L224.973 32.0274L225.72 31.9229L226.181 33.3819C226.645 34.7694 227.748 35.9451 229.775 35.9451C231.341 35.9451 232.981 35.0215 232.981 33.3088C232.981 31.3872 231.27 30.6008 228.956 29.4238C226.856 28.3526 225.112 27.0397 225.112 24.4347C225.112 20.9467 228.242 19.2681 231.27 19.2681C232.298 19.2681 233.831 19.447 235.114 20.014V24.2165H234.398L234.075 22.862C233.752 21.6536 232.762 20.6881 230.839 20.6881C229.233 20.6881 228.131 21.6536 228.131 22.8945C228.131 24.5013 229.905 25.2068 231.942 26.244C234.358 27.4524 236.069 28.7744 236.069 31.6549C236.069 35.0372 233.256 37.4225 229.588 37.4225L229.607 37.4461Z" fill="#8A919E"/>
</svg>
