<svg width="56" height="56" viewBox="0 0 56 56" fill="none" xmlns="http://www.w3.org/2000/svg">
<rect width="56" height="56" rx="28" fill="#8166C8"/>
<path d="M18.1479 14H37.497V41H34.6568V28.6323H34.6289C34.315 25.2141 31.3875 22.5355 27.8225 22.5355C24.2574 22.5355 21.3299 25.2141 21.016 28.6323H20.9882V41H18.1479V14Z" fill="white"/>
<path d="M13 17.8323L14.1538 21.6645H15.1302V37.1677C14.64 37.1677 14.2426 37.5577 14.2426 38.0387V39.0839H14.0651C13.5749 39.0839 13.1775 39.4738 13.1775 39.9548V41H23.1183V39.9548C23.1183 39.4738 22.721 39.0839 22.2308 39.0839H22.0533V38.0387C22.0533 37.5577 21.6559 37.1677 21.1657 37.1677H20.1006V17.8323H13Z" fill="white"/>
<path d="M34.8343 37.1677C34.3441 37.1677 33.9467 37.5577 33.9467 38.0387V39.0839H33.7692C33.279 39.0839 32.8817 39.4738 32.8817 39.9548V41H42.8225V39.9548C42.8225 39.4738 42.4251 39.0839 41.9349 39.0839H41.7574V38.0387C41.7574 37.5577 41.36 37.1677 40.8698 37.1677V21.6645H41.8462L43 17.8323H35.8994V37.1677H34.8343Z" fill="white"/>
</svg>
