<svg width="18" height="16" viewBox="0 0 18 16" fill="none" xmlns="http://www.w3.org/2000/svg">
<path d="M3.08876 0H14.6982V16H12.9941V8.67097H12.9774C12.789 6.64539 11.0325 5.05806 8.89349 5.05806C6.75446 5.05806 4.99796 6.64539 4.80962 8.67097H4.7929V16H3.08876V0Z" fill="#0A0B0D"/>
<path d="M0 2.27097L0.692308 4.54194H1.27811V13.729C0.98399 13.729 0.745562 13.9601 0.745562 14.2452V14.8645H0.639053C0.344937 14.8645 0.106509 15.0956 0.106509 15.3806V16H6.07101V15.3806C6.07101 15.0956 5.83258 14.8645 5.53846 14.8645H5.43195V14.2452C5.43195 13.9601 5.19352 13.729 4.89941 13.729H4.26035V2.27097H0Z" fill="#0A0B0D"/>
<path d="M13.1006 13.729C12.8065 13.729 12.568 13.9601 12.568 14.2452V14.8645H12.4615C12.1674 14.8645 11.929 15.0956 11.929 15.3806V16H17.8935V15.3806C17.8935 15.0956 17.6551 14.8645 17.3609 14.8645H17.2544V14.2452C17.2544 13.9601 17.016 13.729 16.7219 13.729V4.54194H17.3077L18 2.27097H13.7396V13.729H13.1006Z" fill="#0A0B0D"/>
</svg>
