<svg width="16" height="16" viewBox="0 0 16 16" fill="none" xmlns="http://www.w3.org/2000/svg">
<path fill-rule="evenodd" clip-rule="evenodd" d="M0.0979642 0.136564C0.151854 0.211665 1.39988 1.9859 2.87137 4.0793C4.34285 6.17269 5.70383 8.10863 5.89579 8.38141C6.08774 8.65419 6.24478 8.88284 6.24478 8.88953C6.24478 8.89623 6.1733 8.98231 6.08595 9.08081C5.99859 9.17931 5.75253 9.45815 5.53917 9.70044C5.3258 9.94273 4.96611 10.3511 4.73985 10.6079C4.51361 10.8648 4.11558 11.3167 3.85534 11.6123C3.59511 11.9079 3.12714 12.4394 2.8154 12.7933C1.85126 13.888 1.71212 14.0461 0.978182 14.8811C0.586289 15.3269 0.210488 15.7531 0.143086 15.8283C0.0756833 15.9035 0.020531 15.9729 0.020531 15.9825C0.020531 15.9938 0.266687 16 0.714057 16H1.40757L2.17001 15.1322C2.58936 14.6548 3.00303 14.185 3.08927 14.0881C3.27576 13.8786 4.69796 12.2623 4.8175 12.1241C4.86327 12.0711 4.92975 11.9958 4.96524 11.9567C5.00075 11.9175 5.28055 11.6 5.58703 11.2511C5.8935 10.9022 6.15268 10.6082 6.16295 10.5977C6.17323 10.5873 6.33548 10.4029 6.5235 10.1881C6.71153 9.97318 6.87118 9.79736 6.87827 9.79736C6.88538 9.79736 7.85124 11.1632 9.02466 12.8326C10.1981 14.502 11.1791 15.8974 11.2047 15.9335L11.2512 15.9992L13.6301 15.9996C15.5864 15.9999 16.0074 15.9959 15.9999 15.9769C15.992 15.9566 14.8522 14.3329 11.9283 10.1762C9.82332 7.18386 9.54342 6.78174 9.55145 6.76134C9.55925 6.7415 9.84596 6.41397 11.7309 4.27167C12.0542 3.90419 12.4999 3.39736 12.7213 3.14537C12.9428 2.89339 13.1663 2.63965 13.2181 2.5815C13.27 2.52335 13.5424 2.2141 13.8236 1.89427C14.1048 1.57445 14.5828 1.03101 14.8859 0.686643C15.1889 0.342273 15.448 0.0469077 15.4616 0.0302557C15.4849 0.0017623 15.4453 0 14.7819 0H14.0775L13.7642 0.356828C13.3472 0.831718 12.5934 1.68809 12.3794 1.93008C12.2848 2.037 12.1668 2.17138 12.1172 2.22869C12.0676 2.28599 11.9697 2.39674 11.8997 2.4748C11.8297 2.55286 11.4768 2.95374 11.1155 3.36564C10.7543 3.77753 10.4538 4.1185 10.4477 4.12335C10.4416 4.12819 10.3642 4.21589 10.2757 4.31825C10.1208 4.49729 9.96312 4.67649 9.24013 5.49542C8.92278 5.85489 8.90651 5.87033 8.87976 5.83729C8.86437 5.81825 7.93435 4.49715 6.81309 2.90152L4.77442 0.000369975L2.38721 0.000176384L0 0L0.0979642 0.136564ZM1.96115 1.08796C1.97908 1.1147 2.4251 1.73921 2.95232 2.47577C3.95222 3.8727 7.88144 9.36539 10.4084 12.8987C11.2159 14.0278 11.8864 14.9615 11.8984 14.9737C11.9157 14.9911 12.1508 14.9949 12.9971 14.9913L14.0738 14.9868L11.2562 11.0485C9.70657 8.88238 7.46293 5.74626 6.27037 4.0793L4.10205 1.04846L3.01532 1.04391L1.92858 1.03937L1.96115 1.08796Z" fill="#0A0B0D"/>
</svg>
