<svg width="56" height="56" viewBox="0 0 56 56" fill="none" xmlns="http://www.w3.org/2000/svg">
<rect width="56" height="56" rx="28" fill="#0A0B0D"/>
<g clip-path="url(#clip0_6404_27443)">
<path fill-rule="evenodd" clip-rule="evenodd" d="M15.0283 14.9824C15.1169 15.1088 17.1693 18.0962 19.5893 21.621C22.0092 25.1457 24.2473 28.4053 24.563 28.8646C24.8787 29.3239 25.137 29.7089 25.137 29.7202C25.137 29.7315 25.0194 29.8764 24.8757 30.0423C24.7321 30.2081 24.3274 30.6776 23.9766 31.0856C23.6256 31.4935 23.0341 32.1811 22.662 32.6135C22.29 33.046 21.6354 33.807 21.2074 34.3047C20.7795 34.8024 20.0099 35.6972 19.4972 36.2932C17.9116 38.1364 17.6828 38.4026 16.4758 39.8084C15.8314 40.5591 15.2133 41.2768 15.1025 41.4033C14.9917 41.5299 14.901 41.6467 14.901 41.6629C14.901 41.682 15.3058 41.6924 16.0415 41.6924H17.182L18.4358 40.2312C19.1255 39.4275 19.8058 38.6365 19.9476 38.4733C20.2543 38.1204 22.5931 35.3991 22.7897 35.1663C22.865 35.0772 22.9743 34.9504 23.0327 34.8844C23.0911 34.8185 23.5512 34.2839 24.0553 33.6965C24.5593 33.109 24.9855 32.614 25.0024 32.5964C25.0193 32.5788 25.2861 32.2684 25.5953 31.9066C25.9045 31.5448 26.1671 31.2487 26.1787 31.2487C26.1904 31.2487 27.7788 33.5485 29.7086 36.3593C31.6383 39.1701 33.2516 41.5197 33.2937 41.5805L33.3703 41.6912L37.2824 41.6918C40.4996 41.6923 41.1919 41.6855 41.1796 41.6535C41.1665 41.6194 39.2922 38.8855 34.4836 31.8866C31.022 26.8483 30.5617 26.1712 30.5749 26.1368C30.5877 26.1034 31.0592 25.552 34.159 21.9449C34.6908 21.3261 35.4238 20.4727 35.7879 20.0485C36.152 19.6242 36.5197 19.1969 36.6049 19.099C36.6901 19.0011 37.1382 18.4804 37.6006 17.9419C38.063 17.4034 38.8491 16.4884 39.3475 15.9086C39.8459 15.3287 40.2719 14.8314 40.2943 14.8034C40.3327 14.7554 40.2675 14.7524 39.1766 14.7524H38.0181L37.5029 15.3533C36.8171 16.1528 35.5775 17.5948 35.2255 18.0022C35.07 18.1822 34.876 18.4085 34.7944 18.505C34.7128 18.6015 34.5518 18.788 34.4367 18.9194C34.3215 19.0508 33.7412 19.7258 33.1471 20.4193C32.553 21.1129 32.0588 21.687 32.0488 21.6951C32.0388 21.7033 31.9115 21.8509 31.7659 22.0233C31.5111 22.3247 31.2519 22.6265 30.0629 24.0053C29.541 24.6106 29.5143 24.6366 29.4703 24.581C29.445 24.5489 27.9155 22.3245 26.0716 19.6379L22.7189 14.7531L18.793 14.7527L14.8672 14.7524L15.0283 14.9824ZM18.0924 16.5843C18.1219 16.6293 18.8553 17.6808 19.7224 18.921C21.3668 21.2731 27.8285 30.5214 31.9841 36.4706C33.3121 38.3717 34.4148 39.9439 34.4346 39.9644C34.4629 39.9938 34.8496 40.0001 36.2413 39.9941L38.012 39.9864L33.3785 33.3553C30.83 29.7081 27.1403 24.4277 25.179 21.621L21.6132 16.5178L19.826 16.5101L18.0388 16.5025L18.0924 16.5843Z" fill="#FAFAFA"/>
<path fill-rule="evenodd" clip-rule="evenodd" d="M6 28V50L28.0074 49.9926L50.0148 49.9852L50.0223 27.9926L50.0297 6H28.0149H6V28ZM6.01475 28.0148C6.01475 40.1148 6.01813 45.0648 6.02225 39.0148C6.02638 32.9648 6.02638 23.0648 6.02225 17.0148C6.01813 10.9648 6.01475 15.9148 6.01475 28.0148ZM15.0282 14.9825C15.1168 15.1089 17.1693 18.0963 19.5892 21.621C22.0091 25.1458 24.2473 28.4054 24.563 28.8647C24.8786 29.324 25.1369 29.709 25.1369 29.7203C25.1369 29.7315 25.0193 29.8765 24.8757 30.0423C24.732 30.2082 24.3274 30.6777 23.9765 31.0856C23.6256 31.4936 23.0341 32.1812 22.662 32.6136C22.2899 33.0461 21.6353 33.8071 21.2074 34.3048C20.7794 34.8025 20.0098 35.6973 19.4971 36.2932C17.9116 38.1365 17.6828 38.4027 16.4758 39.8085C15.8313 40.5591 15.2133 41.2768 15.1024 41.4034C14.9916 41.53 14.9009 41.6468 14.9009 41.663C14.9009 41.682 15.3057 41.6925 16.0414 41.6925H17.1819L18.4358 40.2313C19.1254 39.4276 19.8057 38.6366 19.9475 38.4734C20.2542 38.1205 22.5931 35.3992 22.7897 35.1664C22.8649 35.0773 22.9743 34.9505 23.0326 34.8845C23.091 34.8186 23.5512 34.284 24.0552 33.6966C24.5592 33.1091 24.9854 32.6141 25.0023 32.5965C25.0192 32.5789 25.286 32.2685 25.5953 31.9067C25.9045 31.5449 26.167 31.2488 26.1787 31.2488C26.1904 31.2488 27.7788 33.5486 29.7085 36.3594C31.6382 39.1702 33.2515 41.5198 33.2936 41.5806L33.3702 41.6912L37.2823 41.6919C40.4995 41.6924 41.1918 41.6856 41.1795 41.6536C41.1665 41.6195 39.2921 38.8856 34.4835 31.8867C31.0219 26.8483 30.5616 26.1713 30.5748 26.1369C30.5876 26.1035 31.0591 25.5521 34.159 21.9449C34.6907 21.3262 35.4237 20.4728 35.7878 20.0486C36.152 19.6243 36.5196 19.197 36.6048 19.0991C36.69 19.0012 37.1381 18.4805 37.6005 17.942C38.0629 17.4035 38.849 16.4885 39.3474 15.9087C39.8458 15.3288 40.2719 14.8315 40.2942 14.8035C40.3326 14.7555 40.2675 14.7525 39.1765 14.7525H38.0181L37.5028 15.3533C36.8171 16.1529 35.5774 17.5948 35.2254 18.0023C35.0699 18.1823 34.8759 18.4086 34.7943 18.5051C34.7127 18.6016 34.5518 18.788 34.4366 18.9195C34.3215 19.0509 33.7412 19.7259 33.147 20.4194C32.5529 21.1129 32.0587 21.6871 32.0487 21.6952C32.0388 21.7034 31.9115 21.851 31.7658 22.0234C31.5111 22.3248 31.2518 22.6266 30.0628 24.0054C29.541 24.6107 29.5142 24.6367 29.4702 24.5811C29.4449 24.549 27.9154 22.3246 26.0715 19.638L22.7188 14.7532L18.793 14.7528L14.8671 14.7525L15.0282 14.9825ZM18.0923 16.5844C18.1218 16.6294 18.8553 17.6809 19.7223 18.9211C21.3667 21.2732 27.8284 30.5215 31.9841 36.4707C33.312 38.3717 34.4147 39.944 34.4345 39.9645C34.4628 39.9938 34.8495 40.0002 36.2412 39.9942L38.0119 39.9865L33.3784 33.3554C30.8299 29.7082 27.1402 24.4278 25.179 21.621L21.6131 16.5179L19.8259 16.5102L18.0387 16.5026L18.0923 16.5844Z" fill="#040404"/>
</g>
<defs>
<clipPath id="clip0_6404_27443">
<rect x="6" y="6" width="44" height="44" rx="22" fill="white"/>
</clipPath>
</defs>
</svg>
