{
	"asset":{
		"version":"2.0",
		"generator":"Houdini GLTF 2.0 Exporter"
	},
	"accessors":[
		{
			"bufferView":0,
			"componentType":5123,
			"count":25638,
			"type":"SCALAR",
			"min":[0
			],
			"max":[7888
			]
		},
		{
			"bufferView":1,
			"componentType":5126,
			"count":7889,
			"type":"VEC3",
			"min":[-6.14332294,-5.23390913,-3.93520308
			],
			"max":[5.03386974,5.18160629,3.3703804
			]
		},
		{
			"bufferView":2,
			"componentType":5126,
			"count":7889,
			"type":"VEC3",
			"min":[-0.999970376,-1,-1
			],
			"max":[0.999852836,0.99999553,1
			]
		}
	],
	"buffers":[
		{
			"uri":"All_3D_Models_data.bin",
			"byteLength":240612,
			"name":"main_buffer"
		}
	],
	"bufferViews":[
		{
			"buffer":0,
			"byteLength":51276,
			"target":34963
		},
		{
			"buffer":0,
			"byteOffset":51276,
			"byteLength":94668,
			"target":34962
		},
		{
			"buffer":0,
			"byteOffset":145944,
			"byteLength":94668,
			"target":34962
		}
	],
	"nodes":[
		{
			"name":"geo1",
			"mesh":0
		}
	],
	"meshes":[
		{
			"primitives":[
				{
					"attributes":{
						"POSITION":1,
						"NORMAL":2
					},
					"indices":0
				}
			]
		}
	],
	"scenes":[
		{
			"nodes":[0
			]
		}
	],
	"scene":0
}
