{
	"asset":{
		"version":"2.0",
		"generator":"Houdini GLTF 2.0 Exporter"
	},
	"accessors":[
		{
			"bufferView":0,
			"componentType":5123,
			"count":972,
			"type":"SCALAR",
			"min":[0
			],
			"max":[237
			]
		},
		{
			"bufferView":1,
			"componentType":5126,
			"count":238,
			"type":"VEC3",
			"min":[-2.25576782,-2.25576949,-0.719479263
			],
			"max":[2.25576973,2.25576949,0.715478182
			]
		},
		{
			"bufferView":2,
			"componentType":5126,
			"count":238,
			"type":"VEC3",
			"min":[-0.970637858,-0.980871558,-1
			],
			"max":[0.995221436,0.992679894,1
			]
		},
		{
			"bufferView":3,
			"componentType":5121,
			"count":84,
			"type":"SCALAR",
			"min":[0
			],
			"max":[31
			]
		},
		{
			"bufferView":4,
			"componentType":5126,
			"count":32,
			"type":"VEC3",
			"min":[-3.3536005,-4.61371326,-1.07891226
			],
			"max":[-2.50889778,-3.97879696,-0.234209761
			]
		},
		{
			"bufferView":5,
			"componentType":5126,
			"count":32,
			"type":"VEC3",
			"min":[-0.93604368,-1,-0.951595187
			],
			"max":[0.936043739,0.999986351,0.93604368
			]
		},
		{
			"bufferView":6,
			"componentType":5121,
			"count":84,
			"type":"SCALAR",
			"min":[0
			],
			"max":[31
			]
		},
		{
			"bufferView":7,
			"componentType":5126,
			"count":32,
			"type":"VEC3",
			"min":[-1.60557401,-4.61371326,-1.07891226
			],
			"max":[-0.76087153,-3.97879696,-0.234209761
			]
		},
		{
			"bufferView":8,
			"componentType":5126,
			"count":32,
			"type":"VEC3",
			"min":[-0.935297668,-1,-0.951630831
			],
			"max":[0.93604362,0.999986351,0.936043799
			]
		},
		{
			"bufferView":9,
			"componentType":5121,
			"count":84,
			"type":"SCALAR",
			"min":[0
			],
			"max":[31
			]
		},
		{
			"bufferView":10,
			"componentType":5126,
			"count":32,
			"type":"VEC3",
			"min":[-3.3536005,3.40917301,-1.07891226
			],
			"max":[-2.50889778,4.04408884,-0.234209761
			]
		},
		{
			"bufferView":11,
			"componentType":5126,
			"count":32,
			"type":"VEC3",
			"min":[-0.93604368,-1,-0.951595068
			],
			"max":[0.936043739,0.999986351,0.93604368
			]
		},
		{
			"bufferView":12,
			"componentType":5121,
			"count":84,
			"type":"SCALAR",
			"min":[0
			],
			"max":[31
			]
		},
		{
			"bufferView":13,
			"componentType":5126,
			"count":32,
			"type":"VEC3",
			"min":[-1.60557401,3.40917301,-1.07891226
			],
			"max":[-0.76087153,4.04408884,-0.234209761
			]
		},
		{
			"bufferView":14,
			"componentType":5126,
			"count":32,
			"type":"VEC3",
			"min":[-0.93604368,-1,-0.951595426
			],
			"max":[0.93604362,0.999986351,0.936043799
			]
		},
		{
			"bufferView":15,
			"componentType":5121,
			"count":84,
			"type":"SCALAR",
			"min":[0
			],
			"max":[31
			]
		},
		{
			"bufferView":16,
			"componentType":5126,
			"count":32,
			"type":"VEC3",
			"min":[-3.3536005,-4.61371326,-2.69108105
			],
			"max":[-2.50889778,-3.97879696,-1.84637845
			]
		},
		{
			"bufferView":17,
			"componentType":5126,
			"count":32,
			"type":"VEC3",
			"min":[-0.936044097,-1,-0.951595068
			],
			"max":[0.936044097,0.999986351,0.935297787
			]
		},
		{
			"bufferView":18,
			"componentType":5121,
			"count":84,
			"type":"SCALAR",
			"min":[0
			],
			"max":[31
			]
		},
		{
			"bufferView":19,
			"componentType":5126,
			"count":32,
			"type":"VEC3",
			"min":[-1.60557401,-4.61371326,-2.69108105
			],
			"max":[-0.76087153,-3.97879696,-1.84637845
			]
		},
		{
			"bufferView":20,
			"componentType":5126,
			"count":32,
			"type":"VEC3",
			"min":[-0.935297787,-1,-0.951630533
			],
			"max":[0.936043978,0.999986351,0.935297787
			]
		},
		{
			"bufferView":21,
			"componentType":5121,
			"count":84,
			"type":"SCALAR",
			"min":[0
			],
			"max":[31
			]
		},
		{
			"bufferView":22,
			"componentType":5126,
			"count":32,
			"type":"VEC3",
			"min":[-3.3536005,3.40917301,-2.69108105
			],
			"max":[-2.50889778,4.04408884,-1.84637845
			]
		},
		{
			"bufferView":23,
			"componentType":5126,
			"count":32,
			"type":"VEC3",
			"min":[-0.936044097,-1,-0.951595068
			],
			"max":[0.936044097,0.999986351,0.936043918
			]
		},
		{
			"bufferView":24,
			"componentType":5121,
			"count":84,
			"type":"SCALAR",
			"min":[0
			],
			"max":[31
			]
		},
		{
			"bufferView":25,
			"componentType":5126,
			"count":32,
			"type":"VEC3",
			"min":[-1.60557401,3.40917301,-2.69108105
			],
			"max":[-0.76087153,4.04408884,-1.84637845
			]
		},
		{
			"bufferView":26,
			"componentType":5126,
			"count":32,
			"type":"VEC3",
			"min":[-0.936043918,-1,-0.951595128
			],
			"max":[0.936043978,0.999986351,0.936043978
			]
		},
		{
			"bufferView":27,
			"componentType":5123,
			"count":2706,
			"type":"SCALAR",
			"min":[0
			],
			"max":[465
			]
		},
		{
			"bufferView":28,
			"componentType":5126,
			"count":466,
			"type":"VEC3",
			"min":[0.853712261,-5.23390913,1.17311156
			],
			"max":[3.17547631,-2.60533023,3.29975295
			]
		},
		{
			"bufferView":29,
			"componentType":5126,
			"count":466,
			"type":"VEC3",
			"min":[-0.991639137,-0.993980646,-0.998327792
			],
			"max":[0.994527578,0.99421978,0.996086955
			]
		},
		{
			"bufferView":30,
			"componentType":5123,
			"count":1872,
			"type":"SCALAR",
			"min":[0
			],
			"max":[340
			]
		},
		{
			"bufferView":31,
			"componentType":5126,
			"count":341,
			"type":"VEC3",
			"min":[1.01894534,-2.70892239,-3.6891315
			],
			"max":[3.2472899,-0.510162055,-1.10650551
			]
		},
		{
			"bufferView":32,
			"componentType":5126,
			"count":341,
			"type":"VEC3",
			"min":[-0.994421065,-0.99585408,-0.999998689
			],
			"max":[0.997441769,0.994483113,0.987317681
			]
		},
		{
			"bufferView":33,
			"componentType":5123,
			"count":1512,
			"type":"SCALAR",
			"min":[0
			],
			"max":[425
			]
		},
		{
			"bufferView":34,
			"componentType":5126,
			"count":426,
			"type":"VEC3",
			"min":[2.83013749,-1.64552104,-0.451024324
			],
			"max":[5.03386974,0.137918055,0.791898727
			]
		},
		{
			"bufferView":35,
			"componentType":5126,
			"count":426,
			"type":"VEC3",
			"min":[-0.995299339,-0.976332188,-0.997506797
			],
			"max":[0.998365402,0.998693168,0.995984972
			]
		},
		{
			"bufferView":36,
			"componentType":5123,
			"count":1230,
			"type":"SCALAR",
			"min":[0
			],
			"max":[520
			]
		},
		{
			"bufferView":37,
			"componentType":5126,
			"count":521,
			"type":"VEC3",
			"min":[-4.92563248,-2.85182595,-0.854153395
			],
			"max":[-2.22295737,-1.02048135,0.755458832
			]
		},
		{
			"bufferView":38,
			"componentType":5126,
			"count":521,
			"type":"VEC3",
			"min":[-0.980254352,-0.893599391,-0.996377945
			],
			"max":[0.977018952,0.927887559,0.973463356
			]
		},
		{
			"bufferView":39,
			"componentType":5121,
			"count":42,
			"type":"SCALAR",
			"min":[0
			],
			"max":[31
			]
		},
		{
			"bufferView":40,
			"componentType":5126,
			"count":32,
			"type":"VEC3",
			"min":[3.05638957,-4.5995245,-2.47687173
			],
			"max":[4.75651741,-1.80730975,-0.415269554
			]
		},
		{
			"bufferView":41,
			"componentType":5126,
			"count":32,
			"type":"VEC3",
			"min":[-0.896913528,-0.909239054,-0.914684057
			],
			"max":[0.912465453,0.884260058,0.951248944
			]
		},
		{
			"bufferView":42,
			"componentType":5123,
			"count":9852,
			"type":"SCALAR",
			"min":[0
			],
			"max":[3903
			]
		},
		{
			"bufferView":43,
			"componentType":5126,
			"count":3904,
			"type":"VEC3",
			"min":[1.70835686,0.826130748,-3.93520308
			],
			"max":[4.89996672,3.99458313,-0.737930059
			]
		},
		{
			"bufferView":44,
			"componentType":5126,
			"count":3904,
			"type":"VEC3",
			"min":[-0.999625504,-0.999820769,-0.999802053
			],
			"max":[0.999090075,0.999994278,0.999777794
			]
		},
		{
			"bufferView":45,
			"componentType":5123,
			"count":4020,
			"type":"SCALAR",
			"min":[0
			],
			"max":[921
			]
		},
		{
			"bufferView":46,
			"componentType":5126,
			"count":922,
			"type":"VEC3",
			"min":[-6.028615,-1.80772853,-3.87602329
			],
			"max":[-2.28939104,2.21562099,-1.74967527
			]
		},
		{
			"bufferView":47,
			"componentType":5126,
			"count":922,
			"type":"VEC3",
			"min":[-0.999876738,-0.994076252,-0.99999994
			],
			"max":[0.999852836,0.99999553,0.999998748
			]
		},
		{
			"bufferView":48,
			"componentType":5123,
			"count":198,
			"type":"SCALAR",
			"min":[0
			],
			"max":[70
			]
		},
		{
			"bufferView":49,
			"componentType":5126,
			"count":71,
			"type":"VEC3",
			"min":[-6.14332294,-3.60469961,-0.3987405
			],
			"max":[-4.95961189,-1.23539722,0.261338919
			]
		},
		{
			"bufferView":50,
			"componentType":5126,
			"count":71,
			"type":"VEC3",
			"min":[-0.998036861,-0.980053604,-0.999833345
			],
			"max":[0.999672711,0.981394231,0.991880298
			]
		},
		{
			"bufferView":51,
			"componentType":5123,
			"count":540,
			"type":"SCALAR",
			"min":[0
			],
			"max":[145
			]
		},
		{
			"bufferView":52,
			"componentType":5126,
			"count":146,
			"type":"VEC3",
			"min":[2.58231044,0.453641415,1.03679347
			],
			"max":[4.3864255,2.25780678,1.76398349
			]
		},
		{
			"bufferView":53,
			"componentType":5126,
			"count":146,
			"type":"VEC3",
			"min":[-0.999970376,-0.996310413,-1
			],
			"max":[0.988382041,0.992237747,0.999995172
			]
		},
		{
			"bufferView":54,
			"componentType":5123,
			"count":1236,
			"type":"SCALAR",
			"min":[0
			],
			"max":[236
			]
		},
		{
			"bufferView":55,
			"componentType":5126,
			"count":237,
			"type":"VEC3",
			"min":[2.41082215,2.99266434,-0.996590734
			],
			"max":[4.18919802,5.18160629,1.00404799
			]
		},
		{
			"bufferView":56,
			"componentType":5126,
			"count":237,
			"type":"VEC3",
			"min":[-0.940158844,-0.939463913,-0.984864116
			],
			"max":[0.995343566,0.98430717,0.948938191
			]
		},
		{
			"bufferView":57,
			"componentType":5123,
			"count":786,
			"type":"SCALAR",
			"min":[0
			],
			"max":[328
			]
		},
		{
			"bufferView":58,
			"componentType":5126,
			"count":329,
			"type":"VEC3",
			"min":[-4.71496868,-0.00655354885,1.40398479
			],
			"max":[-2.02378225,2.85295105,3.3703804
			]
		},
		{
			"bufferView":59,
			"componentType":5126,
			"count":329,
			"type":"VEC3",
			"min":[-0.906710267,-0.980544269,-0.954366326
			],
			"max":[0.954483628,0.980604529,0.999283075
			]
		}
	],
	"buffers":[
		{
			"uri":"All_3D_Models_data.bin",
			"byteLength":239900,
			"name":"main_buffer"
		}
	],
	"bufferViews":[
		{
			"buffer":0,
			"byteLength":1944,
			"target":34963
		},
		{
			"buffer":0,
			"byteOffset":1944,
			"byteLength":2856,
			"target":34962
		},
		{
			"buffer":0,
			"byteOffset":4800,
			"byteLength":2856,
			"target":34962
		},
		{
			"buffer":0,
			"byteOffset":7656,
			"byteLength":84,
			"target":34963
		},
		{
			"buffer":0,
			"byteOffset":7740,
			"byteLength":384,
			"target":34962
		},
		{
			"buffer":0,
			"byteOffset":8124,
			"byteLength":384,
			"target":34962
		},
		{
			"buffer":0,
			"byteOffset":8508,
			"byteLength":84,
			"target":34963
		},
		{
			"buffer":0,
			"byteOffset":8592,
			"byteLength":384,
			"target":34962
		},
		{
			"buffer":0,
			"byteOffset":8976,
			"byteLength":384,
			"target":34962
		},
		{
			"buffer":0,
			"byteOffset":9360,
			"byteLength":84,
			"target":34963
		},
		{
			"buffer":0,
			"byteOffset":9444,
			"byteLength":384,
			"target":34962
		},
		{
			"buffer":0,
			"byteOffset":9828,
			"byteLength":384,
			"target":34962
		},
		{
			"buffer":0,
			"byteOffset":10212,
			"byteLength":84,
			"target":34963
		},
		{
			"buffer":0,
			"byteOffset":10296,
			"byteLength":384,
			"target":34962
		},
		{
			"buffer":0,
			"byteOffset":10680,
			"byteLength":384,
			"target":34962
		},
		{
			"buffer":0,
			"byteOffset":11064,
			"byteLength":84,
			"target":34963
		},
		{
			"buffer":0,
			"byteOffset":11148,
			"byteLength":384,
			"target":34962
		},
		{
			"buffer":0,
			"byteOffset":11532,
			"byteLength":384,
			"target":34962
		},
		{
			"buffer":0,
			"byteOffset":11916,
			"byteLength":84,
			"target":34963
		},
		{
			"buffer":0,
			"byteOffset":12000,
			"byteLength":384,
			"target":34962
		},
		{
			"buffer":0,
			"byteOffset":12384,
			"byteLength":384,
			"target":34962
		},
		{
			"buffer":0,
			"byteOffset":12768,
			"byteLength":84,
			"target":34963
		},
		{
			"buffer":0,
			"byteOffset":12852,
			"byteLength":384,
			"target":34962
		},
		{
			"buffer":0,
			"byteOffset":13236,
			"byteLength":384,
			"target":34962
		},
		{
			"buffer":0,
			"byteOffset":13620,
			"byteLength":84,
			"target":34963
		},
		{
			"buffer":0,
			"byteOffset":13704,
			"byteLength":384,
			"target":34962
		},
		{
			"buffer":0,
			"byteOffset":14088,
			"byteLength":384,
			"target":34962
		},
		{
			"buffer":0,
			"byteOffset":14472,
			"byteLength":5412,
			"target":34963
		},
		{
			"buffer":0,
			"byteOffset":19884,
			"byteLength":5592,
			"target":34962
		},
		{
			"buffer":0,
			"byteOffset":25476,
			"byteLength":5592,
			"target":34962
		},
		{
			"buffer":0,
			"byteOffset":31068,
			"byteLength":3744,
			"target":34963
		},
		{
			"buffer":0,
			"byteOffset":34812,
			"byteLength":4092,
			"target":34962
		},
		{
			"buffer":0,
			"byteOffset":38904,
			"byteLength":4092,
			"target":34962
		},
		{
			"buffer":0,
			"byteOffset":42996,
			"byteLength":3024,
			"target":34963
		},
		{
			"buffer":0,
			"byteOffset":46020,
			"byteLength":5112,
			"target":34962
		},
		{
			"buffer":0,
			"byteOffset":51132,
			"byteLength":5112,
			"target":34962
		},
		{
			"buffer":0,
			"byteOffset":56244,
			"byteLength":2460,
			"target":34963
		},
		{
			"buffer":0,
			"byteOffset":58704,
			"byteLength":6252,
			"target":34962
		},
		{
			"buffer":0,
			"byteOffset":64956,
			"byteLength":6252,
			"target":34962
		},
		{
			"buffer":0,
			"byteOffset":71208,
			"byteLength":42,
			"target":34963
		},
		{
			"buffer":0,
			"byteOffset":71252,
			"byteLength":384,
			"target":34962
		},
		{
			"buffer":0,
			"byteOffset":71636,
			"byteLength":384,
			"target":34962
		},
		{
			"buffer":0,
			"byteOffset":72020,
			"byteLength":19704,
			"target":34963
		},
		{
			"buffer":0,
			"byteOffset":91724,
			"byteLength":46848,
			"target":34962
		},
		{
			"buffer":0,
			"byteOffset":138572,
			"byteLength":46848,
			"target":34962
		},
		{
			"buffer":0,
			"byteOffset":185420,
			"byteLength":8040,
			"target":34963
		},
		{
			"buffer":0,
			"byteOffset":193460,
			"byteLength":11064,
			"target":34962
		},
		{
			"buffer":0,
			"byteOffset":204524,
			"byteLength":11064,
			"target":34962
		},
		{
			"buffer":0,
			"byteOffset":215588,
			"byteLength":396,
			"target":34963
		},
		{
			"buffer":0,
			"byteOffset":215984,
			"byteLength":852,
			"target":34962
		},
		{
			"buffer":0,
			"byteOffset":216836,
			"byteLength":852,
			"target":34962
		},
		{
			"buffer":0,
			"byteOffset":217688,
			"byteLength":1080,
			"target":34963
		},
		{
			"buffer":0,
			"byteOffset":218768,
			"byteLength":1752,
			"target":34962
		},
		{
			"buffer":0,
			"byteOffset":220520,
			"byteLength":1752,
			"target":34962
		},
		{
			"buffer":0,
			"byteOffset":222272,
			"byteLength":2472,
			"target":34963
		},
		{
			"buffer":0,
			"byteOffset":224744,
			"byteLength":2844,
			"target":34962
		},
		{
			"buffer":0,
			"byteOffset":227588,
			"byteLength":2844,
			"target":34962
		},
		{
			"buffer":0,
			"byteOffset":230432,
			"byteLength":1572,
			"target":34963
		},
		{
			"buffer":0,
			"byteOffset":232004,
			"byteLength":3948,
			"target":34962
		},
		{
			"buffer":0,
			"byteOffset":235952,
			"byteLength":3948,
			"target":34962
		}
	],
	"nodes":[
		{
			"children":[1
			],
			"name":"Base_Icon"
		},
		{
			"mesh":0
		},
		{
			"children":[3
			],
			"name":"Box"
		},
		{
			"mesh":1
		},
		{
			"children":[5
			],
			"name":"Box_1"
		},
		{
			"mesh":2
		},
		{
			"children":[7
			],
			"name":"Box_2"
		},
		{
			"mesh":3
		},
		{
			"children":[9
			],
			"name":"Box_3"
		},
		{
			"mesh":4
		},
		{
			"children":[11
			],
			"name":"Box_4"
		},
		{
			"mesh":5
		},
		{
			"children":[13
			],
			"name":"Box_5"
		},
		{
			"mesh":6
		},
		{
			"children":[15
			],
			"name":"Box_6"
		},
		{
			"mesh":7
		},
		{
			"children":[17
			],
			"name":"Box_7"
		},
		{
			"mesh":8
		},
		{
			"children":[19
			],
			"name":"Cloth_Avatars"
		},
		{
			"mesh":9
		},
		{
			"children":[21
			],
			"name":"Cloth_Avatars_1"
		},
		{
			"mesh":10
		},
		{
			"children":[23
			],
			"name":"Controller"
		},
		{
			"mesh":11
		},
		{
			"children":[25
			],
			"name":"Cursor"
		},
		{
			"mesh":12
		},
		{
			"children":[27
			],
			"name":"ETH"
		},
		{
			"mesh":13
		},
		{
			"children":[29
			],
			"name":"Globe"
		},
		{
			"mesh":14
		},
		{
			"children":[31
			],
			"name":"Headphone"
		},
		{
			"mesh":15
		},
		{
			"children":[33
			],
			"name":"Mobile_Remesh"
		},
		{
			"mesh":16
		},
		{
			"children":[35
			],
			"name":"Play_Low"
		},
		{
			"mesh":17
		},
		{
			"children":[37
			],
			"name":"Rock"
		},
		{
			"mesh":18
		},
		{
			"children":[39
			],
			"name":"SpikeyShape"
		},
		{
			"mesh":19
		}
	],
	"meshes":[
		{
			"primitives":[
				{
					"attributes":{
						"POSITION":1,
						"NORMAL":2
					},
					"indices":0
				}
			],
			"name":"Base_Icon"
		},
		{
			"primitives":[
				{
					"attributes":{
						"POSITION":4,
						"NORMAL":5
					},
					"indices":3
				}
			],
			"name":"Box"
		},
		{
			"primitives":[
				{
					"attributes":{
						"POSITION":7,
						"NORMAL":8
					},
					"indices":6
				}
			],
			"name":"Box_1"
		},
		{
			"primitives":[
				{
					"attributes":{
						"POSITION":10,
						"NORMAL":11
					},
					"indices":9
				}
			],
			"name":"Box_2"
		},
		{
			"primitives":[
				{
					"attributes":{
						"POSITION":13,
						"NORMAL":14
					},
					"indices":12
				}
			],
			"name":"Box_3"
		},
		{
			"primitives":[
				{
					"attributes":{
						"POSITION":16,
						"NORMAL":17
					},
					"indices":15
				}
			],
			"name":"Box_4"
		},
		{
			"primitives":[
				{
					"attributes":{
						"POSITION":19,
						"NORMAL":20
					},
					"indices":18
				}
			],
			"name":"Box_5"
		},
		{
			"primitives":[
				{
					"attributes":{
						"POSITION":22,
						"NORMAL":23
					},
					"indices":21
				}
			],
			"name":"Box_6"
		},
		{
			"primitives":[
				{
					"attributes":{
						"POSITION":25,
						"NORMAL":26
					},
					"indices":24
				}
			],
			"name":"Box_7"
		},
		{
			"primitives":[
				{
					"attributes":{
						"POSITION":28,
						"NORMAL":29
					},
					"indices":27
				}
			],
			"name":"Cloth_Avatars"
		},
		{
			"primitives":[
				{
					"attributes":{
						"POSITION":31,
						"NORMAL":32
					},
					"indices":30
				}
			],
			"name":"Cloth_Avatars_1"
		},
		{
			"primitives":[
				{
					"attributes":{
						"POSITION":34,
						"NORMAL":35
					},
					"indices":33
				}
			],
			"name":"Controller"
		},
		{
			"primitives":[
				{
					"attributes":{
						"POSITION":37,
						"NORMAL":38
					},
					"indices":36
				}
			],
			"name":"Cursor"
		},
		{
			"primitives":[
				{
					"attributes":{
						"POSITION":40,
						"NORMAL":41
					},
					"indices":39
				}
			],
			"name":"ETH"
		},
		{
			"primitives":[
				{
					"attributes":{
						"POSITION":43,
						"NORMAL":44
					},
					"indices":42
				}
			],
			"name":"Globe"
		},
		{
			"primitives":[
				{
					"attributes":{
						"POSITION":46,
						"NORMAL":47
					},
					"indices":45
				}
			],
			"name":"Headphone"
		},
		{
			"primitives":[
				{
					"attributes":{
						"POSITION":49,
						"NORMAL":50
					},
					"indices":48
				}
			],
			"name":"Mobile_Remesh"
		},
		{
			"primitives":[
				{
					"attributes":{
						"POSITION":52,
						"NORMAL":53
					},
					"indices":51
				}
			],
			"name":"Play_Low"
		},
		{
			"primitives":[
				{
					"attributes":{
						"POSITION":55,
						"NORMAL":56
					},
					"indices":54
				}
			],
			"name":"Rock"
		},
		{
			"primitives":[
				{
					"attributes":{
						"POSITION":58,
						"NORMAL":59
					},
					"indices":57
				}
			],
			"name":"SpikeyShape"
		}
	],
	"scenes":[
		{
			"nodes":[0,2,4,6,8,10,12,14,16,18,20,22,24,26,28,30,32,34,36,38
			],
			"name":"geo1"
		}
	],
	"scene":0
}
