{
	"asset":{
		"version":"2.0",
		"generator":"Houdini GLTF 2.0 Exporter"
	},
	"accessors":[
		{
			"bufferView":0,
			"componentType":5123,
			"count":25344,
			"type":"SCALAR",
			"min":[0
			],
			"max":[7698
			]
		},
		{
			"bufferView":1,
			"componentType":5126,
			"count":7699,
			"type":"VEC3",
			"min":[-6.14332294,-5.23390913,-3.93520308
			],
			"max":[5.03622389,5.18160629,3.3703804
			]
		},
		{
			"bufferView":2,
			"componentType":5126,
			"count":7699,
			"type":"VEC3",
			"min":[-0.999999642,-0.999999404,-1
			],
			"max":[0.999989748,1,1
			]
		}
	],
	"buffers":[
		{
			"uri":"BaseOrg_BaseIcon_glTF_v06_data.bin",
			"byteLength":235464,
			"name":"main_buffer"
		}
	],
	"bufferViews":[
		{
			"buffer":0,
			"byteLength":50688,
			"target":34963
		},
		{
			"buffer":0,
			"byteOffset":50688,
			"byteLength":92388,
			"target":34962
		},
		{
			"buffer":0,
			"byteOffset":143076,
			"byteLength":92388,
			"target":34962
		}
	],
	"nodes":[
		{
			"name":"geo1",
			"mesh":0
		}
	],
	"meshes":[
		{
			"primitives":[
				{
					"attributes":{
						"POSITION":1,
						"NORMAL":2
					},
					"indices":0
				}
			],
			"name":"_Out"
		}
	],
	"scenes":[
		{
			"nodes":[0
			]
		}
	],
	"scene":0
}
