<svg width="32" height="32" viewBox="0 0 32 32" fill="none" xmlns="http://www.w3.org/2000/svg">
<path d="M2.65161 7.99349C2.65161 5.04797 5.03943 2.66016 7.98494 2.66016H23.9849C26.9305 2.66016 29.3183 5.04797 29.3183 7.99349V19.9935C29.3183 22.939 26.9305 25.3268 23.9849 25.3268H6.65161L2.65161 29.3268V7.99349ZM15.9849 10.8067L14.772 9.59495C13.5244 8.34856 11.5016 8.34856 10.254 9.59495C9.00638 10.8413 9.00638 12.8621 10.254 14.1085L15.9845 19.8334L21.7159 14.1085C22.9635 12.8621 22.9635 10.8413 21.7159 9.59495C20.4683 8.34856 18.4455 8.34856 17.1979 9.59495L15.9849 10.8067Z" fill="white"/>
</svg>
