<svg width="24" height="24" viewBox="0 0 24 24" fill="none" xmlns="http://www.w3.org/2000/svg">
<path d="M12 24C18.6274 24 24 18.6274 24 12C24 5.37258 18.6274 0 12 0C5.37258 0 0 5.37258 0 12C0 18.6274 5.37258 24 12 24Z" fill="white"/>
<path d="M8.49561 15.1233C7.78643 15.1233 7.2054 14.9571 6.75248 14.6247C6.30551 14.2863 6.08203 13.8055 6.08203 13.1822C6.08203 13.0516 6.09694 12.8913 6.12672 12.7014C6.20423 12.274 6.31447 11.7605 6.45749 11.161C6.86272 9.52855 7.90863 8.71234 9.59517 8.71234C10.054 8.71234 10.4652 8.7895 10.8288 8.94382C11.1923 9.09221 11.4784 9.3178 11.6869 9.62056C11.8955 9.91733 11.9998 10.2735 11.9998 10.689C11.9998 10.8137 11.9849 10.971 11.9551 11.161C11.8657 11.6893 11.7584 12.2028 11.6333 12.7014C11.4247 13.5146 11.0642 14.1231 10.5517 14.5267C10.0391 14.9244 9.35382 15.1233 8.49561 15.1233ZM8.62077 13.8411C8.95454 13.8411 9.23757 13.7432 9.47001 13.5473C9.70841 13.3514 9.87825 13.0516 9.97953 12.648C10.1166 12.09 10.2209 11.6032 10.2924 11.1877C10.3163 11.063 10.3282 10.9354 10.3282 10.8048C10.3282 10.2646 10.0451 9.99449 9.47897 9.99449C9.1452 9.99449 8.85916 10.0924 8.62077 10.2883C8.38837 10.4843 8.22149 10.784 8.1202 11.1877C8.01292 11.5854 7.90563 12.0722 7.79839 12.648C7.77452 12.7666 7.76261 12.8913 7.76261 13.0219C7.76261 13.568 8.04869 13.8411 8.62077 13.8411Z" fill="black"/>
<path d="M12.5125 15.1233C12.4469 15.1233 12.3963 15.1025 12.3605 15.0608C12.3307 15.0132 12.3218 14.9597 12.3337 14.9002L13.567 9.0998C13.5789 9.03436 13.6117 8.98081 13.6653 8.93915C13.7189 8.89754 13.7755 8.87671 13.8351 8.87671H16.2123C16.8736 8.87671 17.4039 9.01353 17.8031 9.28718C18.2082 9.56088 18.4108 9.95646 18.4108 10.474C18.4108 10.6227 18.3929 10.7775 18.3572 10.9381C18.2082 11.6222 17.9074 12.1279 17.4546 12.4551C17.0077 12.7823 16.394 12.9459 15.6135 12.9459H14.4071L13.996 14.9002C13.984 14.9656 13.9513 15.0191 13.8977 15.0608C13.8441 15.1025 13.7874 15.1233 13.7279 15.1233H12.5125ZM15.6761 11.7144C15.9263 11.7144 16.1438 11.646 16.3285 11.5092C16.5192 11.3724 16.6443 11.176 16.7039 10.9202C16.7217 10.8191 16.7307 10.7298 16.7307 10.6525C16.7307 10.48 16.68 10.3491 16.5787 10.2599C16.4774 10.1647 16.3047 10.1171 16.0604 10.1171H14.988L14.6484 11.7144H15.6761Z" fill="black"/>
</svg>
