<svg width="32" height="32" viewBox="0 0 32 32" fill="none" xmlns="http://www.w3.org/2000/svg">
  <g clip-path="url(#clip0_8134_24705)">
    <rect width="32" height="32" rx="8" fill="#FF8DCF" />
    <path
      d="M4 14C4 9.58172 7.58172 6 12 6L22.0289 6C22.3149 6 22.5757 6.075 22.8112 6.225C23.0467 6.35833 23.2318 6.54167 23.3663 6.775C23.5177 7.00833 23.5934 7.26667 23.5934 7.55V14.5C23.5934 14.8 23.5177 15.075 23.3663 15.325C23.2318 15.5583 23.0467 15.75 22.8112 15.9C22.5757 16.0333 22.3149 16.1 22.0289 16.1H6.68446C6.54639 16.1 6.43447 16.2119 6.43447 16.35C6.43447 16.4881 6.54639 16.6 6.68446 16.6H23.7196C24.3252 16.6 24.8719 16.75 25.3598 17.05C25.8645 17.3333 26.2598 17.725 26.5458 18.225C26.8486 18.7083 27 19.2417 27 19.825V22.725C27 23.3083 26.8486 23.8583 26.5458 24.375C26.2598 24.875 25.8645 25.275 25.3598 25.575C24.8551 25.8583 24.3084 26 23.7196 26H12C7.58172 26 4 22.4183 4 18V14ZM10.2952 25.025C10.9681 25.025 11.5906 24.8583 12.1625 24.525C12.7345 24.1917 13.1887 23.7417 13.5252 23.175C13.8616 22.6083 14.0298 21.9917 14.0298 21.325C14.0298 20.6583 13.8616 20.0417 13.5252 19.475C13.1887 18.9083 12.7345 18.4583 12.1625 18.125C11.5906 17.775 10.9681 17.6 10.2952 17.6C9.62234 17.6 8.9999 17.775 8.42793 18.125C7.85597 18.4583 7.40176 18.9083 7.06531 19.475C6.72886 20.0417 6.56063 20.6583 6.56063 21.325C6.56063 21.9917 6.72886 22.6083 7.06531 23.175C7.40176 23.7417 7.85597 24.1917 8.42793 24.525C8.9999 24.8583 9.62234 25.025 10.2952 25.025ZM20.2373 11.725C20.8766 11.725 21.4233 11.5 21.8775 11.05C22.3486 10.5833 22.5841 10.025 22.5841 9.375C22.5841 8.70833 22.3486 8.15 21.8775 7.7C21.4233 7.23333 20.8766 7 20.2373 7C19.5644 7 18.9925 7.23333 18.5214 7.7C18.0672 8.15 17.8401 8.70833 17.8401 9.375C17.8401 10.025 18.0672 10.5833 18.5214 11.05C18.9925 11.5 19.5644 11.725 20.2373 11.725Z"
      fill="white" />
  </g>
  <defs>
    <clipPath id="clip0_8134_24705">
      <rect width="32" height="32" rx="8" fill="white" />
    </clipPath>
  </defs>
</svg>