<svg width="60" height="60" viewBox="0 0 60 60" fill="none" xmlns="http://www.w3.org/2000/svg">
<path d="M30 0C13.4315 0 0 13.4315 0 30C0 46.5685 13.4315 60 30 60C46.5685 60 60 46.5685 60 30C60 13.4315 46.5685 0 30 0Z" fill="url(#paint0_linear_0_1)"/>
<path d="M29.9727 50.9453C18.3896 50.9453 9 41.5557 9 29.9737C9 18.3917 18.3896 9.00098 29.9727 9.00098" stroke="white" stroke-width="2.19858" stroke-miterlimit="10"/>
<path d="M29.9736 50.9455C22.2516 50.9455 15.9922 41.5558 15.9922 29.9727C15.9922 18.3896 22.2516 9 29.9736 9" stroke="white" stroke-width="2.19858" stroke-miterlimit="10"/>
<path d="M29.9679 50.9455C26.1068 50.9455 22.9766 41.5558 22.9766 29.9727C22.9766 18.3896 26.1068 9 29.9679 9" stroke="white" stroke-width="2.19858" stroke-miterlimit="10"/>
<path d="M29.9688 50.9455C29.9688 50.9455 29.9688 41.5558 29.9688 29.9727C29.9688 18.3896 29.9688 9 29.9688 9" stroke="white" stroke-width="2.19858" stroke-miterlimit="10"/>
<path d="M29.9688 50.9455C33.8298 50.9455 36.9599 41.5558 36.9599 29.9727C36.9599 18.3896 33.8298 9 29.9688 9" stroke="white" stroke-width="2.19858" stroke-miterlimit="10"/>
<path d="M29.9688 50.9455C37.6908 50.9455 43.9501 41.5558 43.9501 29.9727C43.9501 18.3896 37.6908 9 29.9688 9" stroke="white" stroke-width="2.19858" stroke-miterlimit="10"/>
<path d="M29.9688 50.9455C41.5518 50.9455 50.9415 41.5558 50.9415 29.9727C50.9415 18.3896 41.5518 9 29.9688 9" stroke="white" stroke-width="2.19858" stroke-miterlimit="10"/>
<path d="M11.4688 20.1007C13.6372 19.6852 15.8249 19.3517 18.0207 19.0899C20.0468 18.8498 22.0797 18.6688 24.1138 18.5424C26.0693 18.4195 28.025 18.3466 29.9748 18.3159C30.7363 18.3045 31.4966 18.2988 32.2547 18.2988C33.4317 18.2988 34.6122 18.3136 35.7937 18.3444C37.7732 18.3956 39.7572 18.4912 41.74 18.638C43.8402 18.794 45.938 19.008 48.0256 19.2903" stroke="white" stroke-width="2.19858" stroke-miterlimit="10"/>
<path d="M9 30.0195H50.9443" stroke="white" stroke-width="2.19858" stroke-miterlimit="10"/>
<path d="M11.5156 39.949C13.6795 40.3622 15.8627 40.6934 18.0539 40.9541C20.0732 41.1931 22.1005 41.3718 24.1277 41.4982C26.0764 41.62 28.0252 41.6928 29.9682 41.7235C30.7297 41.7349 31.4901 41.7406 32.2482 41.7406C33.4183 41.7406 34.5919 41.7258 35.7666 41.6951C37.7392 41.645 39.7164 41.5505 41.6925 41.4037C43.7869 41.25 45.8779 41.0372 47.9598 40.7572" stroke="white" stroke-width="2.19858" stroke-miterlimit="10"/>
<defs>
<linearGradient id="paint0_linear_0_1" x1="30" y1="60" x2="30" y2="-1.90735e-06" gradientUnits="userSpaceOnUse">
<stop stop-color="#02B1C9"/>
<stop offset="0.5" stop-color="#0528FE"/>
<stop offset="1" stop-color="#4F0D6F"/>
</linearGradient>
</defs>
</svg>
