<svg width="32" height="32" viewBox="0 0 32 32" fill="none" xmlns="http://www.w3.org/2000/svg">
  <g clip-path="url(#clip0_8134_24712)">
    <rect width="32" height="32" rx="8" fill="#0052FF" />
    <path
      d="M28 16C28 22.6274 22.6274 28 16 28C9.37258 28 4 22.6274 4 16C4 9.37258 9.37258 4 16 4C22.6274 4 28 9.37258 28 16ZM16.4867 25.5879C17.8404 22.9446 18.5995 20.0854 18.7642 17.2H13.2358C13.4004 20.0854 14.1596 22.9446 15.5132 25.5879C15.6745 25.5959 15.8368 25.6 16 25.6C16.1632 25.6 16.3255 25.5959 16.4867 25.5879ZM19.4119 24.976C22.6709 23.7365 25.0802 20.7732 25.5257 17.2H21.1677C21.032 19.8492 20.4468 22.4806 19.4119 24.976ZM21.1677 14.8H25.5257C25.0802 11.2268 22.6709 8.26349 19.412 7.02401C20.4468 9.5194 21.0321 12.1508 21.1677 14.8ZM16.4868 6.41213C16.3255 6.40407 16.1632 6.4 16 6.4C15.8368 6.4 15.6745 6.40407 15.5133 6.41212C14.1596 9.05538 13.4005 11.9146 13.2358 14.8H18.7642C18.5996 11.9146 17.8404 9.05539 16.4868 6.41213ZM10.8323 17.2H6.47427C6.91984 20.7732 9.3291 23.7365 12.588 24.976C11.5532 22.4806 10.9679 19.8492 10.8323 17.2ZM10.8323 14.8C10.968 12.1508 11.5532 9.51938 12.5881 7.02399C9.32913 8.26346 6.91984 11.2268 6.47427 14.8H10.8323Z"
      fill="white" />
    <path
      d="M28 16C28 22.6274 22.6274 28 16 28C9.37258 28 4 22.6274 4 16C4 9.37258 9.37258 4 16 4C22.6274 4 28 9.37258 28 16ZM16.4867 25.5879C17.8404 22.9446 18.5995 20.0854 18.7642 17.2H13.2358C13.4004 20.0854 14.1596 22.9446 15.5132 25.5879C15.6745 25.5959 15.8368 25.6 16 25.6C16.1632 25.6 16.3255 25.5959 16.4867 25.5879ZM19.4119 24.976C22.6709 23.7365 25.0802 20.7732 25.5257 17.2H21.1677C21.032 19.8492 20.4468 22.4806 19.4119 24.976ZM21.1677 14.8H25.5257C25.0802 11.2268 22.6709 8.26349 19.412 7.02401C20.4468 9.5194 21.0321 12.1508 21.1677 14.8ZM16.4868 6.41213C16.3255 6.40407 16.1632 6.4 16 6.4C15.8368 6.4 15.6745 6.40407 15.5133 6.41212C14.1596 9.05538 13.4005 11.9146 13.2358 14.8H18.7642C18.5996 11.9146 17.8404 9.05539 16.4868 6.41213ZM10.8323 17.2H6.47427C6.91984 20.7732 9.3291 23.7365 12.588 24.976C11.5532 22.4806 10.9679 19.8492 10.8323 17.2ZM10.8323 14.8C10.968 12.1508 11.5532 9.51938 12.5881 7.02399C9.32913 8.26346 6.91984 11.2268 6.47427 14.8H10.8323Z"
      fill="white" />
  </g>
  <defs>
    <clipPath id="clip0_8134_24712">
      <rect width="32" height="32" rx="8" fill="white" />
    </clipPath>
  </defs>
</svg>