<svg width="32" height="32" viewBox="0 0 32 32" fill="none" xmlns="http://www.w3.org/2000/svg">
<g id="Avatar - Placeholder">
<g clip-path="url(#clip0_10730_6822)">
<rect id="Rectangle 7643281" width="32" height="32" rx="8" fill="#725EE5"/>
<g id="Group 1547770285">
<path id="Vector" d="M11.9283 14.0432C12.3593 14.473 12.934 14.6879 13.6524 14.6879H20.9998L20.1723 12.3241H14.3229C13.8759 12.3241 13.6524 12.0854 13.6524 11.6078V5.79263L11.3057 4.99414L11.3057 12.3241C11.3057 13.0404 11.5132 13.6135 11.9283 14.0432Z" fill="white"/>
<path id="Vector_2" d="M11.9283 25.8616C12.3593 26.2913 12.934 26.5063 13.6524 26.5063H20.9998L20.1723 24.1425H14.3229C13.8759 24.1425 13.6524 23.9037 13.6524 23.4262V17.611L11.3057 16.8125L11.3057 24.1425C11.3057 24.8588 11.5132 25.4318 11.9283 25.8616Z" fill="white"/>
</g>
</g>
</g>
<defs>
<clipPath id="clip0_10730_6822">
<rect width="32" height="32" rx="8" fill="white"/>
</clipPath>
</defs>
</svg>
