<svg width="142" height="157" viewBox="0 0 142 157" fill="none" xmlns="http://www.w3.org/2000/svg">
<g id="Vector" filter="url(#filter0_iii_9188_106122)">
<path d="M12.9071 45.5606C14.0162 42.6344 15.5694 40.0309 17.9804 37.8811L56.0009 1.21506L23.5625 80.6167C23.5625 80.6167 18.6972 74.706 16.648 71.6901C11.7015 64.024 10.1852 54.4399 12.9071 45.5606ZM3.18483 98.3801C6.35715 112.221 15.5126 124.134 27.966 130.808L80.5343 156.286C80.5343 156.286 44.0567 118.242 12.4022 79.6316C9.21246 75.6172 6.69861 70.9064 5.11297 65.8523C4.36565 63.6127 4.00174 61.3125 4.02125 58.9517C3.62808 60.1928 2.68034 62.897 2.68034 62.897C1.00691 68.4667 0.160968 74.2985 0.112189 80.2006C0.507481 86.4254 1.4779 92.5593 3.18483 98.3801ZM124.872 85.0228C122.822 82.0068 117.957 76.0962 117.957 76.0962L85.5188 155.498L123.761 118.993C125.981 116.874 127.725 114.24 128.835 111.314C131.365 102.465 130.04 92.8502 124.872 85.0228ZM138.365 58.5244C135.193 44.6832 126.037 32.771 113.584 26.0961L61.177 0.396148C61.177 0.396148 97.6546 38.4403 129.309 77.0509C132.499 81.0653 135.013 85.7761 136.598 90.8302C137.346 93.0698 137.71 95.37 137.69 97.7308C138.083 96.4897 139.031 93.7855 139.031 93.7855C140.704 88.2158 141.55 82.3841 141.629 76.6736C141.012 70.2874 140.072 64.3453 138.365 58.5244Z" fill="white"/>
</g>
<defs>
<filter id="filter0_iii_9188_106122" x="0.112305" y="0.396118" width="141.518" height="159.89" filterUnits="userSpaceOnUse" color-interpolation-filters="sRGB">
<feFlood flood-opacity="0" result="BackgroundImageFix"/>
<feBlend mode="normal" in="SourceGraphic" in2="BackgroundImageFix" result="shape"/>
<feColorMatrix in="SourceAlpha" type="matrix" values="0 0 0 0 0 0 0 0 0 0 0 0 0 0 0 0 0 0 127 0" result="hardAlpha"/>
<feOffset dy="2"/>
<feGaussianBlur stdDeviation="4"/>
<feComposite in2="hardAlpha" operator="arithmetic" k2="-1" k3="1"/>
<feColorMatrix type="matrix" values="0 0 0 0 0 0 0 0 0 0 0 0 0 0 0 0 0 0 0.25 0"/>
<feBlend mode="normal" in2="shape" result="effect1_innerShadow_9188_106122"/>
<feColorMatrix in="SourceAlpha" type="matrix" values="0 0 0 0 0 0 0 0 0 0 0 0 0 0 0 0 0 0 127 0" result="hardAlpha"/>
<feOffset dy="4"/>
<feGaussianBlur stdDeviation="5"/>
<feComposite in2="hardAlpha" operator="arithmetic" k2="-1" k3="1"/>
<feColorMatrix type="matrix" values="0 0 0 0 0.270588 0 0 0 0 0.882353 0 0 0 0 0.898039 0 0 0 0.2 0"/>
<feBlend mode="normal" in2="effect1_innerShadow_9188_106122" result="effect2_innerShadow_9188_106122"/>
<feColorMatrix in="SourceAlpha" type="matrix" values="0 0 0 0 0 0 0 0 0 0 0 0 0 0 0 0 0 0 127 0" result="hardAlpha"/>
<feOffset dy="4"/>
<feGaussianBlur stdDeviation="4"/>
<feComposite in2="hardAlpha" operator="arithmetic" k2="-1" k3="1"/>
<feColorMatrix type="matrix" values="0 0 0 0 0 0 0 0 0 0.321569 0 0 0 0 1 0 0 0 0.15 0"/>
<feBlend mode="normal" in2="effect2_innerShadow_9188_106122" result="effect3_innerShadow_9188_106122"/>
</filter>
</defs>
</svg>
