<svg width="16" height="16" viewBox="0 0 16 16" fill="none" xmlns="http://www.w3.org/2000/svg">
<path d="M7.68884 2.34518C10.0897 2.34518 12.0888 4.33837 12.0888 6.86283V8.74518H13.6888V6.86283C13.6888 3.48414 11.0026 0.745178 7.68884 0.745178C4.37513 0.745178 1.68884 3.48414 1.68884 6.86283V8.74518H3.28884V6.86283C3.28884 4.33837 5.28794 2.34518 7.68884 2.34518Z" fill="#8A919E"/>
<path d="M4.58887 12.7452C4.58887 13.8497 3.69344 14.7452 2.58887 14.7452C1.4843 14.7452 0.588867 13.8497 0.588867 12.7452C0.588867 11.6406 1.4843 10.7452 2.58887 10.7452C3.69344 10.7452 4.58887 11.6406 4.58887 12.7452Z" fill="#8A919E"/>
<path d="M15.3888 12.7452L12.8888 10.2452L10.3888 12.7452L12.8888 15.2452L15.3888 12.7452Z" fill="#8A919E"/>
</svg>
