<svg width="16" height="16" viewBox="0 0 16 16" fill="none" xmlns="http://www.w3.org/2000/svg">
<path fill-rule="evenodd" clip-rule="evenodd" d="M5.65202 1.06667C5.70893 1.09958 5.7588 1.1434 5.79875 1.19561C5.83871 1.24781 5.86798 1.30739 5.88488 1.37092C5.90179 1.43445 5.906 1.5007 5.89727 1.56586C5.88854 1.63102 5.86705 1.69382 5.83402 1.75067C5.6998 1.98282 5.60411 2.23521 5.55069 2.498C5.58936 2.53667 5.62936 2.574 5.67069 2.61C5.95163 2.26302 6.30661 1.98325 6.70965 1.79119C7.11268 1.59913 7.55357 1.49964 8.00002 1.5C8.94202 1.5 9.78202 1.934 10.3314 2.612C10.3714 2.576 10.4114 2.53867 10.45 2.50067C10.3967 2.23691 10.3008 1.98359 10.166 1.75067C10.1331 1.69385 10.1117 1.6311 10.103 1.56601C10.0944 1.50092 10.0986 1.43476 10.1155 1.37131C10.1324 1.30785 10.1616 1.24835 10.2015 1.19619C10.2414 1.14404 10.2912 1.10025 10.348 1.06733C10.4048 1.03442 10.4676 1.01301 10.5327 1.00434C10.5978 0.995674 10.6639 0.999911 10.7274 1.01681C10.7908 1.03371 10.8503 1.06294 10.9025 1.10284C10.9547 1.14274 10.9984 1.19252 11.0314 1.24933C11.2736 1.66797 11.426 2.13252 11.4787 2.61333C11.4863 2.68314 11.4792 2.75376 11.4577 2.82061C11.4362 2.88746 11.4009 2.94904 11.354 3.00133C11.1934 3.18133 11.0174 3.348 10.8294 3.50067C10.9878 3.94928 11.0372 4.42919 10.9734 4.90067C10.9027 5.42867 10.4714 5.764 10.0287 5.836C9.90736 5.856 9.78602 5.874 9.66402 5.89C9.76536 6.04133 9.84602 6.20733 9.90336 6.38467C10.7685 6.27877 11.6231 6.09968 12.458 5.84933C12.4149 5.26009 12.3381 4.6738 12.228 4.09333C12.2033 3.96302 12.2313 3.82822 12.3059 3.71857C12.3806 3.60893 12.4957 3.53342 12.626 3.50867C12.7563 3.48391 12.8911 3.51194 13.0008 3.58658C13.1104 3.66122 13.1859 3.77636 13.2107 3.90667C13.3507 4.65 13.4427 5.41067 13.48 6.18533C13.4855 6.29487 13.4547 6.40315 13.3926 6.4935C13.3304 6.58385 13.2403 6.65125 13.136 6.68533C12.118 7.018 11.0567 7.25467 9.96269 7.38467C9.91336 7.638 9.81602 7.87467 9.68069 8.08467C11.058 8.224 12.386 8.53267 13.6427 8.99C13.7439 9.02687 13.8306 9.09547 13.8897 9.18556C13.9488 9.27566 13.9772 9.38244 13.9707 9.49C13.8875 10.9073 13.621 12.3078 13.178 13.6567C13.1575 13.719 13.1248 13.7768 13.0819 13.8265C13.039 13.8763 12.9868 13.9171 12.9281 13.9467C12.8695 13.9762 12.8056 13.9939 12.7401 13.9988C12.6746 14.0037 12.6087 13.9956 12.5464 13.975C12.484 13.9544 12.4263 13.9218 12.3765 13.8789C12.3268 13.836 12.2859 13.7838 12.2564 13.7251C12.2268 13.6664 12.2091 13.6025 12.2042 13.537C12.1994 13.4715 12.2074 13.4057 12.228 13.3433C12.6049 12.1964 12.8459 11.0091 12.946 9.806C12.6127 9.69333 12.2734 9.59267 11.93 9.50267C11.9754 9.65867 11.9994 9.82533 11.9994 10C11.9994 12.6373 10.3187 15 7.99936 15C5.68069 15 3.99936 12.6373 3.99936 10C3.99936 9.82533 4.02402 9.65933 4.06869 9.50267C3.72602 9.59267 3.38736 9.69333 3.05402 9.806C3.15669 11.0313 3.40069 12.2167 3.77202 13.344C3.79346 13.4066 3.80225 13.4729 3.79788 13.5389C3.79352 13.605 3.77608 13.6695 3.74659 13.7287C3.7171 13.788 3.67614 13.8408 3.62608 13.8841C3.57602 13.9274 3.51787 13.9603 3.45499 13.981C3.3921 14.0016 3.32575 14.0096 3.25976 14.0044C3.19378 13.9992 3.12949 13.981 3.07061 13.9507C3.01173 13.9205 2.95943 13.8789 2.91676 13.8283C2.87409 13.7777 2.84189 13.7191 2.82202 13.656C2.37879 12.3072 2.11212 10.9067 2.02869 9.48933C2.02238 9.38181 2.05096 9.27511 2.11018 9.18514C2.16941 9.09517 2.2561 9.02673 2.35736 8.99C3.42872 8.6001 4.53783 8.32304 5.66669 8.16333H5.67336C5.88736 8.13267 6.10269 8.10667 6.31936 8.08467C6.18131 7.87152 6.08536 7.63391 6.03669 7.38467C4.95836 7.25691 3.89537 7.02242 2.86336 6.68467C2.75912 6.65059 2.66898 6.58318 2.60682 6.49283C2.54466 6.40248 2.51393 6.2942 2.51936 6.18467C2.55736 5.41133 2.64869 4.65 2.78936 3.90667C2.81411 3.77636 2.88962 3.66122 2.99926 3.58658C3.10891 3.51194 3.24371 3.48391 3.37402 3.50867C3.50433 3.53342 3.61947 3.60893 3.69411 3.71857C3.76875 3.82822 3.79678 3.96302 3.77202 4.09333C3.66269 4.668 3.58536 5.25333 3.54202 5.84933C4.36669 6.09667 5.22002 6.27733 6.09669 6.38467C6.15336 6.20733 6.23469 6.04133 6.33602 5.89C6.21421 5.87402 6.09264 5.85624 5.97136 5.83667C5.52869 5.76333 5.09736 5.42867 5.02669 4.90067C4.96379 4.42846 5.01336 3.94808 5.17136 3.49867C4.98313 3.34611 4.80745 3.17868 4.64602 2.998C4.59908 2.94563 4.56371 2.88394 4.54222 2.81697C4.52074 2.74999 4.51363 2.67924 4.52136 2.60933C4.57439 2.12995 4.7265 1.66682 4.96802 1.24933C5.00094 1.19242 5.04476 1.14256 5.09696 1.10261C5.14917 1.06265 5.20875 1.03338 5.27228 1.01648C5.33581 0.999572 5.40205 0.995362 5.46722 1.00409C5.53238 1.01282 5.59518 1.03364 5.65202 1.06667Z" fill="#8A919E"/>
</svg>
