<svg width="16" height="16" viewBox="0 0 16 16" fill="none" xmlns="http://www.w3.org/2000/svg">
<path fill-rule="evenodd" clip-rule="evenodd" d="M8.00579 1.11664C4.13177 1.11664 1 4.2715 1 8.17449C1 11.2944 3.00663 13.9353 5.79036 14.87C6.1384 14.9402 6.26589 14.7181 6.26589 14.5312C6.26589 14.3676 6.25442 13.8068 6.25442 13.2224C4.30557 13.6431 3.89974 12.3811 3.89974 12.3811C3.58655 11.5631 3.1225 11.3529 3.1225 11.3529C2.48465 10.9205 3.16896 10.9205 3.16896 10.9205C3.87651 10.9673 4.24778 11.645 4.24778 11.645C4.87402 12.7199 5.88315 12.4162 6.28912 12.2292C6.34705 11.7735 6.53276 11.458 6.72994 11.2827C5.1756 11.1191 3.54023 10.5115 3.54023 7.80049C3.54023 7.02927 3.81844 6.3983 4.25926 5.90758C4.1897 5.73234 3.94606 5.00773 4.32895 4.03789C4.32895 4.03789 4.92048 3.8509 6.25427 4.76236C6.82531 4.60787 7.41422 4.52928 8.00579 4.52862C8.59733 4.52862 9.20034 4.6105 9.75717 4.76236C11.0911 3.8509 11.6826 4.03789 11.6826 4.03789C12.0655 5.00773 11.8217 5.73234 11.7522 5.90758C12.2046 6.3983 12.4714 7.02927 12.4714 7.80049C12.4714 10.5115 10.836 11.1074 9.27003 11.2827C9.52529 11.5047 9.74555 11.9253 9.74555 12.5914C9.74555 13.5379 9.73408 14.2975 9.73408 14.5311C9.73408 14.7181 9.86171 14.9402 10.2096 14.8701C12.9933 13.9351 15 11.2944 15 8.17449C15.0114 4.2715 11.8682 1.11664 8.00579 1.11664Z" fill="#8A919E"/>
</svg>
