<svg width="276" height="51" viewBox="0 0 276 51" fill="none" xmlns="http://www.w3.org/2000/svg">
<circle cx="3" cy="3" r="3" fill="#4083CD"/>
<circle cx="12" cy="3" r="3" fill="#4083CD"/>
<circle cx="21" cy="3" r="3" fill="#4083CD"/>
<circle cx="30" cy="3" r="3" fill="#4083CD"/>
<circle cx="39" cy="3" r="3" fill="#4083CD"/>
<circle cx="48" cy="3" r="3" fill="#4083CD"/>
<circle cx="57" cy="3" r="3" fill="#4083CD"/>
<circle cx="66" cy="3" r="3" fill="#4083CD"/>
<circle cx="75" cy="3" r="3" fill="#4083CD"/>
<circle cx="84" cy="3" r="3" fill="#4083CD"/>
<circle cx="93" cy="3" r="3" fill="#4083CD"/>
<circle cx="102" cy="3" r="3" fill="#4083CD"/>
<circle cx="111" cy="3" r="3" fill="#4083CD"/>
<circle cx="120" cy="3" r="3" fill="#4083CD"/>
<circle cx="129" cy="3" r="3" fill="#4083CD"/>
<circle cx="138" cy="3" r="3" fill="#4083CD"/>
<circle cx="147" cy="3" r="3" fill="#4083CD"/>
<circle cx="156" cy="3" r="3" fill="#4083CD"/>
<circle cx="165" cy="3" r="3" fill="#4083CD"/>
<circle cx="174" cy="3" r="3" fill="#4083CD"/>
<circle cx="183" cy="3" r="3" fill="#4083CD"/>
<circle cx="192" cy="3" r="3" fill="#4083CD"/>
<circle cx="201" cy="3" r="3" fill="#4083CD"/>
<circle cx="210" cy="3" r="3" fill="#4083CD"/>
<circle cx="219" cy="3" r="3" fill="#4083CD"/>
<circle cx="228" cy="3" r="3" fill="#4083CD"/>
<circle cx="237" cy="3" r="3" fill="#4083CD"/>
<circle cx="246" cy="3" r="3" fill="#4083CD"/>
<circle cx="255" cy="3" r="3" fill="#4083CD"/>
<circle cx="264" cy="3" r="3" fill="#4083CD"/>
<circle cx="273" cy="3" r="3" fill="#4083CD"/>
<circle cx="3" cy="12" r="3" fill="#4083CD"/>
<circle cx="12" cy="12" r="3" fill="#4083CD"/>
<circle cx="21" cy="12" r="3" fill="#4083CD"/>
<circle cx="30" cy="12" r="3" fill="#4083CD"/>
<circle cx="39" cy="12" r="3" fill="#4083CD"/>
<circle cx="48" cy="12" r="3" fill="#4083CD"/>
<circle cx="57" cy="12" r="3" fill="#4083CD"/>
<circle cx="66" cy="12" r="3" fill="#4083CD"/>
<circle cx="75" cy="12" r="3" fill="#4083CD"/>
<circle cx="84" cy="12" r="3" fill="#4083CD"/>
<circle cx="93" cy="12" r="3" fill="#4083CD"/>
<circle cx="102" cy="12" r="3" fill="#4083CD"/>
<circle cx="111" cy="12" r="3" fill="#4083CD"/>
<circle cx="120" cy="12" r="3" fill="#4083CD"/>
<circle cx="129" cy="12" r="3" fill="#4083CD"/>
<circle cx="138" cy="12" r="3" fill="#4083CD"/>
<circle cx="147" cy="12" r="3" fill="#4083CD"/>
<circle cx="156" cy="12" r="3" fill="#4083CD"/>
<circle cx="165" cy="12" r="3" fill="#4083CD"/>
<circle cx="174" cy="12" r="3" fill="#4083CD"/>
<circle cx="183" cy="12" r="3" fill="#4083CD"/>
<circle cx="192" cy="12" r="3" fill="#4083CD"/>
<circle cx="201" cy="12" r="3" fill="#4083CD"/>
<circle cx="210" cy="12" r="3" fill="#4083CD"/>
<circle cx="219" cy="12" r="3" fill="#4083CD"/>
<circle cx="228" cy="12" r="3" fill="#4083CD"/>
<circle cx="237" cy="12" r="3" fill="#4083CD"/>
<circle cx="246" cy="12" r="3" fill="#4083CD"/>
<circle cx="255" cy="12" r="3" fill="#4083CD"/>
<circle cx="264" cy="12" r="3" fill="#4083CD"/>
<circle cx="273" cy="12" r="3" fill="#4083CD"/>
<circle cx="3" cy="21" r="3" fill="#4083CD"/>
<circle cx="12" cy="21" r="3" fill="#4083CD"/>
<circle cx="21" cy="21" r="3" fill="#4083CD"/>
<circle cx="30" cy="21" r="3" fill="#4083CD"/>
<circle cx="39" cy="21" r="3" fill="#4083CD"/>
<circle cx="48" cy="21" r="3" fill="#4083CD"/>
<circle cx="57" cy="21" r="3" fill="#4083CD"/>
<circle cx="66" cy="21" r="3" fill="#4083CD"/>
<circle cx="75" cy="21" r="3" fill="#4083CD"/>
<circle cx="84" cy="21" r="3" fill="#4083CD"/>
<circle cx="93" cy="21" r="3" fill="#4083CD"/>
<circle cx="102" cy="21" r="3" fill="#4083CD"/>
<circle cx="111" cy="21" r="3" fill="#4083CD"/>
<circle cx="120" cy="21" r="3" fill="#4083CD"/>
<circle cx="129" cy="21" r="3" fill="#4083CD"/>
<circle cx="138" cy="21" r="3" fill="#4083CD"/>
<circle cx="147" cy="21" r="3" fill="#4083CD"/>
<circle cx="156" cy="21" r="3" fill="#4083CD"/>
<circle cx="165" cy="21" r="3" fill="#4083CD"/>
<circle cx="174" cy="21" r="3" fill="#4083CD"/>
<circle cx="183" cy="21" r="3" fill="#4083CD"/>
<circle cx="192" cy="21" r="3" fill="#4083CD"/>
<circle cx="201" cy="21" r="3" fill="#4083CD"/>
<circle cx="210" cy="21" r="3" fill="#4083CD"/>
<circle cx="219" cy="21" r="3" fill="#4083CD"/>
<circle cx="228" cy="21" r="3" fill="#4083CD"/>
<circle cx="237" cy="21" r="3" fill="#4083CD"/>
<circle cx="246" cy="21" r="3" fill="#4083CD"/>
<circle cx="255" cy="21" r="3" fill="#4083CD"/>
<circle cx="264" cy="21" r="3" fill="#4083CD"/>
<circle cx="273" cy="21" r="3" fill="#4083CD"/>
<circle cx="3" cy="30" r="3" fill="#4083CD"/>
<circle cx="12" cy="30" r="3" fill="#4083CD"/>
<circle cx="21" cy="30" r="3" fill="#4083CD"/>
<circle cx="30" cy="30" r="3" fill="#4083CD"/>
<circle cx="39" cy="30" r="3" fill="#4083CD"/>
<circle cx="48" cy="30" r="3" fill="#4083CD"/>
<circle cx="57" cy="30" r="3" fill="#4083CD"/>
<circle cx="66" cy="30" r="3" fill="#4083CD"/>
<circle cx="75" cy="30" r="3" fill="#4083CD"/>
<circle cx="84" cy="30" r="3" fill="#4083CD"/>
<circle cx="93" cy="30" r="3" fill="#4083CD"/>
<circle cx="102" cy="30" r="3" fill="#4083CD"/>
<circle cx="111" cy="30" r="3" fill="#4083CD"/>
<circle cx="120" cy="30" r="3" fill="#4083CD"/>
<circle cx="129" cy="30" r="3" fill="#4083CD"/>
<circle cx="138" cy="30" r="3" fill="#4083CD"/>
<circle cx="147" cy="30" r="3" fill="#4083CD"/>
<circle cx="156" cy="30" r="3" fill="#4083CD"/>
<circle cx="165" cy="30" r="3" fill="#4083CD"/>
<circle cx="174" cy="30" r="3" fill="#4083CD"/>
<circle cx="183" cy="30" r="3" fill="#4083CD"/>
<circle cx="192" cy="30" r="3" fill="#4083CD"/>
<circle cx="201" cy="30" r="3" fill="#4083CD"/>
<circle cx="210" cy="30" r="3" fill="#4083CD"/>
<circle cx="219" cy="30" r="3" fill="#4083CD"/>
<circle cx="228" cy="30" r="3" fill="#4083CD"/>
<circle cx="237" cy="30" r="3" fill="#4083CD"/>
<circle cx="246" cy="30" r="3" fill="#4083CD"/>
<circle cx="255" cy="30" r="3" fill="#4083CD"/>
<circle cx="264" cy="30" r="3" fill="#4083CD"/>
<circle cx="273" cy="30" r="3" fill="#4083CD"/>
<circle cx="3" cy="39" r="3" fill="#4083CD"/>
<circle cx="12" cy="39" r="3" fill="#4083CD"/>
<circle cx="21" cy="39" r="3" fill="#4083CD"/>
<circle cx="30" cy="39" r="3" fill="#4083CD"/>
<circle cx="39" cy="39" r="3" fill="#4083CD"/>
<circle cx="48" cy="39" r="3" fill="#4083CD"/>
<circle cx="57" cy="39" r="3" fill="#4083CD"/>
<circle cx="66" cy="39" r="3" fill="#4083CD"/>
<circle cx="75" cy="39" r="3" fill="#4083CD"/>
<circle cx="84" cy="39" r="3" fill="#4083CD"/>
<circle cx="93" cy="39" r="3" fill="#4083CD"/>
<circle cx="102" cy="39" r="3" fill="#4083CD"/>
<circle cx="111" cy="39" r="3" fill="#4083CD"/>
<circle cx="120" cy="39" r="3" fill="#4083CD"/>
<circle cx="129" cy="39" r="3" fill="#4083CD"/>
<circle cx="138" cy="39" r="3" fill="#4083CD"/>
<circle cx="147" cy="39" r="3" fill="#4083CD"/>
<circle cx="156" cy="39" r="3" fill="#4083CD"/>
<circle cx="165" cy="39" r="3" fill="#4083CD"/>
<circle cx="174" cy="39" r="3" fill="#4083CD"/>
<circle cx="183" cy="39" r="3" fill="#4083CD"/>
<circle cx="192" cy="39" r="3" fill="#4083CD"/>
<circle cx="201" cy="39" r="3" fill="#4083CD"/>
<circle cx="210" cy="39" r="3" fill="#4083CD"/>
<circle cx="219" cy="39" r="3" fill="#4083CD"/>
<circle cx="228" cy="39" r="3" fill="#4083CD"/>
<circle cx="237" cy="39" r="3" fill="#4083CD"/>
<circle cx="246" cy="39" r="3" fill="#4083CD"/>
<circle cx="255" cy="39" r="3" fill="#4083CD"/>
<circle cx="264" cy="39" r="3" fill="#4083CD"/>
<circle cx="273" cy="39" r="3" fill="#4083CD"/>
<circle cx="3" cy="48" r="3" fill="#4083CD"/>
<circle cx="12" cy="48" r="3" fill="#4083CD"/>
<circle cx="21" cy="48" r="3" fill="#4083CD"/>
<circle cx="30" cy="48" r="3" fill="#4083CD"/>
<circle cx="39" cy="48" r="3" fill="#4083CD"/>
<circle cx="48" cy="48" r="3" fill="#4083CD"/>
<circle cx="57" cy="48" r="3" fill="#4083CD"/>
<circle cx="66" cy="48" r="3" fill="#4083CD"/>
<circle cx="75" cy="48" r="3" fill="#4083CD"/>
<circle cx="84" cy="48" r="3" fill="#4083CD"/>
<circle cx="93" cy="48" r="3" fill="#4083CD"/>
<circle cx="102" cy="48" r="3" fill="#4083CD"/>
<circle cx="111" cy="48" r="3" fill="#4083CD"/>
<circle cx="120" cy="48" r="3" fill="#4083CD"/>
<circle cx="129" cy="48" r="3" fill="#4083CD"/>
<circle cx="138" cy="48" r="3" fill="#4083CD"/>
<circle cx="147" cy="48" r="3" fill="#4083CD"/>
<circle cx="156" cy="48" r="3" fill="#4083CD"/>
<circle cx="165" cy="48" r="3" fill="#4083CD"/>
<circle cx="174" cy="48" r="3" fill="#4083CD"/>
<circle cx="183" cy="48" r="3" fill="#4083CD"/>
<circle cx="192" cy="48" r="3" fill="#4083CD"/>
<circle cx="201" cy="48" r="3" fill="#4083CD"/>
<circle cx="210" cy="48" r="3" fill="#4083CD"/>
<circle cx="219" cy="48" r="3" fill="#4083CD"/>
<circle cx="228" cy="48" r="3" fill="#4083CD"/>
<circle cx="237" cy="48" r="3" fill="#4083CD"/>
<circle cx="246" cy="48" r="3" fill="#4083CD"/>
<circle cx="255" cy="48" r="3" fill="#4083CD"/>
<circle cx="264" cy="48" r="3" fill="#4083CD"/>
<circle cx="273" cy="48" r="3" fill="#4083CD"/>
</svg>
