<svg width="519" height="550" viewBox="0 0 519 550" fill="none" xmlns="http://www.w3.org/2000/svg">
<g filter="url(#filter0_ddd_813_97892)">
<g clip-path="url(#clip0_813_97892)">
<rect width="375" height="406" transform="translate(72 72)" fill="#0A0B0D"/>
<g clip-path="url(#clip1_813_97892)">
<rect width="375" height="113" transform="translate(72 72)" fill="#0A0B0D"/>
<rect width="375" height="56" transform="translate(72 72)" fill="#0A0B0D"/>
<path d="M120 90H96V92H120V90Z" fill="white"/>
<path d="M120 99H96V101H120V99Z" fill="white"/>
<path d="M120 108H96V110H120V108Z" fill="white"/>
<path d="M229.449 106H234.137C236.233 106 237.769 104.8 237.769 102.832C237.769 101.28 236.857 100.416 235.545 100.144V100.064C236.681 99.792 237.433 98.992 237.433 97.696C237.433 95.888 235.977 94.736 233.945 94.736H229.449V106ZM235.289 98.016C235.289 98.832 234.745 99.344 233.785 99.344H231.577V96.528H233.785C234.745 96.528 235.289 97.04 235.289 97.856V98.016ZM235.609 102.72C235.609 103.568 235.033 104.192 233.913 104.192H231.577V101.04H233.897C234.985 101.04 235.609 101.616 235.609 102.56V102.72ZM239.587 106H241.747V101.52H241.811H241.795L245.763 106H248.531L244.291 101.504C246.579 101.408 247.827 100.112 247.827 98.192C247.827 96.192 246.451 94.736 243.907 94.736H239.587V106ZM245.651 98.32C245.651 99.312 245.027 99.904 243.827 99.904H241.747V96.544H243.827C245.027 96.544 245.651 97.12 245.651 98.144V98.32ZM257.63 104.144H254.958V96.592H257.63V94.736H250.142V96.592H252.814V104.144H250.142V106H257.63V104.144ZM263.576 94.736H260.04V106H263.576C266.776 106 268.52 103.552 268.52 100.368C268.52 97.2 266.776 94.736 263.576 94.736ZM263.576 96.592C265.08 96.592 266.328 97.808 266.328 99.952V100.768C266.328 102.928 265.08 104.144 263.576 104.144H262.184V96.592H263.576ZM276.962 106H278.69V100H274.354V101.712H276.594C276.594 103.008 275.986 104.4 274.498 104.4C273.154 104.4 272.178 103.232 272.178 100.8V99.968C272.178 97.536 273.186 96.368 274.53 96.368C275.65 96.368 276.146 97.168 276.274 98.032H278.61C278.29 95.888 276.866 94.496 274.562 94.496C271.538 94.496 269.97 96.912 269.97 100.368C269.97 103.776 271.394 106.224 274.114 106.224C275.826 106.224 276.61 105.2 276.866 103.904H276.962V106ZM280.941 94.736V106H288.525V104.144H283.101V101.136H288.029V99.312H283.101V96.592H288.525V94.736H280.941Z" fill="white"/>
<path d="M140.866 150.736H136.578V162H140.866C144.322 162 146.194 159.504 146.194 156.368C146.194 153.248 144.306 150.736 140.866 150.736ZM140.882 152.592C142.594 152.592 144.002 153.808 144.002 155.952V156.768C144.002 158.928 142.594 160.144 140.882 160.144H138.722V152.592H140.882ZM151.723 162.224C153.787 162.224 155.275 161.12 155.547 159.52H153.467C153.387 160.08 152.827 160.672 151.771 160.672C150.523 160.672 149.595 159.808 149.579 158.336H155.691V157.584C155.691 155.36 154.347 153.392 151.643 153.392C148.907 153.392 147.499 155.456 147.499 157.808C147.499 160.176 148.891 162.224 151.723 162.224ZM151.643 154.944C152.763 154.944 153.563 155.664 153.611 156.944H149.595C149.723 155.68 150.555 154.944 151.643 154.944ZM157.401 153.616V165.072H159.481V160.784H159.497C159.977 161.664 160.825 162.224 162.105 162.224C164.521 162.224 165.769 160.16 165.769 157.808C165.769 155.44 164.521 153.392 162.105 153.392C160.745 153.392 159.849 154.032 159.369 155.024H159.353V153.616H157.401ZM163.689 157.44V158.16C163.689 159.664 162.745 160.496 161.577 160.496C160.409 160.496 159.481 159.632 159.481 158.16V157.44C159.481 155.984 160.409 155.088 161.577 155.088C162.745 155.088 163.689 155.936 163.689 157.44ZM171.223 162.224C174.007 162.224 175.415 160.16 175.415 157.808C175.415 155.472 173.991 153.392 171.223 153.392C168.439 153.392 167.015 155.456 167.015 157.808C167.015 160.16 168.423 162.224 171.223 162.224ZM173.335 158.176C173.335 159.664 172.407 160.512 171.223 160.512C170.023 160.512 169.095 159.632 169.095 158.176V157.456C169.095 155.984 170.023 155.104 171.223 155.104C172.407 155.104 173.335 155.952 173.335 157.456V158.176ZM176.543 159.504C176.575 161.184 178.095 162.256 180.303 162.256C182.447 162.256 184.047 161.232 184.047 159.504C184.047 157.84 182.719 157.184 181.215 156.976L179.999 156.8C179.279 156.704 178.847 156.432 178.847 155.856C178.847 155.28 179.359 154.864 180.287 154.864C181.247 154.864 181.759 155.296 181.775 155.984H183.871C183.807 154.512 182.527 153.376 180.335 153.376C178.303 153.376 176.751 154.352 176.751 156.048C176.751 157.648 177.887 158.32 179.263 158.512L180.479 158.672C181.359 158.784 181.951 159.024 181.951 159.68C181.951 160.352 181.327 160.72 180.367 160.72C179.375 160.72 178.687 160.352 178.671 159.504H176.543ZM186.77 152.64C187.49 152.64 188.034 152.08 188.034 151.408C188.034 150.704 187.49 150.16 186.77 150.16H186.642C185.906 150.16 185.362 150.704 185.362 151.408C185.362 152.08 185.906 152.64 186.642 152.64H186.77ZM185.666 153.616V162H187.746V153.616H185.666ZM189.101 153.616V155.312H190.924V159.792C190.924 161.232 191.661 162 193.213 162H195.597V160.32H193.693C193.213 160.32 193.005 160.112 193.005 159.616V155.312H195.597V153.616H193.005V151.264H190.924V153.616H189.101Z" fill="#3773F5"/>
<line x1="73" y1="183" x2="258.5" y2="183" stroke="#3773F5" stroke-width="2" stroke-linecap="square"/>
<path d="M315.394 150.736L318.706 162.016H320.69L323.01 153.92H323.042L325.394 162.016H327.474L330.674 150.736H328.578L326.434 158.768H326.402L324.13 150.704H322.114L319.874 158.72H319.842L317.65 150.736H315.394ZM332.989 152.64C333.709 152.64 334.253 152.08 334.253 151.408C334.253 150.704 333.709 150.16 332.989 150.16H332.861C332.125 150.16 331.581 150.704 331.581 151.408C331.581 152.08 332.125 152.64 332.861 152.64H332.989ZM331.885 153.616V162H333.965V153.616H331.885ZM335.319 153.616V155.312H337.143V159.792C337.143 161.232 337.879 162 339.431 162H341.815V160.32H339.911C339.431 160.32 339.223 160.112 339.223 159.616V155.312H341.815V153.616H339.223V151.264H337.143V153.616H335.319ZM345.559 157.072C345.559 155.776 346.423 155.152 347.367 155.152C348.263 155.152 349.079 155.744 349.079 156.976V162H351.159V156.752C351.159 154.64 349.847 153.392 348.055 153.392C346.919 153.392 346.007 153.872 345.527 154.8H345.511V150.128H343.479V162H345.559V157.072ZM361.148 162V150.128H359.068V154.832H359.052C358.556 153.952 357.708 153.392 356.444 153.392C354.028 153.392 352.78 155.456 352.78 157.808C352.78 160.176 354.028 162.224 356.444 162.224C357.804 162.224 358.7 161.6 359.18 160.592H359.196V162H361.148ZM354.86 158.192V157.456C354.86 155.968 355.804 155.12 356.972 155.12C358.14 155.12 359.068 156 359.068 157.456V158.192C359.068 159.648 358.14 160.528 356.972 160.528C355.804 160.528 354.86 159.68 354.86 158.192ZM363.322 162H365.402V157.312C365.402 156.192 365.898 155.504 367.322 155.504H368.73V153.6H367.706C366.218 153.6 365.53 154.384 365.322 155.088H365.306V153.616H363.322V162ZM369.629 156.048H371.677C371.741 155.344 372.253 154.896 373.245 154.896C374.317 154.896 374.685 155.408 374.685 155.968C374.685 156.496 374.349 156.752 373.565 156.864L372.541 157.024C370.573 157.296 369.357 158.064 369.357 159.696C369.357 161.28 370.557 162.224 372.301 162.224C373.677 162.224 374.669 161.568 375.069 160.56H375.085V160.64C375.069 161.472 375.517 162 376.669 162H377.821V160.384H377.325C376.941 160.384 376.765 160.288 376.765 159.824V156.352C376.765 154.224 375.197 153.392 373.277 153.392C371.085 153.392 369.805 154.464 369.629 156.048ZM374.717 158.608C374.717 159.824 373.949 160.656 372.733 160.656C371.885 160.656 371.373 160.24 371.373 159.584V159.488C371.373 158.848 371.933 158.48 372.861 158.336L373.741 158.208C374.221 158.144 374.541 157.968 374.717 157.824V158.608ZM377.66 153.616L380.316 162.032H382.316L384.044 156.16H384.06L385.772 162.032H387.852L390.38 153.616H388.412L386.828 159.312H386.812L385.116 153.616H383.148L381.452 159.328H381.436L379.836 153.616H377.66Z" fill="white"/>
<line x1="72" y1="184.5" x2="447" y2="184.5" stroke="#8A919E" stroke-opacity="0.2"/>
</g>
<rect width="375" height="296" transform="translate(72 185)" fill="#0A0B0D"/>
<path d="M112 263C120.837 263 128 255.837 128 247C128 238.163 120.837 231 112 231C103.163 231 96 238.163 96 247C96 255.837 103.163 263 112 263Z" fill="#627EEA"/>
<path d="M111.998 235V243.502L118.995 246.713L111.998 235Z" fill="white" fill-opacity="0.602"/>
<path d="M111.998 235L105 246.713L111.998 243.502V235Z" fill="white"/>
<path d="M111.998 252.223V258L119 248.051L111.998 252.223Z" fill="white" fill-opacity="0.602"/>
<path d="M111.998 258V252.222L105 248.051L111.998 258Z" fill="white"/>
<path d="M111.998 250.886L118.995 246.713L111.998 243.504V250.886Z" fill="white" fill-opacity="0.2"/>
<path d="M105 246.713L111.998 250.886V243.504L105 246.713Z" fill="white" fill-opacity="0.602"/>
<path d="M137.328 231.736V243H139.472V238.392H144.752V236.536H139.472V233.592H145.216V231.736H137.328ZM146.791 243H148.871V238.312C148.871 237.192 149.367 236.504 150.791 236.504H152.199V234.6H151.175C149.687 234.6 148.999 235.384 148.791 236.088H148.775V234.616H146.791V243ZM157.098 243.224C159.882 243.224 161.29 241.16 161.29 238.808C161.29 236.472 159.866 234.392 157.098 234.392C154.314 234.392 152.89 236.456 152.89 238.808C152.89 241.16 154.298 243.224 157.098 243.224ZM159.21 239.176C159.21 240.664 158.282 241.512 157.098 241.512C155.898 241.512 154.97 240.632 154.97 239.176V238.456C154.97 236.984 155.898 236.104 157.098 236.104C158.282 236.104 159.21 236.952 159.21 238.456V239.176ZM162.994 243H165.074V237.928C165.074 236.728 165.858 236.152 166.706 236.152C167.522 236.152 168.274 236.696 168.274 237.832V243H170.354V237.928C170.354 236.728 171.138 236.152 171.986 236.152C172.818 236.152 173.57 236.696 173.57 237.832V243H175.65V237.608C175.65 235.592 174.386 234.392 172.674 234.392C171.49 234.392 170.482 234.952 170.018 236.008H170.002C169.554 234.968 168.594 234.392 167.394 234.392C166.274 234.392 165.378 234.888 164.962 235.848H164.946V234.616H162.994V243Z" fill="white"/>
<path d="M137.288 254.144V264H143.98V262.838H138.632V259.478H143.56V258.344H138.632V255.306H143.98V254.144H137.288ZM144.948 256.762V257.826H146.6V262.278C146.6 263.426 147.146 264 148.378 264H150.268V262.936H148.616C148.098 262.936 147.888 262.712 147.888 262.194V257.826H150.254V256.762H147.888V254.592H146.6V256.762H144.948ZM153.118 259.758C153.118 258.33 154.042 257.658 155.05 257.658C156.016 257.658 156.842 258.288 156.842 259.59V264H158.13V259.478C158.13 257.574 156.94 256.566 155.428 256.566C154.392 256.566 153.524 257.014 153.104 257.924H153.09V253.612H151.83V264H153.118V259.758ZM163.277 264.196C165.027 264.196 166.203 263.244 166.469 261.9H165.167C165.055 262.53 164.425 263.188 163.305 263.188C162.017 263.188 161.065 262.236 161.065 260.71V260.668H166.609V260.206C166.609 258.148 165.405 256.566 163.235 256.566C161.079 256.566 159.777 258.218 159.777 260.374C159.777 262.516 161.009 264.196 163.277 264.196ZM163.235 257.56C164.411 257.56 165.251 258.344 165.307 259.744H161.079C161.191 258.372 162.115 257.56 163.235 257.56ZM168.318 264H169.606V259.8C169.606 258.736 169.998 257.91 171.37 257.91H172.574V256.72H171.608C170.376 256.72 169.788 257.336 169.564 257.98H169.55V256.762H168.318V264ZM176.716 264.196C178.466 264.196 179.642 263.244 179.908 261.9H178.606C178.494 262.53 177.864 263.188 176.744 263.188C175.456 263.188 174.504 262.236 174.504 260.71V260.668H180.048V260.206C180.048 258.148 178.844 256.566 176.674 256.566C174.518 256.566 173.216 258.218 173.216 260.374C173.216 262.516 174.448 264.196 176.716 264.196ZM176.674 257.56C177.85 257.56 178.69 258.344 178.746 259.744H174.518C174.63 258.372 175.554 257.56 176.674 257.56ZM186.7 261.004C186.7 262.432 185.776 263.104 184.768 263.104C183.802 263.104 182.976 262.474 182.976 261.172V256.762H181.688V261.284C181.688 263.188 182.878 264.196 184.39 264.196C185.454 264.196 186.336 263.734 186.756 262.768H186.77V264H187.988V256.762H186.7V261.004ZM190.139 264H191.427V259.576C191.427 258.274 192.253 257.658 193.163 257.658C194.045 257.658 194.801 258.232 194.801 259.408V264H196.089V259.576C196.089 258.274 196.915 257.658 197.839 257.658C198.707 257.658 199.463 258.232 199.463 259.408V264H200.751V259.296C200.751 257.532 199.631 256.566 198.203 256.566C197.167 256.566 196.271 257.056 195.865 258.064H195.851C195.473 257.07 194.605 256.566 193.541 256.566C192.561 256.566 191.749 257 191.371 257.868H191.357V256.762H190.139V264ZM213.083 264H214.189V258.904H209.891V259.996H212.887C212.887 261.592 212.019 263.062 210.101 263.062C208.365 263.062 206.951 261.746 206.951 259.38V258.764C206.951 256.412 208.393 255.096 210.143 255.096C211.613 255.096 212.425 255.866 212.663 256.86H214.119C213.727 255.082 212.299 253.934 210.115 253.934C207.161 253.934 205.593 256.272 205.593 259.072C205.593 261.858 207.063 264.196 209.961 264.196C211.655 264.196 212.747 263.258 213.069 262.012H213.083V264ZM219.359 264.196C221.599 264.196 222.873 262.516 222.873 260.374C222.873 258.232 221.557 256.566 219.359 256.566C217.147 256.566 215.845 258.232 215.845 260.374C215.845 262.516 217.119 264.196 219.359 264.196ZM221.571 260.64C221.571 262.208 220.577 263.118 219.359 263.118C218.141 263.118 217.133 262.152 217.133 260.64V260.108C217.133 258.582 218.141 257.644 219.359 257.644C220.577 257.644 221.571 258.554 221.571 260.108V260.64ZM227.658 264.196C229.408 264.196 230.584 263.244 230.85 261.9H229.548C229.436 262.53 228.806 263.188 227.686 263.188C226.398 263.188 225.446 262.236 225.446 260.71V260.668H230.99V260.206C230.99 258.148 229.786 256.566 227.616 256.566C225.46 256.566 224.158 258.218 224.158 260.374C224.158 262.516 225.39 264.196 227.658 264.196ZM227.616 257.56C228.792 257.56 229.632 258.344 229.688 259.744H225.46C225.572 258.372 226.496 257.56 227.616 257.56ZM232.699 264H233.987V259.8C233.987 258.736 234.379 257.91 235.751 257.91H236.955V256.72H235.989C234.757 256.72 234.169 257.336 233.945 257.98H233.931V256.762H232.699V264ZM238.317 262.278C238.317 263.426 238.877 264 240.095 264H241.677V262.922H240.403C239.843 262.922 239.605 262.684 239.605 262.124V253.612H238.317V262.278ZM243.923 255.53C244.427 255.53 244.805 255.138 244.805 254.662C244.805 254.158 244.427 253.794 243.923 253.794H243.853C243.335 253.794 242.957 254.158 242.957 254.662C242.957 255.138 243.335 255.53 243.853 255.53H243.923ZM242.075 257.812H243.237V264H244.525V256.762H242.075V257.812Z" fill="#8A919E"/>
<path d="M267.061 239.587L265.587 240.939L270.227 246H258V248H270.086L265.086 253L266.5 254.414L273.884 247.03L267.061 239.587Z" fill="#8A919E" fill-opacity="0.66"/>
<path d="M302 263C305.164 263 308.258 262.062 310.889 260.304C313.52 258.545 315.571 256.047 316.782 253.123C317.993 250.199 318.31 246.982 317.693 243.879C317.075 240.775 315.551 237.924 313.314 235.686C311.076 233.449 308.225 231.925 305.121 231.307C302.018 230.69 298.801 231.007 295.877 232.218C292.953 233.429 290.455 235.48 288.696 238.111C286.938 240.742 286 243.836 286 247C286 251.243 287.686 255.313 290.686 258.314C293.687 261.314 297.757 263 302 263Z" fill="#0052FF"/>
<path fillRule="evenodd" clipRule="evenodd" d="M301.962 258.268C308.185 258.268 313.23 253.223 313.23 247C313.23 240.777 308.185 235.732 301.962 235.732C296.059 235.732 291.216 240.273 290.734 246.052H307.454V247.928H290.732C291.204 253.717 296.052 258.268 301.962 258.268Z" fill="white"/>
<path d="M329.792 233.592V243H331.936V233.592H335.536V231.736H326.192V233.592H329.792ZM339.363 243.224C342.147 243.224 343.555 241.16 343.555 238.808C343.555 236.472 342.131 234.392 339.363 234.392C336.579 234.392 335.155 236.456 335.155 238.808C335.155 241.16 336.563 243.224 339.363 243.224ZM341.475 239.176C341.475 240.664 340.547 241.512 339.363 241.512C338.163 241.512 337.235 240.632 337.235 239.176V238.456C337.235 236.984 338.163 236.104 339.363 236.104C340.547 236.104 341.475 236.952 341.475 238.456V239.176Z" fill="white"/>
<path d="M327.288 264H331.796C333.574 264 334.848 262.964 334.848 261.242C334.848 259.968 334.106 259.142 332.944 258.862V258.848C333.938 258.554 334.554 257.798 334.554 256.692C334.554 255.138 333.35 254.144 331.642 254.144H327.288V264ZM333.21 256.888C333.21 257.798 332.566 258.358 331.502 258.358H328.618V255.264H331.502C332.566 255.264 333.21 255.838 333.21 256.748V256.888ZM333.518 261.228C333.518 262.222 332.818 262.866 331.628 262.866H328.618V259.45H331.614C332.79 259.45 333.518 260.066 333.518 261.088V261.228ZM336.397 258.778H337.671C337.755 258.008 338.301 257.546 339.337 257.546C340.485 257.546 340.877 258.134 340.877 258.708C340.877 259.268 340.499 259.506 339.757 259.632L338.665 259.814C337.139 260.052 336.131 260.724 336.131 262.054C336.131 263.412 337.181 264.196 338.609 264.196C339.827 264.196 340.723 263.58 341.073 262.684H341.087V262.824C341.073 263.594 341.437 264 342.347 264H343.173V262.964H342.725C342.375 262.964 342.193 262.852 342.193 262.404V258.974C342.193 257.336 341.017 256.566 339.365 256.566C337.545 256.566 336.523 257.476 336.397 258.778ZM340.919 260.99C340.919 262.306 340.065 263.188 338.847 263.188C337.979 263.188 337.391 262.768 337.391 262.012V261.928C337.391 261.228 337.965 260.85 338.889 260.696L339.953 260.514C340.457 260.43 340.779 260.234 340.919 260.038V260.99ZM343.909 261.886C343.951 263.286 345.141 264.21 347.031 264.21C348.823 264.21 350.083 263.356 350.083 261.942C350.083 260.71 349.201 260.038 347.773 259.842L346.667 259.688C345.841 259.562 345.421 259.254 345.421 258.638C345.421 257.98 346.023 257.518 347.003 257.518C348.011 257.518 348.571 257.994 348.613 258.722H349.915C349.859 257.546 348.865 256.538 347.031 256.538C345.337 256.538 344.133 257.392 344.133 258.736C344.133 259.982 344.987 260.598 346.247 260.78L347.353 260.934C348.235 261.06 348.781 261.354 348.781 262.04C348.781 262.782 348.095 263.23 347.073 263.23C346.023 263.23 345.267 262.796 345.239 261.886H343.909ZM354.781 264.196C356.531 264.196 357.707 263.244 357.973 261.9H356.671C356.559 262.53 355.929 263.188 354.809 263.188C353.521 263.188 352.569 262.236 352.569 260.71V260.668H358.113V260.206C358.113 258.148 356.909 256.566 354.739 256.566C352.583 256.566 351.281 258.218 351.281 260.374C351.281 262.516 352.513 264.196 354.781 264.196ZM354.739 257.56C355.915 257.56 356.755 258.344 356.811 259.744H352.583C352.695 258.372 353.619 257.56 354.739 257.56ZM370.079 264H371.185V258.904H366.887V259.996H369.883C369.883 261.592 369.015 263.062 367.097 263.062C365.361 263.062 363.947 261.746 363.947 259.38V258.764C363.947 256.412 365.389 255.096 367.139 255.096C368.609 255.096 369.421 255.866 369.659 256.86H371.115C370.723 255.082 369.295 253.934 367.111 253.934C364.157 253.934 362.589 256.272 362.589 259.072C362.589 261.858 364.059 264.196 366.957 264.196C368.651 264.196 369.743 263.258 370.065 262.012H370.079V264ZM376.355 264.196C378.595 264.196 379.869 262.516 379.869 260.374C379.869 258.232 378.553 256.566 376.355 256.566C374.143 256.566 372.841 258.232 372.841 260.374C372.841 262.516 374.115 264.196 376.355 264.196ZM378.567 260.64C378.567 262.208 377.573 263.118 376.355 263.118C375.137 263.118 374.129 262.152 374.129 260.64V260.108C374.129 258.582 375.137 257.644 376.355 257.644C377.573 257.644 378.567 258.554 378.567 260.108V260.64ZM384.654 264.196C386.404 264.196 387.58 263.244 387.846 261.9H386.544C386.432 262.53 385.802 263.188 384.682 263.188C383.394 263.188 382.442 262.236 382.442 260.71V260.668H387.986V260.206C387.986 258.148 386.782 256.566 384.612 256.566C382.456 256.566 381.154 258.218 381.154 260.374C381.154 262.516 382.386 264.196 384.654 264.196ZM384.612 257.56C385.788 257.56 386.628 258.344 386.684 259.744H382.456C382.568 258.372 383.492 257.56 384.612 257.56ZM389.695 264H390.983V259.8C390.983 258.736 391.375 257.91 392.747 257.91H393.951V256.72H392.985C391.753 256.72 391.165 257.336 390.941 257.98H390.927V256.762H389.695V264ZM395.313 262.278C395.313 263.426 395.873 264 397.091 264H398.673V262.922H397.399C396.839 262.922 396.601 262.684 396.601 262.124V253.612H395.313V262.278ZM400.919 255.53C401.423 255.53 401.801 255.138 401.801 254.662C401.801 254.158 401.423 253.794 400.919 253.794H400.849C400.331 253.794 399.953 254.158 399.953 254.662C399.953 255.138 400.331 255.53 400.849 255.53H400.919ZM399.071 257.812H400.233V264H401.521V256.762H399.071V257.812Z" fill="#8A919E"/>
<path d="M114.561 298.981C104.833 298.981 98.7522 305.253 98.7522 315.43V329.319C98.7522 339.752 104.897 345.896 114.561 345.896C124.29 345.896 130.306 339.752 130.306 329.319V315.43C130.306 305.253 124.354 298.981 114.561 298.981ZM114.561 340.584C108.353 340.584 104.769 336.295 104.769 329.319V315.494C104.769 308.646 108.353 304.293 114.561 304.293C120.77 304.293 124.29 308.646 124.29 315.494V329.319C124.29 336.295 120.706 340.584 114.561 340.584Z" fill="white"/>
<path d="M150.288 299.941V345H180.882V339.688H156.369V324.327H178.898V319.142H156.369V305.253H180.882V299.941H150.288ZM199.697 305.253V345H205.777V305.253H220.882V299.941H184.592V305.253H199.697ZM226.293 299.941V345H232.373V324.327H255.991V345H262.071V299.941H255.991V319.014H232.373V299.941H226.293Z" fill="#464B55"/>
<path d="M411 318.333L407 313L403 318.333H406V323.667H408V318.333H411Z" fill="white"/>
<path d="M400 318.333H398V323.667H395L399 329L403 323.667H400V318.333Z" fill="white"/>
<rect x="383.5" y="301.5" width="39" height="39" rx="19.5" stroke="#8A919E"/>
<path d="M101.266 360.781V363.164H100.094V360.781H101.266ZM101.125 373.539V375.625H99.9609V373.539H101.125ZM102.688 371.07C102.688 370.758 102.617 370.477 102.477 370.227C102.336 369.977 102.104 369.747 101.781 369.539C101.458 369.331 101.026 369.138 100.484 368.961C99.8281 368.758 99.2604 368.51 98.7812 368.219C98.3073 367.927 97.9401 367.565 97.6797 367.133C97.4245 366.701 97.2969 366.177 97.2969 365.562C97.2969 364.922 97.4349 364.37 97.7109 363.906C97.987 363.443 98.3776 363.086 98.8828 362.836C99.388 362.586 99.9818 362.461 100.664 362.461C101.195 362.461 101.669 362.542 102.086 362.703C102.503 362.859 102.854 363.094 103.141 363.406C103.432 363.719 103.654 364.102 103.805 364.555C103.961 365.008 104.039 365.531 104.039 366.125H102.602C102.602 365.776 102.56 365.456 102.477 365.164C102.393 364.872 102.268 364.62 102.102 364.406C101.935 364.188 101.732 364.021 101.492 363.906C101.253 363.786 100.977 363.727 100.664 363.727C100.227 363.727 99.8646 363.802 99.5781 363.953C99.2969 364.104 99.0885 364.318 98.9531 364.594C98.8177 364.865 98.75 365.18 98.75 365.539C98.75 365.872 98.8177 366.164 98.9531 366.414C99.0885 366.664 99.3177 366.891 99.6406 367.094C99.9688 367.292 100.419 367.487 100.992 367.68C101.664 367.893 102.234 368.146 102.703 368.438C103.172 368.724 103.529 369.078 103.773 369.5C104.018 369.917 104.141 370.435 104.141 371.055C104.141 371.727 103.99 372.294 103.688 372.758C103.385 373.216 102.961 373.565 102.414 373.805C101.867 374.044 101.227 374.164 100.492 374.164C100.049 374.164 99.612 374.104 99.1797 373.984C98.7474 373.865 98.3568 373.669 98.0078 373.398C97.6589 373.122 97.3802 372.76 97.1719 372.312C96.9635 371.859 96.8594 371.305 96.8594 370.648H98.3125C98.3125 371.091 98.375 371.458 98.5 371.75C98.6302 372.036 98.8021 372.266 99.0156 372.438C99.2292 372.604 99.4635 372.724 99.7188 372.797C99.9792 372.865 100.237 372.898 100.492 372.898C100.961 372.898 101.357 372.826 101.68 372.68C102.008 372.529 102.258 372.315 102.43 372.039C102.602 371.763 102.688 371.44 102.688 371.07ZM113.086 367.406V369.141C113.086 370.073 113.003 370.859 112.836 371.5C112.669 372.141 112.43 372.656 112.117 373.047C111.805 373.438 111.427 373.721 110.984 373.898C110.547 374.07 110.052 374.156 109.5 374.156C109.062 374.156 108.659 374.102 108.289 373.992C107.919 373.883 107.586 373.708 107.289 373.469C106.997 373.224 106.747 372.906 106.539 372.516C106.331 372.125 106.172 371.651 106.062 371.094C105.953 370.536 105.898 369.885 105.898 369.141V367.406C105.898 366.474 105.982 365.693 106.148 365.062C106.32 364.432 106.562 363.927 106.875 363.547C107.188 363.161 107.562 362.885 108 362.719C108.443 362.552 108.938 362.469 109.484 362.469C109.927 362.469 110.333 362.523 110.703 362.633C111.078 362.737 111.411 362.906 111.703 363.141C111.995 363.37 112.242 363.677 112.445 364.062C112.654 364.443 112.812 364.909 112.922 365.461C113.031 366.013 113.086 366.661 113.086 367.406ZM111.633 369.375V367.164C111.633 366.654 111.602 366.206 111.539 365.82C111.482 365.43 111.396 365.096 111.281 364.82C111.167 364.544 111.021 364.32 110.844 364.148C110.672 363.977 110.471 363.852 110.242 363.773C110.018 363.69 109.766 363.648 109.484 363.648C109.141 363.648 108.836 363.714 108.57 363.844C108.305 363.969 108.081 364.169 107.898 364.445C107.721 364.721 107.586 365.083 107.492 365.531C107.398 365.979 107.352 366.523 107.352 367.164V369.375C107.352 369.885 107.38 370.336 107.438 370.727C107.5 371.117 107.591 371.456 107.711 371.742C107.831 372.023 107.977 372.255 108.148 372.438C108.32 372.62 108.518 372.755 108.742 372.844C108.971 372.927 109.224 372.969 109.5 372.969C109.854 372.969 110.164 372.901 110.43 372.766C110.695 372.63 110.917 372.419 111.094 372.133C111.276 371.841 111.411 371.469 111.5 371.016C111.589 370.557 111.633 370.01 111.633 369.375ZM115.125 373.234C115.125 372.99 115.201 372.784 115.352 372.617C115.508 372.445 115.732 372.359 116.023 372.359C116.315 372.359 116.536 372.445 116.688 372.617C116.844 372.784 116.922 372.99 116.922 373.234C116.922 373.474 116.844 373.677 116.688 373.844C116.536 374.01 116.315 374.094 116.023 374.094C115.732 374.094 115.508 374.01 115.352 373.844C115.201 373.677 115.125 373.474 115.125 373.234ZM126.305 367.406V369.141C126.305 370.073 126.221 370.859 126.055 371.5C125.888 372.141 125.648 372.656 125.336 373.047C125.023 373.438 124.646 373.721 124.203 373.898C123.766 374.07 123.271 374.156 122.719 374.156C122.281 374.156 121.878 374.102 121.508 373.992C121.138 373.883 120.805 373.708 120.508 373.469C120.216 373.224 119.966 372.906 119.758 372.516C119.549 372.125 119.391 371.651 119.281 371.094C119.172 370.536 119.117 369.885 119.117 369.141V367.406C119.117 366.474 119.201 365.693 119.367 365.062C119.539 364.432 119.781 363.927 120.094 363.547C120.406 363.161 120.781 362.885 121.219 362.719C121.661 362.552 122.156 362.469 122.703 362.469C123.146 362.469 123.552 362.523 123.922 362.633C124.297 362.737 124.63 362.906 124.922 363.141C125.214 363.37 125.461 363.677 125.664 364.062C125.872 364.443 126.031 364.909 126.141 365.461C126.25 366.013 126.305 366.661 126.305 367.406ZM124.852 369.375V367.164C124.852 366.654 124.82 366.206 124.758 365.82C124.701 365.43 124.615 365.096 124.5 364.82C124.385 364.544 124.24 364.32 124.062 364.148C123.891 363.977 123.69 363.852 123.461 363.773C123.237 363.69 122.984 363.648 122.703 363.648C122.359 363.648 122.055 363.714 121.789 363.844C121.523 363.969 121.299 364.169 121.117 364.445C120.94 364.721 120.805 365.083 120.711 365.531C120.617 365.979 120.57 366.523 120.57 367.164V369.375C120.57 369.885 120.599 370.336 120.656 370.727C120.719 371.117 120.81 371.456 120.93 371.742C121.049 372.023 121.195 372.255 121.367 372.438C121.539 372.62 121.737 372.755 121.961 372.844C122.19 372.927 122.443 372.969 122.719 372.969C123.073 372.969 123.383 372.901 123.648 372.766C123.914 372.63 124.135 372.419 124.312 372.133C124.495 371.841 124.63 371.469 124.719 371.016C124.807 370.557 124.852 370.01 124.852 369.375ZM135.305 367.406V369.141C135.305 370.073 135.221 370.859 135.055 371.5C134.888 372.141 134.648 372.656 134.336 373.047C134.023 373.438 133.646 373.721 133.203 373.898C132.766 374.07 132.271 374.156 131.719 374.156C131.281 374.156 130.878 374.102 130.508 373.992C130.138 373.883 129.805 373.708 129.508 373.469C129.216 373.224 128.966 372.906 128.758 372.516C128.549 372.125 128.391 371.651 128.281 371.094C128.172 370.536 128.117 369.885 128.117 369.141V367.406C128.117 366.474 128.201 365.693 128.367 365.062C128.539 364.432 128.781 363.927 129.094 363.547C129.406 363.161 129.781 362.885 130.219 362.719C130.661 362.552 131.156 362.469 131.703 362.469C132.146 362.469 132.552 362.523 132.922 362.633C133.297 362.737 133.63 362.906 133.922 363.141C134.214 363.37 134.461 363.677 134.664 364.062C134.872 364.443 135.031 364.909 135.141 365.461C135.25 366.013 135.305 366.661 135.305 367.406ZM133.852 369.375V367.164C133.852 366.654 133.82 366.206 133.758 365.82C133.701 365.43 133.615 365.096 133.5 364.82C133.385 364.544 133.24 364.32 133.062 364.148C132.891 363.977 132.69 363.852 132.461 363.773C132.237 363.69 131.984 363.648 131.703 363.648C131.359 363.648 131.055 363.714 130.789 363.844C130.523 363.969 130.299 364.169 130.117 364.445C129.94 364.721 129.805 365.083 129.711 365.531C129.617 365.979 129.57 366.523 129.57 367.164V369.375C129.57 369.885 129.599 370.336 129.656 370.727C129.719 371.117 129.81 371.456 129.93 371.742C130.049 372.023 130.195 372.255 130.367 372.438C130.539 372.62 130.737 372.755 130.961 372.844C131.19 372.927 131.443 372.969 131.719 372.969C132.073 372.969 132.383 372.901 132.648 372.766C132.914 372.63 133.135 372.419 133.312 372.133C133.495 371.841 133.63 371.469 133.719 371.016C133.807 370.557 133.852 370.01 133.852 369.375ZM148.016 362.625H149.516V370.32C149.516 371.174 149.326 371.885 148.945 372.453C148.565 373.021 148.06 373.448 147.43 373.734C146.805 374.016 146.125 374.156 145.391 374.156C144.62 374.156 143.922 374.016 143.297 373.734C142.677 373.448 142.185 373.021 141.82 372.453C141.461 371.885 141.281 371.174 141.281 370.32V362.625H142.773V370.32C142.773 370.914 142.883 371.404 143.102 371.789C143.32 372.174 143.625 372.461 144.016 372.648C144.411 372.836 144.87 372.93 145.391 372.93C145.917 372.93 146.375 372.836 146.766 372.648C147.161 372.461 147.469 372.174 147.688 371.789C147.906 371.404 148.016 370.914 148.016 370.32V362.625ZM157.945 371.125C157.945 370.859 157.904 370.625 157.82 370.422C157.742 370.214 157.602 370.026 157.398 369.859C157.201 369.693 156.924 369.534 156.57 369.383C156.221 369.232 155.779 369.078 155.242 368.922C154.68 368.755 154.172 368.57 153.719 368.367C153.266 368.159 152.878 367.922 152.555 367.656C152.232 367.391 151.984 367.086 151.812 366.742C151.641 366.398 151.555 366.005 151.555 365.562C151.555 365.12 151.646 364.711 151.828 364.336C152.01 363.961 152.271 363.635 152.609 363.359C152.953 363.078 153.362 362.859 153.836 362.703C154.31 362.547 154.839 362.469 155.422 362.469C156.276 362.469 157 362.633 157.594 362.961C158.193 363.284 158.648 363.708 158.961 364.234C159.273 364.755 159.43 365.312 159.43 365.906H157.93C157.93 365.479 157.839 365.102 157.656 364.773C157.474 364.44 157.198 364.18 156.828 363.992C156.458 363.799 155.99 363.703 155.422 363.703C154.885 363.703 154.443 363.784 154.094 363.945C153.745 364.107 153.484 364.326 153.312 364.602C153.146 364.878 153.062 365.193 153.062 365.547C153.062 365.786 153.112 366.005 153.211 366.203C153.315 366.396 153.474 366.576 153.688 366.742C153.906 366.909 154.182 367.062 154.516 367.203C154.854 367.344 155.258 367.479 155.727 367.609C156.372 367.792 156.93 367.995 157.398 368.219C157.867 368.443 158.253 368.695 158.555 368.977C158.862 369.253 159.089 369.568 159.234 369.922C159.385 370.271 159.461 370.667 159.461 371.109C159.461 371.573 159.367 371.992 159.18 372.367C158.992 372.742 158.724 373.062 158.375 373.328C158.026 373.594 157.607 373.799 157.117 373.945C156.633 374.086 156.091 374.156 155.492 374.156C154.966 374.156 154.448 374.083 153.938 373.938C153.432 373.792 152.971 373.573 152.555 373.281C152.143 372.99 151.812 372.63 151.562 372.203C151.318 371.771 151.195 371.271 151.195 370.703H152.695C152.695 371.094 152.771 371.43 152.922 371.711C153.073 371.987 153.279 372.216 153.539 372.398C153.805 372.581 154.104 372.716 154.438 372.805C154.776 372.888 155.128 372.93 155.492 372.93C156.018 372.93 156.464 372.857 156.828 372.711C157.193 372.565 157.469 372.357 157.656 372.086C157.849 371.815 157.945 371.495 157.945 371.125ZM164.461 374H162.086L162.102 372.773H164.461C165.273 372.773 165.951 372.604 166.492 372.266C167.034 371.922 167.44 371.443 167.711 370.828C167.987 370.208 168.125 369.484 168.125 368.656V367.961C168.125 367.31 168.047 366.732 167.891 366.227C167.734 365.716 167.505 365.286 167.203 364.938C166.901 364.583 166.531 364.315 166.094 364.133C165.661 363.951 165.164 363.859 164.602 363.859H162.039V362.625H164.602C165.346 362.625 166.026 362.75 166.641 363C167.255 363.245 167.784 363.602 168.227 364.07C168.674 364.534 169.018 365.096 169.258 365.758C169.497 366.414 169.617 367.154 169.617 367.977V368.656C169.617 369.479 169.497 370.221 169.258 370.883C169.018 371.539 168.672 372.099 168.219 372.562C167.771 373.026 167.229 373.383 166.594 373.633C165.964 373.878 165.253 374 164.461 374ZM162.891 362.625V374H161.383V362.625H162.891Z" fill="#5B616E"/>
<path d="M112 435C120.837 435 128 427.837 128 419C128 410.163 120.837 403 112 403C103.163 403 96 410.163 96 419C96 427.837 103.163 435 112 435Z" fill="#627EEA"/>
<path d="M111.998 407V415.502L118.995 418.713L111.998 407Z" fill="white" fill-opacity="0.602"/>
<path d="M111.998 407L105 418.713L111.998 415.502V407Z" fill="white"/>
<path d="M111.998 424.223V430L119 420.051L111.998 424.223Z" fill="white" fill-opacity="0.602"/>
<path d="M111.998 430V424.222L105 420.051L111.998 430Z" fill="white"/>
<path d="M111.998 422.886L118.995 418.713L111.998 415.504V422.886Z" fill="white" fill-opacity="0.2"/>
<path d="M105 418.713L111.998 422.886V415.504L105 418.713Z" fill="white" fill-opacity="0.602"/>
<path d="M149.616 403.736H145.328V415H149.616C153.072 415 154.944 412.504 154.944 409.368C154.944 406.248 153.056 403.736 149.616 403.736ZM149.632 405.592C151.344 405.592 152.752 406.808 152.752 408.952V409.768C152.752 411.928 151.344 413.144 149.632 413.144H147.472V405.592H149.632ZM160.473 415.224C162.537 415.224 164.025 414.12 164.297 412.52H162.217C162.137 413.08 161.577 413.672 160.521 413.672C159.273 413.672 158.345 412.808 158.329 411.336H164.441V410.584C164.441 408.36 163.097 406.392 160.393 406.392C157.657 406.392 156.249 408.456 156.249 410.808C156.249 413.176 157.641 415.224 160.473 415.224ZM160.393 407.944C161.513 407.944 162.313 408.664 162.361 409.944H158.345C158.473 408.68 159.305 407.944 160.393 407.944ZM166.151 406.616V418.072H168.231V413.784H168.247C168.727 414.664 169.575 415.224 170.855 415.224C173.271 415.224 174.519 413.16 174.519 410.808C174.519 408.44 173.271 406.392 170.855 406.392C169.495 406.392 168.599 407.032 168.119 408.024H168.103V406.616H166.151ZM172.439 410.44V411.16C172.439 412.664 171.495 413.496 170.327 413.496C169.159 413.496 168.231 412.632 168.231 411.16V410.44C168.231 408.984 169.159 408.088 170.327 408.088C171.495 408.088 172.439 408.936 172.439 410.44ZM179.973 415.224C182.757 415.224 184.165 413.16 184.165 410.808C184.165 408.472 182.741 406.392 179.973 406.392C177.189 406.392 175.765 408.456 175.765 410.808C175.765 413.16 177.173 415.224 179.973 415.224ZM182.085 411.176C182.085 412.664 181.157 413.512 179.973 413.512C178.773 413.512 177.845 412.632 177.845 411.176V410.456C177.845 408.984 178.773 408.104 179.973 408.104C181.157 408.104 182.085 408.952 182.085 410.456V411.176ZM185.293 412.504C185.325 414.184 186.845 415.256 189.053 415.256C191.197 415.256 192.797 414.232 192.797 412.504C192.797 410.84 191.469 410.184 189.965 409.976L188.749 409.8C188.029 409.704 187.597 409.432 187.597 408.856C187.597 408.28 188.109 407.864 189.037 407.864C189.997 407.864 190.509 408.296 190.525 408.984H192.621C192.557 407.512 191.277 406.376 189.085 406.376C187.053 406.376 185.501 407.352 185.501 409.048C185.501 410.648 186.637 411.32 188.013 411.512L189.229 411.672C190.109 411.784 190.701 412.024 190.701 412.68C190.701 413.352 190.077 413.72 189.117 413.72C188.125 413.72 187.437 413.352 187.421 412.504H185.293ZM196.112 405.64C196.816 405.64 197.376 405.08 197.376 404.408C197.376 403.704 196.816 403.16 196.112 403.16H195.968C195.248 403.16 194.688 403.704 194.688 404.408C194.688 405.08 195.248 405.64 195.968 405.64H196.112ZM193.696 408.28H194.992V415H197.072V406.616H193.696V408.28ZM198.444 406.616V408.312H200.268V412.792C200.268 414.232 201.004 415 202.556 415H204.94V413.32H203.036C202.556 413.32 202.348 413.112 202.348 412.616V408.312H204.94V406.616H202.348V404.264H200.268V406.616H198.444ZM210.25 403.736V415H218.234V413.144H212.394V410.136H217.722V408.312H212.394V405.592H218.234V403.736H210.25ZM222.839 405.592V415H224.983V405.592H228.583V403.736H219.239V405.592H222.839ZM230.109 403.736V415H232.253V410.136H237.453V415H239.613V403.736H237.453V408.28H232.253V403.736H230.109Z" fill="white"/>
<path d="M260.328 406.387L256 410.715L251.672 406.387L250.639 407.419L256 412.78L261.361 407.419L260.328 406.387Z" fill="white"/>
<path d="M148.284 425.934C146.142 425.934 144.826 427.306 144.826 429.532V432.57C144.826 434.852 146.156 436.196 148.284 436.196C150.412 436.196 151.728 434.852 151.728 432.57V429.532C151.728 427.306 150.426 425.934 148.284 425.934ZM148.284 435.034C146.926 435.034 146.142 434.096 146.142 432.57V429.546C146.142 428.048 146.926 427.096 148.284 427.096C149.642 427.096 150.412 428.048 150.412 429.546V432.57C150.412 434.096 149.628 435.034 148.284 435.034ZM154.297 436.126C154.843 436.126 155.263 435.706 155.263 435.16C155.263 434.614 154.843 434.194 154.297 434.194C153.751 434.194 153.331 434.614 153.331 435.16C153.331 435.706 153.751 436.126 154.297 436.126ZM160.302 425.934C158.16 425.934 156.844 427.306 156.844 429.532V432.57C156.844 434.852 158.174 436.196 160.302 436.196C162.43 436.196 163.746 434.852 163.746 432.57V429.532C163.746 427.306 162.444 425.934 160.302 425.934ZM160.302 435.034C158.944 435.034 158.16 434.096 158.16 432.57V429.546C158.16 428.048 158.944 427.096 160.302 427.096C161.66 427.096 162.43 428.048 162.43 429.546V432.57C162.43 434.096 161.646 435.034 160.302 435.034ZM165.22 436H171.73V434.88H166.508V434.796C166.508 434.026 166.886 433.55 167.74 432.948L169.672 431.646C171.086 430.68 171.548 429.784 171.548 428.692C171.548 427.124 170.344 425.934 168.44 425.934C166.606 425.934 165.248 427.054 165.22 428.944H166.508C166.522 427.712 167.264 427.012 168.44 427.012C169.644 427.012 170.232 427.74 170.232 428.65V428.832C170.232 429.448 169.98 430.022 168.972 430.708L167.152 431.926C165.822 432.808 165.22 433.606 165.22 434.838V436ZM178.218 430.792C179.324 430.54 180.01 429.672 180.01 428.594C180.01 427.04 178.694 425.934 176.748 425.934C174.816 425.934 173.486 427.04 173.486 428.594C173.486 429.672 174.172 430.54 175.278 430.792V430.806C174.088 431.058 173.22 431.968 173.22 433.34C173.22 434.992 174.634 436.196 176.748 436.196C178.862 436.196 180.29 434.992 180.29 433.34C180.29 431.968 179.408 431.058 178.218 430.806V430.792ZM174.774 428.608C174.774 427.684 175.558 426.998 176.748 426.998C177.952 426.998 178.722 427.684 178.722 428.608V428.748C178.722 429.63 177.91 430.344 176.748 430.344C175.586 430.344 174.774 429.63 174.774 428.748V428.608ZM174.536 433.144C174.536 432.122 175.376 431.324 176.748 431.324C178.12 431.324 178.96 432.122 178.96 433.144V433.312C178.96 434.362 178.092 435.146 176.748 435.146C175.404 435.146 174.536 434.362 174.536 433.312V433.144ZM183.81 436H185.126V426.144H183.81V427.852H181.388V428.944H183.81V436ZM190.381 430.778H191.655C191.739 430.008 192.285 429.546 193.321 429.546C194.469 429.546 194.861 430.134 194.861 430.708C194.861 431.268 194.483 431.506 193.741 431.632L192.649 431.814C191.123 432.052 190.115 432.724 190.115 434.054C190.115 435.412 191.165 436.196 192.593 436.196C193.811 436.196 194.707 435.58 195.057 434.684H195.071V434.824C195.057 435.594 195.421 436 196.331 436H197.157V434.964H196.709C196.359 434.964 196.177 434.852 196.177 434.404V430.974C196.177 429.336 195.001 428.566 193.349 428.566C191.529 428.566 190.507 429.476 190.381 430.778ZM194.903 432.99C194.903 434.306 194.049 435.188 192.831 435.188C191.963 435.188 191.375 434.768 191.375 434.012V433.928C191.375 433.228 191.949 432.85 192.873 432.696L193.937 432.514C194.441 432.43 194.763 432.234 194.903 432.038V432.99ZM204.092 428.762H202.776L200.662 434.502H200.648L198.52 428.762H197.106L199.948 436.014H201.306L204.092 428.762ZM204.819 430.778H206.093C206.177 430.008 206.723 429.546 207.759 429.546C208.907 429.546 209.299 430.134 209.299 430.708C209.299 431.268 208.921 431.506 208.179 431.632L207.087 431.814C205.561 432.052 204.553 432.724 204.553 434.054C204.553 435.412 205.603 436.196 207.031 436.196C208.249 436.196 209.145 435.58 209.495 434.684H209.509V434.824C209.495 435.594 209.859 436 210.769 436H211.595V434.964H211.147C210.797 434.964 210.615 434.852 210.615 434.404V430.974C210.615 429.336 209.439 428.566 207.787 428.566C205.967 428.566 204.945 429.476 204.819 430.778ZM209.341 432.99C209.341 434.306 208.487 435.188 207.269 435.188C206.401 435.188 205.813 434.768 205.813 434.012V433.928C205.813 433.228 206.387 432.85 207.311 432.696L208.375 432.514C208.879 432.43 209.201 432.234 209.341 432.038V432.99ZM214.107 427.53C214.611 427.53 214.989 427.138 214.989 426.662C214.989 426.158 214.611 425.794 214.107 425.794H214.037C213.519 425.794 213.141 426.158 213.141 426.662C213.141 427.138 213.519 427.53 214.037 427.53H214.107ZM212.259 429.812H213.421V436H214.709V428.762H212.259V429.812ZM216.799 434.278C216.799 435.426 217.359 436 218.577 436H220.159V434.922H218.885C218.325 434.922 218.087 434.684 218.087 434.124V425.612H216.799V434.278ZM221.211 430.778H222.485C222.569 430.008 223.115 429.546 224.151 429.546C225.299 429.546 225.691 430.134 225.691 430.708C225.691 431.268 225.313 431.506 224.571 431.632L223.479 431.814C221.953 432.052 220.945 432.724 220.945 434.054C220.945 435.412 221.995 436.196 223.423 436.196C224.641 436.196 225.537 435.58 225.887 434.684H225.901V434.824C225.887 435.594 226.251 436 227.161 436H227.987V434.964H227.539C227.189 434.964 227.007 434.852 227.007 434.404V430.974C227.007 429.336 225.831 428.566 224.179 428.566C222.359 428.566 221.337 429.476 221.211 430.778ZM225.733 432.99C225.733 434.306 224.879 435.188 223.661 435.188C222.793 435.188 222.205 434.768 222.205 434.012V433.928C222.205 433.228 222.779 432.85 223.703 432.696L224.767 432.514C225.271 432.43 225.593 432.234 225.733 432.038V432.99ZM229.269 436H230.501V434.628H230.515C230.935 435.594 231.803 436.196 233.021 436.196C235.051 436.196 236.227 434.53 236.227 432.374C236.227 430.232 235.023 428.566 233.021 428.566C231.859 428.566 231.019 429.126 230.571 430.05H230.557V425.612H229.269V436ZM234.925 432.654C234.925 434.222 233.945 435.118 232.741 435.118C231.537 435.118 230.557 434.166 230.557 432.654V432.122C230.557 430.582 231.537 429.644 232.741 429.644C233.945 429.644 234.925 430.554 234.925 432.122V432.654ZM237.867 434.278C237.867 435.426 238.427 436 239.645 436H241.227V434.922H239.953C239.393 434.922 239.155 434.684 239.155 434.124V425.612H237.867V434.278ZM245.406 436.196C247.156 436.196 248.332 435.244 248.598 433.9H247.296C247.184 434.53 246.554 435.188 245.434 435.188C244.146 435.188 243.194 434.236 243.194 432.71V432.668H248.738V432.206C248.738 430.148 247.534 428.566 245.364 428.566C243.208 428.566 241.906 430.218 241.906 432.374C241.906 434.516 243.138 436.196 245.406 436.196ZM245.364 429.56C246.54 429.56 247.38 430.344 247.436 431.744H243.208C243.32 430.372 244.244 429.56 245.364 429.56Z" fill="#8A919E"/>
<path d="M355.656 425H357.64V416.104H357.656L360.856 425.016H362.36L365.576 416.04H365.592V425H367.672V413.736H364.52L361.688 421.64H361.672L358.824 413.736H355.656V425ZM377.736 425H380.04L375.768 413.736H373.288L369.048 425H371.256L372.088 422.648H376.888L377.736 425ZM374.44 416.008H374.472L376.216 420.792H372.744L374.44 416.008ZM384.078 419.192L380.158 425H382.574L385.326 420.856H385.342L388.094 425H390.59L386.654 419.176L390.35 413.736H387.934L385.422 417.528H385.406L382.862 413.736H380.366L384.078 419.192Z" fill="white"/>
<rect x="322.5" y="399.5" width="100" height="39" rx="2.5" stroke="#8A919E"/>
</g>
</g>
<defs>
<filter id="filter0_ddd_813_97892" x="0" y="0" width="519" height="550" filterUnits="userSpaceOnUse" color-interpolation-filters="sRGB">
<feFlood flood-opacity="0" result="BackgroundImageFix"/>
<feColorMatrix in="SourceAlpha" type="matrix" values="0 0 0 0 0 0 0 0 0 0 0 0 0 0 0 0 0 0 127 0" result="hardAlpha"/>
<feOffset dx="24" dy="24"/>
<feGaussianBlur stdDeviation="24"/>
<feComposite in2="hardAlpha" operator="out"/>
<feColorMatrix type="matrix" values="0 0 0 0 0 0 0 0 0 0.321569 0 0 0 0 1 0 0 0 0.6 0"/>
<feBlend mode="normal" in2="BackgroundImageFix" result="effect1_dropShadow_813_97892"/>
<feColorMatrix in="SourceAlpha" type="matrix" values="0 0 0 0 0 0 0 0 0 0 0 0 0 0 0 0 0 0 127 0" result="hardAlpha"/>
<feOffset dx="-24" dy="-24"/>
<feGaussianBlur stdDeviation="24"/>
<feComposite in2="hardAlpha" operator="out"/>
<feColorMatrix type="matrix" values="0 0 0 0 1 0 0 0 0 1 0 0 0 0 1 0 0 0 0.4 0"/>
<feBlend mode="normal" in2="effect1_dropShadow_813_97892" result="effect2_dropShadow_813_97892"/>
<feColorMatrix in="SourceAlpha" type="matrix" values="0 0 0 0 0 0 0 0 0 0 0 0 0 0 0 0 0 0 127 0" result="hardAlpha"/>
<feOffset/>
<feGaussianBlur stdDeviation="24"/>
<feComposite in2="hardAlpha" operator="out"/>
<feColorMatrix type="matrix" values="0 0 0 0 0 0 0 0 0 0.321569 0 0 0 0 1 0 0 0 0.7 0"/>
<feBlend mode="normal" in2="effect2_dropShadow_813_97892" result="effect3_dropShadow_813_97892"/>
<feBlend mode="normal" in="SourceGraphic" in2="effect3_dropShadow_813_97892" result="shape"/>
</filter>
<clipPath id="clip0_813_97892">
<rect width="375" height="406" fill="white" transform="translate(72 72)"/>
</clipPath>
<clipPath id="clip1_813_97892">
<rect width="375" height="113" fill="white" transform="translate(72 72)"/>
</clipPath>
</defs>
</svg>
