<svg width="596" height="524" viewBox="0 0 596 524" fill="none" xmlns="http://www.w3.org/2000/svg">
<g filter="url(#filter0_ddd_9172_48736)">
<rect width="452" height="380" transform="translate(72 72)" fill="black"/>
<path d="M101.616 102.736C105.056 102.736 106.944 105.248 106.944 108.368C106.944 111.504 105.072 114 101.616 114H97.328V102.736H101.616ZM101.632 104.592H99.472V112.144H101.632C103.344 112.144 104.752 110.928 104.752 108.768V107.952C104.752 105.808 103.344 104.592 101.632 104.592ZM112.473 114.224C109.641 114.224 108.249 112.176 108.249 109.808C108.249 107.456 109.657 105.392 112.393 105.392C115.097 105.392 116.441 107.36 116.441 109.584V110.336H110.329C110.345 111.808 111.273 112.672 112.521 112.672C113.577 112.672 114.137 112.08 114.217 111.52H116.297C116.025 113.12 114.537 114.224 112.473 114.224ZM112.393 106.944C111.305 106.944 110.473 107.68 110.345 108.944H114.361C114.313 107.664 113.513 106.944 112.393 106.944ZM118.151 105.616H120.103V107.024H120.119C120.599 106.032 121.495 105.392 122.855 105.392C125.271 105.392 126.519 107.44 126.519 109.808C126.519 112.16 125.271 114.224 122.855 114.224C121.575 114.224 120.727 113.664 120.247 112.784H120.231V117.072H118.151V105.616ZM124.439 109.44C124.439 107.936 123.495 107.088 122.327 107.088C121.159 107.088 120.231 107.984 120.231 109.44V110.16C120.231 111.632 121.159 112.496 122.327 112.496C123.495 112.496 124.439 111.664 124.439 110.16V109.44ZM131.973 114.224C129.173 114.224 127.765 112.16 127.765 109.808C127.765 107.456 129.189 105.392 131.973 105.392C134.741 105.392 136.165 107.472 136.165 109.808C136.165 112.16 134.757 114.224 131.973 114.224ZM134.085 110.176V109.456C134.085 107.952 133.157 107.104 131.973 107.104C130.773 107.104 129.845 107.984 129.845 109.456V110.176C129.845 111.632 130.773 112.512 131.973 112.512C133.157 112.512 134.085 111.664 134.085 110.176ZM137.293 111.504H139.421C139.437 112.352 140.125 112.72 141.117 112.72C142.077 112.72 142.701 112.352 142.701 111.68C142.701 111.024 142.109 110.784 141.229 110.672L140.013 110.512C138.637 110.32 137.501 109.648 137.501 108.048C137.501 106.352 139.053 105.376 141.085 105.376C143.277 105.376 144.557 106.512 144.621 107.984H142.525C142.509 107.296 141.997 106.864 141.037 106.864C140.109 106.864 139.597 107.28 139.597 107.856C139.597 108.432 140.029 108.704 140.749 108.8L141.965 108.976C143.469 109.184 144.797 109.84 144.797 111.504C144.797 113.232 143.197 114.256 141.053 114.256C138.845 114.256 137.325 113.184 137.293 111.504ZM147.52 104.64H147.392C146.656 104.64 146.112 104.08 146.112 103.408C146.112 102.704 146.656 102.16 147.392 102.16H147.52C148.24 102.16 148.784 102.704 148.784 103.408C148.784 104.08 148.24 104.64 147.52 104.64ZM146.416 105.616H148.496V114H146.416V105.616ZM149.851 105.616H151.674V103.264H153.755V105.616H156.347V107.312H153.755V111.616C153.755 112.112 153.963 112.32 154.443 112.32H156.347V114H153.963C152.411 114 151.674 113.232 151.674 111.792V107.312H149.851V105.616Z" fill="white"/>
<line x1="97" y1="135" x2="156" y2="135" stroke="white" stroke-width="2" stroke-linecap="square"/>
<path d="M189.144 102.736H191.4L193.592 110.72H193.624L195.864 102.704H197.88L200.152 110.768H200.184L202.328 102.736H204.424L201.224 114.016H199.144L196.792 105.92H196.76L194.44 114.016H192.456L189.144 102.736ZM206.739 104.64H206.611C205.875 104.64 205.331 104.08 205.331 103.408C205.331 102.704 205.875 102.16 206.611 102.16H206.739C207.459 102.16 208.003 102.704 208.003 103.408C208.003 104.08 207.459 104.64 206.739 104.64ZM205.635 105.616H207.715V114H205.635V105.616ZM209.069 105.616H210.893V103.264H212.973V105.616H215.565V107.312H212.973V111.616C212.973 112.112 213.181 112.32 213.661 112.32H215.565V114H213.181C211.629 114 210.893 113.232 210.893 111.792V107.312H209.069V105.616ZM219.309 109.072V114H217.229V102.128H219.261V106.8H219.277C219.757 105.872 220.669 105.392 221.805 105.392C223.597 105.392 224.909 106.64 224.909 108.752V114H222.829V108.976C222.829 107.744 222.013 107.152 221.117 107.152C220.173 107.152 219.309 107.776 219.309 109.072ZM234.898 114H232.946V112.592H232.93C232.45 113.6 231.554 114.224 230.194 114.224C227.778 114.224 226.53 112.176 226.53 109.808C226.53 107.456 227.778 105.392 230.194 105.392C231.458 105.392 232.306 105.952 232.802 106.832H232.818V102.128H234.898V114ZM228.61 110.192C228.61 111.68 229.554 112.528 230.722 112.528C231.89 112.528 232.818 111.648 232.818 110.192V109.456C232.818 108 231.89 107.12 230.722 107.12C229.554 107.12 228.61 107.968 228.61 109.456V110.192ZM237.072 114V105.616H239.056V107.088H239.072C239.28 106.384 239.968 105.6 241.456 105.6H242.48V107.504H241.072C239.648 107.504 239.152 108.192 239.152 109.312V114H237.072ZM243.379 108.048C243.555 106.464 244.835 105.392 247.027 105.392C248.947 105.392 250.515 106.224 250.515 108.352V111.824C250.515 112.288 250.691 112.384 251.075 112.384H251.571V114H250.419C249.267 114 248.819 113.472 248.835 112.64V112.56H248.819C248.419 113.568 247.427 114.224 246.051 114.224C244.307 114.224 243.107 113.28 243.107 111.696C243.107 110.064 244.323 109.296 246.291 109.024L247.315 108.864C248.099 108.752 248.435 108.496 248.435 107.968C248.435 107.408 248.067 106.896 246.995 106.896C246.003 106.896 245.491 107.344 245.427 108.048H243.379ZM248.467 110.608V109.824C248.291 109.968 247.971 110.144 247.491 110.208L246.611 110.336C245.683 110.48 245.123 110.848 245.123 111.488V111.584C245.123 112.24 245.635 112.656 246.483 112.656C247.699 112.656 248.467 111.824 248.467 110.608ZM251.41 105.616H253.586L255.186 111.328H255.202L256.898 105.616H258.866L260.562 111.312H260.578L262.162 105.616H264.13L261.602 114.032H259.522L257.81 108.16H257.794L256.066 114.032H254.066L251.41 105.616Z" fill="white"/>
<path d="M524 135H72V137H524V135Z" fill="#8A919E" fill-opacity="0.3" mask="url(#path-1-inside-1_9172_48736)"/>
<path d="M112 224C120.837 224 128 216.837 128 208C128 199.163 120.837 192 112 192C103.163 192 96 199.163 96 208C96 216.837 103.163 224 112 224Z" fill="#627EEA"/>
<path d="M112 196V204.502L118.997 207.713L112 196Z" fill="white" fill-opacity="0.602"/>
<path d="M111.998 196L105 207.713L111.998 204.502V196Z" fill="white"/>
<path d="M112 213.222V218.999L119.002 209.051L112 213.222Z" fill="white" fill-opacity="0.602"/>
<path d="M111.998 218.999V213.221L105 209.051L111.998 218.999Z" fill="white"/>
<path d="M112 211.886L118.997 207.713L112 204.504V211.886Z" fill="white" fill-opacity="0.2"/>
<path d="M105 207.713L111.998 211.886V204.504L105 207.713Z" fill="white" fill-opacity="0.602"/>
<path d="M145.328 190.736H153.216V192.592H147.472V195.536H152.752V197.392H147.472V202H145.328V190.736ZM154.951 202V193.616H156.935V195.088H156.951C157.159 194.384 157.847 193.6 159.335 193.6H160.359V195.504H158.951C157.527 195.504 157.031 196.192 157.031 197.312V202H154.951ZM165.418 202.224C162.618 202.224 161.21 200.16 161.21 197.808C161.21 195.456 162.634 193.392 165.418 193.392C168.186 193.392 169.61 195.472 169.61 197.808C169.61 200.16 168.202 202.224 165.418 202.224ZM167.53 198.176V197.456C167.53 195.952 166.602 195.104 165.418 195.104C164.218 195.104 163.29 195.984 163.29 197.456V198.176C163.29 199.632 164.218 200.512 165.418 200.512C166.602 200.512 167.53 199.664 167.53 198.176ZM171.474 202V193.616H173.426V194.848H173.442C173.858 193.888 174.754 193.392 175.874 193.392C177.074 193.392 178.034 193.968 178.482 195.008H178.498C178.962 193.952 179.97 193.392 181.154 193.392C182.866 193.392 184.13 194.592 184.13 196.608V202H182.05V196.832C182.05 195.696 181.298 195.152 180.466 195.152C179.618 195.152 178.834 195.728 178.834 196.928V202H176.754V196.832C176.754 195.696 176.002 195.152 175.186 195.152C174.338 195.152 173.554 195.728 173.554 196.928V202H171.474Z" fill="white"/>
<path d="M145.472 214.736H153.12V216.064H147.008V219.536H152.64V220.832H147.008V224.672H153.12V226H145.472V214.736ZM154.386 217.728H156.274V215.248H157.746V217.728H160.45V218.944H157.746V223.936C157.746 224.528 157.986 224.784 158.578 224.784H160.466V226H158.306C156.898 226 156.274 225.344 156.274 224.032V218.944H154.386V217.728ZM163.883 221.152V226H162.411V214.128H163.851V219.056H163.867C164.347 218.016 165.339 217.504 166.523 217.504C168.251 217.504 169.611 218.656 169.611 220.832V226H168.139V220.96C168.139 219.472 167.195 218.752 166.091 218.752C164.939 218.752 163.883 219.52 163.883 221.152ZM175.653 226.224C173.061 226.224 171.653 224.304 171.653 221.856C171.653 219.392 173.141 217.504 175.605 217.504C178.085 217.504 179.462 219.312 179.462 221.664V222.192H173.125V222.24C173.125 223.984 174.213 225.072 175.685 225.072C176.965 225.072 177.685 224.32 177.813 223.6H179.302C178.997 225.136 177.654 226.224 175.653 226.224ZM175.605 218.64C174.325 218.64 173.269 219.568 173.141 221.136H177.973C177.909 219.536 176.949 218.64 175.605 218.64ZM181.575 226V217.728H182.983V219.12H182.999C183.255 218.384 183.927 217.68 185.335 217.68H186.439V219.04H185.063C183.495 219.04 183.047 219.984 183.047 221.2V226H181.575ZM191.333 226.224C188.741 226.224 187.333 224.304 187.333 221.856C187.333 219.392 188.821 217.504 191.285 217.504C193.765 217.504 195.141 219.312 195.141 221.664V222.192H188.805V222.24C188.805 223.984 189.893 225.072 191.365 225.072C192.645 225.072 193.365 224.32 193.493 223.6H194.981C194.677 225.136 193.333 226.224 191.333 226.224ZM191.285 218.64C190.005 218.64 188.949 219.568 188.821 221.136H193.653C193.589 219.536 192.629 218.64 191.285 218.64ZM202.902 222.576V217.728H204.374V226H202.982V224.592H202.966C202.486 225.696 201.478 226.224 200.262 226.224C198.534 226.224 197.174 225.072 197.174 222.896V217.728H198.646V222.768C198.646 224.256 199.59 224.976 200.694 224.976C201.846 224.976 202.902 224.208 202.902 222.576ZM206.993 226V217.728H208.385V218.992H208.401C208.833 218 209.761 217.504 210.881 217.504C212.097 217.504 213.089 218.08 213.521 219.216H213.537C214.001 218.064 215.025 217.504 216.209 217.504C217.841 217.504 219.121 218.608 219.121 220.624V226H217.649V220.752C217.649 219.408 216.785 218.752 215.793 218.752C214.737 218.752 213.793 219.456 213.793 220.944V226H212.321V220.752C212.321 219.408 211.457 218.752 210.449 218.752C209.409 218.752 208.465 219.456 208.465 220.944V226H206.993Z" fill="#8A919E"/>
<path d="M246.061 200.588L244.587 201.939L249.227 207.001H237V209.001H249.086L244.086 214.001L245.5 215.415L252.884 208.031L246.061 200.588Z" fill="#8A919E"/>
<circle cx="285" cy="208" r="16" fill="#0052FF"/>
<path d="M285.072 219.119C291.274 219.119 296.301 214.101 296.301 207.91C296.301 201.72 291.274 196.701 285.072 196.701C279.189 196.701 274.362 201.218 273.883 206.968H288.724V208.852H273.883C274.362 214.602 279.189 219.119 285.072 219.119Z" fill="white"/>
<path d="M320.792 192.592H317.192V190.736H326.536V192.592H322.936V202H320.792V192.592ZM330.523 202.224C327.723 202.224 326.315 200.16 326.315 197.808C326.315 195.456 327.739 193.392 330.523 193.392C333.291 193.392 334.715 195.472 334.715 197.808C334.715 200.16 333.307 202.224 330.523 202.224ZM332.635 198.176V197.456C332.635 195.952 331.707 195.104 330.523 195.104C329.323 195.104 328.395 195.984 328.395 197.456V198.176C328.395 199.632 329.323 200.512 330.523 200.512C331.707 200.512 332.635 199.664 332.635 198.176Z" fill="white"/>
<path d="M318.472 226V214.736H323.448C325.4 214.736 326.776 215.872 326.776 217.648C326.776 218.912 326.072 219.776 324.936 220.112V220.128C326.264 220.448 327.112 221.392 327.112 222.848C327.112 224.816 325.656 226 323.624 226H318.472ZM325.24 217.872V217.712C325.24 216.672 324.504 216.016 323.288 216.016H319.992V219.552H323.288C324.504 219.552 325.24 218.912 325.24 217.872ZM325.592 222.832V222.672C325.592 221.504 324.76 220.8 323.416 220.8H319.992V224.704H323.432C324.792 224.704 325.592 223.968 325.592 222.832ZM329.042 220.032C329.186 218.544 330.354 217.504 332.434 217.504C334.322 217.504 335.666 218.384 335.666 220.256V224.176C335.666 224.688 335.874 224.816 336.274 224.816H336.786V226H335.842C334.802 226 334.386 225.536 334.402 224.656V224.496H334.386C333.986 225.52 332.962 226.224 331.57 226.224C329.938 226.224 328.738 225.328 328.738 223.776C328.738 222.256 329.89 221.488 331.634 221.216L332.882 221.008C333.73 220.864 334.162 220.592 334.162 219.952C334.162 219.296 333.714 218.624 332.402 218.624C331.218 218.624 330.594 219.152 330.498 220.032H329.042ZM334.21 222.56V221.472C334.05 221.696 333.682 221.92 333.106 222.016L331.89 222.224C330.834 222.4 330.178 222.832 330.178 223.632V223.728C330.178 224.592 330.85 225.072 331.842 225.072C333.234 225.072 334.21 224.064 334.21 222.56ZM337.787 223.584H339.307C339.339 224.624 340.203 225.12 341.403 225.12C342.571 225.12 343.355 224.608 343.355 223.76C343.355 222.976 342.731 222.64 341.723 222.496L340.459 222.32C339.019 222.112 338.043 221.408 338.043 219.984C338.043 218.448 339.419 217.472 341.355 217.472C343.451 217.472 344.587 218.624 344.651 219.968H343.163C343.115 219.136 342.475 218.592 341.323 218.592C340.203 218.592 339.515 219.12 339.515 219.872C339.515 220.576 339.995 220.928 340.939 221.072L342.203 221.248C343.835 221.472 344.843 222.24 344.843 223.648C344.843 225.264 343.403 226.24 341.355 226.24C339.195 226.24 337.835 225.184 337.787 223.584ZM350.372 226.224C347.78 226.224 346.372 224.304 346.372 221.856C346.372 219.392 347.86 217.504 350.324 217.504C352.804 217.504 354.18 219.312 354.18 221.664V222.192H347.844V222.24C347.844 223.984 348.932 225.072 350.404 225.072C351.684 225.072 352.404 224.32 352.532 223.6H354.02C353.716 225.136 352.372 226.224 350.372 226.224ZM350.324 218.64C349.044 218.64 347.988 219.568 347.86 221.136H352.692C352.628 219.536 351.668 218.64 350.324 218.64Z" fill="#8A919E"/>
<path d="M102.136 293L101.629 291.063H98.6L98.093 293H96.338L98.99 283.835H101.213L103.982 293H102.136ZM100.056 285.538L98.977 289.62H101.239L100.16 285.538H100.056ZM105.277 293V283.848H107.383L108.579 288.723H108.657L109.84 283.848H111.933V293H110.412V285.98H110.295L109.281 290.517H107.877L106.863 286.032H106.746V293H105.277ZM117.051 293.182C114.594 293.182 113.489 291.271 113.489 288.424C113.489 285.577 114.607 283.653 117.051 283.653C119.495 283.653 120.613 285.577 120.613 288.424C120.613 291.271 119.508 293.182 117.051 293.182ZM117.051 291.661C118.13 291.661 118.819 290.777 118.819 288.736V288.099C118.819 286.058 118.13 285.174 117.051 285.174C115.972 285.174 115.283 286.058 115.283 288.099V288.736C115.283 290.777 115.972 291.661 117.051 291.661ZM125.509 293.195C123.39 293.195 122.168 291.817 122.168 289.971V283.848H123.91V289.919C123.91 291.037 124.508 291.687 125.509 291.687C126.497 291.687 127.095 291.037 127.095 289.919V283.848H128.824V289.971C128.824 291.817 127.602 293.195 125.509 293.195ZM130.627 293V283.848H132.59L135.658 290.153H135.71V283.848H137.257V293H135.398L132.265 286.461H132.2V293H130.627ZM141.516 285.356H138.773V283.848H146.001V285.356H143.258V293H141.516V285.356Z" fill="white"/>
<path d="M113.4 313.86C122.58 313.86 128.16 319.74 128.16 329.28V342.3C128.16 352.08 122.52 357.84 113.4 357.84C104.34 357.84 98.58 352.08 98.58 342.3V329.28C98.58 319.74 104.28 313.86 113.4 313.86ZM113.4 352.86C119.16 352.86 122.52 348.84 122.52 342.3V329.34C122.52 322.92 119.22 318.84 113.4 318.84C107.58 318.84 104.22 322.92 104.22 329.34V342.3C104.22 348.84 107.58 352.86 113.4 352.86Z" fill="white"/>
<path d="M347.02 314.76H375.7V319.74H352.72V332.76H373.84V337.62H352.72V352.02H375.7V357H347.02V314.76ZM393.938 319.74H379.778V314.76H413.798V319.74H399.638V357H393.938V319.74ZM419.47 314.76H425.17V332.64H447.31V314.76H453.01V357H447.31V337.62H425.17V357H419.47V314.76Z" fill="#8A919E"/>
<path fill-rule="evenodd" clip-rule="evenodd" d="M473.293 331.707L474.707 330.293L480 335.586L485.293 330.293L486.707 331.707L480 338.414L473.293 331.707Z" fill="#8A919E"/>
<path d="M100.16 400.064V397.952C97.952 397.76 96.672 396.464 96.608 394.704H98.064C98.144 396.064 99.152 396.832 100.768 396.832C102.352 396.832 103.328 396.016 103.328 394.816C103.328 393.76 102.608 393.344 101.28 393.104L99.952 392.848C98.128 392.512 96.88 391.648 96.88 389.856C96.88 388.288 98.08 386.976 100.16 386.768V384.656H101.36V386.768C103.504 386.976 104.56 388.304 104.624 389.792H103.152C103.088 388.688 102.304 387.888 100.736 387.888C99.184 387.888 98.352 388.736 98.352 389.776C98.352 390.912 99.136 391.28 100.336 391.504L101.648 391.728C103.504 392.064 104.8 392.848 104.8 394.736C104.8 396.528 103.456 397.76 101.36 397.952V400.064H100.16ZM110.603 386.496C113.051 386.496 114.539 388.064 114.539 390.608V394.08C114.539 396.688 113.035 398.224 110.603 398.224C108.171 398.224 106.651 396.688 106.651 394.08V390.608C106.651 388.064 108.155 386.496 110.603 386.496ZM110.603 396.896C112.139 396.896 113.035 395.824 113.035 394.08V390.624C113.035 388.912 112.155 387.824 110.603 387.824C109.051 387.824 108.155 388.912 108.155 390.624V394.08C108.155 395.824 109.051 396.896 110.603 396.896ZM125.066 398.24C122.298 398.24 120.714 396.496 120.714 394.096V386.736H122.234V394.048C122.234 395.792 123.258 396.912 125.066 396.912C126.89 396.912 127.898 395.792 127.898 394.048V386.736H129.418V394.096C129.418 396.496 127.85 398.24 125.066 398.24ZM135.994 398.224C133.21 398.224 131.578 396.784 131.514 394.8H133.05C133.114 396.208 134.234 396.992 136.01 396.992C137.738 396.992 138.81 396.16 138.81 394.928C138.81 393.808 138.042 393.344 136.65 393.12L135.034 392.864C133.146 392.576 131.802 391.696 131.802 389.76C131.802 387.952 133.306 386.496 135.994 386.496C138.746 386.496 140.106 387.984 140.186 389.68H138.65C138.57 388.544 137.706 387.728 135.978 387.728C134.234 387.728 133.338 388.576 133.338 389.664C133.338 390.784 134.154 391.248 135.45 391.456L137.034 391.696C138.986 392.016 140.362 392.88 140.362 394.832C140.362 396.88 138.618 398.224 135.994 398.224ZM146.694 386.736C150.102 386.736 151.846 389.312 151.846 392.368C151.846 395.44 150.118 398 146.694 398H142.694V386.736H146.694ZM146.71 388.064H144.23V396.672H146.71C148.662 396.672 150.278 395.264 150.278 392.72V392.016C150.278 389.472 148.662 388.064 146.71 388.064Z" fill="white"/>
<path d="M100.896 410.496C103.344 410.496 104.832 412.064 104.832 414.608V418.08C104.832 420.688 103.328 422.224 100.896 422.224C98.464 422.224 96.944 420.688 96.944 418.08V414.608C96.944 412.064 98.448 410.496 100.896 410.496ZM100.896 420.896C102.432 420.896 103.328 419.824 103.328 418.08V414.624C103.328 412.912 102.448 411.824 100.896 411.824C99.344 411.824 98.448 412.912 98.448 414.624V418.08C98.448 419.824 99.344 420.896 100.896 420.896ZM111.167 410.736H118.815V412.064H112.703V415.536H118.335V416.832H112.703V420.672H118.815V422H111.167V410.736ZM123.839 412.064H120.063V410.736H129.135V412.064H125.359V422H123.839V412.064ZM130.987 410.736H132.523V415.504H138.427V410.736H139.947V422H138.427V416.832H132.523V422H130.987V410.736ZM146.311 416.032C146.455 414.544 147.623 413.504 149.703 413.504C151.591 413.504 152.935 414.384 152.935 416.256V420.176C152.935 420.688 153.143 420.816 153.543 420.816H154.055V422H153.111C152.071 422 151.655 421.536 151.671 420.656V420.496H151.655C151.255 421.52 150.231 422.224 148.839 422.224C147.207 422.224 146.007 421.328 146.007 419.776C146.007 418.256 147.159 417.488 148.903 417.216L150.151 417.008C150.999 416.864 151.431 416.592 151.431 415.952C151.431 415.296 150.983 414.624 149.671 414.624C148.487 414.624 147.863 415.152 147.767 416.032H146.311ZM151.479 418.56V417.472C151.319 417.696 150.951 417.92 150.375 418.016L149.159 418.224C148.103 418.4 147.447 418.832 147.447 419.632V419.728C147.447 420.592 148.119 421.072 149.111 421.072C150.503 421.072 151.479 420.064 151.479 418.56ZM162.14 413.728L158.956 422.016H157.404L154.156 413.728H155.772L158.204 420.288H158.22L160.636 413.728H162.14ZM163.131 416.032C163.275 414.544 164.443 413.504 166.523 413.504C168.411 413.504 169.755 414.384 169.755 416.256V420.176C169.755 420.688 169.963 420.816 170.363 420.816H170.875V422H169.931C168.891 422 168.475 421.536 168.491 420.656V420.496H168.475C168.075 421.52 167.051 422.224 165.659 422.224C164.027 422.224 162.827 421.328 162.827 419.776C162.827 418.256 163.979 417.488 165.723 417.216L166.971 417.008C167.819 416.864 168.251 416.592 168.251 415.952C168.251 415.296 167.803 414.624 166.491 414.624C165.307 414.624 164.683 415.152 164.587 416.032H163.131ZM168.299 418.56V417.472C168.139 417.696 167.771 417.92 167.195 418.016L165.979 418.224C164.923 418.4 164.267 418.832 164.267 419.632V419.728C164.267 420.592 164.939 421.072 165.931 421.072C167.323 421.072 168.299 420.064 168.299 418.56ZM173.906 412.32H173.826C173.234 412.32 172.802 411.872 172.802 411.328C172.802 410.752 173.234 410.336 173.826 410.336H173.906C174.482 410.336 174.914 410.752 174.914 411.328C174.914 411.872 174.482 412.32 173.906 412.32ZM171.794 414.928V413.728H174.594V422H173.122V414.928H171.794ZM177.143 420.032V410.128H178.615V419.856C178.615 420.496 178.887 420.768 179.527 420.768H180.983V422H179.175C177.783 422 177.143 421.344 177.143 420.032ZM182.345 416.032C182.489 414.544 183.657 413.504 185.737 413.504C187.625 413.504 188.969 414.384 188.969 416.256V420.176C188.969 420.688 189.177 420.816 189.577 420.816H190.089V422H189.145C188.105 422 187.689 421.536 187.705 420.656V420.496H187.689C187.289 421.52 186.265 422.224 184.873 422.224C183.241 422.224 182.041 421.328 182.041 419.776C182.041 418.256 183.193 417.488 184.937 417.216L186.185 417.008C187.033 416.864 187.465 416.592 187.465 415.952C187.465 415.296 187.017 414.624 185.705 414.624C184.521 414.624 183.897 415.152 183.801 416.032H182.345ZM187.513 418.56V417.472C187.353 417.696 186.985 417.92 186.409 418.016L185.193 418.224C184.137 418.4 183.481 418.832 183.481 419.632V419.728C183.481 420.592 184.153 421.072 185.145 421.072C186.537 421.072 187.513 420.064 187.513 418.56ZM191.714 422V410.128H193.186V415.2H193.202C193.714 414.144 194.674 413.504 196.002 413.504C198.29 413.504 199.666 415.408 199.666 417.856C199.666 420.32 198.322 422.224 196.002 422.224C194.61 422.224 193.618 421.536 193.138 420.432H193.122V422H191.714ZM198.178 418.176V417.568C198.178 415.776 197.058 414.736 195.682 414.736C194.306 414.736 193.186 415.808 193.186 417.568V418.176C193.186 419.904 194.306 420.992 195.682 420.992C197.058 420.992 198.178 419.968 198.178 418.176ZM201.701 420.032V410.128H203.173V419.856C203.173 420.496 203.445 420.768 204.085 420.768H205.541V422H203.733C202.341 422 201.701 421.344 201.701 420.032ZM210.476 422.224C207.884 422.224 206.476 420.304 206.476 417.856C206.476 415.392 207.964 413.504 210.428 413.504C212.908 413.504 214.284 415.312 214.284 417.664V418.192H207.948V418.24C207.948 419.984 209.036 421.072 210.508 421.072C211.788 421.072 212.508 420.32 212.636 419.6H214.124C213.82 421.136 212.476 422.224 210.476 422.224ZM210.428 414.64C209.148 414.64 208.092 415.568 207.964 417.136H212.796C212.732 415.536 211.772 414.64 210.428 414.64Z" fill="#8A919E"/>
<path d="M435.229 409V399.848H437.335L438.531 404.723H438.609L439.792 399.848H441.885V409H440.364V401.98H440.247L439.233 406.517H437.829L436.815 402.032H436.698V409H435.229ZM448.978 409L448.471 407.063H445.442L444.935 409H443.18L445.832 399.835H448.055L450.824 409H448.978ZM446.898 401.538L445.819 405.62H448.081L447.002 401.538H446.898ZM454.395 404.281L451.743 399.848H453.706L455.461 402.994H455.5L457.229 399.848H459.127L456.488 404.268L459.322 409H457.346L455.422 405.568H455.383L453.472 409H451.574L454.395 404.281Z" fill="white"/>
<rect x="402.5" y="384.5" width="89" height="39" rx="2.5" stroke="#8A919E"/>
</g>
<defs>
<filter id="filter0_ddd_9172_48736" x="0" y="0" width="596" height="524" filterUnits="userSpaceOnUse" color-interpolation-filters="sRGB">
<feFlood flood-opacity="0" result="BackgroundImageFix"/>
<feColorMatrix in="SourceAlpha" type="matrix" values="0 0 0 0 0 0 0 0 0 0 0 0 0 0 0 0 0 0 127 0" result="hardAlpha"/>
<feOffset dx="24" dy="24"/>
<feGaussianBlur stdDeviation="24"/>
<feComposite in2="hardAlpha" operator="out"/>
<feColorMatrix type="matrix" values="0 0 0 0 0 0 0 0 0 0.321569 0 0 0 0 1 0 0 0 0.6 0"/>
<feBlend mode="normal" in2="BackgroundImageFix" result="effect1_dropShadow_9172_48736"/>
<feColorMatrix in="SourceAlpha" type="matrix" values="0 0 0 0 0 0 0 0 0 0 0 0 0 0 0 0 0 0 127 0" result="hardAlpha"/>
<feOffset dx="-24" dy="-24"/>
<feGaussianBlur stdDeviation="24"/>
<feComposite in2="hardAlpha" operator="out"/>
<feColorMatrix type="matrix" values="0 0 0 0 1 0 0 0 0 1 0 0 0 0 1 0 0 0 0.4 0"/>
<feBlend mode="normal" in2="effect1_dropShadow_9172_48736" result="effect2_dropShadow_9172_48736"/>
<feColorMatrix in="SourceAlpha" type="matrix" values="0 0 0 0 0 0 0 0 0 0 0 0 0 0 0 0 0 0 127 0" result="hardAlpha"/>
<feOffset/>
<feGaussianBlur stdDeviation="24"/>
<feComposite in2="hardAlpha" operator="out"/>
<feColorMatrix type="matrix" values="0 0 0 0 0 0 0 0 0 0.321569 0 0 0 0 1 0 0 0 0.7 0"/>
<feBlend mode="normal" in2="effect2_dropShadow_9172_48736" result="effect3_dropShadow_9172_48736"/>
<feBlend mode="normal" in="SourceGraphic" in2="effect3_dropShadow_9172_48736" result="shape"/>
</filter>
</defs>
</svg>
