<svg width="180" height="180" viewBox="0 0 180 180" fill="none" xmlns="http://www.w3.org/2000/svg">
<g clip-path="url(#clip0_654_96538)">
<path d="M90 180C139.706 180 180 139.706 180 90C180 40.2944 139.706 0 90 0C40.2944 0 0 40.2944 0 90C0 139.706 40.2944 180 90 180Z" fill="#282138"/>
<path d="M179.5 90C179.5 139.429 139.429 179.5 90 179.5C40.5705 179.5 0.5 139.429 0.5 90C0.5 40.5705 40.5705 0.5 90 0.5C139.429 0.5 179.5 40.5705 179.5 90Z" stroke="#8A919E" stroke-opacity="0.66"/>
<g clip-path="url(#clip1_654_96538)">
<g opacity="0.5">
<path fillRule="evenodd" clipRule="evenodd" d="M146.775 37.7808L141.825 42.7184C166.275 69.4267 166.275 110.424 141.825 137.132L146.775 142.07C174 112.594 174 67.1823 146.775 37.6312V37.7808Z" fill="white"/>
<path fillRule="evenodd" clipRule="evenodd" d="M42.8258 38.2292C69.5258 13.7654 110.551 13.7654 137.251 38.2292L142.201 33.2916C112.726 6.05963 67.2758 6.05963 37.8008 33.2916L42.8258 38.2292Z" fill="white"/>
<path fillRule="evenodd" clipRule="evenodd" d="M38.1748 137.207C13.7248 110.499 13.7248 69.576 38.1748 42.8678L33.2248 37.8553C6.07481 67.3317 6.07481 112.818 33.2248 142.294L38.1748 137.207Z" fill="white"/>
<path fillRule="evenodd" clipRule="evenodd" d="M137.176 141.771C110.476 166.235 69.4508 166.235 42.7508 141.771L37.8008 146.708C67.2758 173.94 112.726 173.94 142.201 146.708L137.176 141.771Z" fill="white"/>
</g>
<path fillRule="evenodd" clipRule="evenodd" d="M105 77.4314C105 87.3067 89.5498 86.1097 84.6748 86.1097V68.6783C89.5498 68.6783 105 67.1072 105 77.4314ZM108.975 104.439C108.975 115.212 90.4498 114.015 84.5248 114.015V94.8628C90.5248 94.8628 108.975 93.1422 108.975 104.439ZM121.2 73.4663C120.225 63.1421 111.3 59.7008 100.05 58.6534V44.4389H91.3498V58.3541C89.0248 58.3541 86.6998 58.3541 84.3748 58.4289V44.4389H75.7498V58.7282H70.1998H58.1248V68.0798C58.1248 68.0798 64.5748 67.9302 64.4248 68.0798C66.8248 67.7806 68.9998 69.5012 69.3748 71.8953V111.022C69.2998 112.743 67.7998 114.015 66.0748 113.94C66.2248 114.015 59.7748 113.94 59.7748 113.94L58.0498 124.339H69.3748H75.5998V138.853H84.2998V124.564H91.2748V138.778H99.9748V124.414C114.675 123.516 124.95 119.925 126.225 106.16C127.275 95.0873 122.025 90.1496 113.7 88.1297C118.8 85.586 121.95 81.0224 121.2 73.4663Z" fill="white"/>
<path fillRule="evenodd" clipRule="evenodd" d="M90 7.03242C44.175 7.03242 7.125 44.2145 7.125 90C7.125 135.786 44.325 172.893 90.075 172.893C135.825 172.893 172.95 135.786 172.95 90C172.875 44.2145 135.75 7.10723 90 7.03242ZM90 180C40.275 180 0 139.676 0 90C0 40.3242 40.275 0 90 0C139.725 0 180 40.2494 180 90C179.925 139.676 139.65 179.925 90 180Z" fill="white"/>
</g>
</g>
<defs>
<clipPath id="clip0_654_96538">
<rect width="180" height="180" rx="90" fill="white"/>
</clipPath>
<clipPath id="clip1_654_96538">
<rect width="180" height="180" fill="white"/>
</clipPath>
</defs>
</svg>
