<svg width="180" height="180" viewBox="0 0 180 180" fill="none" xmlns="http://www.w3.org/2000/svg">
<path d="M90 180C139.706 180 180 139.706 180 90C180 40.2944 139.706 0 90 0C40.2944 0 0 40.2944 0 90C0 139.706 40.2944 180 90 180Z" fill="#627EEA"/>
<path d="M179.5 90C179.5 139.429 139.429 179.5 90 179.5C40.5705 179.5 0.5 139.429 0.5 90C0.5 40.5705 40.5705 0.5 90 0.5C139.429 0.5 179.5 40.5705 179.5 90Z" stroke="#8A919E" stroke-opacity="0.66"/>
<path d="M89.9902 22.5V70.3248L129.349 88.3872L89.9902 22.5Z" fill="white" fill-opacity="0.602"/>
<path d="M89.9895 22.5L50.625 88.3872L89.9895 70.3248V22.5Z" fill="white"/>
<path d="M89.9902 119.379V151.875L129.376 95.9141L89.9902 119.379Z" fill="white" fill-opacity="0.602"/>
<path d="M89.9895 151.875V119.374L50.625 95.9141L89.9895 151.875Z" fill="white"/>
<path d="M89.9902 111.857L129.349 88.3872L89.9902 70.3356V111.857Z" fill="white" fill-opacity="0.2"/>
<path d="M50.625 88.3872L89.9895 111.857V70.3356L50.625 88.3872Z" fill="white" fill-opacity="0.602"/>
<rect width="180" height="180" rx="90" stroke="#0A0B0D"/>
</svg>
