<svg width="180" height="180" viewBox="0 0 180 180" fill="none" xmlns="http://www.w3.org/2000/svg">
<g clip-path="url(#clip0_654_96555)">
<path d="M90 180C107.8 180 125.201 174.722 140.001 164.832C154.802 154.943 166.337 140.887 173.149 124.442C179.961 107.996 181.743 89.9002 178.271 72.4419C174.798 54.9836 166.226 38.9471 153.64 26.3604C141.053 13.7737 125.016 5.20203 107.558 1.72936C90.0998 -1.7433 72.0038 0.0389957 55.5585 6.85088C39.1131 13.6628 25.0571 25.1983 15.1677 39.9987C5.27841 54.7991 0 72.1997 0 90C0 113.869 9.48211 136.761 26.3604 153.64C43.2387 170.518 66.1305 180 90 180Z" fill="#2775CA"/>
<path d="M90 180C107.8 180 125.201 174.722 140.001 164.832C154.802 154.943 166.337 140.887 173.149 124.442C179.961 107.996 181.743 89.9002 178.271 72.4419C174.798 54.9836 166.226 38.9471 153.64 26.3604C141.053 13.7737 125.016 5.20203 107.558 1.72936C90.0998 -1.7433 72.0038 0.0389957 55.5585 6.85088C39.1131 13.6628 25.0571 25.1983 15.1677 39.9987C5.27841 54.7991 0 72.1997 0 90C0 113.869 9.48211 136.761 26.3604 153.64C43.2387 170.518 66.1305 180 90 180Z" stroke="#0A0B0D"/>
<path d="M114.656 104.306C114.656 91.1807 106.669 86.7557 91.2187 84.6369C79.7999 82.9869 77.6062 80.3057 77.6062 74.9807C77.6062 69.6557 81.4687 66.3369 88.8562 66.3369C95.5874 66.3369 99.4687 68.6807 101.062 74.0994C101.232 74.6925 101.588 75.2153 102.077 75.5901C102.567 75.965 103.164 76.1721 103.781 76.1807H109.687C110.073 76.1887 110.456 76.1116 110.809 75.9548C111.161 75.798 111.475 75.5654 111.727 75.2736C111.98 74.9818 112.165 74.6379 112.269 74.2664C112.373 73.895 112.395 73.505 112.331 73.1244C110.456 64.5557 104.681 59.3994 95.6249 57.7869V48.7494C95.6249 48.0035 95.3286 47.2882 94.8012 46.7607C94.2737 46.2333 93.5584 45.937 92.8124 45.937H87.1874C86.4415 45.937 85.7261 46.2333 85.1987 46.7607C84.6712 47.2882 84.3749 48.0035 84.3749 48.7494V57.4682C73.1249 59.0432 66.0187 66.4682 66.0187 75.9932C66.0187 88.3119 73.5187 93.0932 89.1937 95.2119C99.8624 96.9557 102.9 99.2619 102.9 105.318C102.9 111.374 97.7437 115.443 90.4687 115.443C80.6624 115.443 77.3437 111.149 76.2374 105.581C76.1088 104.942 75.7651 104.366 75.2636 103.95C74.762 103.534 74.1329 103.302 73.4812 103.293H67.0687C66.686 103.291 66.3075 103.372 65.9596 103.531C65.6116 103.69 65.3027 103.924 65.0544 104.215C64.8061 104.506 64.6245 104.848 64.5222 105.217C64.42 105.585 64.3996 105.972 64.4624 106.349C66.0937 115.724 72.1124 122.587 84.3749 124.237V133.124C84.3749 133.87 84.6712 134.586 85.1987 135.113C85.7261 135.641 86.4415 135.937 87.1874 135.937H92.8124C93.5584 135.937 94.2737 135.641 94.8012 135.113C95.3286 134.586 95.6249 133.87 95.6249 133.124V124.237C107.25 122.399 114.656 114.374 114.656 104.306Z" fill="white"/>
<path d="M114.656 104.306C114.656 91.1807 106.669 86.7557 91.2187 84.6369C79.7999 82.9869 77.6062 80.3057 77.6062 74.9807C77.6062 69.6557 81.4687 66.3369 88.8562 66.3369C95.5874 66.3369 99.4687 68.6807 101.062 74.0994C101.232 74.6925 101.588 75.2153 102.077 75.5901C102.567 75.965 103.164 76.1721 103.781 76.1807H109.687C110.073 76.1887 110.456 76.1116 110.809 75.9548C111.161 75.798 111.475 75.5654 111.727 75.2736C111.98 74.9818 112.165 74.6379 112.269 74.2664C112.373 73.895 112.395 73.505 112.331 73.1244C110.456 64.5557 104.681 59.3994 95.6249 57.7869V48.7494C95.6249 48.0035 95.3286 47.2882 94.8012 46.7607C94.2737 46.2333 93.5584 45.937 92.8124 45.937H87.1874C86.4415 45.937 85.7261 46.2333 85.1987 46.7607C84.6712 47.2882 84.3749 48.0035 84.3749 48.7494V57.4682C73.1249 59.0432 66.0187 66.4682 66.0187 75.9932C66.0187 88.3119 73.5187 93.0932 89.1937 95.2119C99.8624 96.9557 102.9 99.2619 102.9 105.318C102.9 111.374 97.7437 115.443 90.4687 115.443C80.6624 115.443 77.3437 111.149 76.2374 105.581C76.1088 104.942 75.7651 104.366 75.2636 103.95C74.762 103.534 74.1329 103.302 73.4812 103.293H67.0687C66.686 103.291 66.3075 103.372 65.9596 103.531C65.6116 103.69 65.3027 103.924 65.0544 104.215C64.8061 104.506 64.6245 104.848 64.5222 105.217C64.42 105.585 64.3996 105.972 64.4624 106.349C66.0937 115.724 72.1124 122.587 84.3749 124.237V133.124C84.3749 133.87 84.6712 134.586 85.1987 135.113C85.7261 135.641 86.4415 135.937 87.1874 135.937H92.8124C93.5584 135.937 94.2737 135.641 94.8012 135.113C95.3286 134.586 95.6249 133.87 95.6249 133.124V124.237C107.25 122.399 114.656 114.374 114.656 104.306Z" stroke="white"/>
<path d="M70.7057 143.772C59.8719 139.816 50.516 132.626 43.9055 123.174C37.2951 113.723 33.7498 102.469 33.7498 90.935C33.7498 79.4015 37.2951 68.1467 43.9055 58.6955C50.516 49.2443 59.8719 42.0536 70.7057 38.0975C71.4003 37.7926 71.9953 37.2988 72.4229 36.6722C72.8505 36.0457 73.0936 35.3117 73.1244 34.5538V29.3038C73.1694 28.8388 73.0914 28.3703 72.898 27.9451C72.7047 27.5199 72.4029 27.153 72.0229 26.8814C71.6429 26.6097 71.1982 26.4428 70.7333 26.3973C70.2685 26.3519 69.7998 26.4296 69.3744 26.6225C55.7312 30.9709 43.8243 39.5453 35.3751 51.1062C26.9259 62.6672 22.3721 76.6156 22.3721 90.935C22.3721 105.254 26.9259 119.203 35.3751 130.764C43.8243 142.325 55.7312 150.899 69.3744 155.247C69.7998 155.44 70.2685 155.518 70.7333 155.473C71.1982 155.427 71.6429 155.26 72.0229 154.989C72.4029 154.717 72.7047 154.35 72.898 153.925C73.0914 153.5 73.1694 153.031 73.1244 152.566V147.316C73.0936 146.558 72.8505 145.824 72.4229 145.198C71.9953 144.571 71.4003 144.077 70.7057 143.772Z" fill="white"/>
<path d="M70.7057 143.772C59.8719 139.816 50.516 132.626 43.9055 123.174C37.2951 113.723 33.7498 102.469 33.7498 90.935C33.7498 79.4015 37.2951 68.1467 43.9055 58.6955C50.516 49.2443 59.8719 42.0536 70.7057 38.0975C71.4003 37.7926 71.9953 37.2988 72.4229 36.6722C72.8505 36.0457 73.0936 35.3117 73.1244 34.5538V29.3038C73.1694 28.8388 73.0914 28.3703 72.898 27.9451C72.7047 27.5199 72.4029 27.153 72.0229 26.8814C71.6429 26.6097 71.1982 26.4428 70.7333 26.3973C70.2685 26.3519 69.7998 26.4296 69.3744 26.6225C55.7312 30.9709 43.8243 39.5453 35.3751 51.1062C26.9259 62.6672 22.3721 76.6156 22.3721 90.935C22.3721 105.254 26.9259 119.203 35.3751 130.764C43.8243 142.325 55.7312 150.899 69.3744 155.247C69.7998 155.44 70.2685 155.518 70.7333 155.473C71.1982 155.427 71.6429 155.26 72.0229 154.989C72.4029 154.717 72.7047 154.35 72.898 153.925C73.0914 153.5 73.1694 153.031 73.1244 152.566V147.316C73.0936 146.558 72.8505 145.824 72.4229 145.198C71.9953 144.571 71.4003 144.077 70.7057 143.772Z" stroke="white"/>
<path d="M110.624 26.6225C110.198 26.4296 109.73 26.3519 109.265 26.3973C108.8 26.4428 108.355 26.6097 107.975 26.8814C107.595 27.153 107.293 27.5199 107.1 27.9451C106.907 28.3703 106.829 28.8388 106.874 29.3038V34.5538C106.905 35.3117 107.148 36.0457 107.575 36.6722C108.003 37.2988 108.598 37.7926 109.292 38.0975C120.126 42.0536 129.482 49.2443 136.093 58.6955C142.703 68.1467 146.248 79.4015 146.248 90.935C146.248 102.469 142.703 113.723 136.093 123.174C129.482 132.626 120.126 139.816 109.292 143.772C108.575 144.045 107.959 144.531 107.526 145.164C107.094 145.798 106.866 146.549 106.874 147.316V152.566C106.829 153.031 106.907 153.5 107.1 153.925C107.293 154.35 107.595 154.717 107.975 154.989C108.355 155.26 108.8 155.427 109.265 155.473C109.73 155.518 110.198 155.44 110.624 155.247C124.267 150.899 136.174 142.325 144.623 130.764C153.072 119.203 157.626 105.254 157.626 90.935C157.626 76.6156 153.072 62.6672 144.623 51.1062C136.174 39.5453 124.267 30.9709 110.624 26.6225Z" fill="white"/>
</g>
<defs>
<clipPath id="clip0_654_96555">
<rect width="180" height="180" rx="90" fill="white"/>
</clipPath>
</defs>
</svg>
