<svg width="180" height="180" viewBox="0 0 180 180" fill="none" xmlns="http://www.w3.org/2000/svg">
<g clip-path="url(#clip0_654_96550)">
<path d="M90 180C139.705 180 180 139.705 180 90C180 40.2955 139.705 0 90 0C40.2955 0 0 40.2955 0 90C0 139.705 40.2955 180 90 180Z" fill="#FFC926"/>
<path d="M90 180C139.705 180 180 139.705 180 90C180 40.2955 139.705 0 90 0C40.2955 0 0 40.2955 0 90C0 139.705 40.2955 180 90 180Z" stroke="#0A0B0D"/>
<path d="M146.25 75.8863H134.182C128.25 59.3181 112.295 47.2499 93.6818 47.2499H56.6591V75.8863H45V84.2727H56.6591V95.9318H45V104.318H56.6591V132.954H93.6818C112.295 132.954 128.25 121.091 134.182 104.318H146.25V95.9318H136.227C136.432 94.0909 136.636 92.0454 136.636 90.2045C136.636 88.159 136.432 86.3181 136.227 84.4772H146.25V75.8863ZM65.0454 55.6363H93.6818C107.591 55.6363 119.659 64.0227 125.182 75.8863H65.0454V55.6363ZM93.6818 124.364H65.0454V104.114H125.182C119.864 115.977 107.795 124.364 93.6818 124.364ZM127.841 95.7272H65.25V84.0681H127.841C128.25 85.909 128.25 87.9545 128.25 89.7954C128.25 92.0454 128.045 93.8863 127.841 95.7272Z" fill="white"/>
</g>
<defs>
<clipPath id="clip0_654_96550">
<rect width="180" height="180" rx="90" fill="white"/>
</clipPath>
</defs>
</svg>
