<svg width="180" height="180" viewBox="0 0 180 180" fill="none" xmlns="http://www.w3.org/2000/svg">
<path d="M90 180C139.706 180 180 139.706 180 90C180 40.2944 139.706 0 90 0C40.2944 0 0 40.2944 0 90C0 139.706 40.2944 180 90 180Z" fill="white"/>
<g clip-path="url(#clip0_654_96527)">
<path d="M52.875 93.0938C52.875 67.2188 74.25 45.8438 100.125 45.8438C104.625 45.8438 108.562 46.4063 112.5 47.5313C105.188 44.1563 95.0625 40.7812 85.5 40.7812C60.1875 40.7812 39.375 61.5937 39.375 86.9062C39.375 107.156 52.875 124.594 70.875 130.781C60.1875 121.781 52.875 108.281 52.875 93.0938Z" fill="#E82574"/>
<path d="M79.875 99.2812L77.625 83.5312H73.125L70.875 99.2812L68.625 83.5312H64.125L68.0625 104.344H73.125L75.375 89.1562L77.625 104.344H82.6875L86.625 83.5312H82.125L79.875 99.2812Z" fill="#231F20"/>
<path d="M94.5 95.3437H101.25V91.9687H94.5V86.9062H101.813V83.5312H90V104.344H102.375V100.969H94.5V95.3437Z" fill="#231F20"/>
<path d="M105.188 86.9062H109.688V104.344H113.625V86.9062H118.688V83.5312H105.188V86.9062Z" fill="#231F20"/>
<path d="M131.625 83.5312V91.4062H126.562V83.5312H122.062V104.344H126.562V95.3437H131.625V104.344H135.562V83.5312H131.625Z" fill="#231F20"/>
<path d="M127.688 52.5937C127.125 52.5937 127.688 52.5937 127.688 52.5937C127.688 52.5937 106.875 37.9688 85.5 37.9688C58.5 37.9688 36.5625 59.9062 36.5625 86.9062C36.5625 101.531 43.3125 115.031 53.4375 124.031C45 126.281 39.375 129.094 39.375 133.031C39.375 139.219 57.375 144.844 79.3125 144.844C94.5 144.844 105.75 143.719 114.75 140.344H115.312C134.438 134.156 148.5 115.594 148.5 94.2188C149.062 76.2188 140.625 61.5938 127.688 52.5937ZM85.5 42.4688C90 42.4688 95.0625 43.0312 99.5625 44.1562C75.375 44.7188 55.6875 62.1562 52.3125 85.2187L41.625 80.1562C45 58.7812 63 42.4688 85.5 42.4688ZM41.0625 86.9062C41.0625 86.3438 41.0625 85.7812 41.0625 85.2187L51.75 90.2812C51.75 91.4062 51.75 92.5312 51.75 93.6562C51.75 96.4687 51.75 99.2812 52.3125 102.094L42.1875 97.0312C41.625 93.6562 41.0625 90.2812 41.0625 86.9062ZM59.625 122.906C52.875 117.844 47.25 111.094 44.4375 103.219L53.4375 107.719C55.125 113.344 57.9375 118.406 60.75 122.344C60.75 122.344 60.1875 122.344 59.625 122.906ZM100.125 137.531C75.9375 137.531 55.6875 117.844 55.6875 93.0938C55.6875 68.3438 75.9375 49.2188 100.125 49.2188C124.312 49.2188 144.563 68.9062 144.563 93.6562C144.563 118.406 124.875 137.531 100.125 137.531Z" fill="#231F20"/>
</g>
<rect width="180" height="180" rx="90" stroke="#0A0B0D"/>
<defs>
<clipPath id="clip0_654_96527">
<rect width="112.5" height="106.312" fill="white" transform="translate(36.5625 37.9688)"/>
</clipPath>
</defs>
</svg>
