<svg width="79" height="79" viewBox="0 0 79 79" fill="none" xmlns="http://www.w3.org/2000/svg">
<rect x="0.719727" y="0.0166016" width="78.1916" height="78.1916" rx="39.0958" fill="#1E1E1E"/>
<path d="M23.6081 23.9276C23.6081 23.9276 18.3288 27.2024 15.1213 31.2345C13.7184 32.9949 13.405 34.0402 13.0285 35.2665C11.8023 39.431 16.1477 40.144 20.714 39.2312C25.2571 38.3183 30.0021 39.8537 31.874 40.0557C33.4557 40.2344 34.7913 40.3459 35.9271 40.857C39 42.2389 39.9801 44.0877 39.8918 46.8493C39.8476 48.5635 37.8432 51.1926 35.7714 51.7941C33.2538 52.5303 30.692 53.6198 31.3166 54.3328C33.7228 57.1386 46.128 56.3372 48.6015 54.154C52.4106 50.7677 57.021 44.3969 57.021 44.3969L42.4304 23.6163L23.6081 23.9276Z" fill="#21CC9A"/>
<path d="M42.9878 17.6702C43.0109 17.6933 43.3432 17.5587 43.3895 17.5587C43.745 17.5819 44.1236 17.7144 44.4811 17.7585C45.7284 17.87 46.9756 17.9142 48.2019 18.1813C49.8277 18.5157 51.4325 18.9826 52.9679 19.6073C54.2593 20.1416 55.5066 20.8104 56.6424 21.6118C57.734 22.3921 58.7141 23.3259 59.5155 24.4176C59.9382 24.996 60.3168 25.6206 60.6302 26.2895C61.8333 28.8282 61.9658 29.5853 62.5463 31.39C63.0595 32.9927 64.3278 34.486 65.9095 35.2874C67.4911 36.0887 68.6942 36.3348 68.8057 37.5821C68.894 38.6064 68.181 39.9882 67.4701 40.3668C67.0032 40.6129 67.1357 41.4584 67.1799 41.6814C67.2913 42.306 67.7583 42.6615 67.8929 42.773C68.3598 43.1074 67.6699 44.2432 67.0915 44.5776C67.0915 44.5776 67.7814 44.9352 67.8487 45.2464C68.0043 46.1382 67.0684 46.2497 66.8013 47.518C66.6898 48.0754 68.4713 50.7024 66.6456 52.976C64.3741 55.8281 61.278 53.199 52.7008 54.4904L53.6809 50.1703L52.0109 39.3004C52.0109 39.3004 48.1135 33.7099 48.2019 33.1525C48.3133 32.5951 47.1102 23.7971 47.1102 23.7971L42.9878 17.6702Z" fill="#21CC9A"/>
<path d="M52.03 38.118C52.03 38.118 52.7199 40.8586 52.7199 41.7714C52.7199 45.5132 54.3689 31.8376 52.6316 28.4744C50.8711 25.0881 50.3369 21.7923 53.4561 19.8089C47.4869 16.5109 37.4185 17.5794 37.4185 17.5794L43.2761 23.7483L47.1735 43.6181L52.03 38.1159V38.118Z" fill="#F7C32D"/>
<path opacity="0.5" d="M23.6081 23.9272C23.6081 23.9272 18.3288 27.202 15.1213 31.234C13.6742 33.0597 13.405 34.0398 13.0285 35.266C11.8023 39.4305 16.1477 40.1435 20.714 39.2307C25.2571 38.3179 30.0021 39.8533 31.874 40.0552C37.6875 40.7451 42.4536 23.5948 42.4536 23.5948L23.6102 23.9293L23.6081 23.9272Z" fill="url(#paint0_linear_4345_5100)"/>
<path opacity="0.9" d="M23.6086 23.9274C23.6086 23.9274 18.3735 27.2464 15.1218 31.2343C13.6957 32.9947 13.4055 34.0401 13.029 35.2663C11.8028 39.4308 16.3922 40.1438 20.9584 39.231C21.6946 39.0753 22.3844 39.008 23.1858 38.9639C27.1736 38.7199 30.4695 38.0069 32.028 38.1835C37.8415 38.8734 44.1451 30.5654 44.1451 30.5654L42.4519 23.593L23.6086 23.9274Z" fill="url(#paint1_linear_4345_5100)"/>
<path opacity="0.3" d="M23.6086 23.9274C23.6086 23.9274 18.3735 27.2464 15.1218 31.2343C13.6957 32.9947 13.4055 34.0401 13.029 35.2663C11.8028 39.4308 16.3922 40.1438 20.9584 39.231C21.6946 39.0753 22.3844 39.008 23.1858 38.9639C27.1736 38.7199 30.4695 38.0069 32.028 38.1835C37.8415 38.8734 44.1451 30.5654 44.1451 30.5654L42.4519 23.593L23.6086 23.9274Z" fill="url(#paint2_linear_4345_5100)"/>
<path d="M42.988 44.3315C43.1668 46.7145 41.8964 48.5633 40.3589 49.7896C39.2231 50.7024 37.6183 51.4385 35.8158 51.794C33.4096 52.2841 30.8478 52.2841 29.7121 52.9529C27.3732 54.3348 27.796 56.4275 29.0432 57.8536C31.4494 60.6594 37.6856 61.4397 40.7144 59.5467C45.5036 56.5622 46.1724 56.3392 48.6438 54.135C52.4529 50.7487 57.0633 44.3778 57.0633 44.3778L48.0191 34.7111L39.0654 40.5477C39.0654 40.5477 42.763 41.328 42.9859 44.3336L42.988 44.3315Z" fill="#F8A929"/>
<path opacity="0.9" d="M37.3303 41.6141C38.5544 42.4386 39.5346 43.7089 39.7575 44.8889C39.8921 45.6692 40.2034 46.4916 39.5788 48.0964C39.0445 49.4551 37.5953 51.4385 35.8139 51.794C33.4077 52.2841 30.8459 52.2841 29.7101 52.9529C27.3712 54.3348 27.794 56.4275 29.0413 57.8536C31.4474 60.6594 37.6837 61.4397 40.7124 59.5467C45.5016 56.5622 46.1705 56.3392 48.6418 54.135C52.4509 50.7487 57.0613 44.3778 57.0613 44.3778L48.0172 34.7111L31.357 40.146C31.357 40.146 31.5126 40.1018 32.1142 40.1018C33.3846 40.2343 35.166 40.1691 37.3261 41.6162L37.3303 41.6141Z" fill="url(#paint3_radial_4345_5100)"/>
<path d="M52.0302 38.1187C52.0302 38.1187 52.7201 40.8593 52.7201 41.7721C52.7201 45.5139 51.8072 45.6695 51.5612 48.1198C51.0269 53.7546 46.6373 52.8186 42.9629 58.5879C42.9629 58.5879 46.8161 56.5162 49.1318 55.6475C51.6053 54.7116 52.1606 54.6442 54.7897 53.866C56.8614 53.2645 60.3592 50.0359 61.6948 46.3594C62.9862 42.8406 61.8294 38.7202 59.5789 36.1795C56.5943 32.7931 54.3438 31.8362 52.6065 28.473C50.846 25.0867 43.251 23.7511 43.251 23.7511L47.1484 43.6209L52.026 38.1187H52.0302Z" fill="#F8A929"/>
<path d="M45.0597 20.8984C43.0553 19.4051 41.2507 18.1368 39.2462 17.8024C38.1546 17.6236 37.2628 17.5563 36.2385 17.7351C33.5884 18.2251 30.8709 19.1169 29.7562 19.607C25.1668 21.6788 20.8908 24.3962 15.1446 31.234C15.1446 31.234 16.1016 30.1866 18.4194 28.9183C21.0254 27.5154 25.1689 25.8895 27.9747 26.1125C36.6613 26.8024 33.2308 32.2373 28.0188 35.4911C25.0574 37.3399 23.0971 37.5186 18.0408 40.459C15.0773 42.1964 13.809 43.778 12.6291 45.3807C11.2472 47.2737 9.99994 49.5915 11.2472 52.2859C12.4944 54.9591 16.6148 54.8245 19.4227 49.9701C23.5872 42.7979 25.3918 41.3046 31.3399 40.1246C35.6601 39.2791 39.6269 40.1688 42.8996 37.7858C46.4857 35.2029 51.0289 25.3574 45.0597 20.9026V20.8984Z" fill="#1BAACA"/>
<path d="M31.3379 40.1434C31.3379 40.1434 38.5101 39.4536 42.2308 41.7251C44.7043 43.2395 46.9317 45.3785 46.8644 49.8333C46.7761 56.6942 40.7838 59.9901 38.0222 60.4802C38.0222 60.4802 41.8544 59.5232 43.9471 58.0298C46.3302 56.3157 49.2474 53.819 50.5409 51.7936C52.6569 48.4977 54.35 43.9756 54.7286 39.8763C55.1745 35.1313 53.4582 25.0628 44.6833 19.7394C41.0046 17.4679 38.4218 17.3795 36.3059 17.735C37.5321 17.7118 38.8908 17.6004 40.2033 18.0694C41.7849 18.6268 43.1878 19.8951 44.1469 21.1423C45.7286 23.1909 45.9516 25.8873 45.817 27.2229C45.3711 31.989 40.8721 37.6027 32.1624 39.8974C31.8721 39.9647 31.605 40.053 31.3379 40.1413V40.1434Z" fill="#EF391B"/>
<path opacity="0.7" d="M67.868 42.7499C67.7123 42.6384 67.2454 42.304 67.155 41.6582C67.1108 41.4353 66.9762 40.5898 67.4452 40.3437C68.1582 39.9651 68.8713 38.6064 68.7808 37.5589C68.6693 36.3117 67.4894 36.0214 65.8846 35.2642C64.3471 34.5281 63.0346 32.9927 62.5214 31.3668C61.943 29.5622 61.7874 28.805 60.6053 26.2664C60.294 25.6206 59.9154 24.9749 59.4927 24.3944C58.6913 23.3028 57.7112 22.3669 56.6196 21.5886C55.6395 20.8756 54.571 20.2972 53.4562 19.784C47.4871 16.4882 37.4186 17.5587 37.4186 17.5587H37.4628C37.1957 17.5819 36.9496 17.6029 36.6825 17.626C36.5268 17.6492 36.3712 17.6702 36.2156 17.6933C33.5654 18.1834 30.848 19.0752 29.7332 19.5653C25.1438 21.637 20.8678 24.3545 15.1216 31.1923C15.1216 31.1923 16.0786 30.1448 18.3965 28.8765C21.0024 27.4736 25.1459 25.8478 27.9517 26.0708C36.6383 26.7606 33.2078 32.1955 27.9959 35.4472C25.0323 37.296 23.0511 37.4748 18.0179 40.4152C14.9891 42.1757 13.786 43.7342 12.6061 45.3369C11.2242 47.2299 9.97699 49.5477 11.2242 52.242C12.4715 54.9153 16.5918 54.7807 19.3997 49.9263C23.5643 42.7541 25.3689 41.2607 31.317 40.0808C31.317 40.0808 38.4892 39.3909 42.2099 41.6625C44.6813 43.1768 46.9108 45.3159 46.8435 49.7706C46.7762 55.54 42.5444 58.7917 39.5367 59.9716C40.6956 59.593 42.2983 58.9915 43.5014 58.2574C44.6603 57.6559 47.3315 56.2972 49.115 55.6283C50.7409 55.0268 51.5422 54.7828 52.657 54.4484C61.2321 53.1569 64.3282 55.8071 66.6018 52.934C68.4064 50.6393 66.646 48.0333 66.7575 47.476C67.0246 46.2056 67.9605 46.1172 67.8049 45.2044C67.7607 44.8931 67.0477 44.5356 67.0477 44.5356C67.6493 44.2453 68.3391 43.0885 67.8722 42.7541L67.868 42.7499Z" fill="url(#paint4_linear_4345_5100)"/>
<path opacity="0.3" d="M67.868 42.7499C67.7123 42.6384 67.2454 42.304 67.155 41.6582C67.1108 41.4353 66.9762 40.5898 67.4452 40.3437C68.1582 39.9651 68.8713 38.6064 68.7808 37.5589C68.6693 36.3117 67.4663 36.0446 65.8846 35.2642C64.2356 34.4398 63.0346 32.9927 62.5214 31.3668C61.943 29.5622 61.7874 28.805 60.6053 26.2664C60.294 25.6206 59.9154 24.9749 59.4927 24.3944C58.6913 23.3028 57.7112 22.3669 56.6196 21.5886C55.6395 20.8756 54.571 20.2972 53.4562 19.784C47.4871 16.4882 37.4186 17.5587 37.4186 17.5587H37.4628C37.1957 17.5819 36.9496 17.6029 36.6825 17.626C36.5268 17.6492 36.3712 17.6702 36.2156 17.6933C33.5654 18.1834 30.848 19.0752 29.7332 19.5653C25.1438 21.637 20.8678 24.3545 15.1216 31.1923C15.1216 31.1923 16.0786 30.1448 18.3965 28.8765C21.0024 27.4736 25.1459 25.8478 27.9517 26.0708C36.6383 26.7606 33.2078 32.1955 27.9959 35.4472C25.0323 37.296 23.0742 37.519 18.0179 40.4152C14.9891 42.1525 13.786 43.7342 12.6061 45.3369C11.2242 47.2299 9.97699 49.5477 11.2242 52.242C12.4715 54.9153 16.5918 54.7807 19.3997 49.9263C23.5643 42.7541 25.3689 41.2607 31.317 40.0808C31.317 40.0808 38.4892 39.3909 42.2099 41.6625C44.6813 43.1768 46.9108 45.3159 46.8435 49.7706C46.7762 55.54 42.5444 58.7917 39.5367 59.9716C40.6956 59.593 42.2983 58.9915 43.5014 58.2574C44.6603 57.6559 47.3315 56.2972 49.115 55.6283C50.7409 55.0268 51.5422 54.7828 52.657 54.4484C61.2321 53.1569 64.3282 55.8071 66.6018 52.934C68.4064 50.6393 66.646 48.0333 66.7575 47.476C67.0246 46.2056 67.9605 46.1172 67.8049 45.2044C67.7607 44.8931 67.0477 44.5356 67.0477 44.5356C67.6493 44.2453 68.3391 43.0885 67.8722 42.7541L67.868 42.7499Z" fill="url(#paint5_linear_4345_5100)"/>
<g opacity="0.3">
<path d="M39.5805 60.0137C38.6887 60.3039 38.043 60.4596 38.043 60.4596C38.4657 60.3712 39 60.2366 39.5805 60.0137Z" fill="url(#paint6_linear_4345_5100)"/>
</g>
<path opacity="0.5" d="M63.1461 33.6848C63.6362 34.4188 64.528 35.3338 66.0192 35.889C67.8239 36.5789 67.9795 37.2709 67.4663 37.9166C66.3978 39.2753 65.1274 38.7411 64.4817 38.3394C63.1672 37.5149 62.3217 35.3548 62.0987 34.7532C61.8989 34.1748 61.8316 32.4586 62.41 32.8161C62.6771 33.0159 62.9884 33.4618 63.1461 33.6848Z" fill="url(#paint7_linear_4345_5100)"/>
<path opacity="0.8" d="M68.7362 38.2072C67.4448 40.6344 63.9029 40.4577 64.2583 40.9688C64.6811 41.6145 65.7285 42.0162 67.266 42.0604C67.0662 41.482 67.0431 40.9688 67.1314 40.7248C67.2429 40.4577 67.3312 40.3904 67.3312 40.3904C68.5343 39.7005 68.7341 38.2072 68.7341 38.2072H68.7362Z" fill="url(#paint8_linear_4345_5100)"/>
<path opacity="0.8" d="M68.0233 42.9964C68.0233 42.9964 67.956 43.2635 67.7331 43.3077C67.2661 43.375 66.8202 43.7977 66.3302 44.0417C65.573 44.4434 64.9041 44.4645 64.5487 44.822C64.1259 45.2448 66.0631 45.289 67.0663 44.5759C67.3566 44.353 68.0233 43.7746 68.0233 42.9943V42.9964Z" fill="url(#paint9_linear_4345_5100)"/>
<path opacity="0.8" d="M67.8008 45.6017C67.8008 45.6017 67.1109 46.3589 65.729 46.2032C64.3261 46.0244 64.2588 46.8489 64.5491 47.4946C64.8604 48.1404 66.4652 47.6293 66.8648 48.052C66.8648 48.052 66.7534 47.7407 66.7534 47.5178C66.7534 47.339 66.909 46.9394 67.1088 46.6491C67.3086 46.382 67.845 45.8688 67.7987 45.6017H67.8008Z" fill="url(#paint10_linear_4345_5100)"/>
<path opacity="0.5" d="M60.1382 49.3439C60.1382 49.3439 67.8888 50.9466 66.3071 53.3527C66.3071 53.3527 65.7939 53.8428 65.0368 54.1099C64.5467 54.2887 63.8778 54.4002 63.0323 54.377C62.0963 54.3329 59.8248 54.1541 58.7774 54.1331C57.284 54.1099 55.3469 54.0658 52.7178 54.4885C52.7178 54.4885 54.5897 54.0216 55.837 53.4642C56.6173 53.1298 57.4186 52.3284 58.0202 51.8384C59.0676 50.9255 60.1361 49.3439 60.1361 49.3439H60.1382Z" fill="url(#paint11_linear_4345_5100)"/>
<path opacity="0.8" d="M44.4143 18.0488C44.4143 18.0488 56.6218 18.9406 60.4961 27.1813C62.9464 32.4374 58.5358 40.0787 54.5269 40.0997C50.5181 40.1228 37.0865 31.3458 36.039 27.135C35.3933 24.5522 32.4529 21.0102 34.6361 19.1825C36.018 18.0025 41.5181 17.7123 44.4143 18.0467V18.0488Z" fill="url(#paint12_linear_4345_5100)"/>
<path opacity="0.4" d="M57.1327 33.7076C58.1801 34.5762 60.4727 36.8268 61.3435 38.9195C62.0565 40.5896 63.5267 44.7772 60.0079 49.5454C57.6249 52.776 55.3302 49.924 54.2827 45.6921C53.8368 43.8665 54.817 41.8158 54.7959 37.4514C54.7728 34.8223 53.7275 31.2594 52.7915 28.9415C54.0388 31.0806 55.9107 32.6833 57.1348 33.7076H57.1327Z" fill="url(#paint13_radial_4345_5100)"/>
<path opacity="0.8" d="M16.4803 41.4353C15.5885 42.0368 14.276 43.2399 13.2959 44.4871C10.7341 47.762 10.3997 49.8568 10.9802 50.9484C12.6292 54.0887 15.9481 49.9452 17.2164 48.3866C18.3522 46.9837 19.488 45.0466 20.5796 43.5301C22.0267 41.4815 24.9229 40.0786 25.3015 39.8557C25.8799 39.5002 30.7364 35.891 29.5775 34.8435C29.3545 34.6437 27.6172 35.7564 27.0388 36.0908C25.7242 36.8248 23.7198 37.5841 22.4053 38.2067C21.9152 38.4065 18.6845 39.9672 16.4803 41.4374V41.4353Z" fill="url(#paint14_linear_4345_5100)"/>
<path opacity="0.7" d="M27.775 21.0775C26.3931 21.7905 23.0089 23.7949 21.6944 24.9307C20.7374 25.7552 19.1326 27.2254 18.6425 27.8269C18.0178 28.5841 18.775 28.2939 20.1127 27.604C23.6988 25.7783 27.4637 25.242 29.445 25.5764C32.03 26.0223 37.1956 28.0036 38.7121 23.4163C39.6923 20.4318 40.5609 18.0929 38.6006 18.0929C37.488 18.0929 35.0377 18.7155 33.9461 18.8942C32.2087 19.1614 28.8224 20.5432 27.7771 21.0775H27.775Z" fill="url(#paint15_linear_4345_5100)"/>
<path opacity="0.7" d="M65.8404 48.6539C66.8205 48.2753 67.4662 50.57 66.5092 51.6153C65.8846 52.3052 65.3966 51.9939 64.7046 51.75C63.9474 51.4828 63.39 51.3272 63.5015 50.793C63.7918 49.3459 65.1274 48.9231 65.8404 48.6539Z" fill="url(#paint16_linear_4345_5100)"/>
<path opacity="0.8" d="M66.978 44.933C67.0664 44.933 67.6679 45.2001 67.5123 45.4231C67.3335 45.646 66.509 45.869 65.8864 45.7344C65.3963 45.646 65.3522 45.2212 65.8191 45.2212C66.488 45.198 66.978 44.9309 66.978 44.9309V44.933Z" fill="url(#paint17_linear_4345_5100)"/>
<defs>
<linearGradient id="paint0_linear_4345_5100" x1="27.7187" y1="32.779" x2="27.8413" y2="41.5631" gradientUnits="userSpaceOnUse">
<stop stop-color="#1EB471" stop-opacity="0"/>
<stop offset="1" stop-color="#6D6E71"/>
</linearGradient>
<linearGradient id="paint1_linear_4345_5100" x1="25.2355" y1="41.4207" x2="31.2061" y2="26.3382" gradientUnits="userSpaceOnUse">
<stop stop-color="#1273BC" stop-opacity="0"/>
<stop offset="1" stop-color="#58657F"/>
</linearGradient>
<linearGradient id="paint2_linear_4345_5100" x1="22.6961" y1="28.5187" x2="36.9425" y2="35.39" gradientUnits="userSpaceOnUse">
<stop stop-color="#1273BC" stop-opacity="0"/>
<stop offset="1" stop-color="#58595B"/>
</linearGradient>
<radialGradient id="paint3_radial_4345_5100" cx="0" cy="0" r="1" gradientUnits="userSpaceOnUse" gradientTransform="translate(31.6898 55.8545) scale(17.4524 17.4524)">
<stop stop-color="#FDDBB2" stop-opacity="0"/>
<stop offset="1" stop-color="#862834"/>
</radialGradient>
<linearGradient id="paint4_linear_4345_5100" x1="48.0029" y1="31.6913" x2="26.5731" y2="63.1784" gradientUnits="userSpaceOnUse">
<stop stop-color="#909295" stop-opacity="0"/>
<stop offset="1" stop-color="#58595B"/>
</linearGradient>
<linearGradient id="paint5_linear_4345_5100" x1="38.7528" y1="44.4239" x2="61.5649" y2="19.4759" gradientUnits="userSpaceOnUse">
<stop stop-color="#909295" stop-opacity="0"/>
<stop offset="1" stop-color="#FFFDB7"/>
</linearGradient>
<linearGradient id="paint6_linear_4345_5100" x1="47.4697" y1="53.6228" x2="66.699" y2="38.7276" gradientUnits="userSpaceOnUse">
<stop stop-color="#909295" stop-opacity="0"/>
<stop offset="1" stop-color="#FFFDB7"/>
</linearGradient>
<linearGradient id="paint7_linear_4345_5100" x1="63.8854" y1="36.0213" x2="67.998" y2="33.405" gradientUnits="userSpaceOnUse">
<stop stop-color="#909295" stop-opacity="0"/>
<stop offset="1" stop-color="#FFFDB7"/>
</linearGradient>
<linearGradient id="paint8_linear_4345_5100" x1="65.2831" y1="42.8673" x2="67.4622" y2="37.5756" gradientUnits="userSpaceOnUse">
<stop stop-color="white" stop-opacity="0"/>
<stop offset="1" stop-color="#30B078"/>
</linearGradient>
<linearGradient id="paint9_linear_4345_5100" x1="65.4912" y1="46.2166" x2="67.0153" y2="42.5152" gradientUnits="userSpaceOnUse">
<stop stop-color="white" stop-opacity="0"/>
<stop offset="1" stop-color="#30B078"/>
</linearGradient>
<linearGradient id="paint10_linear_4345_5100" x1="66.0001" y1="47.01" x2="66.3909" y2="45.5713" gradientUnits="userSpaceOnUse">
<stop stop-color="white" stop-opacity="0"/>
<stop offset="1" stop-color="#30B078"/>
</linearGradient>
<linearGradient id="paint11_linear_4345_5100" x1="61.7546" y1="49.8583" x2="59.6358" y2="53.9137" gradientUnits="userSpaceOnUse">
<stop stop-color="white" stop-opacity="0"/>
<stop offset="1" stop-color="#30B078"/>
</linearGradient>
<linearGradient id="paint12_linear_4345_5100" x1="48.3954" y1="24.0899" x2="51.688" y2="14.5854" gradientUnits="userSpaceOnUse">
<stop stop-color="#909295" stop-opacity="0"/>
<stop offset="1" stop-color="#FFFDB7"/>
</linearGradient>
<radialGradient id="paint13_radial_4345_5100" cx="0" cy="0" r="1" gradientUnits="userSpaceOnUse" gradientTransform="translate(62.9215 36.5071) rotate(6.51) scale(12.532)">
<stop stop-color="white"/>
<stop offset="1" stop-color="#F7EC34" stop-opacity="0"/>
</radialGradient>
<linearGradient id="paint14_linear_4345_5100" x1="20.3349" y1="43.0081" x2="10.8194" y2="31.9922" gradientUnits="userSpaceOnUse">
<stop stop-color="#1DAAEF" stop-opacity="0"/>
<stop offset="1" stop-color="white"/>
</linearGradient>
<linearGradient id="paint15_linear_4345_5100" x1="31.1479" y1="26.2201" x2="17.7442" y2="8.09654" gradientUnits="userSpaceOnUse">
<stop stop-color="#909295" stop-opacity="0"/>
<stop offset="1" stop-color="#1DAAEF"/>
</linearGradient>
<linearGradient id="paint16_linear_4345_5100" x1="65.7318" y1="50.3277" x2="69.3748" y2="46.7717" gradientUnits="userSpaceOnUse">
<stop stop-color="#909295" stop-opacity="0"/>
<stop offset="1" stop-color="#FFFDB7"/>
</linearGradient>
<linearGradient id="paint17_linear_4345_5100" x1="66.3536" y1="45.5252" x2="69.5261" y2="44.3101" gradientUnits="userSpaceOnUse">
<stop stop-color="#909295" stop-opacity="0"/>
<stop offset="1" stop-color="#FFFDB7"/>
</linearGradient>
</defs>
</svg>
