<svg width="79" height="79" viewBox="0 0 79 79" fill="none" xmlns="http://www.w3.org/2000/svg">
<path d="M39.1144 78.6307C60.7064 78.6307 78.2102 61.1269 78.2102 39.5349C78.2102 17.9429 60.7064 0.439087 39.1144 0.439087C17.5224 0.439087 0.0185547 17.9429 0.0185547 39.5349C0.0185547 61.1269 17.5224 78.6307 39.1144 78.6307Z" fill="#EE5E44"/>
<mask id="mask0_4345_5080" style="mask-type:alpha" maskUnits="userSpaceOnUse" x="0" y="0" width="79" height="79">
<path d="M39.1144 78.6307C60.7064 78.6307 78.2102 61.1269 78.2102 39.5349C78.2102 17.9429 60.7064 0.439087 39.1144 0.439087C17.5224 0.439087 0.0185547 17.9429 0.0185547 39.5349C0.0185547 61.1269 17.5224 78.6307 39.1144 78.6307Z" fill="#EE5E44"/>
</mask>
<g mask="url(#mask0_4345_5080)">
<path d="M82.4782 36.6736L-9.36816 68.1205L4.57664 108.849L96.423 77.4018L82.4782 36.6736Z" fill="#1E1870"/>
</g>
</svg>
