<svg width="79" height="79" viewBox="0 0 79 79" fill="none" xmlns="http://www.w3.org/2000/svg">
<rect x="0.439941" y="0.292969" width="78.1916" height="78.1916" rx="39.0958" fill="url(#paint0_linear_4345_5042)"/>
<path d="M58.3837 32.7161L50.2153 20.8188C48.9325 18.9541 46.0315 19.944 46.1263 22.2095C46.2132 24.2746 46.984 26.4604 48.8288 29.1428L48.8298 29.1477L48.8277 29.1523L48.8233 29.1547L48.8183 29.1541C48.0636 28.5907 36.6855 20.0357 23.1604 24.5909H23.1451C21.6525 25.151 20.8904 26.3735 21.2682 27.8068C21.6179 29.1339 22.9771 29.9307 24.3284 29.7061C27.2012 29.2273 30.0524 28.9995 32.8561 29.2458C35.6598 29.4921 38.4025 30.2116 40.9562 31.4678C43.5099 32.7241 45.8232 34.5019 47.9494 36.5381C50.3407 38.8261 53.3077 43.7055 53.3077 43.7055C53.4816 44.0147 53.7589 44.2526 54.0908 44.377C54.4227 44.5013 54.788 44.5045 55.1219 44.3856C55.9257 44.0975 56.3002 43.1695 55.998 42.3736C55.3677 40.7098 54.5961 39.1033 53.6918 37.5713L53.6898 37.5661L53.6917 37.5607L53.6967 37.5581L53.7024 37.5593C54.7023 37.936 55.6275 38.4052 56.7223 38.1485C57.6154 37.9383 58.399 37.33 58.7631 36.4785C59.0268 35.8713 59.1304 35.2065 59.0639 34.5477C58.9975 33.8889 58.7633 33.2583 58.3837 32.7161Z" fill="white"/>
<path d="M20.6875 45.86L28.8559 57.7574C30.1388 59.6221 33.0398 58.6322 32.9449 56.3667C32.8581 54.3015 32.0872 52.1157 30.2425 49.4334L30.2415 49.4285L30.2436 49.4238L30.248 49.4215L30.2529 49.4221C31.0077 49.9854 42.3858 58.5404 55.9109 53.9853H55.9262C57.4187 53.4252 58.1808 52.2027 57.8031 50.7693C57.4534 49.4423 56.0941 48.6455 54.7429 48.87C51.87 49.3489 49.0189 49.5767 46.2152 49.3304C43.4114 49.084 40.6688 48.3646 38.1151 47.1084C35.5614 45.852 33.2479 44.0743 31.1219 42.0381C28.7305 39.7501 25.7636 34.8706 25.7636 34.8706C25.5897 34.5614 25.3123 34.3237 24.9804 34.1992C24.6485 34.0748 24.2833 34.0718 23.9494 34.1905C23.1456 34.4787 22.771 35.4066 23.0732 36.2026C23.7035 37.8663 24.4751 39.473 25.3794 41.0048L25.3814 41.0101L25.3795 41.0154L25.3745 41.0182L25.3689 41.0168C24.369 40.6402 23.4438 40.171 22.349 40.4278C21.4559 40.6378 20.6722 41.2463 20.3081 42.0976C20.0445 42.7049 19.9409 43.3697 20.0073 44.0284C20.0738 44.6872 20.3079 45.3179 20.6875 45.86Z" fill="white"/>
<defs>
<linearGradient id="paint0_linear_4345_5042" x1="64.2965" y1="8.32933" x2="15.2095" y2="69.5795" gradientUnits="userSpaceOnUse">
<stop offset="0.28125" stop-color="#E48AAE"/>
<stop offset="1" stop-color="#C54FE3"/>
</linearGradient>
</defs>
</svg>
