<svg width="79" height="79" viewBox="0 0 79 79" fill="none" xmlns="http://www.w3.org/2000/svg">
<rect x="0.609375" width="78.0977" height="78.0977" rx="39.0489" fill="#00A4D6"/>
<g clip-path="url(#clip0_4345_5010)">
<mask id="mask0_4345_5010" style="mask-type:luminance" maskUnits="userSpaceOnUse" x="20" y="19" width="40" height="40">
<path d="M59.1827 19.5244H20.1338V58.5733H59.1827V19.5244Z" fill="white"/>
</mask>
<g mask="url(#mask0_4345_5010)">
<path fill-rule="evenodd" clip-rule="evenodd" d="M39.6582 51.2517C42.9731 51.2517 45.9792 49.9299 48.1784 47.7847C48.2386 47.7258 48.3352 47.7258 48.3947 47.7854L53.4641 52.8547L58.7258 58.1163C58.8396 58.2302 58.7224 58.4199 58.5697 58.369L50.1726 55.57C50.1291 55.5554 50.0814 55.5613 50.0426 55.5857C47.0348 57.4785 43.4744 58.5733 39.6582 58.5733C28.8752 58.5733 20.1338 49.8319 20.1338 39.0489C20.1338 28.2658 28.8752 19.5244 39.6582 19.5244C50.4413 19.5244 59.1827 28.2658 59.1827 39.0489C59.1827 43.6545 57.588 47.8876 54.9207 51.2263C54.8642 51.2969 54.759 51.3023 54.6951 51.2384L44.3861 40.9294C44.2722 40.8155 44.3895 40.626 44.5422 40.6768L51.0932 42.8605C51.1731 42.8872 51.2596 42.844 51.2852 42.7637C51.6592 41.5924 51.861 40.3442 51.861 39.0489C51.861 32.3094 46.3977 26.8461 39.6582 26.8461C32.9188 26.8461 27.4555 32.3094 27.4555 39.0489C27.4555 45.7882 32.9188 51.2517 39.6582 51.2517Z" fill="white"/>
</g>
</g>
<defs>
<clipPath id="clip0_4345_5010">
<rect width="39.0489" height="39.0489" fill="white" transform="translate(20.1338 19.5244)"/>
</clipPath>
</defs>
</svg>
