<svg width="79" height="79" viewBox="0 0 79 79" fill="none" xmlns="http://www.w3.org/2000/svg">
<path d="M39.1597 78.0977C60.7258 78.0977 78.2086 60.615 78.2086 39.0489C78.2086 17.4828 60.7258 0 39.1597 0C17.5936 0 0.11084 17.4828 0.11084 39.0489C0.11084 60.615 17.5936 78.0977 39.1597 78.0977Z" fill="url(#paint0_linear_4345_5018)"/>
<path d="M61.797 36.8794L51.6677 26.8559L51.6493 26.8377L51.6092 26.803C51.5437 26.7444 51.4751 26.6892 51.4037 26.6376C51.3536 26.598 51.3034 26.5599 51.25 26.5252C51.2266 26.5087 51.2032 26.4955 51.1781 26.4806C50.6006 26.1063 49.902 25.9606 49.221 26.0724C48.54 26.1842 47.9264 26.5453 47.502 27.0841L31.7482 42.6749V28.7855C31.7482 28.0554 31.4551 27.3551 30.9334 26.8388C30.4116 26.3225 29.704 26.0325 28.9661 26.0325C28.2282 26.0325 27.5206 26.3225 26.9988 26.8388C26.4771 27.3551 26.184 28.0554 26.184 28.7855V42.6749L20.4325 36.9836C19.9068 36.4875 19.2059 36.2146 18.4795 36.2231C17.7532 36.2317 17.059 36.521 16.5453 37.0293C16.0317 37.5376 15.7393 38.2245 15.7307 38.9433C15.722 39.662 15.9978 40.3556 16.4991 40.8759L26.9994 51.2664C27.0654 51.3326 27.1351 51.3949 27.2083 51.4533C27.2785 51.5095 27.352 51.564 27.4255 51.6186C27.8049 51.8619 28.2385 52.01 28.6887 52.0502H28.7004C28.7907 52.0584 28.8809 52.0634 28.9711 52.0634H29.0129C29.0886 52.0634 29.1638 52.0601 29.2385 52.0535H29.2936C29.3655 52.0452 29.4373 52.0369 29.5075 52.0221H29.5392C29.6178 52.0055 29.6963 51.9873 29.7732 51.9642H29.7866C29.8704 51.9392 29.953 51.9099 30.0338 51.8765C30.1491 51.8294 30.2608 51.7741 30.368 51.7112L30.4315 51.6748C30.5366 51.6113 30.6371 51.5405 30.7323 51.4632L30.7607 51.4384C30.8192 51.3888 30.8777 51.3392 30.9278 51.283L46.9021 35.4656V49.312C46.9021 50.0421 47.1952 50.7424 47.717 51.2587C48.2388 51.775 48.9464 52.0651 49.6843 52.0651C50.4221 52.0651 51.1298 51.775 51.6515 51.2587C52.1733 50.7424 52.4664 50.0421 52.4664 49.312V35.4227L57.8636 40.7734C58.3875 41.2794 59.0919 41.5608 59.8241 41.5563C60.5562 41.5519 61.2571 41.262 61.7747 40.7496C62.2923 40.2372 62.5849 39.5435 62.5891 38.819C62.5933 38.0945 62.3087 37.3976 61.797 36.8794Z" fill="white"/>
<defs>
<linearGradient id="paint0_linear_4345_5018" x1="5.33628" y1="19.5208" x2="72.9831" y2="58.5751" gradientUnits="userSpaceOnUse">
<stop offset="0.13" stop-color="#348BED"/>
<stop offset="0.31" stop-color="#2B80E8"/>
<stop offset="0.64" stop-color="#1461DB"/>
<stop offset="0.72" stop-color="#0E57D7"/>
</linearGradient>
</defs>
</svg>
