<?xml version="1.0" encoding="utf-8"?>
<!-- Generator: Adobe Illustrator 27.2.0, SVG Export Plug-In . SVG Version: 6.00 Build 0)  -->
<svg version="1.1" id="Layer_1" xmlns="http://www.w3.org/2000/svg" xmlns:xlink="http://www.w3.org/1999/xlink" x="0px" y="0px"
	 width="24px" height="24px" viewBox="0 0 24 24" style="enable-background:new 0 0 24 24;" xml:space="preserve">
<style type="text/css">
	.st0{fill:none;stroke:#000000;stroke-miterlimit:10;}
</style>
<g>
	<g>
		<g>
			<g>
				<path d="M20.3,23H2.6c-1.1,0-2-0.9-2-2V3.4c0-1.1,0.9-2,2-2h17.6c1.1,0,2,0.9,2,2V21C22.3,22.1,21.4,23,20.3,23z M2.6,2.3
					C2,2.3,1.5,2.8,1.5,3.4V21c0,0.6,0.5,1.1,1.1,1.1h17.6c0.6,0,1.1-0.5,1.1-1.1V3.4c0-0.6-0.5-1.1-1.1-1.1
					C20.2,2.3,2.6,2.3,2.6,2.3z"/>
			</g>
		</g>
	</g>
</g>
<g>
	<path class="st0" d="M7.6,14.9L4.7,12l2.9-2.9"/>
	<path class="st0" d="M15.2,14.9l2.9-2.9l-2.9-2.9"/>
	<path class="st0" d="M9.5,14.9l3.8-5.8"/>
</g>
</svg>
