<svg width="26" height="24" viewBox="0 0 26 24" fill="none" xmlns="http://www.w3.org/2000/svg">
<g id="Icons/farcaster">
<path id="Vector" d="M4.46094 0H21.2301V24H18.7685V13.0064H18.7444C18.4723 9.96808 15.9352 7.58707 12.8455 7.58707C9.75581 7.58707 7.21866 9.96808 6.94658 13.0064H6.92246V24H4.46094V0Z" fill="white"/>
<path id="Vector_2" d="M0 3.40628L0.999998 6.81274H1.84613V20.5934C1.4213 20.5934 1.07691 20.94 1.07691 21.3676V22.2966H0.923083C0.498251 22.2966 0.153829 22.6432 0.153829 23.0708V23.9999H8.76917V23.0708C8.76917 22.6432 8.42478 22.2966 7.99995 22.2966H7.84612V21.3676C7.84612 20.94 7.5017 20.5934 7.07687 20.5934H6.15382V3.40628H0Z" fill="white"/>
<path id="Vector_3" d="M18.9228 20.5934C18.4979 20.5934 18.1535 20.94 18.1535 21.3676V22.2966H17.9997C17.5749 22.2966 17.2305 22.6432 17.2305 23.0708V23.9999H25.8458V23.0708C25.8458 22.6432 25.5014 22.2966 25.0766 22.2966H24.9227V21.3676C24.9227 20.94 24.5783 20.5934 24.1535 20.5934V6.81274H24.9996L25.9996 3.40628H19.8458V20.5934H18.9228Z" fill="white"/>
</g>
</svg>
