<svg width="36" height="36" viewBox="0 0 36 36" fill="none" xmlns="http://www.w3.org/2000/svg">
<g id="MiniKit 1">
<path id="Vector" d="M7.61375 3.16406C8.47978 1.66406 10.6448 1.66406 11.5109 3.16406L17.6001 13.7109C18.4661 15.211 17.3836 17.0859 15.6515 17.0859H3.47308C1.74103 17.0859 0.658501 15.211 1.52453 13.7109L7.61375 3.16406Z" fill="white"/>
<path id="Vector_2" d="M32.5303 2.25H22.4053C21.1626 2.25 20.1553 3.25736 20.1553 4.5V14.625C20.1553 15.8676 21.1626 16.875 22.4053 16.875H32.5303C33.7729 16.875 34.7803 15.8676 34.7803 14.625V4.5C34.7803 3.25736 33.7729 2.25 32.5303 2.25Z" fill="white"/>
<path id="Vector_3" d="M9.5625 33.9609C13.6011 33.9609 16.875 30.687 16.875 26.6484C16.875 22.6099 13.6011 19.3359 9.5625 19.3359C5.52392 19.3359 2.25 22.6099 2.25 26.6484C2.25 30.687 5.52392 33.9609 9.5625 33.9609Z" fill="white"/>
<path id="Vector_4" d="M25.394 20.125C26.2601 18.625 28.4251 18.625 29.2911 20.125L35.3804 30.6719C36.2464 32.1719 35.1639 34.0469 33.4318 34.0469H21.2534C19.5213 34.0469 18.4388 32.1719 19.3048 30.6719L25.394 20.125Z" fill="white"/>
</g>
</svg>
