<svg width="24" height="24" viewBox="0 0 24 24" fill="none" xmlns="http://www.w3.org/2000/svg">
<g id="MiniKit 1">
<path id="Vector" d="M5.07616 2.10938C5.65351 1.10937 7.09689 1.10937 7.67424 2.10938L11.7337 9.14063C12.3111 10.1406 11.5894 11.3906 10.4347 11.3906H2.31571C1.16101 11.3906 0.439326 10.1406 1.01668 9.14063L5.07616 2.10938Z" fill="#676869"/>
<path id="Vector_2" d="M21.6865 1.5H14.9365C14.1081 1.5 13.4365 2.17157 13.4365 3V9.75C13.4365 10.5784 14.1081 11.25 14.9365 11.25H21.6865C22.515 11.25 23.1865 10.5784 23.1865 9.75V3C23.1865 2.17157 22.515 1.5 21.6865 1.5Z" fill="#474950"/>
<path id="Vector_3" d="M6.375 22.6406C9.06739 22.6406 11.25 20.458 11.25 17.7656C11.25 15.0732 9.06739 12.8906 6.375 12.8906C3.68261 12.8906 1.5 15.0732 1.5 17.7656C1.5 20.458 3.68261 22.6406 6.375 22.6406Z" fill="#474950"/>
<path id="Vector_4" d="M18 12.8906H17.25C16.8358 12.8906 16.5 13.2264 16.5 13.6406V21.8906C16.5 22.3048 16.8358 22.6406 17.25 22.6406H18C18.4142 22.6406 18.75 22.3048 18.75 21.8906V13.6406C18.75 13.2264 18.4142 12.8906 18 12.8906Z" fill="#DA53C6"/>
<path id="Vector_5" d="M22.5 18.1406V17.3906C22.5 16.9764 22.1642 16.6406 21.75 16.6406H13.5C13.0858 16.6406 12.75 16.9764 12.75 17.3906V18.1406C12.75 18.5548 13.0858 18.8906 13.5 18.8906H21.75C22.1642 18.8906 22.5 18.5548 22.5 18.1406Z" fill="#DA53C6"/>
</g>
</svg>
