<svg xmlns="http://www.w3.org/2000/svg" width="32" height="32" viewBox="0 0 32 32" fill="none">
<path d="M15.9847 25.3269C21.1394 25.3269 25.318 21.1482 25.318 15.9935C26.8543 15.9935 28.2389 15.344 29.2121 14.3045C29.282 14.8577 29.318 15.4214 29.318 15.9935C29.318 23.3573 23.3485 29.3269 15.9847 29.3269C14.2326 29.3269 12.5595 28.9889 11.0269 28.3747C10.1641 28.975 9.11548 29.3269 7.9847 29.3269C5.03918 29.3269 2.65137 26.9391 2.65137 23.9935C2.65137 21.048 5.03918 18.6602 7.9847 18.6602C10.9302 18.6602 13.318 21.048 13.318 23.9935C13.318 24.3082 13.2908 24.6166 13.2385 24.9163C14.1067 25.1832 15.0289 25.3269 15.9847 25.3269Z" fill="#D058C1"/>
<path d="M6.65137 15.9935C6.65137 10.8389 10.83 6.66022 15.9847 6.66022C16.9405 6.66022 17.8627 6.80388 18.7309 7.07078C18.6786 7.37052 18.6514 7.67885 18.6514 7.99355C18.6514 10.9391 21.0392 13.3269 23.9847 13.3269C26.9302 13.3269 29.318 10.9391 29.318 7.99355C29.318 5.04803 26.9302 2.66022 23.9847 2.66022C22.8539 2.66022 21.8053 3.01213 20.9425 3.61241C19.4099 2.99816 17.7368 2.66022 15.9847 2.66022C8.6209 2.66022 2.65137 8.62975 2.65137 15.9935C2.65137 16.5657 2.6874 17.1294 2.75733 17.6826C3.73052 16.6431 5.11509 15.9935 6.65137 15.9935Z" fill="#D058C1"/>
</svg>