<svg width="24" height="25" viewBox="0 0 24 25" fill="none" xmlns="http://www.w3.org/2000/svg">
<g id="Group 1547766081">
<path id="Vector" d="M12.9228 0.0949707H11.0766C10.057 0.0949707 9.23047 0.921522 9.23047 1.94112V22.2488C9.23047 23.2684 10.057 24.095 11.0766 24.095H12.9228C13.9424 24.095 14.7689 23.2684 14.7689 22.2488V1.94112C14.7689 0.921522 13.9424 0.0949707 12.9228 0.0949707Z" fill="white"/>
<path id="Vector_2" d="M24 13.0181V11.1719C24 10.1523 23.1734 9.32574 22.1538 9.32574L1.84615 9.32574C0.826551 9.32574 0 10.1523 0 11.1719V13.0181C0 14.0377 0.826551 14.8642 1.84615 14.8642L22.1538 14.8642C23.1734 14.8642 24 14.0377 24 13.0181Z" fill="white"/>
</g>
</svg>
