<svg xmlns="http://www.w3.org/2000/svg" width="18" height="16" viewBox="0 0 18 16" fill="none">
<path d="M2.97461 0H14.154V16H12.513V8.67096H12.4969C12.3155 6.64539 10.6241 5.05805 8.56432 5.05805C6.50453 5.05805 4.81309 6.64539 4.63171 8.67096H4.61562V16H2.97461V0Z" fill="white"/>
<path d="M0 2.27087L0.666665 4.54185H1.23075V13.729C0.947533 13.729 0.717942 13.96 0.717942 14.2451V14.8644H0.615389C0.332167 14.8644 0.102553 15.0955 0.102553 15.3806V15.9999H5.84611V15.3806C5.84611 15.0955 5.61652 14.8644 5.3333 14.8644H5.23075V14.2451C5.23075 13.96 5.00113 13.729 4.71791 13.729H4.10255V2.27087H0Z" fill="white"/>
<path d="M12.6155 13.729C12.3323 13.729 12.1027 13.96 12.1027 14.2451V14.8644H12.0001C11.7169 14.8644 11.4873 15.0955 11.4873 15.3806V15.9999H17.2309V15.3806C17.2309 15.0955 17.0013 14.8644 16.718 14.8644H16.6155V14.2451C16.6155 13.96 16.3859 13.729 16.1027 13.729V4.54185H16.6668L17.3334 2.27087H13.2309V13.729H12.6155Z" fill="white"/>
</svg>