<svg width="32" height="32" viewBox="0 0 32 32" fill="none" xmlns="http://www.w3.org/2000/svg">
<g id="nav/faces">
<g id="vector">
<path d="M19.319 2.66028C13.7962 2.66028 9.31901 7.13743 9.31901 12.6603C9.31901 18.1831 13.7962 22.6603 19.319 22.6603C24.8419 22.6603 29.319 18.1831 29.319 12.6603C29.319 7.13743 24.8419 2.66028 19.319 2.66028ZM19.3143 17.9936C17.6849 17.9936 16.322 16.8531 15.9801 15.3269H22.6484C22.3066 16.8531 20.9436 17.9936 19.3143 17.9936ZM23.9857 10.9936C23.9857 12.2823 23.2395 13.3269 22.319 13.3269C21.3985 13.3269 20.6523 12.2823 20.6523 10.9936C20.6523 9.70495 21.3985 8.66028 22.319 8.66028C23.2395 8.66028 23.9857 9.70495 23.9857 10.9936ZM16.319 13.3269C15.3985 13.3269 14.6523 12.2823 14.6523 10.9936C14.6523 9.70495 15.3985 8.66028 16.319 8.66028C17.2395 8.66028 17.9857 9.70495 17.9857 10.9936C17.9857 12.2823 17.2395 13.3269 16.319 13.3269Z" fill="#FFDF44"/>
<path d="M7.98568 14.6603C7.98568 16.133 6.79177 17.3269 5.31901 17.3269C3.84625 17.3269 2.65234 16.133 2.65234 14.6603C2.65234 13.1875 3.84625 11.9936 5.31901 11.9936C6.79177 11.9936 7.98568 13.1875 7.98568 14.6603Z" fill="#FFDF44"/>
<path d="M7.65234 29.3269C10.4138 29.3269 12.6523 27.0884 12.6523 24.3269C12.6523 21.5655 10.4138 19.3269 7.65234 19.3269C4.89092 19.3269 2.65234 21.5655 2.65234 24.3269C2.65234 27.0884 4.89092 29.3269 7.65234 29.3269Z" fill="#FFDF44"/>
</g>
</g>
</svg>
