<svg width="237" height="63" viewBox="0 0 619 165" fill="none" xmlns="http://www.w3.org/2000/svg">
<g clip-path="url(#clip0_3669_2952)">
<path d="M77.3184 21.942C76.4334 48.812 76.4604 77.735 77.3184 104.771C78.0784 77.744 78.1034 48.813 77.3184 21.942ZM154.387 90.497C154.369 87.252 153.926 84.08 152.302 81.178C150.392 77.765 147.737 75.653 143.537 75.925C141.049 76.085 140.924 76.07 140.921 78.639V110.004C140.908 111.511 140.996 113.017 141.185 114.512C141.803 119.177 143.373 123.666 145.797 127.699C148.226 131.739 151.455 135.239 155.286 137.984C159.125 140.734 163.484 142.672 168.097 143.68C172.714 144.689 177.488 144.748 182.128 143.853C189.979 142.33 197.066 138.147 202.193 132.01C207.307 125.889 210.141 118.185 210.211 110.209C210.244 105.082 210.211 99.955 210.211 94.828V78.09C210.211 77.164 210.211 76.16 208.983 76.012C205.295 75.575 202.043 76.29 199.788 79.574C197.916 82.2842 196.923 85.505 196.945 88.799C196.918 95.434 196.945 102.069 196.927 108.704C196.95 110.616 196.768 112.525 196.384 114.398C194.051 125.11 184.21 132.17 173.181 131.063C162.573 129.995 154.496 121.005 154.426 110.097C154.372 103.565 154.429 97.03 154.387 90.497ZM0.00635677 142.134C0.00635677 144.125 0.294357 144.381 2.30636 144.36C5.16065 144.35 7.89988 143.234 9.94736 141.245C12.6054 138.753 13.4604 135.608 13.4574 132.107V80.883C13.4574 79.779 13.4354 78.673 13.4574 77.566C13.4774 76.459 12.9144 75.956 11.7904 75.931C9.83536 75.886 7.96536 76.181 6.23736 77.137C2.05036 79.445 0.0273568 83.042 0.0123568 87.75C-0.0176432 96.74 0.0123568 105.73 0.0123568 114.717C0.00635677 123.859 0.00435677 132.998 0.00635677 142.134ZM47.4954 164.138L47.5554 164.346C47.8154 164.219 48.0854 164.107 48.3404 163.966C53.6624 161.034 59.3184 158.878 65.0804 157.005C72.4204 154.62 79.8704 154.357 87.3134 156.402C93.7417 158.166 99.9574 160.628 105.849 163.746C106.216 163.939 106.525 164.325 107.061 164.213C107.01 164.114 106.944 164.023 106.867 163.942C97.5974 156.824 88.3274 149.705 79.0574 142.584C77.7514 141.576 76.6964 141.679 75.4204 142.671C66.1204 149.851 56.8114 157.006 47.4954 164.138ZM41.9884 62.227C41.3824 63.005 41.6664 63.587 42.2554 64.206C44.4854 66.57 45.8284 69.42 46.7524 72.487C47.8924 76.266 48.3284 80.153 48.5074 84.08C48.7834 90.111 48.6974 96.143 48.5864 102.175C48.4365 110.216 48.3952 118.259 48.4624 126.301C48.5374 135.174 47.3104 143.814 44.4764 152.237C43.3704 155.521 42.2664 158.806 40.7154 162.286C40.9654 162.205 41.2084 162.104 41.4424 161.984C49.5324 155.476 57.5874 148.92 66.0164 142.846C67.1014 142.065 67.1104 141.082 66.4494 140.074C65.7848 139.065 65.0623 138.095 64.2854 137.17C62.0394 134.495 61.1514 131.371 61.0974 127.954C61.0274 123.481 60.9394 119.009 60.8854 114.539C60.6914 98.055 60.8154 81.574 60.6154 65.08C60.3604 43.924 60.3574 22.765 60.2454 1.61V0.761H59.9424C59.0124 9.16 58.0624 17.538 56.4544 25.831C53.9354 38.86 50.1644 51.416 41.9884 62.227ZM402.892 82.47C400.961 77.798 397.997 75.834 392.96 75.958C391.202 75.998 390.917 76.226 390.917 77.975C390.917 89.285 390.735 100.594 391.008 111.9C391.236 121.364 395.342 129.344 402.313 135.638C410.475 143.003 420.264 145.533 431.136 144.004C446.341 141.866 459.167 127.872 460.01 112.639C460.313 107.06 460.067 101.481 460.195 96.936V78.87C460.205 78.318 460.175 77.766 460.107 77.218C460.085 76.8874 459.939 76.5771 459.7 76.3478C459.461 76.1185 459.145 75.9867 458.813 75.978C454.873 75.528 451.633 76.602 449.393 80.052C447.661 82.73 446.751 85.8566 446.774 89.046C446.741 96.084 446.82 103.12 446.738 110.156C446.553 125.477 430.887 135.616 416.903 129.358C408.578 125.63 404.477 118.884 404.256 109.885C404.095 103.25 404.204 96.615 404.225 89.981C404.286 87.4128 403.833 84.8584 402.892 82.468V82.47ZM600.149 143.648C599.658 144.616 599.279 145.644 598.694 147.011C604.41 145.557 609.908 144.694 614.606 141.449C616.336 140.243 617.434 138.615 617.637 136.449C617.779 134.851 618 133.259 618.152 131.66C618.858 124.193 618.71 116.711 618.519 109.225C618.252 98.733 613.972 90.199 605.923 83.531C600.095 78.705 593.469 76.033 585.698 76.546C580.467 76.89 575.412 78.003 570.393 79.378C562.822 81.4715 554.885 81.8831 547.138 80.584C542.346 79.797 537.761 78.144 532.975 77.327C525.611 76.07 518.409 75.895 511.642 79.807C501.337 85.769 494.818 94.376 493.76 106.345C492.939 115.758 493.33 125.206 494.063 134.643C494.415 139.046 496.639 141.652 500.51 143.238C501.07 143.467 501.625 143.708 502.189 143.928C505.22 145.096 508.362 145.822 511.505 146.57C511.978 146.685 512.593 147.026 512.93 146.6C513.266 146.175 512.784 145.657 512.59 145.216C510.645 140.798 508.617 136.422 507.938 131.564C507.547 128.777 507.211 125.984 507.068 123.177C506.805 117.953 506.48 112.691 507.083 107.515C508.375 96.451 517.33 88.938 528.544 89.059C537.661 89.159 544.171 93.956 546.905 102.597C547.132 103.317 547.344 104.041 547.529 104.771C550.218 115.393 552.905 126.016 555.588 136.639C555.676 136.983 555.83 137.309 556.042 137.876C556.185 137.396 556.249 137.209 556.297 137.016C558.722 127.366 561.154 117.715 563.595 108.064C564.347 105.094 565.086 102.12 566.28 99.279C567.386 96.6643 569.229 94.4282 571.584 92.844C575.624 90.033 580.101 88.893 585.023 89.05C595.385 89.378 604.28 97.883 604.992 108.173C605.353 113.354 605.074 118.523 604.862 123.686C604.583 130.626 603.325 137.372 600.149 143.648ZM94.0634 39.11C93.8054 58.05 94.0334 76.995 93.7304 95.935C93.5724 105.781 93.6034 115.634 93.6334 125.49C93.6484 130.487 92.6184 135.059 89.0534 138.811C88.7224 139.187 88.4234 139.591 88.1594 140.017C87.3694 141.187 87.5534 142.11 88.7394 142.963C96.8364 148.805 104.598 155.078 112.363 161.342C112.721 161.643 113.033 162.081 113.739 161.993C111.151 156.191 109.393 150.231 107.908 144.17C107.332 141.829 106.762 139.48 106.559 137.07C106.056 131.156 106.201 125.221 106.086 119.295C105.892 109.15 105.989 98.999 105.944 88.835C105.908 85.3683 106.119 81.9035 106.577 78.467C107.22 73.85 108.32 69.374 111.205 65.553C113.09 63.053 113.118 63.063 111.275 60.427C104.877 51.261 101.398 40.923 99.0094 30.151C96.8614 20.451 95.6914 10.614 94.6994 0.75H94.3124C94.1844 13.546 94.2364 26.327 94.0634 39.11ZM276.324 144.079C278.033 144.109 278.988 143.144 279.712 141.754C288.546 124.806 297.386 107.861 306.232 90.92C306.846 89.812 307.17 88.5668 307.174 87.3C307.062 85.277 306.083 83.25 304.862 81.323C302.913 78.25 300.488 75.551 298.067 72.852C297.742 72.492 297.494 71.829 296.961 71.947C296.427 72.065 296.506 72.767 296.415 73.241C295.403 78.633 294.272 83.992 291.869 88.981C287.229 98.583 282.067 107.917 277.185 117.395C276.988 117.772 276.845 118.366 276.294 118.279C275.742 118.192 275.621 117.579 275.385 117.145C270.754 108.218 266.128 99.286 261.507 90.35C259.333 86.1466 257.716 81.6776 256.697 77.056C256.373 75.584 256.012 74.121 255.66 72.656C255.527 72.104 255.318 71.57 254.709 72.27C251.478 75.997 248.086 79.616 246.186 84.273C245.216 86.653 245.404 88.933 246.613 91.236C255.461 108.062 264.282 124.902 273.075 141.757C273.784 143.111 274.684 144.052 276.324 144.079ZM342.422 140.439C342.422 143.865 342.88 144.236 346.332 143.603L346.48 143.57C351.987 142.475 355.673 138 355.679 132.282C355.697 114.504 355.697 96.7253 355.679 78.947C355.679 75.132 355.203 74.749 351.363 75.479C351.214 75.506 351.06 75.551 350.92 75.587C345.917 76.821 342.483 81.07 342.434 86.351C342.371 95.398 342.419 104.431 342.419 113.469H342.404C342.404 122.46 342.41 131.45 342.422 140.439Z" fill="#5B616E"/>
</g>
<defs>
<clipPath id="clip0_3669_2952">
<rect width="619" height="165" fill="white"/>
</clipPath>
</defs>
</svg>
