<svg width="32" height="32" viewBox="0 0 32 32" fill="none" xmlns="http://www.w3.org/2000/svg">
<g id="ui/perpetualSwap">
<g id="vector">
<path d="M15.9857 25.3269C21.1403 25.3269 25.319 21.1482 25.319 15.9935C26.8553 15.9935 28.2399 15.344 29.213 14.3045C29.283 14.8577 29.319 15.4214 29.319 15.9935C29.319 23.3573 23.3495 29.3269 15.9857 29.3269C14.2336 29.3269 12.5605 28.9889 11.0279 28.3747C10.165 28.975 9.11646 29.3269 7.98568 29.3269C5.04016 29.3269 2.65234 26.9391 2.65234 23.9935C2.65234 21.048 5.04016 18.6602 7.98568 18.6602C10.9312 18.6602 13.319 21.048 13.319 23.9935C13.319 24.3082 13.2917 24.6166 13.2395 24.9163C14.1077 25.1832 15.0299 25.3269 15.9857 25.3269Z" fill="#FFDF44"/>
<path d="M6.65234 15.9935C6.65234 10.8389 10.831 6.66022 15.9857 6.66022C16.9414 6.66022 17.8636 6.80388 18.7319 7.07078C18.6796 7.37052 18.6523 7.67885 18.6523 7.99355C18.6523 10.9391 21.0402 13.3269 23.9857 13.3269C26.9312 13.3269 29.319 10.9391 29.319 7.99355C29.319 5.04803 26.9312 2.66022 23.9857 2.66022C22.8549 2.66022 21.8063 3.01213 20.9435 3.61241C19.4109 2.99816 17.7377 2.66022 15.9857 2.66022C8.62188 2.66022 2.65234 8.62975 2.65234 15.9935C2.65234 16.5657 2.68838 17.1294 2.75831 17.6826C3.7315 16.6431 5.11607 15.9935 6.65234 15.9935Z" fill="#FFDF44"/>
</g>
</g>
</svg>
