<svg width="1042" height="139" viewBox="0 0 1042 139" fill="none" xmlns="http://www.w3.org/2000/svg">
<path d="M8.013 107.096C5.034 107.096 2.92801 106.479 1.69501 105.247C0.565007 104.014 0 102.062 0 99.391V10.1703C0 7.4993 0.615999 5.5474 1.849 4.3147C3.082 2.9792 5.136 2.3114 8.013 2.3114H45.766C60.148 2.3114 70.729 5.342 77.51 11.403C84.29 17.4641 87.68 26.5043 87.68 38.5237C87.68 50.4403 84.29 59.429 77.51 65.49C70.832 71.449 60.251 74.428 45.766 74.428H31.127V99.391C31.127 102.062 30.511 104.014 29.278 105.247C28.045 106.479 25.939 107.096 22.96 107.096H8.013ZM43.301 52.084C47.513 52.084 50.749 50.954 53.009 48.6939C55.371 46.4339 56.553 43.0438 56.553 38.5237C56.553 33.9008 55.371 30.4594 53.009 28.1993C50.749 25.9393 47.513 24.8092 43.301 24.8092H31.127V52.084H43.301Z" fill="#5B616E"/>
<path d="M124.071 109.407C114.415 109.407 106.659 106.325 100.803 100.162C95.0498 93.8949 92.1738 85.1119 92.1738 73.8109C92.1738 65.1819 94.1258 57.6309 98.0288 51.1593C102.036 44.6874 107.635 39.705 114.826 36.2122C122.12 32.6166 130.492 30.8188 139.943 30.8188C147.751 30.8188 154.634 31.692 160.592 33.4384C166.653 35.0821 172.2 37.4963 177.234 40.6809V102.319C177.234 104.271 176.875 105.555 176.155 106.171C175.436 106.788 173.998 107.096 171.841 107.096H156.123C154.993 107.096 154.12 106.942 153.504 106.633C152.887 106.223 152.374 105.606 151.963 104.784L149.959 100.162C146.98 103.346 143.385 105.658 139.173 107.096C135.064 108.637 130.03 109.407 124.071 109.407ZM135.629 88.4499C139.635 88.4499 142.768 87.4739 145.028 85.5229C147.288 83.5709 148.418 80.7969 148.418 77.2009V53.1626C146.467 52.238 144.001 51.7757 141.022 51.7757C135.577 51.7757 131.211 53.6762 127.924 57.4769C124.739 61.2779 123.147 66.6199 123.147 73.5029C123.147 83.4679 127.307 88.4499 135.629 88.4499Z" fill="#5B616E"/>
<path d="M198.679 107.096C195.699 107.096 193.593 106.479 192.361 105.247C191.128 104.014 190.512 102.062 190.512 99.391V37.9072C190.512 36.0581 190.82 34.8253 191.436 34.2089C192.155 33.4898 193.593 33.1303 195.751 33.1303H211.623C212.855 33.1303 213.78 33.3357 214.396 33.7466C215.115 34.0548 215.526 34.6712 215.629 35.5958L216.399 40.2186C219.276 37.3422 223.026 35.0821 227.648 33.4384C232.374 31.692 237.613 30.8188 243.366 30.8188C251.687 30.8188 258.416 33.1816 263.552 37.9072C268.689 42.53 271.257 49.4129 271.257 58.5559V99.391C271.257 102.062 270.641 104.014 269.408 105.247C268.278 106.479 266.223 107.096 263.244 107.096H248.297C245.318 107.096 243.161 106.479 241.825 105.247C240.592 104.014 239.976 102.062 239.976 99.391V60.5589C239.976 57.4769 239.308 55.2689 237.973 53.933C236.637 52.5975 234.531 51.9298 231.655 51.9298C228.573 51.9298 226.107 52.7516 224.258 54.3949C222.512 56.0389 221.639 58.2989 221.639 61.1759V99.391C221.639 102.062 221.022 104.014 219.79 105.247C218.66 106.479 216.605 107.096 213.626 107.096H198.679Z" fill="#5B616E"/>
<path d="M325.724 109.407C311.342 109.407 300.248 106.068 292.44 99.391C284.633 92.714 280.729 83.0059 280.729 70.2669C280.729 62.4599 282.527 55.5769 286.122 49.6184C289.718 43.6601 294.905 39.0372 301.685 35.7499C308.568 32.4625 316.685 30.8188 326.033 30.8188C333.121 30.8188 339.08 31.4866 343.908 32.8221C348.839 34.1575 353.204 36.2121 357.005 38.9859C358.135 39.705 358.701 40.6295 358.701 41.7596C358.701 42.5814 358.29 43.6601 357.468 44.9955L351.15 55.9359C350.431 57.3749 349.558 58.0939 348.531 58.0939C347.914 58.0939 346.938 57.6829 345.603 56.8609C342.829 55.1149 340.21 53.8303 337.744 53.0085C335.381 52.1866 332.402 51.7757 328.807 51.7757C323.67 51.7757 319.51 53.4194 316.325 56.7069C313.243 59.9939 311.702 64.5139 311.702 70.2669C311.702 76.1229 313.294 80.6429 316.479 83.8269C319.664 86.9089 324.03 88.4499 329.577 88.4499C332.864 88.4499 335.844 87.988 338.515 87.063C341.186 86.139 343.908 84.8549 346.682 83.2109C348.12 82.3889 349.146 81.9779 349.763 81.9779C350.687 81.9779 351.51 82.6969 352.229 84.1359L359.163 96.001C359.677 97.028 359.934 97.85 359.934 98.466C359.934 99.391 359.317 100.264 358.085 101.086C353.77 103.86 349.044 105.914 343.908 107.25C338.874 108.688 332.812 109.407 325.724 109.407Z" fill="#5B616E"/>
<path d="M399.003 109.407C389.346 109.407 381.59 106.325 375.735 100.162C369.982 93.8949 367.105 85.1119 367.105 73.8109C367.105 65.1819 369.057 57.6309 372.961 51.1593C376.967 44.6874 382.566 39.705 389.757 36.2122C397.051 32.6166 405.424 30.8188 414.875 30.8188C422.682 30.8188 429.565 31.692 435.523 33.4384C441.584 35.0821 447.132 37.4963 452.166 40.6809V102.319C452.166 104.271 451.806 105.555 451.087 106.171C450.368 106.788 448.93 107.096 446.772 107.096H431.055C429.925 107.096 429.051 106.942 428.435 106.633C427.819 106.223 427.305 105.606 426.894 104.784L424.891 100.162C421.912 103.346 418.316 105.658 414.104 107.096C409.995 108.637 404.961 109.407 399.003 109.407ZM410.56 88.4499C414.567 88.4499 417.7 87.4739 419.96 85.5229C422.22 83.5709 423.35 80.7969 423.35 77.2009V53.1626C421.398 52.238 418.933 51.7757 415.953 51.7757C410.509 51.7757 406.143 53.6762 402.855 57.4769C399.671 61.2779 398.078 66.6199 398.078 73.5029C398.078 83.4679 402.239 88.4499 410.56 88.4499Z" fill="#5B616E"/>
<path d="M548.962 101.24C549.681 102.062 550.041 102.987 550.041 104.014C550.041 104.938 549.733 105.709 549.116 106.325C548.5 106.839 547.678 107.096 546.651 107.096H522.766C521.328 107.096 520.249 106.993 519.53 106.788C518.914 106.479 518.246 105.914 517.527 105.093L496.57 76.585V99.391C496.57 102.062 495.954 104.014 494.721 105.247C493.488 106.479 491.382 107.096 488.403 107.096H473.456C470.477 107.096 468.371 106.479 467.138 105.247C466.008 104.014 465.443 102.062 465.443 99.391V10.1703C465.443 7.4993 466.059 5.5474 467.292 4.3147C468.525 2.9792 470.58 2.3114 473.456 2.3114H488.403C491.382 2.3114 493.488 2.9792 494.721 4.3147C495.954 5.5474 496.57 7.4993 496.57 10.1703V61.792L516.911 35.2877C517.527 34.4658 518.195 33.9008 518.914 33.5926C519.633 33.2845 520.712 33.1304 522.15 33.1304H546.035C547.062 33.1304 547.832 33.4385 548.346 34.0549C548.962 34.5686 549.271 35.2877 549.271 36.2123C549.271 37.2396 548.911 38.1641 548.192 38.986L521.842 69.189L548.962 101.24Z" fill="#5B616E"/>
<path d="M598.997 109.407C590.368 109.407 582.663 107.969 575.883 105.093C569.206 102.216 563.915 97.9009 560.011 92.1489C556.108 86.3959 554.156 79.3589 554.156 71.0379C554.156 57.9909 557.854 48.0261 565.251 41.1432C572.647 34.2603 583.28 30.8188 597.148 30.8188C610.709 30.8188 620.982 34.2089 627.967 40.9891C635.056 47.6665 638.6 56.9639 638.6 68.8799C638.6 74.0169 636.34 76.5849 631.82 76.5849H583.434C583.434 81.0019 585.077 84.393 588.365 86.755C591.755 89.118 596.84 90.2989 603.62 90.2989C607.832 90.2989 611.325 89.9399 614.099 89.2209C616.975 88.3989 619.852 87.2179 622.728 85.6769C623.961 85.1629 624.783 84.906 625.193 84.906C626.118 84.906 626.888 85.523 627.505 86.755L632.744 96.617C633.258 97.645 633.515 98.4149 633.515 98.9289C633.515 99.8529 632.898 100.727 631.665 101.548C627.454 104.322 622.677 106.325 617.335 107.558C611.993 108.791 605.88 109.407 598.997 109.407ZM610.863 61.3299C610.863 57.4259 609.733 54.3949 607.473 52.238C605.213 50.0807 601.822 49.002 597.302 49.002C592.782 49.002 589.341 50.132 586.978 52.3921C584.615 54.5499 583.434 57.5289 583.434 61.3299H610.863Z" fill="#5B616E"/>
<path d="M691.416 109.407C682.786 109.407 674.619 108.534 666.915 106.788C659.21 104.938 652.995 102.37 648.269 99.083C646.523 97.953 645.65 96.771 645.65 95.539C645.65 94.717 645.958 93.844 646.574 92.919L654.125 80.9C654.947 79.667 655.768 79.051 656.59 79.051C657.104 79.051 657.977 79.41 659.21 80.129C663.011 82.287 667.325 84.033 672.154 85.368C676.982 86.704 681.759 87.372 686.485 87.372C691.313 87.372 694.857 86.653 697.117 85.214C699.48 83.776 700.661 81.465 700.661 78.28C700.661 75.198 699.377 72.784 696.809 71.038C694.343 69.291 689.669 67.083 682.786 64.412C672.411 60.508 664.295 56.142 658.439 51.3135C652.686 46.3825 649.81 39.7051 649.81 31.2812C649.81 21.111 653.457 13.3549 660.751 8.0129C668.045 2.671 677.752 0 689.875 0C698.298 0 705.49 0.770501 711.448 2.3114C717.509 3.7496 722.645 6.0097 726.857 9.0916C728.604 10.4271 729.477 11.6598 729.477 12.7899C729.477 13.509 729.169 14.3308 728.552 15.2554L721.002 27.2748C720.077 28.5075 719.255 29.1239 718.536 29.1239C718.023 29.1239 717.149 28.7643 715.917 28.0452C709.958 24.1415 702.87 22.1896 694.652 22.1896C690.234 22.1896 686.844 22.9087 684.481 24.347C682.119 25.7852 680.937 28.148 680.937 31.4353C680.937 33.6954 681.554 35.5445 682.786 36.9827C684.019 38.4209 685.663 39.7051 687.717 40.8351C689.875 41.8624 693.162 43.1979 697.579 44.8415L700.507 45.9202C708.109 48.8994 714.068 51.7758 718.382 54.55C722.8 57.22 726.138 60.559 728.398 64.566C730.658 68.469 731.788 73.4 731.788 79.359C731.788 88.502 728.347 95.796 721.464 101.24C714.684 106.685 704.668 109.407 691.416 109.407Z" fill="#5B616E"/>
<path d="M764.529 107.096C762.989 107.096 761.809 106.839 760.985 106.325C760.163 105.812 759.546 104.784 759.135 103.243L739.257 36.6745C739.052 36.0582 738.949 35.5959 738.949 35.2877C738.949 33.8495 739.976 33.1304 742.031 33.1304H762.369C763.709 33.1304 764.679 33.3872 765.299 33.9008C765.919 34.3117 766.329 35.0308 766.529 36.0581L774.849 71.038L785.329 42.8383C785.849 41.6056 786.359 40.7837 786.869 40.3728C787.489 39.8591 788.519 39.6023 789.959 39.6023H799.659C801.099 39.6023 802.079 39.8591 802.589 40.3728C803.209 40.7837 803.769 41.6056 804.289 42.8383L814.609 71.038L823.089 36.0581C823.389 35.0308 823.799 34.3117 824.319 33.9008C824.829 33.3872 825.759 33.1304 827.089 33.1304H847.589C849.639 33.1304 850.669 33.8495 850.669 35.2877C850.669 35.5959 850.569 36.0582 850.359 36.6745L830.329 103.243C829.919 104.784 829.299 105.812 828.479 106.325C827.759 106.839 826.629 107.096 825.089 107.096H809.989C808.549 107.096 807.469 106.839 806.749 106.325C806.029 105.709 805.419 104.682 804.899 103.243L794.729 75.352L784.559 103.243C784.149 104.682 783.529 105.709 782.709 106.325C781.989 106.839 780.919 107.096 779.479 107.096H764.529Z" fill="#5B616E"/>
<path d="M889.73 109.407C880.07 109.407 872.32 106.325 866.46 100.162C860.71 93.8949 857.83 85.1119 857.83 73.8109C857.83 65.1819 859.78 57.6309 863.69 51.1593C867.69 44.6874 873.29 39.705 880.48 36.2122C887.78 32.6166 896.15 30.8188 905.6 30.8188C913.41 30.8188 920.29 31.692 926.25 33.4384C932.31 35.0821 937.86 37.4963 942.89 40.6809V102.319C942.89 104.271 942.53 105.555 941.81 106.171C941.09 106.788 939.66 107.096 937.5 107.096H921.78C920.65 107.096 919.78 106.942 919.16 106.633C918.54 106.223 918.03 105.606 917.62 104.784L915.62 100.162C912.64 103.346 909.04 105.658 904.83 107.096C900.72 108.637 895.69 109.407 889.73 109.407ZM901.29 88.4499C905.29 88.4499 908.43 87.4739 910.69 85.5229C912.95 83.5709 914.08 80.7969 914.08 77.2009V53.1626C912.12 52.238 909.66 51.7757 906.68 51.7757C901.23 51.7757 896.87 53.6762 893.58 57.4769C890.4 61.2779 888.8 66.6199 888.8 73.5029C888.8 83.4679 892.97 88.4499 901.29 88.4499Z" fill="#5B616E"/>
<path d="M964.18 138.223C961.2 138.223 959.1 137.607 957.86 136.374C956.73 135.141 956.17 133.189 956.17 130.518V42.2218C960.79 38.9345 966.6 36.2121 973.58 34.0548C980.57 31.8975 987.86 30.8188 995.46 30.8188C1026.49 30.8188 1042 43.9682 1042 70.2669C1042 82.1839 1038.71 91.6859 1032.14 98.7749C1025.56 105.863 1016.27 109.407 1004.25 109.407C1000.86 109.407 997.57 108.996 994.38 108.174C991.3 107.353 988.73 106.223 986.68 104.784V130.518C986.68 133.189 986.06 135.141 984.83 136.374C983.6 137.607 981.49 138.223 978.51 138.223H964.18ZM997.62 88.604C1002.04 88.604 1005.33 86.961 1007.48 83.673C1009.74 80.283 1010.87 75.7629 1010.87 70.1129C1010.87 63.4359 1009.54 58.7609 1006.87 56.0899C1004.3 53.3167 1000.29 51.9298 994.85 51.9298C991.35 51.9298 988.58 52.3921 986.53 53.3167V77.8179C986.53 81.3109 987.5 83.9819 989.45 85.8309C991.41 87.6799 994.13 88.604 997.62 88.604Z" fill="#5B616E"/>
</svg>
