<svg width="14" height="18" viewBox="0 0 14 18" fill="none" xmlns="http://www.w3.org/2000/svg">
<path d="M0.529785 12.34H4.10978C4.32978 13.78 4.89979 14.74 6.86978 14.74C8.61979 14.74 9.55979 13.52 9.55979 11.69C9.55979 9.84004 8.49978 8.69004 6.77978 8.69004C5.16978 8.69004 4.18978 9.27004 3.48978 10.06H1.31979L1.55978 0.290039H12.4298V3.24004H4.46979L4.39978 7.54004C5.06978 6.72004 6.26978 5.96004 8.21979 5.96004C11.3398 5.96004 13.4798 8.10004 13.4798 11.74C13.4798 15.39 10.8598 17.72 6.89978 17.72C2.66978 17.71 0.699785 15.41 0.529785 12.34Z" fill="#0A0B0D"/>
</svg>
