<svg width="14" height="18" viewBox="0 0 14 18" fill="none" xmlns="http://www.w3.org/2000/svg">
<path d="M0.299805 12.12H3.7998C3.9398 13.78 4.8298 14.98 6.8998 14.98C8.8398 14.98 9.7598 14.04 9.7598 12.51C9.7598 10.88 8.8498 10.04 6.9998 10.04H5.6598V7.45001H6.9098C8.7098 7.45001 9.5298 6.63001 9.5298 5.17001C9.5298 3.95001 8.7398 3.03001 7.1498 3.03001C5.5198 3.03001 4.5098 4.01001 4.3198 5.62001H0.879805C1.0698 2.48001 3.2998 0.170013 7.2198 0.170013C10.9898 0.170013 13.1998 2.14001 13.1998 4.83001C13.1998 6.75001 12.0698 7.95001 10.3698 8.55001C12.3598 8.98001 13.7098 10.4 13.7098 12.58C13.7098 15.8 11.2398 17.84 7.0598 17.84C2.6798 17.83 0.449805 15.6 0.299805 12.12Z" fill="#0A0B0D"/>
</svg>
