<svg width="42" height="16" viewBox="0 0 42 16" fill="none" xmlns="http://www.w3.org/2000/svg">
<path d="M5.6769 14.3701C8.82312 14.3701 11.3736 11.8248 11.3736 8.68507C11.3736 5.54529 8.82312 3 5.6769 3C2.69195 3 0.243198 5.29104 0 8.20719H7.52979V9.16294H4.08962e-08C0.243198 12.0791 2.69195 14.3701 5.6769 14.3701Z" fill="#E3E7E9"/>
<path d="M20.51 4.96C22.66 4.96 23.84 6.53 23.84 8.48C23.84 10.44 22.67 12 20.51 12H17.83V4.96H20.51ZM20.52 6.12H19.17V10.84H20.52C21.59 10.84 22.47 10.08 22.47 8.73V8.22C22.47 6.88 21.59 6.12 20.52 6.12ZM27.2856 12.14C25.5356 12.14 24.6556 10.85 24.6556 9.38C24.6556 7.91 25.5456 6.62 27.2856 6.62C29.0156 6.62 29.9056 7.92 29.9056 9.38C29.9056 10.85 29.0256 12.14 27.2856 12.14ZM28.6056 9.61V9.16C28.6056 8.22 28.0256 7.69 27.2856 7.69C26.5356 7.69 25.9556 8.24 25.9556 9.16V9.61C25.9556 10.52 26.5356 11.07 27.2856 11.07C28.0256 11.07 28.6056 10.54 28.6056 9.61ZM31.971 9.16V9.62C31.971 10.53 32.531 11.08 33.261 11.08C33.901 11.08 34.241 10.69 34.351 10.25H35.611C35.431 11.4 34.571 12.14 33.271 12.14C31.531 12.14 30.681 10.88 30.681 9.38C30.681 7.88 31.541 6.62 33.271 6.62C34.571 6.62 35.441 7.37 35.611 8.51H34.351C34.241 8.08 33.901 7.69 33.261 7.69C32.531 7.69 31.971 8.25 31.971 9.16ZM36.2751 10.44H37.6051C37.6151 10.97 38.0451 11.2 38.6651 11.2C39.2651 11.2 39.6551 10.97 39.6551 10.55C39.6551 10.14 39.2851 9.99 38.7351 9.92L37.9751 9.82C37.1151 9.7 36.4051 9.28 36.4051 8.28C36.4051 7.22 37.3751 6.61 38.6451 6.61C40.0151 6.61 40.8151 7.32 40.8551 8.24H39.5451C39.5351 7.81 39.2151 7.54 38.6151 7.54C38.0351 7.54 37.7151 7.8 37.7151 8.16C37.7151 8.52 37.9851 8.69 38.4351 8.75L39.1951 8.86C40.1351 8.99 40.9651 9.4 40.9651 10.44C40.9651 11.52 39.9651 12.16 38.6251 12.16C37.2451 12.16 36.2951 11.49 36.2751 10.44Z" fill="#9F9FA9"/>
</svg>
