<svg width="93" height="16" viewBox="0 0 93 16" fill="none" xmlns="http://www.w3.org/2000/svg">
<path d="M5.6769 14.3701C8.82312 14.3701 11.3736 11.8248 11.3736 8.68507C11.3736 5.54529 8.82312 3 5.6769 3C2.69195 3 0.243198 5.29104 0 8.20719H7.52979V9.16294H4.08962e-08C0.243198 12.0791 2.69195 14.3701 5.6769 14.3701Z" fill="#E3E7E9"/>
<path d="M20.51 4.96C22.66 4.96 23.84 6.53 23.84 8.48C23.84 10.44 22.67 12 20.51 12H17.83V4.96H20.51ZM20.52 6.12H19.17V10.84H20.52C21.59 10.84 22.47 10.08 22.47 8.73V8.22C22.47 6.88 21.59 6.12 20.52 6.12ZM27.2856 12.14C25.5356 12.14 24.6556 10.85 24.6556 9.38C24.6556 7.91 25.5456 6.62 27.2856 6.62C29.0156 6.62 29.9056 7.92 29.9056 9.38C29.9056 10.85 29.0256 12.14 27.2856 12.14ZM28.6056 9.61V9.16C28.6056 8.22 28.0256 7.69 27.2856 7.69C26.5356 7.69 25.9556 8.24 25.9556 9.16V9.61C25.9556 10.52 26.5356 11.07 27.2856 11.07C28.0256 11.07 28.6056 10.54 28.6056 9.61ZM31.971 9.16V9.62C31.971 10.53 32.531 11.08 33.261 11.08C33.901 11.08 34.241 10.69 34.351 10.25H35.611C35.431 11.4 34.571 12.14 33.271 12.14C31.531 12.14 30.681 10.88 30.681 9.38C30.681 7.88 31.541 6.62 33.271 6.62C34.571 6.62 35.441 7.37 35.611 8.51H34.351C34.241 8.08 33.901 7.69 33.261 7.69C32.531 7.69 31.971 8.25 31.971 9.16ZM40.0751 9.84V6.76H41.3751V12H40.1551V11.16H40.1451C39.8651 11.81 39.2551 12.14 38.5151 12.14C37.3951 12.14 36.5751 11.36 36.5751 10.04V6.76H37.8751V9.9C37.8751 10.67 38.3851 11.04 38.9451 11.04C39.5351 11.04 40.0751 10.65 40.0751 9.84ZM42.7386 12V6.76H43.9586V7.53H43.9686C44.2286 6.93 44.7886 6.62 45.4886 6.62C46.2386 6.62 46.8386 6.98 47.1186 7.63H47.1286C47.4186 6.97 48.0486 6.62 48.7886 6.62C49.8586 6.62 50.6486 7.37 50.6486 8.63V12H49.3486V8.77C49.3486 8.06 48.8786 7.72 48.3586 7.72C47.8286 7.72 47.3386 8.08 47.3386 8.83V12H46.0386V8.77C46.0386 8.06 45.5686 7.72 45.0586 7.72C44.5286 7.72 44.0386 8.08 44.0386 8.83V12H42.7386ZM54.2976 12.14C52.5276 12.14 51.6576 10.86 51.6576 9.38C51.6576 7.91 52.5376 6.62 54.2476 6.62C55.9376 6.62 56.7776 7.85 56.7776 9.24V9.71H52.9576C52.9676 10.63 53.5476 11.17 54.3276 11.17C54.9876 11.17 55.3376 10.8 55.3876 10.45H56.6876C56.5176 11.45 55.5876 12.14 54.2976 12.14ZM54.2476 7.59C53.5676 7.59 53.0476 8.05 52.9676 8.84H55.4776C55.4476 8.04 54.9476 7.59 54.2476 7.59ZM59.146 8.92V12H57.846V6.76H59.066V7.6H59.076C59.356 6.95 59.966 6.62 60.706 6.62C61.826 6.62 62.646 7.4 62.646 8.72V12H61.346V8.86C61.346 8.09 60.836 7.72 60.276 7.72C59.686 7.72 59.146 8.11 59.146 8.92ZM63.2835 6.76H64.4235V5.29H65.7235V6.76H67.3435V7.82H65.7235V10.51C65.7235 10.82 65.8535 10.95 66.1535 10.95H67.3435V12H65.8535C64.8835 12 64.4235 11.52 64.4235 10.62V7.82H63.2835V6.76ZM68.1255 8.28C68.2355 7.29 69.0355 6.62 70.4055 6.62C71.6055 6.62 72.5855 7.14 72.5855 8.47V10.64C72.5855 10.93 72.6955 10.99 72.9355 10.99H73.2455V12H72.5255C71.8055 12 71.5255 11.67 71.5355 11.15V11.1H71.5255C71.2755 11.73 70.6555 12.14 69.7955 12.14C68.7055 12.14 67.9555 11.55 67.9555 10.56C67.9555 9.54 68.7155 9.06 69.9455 8.89L70.5855 8.79C71.0755 8.72 71.2855 8.56 71.2855 8.23C71.2855 7.88 71.0555 7.56 70.3855 7.56C69.7655 7.56 69.4455 7.84 69.4055 8.28H68.1255ZM71.3055 9.88V9.39C71.1955 9.48 70.9955 9.59 70.6955 9.63L70.1455 9.71C69.5655 9.8 69.2155 10.03 69.2155 10.43V10.49C69.2155 10.9 69.5355 11.16 70.0655 11.16C70.8255 11.16 71.3055 10.64 71.3055 9.88ZM73.2835 6.76H74.4235V5.29H75.7235V6.76H77.3435V7.82H75.7235V10.51C75.7235 10.82 75.8535 10.95 76.1535 10.95H77.3435V12H75.8535C74.8835 12 74.4235 11.52 74.4235 10.62V7.82H73.2835V6.76ZM79.4431 6.15H79.3531C78.9031 6.15 78.5531 5.8 78.5531 5.38C78.5531 4.94 78.9031 4.6 79.3531 4.6H79.4431C79.8831 4.6 80.2331 4.94 80.2331 5.38C80.2331 5.8 79.8831 6.15 79.4431 6.15ZM77.9331 7.8V6.76H80.0431V12H78.7431V7.8H77.9331ZM83.7407 12.14C81.9907 12.14 81.1107 10.85 81.1107 9.38C81.1107 7.91 82.0007 6.62 83.7407 6.62C85.4707 6.62 86.3607 7.92 86.3607 9.38C86.3607 10.85 85.4807 12.14 83.7407 12.14ZM85.0607 9.61V9.16C85.0607 8.22 84.4807 7.69 83.7407 7.69C82.9907 7.69 82.4107 8.24 82.4107 9.16V9.61C82.4107 10.52 82.9907 11.07 83.7407 11.07C84.4807 11.07 85.0607 10.54 85.0607 9.61ZM88.7261 8.92V12H87.4261V6.76H88.6461V7.6H88.6561C88.9361 6.95 89.5461 6.62 90.2861 6.62C91.4061 6.62 92.2261 7.4 92.2261 8.72V12H90.9261V8.86C90.9261 8.09 90.4161 7.72 89.8561 7.72C89.2661 7.72 88.7261 8.11 88.7261 8.92Z" fill="#9F9FA9"/>
</svg>
