<svg width="32" height="32" viewBox="0 0 32 32" fill="none" xmlns="http://www.w3.org/2000/svg">
<g id="nav/complianceProduct">
<path id="vector" d="M26.0504 19.3877L29.3185 18.2641L29.3185 13.6999L26.0504 12.611C25.7954 12.5299 25.5868 12.333 25.4709 12.055C25.3666 11.8001 25.3782 11.5105 25.4941 11.2788L27.0355 8.18586L23.8021 4.96545L20.7078 6.50615C20.4644 6.62199 20.1863 6.63359 19.9081 6.51775C19.6532 6.41349 19.4562 6.20499 19.375 5.95014L18.2741 2.66022L13.7079 2.66022L12.6185 5.93854C12.5374 6.19339 12.3404 6.40191 12.0623 6.51775C11.8073 6.62201 11.5176 6.62198 11.2742 6.49456L8.17989 4.95392L4.94652 8.18586L6.48787 11.2788C6.60376 11.5221 6.61535 11.8117 6.54582 11.997L6.48787 12.1245C6.38356 12.3562 6.17496 12.5415 5.93159 12.6226L2.65186 13.7115L2.65186 18.2757L5.93159 19.3646C6.18655 19.4457 6.39516 19.6426 6.51105 19.9206C6.61535 20.1754 6.60376 20.465 6.48787 20.7083L4.94652 23.8012L8.16831 27.0217L11.2626 25.4809C11.506 25.3651 11.7957 25.3535 12.0739 25.4694C12.3288 25.5736 12.5258 25.7821 12.607 26.037L13.7079 29.3269H18.2741L19.3634 26.0486C19.4446 25.7937 19.6416 25.5852 19.9197 25.4694C20.1747 25.3651 20.4644 25.3767 20.7078 25.4925L23.8021 27.0333L27.0355 23.8128L25.4941 20.7199C25.3782 20.4766 25.3666 20.1986 25.4825 19.9206C25.5868 19.6657 25.7954 19.4688 26.0504 19.3877ZM17.8192 14.1602L21.1525 15.9935L17.8192 17.8269L15.8192 21.3269L13.9858 17.8269L10.4858 15.9935L13.9858 14.1602L15.8192 10.6602L17.8192 14.1602Z" fill="#44C28D"/>
</g>
</svg>
