<svg width="229" height="52" viewBox="0 0 229 52" fill="none" xmlns="http://www.w3.org/2000/svg">
<g clip-path="url(#clip0_3895_2455)">
<path fill-rule="evenodd" clip-rule="evenodd" d="M25.9995 0.78125C39.9294 0.78125 51.2217 12.0736 51.2217 26.0035C51.2217 39.9333 39.9294 51.2257 25.9995 51.2257C12.0697 51.2257 0.777344 39.9333 0.777344 26.0035C0.777344 12.0736 12.0697 0.78125 25.9995 0.78125ZM22.5107 9.6C20.9518 8.93282 19.1472 9.65569 18.48 11.2146L11.6195 27.2445C10.9523 28.8034 11.6752 30.6079 13.2341 31.2751L21.3641 34.7546C22.0277 35.2679 22.5059 35.9759 22.5965 37.0812C22.8391 40.0398 24.0925 41.0645 24.9103 41.0645C25.9319 41.0645 26.272 40.2702 26.6122 39.4755C26.9529 38.6797 27.2939 37.8834 28.3194 37.8834C29.3759 37.8834 29.67 39.1187 29.9382 40.2454C30.0826 40.8523 30.2196 41.4276 30.4641 41.7615C31.1627 42.7152 32.5586 43.147 33.3764 41.7615C33.6572 41.2857 33.6959 40.6074 33.7501 39.6577L33.7501 39.6566C33.833 38.1994 33.9524 36.1033 35.0375 33.1192L40.3976 20.595C41.0648 19.0361 40.3419 17.2315 38.783 16.5643L22.5107 9.6ZM22.8822 20.2018C22.0976 19.8806 21.2011 20.2563 20.8799 21.041L20.2984 22.4617C19.9773 23.2464 20.353 24.1428 21.1377 24.464C21.9223 24.7851 22.8187 24.4094 23.1399 23.6247L23.7214 22.204C24.0426 21.4194 23.6669 20.5229 22.8822 20.2018ZM30.5579 23.2708C29.7732 22.9496 28.8768 23.3254 28.5556 24.11L27.9741 25.5307C27.6529 26.3154 28.0287 27.2118 28.8133 27.533C29.598 27.8542 30.4944 27.4784 30.8156 26.6938L31.3971 25.273C31.7182 24.4884 31.3425 23.5919 30.5579 23.2708Z" fill="#5B616E"/>
<path d="M62.9189 38.9999L68.7074 14.0299H78.5819C81.1041 14.0299 83.1976 14.4587 84.8622 15.3162C86.5269 16.1486 87.7754 17.334 88.6077 18.8726C89.4401 20.3859 89.8563 22.1767 89.8563 24.2449C89.8563 26.4897 89.5536 28.5201 88.9482 30.3361C88.3429 32.1521 87.4349 33.7032 86.2242 34.9896C85.0388 36.2759 83.5885 37.2722 81.8734 37.9784C80.1583 38.6594 78.1784 38.9999 75.9336 38.9999H62.9189ZM73.2096 32.7196H75.2904C76.3245 32.7196 77.2073 32.4547 77.9387 31.9251C78.6954 31.3954 79.3007 30.7018 79.7547 29.8442C80.2087 28.9867 80.5366 28.0535 80.7384 27.0446C80.9654 26.0105 81.0789 25.0016 81.0789 24.0179C81.0789 23.2108 80.9528 22.5298 80.7006 21.9749C80.4484 21.42 80.07 21.0038 79.5656 20.7264C79.0611 20.449 78.418 20.3102 77.6361 20.3102H76.0471L73.2096 32.7196ZM89.7422 38.9999L95.5307 14.0299H116.49L114.977 20.4994H102.833L102.114 23.6017H111.723L110.361 29.5794H100.752L100.071 32.5304H112.442L110.929 38.9999H89.7422ZM138.206 20.4994H126.515L125.721 23.9801H135.217L133.704 30.4496H124.208L122.24 38.9999H113.425L119.214 14.0299H139.719L138.206 20.4994ZM150.062 39.3782C147.842 39.3782 145.85 38.9495 144.084 38.0919C142.319 37.2091 140.931 35.948 139.923 34.3086C138.914 32.6439 138.409 30.664 138.409 28.3687C138.409 26.1996 138.725 24.2197 139.355 22.4289C139.986 20.6129 140.894 19.0491 142.079 17.7376C143.29 16.426 144.753 15.4171 146.468 14.7109C148.208 14.0047 150.163 13.6516 152.332 13.6516C154.577 13.6516 156.569 14.093 158.31 14.9757C160.075 15.8333 161.462 17.0818 162.471 18.7212C163.48 20.3607 163.985 22.3406 163.985 24.6611C163.985 26.8302 163.669 28.8227 163.039 30.6387C162.408 32.4295 161.488 33.9807 160.277 35.2922C159.091 36.6038 157.629 37.6127 155.888 38.3189C154.173 39.0251 152.231 39.3782 150.062 39.3782ZM150.213 32.7574C151.071 32.7574 151.802 32.48 152.408 31.9251C153.038 31.345 153.555 30.6009 153.959 29.6929C154.388 28.7849 154.703 27.8138 154.905 26.7797C155.106 25.7204 155.207 24.7241 155.207 23.7909C155.207 23.009 155.094 22.3658 154.867 21.8614C154.665 21.3317 154.337 20.9408 153.883 20.6886C153.454 20.4111 152.887 20.2724 152.181 20.2724C151.323 20.2724 150.579 20.5625 149.948 21.1426C149.343 21.6975 148.826 22.4289 148.397 23.3369C147.994 24.2449 147.691 25.2286 147.489 26.2879C147.287 27.322 147.187 28.3057 147.187 29.2389C147.187 29.9956 147.287 30.6387 147.489 31.1684C147.716 31.6981 148.057 32.1016 148.511 32.3791C148.965 32.6313 149.532 32.7574 150.213 32.7574ZM163.894 38.9999L169.683 14.0299H182.092C184.866 14.0299 187.061 14.6731 188.675 15.9594C190.289 17.2457 191.096 19.0491 191.096 21.3696C191.096 23.4378 190.604 25.1655 189.621 26.5527C188.662 27.9147 187.326 28.9362 185.61 29.6172C183.921 30.2982 181.966 30.6387 179.746 30.6387L178.649 31.0171H173.844L175.168 25.2286H178.914C179.645 25.2286 180.276 25.1151 180.806 24.8881C181.335 24.6611 181.751 24.3332 182.054 23.9044C182.357 23.4756 182.508 22.9838 182.508 22.4289C182.508 21.647 182.243 21.1047 181.714 20.8021C181.209 20.4742 180.591 20.3102 179.86 20.3102H176.833L172.52 38.9999H163.894ZM180.2 38.9999L176.228 28.0661L183.984 26.7797L188.94 38.9999H180.2ZM190.533 38.9999L196.321 14.0299H207.104L207.898 23.8666L208.087 30.2604H208.125L211.152 23.8287L216.146 14.0299H228.404L222.615 38.9999H214.935L216.94 30.3361L218.756 22.4667H218.681L209.941 38.9999H203.32L201.731 22.7316H201.656L200.218 30.3361L198.213 38.9999H190.533Z" fill="#5B616E"/>
</g>
<defs>
<clipPath id="clip0_3895_2455">
<rect width="229" height="52" fill="white"/>
</clipPath>
</defs>
</svg>
