<svg width="336" height="60" viewBox="0 0 336 60" fill="none" xmlns="http://www.w3.org/2000/svg">
<g clip-path="url(#clip0_3895_2444)">
<path d="M254.881 59.0064V1.39209H269.016V59.0064H254.881Z" fill="#5B616E"/>
<path d="M321.618 1.39209H335.45V59.0064H323.988L295.105 22.7109L295.334 59.0064H281.428V1.39209H293.196L322.079 37.4587L321.621 1.39209H321.618Z" fill="#5B616E"/>
<path d="M103.546 59.0065V14.4568H90.9395V1.39209H130.292V14.4599H117.685V59.0095H103.549L103.546 59.0065Z" fill="#5B616E"/>
<path d="M0.246094 30.4302C0.246094 12.5485 13.9234 0.322021 31.1926 0.322021C41.5844 0.322021 50.9832 4.5233 57.019 13.5415L44.5637 20.0353C41.2008 15.4504 36.8448 13.0063 31.3442 13.0063C21.6392 13.0063 14.8392 20.5705 14.8392 30.5044C14.8392 40.4384 22.2517 47.8509 30.8863 47.8509C37.9926 47.8509 43.1127 43.5723 44.0285 37.917V37.8396H31.9568V26.99H59.8467V29.434C59.8467 48.2315 48.6134 60 30.7347 60C13.8461 60 0.246094 47.8509 0.246094 30.4302Z" fill="#5B616E"/>
<path d="M69.543 59.0064V1.39209H83.6782V59.0064H69.543Z" fill="#5B616E"/>
<path d="M164.539 46.9347C155.753 46.9347 148.34 40.0573 148.34 30.2007C148.34 20.8793 155.447 13.4668 164.694 13.4668C169.248 13.4668 173.223 15.19 176.116 18.0424C177.511 13.5874 179.683 9.42022 182.569 5.69538C177.514 2.32013 171.364 0.398926 164.768 0.398926C147.805 0.398926 133.744 13.0832 133.744 30.1234C133.744 48.0051 147.879 59.9995 164.539 59.9995C171.191 59.9995 177.387 58.137 182.47 54.8268C179.618 51.105 177.468 46.913 176.091 42.4024C173.155 45.2424 169.121 46.9347 164.539 46.9347Z" fill="#5B616E"/>
<path d="M215.207 0.398926C204.562 0.398926 195.061 5.39528 189.458 13.3276C186.136 18.0363 184.183 23.7782 184.183 30.1235C184.183 36.4687 186.129 42.5757 189.427 47.2782C195.018 55.2507 204.5 59.9995 214.978 59.9995C232.019 59.9995 246.08 47.7732 246.08 30.2751C246.08 12.777 232.096 0.398926 215.207 0.398926ZM214.978 46.9348C206.192 46.9348 198.78 40.0574 198.78 30.2008C198.78 20.8794 205.886 13.4669 215.133 13.4669C224.38 13.4669 231.487 20.8021 231.487 30.2781C231.487 39.7542 224.38 46.9348 214.981 46.9348H214.978Z" fill="#5B616E"/>
</g>
<defs>
<clipPath id="clip0_3895_2444">
<rect width="336" height="60" fill="white"/>
</clipPath>
</defs>
</svg>
