<svg width="32" height="32" viewBox="0 0 32 32" fill="none" xmlns="http://www.w3.org/2000/svg">
<g id="ui/globe">
<g id="vector">
<path d="M12.1234 14.6603C12.3617 10.7523 13.6488 6.89535 15.9848 3.53777C18.3207 6.89535 19.6079 10.7523 19.8462 14.6603H12.1234Z" fill="white"/>
<path d="M9.45229 14.6603C9.67392 10.5804 10.9136 6.54454 13.1714 2.95764C7.58154 4.15827 3.29286 8.86312 2.71729 14.6603H9.45229Z" fill="white"/>
<path d="M2.71729 17.3269H9.45229C9.67392 21.4069 10.9136 25.4427 13.1714 29.0296C7.58154 27.829 3.29286 23.1241 2.71729 17.3269Z" fill="white"/>
<path d="M12.1234 17.3269H19.8462C19.6079 21.2349 18.3207 25.0919 15.9848 28.4495C13.6488 25.0919 12.3617 21.2349 12.1234 17.3269Z" fill="white"/>
<path d="M22.5173 17.3269C22.2956 21.4068 21.0559 25.4427 18.7982 29.0296C24.388 27.8289 28.6767 23.1241 29.2523 17.3269H22.5173Z" fill="white"/>
<path d="M29.2523 14.6603C28.6767 8.86313 24.388 4.15828 18.7982 2.95765C21.0559 6.54455 22.2956 10.5804 22.5173 14.6603H29.2523Z" fill="white"/>
</g>
</g>
</svg>
