<svg width="1498" height="339" viewBox="0 0 1498 339" fill="none" xmlns="http://www.w3.org/2000/svg">
<path d="M380.842 231.991H397.588V109.846H380.842V231.991ZM488.327 233.91C507.166 233.91 524.958 226.233 536.994 213.146L526.005 201.978C516.934 212.448 503.328 218.381 488.85 218.381C461.987 218.381 441.752 197.79 441.752 170.918C441.752 144.046 461.813 123.282 488.327 123.282C502.805 123.282 516.934 129.389 526.179 140.208L537.343 128.691C525.656 115.604 507.689 107.926 488.327 107.926C452.567 107.926 424.658 135.671 424.658 170.918C424.658 206.166 452.567 233.91 488.327 233.91ZM562.759 231.991H652.594V217.334H579.505V177.549H626.952V163.066H579.505V124.503H651.896V109.846H562.759V231.991ZM678.589 231.991H732.664C757.958 231.991 774.529 218.381 774.529 197.267C774.529 183.831 765.807 173.361 752.027 168.475C763.016 163.415 769.645 153.992 769.645 141.778C769.645 122.409 754.12 109.846 730.397 109.846H678.589V231.991ZM695.335 162.194V124.154H729.35C743.828 124.154 753.073 131.483 753.073 143.174C753.073 154.865 743.828 162.194 729.35 162.194H695.335ZM695.335 217.683V175.63H731.269C747.317 175.63 757.609 184.005 757.609 196.743C757.609 209.481 747.317 217.683 731.269 217.683H695.335ZM801.915 231.991H818.66V181.039H854.594L880.062 231.991H898.55L871.34 178.771C886.865 173.885 896.81 161.67 896.81 145.617C896.81 124.329 880.411 109.846 856.339 109.846H801.915V231.991ZM818.66 167.079V124.678H855.117C869.945 124.678 879.887 133.053 879.887 145.791C879.887 158.704 869.945 167.079 855.117 167.079H818.66ZM923.19 231.991H1013.03V217.334H939.94V177.549H987.39V163.066H939.94V124.503H1012.33V109.846H923.19V231.991ZM1029.02 231.991H1046.47L1061.12 195.347H1116.59L1131.24 231.991H1149.39L1099.32 109.846H1079.44L1029.02 231.991ZM1066.7 181.388L1088.85 125.725L1111.18 181.388H1066.7ZM1169.5 231.991H1186.25V173.885L1246.78 231.991H1269.8L1203.69 169.173L1268.06 109.846H1246.6L1186.25 166.905V109.846H1169.5V231.991ZM1285.5 231.991H1375.34V217.334H1302.25V177.549H1349.7V163.066H1302.25V124.503H1374.64V109.846H1285.5V231.991ZM1401.33 231.991H1418.08V181.039H1454.02L1479.48 231.991H1497.97L1470.76 178.771C1486.29 173.885 1496.23 161.67 1496.23 145.617C1496.23 124.329 1479.83 109.846 1455.76 109.846H1401.33V231.991ZM1418.08 167.079V124.678H1454.53C1469.36 124.678 1479.31 133.053 1479.31 145.791C1479.31 158.704 1469.36 167.079 1454.53 167.079H1418.08Z" fill="#5B616E"/>
<path fill-rule="evenodd" clip-rule="evenodd" d="M139.442 2.5649L83.7551 34.7929C83.1347 35.1518 82.6198 35.6677 82.2621 36.2889L142.091 70.9129C144.755 72.4552 146.807 74.8678 147.902 77.7449C148.28 77.7299 148.659 77.7269 149.037 77.7349C149.894 75.131 151.678 72.9331 154.05 71.5599L214.612 36.5109C214.001 35.4501 213.121 34.5687 212.062 33.9549L157.821 2.5649C155.028 0.948072 151.859 0.0966797 148.632 0.0966797C145.405 0.0966797 142.235 0.948072 139.442 2.5649ZM130.569 81.4169C131.599 82.0121 132.453 82.8687 133.045 83.8999L99.8811 103.094C99.4501 103.296 99.0241 103.517 98.6061 103.756L80.7041 113.95C80.1715 114.253 79.6779 114.619 79.2341 115.042L76.0711 116.873C73.2753 118.494 70.9546 120.821 69.3416 123.621C67.7286 126.421 66.8801 129.596 66.8811 132.828V198.56C65.8171 198.534 64.7766 198.241 63.8551 197.708L12.1551 167.788L9.30914 166.14C6.51308 164.52 4.19217 162.193 2.57917 159.393C0.966176 156.593 0.117808 153.417 0.119143 150.186V94.0089C0.117633 90.7772 0.965923 87.6019 2.57893 84.8015C4.19193 82.0011 6.51293 79.6741 9.30914 78.0539L57.8441 49.9649C60.6368 48.348 63.8066 47.4965 67.0336 47.4965C70.2606 47.4965 73.4305 48.348 76.2231 49.9649L130.569 81.4169ZM83.5371 129.837L102.053 119.122C104.1 118.226 106.329 117.825 108.559 117.951C110.79 118.076 112.96 118.725 114.893 119.845L133.789 130.781L116.932 140.537C114.136 142.157 111.816 144.484 110.203 147.284C108.59 150.084 107.742 153.259 107.743 156.491V176.579L88.1921 165.265C86.454 164.258 84.9734 162.861 83.8666 161.184C82.7599 159.508 82.0573 157.597 81.8141 155.603V132.828C81.8141 131.594 82.4711 130.454 83.5371 129.837ZM81.8141 206.176V178.746L107.743 193.751V223.176L83.5371 209.168C83.0128 208.864 82.5777 208.428 82.2752 207.902C81.9728 207.377 81.8138 206.782 81.8141 206.176ZM116.932 245.795C116.725 245.675 116.521 245.552 116.32 245.425L82.7561 226.001C82.0766 227.124 81.7177 228.412 81.7181 229.725V292.392C81.7165 295.623 82.5646 298.798 84.1775 301.599C85.7903 304.399 88.1111 306.726 90.9071 308.346L139.442 336.435C142.235 338.052 145.405 338.903 148.632 338.903C151.859 338.903 155.028 338.052 157.821 336.435L206.356 308.346C209.152 306.726 211.473 304.399 213.086 301.599C214.699 298.798 215.547 295.623 215.546 292.392V229.725C215.546 228.389 215.175 227.105 214.506 226.001L180.767 245.527C180.619 245.617 180.469 245.707 180.318 245.795L164.094 255.184C163.998 255.24 163.901 255.293 163.803 255.344L157.821 258.806C155.028 260.423 151.859 261.274 148.632 261.274C145.405 261.274 142.235 260.423 139.442 258.806L133.556 255.399C133.42 255.332 133.287 255.26 133.156 255.184L116.932 245.795ZM68.9181 214.606C69.2251 215.202 69.5636 215.782 69.9321 216.342C67.9568 218.824 66.8812 221.903 66.8811 225.076V293.396C65.8514 293.37 64.8446 293.086 63.9531 292.57L9.30914 260.946C6.51293 259.326 4.19193 256.999 2.57893 254.198C0.965923 251.398 0.117633 248.223 0.119143 244.991V182.668C0.119143 181.224 0.519137 179.836 1.24014 178.642L60.6771 213.04C63.167 214.482 66.073 215.034 68.9181 214.606ZM230.381 225.076C230.381 221.851 229.275 218.785 227.33 216.342C227.694 215.79 228.029 215.22 228.332 214.631C231.147 215.063 234.025 214.52 236.489 213.093L296.023 178.64C296.753 179.85 297.139 181.236 297.138 182.649V244.991C297.14 248.223 296.292 251.398 294.679 254.198C293.066 256.999 290.745 259.326 287.949 260.946L233.565 292.42C232.596 292.981 231.501 293.289 230.381 293.315V225.076ZM233.357 197.734C232.451 198.259 231.428 198.548 230.381 198.574V132.828C230.383 129.596 229.534 126.421 227.922 123.621C226.309 120.821 223.988 118.493 221.192 116.873L164.057 83.8069C164.546 82.9554 165.252 82.2483 166.102 81.7569L221.035 49.9649C223.828 48.348 226.998 47.4965 230.225 47.4965C233.452 47.4965 236.621 48.348 239.414 49.9649L287.949 78.0539C290.745 79.6742 293.066 82.0012 294.679 84.8016C296.292 87.602 297.14 90.7773 297.138 94.0089V150.186C297.14 153.417 296.292 156.592 294.679 159.393C293.066 162.193 290.745 164.52 287.949 166.14L233.357 197.734ZM213.725 209.168L189.507 223.183V193.761L215.448 178.747V206.176C215.448 206.782 215.289 207.377 214.987 207.902C214.685 208.428 214.249 208.864 213.725 209.168ZM215.448 132.828V153.884C215.168 156.429 214.294 158.873 212.896 161.018C211.498 163.163 209.615 164.95 207.399 166.233L189.507 176.588V156.491C189.509 153.259 188.66 150.084 187.048 147.284C185.435 144.484 183.114 142.157 180.318 140.537L163.461 130.781L181.87 120.127C183.953 118.921 186.291 118.227 188.694 118.1C191.097 117.974 193.496 118.419 195.693 119.4L213.725 129.837C214.249 130.141 214.685 130.577 214.987 131.102C215.289 131.627 215.448 132.222 215.448 132.828ZM148.626 122.195L174.573 107.178L150.354 93.1629C149.831 92.8593 149.236 92.6994 148.631 92.6994C148.026 92.6994 147.432 92.8593 146.908 93.1629L122.684 107.181L148.626 122.195ZM150.354 245.843L169.57 234.722C171.157 233.509 172.443 231.947 173.328 230.156C174.213 228.366 174.673 226.395 174.672 224.398V202.346L157.822 212.097C155.029 213.714 151.86 214.565 148.633 214.565C145.406 214.565 142.236 213.714 139.443 212.097L122.578 202.336V224.398C122.578 226.387 123.034 228.349 123.911 230.134C124.789 231.919 126.065 233.478 127.64 234.692L146.908 245.843C147.432 246.146 148.026 246.305 148.631 246.305C149.236 246.305 149.83 246.146 150.354 245.843ZM131.767 149.122L148.626 139.366L165.483 149.122C168.279 150.742 170.6 153.07 172.213 155.87C173.825 158.67 174.674 161.845 174.672 165.077V185.174L157.822 194.926C155.029 196.543 151.86 197.394 148.633 197.394C145.406 197.394 142.236 196.543 139.443 194.926L122.578 185.165V165.077C122.577 161.845 123.425 158.67 125.038 155.87C126.651 153.07 128.971 150.742 131.767 149.122Z" fill="#5B616E"/>
</svg>
