<svg width="32" height="32" viewBox="0 0 32 32" fill="none" xmlns="http://www.w3.org/2000/svg">
<g id="ui/identityCard">
<path id="vector" d="M1.31836 5.3269H30.6517V26.6602H1.31836V5.3269ZM25.3184 14.6602V11.9936H18.6517V14.6602H25.3184ZM18.6517 19.9936H25.3184V17.3269H18.6517V19.9936ZM13.3184 12.6602C13.3184 11.5557 12.4229 10.6602 11.3184 10.6602C10.2138 10.6602 9.31836 11.5557 9.31836 12.6602C9.31836 13.7648 10.2138 14.6602 11.3184 14.6602C12.4229 14.6602 13.3184 13.7648 13.3184 12.6602ZM11.3184 15.9936C8.97497 15.9936 7.02935 18.2995 6.65169 21.3269H15.985C15.6074 18.2995 13.6617 15.9936 11.3184 15.9936Z" fill="#44C28D"/>
</g>
</svg>
