<svg width="32" height="32" viewBox="0 0 32 32" fill="none" xmlns="http://www.w3.org/2000/svg">
<g id="nav/key">
<path id="vector" d="M30.0151 9.80833C30.0151 14.5948 26.1349 18.475 21.3485 18.475C19.4378 18.475 17.6715 17.8567 16.2388 16.8093L9.78637 23.2617L11.5102 24.9856L9.62461 26.8712L7.90075 25.1473L5.78637 27.2617L7.51023 28.9856L5.62461 30.8712L2.01514 27.2617L14.3523 14.9245C13.302 13.4907 12.6818 11.7219 12.6818 9.80833C12.6818 5.02186 16.562 1.14166 21.3485 1.14166C26.1349 1.14166 30.0151 5.02186 30.0151 9.80833ZM24.6818 8.475C24.6818 7.37043 23.7864 6.475 22.6818 6.475C21.5772 6.475 20.6818 7.37043 20.6818 8.475C20.6818 9.57957 21.5772 10.475 22.6818 10.475C23.7864 10.475 24.6818 9.57957 24.6818 8.475Z" fill="#44C28D"/>
</g>
</svg>
