<svg width="152" height="23" viewBox="0 0 152 23" fill="none" xmlns="http://www.w3.org/2000/svg">
<g clip-path="url(#clip0_3895_2423)">
<path d="M149.051 18.9271V4.76025H151.135V18.9271H149.051Z" fill="#5B616E"/>
<path d="M142.286 19.2105C141.288 19.2105 140.397 19.0081 139.615 18.6034C138.846 18.1851 138.238 17.5914 137.793 16.8224C137.348 16.0533 137.125 15.1426 137.125 14.0902V13.7866C137.125 12.7342 137.348 11.8302 137.793 11.0747C138.238 10.3056 138.846 9.71191 139.615 9.29365C140.397 8.87539 141.288 8.66626 142.286 8.66626C143.285 8.66626 144.175 8.87539 144.958 9.29365C145.74 9.71191 146.354 10.3056 146.799 11.0747C147.245 11.8302 147.467 12.7342 147.467 13.7866V14.0902C147.467 15.1426 147.245 16.0533 146.799 16.8224C146.354 17.5914 145.74 18.1851 144.958 18.6034C144.175 19.0081 143.285 19.2105 142.286 19.2105ZM142.286 17.3486C143.204 17.3486 143.946 17.0585 144.512 16.4783C145.093 15.8847 145.383 15.0684 145.383 14.0295V13.8473C145.383 12.8084 145.099 11.9989 144.533 11.4187C143.966 10.8251 143.217 10.5282 142.286 10.5282C141.382 10.5282 140.64 10.8251 140.06 11.4187C139.493 11.9989 139.21 12.8084 139.21 13.8473V14.0295C139.21 15.0684 139.493 15.8847 140.06 16.4783C140.64 17.0585 141.382 17.3486 142.286 17.3486Z" fill="#5B616E"/>
<path d="M131.281 19.2105C130.323 19.2105 129.453 19.0081 128.67 18.6034C127.901 18.1986 127.287 17.6117 126.828 16.8426C126.383 16.0736 126.161 15.1493 126.161 14.0699V13.8068C126.161 12.7275 126.383 11.81 126.828 11.0544C127.287 10.2854 127.901 9.69841 128.67 9.29365C129.453 8.87539 130.323 8.66626 131.281 8.66626C132.239 8.66626 133.055 8.84165 133.73 9.19245C134.404 9.54325 134.944 10.0088 135.349 10.5889C135.767 11.1691 136.037 11.81 136.158 12.5116L134.135 12.9366C134.067 12.4914 133.925 12.0866 133.71 11.7223C133.494 11.358 133.19 11.0679 132.799 10.852C132.408 10.6362 131.915 10.5282 131.321 10.5282C130.741 10.5282 130.215 10.6632 129.743 10.933C129.284 11.1894 128.92 11.5671 128.65 12.0663C128.38 12.5521 128.245 13.1457 128.245 13.8473V14.0295C128.245 14.7311 128.38 15.3315 128.65 15.8307C128.92 16.3299 129.284 16.7077 129.743 16.964C130.215 17.2204 130.741 17.3486 131.321 17.3486C132.198 17.3486 132.866 17.1259 133.325 16.6807C133.784 16.222 134.074 15.6418 134.195 14.9402L136.219 15.4057C136.057 16.0938 135.767 16.7279 135.349 17.3081C134.944 17.8883 134.404 18.3537 133.73 18.7045C133.055 19.0418 132.239 19.2105 131.281 19.2105Z" fill="#5B616E"/>
<path d="M119.882 19.2105C118.883 19.2105 117.993 19.0081 117.21 18.6034C116.441 18.1851 115.834 17.5914 115.389 16.8224C114.943 16.0533 114.721 15.1426 114.721 14.0902V13.7866C114.721 12.7342 114.943 11.8302 115.389 11.0747C115.834 10.3056 116.441 9.71191 117.21 9.29365C117.993 8.87539 118.883 8.66626 119.882 8.66626C120.88 8.66626 121.771 8.87539 122.553 9.29365C123.336 9.71191 123.95 10.3056 124.395 11.0747C124.84 11.8302 125.063 12.7342 125.063 13.7866V14.0902C125.063 15.1426 124.84 16.0533 124.395 16.8224C123.95 17.5914 123.336 18.1851 122.553 18.6034C121.771 19.0081 120.88 19.2105 119.882 19.2105ZM119.882 17.3486C120.799 17.3486 121.541 17.0585 122.108 16.4783C122.688 15.8847 122.978 15.0684 122.978 14.0295V13.8473C122.978 12.8084 122.695 11.9989 122.128 11.4187C121.561 10.8251 120.813 10.5282 119.882 10.5282C118.978 10.5282 118.236 10.8251 117.655 11.4187C117.089 11.9989 116.805 12.8084 116.805 13.8473V14.0295C116.805 15.0684 117.089 15.8847 117.655 16.4783C118.236 17.0585 118.978 17.3486 119.882 17.3486Z" fill="#5B616E"/>
<path d="M111.049 18.9273C110.442 18.9273 109.956 18.7451 109.592 18.3808C109.241 18.0165 109.066 17.5308 109.066 16.9237V10.7105H106.313V8.94974H109.066V5.65088H111.15V8.94974H114.125V10.7105H111.15V16.5594C111.15 16.9641 111.339 17.1665 111.717 17.1665H113.801V18.9273H111.049Z" fill="#5B616E"/>
<path d="M100.916 19.2105C99.9172 19.2105 99.0268 19.0081 98.2442 18.6034C97.4751 18.1851 96.868 17.5914 96.4228 16.8224C95.9775 16.0533 95.7549 15.1426 95.7549 14.0902V13.7866C95.7549 12.7342 95.9775 11.8302 96.4228 11.0747C96.868 10.3056 97.4751 9.71191 98.2442 9.29365C99.0268 8.87539 99.9172 8.66626 100.916 8.66626C101.914 8.66626 102.805 8.87539 103.587 9.29365C104.37 9.71191 104.984 10.3056 105.429 11.0747C105.874 11.8302 106.097 12.7342 106.097 13.7866V14.0902C106.097 15.1426 105.874 16.0533 105.429 16.8224C104.984 17.5914 104.37 18.1851 103.587 18.6034C102.805 19.0081 101.914 19.2105 100.916 19.2105ZM100.916 17.3486C101.833 17.3486 102.575 17.0585 103.142 16.4783C103.722 15.8847 104.012 15.0684 104.012 14.0295V13.8473C104.012 12.8084 103.729 11.9989 103.162 11.4187C102.596 10.8251 101.847 10.5282 100.916 10.5282C100.012 10.5282 99.2696 10.8251 98.6895 11.4187C98.1228 11.9989 97.8394 12.8084 97.8394 13.8473V14.0295C97.8394 15.0684 98.1228 15.8847 98.6895 16.4783C99.2696 17.0585 100.012 17.3486 100.916 17.3486Z" fill="#5B616E"/>
<path d="M89.7817 18.9272V8.94966H91.8258V10.1235H92.1496C92.3115 9.70523 92.5679 9.40165 92.9187 9.21276C93.2829 9.01038 93.7282 8.90918 94.2544 8.90918H95.4485V10.7914H94.1734C93.4988 10.7914 92.9456 10.9803 92.5139 11.3581C92.0821 11.7224 91.8663 12.289 91.8663 13.0581V18.9272H89.7817Z" fill="#5B616E"/>
<path d="M77.8291 22.9748V8.94959H79.8731V10.3866H80.197C80.4533 9.94128 80.8378 9.54325 81.3505 9.19245C81.8767 8.84165 82.6256 8.66626 83.597 8.66626C84.4335 8.66626 85.1958 8.86864 85.884 9.27341C86.5855 9.67818 87.1455 10.2651 87.5637 11.0342C87.9955 11.7898 88.2114 12.7072 88.2114 13.7866V14.0902C88.2114 15.1696 88.0022 16.0938 87.584 16.8628C87.1657 17.6184 86.6058 18.1986 85.9042 18.6034C85.2026 19.0081 84.4335 19.2105 83.597 19.2105C82.9494 19.2105 82.4029 19.1295 81.9577 18.9676C81.5125 18.8057 81.1549 18.6034 80.8851 18.3605C80.6152 18.1041 80.3993 17.841 80.2374 17.5712H79.9136V22.9748H77.8291ZM82.9899 17.389C83.9073 17.389 84.6562 17.099 85.2363 16.5188C85.8165 15.9386 86.1066 15.1089 86.1066 14.0295V13.8473C86.1066 12.7814 85.8097 11.9584 85.2161 11.3782C84.6359 10.7981 83.8938 10.508 82.9899 10.508C82.0994 10.508 81.3573 10.7981 80.7636 11.3782C80.1835 11.9584 79.8934 12.7814 79.8934 13.8473V14.0295C79.8934 15.1089 80.1835 15.9386 80.7636 16.5188C81.3573 17.099 82.0994 17.389 82.9899 17.389Z" fill="#5B616E"/>
<path d="M68.9663 18.9273C68.3592 18.9273 67.8734 18.7451 67.5091 18.3808C67.1583 18.0165 66.9829 17.5308 66.9829 16.9237V10.7105H64.2305V8.94974H66.9829V5.65088H69.0675V8.94974H72.0425V10.7105H69.0675V16.5594C69.0675 16.9641 69.2564 17.1665 69.6342 17.1665H71.7187V18.9273H68.9663Z" fill="#5B616E"/>
<path d="M53.8574 18.9273V8.94974H55.9015V10.4474H56.2253C56.4142 10.0426 56.7515 9.66483 57.2372 9.31404C57.723 8.96324 58.4448 8.78784 59.4027 8.78784C60.1583 8.78784 60.8262 8.95649 61.4063 9.2938C62 9.6311 62.4655 10.1101 62.8028 10.7307C63.1401 11.3379 63.3087 12.0732 63.3087 12.9367V18.9273H61.2242V13.0986C61.2242 12.2351 61.0083 11.601 60.5766 11.1962C60.1448 10.778 59.5512 10.5688 58.7956 10.5688C57.9321 10.5688 57.2372 10.8522 56.711 11.4188C56.1983 11.9855 55.942 12.8085 55.942 13.8879V18.9273H53.8574Z" fill="#5B616E"/>
<path d="M47.4219 19.2105C46.41 19.2105 45.5262 19.0014 44.7707 18.5831C44.0151 18.1514 43.4215 17.551 42.9897 16.7819C42.5714 15.9993 42.3623 15.0954 42.3623 14.0699V13.8271C42.3623 12.7882 42.5714 11.8842 42.9897 11.1151C43.408 10.3326 43.9881 9.73214 44.7302 9.31388C45.4858 8.88213 46.356 8.66626 47.341 8.66626C48.2989 8.66626 49.1354 8.88213 49.8505 9.31388C50.5791 9.73214 51.1458 10.3191 51.5505 11.0747C51.9553 11.8302 52.1577 12.714 52.1577 13.7259V14.5152H44.4873C44.5143 15.3922 44.8044 16.0938 45.3576 16.62C45.9243 17.1327 46.6259 17.389 47.4624 17.389C48.2449 17.389 48.8319 17.2136 49.2231 16.8628C49.6279 16.512 49.9382 16.1073 50.1541 15.6485L51.8744 16.539C51.6855 16.9168 51.4089 17.3148 51.0446 17.7331C50.6938 18.1514 50.2283 18.5022 49.6481 18.7855C49.068 19.0688 48.3259 19.2105 47.4219 19.2105ZM44.5076 12.9164H50.0327C49.9787 12.1608 49.7088 11.5739 49.2231 11.1556C48.7374 10.7239 48.1033 10.508 47.3207 10.508C46.5382 10.508 45.8973 10.7239 45.3981 11.1556C44.9123 11.5739 44.6155 12.1608 44.5076 12.9164Z" fill="#5B616E"/>
<path d="M38.4795 18.9271V4.76025H40.564V18.9271H38.4795Z" fill="#5B616E"/>
<path d="M30.705 19.2105C29.9899 19.2105 29.349 19.0891 28.7824 18.8462C28.2292 18.6034 27.7839 18.2458 27.4466 17.7736C27.1228 17.3013 26.9609 16.7279 26.9609 16.0533C26.9609 15.3652 27.1228 14.7985 27.4466 14.3533C27.7839 13.8945 28.2359 13.5505 28.8026 13.3211C29.3828 13.0918 30.0371 12.9771 30.7657 12.9771H33.8015V12.3294C33.8015 11.7493 33.6261 11.2838 33.2753 10.933C32.9245 10.5822 32.3848 10.4068 31.6562 10.4068C30.9411 10.4068 30.3947 10.5755 30.0169 10.9128C29.6391 11.2501 29.3895 11.6886 29.2681 12.2283L27.3252 11.6009C27.4871 11.0612 27.7435 10.5755 28.0942 10.1437C28.4585 9.69841 28.9375 9.34087 29.5312 9.07102C30.1248 8.80118 30.8399 8.66626 31.6764 8.66626C32.9717 8.66626 33.9904 8.99682 34.7324 9.65794C35.4745 10.3191 35.8456 11.2568 35.8456 12.4711V16.5795C35.8456 16.9843 36.0344 17.1867 36.4122 17.1867H37.2622V18.9272H35.7039C35.2317 18.9272 34.8471 18.8057 34.5503 18.5629C34.2535 18.32 34.1051 17.9895 34.1051 17.5712V17.5105H33.8015C33.6935 17.7129 33.5316 17.949 33.3158 18.2188C33.0999 18.4887 32.7828 18.7248 32.3646 18.9272C31.9463 19.1161 31.3931 19.2105 30.705 19.2105ZM31.0086 17.4902C31.8451 17.4902 32.5197 17.2541 33.0324 16.7819C33.5451 16.2962 33.8015 15.6351 33.8015 14.7985V14.5961H30.8871C30.334 14.5961 29.8887 14.7176 29.5514 14.9604C29.2141 15.1898 29.0455 15.5339 29.0455 15.9926C29.0455 16.4513 29.2209 16.8156 29.5717 17.0855C29.9225 17.3553 30.4014 17.4902 31.0086 17.4902Z" fill="#5B616E"/>
<path d="M22.9125 18.9273C22.3054 18.9273 21.8197 18.7451 21.4554 18.3808C21.1046 18.0165 20.9292 17.5308 20.9292 16.9237V10.7105H18.1768V8.94974H20.9292V5.65088H23.0137V8.94974H25.9888V10.7105H23.0137V16.5594C23.0137 16.9641 23.2026 17.1665 23.5804 17.1665H25.665V18.9273H22.9125Z" fill="#5B616E"/>
<path d="M0.683 8.35654C1.04835 8.72081 1.53548 8.90295 2.14439 8.90295H8.37204L7.67065 6.89944H2.71271C2.33383 6.89944 2.14439 6.69706 2.14439 6.29231V1.36333L0.155274 0.686523L0.155273 6.89944C0.155273 7.50656 0.331184 7.99226 0.683 8.35654Z" fill="#5B616E"/>
<path d="M0.683 18.3735C1.04835 18.7377 1.53548 18.9199 2.14439 18.9199H8.37204L7.67065 16.9163H2.71271C2.33383 16.9163 2.14439 16.714 2.14439 16.3092V11.3802L0.155274 10.7034L0.155273 16.9163C0.155273 17.5235 0.331184 18.0092 0.683 18.3735Z" fill="#5B616E"/>
</g>
<defs>
<clipPath id="clip0_3895_2423">
<rect width="152" height="23" fill="white"/>
</clipPath>
</defs>
</svg>
