<svg width="24" height="24" viewBox="0 0 24 24" fill="none" xmlns="http://www.w3.org/2000/svg">
<g id="Verification 1">
<path id="Vector" d="M1.8459 16.207C2.43756 17.6349 3.67003 18.6103 5.13036 18.8706C5.63421 21.9721 9.45268 23.5537 12.0014 21.7161C14.5981 23.556 18.3489 21.9712 18.8725 18.8706C21.9741 18.3667 23.5556 14.5482 21.7181 11.9995C23.5558 9.45097 21.9731 5.6313 18.8725 5.12842C18.3686 2.02795 14.5502 0.447502 12.0014 2.28285C9.45178 0.445139 5.63323 2.02777 5.13036 5.12842C2.02877 5.63332 0.448313 9.45187 2.28389 12.0006C1.43715 13.2184 1.25424 14.779 1.8459 16.207Z" fill="#474950"/>
<path id="Vector_2" fill-rule="evenodd" clip-rule="evenodd" d="M11.1974 12.4965L14.6402 9.05371C14.7111 8.98283 14.8255 8.98283 14.8963 9.05371L15.9295 10.0869C16.0004 10.1578 16.0004 10.2724 15.9295 10.3433L11.3257 14.9474C11.2548 15.0183 11.1401 15.0183 11.0692 14.9474L8.30364 12.1818C8.23277 12.1109 8.23277 11.9963 8.30364 11.9254L9.33681 10.8922C9.40772 10.8213 9.52206 10.8213 9.59293 10.8922L11.1974 12.4965Z" fill="#28C840"/>
</g>
</svg>
