<?xml version="1.0" encoding="utf-8"?>
<!-- Generator: Adobe Illustrator 28.1.0, SVG Export Plug-In . SVG Version: 6.00 Build 0)  -->
<svg version="1.1" xmlns="http://www.w3.org/2000/svg" xmlns:xlink="http://www.w3.org/1999/xlink" x="0px" y="0px"
	 viewBox="0 0 1024 1024" style="enable-background:new 0 0 1024 1024;" xml:space="preserve">
<style type="text/css">
	.st0{fill:#FFFFFF;stroke:#000000;stroke-width:32;stroke-linecap:round;stroke-linejoin:round;stroke-miterlimit:10;}
	.st1{fill:#EA1E29;stroke:#000000;stroke-width:32;stroke-linecap:round;stroke-linejoin:round;stroke-miterlimit:10;}
</style>
<g id="Layer_2">
	<path class="st0" d="M900.9,502.2c-4.3-71.1-24.2-141-55-205.2c-16.1-33.6-35.6-66.2-62.7-91.8c-24.6-23.2-54.7-39.9-86.1-52.4
		c-113.4-45.3-243.1-37.3-358.5,2.4c-39.9,13.7-78.9,31.3-113,56.2c-42.3,30.8-76.3,72.4-100.6,118.8
		C62,450.5,67.7,601.4,130.1,721.9c13.3,25.7,29.1,50.3,49.2,71c54,55.7,133.5,78.8,210.6,86.9c126.2,13.3,259.3-9.4,363.5-81.7
		c50.1-34.8,93.3-81.4,116.8-137.7c28.8-68.8,26.6-146.3,18.9-220.5"/>
</g>
<g id="Layer_3">
	<path class="st1" d="M687.1,689.6l310.2-43.4l-49.8-362.1l-324,46.6c0,0,7.7,55.8,18.7,125.6l-64.7,5.1
		c-11.6-71.6-21.8-116.9-21.8-116.9l-336.7,34.9L236,488.3l-203.2,16l55.1,173.6l61.4-22.2l-31.8-92.1l128.3-11.5l27.3,176.6
		l331.4-46.6c-4.6-58.1-11.1-112.8-17.8-160.5l65.3-5.8C663.1,581.6,675.8,649.2,687.1,689.6z"/>
	<polygon class="st0" points="287.9,429.1 503.9,402.6 538.9,634.5 321.8,666.3 	"/>
	<polygon class="st0" points="686.1,383.6 719.9,626.1 930.6,601.1 895.7,348.6 	"/>
	<polygon points="391.7,417.5 439.4,647.2 538.9,634.5 503.9,402.6 	"/>
	<polygon points="779.2,366.6 822.6,618.6 930.6,608.1 895.7,348.6 	"/>
</g>
</svg>
