<svg width="24" height="24" viewBox="0 0 24 24" fill="none" xmlns="http://www.w3.org/2000/svg">
<path d="M15 10.9371C15 12.594 13.6569 13.9371 12 13.9371C10.3431 13.9371 9 12.594 9 10.9371C9 9.28028 10.3431 7.93713 12 7.93713C13.6569 7.93713 15 9.28028 15 10.9371Z" fill="#7FD057"/>
<path d="M21 0C22.6569 0 24 1.34315 24 3C24 4.65685 22.6569 6 21 6H20V24H4V6H3C1.34315 6 0 4.65685 0 3C0 1.34315 1.34315 0 3 0H21ZM14.0309 21.5C14.2566 19.6906 15.6906 18.2566 17.5 18.0309V2.58997H6.5V18.0309C8.30936 18.2566 9.74343 19.6906 9.96905 21.5H14.0309Z" fill="#7FD057"/>
</svg>
