<?xml version="1.0" standalone="no"?>
<!DOCTYPE svg PUBLIC "-//W3C//DTD SVG 20010904//EN"
 "http://www.w3.org/TR/2001/REC-SVG-20010904/DTD/svg10.dtd">
<svg version="1.0" xmlns="http://www.w3.org/2000/svg"
 width="700.000000pt" height="700.000000pt" viewBox="0 0 700.000000 700.000000"
 preserveAspectRatio="xMidYMid meet">
<metadata>
Created by potrace 1.14, written by Peter Selinger 2001-2017
</metadata>
<g transform="translate(0.000000,700.000000) scale(0.100000,-0.100000)"
fill="#000000" stroke="none">
<path d="M3227 6990 c-760 -68 -1432 -348 -2007 -835 -118 -101 -350 -340
-447 -462 -417 -523 -663 -1111 -749 -1788 -22 -173 -25 -603 -6 -770 99 -839
446 -1555 1034 -2131 355 -349 742 -598 1204 -774 758 -290 1612 -304 2380
-39 668 230 1242 650 1671 1221 360 479 591 1058 670 1683 21 173 24 604 5
770 -82 694 -334 1301 -760 1835 -103 128 -332 361 -467 475 -530 447 -1170
721 -1880 805 -122 15 -527 21 -648 10z m541 -1041 c522 -56 1038 -298 1423
-667 1020 -977 1020 -2587 0 -3564 -390 -374 -904 -613 -1440 -669 -168 -17
-514 -7 -670 21 -900 159 -1630 780 -1921 1635 -61 179 -120 453 -120 556 l0
39 1825 0 1825 0 0 205 0 205 -1825 0 -1825 0 0 34 c0 46 35 252 61 356 235
943 1023 1671 1981 1829 68 11 141 22 163 24 93 8 433 6 523 -4z"/>
</g>
</svg>
