<?xml version="1.0" encoding="utf-8"?>
<!-- Generator: Adobe Illustrator 24.0.2, SVG Export Plug-In . SVG Version: 6.00 Build 0)  -->
<svg version="1.1" id="Layer_1" xmlns="http://www.w3.org/2000/svg" xmlns:xlink="http://www.w3.org/1999/xlink" x="0px" y="0px"
	 viewBox="0 0 363.3561401 158.3661499" style="enable-background:new 0 0 363.3561401 158.3661499;" xml:space="preserve">
<style type="text/css">
	.st0{fill:#0D1118;}
	.st1{fill:#EEEEEE;}
	.st2{fill:#FFFFFF;}
	.st3{fill:#132747;}
	.st4{fill:#566276;}
	.st5{fill:#D98A66;}
	.st6{fill:#FF7033;}
	.st7{fill:#090909;}
	.st8{opacity:0.25;clip-path:url(#SVGID_2_);}
	.st9{opacity:0.1;clip-path:url(#SVGID_4_);}
	.st10{fill:#151C28;}
	.st11{fill:none;stroke:#090909;stroke-width:2;stroke-miterlimit:10;}
	.st12{fill:#FF7033;stroke:#090909;stroke-width:2;stroke-miterlimit:10;}
	.st13{clip-path:url(#SVGID_6_);}
	.st14{opacity:0.02;fill:none;stroke:#EEEEEE;stroke-width:12.1940536;stroke-miterlimit:10;}
	.st15{fill:#FFFFFF;stroke:#231F20;stroke-miterlimit:10;}
</style>
<g>
	<path class="st1" d="M41.2567368,21.6553974h15.7785835l41.419735,115.0553589H82.1836319l-10.1904907-29.2569199H26.4638348
		l-10.1904926,29.2569199H0L41.2567368,21.6553974z M67.8835754,94.140419l-18.572628-53.7474747h-0.3298378L30.7364025,94.140419
		H67.8835754z"/>
	<path class="st6" d="M117.1753464,138.7650604V19.6010952L134.269455,2.5069907h19.8881378v13.4783382h-12.8196106
		l-8.8768921,8.7110138v108.9734726l8.8768921,8.7119751h12.8196106v13.4773712H134.269455L117.1753464,138.7650604z"/>
	<path class="st1" d="M170.8307648,120.7672577v-14.7929001h15.778595v9.6976547l7.2315216,7.2324829h32.8726959
		l7.2334442-7.2324829V85.1005249l-7.2334442-7.0675659h-54.2393646V21.6553974h74.9501801v13.6422977H187.924881v28.9280434
		h45.6923065l16.1084137,16.10746v40.4340591l-15.9434967,15.9434967h-47.0078278L170.8307648,120.7672577z"/>
	<path class="st1" d="M291.9584351,38.0917397l-25.4762268,13.1494598V36.7771797l27.6125183-15.1217823h13.6422729v115.0553589
		h-15.7785645V38.0917397z"/>
	<path class="st6" d="M326.3738708,155.8591614v-13.4773712h12.8196411l8.8768921-8.7119751V24.6963425l-8.8768921-8.7110138
		h-12.8196411V2.5069907h19.8881531l17.0941162,17.0941048v119.1639633l-17.0941162,17.094101H326.3738708z"/>
</g>
</svg>
