<svg width="213" height="145" viewBox="0 0 213 145" fill="none" xmlns="http://www.w3.org/2000/svg">
<path d="M134.5 100.2C132.4 95.7996 130.5 91.3996 128.2 87.0996C125.9 82.8996 122.3 79.5996 120.3 75.2996C118.3 71.0996 117.3 66.4996 114.8 62.4996C112.2 58.2996 108.5 54.9996 105.6 50.9996C102.7 46.9996 100.8 42.4996 98.9 37.9996C97 33.5996 94.7 29.9996 91.6 26.4996C84.5 18.5996 79 9.69961 74.5 0.0996094C54.2 0.699609 36.6 7.79961 22.3 21.1996C7.5 35.0996 0 52.3996 0 72.4996C0 92.5996 7.5 110 22.3 124L22.4 124.1C37.3 138 55.9 145 77.4 145C98.9 145 117.5 138 132.5 124.1C136.3 120.5 139.7 116.7 142.6 112.7C139.4 108.8 136.6 104.7 134.5 100.2ZM96.3 90.6996C91.2 95.3996 85.1 97.6996 77.4 97.6996C69.8 97.6996 63.6 95.3996 58.6 90.6996C53.7 85.9996 51.3 79.9996 51.3 72.4996C51.3 64.9996 53.7 58.9996 58.6 54.2996C63.7 49.5996 69.8 47.2996 77.4 47.2996C85 47.2996 91.2 49.5996 96.3 54.2996C101.4 58.9996 103.8 64.9996 103.8 72.4996C103.8 79.9996 101.4 85.9996 96.3 90.6996Z" fill="url(#paint0_linear_364_3427)"/>
<path d="M212 118.5C212 112.5 211.9 109.4 212 103.4C212 100.9 211.1 99.3995 209.8 98.1995C208.5 96.9995 204.5 96.2995 203.8 96.1995C188.5 93.0995 180.6 85.5995 171.7 72.7995C161.3 57.8995 152.8 41.5995 141 27.7995C130.9 15.9995 118.2 6.79953 103 2.99953C94.2 0.799531 85.3 -0.00046895 76.2 -0.00046895C45.6 -0.500469 26.3 17.3995 22.3 21.1995C22.3 25.6995 23.6 29.2995 25.5 32.3995C27.4 35.4995 29.7 38.2995 31.9 41.1995C33.9 43.7995 35.7 46.5995 36.7 49.9995C37.3 51.8995 37.7 53.9995 37.7 56.3995C37.7 57.6995 69.9 46.5995 75.7 47.2995C88.5 47.2995 95.5 51.6995 102.9 59.4995C114 70.9995 121.1 85.3995 130.1 98.4995C143.2 117.7 160.4 137 184 142.5C192.6 144.5 195 145 203.8 145C207.7 145 212.1 142.2 212.1 138C212 129.8 212 126.6 212 118.5Z" fill="url(#paint1_linear_364_3427)"/>
<defs>
<linearGradient id="paint0_linear_364_3427" x1="1.4261" y1="57.8408" x2="142.929" y2="87.7061" gradientUnits="userSpaceOnUse">
<stop offset="0.4" stop-color="#3D67FF"/>
<stop offset="1" stop-color="#2241A9"/>
</linearGradient>
<linearGradient id="paint1_linear_364_3427" x1="56.28" y1="16.4466" x2="207.528" y2="127.256" gradientUnits="userSpaceOnUse">
<stop offset="0.2649" stop-color="#3D67FF"/>
<stop offset="1" stop-color="#86C0FB"/>
</linearGradient>
</defs>
</svg>
