<svg width="100" height="100" viewBox="0 0 100 100" fill="none" xmlns="http://www.w3.org/2000/svg">
<g clip-path="url(#clip0_2612_12)">
<rect width="100" height="100" rx="50" fill="white"/>
<rect width="100" height="100" fill="#3368EF"/>
<path d="M16.938 30H48.4568C49.0271 30 49.4888 30.4421 49.4888 30.9882V45.1289C49.4888 46.0118 48.9516 46.8132 48.1145 47.1803L44.1446 48.9251C43.9507 49.0105 43.8257 49.196 43.8257 49.4013C43.8257 49.604 43.9466 49.7868 44.1377 49.8737L48.1435 51.6974C48.9652 52.0711 49.4888 52.8644 49.4888 53.7368V69.0105C49.4888 69.5566 49.0271 69.9987 48.4568 69.9987H16.938C15.3151 69.9987 14 68.7395 14 67.1855V32.8132C14 31.2592 15.3151 30 16.938 30ZM34.0332 56.6657C34.837 56.6657 35.41 56.5618 35.7508 56.3553C36.1219 56.1473 36.3074 55.7631 36.3074 55.2V55.1106C36.3074 54.5184 36.1068 54.1026 35.7041 53.8657C35.333 53.629 34.6983 53.5106 33.8009 53.5106H27.9248V56.6657H34.0332ZM33.7555 45.8658C35.1793 45.8658 35.8911 45.3763 35.8911 44.3987V44.1763C35.8911 43.6132 35.7056 43.2276 35.3345 43.021C34.9937 42.7842 34.422 42.6658 33.6167 42.6658H27.9262V45.8658H33.757H33.7555ZM52.1602 53.3776H65.1492C65.1492 54.3855 65.3347 55.0816 65.7058 55.4671C66.1084 55.8527 66.68 56.0447 67.4235 56.0447C68.6919 56.0447 69.3268 55.3486 69.3268 53.9553C69.3268 53.2737 69.1097 52.7855 68.6768 52.4881C68.2742 52.192 67.6557 52.0434 66.8203 52.0434H59.6716V46.8882L70.6721 44.2658H52.1602C51.6436 44.2658 51.2244 43.8645 51.2244 43.3697V30.7487C51.2244 30.3355 51.5748 30 52.0064 30H82.4587C84.0817 30 85.3967 31.2592 85.3967 32.8132V42.9C85.3967 44.0395 84.579 45.0303 83.422 45.2947L71.3689 48.0447L71.9255 48.1343H83.4289C84.8484 48.1343 86 49.2369 86 50.596V67.1868C86 68.7408 84.6848 70 83.062 70H52.0064C51.5748 70 51.2244 69.6644 51.2244 69.2514V54.2737C51.2244 53.779 51.6436 53.3776 52.1602 53.3776Z" fill="white"/>
</g>
<defs>
<clipPath id="clip0_2612_12">
<rect width="100" height="100" rx="50" fill="white"/>
</clipPath>
</defs>
</svg>
