<svg id="Layer_1" data-name="Layer 1" xmlns="http://www.w3.org/2000/svg" xmlns:xlink="http://www.w3.org/1999/xlink" viewBox="0 0 700 700"><defs><style>.cls-1{fill:none;}.cls-2{fill:url(#linear-gradient);filter:url(#filter);}.cls-3{clip-path:url(#clip-path);}.cls-4{fill:#5cff00;}.cls-5{fill:#00943a;}.cls-6{fill:lime;}.cls-7{fill:url(#linear-gradient-2);}.cls-8{fill:#ffec00;}.cls-9{fill:#c8ff00;}</style><linearGradient id="linear-gradient" x1="387.04" y1="206.56" x2="296.99" y2="538.55" gradientUnits="userSpaceOnUse"><stop offset="0.26" stop-color="#00f068"/><stop offset="0.33" stop-color="#2ae956"/><stop offset="0.5" stop-color="#81db32"/><stop offset="0.64" stop-color="#c1d017"/><stop offset="0.74" stop-color="#e8c906"/><stop offset="0.79" stop-color="#f7c700"/></linearGradient><filter id="filter" x="86.05" y="80.49" width="527" height="539" filterUnits="userSpaceOnUse"><feOffset input="SourceAlpha"/><feGaussianBlur stdDeviation="30" result="blur"/><feFlood flood-color="lime"/><feComposite operator="in" in2="blur"/><feComposite in="SourceGraphic"/></filter><clipPath id="clip-path"><path class="cls-1" d="M246.84,326.31H177V467.83h157.2a16,16,0,0,1,15.95,12.73,32.36,32.36,0,0,1,.71,6.72V529h96V442.46H371.67l-.31,0a13.7,13.7,0,0,1-11-10.63l-.58-2.72V389.55A51.19,51.19,0,0,1,360.9,379c.07-.34.15-.69.24-1a24.34,24.34,0,0,1,23.74-18H523V171.05H271.92V296.69a50.44,50.44,0,0,1-1.11,10.54c-.07.34-.15.69-.24,1A24.34,24.34,0,0,1,246.84,326.31Z"/></clipPath><linearGradient id="linear-gradient-2" x1="212.9" y1="127.9" x2="532.66" y2="285.03" gradientUnits="userSpaceOnUse"><stop offset="0.38" stop-color="#00f068"/><stop offset="0.47" stop-color="#00d936"/><stop offset="0.55" stop-color="#00c70f"/><stop offset="0.6" stop-color="#00c000"/></linearGradient></defs><rect width="700" height="700"/><path class="cls-2" d="M246.84,326.31H177V467.83h157.2a16,16,0,0,1,15.95,12.73,32.36,32.36,0,0,1,.71,6.72V529h96V442.46H371.67l-.31,0a13.7,13.7,0,0,1-11-10.63l-.58-2.72V389.55A51.19,51.19,0,0,1,360.9,379c.07-.34.15-.69.24-1a24.34,24.34,0,0,1,23.74-18H523V171.05H271.92V296.69a50.44,50.44,0,0,1-1.11,10.54c-.07.34-.15.69-.24,1A24.34,24.34,0,0,1,246.84,326.31Z"/><g class="cls-3"><rect class="cls-4" x="191.96" y="428.94" width="40.13" height="38.89"/><rect class="cls-5" x="270.84" y="382" width="41.8" height="41.8"/><rect class="cls-6" x="312.65" y="308.2" width="41.8" height="41.8"/><rect class="cls-5" x="439.97" y="286.17" width="41.8" height="41.8"/><path class="cls-7" d="M271.92,171.05v55.82h40.92v59.39H440V206.37h42.38v62.3H523V171.05Zm125.67,97.62H355.21v-41.8h42.38Z"/><rect class="cls-8" x="232.55" y="344.73" width="38.27" height="37.27"/><rect class="cls-9" x="382.34" y="491.92" width="37.03" height="37.03" transform="translate(801.71 1020.87) rotate(180)"/></g></svg>