<svg width="194" height="192" viewBox="0 0 194 192" fill="none" xmlns="http://www.w3.org/2000/svg">
<path d="M33.2107 109.455C41.1614 101.76 41.8028 89.4968 34.6433 82.0656C27.4837 74.6344 15.2345 74.8489 7.28378 82.5447C-0.666918 90.2405 -1.30828 102.503 5.85125 109.934C13.0108 117.366 25.26 117.151 33.2107 109.455Z" fill="#4068DF"/>
<path d="M8.70484 90.6736C5.54035 90.8028 3.94196 93.6332 3.53833 95.0323C4.70079 87.5418 9.88883 83.0864 12.3375 81.7949C13.6292 85.0881 11.2612 87.4181 9.91574 88.1715C12.6282 88.6235 13.3063 91.3194 13.3063 92.6108C11.8855 90.9965 9.64665 90.6467 8.70484 90.6736Z" fill="#F2F2F2"/>
<path d="M17.8324 112.7C5.9505 111.732 3.30289 101.481 3.46433 96.4776C3.70653 99.3831 5.18385 100.189 5.72445 100.513C6.53165 100.997 10.9713 103.176 17.2674 96.3161C24.0831 88.8899 27.4381 86.9867 32.0391 88.325C35.5908 89.3581 36.7208 92.6842 36.963 94.2177C37.2859 96.5314 36.7047 102.402 31.7969 107.373C26.8892 112.345 20.4424 112.996 17.8324 112.7Z" fill="#F2F2F2"/>
<path d="M28.6425 81.794C22.8305 78.6094 16.9377 79.6959 12.9016 81.4712C14.839 80.342 22.5076 77.0331 29.6112 81.3915C35.2941 84.8782 36.7955 90.5926 36.957 93.0129C36.2305 89.7855 34.1317 84.8017 28.6425 81.794Z" fill="#F2F2F2"/>
<path d="M52.6542 79.2021H68.0189C70.6758 79.2021 72.8957 79.5675 74.6612 80.2982C76.4267 81.0289 77.7027 82.0554 78.4543 83.3951C79.2059 84.7173 79.4681 86.3005 79.2059 88.1447C79.0311 89.4496 78.5592 90.6326 77.8425 91.7113C77.1084 92.79 76.1819 93.6947 75.0458 94.4254C73.9096 95.1561 72.6335 95.6607 71.2352 95.9391L71.1827 96.287C72.7035 96.3566 74.0494 96.7394 75.2031 97.4701C76.3567 98.2008 77.2132 99.1925 77.7726 100.445C78.3145 101.715 78.4718 103.159 78.2446 104.812C77.9649 106.743 77.2133 108.483 75.9897 109.997C74.7661 111.51 73.1405 112.711 71.1303 113.581C69.1201 114.451 66.8303 114.886 64.2782 114.886H47.62L52.6542 79.2195V79.2021ZM65.729 106.917C66.5156 106.621 67.1449 106.187 67.5994 105.63C68.0538 105.073 68.3335 104.395 68.4384 103.594C68.5608 102.759 68.4734 102.028 68.1587 101.419C67.8616 100.811 67.3547 100.341 66.6729 100.028C65.9912 99.7144 65.1347 99.5579 64.1034 99.5579H59.1741L58.0729 107.37H62.8449C63.9636 107.37 64.925 107.23 65.7116 106.935L65.729 106.917ZM66.638 93.2772C67.3721 92.9814 67.949 92.5638 68.4034 92.0419C68.8579 91.5025 69.1376 90.8762 69.2425 90.1281C69.3474 89.38 69.2425 88.7363 68.9628 88.2143C68.6656 87.6924 68.2112 87.2922 67.5994 87.0138C66.9876 86.7355 66.2534 86.6137 65.3969 86.6137H61.0095L59.9957 93.7295H64.2258C65.0998 93.7295 65.9038 93.5903 66.6205 93.2772H66.638Z" fill="#292929"/>
<path d="M84.4148 79.2021H115.319L114.253 86.7703H103.433L99.4649 114.868H90.2181L94.186 86.7703H83.3485L84.4148 79.2021Z" fill="#292929"/>
<path d="M138.725 89.4844C138.323 88.6493 137.676 88.0056 136.802 87.5532C135.928 87.1009 134.862 86.8747 133.638 86.8747C131.995 86.8747 130.527 87.2749 129.268 88.0752C127.992 88.8755 126.943 90.0412 126.122 91.5548C125.283 93.0684 124.723 94.8952 124.426 97.0178C124.112 99.2273 124.164 101.089 124.566 102.585C124.968 104.081 125.702 105.212 126.751 105.995C127.8 106.778 129.111 107.161 130.684 107.161C131.907 107.161 132.991 106.952 133.953 106.535C134.914 106.117 135.718 105.525 136.382 104.76C137.047 103.994 137.536 103.09 137.868 102.046L147.43 102.15C146.94 104.308 145.909 106.378 144.318 108.414C142.727 110.432 140.647 112.102 138.078 113.407C135.508 114.712 132.607 115.373 129.355 115.373C126.104 115.373 123.203 114.659 120.79 113.233C118.378 111.806 116.648 109.701 115.546 106.935C114.463 104.168 114.183 100.863 114.725 97.0526C115.267 93.1902 116.49 89.8846 118.396 87.1183C120.301 84.352 122.643 82.2642 125.422 80.855C128.219 79.4283 131.243 78.7324 134.512 78.7324C137.501 78.7324 140.088 79.2718 142.273 80.3504C144.458 81.4291 146.136 82.9949 147.272 85.0653C148.408 87.1357 148.915 89.5888 148.775 92.4595H139.197C139.266 91.346 139.109 90.3717 138.707 89.5366L138.725 89.4844Z" fill="#292929"/>
<path d="M155.19 79.2021H180.151L179.085 86.7703H163.511L162.602 93.2424H176.638L175.572 100.811H161.535L159.543 114.868H150.139L155.173 79.2021H155.19Z" fill="#292929"/>
<path d="M182.756 88.11H192.108L188.332 114.851H178.98L182.756 88.11ZM185.57 84.6304C184.923 84.2476 184.416 83.7257 184.067 83.0645C183.717 82.4034 183.612 81.6901 183.717 80.9246C183.822 80.1591 184.154 79.4283 184.679 78.7672C185.203 78.1061 185.85 77.5842 186.619 77.2014C187.388 76.8186 188.192 76.6273 189.031 76.6273C189.87 76.6273 190.622 76.8186 191.286 77.2014C191.95 77.5842 192.44 78.1061 192.754 78.7672C193.086 79.4283 193.191 80.1417 193.086 80.9246C192.982 81.6901 192.667 82.4034 192.16 83.0645C191.653 83.7257 191.006 84.2476 190.237 84.6304C189.468 85.0131 188.664 85.2045 187.825 85.2045C186.986 85.2045 186.234 85.0131 185.588 84.6304H185.57Z" fill="#292929"/>
</svg>
