<svg  viewBox="0 0 16 16" fill="none" xmlns="http://www.w3.org/2000/svg">
    <g clip-path="url(#clip0_1260_71)">
        <path fill-rule="evenodd" clip-rule="evenodd"
            d="M8 0C12.4183 0 16 3.58171 16 8C16 12.4183 12.4183 16 8 16C3.58171 16 0 12.4183 0 8C0 3.58171 3.58171 0 8 0Z"
            fill="#2775CA" />
        <path fill-rule="evenodd" clip-rule="evenodd"
            d="M9.82791 2.36692C9.64751 2.30928 9.5 2.41636 9.5 2.60575V3.07154C9.5 3.19854 9.59572 3.34307 9.71493 3.38677C11.6298 4.08811 13 5.92861 13 8.0834C13 10.2382 11.6298 12.0786 9.71493 12.78C9.58417 12.8279 9.5 12.956 9.5 13.0953V13.561C9.5 13.7504 9.64751 13.8575 9.82791 13.7999C12.2477 13.0267 14 10.7597 14 8.0834C14 5.4071 12.2477 3.14006 9.82791 2.36692Z"
            fill="white" />
        <path fill-rule="evenodd" clip-rule="evenodd"
            d="M6.50002 2.60575C6.50002 2.41636 6.3525 2.30928 6.17211 2.36692C3.75225 3.14006 2 5.40707 2 8.0834C2 10.7597 3.75225 13.0267 6.17211 13.7999C6.3525 13.8575 6.50002 13.7504 6.50002 13.561V13.0953C6.50002 12.9682 6.4043 12.8237 6.28505 12.78C4.37026 12.0786 3 10.2382 3 8.0834C3 5.92864 4.37026 4.08811 6.28505 3.38677C6.4043 3.34307 6.50002 3.19854 6.50002 3.07154V2.60575Z"
            fill="white" />
        <path
            d="M10.0458 9.64461L9.58817 9.44015C9.48742 9.39513 9.36859 9.43726 9.31981 9.53626C9.10382 9.97463 8.74483 10.254 8.2706 10.254C7.84125 10.254 7.49688 10.0438 7.23301 9.61889C7.12982 9.45449 7.04785 9.271 6.98543 9.06994H8.21433C8.29222 9.06994 8.36349 9.0261 8.39861 8.95656L8.69185 8.5608C8.76119 8.42349 8.6614 8.26129 8.50757 8.26129H6.84714C6.84233 8.17616 6.83943 8.08932 6.83943 7.99988C6.83851 7.91118 6.84101 7.82431 6.84563 7.73875H8.21433C8.29222 7.73875 8.36349 7.6949 8.39861 7.62537L8.69185 7.22961C8.76119 7.0923 8.6614 6.9301 8.50757 6.9301H6.98392C7.20679 6.20352 7.67203 5.72749 8.2706 5.73684C8.72671 5.73684 9.08082 5.98657 9.30797 6.39555C9.35888 6.48723 9.47342 6.52236 9.56935 6.48001L10.0293 6.27694C10.1394 6.22834 10.1862 6.09525 10.1279 5.98999C9.70333 5.2231 9.08423 4.83789 8.2706 4.83789C7.52817 4.83789 6.93334 5.13307 6.48162 5.71896C6.21761 6.06403 6.03383 6.46891 5.92476 6.9301H5.25655C5.17865 6.9301 5.10739 6.97395 5.07228 7.04347L4.77903 7.43924C4.70968 7.57655 4.80948 7.73875 4.9633 7.73875H5.81435C5.81024 7.82471 5.80632 7.9108 5.80632 7.99988C5.80523 8.08821 5.80731 8.17515 5.81105 8.26129H5.25655C5.17865 8.26129 5.10739 8.30514 5.07228 8.37467L4.77903 8.77043C4.70968 8.90774 4.80948 9.06994 4.9633 9.06994H5.92282C6.22628 10.3242 7.09991 11.1796 8.2706 11.1619C9.10177 11.1619 9.72828 10.7487 10.1465 9.92585C10.1998 9.8211 10.1531 9.69254 10.0458 9.64461Z"
            fill="white" />
    </g>
    <defs>
        <clipPath id="clip0_1260_71">
            <rect width="100%" height="100%" fill="white" />
        </clipPath>
    </defs>
</svg>