<?xml version="1.0" encoding="UTF-8"?><svg id="Layer_1" xmlns="http://www.w3.org/2000/svg" xmlns:xlink="http://www.w3.org/1999/xlink" viewBox="0 0 240 240"><defs><linearGradient id="linear-gradient" x1="230.44" y1="246.71" x2="1.67" y2="-9.43" gradientTransform="translate(0 241.72) scale(1 -1)" gradientUnits="userSpaceOnUse"><stop offset=".38" stop-color="#020839" stop-opacity=".1"/><stop offset=".51" stop-color="#011968" stop-opacity=".33"/><stop offset=".69" stop-color="#002fa4" stop-opacity=".61"/><stop offset=".83" stop-color="#003fcf" stop-opacity=".82"/><stop offset=".92" stop-color="#0049ea" stop-opacity=".95"/><stop offset=".98" stop-color="#004df5"/></linearGradient><linearGradient id="linear-gradient-2" x1="149.6" y1="-748.3" x2="232.86" y2="-771.46" gradientTransform="translate(0 -636.27) scale(1 -1)" gradientUnits="userSpaceOnUse"><stop offset="0" stop-color="#000987"/><stop offset=".11" stop-color="#2248be"/><stop offset=".3" stop-color="#2774d0"/><stop offset="1" stop-color="#2c90e1"/></linearGradient><linearGradient id="linear-gradient-3" x1="26.87" y1="-756.28" x2="213.12" y2="-756.28" gradientTransform="translate(0 -636.27) scale(1 -1)" gradientUnits="userSpaceOnUse"><stop offset="0" stop-color="#d9403e"/><stop offset=".2" stop-color="#e4af0f"/><stop offset=".28" stop-color="#e3ad0c"/><stop offset=".75" stop-color="#d96c3f"/><stop offset=".89" stop-color="#d33e3c"/><stop offset="1" stop-color="#cf3e3a"/></linearGradient><linearGradient id="linear-gradient-4" x1="61.99" y1="-751.61" x2="125.64" y2="-757.57" gradientTransform="translate(0 -636.27) scale(1 -1)" gradientUnits="userSpaceOnUse"><stop offset="0" stop-color="#2143bc"/><stop offset=".47" stop-color="#2c7ff7"/><stop offset="1" stop-color="#2143bc"/></linearGradient><linearGradient id="linear-gradient-5" x1="-3.37" y1="-751.86" x2="49.94" y2="-756.76" gradientTransform="translate(0 -636.27) scale(1 -1)" gradientUnits="userSpaceOnUse"><stop offset=".56" stop-color="#2c90e2"/><stop offset=".88" stop-color="#2143bc"/><stop offset="1" stop-color="#000987"/></linearGradient></defs><rect x="-4.57" y="-3.37" width="246.73" height="246.73" fill="#020920"/><rect x="-4.57" y="-3.37" width="246.73" height="246.73" fill="url(#linear-gradient)"/><path d="M216.88,117.01l-3.75-.52c-11.68-1.46-23.48-2.5-35.17-3.24-7.1-.52-14.2-.84-21.18-1.15-.52.84-1.15,1.77-1.66,2.61-2.71,4.17-5.42,8.25-8.14,12.42,10.33-.31,20.67-.74,30.98-1.35,13.26-.84,50.3-5.32,55.51-6.26-5.52-1.04-11.06-1.89-16.58-2.5Z" fill="url(#linear-gradient-2)"/><path d="M187.24,54.64c-4.49,6.56-8.25,13.15-12.62,19.72-2.61-3.44-7.1-9.3-7.93-10.42-22.85,31.2-45.39,62.71-66.88,94.94-22.85-25.26-72.72-71.47-72.72-71.47,0,0,47.79,66.88,74.28,97.98l2.61-3.75c22.11-31.29,43.09-63.54,63.85-95.89,2.81,3.01,7.51,8.14,8.45,9.07.42-.84,8.34-12.62,11.48-18.56l25.57,35.17s-16.8-36.53-26.08-56.75h-.01v-.03Z" fill="url(#linear-gradient-3)"/><path d="M122.96,111.59c-18.47,0-37.04.52-55.51,1.77-1.77.11-3.55.2-5.32.42,4.17,4.06,8.56,8.25,12.83,12.52,13.26.74,26.51,1.15,39.75,1.25.63-.84,1.15-1.77,1.77-2.61l9.39-13.35h-2.92Z" fill="url(#linear-gradient-4)"/><path d="M40.97,115.66c-9.71,1.04-24.73,2.2-34.44,3.96,11.8,2.09,28.89,3.55,40.69,4.59-2.2-2.92-4.27-5.84-6.26-8.56Z" fill="url(#linear-gradient-5)"/></svg>