<?xml version="1.0" encoding="UTF-8"?><svg id="Layer_1" xmlns="http://www.w3.org/2000/svg" xmlns:xlink="http://www.w3.org/1999/xlink" viewBox="0 0 240 240"><defs><clipPath id="clippath"><rect x="-3.9" y="-3.9" width="247.8" height="247.8" fill="none"/></clipPath><linearGradient id="linear-gradient" x1="157.66" y1="197.96" x2="29.7" y2="-60.15" gradientTransform="translate(0 242) scale(1 -1)" gradientUnits="userSpaceOnUse"><stop offset=".24" stop-color="#020839" stop-opacity=".1"/><stop offset=".92" stop-color="#ff008b"/></linearGradient><radialGradient id="radial-gradient" cx="112.8" cy="130.2" fx="112.8" fy="130.2" r="142.84" gradientUnits="userSpaceOnUse"><stop offset=".18" stop-color="#6948ff"/><stop offset=".55" stop-color="#ff008b"/><stop offset=".55" stop-color="#fe008a"/><stop offset=".64" stop-color="#ce0179"/><stop offset=".73" stop-color="#a9026c"/><stop offset=".81" stop-color="#8e0362"/><stop offset=".88" stop-color="#7d035d"/><stop offset=".93" stop-color="#78045b"/></radialGradient><radialGradient id="radial-gradient-2" cx="115.9" cy="120.94" fx="115.9" fy="120.94" r="75.29" gradientUnits="userSpaceOnUse"><stop offset="0" stop-color="#ff59cc"/><stop offset=".54" stop-color="#ff008b"/><stop offset=".54" stop-color="#fe008a"/><stop offset=".63" stop-color="#ce0179"/><stop offset=".72" stop-color="#a9026c"/><stop offset=".8" stop-color="#8e0362"/><stop offset=".87" stop-color="#7d035d"/><stop offset=".93" stop-color="#78045b"/></radialGradient><radialGradient id="radial-gradient-3" cx="120.13" cy="112.9" fx="120.13" fy="112.9" r="25.68" gradientUnits="userSpaceOnUse"><stop offset="0" stop-color="#f050af"/><stop offset=".33" stop-color="#ff008b"/><stop offset=".37" stop-color="#ef0796"/><stop offset=".5" stop-color="#bf1ebb"/><stop offset=".63" stop-color="#9a30d8"/><stop offset=".75" stop-color="#7f3ded"/><stop offset=".85" stop-color="#6e45fa"/><stop offset=".93" stop-color="#6948ff"/></radialGradient><radialGradient id="radial-gradient-4" cx="106.48" cy="109.22" fx="106.48" fy="109.22" r="205.25" xlink:href="#radial-gradient"/><radialGradient id="radial-gradient-5" cx="119.15" cy="116.08" fx="119.15" fy="116.08" r="76.55" xlink:href="#radial-gradient-2"/><radialGradient id="radial-gradient-6" cx="123.03" cy="120" fx="123.03" fy="120" r="78.69" xlink:href="#radial-gradient"/><radialGradient id="radial-gradient-7" cx="142.47" cy="120" fx="142.47" fy="120" r="75.24" xlink:href="#radial-gradient-2"/></defs><rect x="-3.9" y="-3.9" width="247.8" height="247.8" fill="#020920"/><g clip-path="url(#clippath)"><rect x="-24.13" y="-24.13" width="288.26" height="288.26" fill="url(#linear-gradient)"/></g><path d="M138.75,92.2c-50.42-28.17-99.6-36.12-109.86-17.76-10.27,18.36,22.29,56.08,72.7,84.25,50.42,28.18,99.6,36.13,109.86,17.77,10.26-18.36-22.29-56.08-72.7-84.26ZM204.13,169.57c-8.96,16.03-53.27,8.31-98.99-17.24-45.71-25.54-75.51-59.25-66.56-75.27,8.96-16.03,53.48-9.45,99.2,16.1,45.71,25.55,75.3,60.38,66.35,76.41Z" fill="url(#radial-gradient)"/><path d="M28.95,74.49c10.26-18.36,59.45-10.41,109.86,17.76,6.18,3.45,5.51,2.96-1.07-.71-50.42-28.17-99.6-36.13-109.86-17.76-9.01,16.11,14.95,47.12,55.02,73.52-39.42-26.24-62.87-56.84-53.95-72.8ZM204.2,169.62c7.87-14.08-14.02-42.67-50.45-66.73,35.79,23.91,57.17,52.08,49.38,66.02-8.96,16.02-53.27,8.31-98.99-17.24-5.66-3.16-11.06-6.44-16.19-9.8,5.44,3.61,11.2,7.13,17.26,10.52,45.72,25.55,90.03,33.27,98.99,17.24Z" fill="url(#radial-gradient-2)"/><path d="M138.06,123.15c0,9.54-7.74,17.29-17.28,17.29s-17.29-7.74-17.29-17.29,7.74-17.29,17.29-17.29,17.28,7.74,17.28,17.29Z" fill="url(#radial-gradient-3)"/><path d="M212.13,70.29c-10.23-18.37-59.43-10.49-109.88,17.61-50.45,28.1-83.06,65.78-72.82,84.15,8.64,15.5,45,12.31,86.45-5.94l-1.84-.85c-36.18,15.09-67.61,17.27-74.9,4.18-8.93-16.04,20.91-49.7,66.66-75.18,45.75-25.49,90.08-33.14,99.01-17.1,8.94,16.04-20.05,50.47-65.8,75.95-5.42,3.02-10.83,5.78-16.17,8.27l1.69.75c4.9-2.37,9.84-4.93,14.79-7.69,50.45-28.11,83.06-65.78,72.82-84.16Z" fill="url(#radial-gradient-4)"/><path d="M102.68,88.53c48.75-27.16,96.33-35.43,108.71-19.37-10.43-18.17-59.48-10.25-109.78,17.77-50.45,28.1-83.06,65.78-72.82,84.15.33.59.71,1.14,1.12,1.68-.01-.02-.03-.05-.05-.07-10.24-18.37,22.37-56.05,72.82-84.15Z" fill="url(#radial-gradient-5)"/><path d="M122.76,15.43c-18.05.05-33.13,34.71-36.94,80.98l1.6-1.07c4.04-40.16,17.64-70.11,32.92-70.16,18.36-.05,33.35,42.37,33.48,94.73.13,52.37-14.64,94.86-33,94.91-18.36.05-34.44-41.99-34.58-94.36-.01-4.96.25-9.81.51-14.57l-1.56,1.12c-.18,4.29-.28,8.65-.26,13.07.15,57.76,17.32,104.53,38.35,104.48,21.03-.05,37.96-46.91,37.82-104.67-.14-57.75-17.32-104.52-38.35-104.47Z" fill="url(#radial-gradient-6)"/><path d="M123.3,224.57s.23-.02.67-.06c.44-.07,1.12-.03,1.95-.28,1.69-.3,4.11-1.23,6.7-3.11,2.6-1.89,5.28-4.78,7.78-8.48,2.51-3.7,4.84-8.2,6.94-13.29,4.23-10.19,7.4-22.75,9.56-36.37,2.18-13.62,3.23-28.36,3.15-43.08,0-14.72-1.12-29.45-3.36-43.06-2.24-13.61-5.46-26.15-9.74-36.31-2.12-5.08-4.48-9.57-7.01-13.26-2.52-3.68-5.22-6.56-7.82-8.44-2.61-1.87-5.03-2.78-6.72-3.07-.84-.24-1.51-.2-1.95-.27-.45-.04-.68-.06-.68-.06,0,0,.23.01.68.03.45.05,1.12-.02,1.97.18,1.72.23,4.23,1.02,6.94,2.85,2.71,1.82,5.55,4.66,8.23,8.32,2.69,3.65,5.23,8.13,7.46,13.24,4.5,10.2,8.14,22.77,10.47,36.48,2.35,13.71,3.59,28.54,3.67,43.37-.01,14.83-1.17,29.66-3.45,43.38-2.26,13.72-5.84,26.31-10.28,36.54-4.37,10.24-10.15,17.96-15.58,21.64-2.7,1.84-5.21,2.65-6.93,2.88-.85.21-1.52.14-1.97.19-.45.02-.68.03-.68.03Z" fill="url(#radial-gradient-7)"/></svg>