<svg id="Layer_1" data-name="Layer 1" xmlns="http://www.w3.org/2000/svg" viewBox="0 0 200 200"><defs><style>.cls-1{fill:none;stroke-miterlimit:11.34;}.cls-1,.cls-2{stroke:#000;stroke-width:5px;}.cls-2{fill:#010101;stroke-miterlimit:10;}</style></defs><g id="layer1"><ellipse id="path1653-8" class="cls-1" cx="93.96" cy="99.74" rx="41.45" ry="82.9" transform="matrix(0.87, -0.5, 0.5, 0.87, -37.28, 60.35)"/></g><g id="layer1-2" data-name="layer1"><path id="path1653-8-2" data-name="path1653-8" class="cls-1" d="M140,168.07c-16.19,16.18-55.56,3.06-87.93-29.31S6.6,67,22.79,50.84s55.55-3.07,87.92,29.3"/></g><path class="cls-2" d="M184.15,92.58v-.8a62.18,62.18,0,0,1-59.45-59.5h-.8A62.18,62.18,0,0,1,64.4,91.73v.8A62.18,62.18,0,0,1,123.85,152h.8A62.18,62.18,0,0,1,184.15,92.58Z"/></svg>