<svg width="660" height="535" viewBox="0 0 660 535" fill="none" xmlns="http://www.w3.org/2000/svg">
<g clip-path="url(#clip0_513_250)">
<path fill-rule="evenodd" clip-rule="evenodd" d="M58.5845 200C69.9527 211.597 84.1231 220.436 100 225.422C109.375 228.367 119.345 229.968 129.684 230C129.789 230 129.895 230 130 230H30C30 240.452 31.6034 250.53 34.5777 260C41.3923 281.698 55.403 300.209 73.8131 312.735C89.827 323.632 109.17 330 130 330C109.17 330 89.827 336.368 73.8132 347.265C55.403 359.791 41.3923 378.302 34.5777 400C31.6034 409.47 30 419.548 30 430H167.5V505H192.5V430L630 430V230H330H429.994V130H430C430 129.621 429.998 129.242 429.994 128.864C429.882 118.818 428.289 109.127 425.422 100C412.68 59.4282 374.778 30 330 30C295.6 30 265.259 47.3677 247.265 73.8132C236.368 89.827 230 109.17 230 130C230 129.62 229.998 129.24 229.994 128.861C229.882 118.816 228.288 109.126 225.422 100C222.469 90.5965 218.164 81.7917 212.735 73.8132C194.741 47.3677 164.4 30 130 30C74.77 30 30 74.77 30 130C30 157.255 40.9026 181.963 58.5845 200ZM229.994 230L130 230H330C329.895 230 329.789 230 329.684 230C319.345 229.968 309.375 228.367 300 225.422C284.773 220.64 271.115 212.313 259.994 201.409C259.519 200.944 259.05 200.474 258.585 200C240.903 181.963 230 157.255 230 130H229.994V230ZM230 46.9273C206.154 18.2539 170.209 0 130 0C58.2015 0 0 58.2015 0 130C0 155.773 7.49957 179.794 20.4356 200H0V230C0 270.209 18.2539 306.154 46.9273 330C18.2539 353.846 0 389.791 0 430V460H137.5V535H222.5V460L660 460V200H459.994V160H460V130C460 58.2015 401.799 0 330 0C289.791 0 253.846 18.2539 230 46.9273Z" fill="black"/>
<path d="M30 230C30 240.452 31.6034 250.53 34.5777 260C41.3923 281.698 55.403 300.209 73.8131 312.735C89.827 323.632 109.17 330 130 330C109.17 330 89.827 336.368 73.8132 347.265C55.403 359.791 41.3923 378.302 34.5777 400C31.6034 409.47 30 419.548 30 430H167.5V505H192.5V430L630 430V230H429.994H330H130H30Z" fill="black"/>
<path d="M58.5845 200C69.9527 211.597 84.1231 220.436 100 225.422C109.375 228.367 119.345 229.968 129.684 230C129.789 230 129.895 230 130 230L229.994 230V130H230C230 129.62 229.998 129.24 229.994 128.861C229.882 118.816 228.288 109.126 225.422 100C222.469 90.5965 218.164 81.7917 212.735 73.8132C194.741 47.3677 164.4 30 130 30C74.77 30 30 74.77 30 130C30 157.255 40.9026 181.963 58.5845 200Z" fill="black"/>
<path d="M429.994 130H430C430 129.621 429.998 129.242 429.994 128.864C429.882 118.818 428.289 109.127 425.422 100C412.68 59.4282 374.778 30 330 30C295.6 30 265.259 47.3677 247.265 73.8132C236.368 89.827 230 109.17 230 130C230 157.255 240.903 181.963 258.585 200C259.05 200.474 259.519 200.944 259.994 201.409C271.115 212.313 284.773 220.64 300 225.422C309.375 228.367 319.345 229.968 329.684 230C329.789 230 329.895 230 330 230H429.994V130Z" fill="black"/>
<path d="M429.994 230V130L329.994 130V230H429.994Z" fill="black"/>
<path d="M430 130C430 74.77 385.23 30 330 30C274.77 30 230 74.77 230 130H430Z" fill="#37B34A"/>
<path d="M230 130C230 185.23 274.77 230 330 230C330 169.33 330 185.23 330 130H230Z" fill="white"/>
<path d="M229.994 230L229.994 130L129.994 130V230H229.994Z" fill="black"/>
<path d="M230 130C230 74.77 185.23 30 130 30C74.77 30 30 74.77 30 130H230Z" fill="#37B34A"/>
<path d="M30 130C30 185.23 74.77 230 130 230C130 169.33 130 185.23 130 130H30Z" fill="white"/>
<path d="M630 230H430V430H630V230Z" fill="#0017AB"/>
<path fill-rule="evenodd" clip-rule="evenodd" d="M129.976 330C74.757 329.987 30 285.222 30 230H130H430V330V430H130H30C30 374.778 74.757 330.013 129.976 330Z" fill="#EC0009"/>
<path d="M192.5 330H167.5V480H192.5V330Z" fill="white"/>
<path d="M192.5 480H167.5V505H192.5V480Z" fill="#EC0009"/>
</g>
<defs>
<clipPath id="clip0_513_250">
<rect width="660" height="535" fill="white"/>
</clipPath>
</defs>
</svg>
