<?xml version="1.0" encoding="UTF-8"?>
<svg width="192" height="192" version="1.1" viewBox="0 0 192 192" xmlns="http://www.w3.org/2000/svg">
 <defs>
  <style>.cls-1 {
        fill: #fff;
      }</style>
 </defs>
 <g transform="matrix(1.2582 0 0 1.2582 16.041 9.1836)">
  <g data-name="Camada_1">
   <g data-name="Camada_1-2">
    <path class="cls-1" d="m122.8 0c-0.5 0-1.1 0.1-1.5 0.3l-37 15.6h-41.4s-36.3-15.6-38.4-15.6-4.1 1.7-4 3.9 8.1 52.9 8.1 52.9l-8.2 28.3s-0.2 0.8-0.2 1.6c0 1.2 0.9 2.8 2.2 3.5l27.1 13.8c10.9 6.6 15.3 14.3 23.7 23.9l7.3 8.5c0.8 0.8 1.8 1.3 3 1.3s2.4-0.5 3.1-1.4l7.3-8.4c8.4-9.6 12.8-17.3 23.7-23.9l27.1-13.7c1.3-0.8 2.2-2.2 2.2-3.8s-0.2-1.4-0.2-1.4l-8.4-28.2s6.1-37.6 8.4-51.3l0.2-1.6c0-2.4-1.8-4.3-4.1-4.3zm-8.4 15-4.8 29.2-15.7-20.5s20.5-8.7 20.5-8.7zm-70.1 11.7h38.4l19.2 25.2h-76.8zm19.2 66.7-35.6-30.6h71.4l-35.6 30.7h-0.2zm-30.4-69.8-15.7 20.5-4.8-29.2zm-20.6 58.9 4.4-13.6 23.9 21.4 6.6 5.9-34.9-13.7zm51 38.5-13.5-16.3 13.5 1.9 13.5-1.9zm16.1-24.8 6.6-5.9 23.9-21.4 4.4 13.6z"/>
   </g>
  </g>
 </g>
</svg>
