<svg xmlns="http://www.w3.org/2000/svg" width="128" height="128" fill="none"><rect width="128" height="128" fill="#E6EDF2" rx="64"/><g fill="#04080B" clip-path="url(#a)"><path fill-rule="evenodd" d="m65.601 64.658-.014.015v-15.69H59.37V45.76h3.134V29.553c-1.83-.693-3.134-2.5-3.134-4.622 0-2.72 2.148-4.922 4.792-4.922 2.644 0 4.785 2.202 4.785 4.922 0 2.143-1.326 3.966-3.183 4.644v16.142h2.999v15.267a14.375 14.375 0 0 0-3.162 3.674Zm-2.857-39.764c0 .802.631 1.458 1.418 1.458.78 0 1.418-.656 1.418-1.458 0-.802-.631-1.458-1.418-1.458-.78 0-1.418.656-1.418 1.458Z" clip-rule="evenodd"/><path d="M74.703 40.65v17.315a16.658 16.658 0 0 0-3.346 1.305V40.65h3.346Z"/><path fill-rule="evenodd" d="M71.35 29.86h9.293v9.557H71.35V29.86Zm3.346 5.897h2.53v-2.602h-2.53v2.602ZM47.773 29.786h9.293v9.558h-9.293v-9.558Zm3.346 5.906h2.53v-2.603h-2.53v2.603Z" clip-rule="evenodd"/><path d="M53.621 40.693h3.41v8.472h-9.293v-8.472h3.353v4.82h2.53v-4.82Z"/><path fill-rule="evenodd" d="M85.343 34.788c0-2.727 1.977-4.929 4.622-4.929 2.644 0 4.792 2.202 4.792 4.929 0 2.034-1.206 3.79-2.928 4.535v15.303H80.586v2.56c-.354 0-.808.028-1.261.065a24.1 24.1 0 0 0-2.099.197V40.656h3.403V51.3h7.797V39.446c-1.836-.663-3.083-2.5-3.083-4.658Zm3.197-.044c0 .802.638 1.458 1.425 1.458.786 0 1.424-.656 1.417-1.458 0-.802-.63-1.458-1.417-1.458s-1.425.649-1.425 1.458ZM47.802 54.699H36.396V39.417c-1.857-.678-3.183-2.5-3.183-4.637 0-2.726 2.141-4.928 4.785-4.928 2.651 0 4.792 2.209 4.792 4.928 0 2.107-1.283 3.901-3.09 4.608v12.015h22.796V64.47a14.492 14.492 0 0 0-2.998-3.442v-6.386h-2.545v4.68a17.05 17.05 0 0 0-3.346-1.327V54.67H51.12v2.8a22.29 22.29 0 0 0-3.317-.241v-2.53ZM39.43 34.737c0-.802-.638-1.459-1.425-1.459s-1.425.657-1.418 1.459c0 .802.631 1.458 1.418 1.458.787 0 1.425-.65 1.425-1.458Z" clip-rule="evenodd"/><path fill-rule="evenodd" d="M91.772 59.023c.284 10.848-.319 22.331-8.931 35.666-5.345 8.268-11.597 11.491-15.312 12.737-2.14.708-4.444.708-6.592.015-3.793-1.225-10.18-4.433-15.546-12.744C36.78 81.362 36.17 69.878 36.46 59.03c0 0 2.19 2.515 8.095 1.706 7.514-1.028 15.964 1.261 17.24 11.373v7.532s-1.957-4.535-8.039-3.23c-5.947 1.276-10.321-2.129-13.036-5.73 0 0 .822 12.773 8.322 22.463 6.344 8.195 9.889 9.653 13.639 10.666 1.02.27 2.09.27 3.111-.007 3.694-1.014 7.06-2.486 13.398-10.667 7.5-9.69 8.322-22.463 8.322-22.463-2.715 3.61-7.089 7.007-13.036 5.73-6.09-1.304-8.038 3.23-8.038 3.23v-7.53c1.275-10.113 9.725-12.402 17.24-11.374 5.91.809 8.094-1.706 8.094-1.706ZM74.087 72.097c1.435.238 3.008.499 5.28-.032 2.495-.584 5.125-4.645 5.111-4.652-1.636-.251-2.85-.541-3.871-.786h-.002c-1.821-.436-3.034-.726-4.945-.395-4.686.817-5.947 6.409-5.947 6.409 1.006-.817 2.82-.795 3.955-.613l.418.069h.001Zm-15.447.551s-1.262-5.592-5.947-6.409c-1.92-.332-3.135-.04-4.962.4h-.001c-1.021.245-2.232.535-3.863.789 0 0 2.623 4.06 5.118 4.644 2.273.531 3.845.27 5.28.032l.42-.069c1.134-.182 2.956-.204 3.955.613Z" clip-rule="evenodd"/><path d="M58.821 92.556c-.785.502-2.617.65-3.64.647-.127 0-.192.155-.095.24 1.273 1.11 3.14.826 4.88.534.7-.118 1.395.129 2.123.388.6.213 1.224.436 1.896.47.67-.034 1.295-.257 1.895-.47.729-.26 1.423-.505 2.123-.388 1.74.291 3.608.575 4.88-.535.097-.084.032-.239-.095-.239-1.023.002-2.855-.145-3.64-.647-.134-.085-.263-.17-.388-.253-.915-.603-1.658-1.093-2.825-.82a1.835 1.835 0 0 0-.863.446c-.242.202-.458.383-1.087.383-.63 0-.846-.18-1.087-.383-.195-.163-.406-.34-.864-.447-1.167-.272-1.91.218-2.824.82-.126.084-.255.169-.389.254ZM60.181 96.432c.892.353 2.322.888 3.804.844 1.482.044 2.912-.491 3.804-.844a.135.135 0 0 1 .184.15c-.377 2.288-2.87 3.171-3.988 3.171-1.118 0-3.611-.883-3.988-3.171a.135.135 0 0 1 .184-.15ZM69.186 82.522c-.046-.138.088-.237.18-.127.488.594.894 1.635.502 2.613a5.1 5.1 0 0 0-.037.066c-.255.45-.698 1.237-2.856 1.124-1.107-.057-2.125.47-2.841 2.967-.042.145-.257.146-.299 0-.718-2.498-1.733-3.025-2.84-2.967-2.158.113-2.602-.674-2.856-1.124a5.074 5.074 0 0 0-.038-.066c-.391-.978.015-2.02.503-2.613.091-.11.226-.01.18.127-.596 1.776-.076 2.25.197 2.25.256 0 .435-.184.651-.407.186-.191.399-.41.711-.565.404-.2 1.273-.381 1.871 0 .286.181.525.314.728.41.656.312 1.43.312 2.086 0 .203-.096.441-.228.728-.41.598-.381 1.467-.2 1.87 0 .313.154.526.374.712.565.215.223.394.407.65.407.274 0 .793-.474.198-2.25Z"/></g><defs><clipPath id="a"><path fill="#fff" d="M33.2 20h61.6v88H33.2z"/></clipPath></defs></svg>