<svg width="1080" height="1080" viewBox="0 0 1080 1080" fill="none" xmlns="http://www.w3.org/2000/svg">
<rect width="1080" height="1080" fill="black"/>
<path d="M149.512 403.383H178.024V431.895H149.512V403.383ZM149.512 631.479H121V431.895H149.512V631.479ZM178.024 631.479V659.991H149.512V631.479H178.024Z" fill="white"/>
<path d="M901.221 431.895V403.383H929.733V431.895H901.221ZM929.733 431.895H958.245V631.479H929.733V431.895ZM929.733 659.991H901.221V631.479H929.733V659.991Z" fill="white"/>
<path d="M353.089 394V422.512H381.605V451.024H353.089V508.048H381.605V536.56H353.089V593.584H381.605V622.096H353.089V650.608H324.573V622.096H296.058V593.584H324.573V536.56H296.058V508.048H324.573V451.024H296.058V422.512H324.573V394H353.089ZM267.542 451.024H296.058V508.048H267.542V451.024ZM410.12 451.024V479.536H381.605V451.024H410.12ZM410.12 593.584H381.605V536.56H410.12V593.584ZM267.542 593.584V565.072H296.058V593.584H267.542Z" fill="#A66CFF"/>
<path d="M749.14 394V422.512H777.655V451.024H749.14V508.048H777.655V536.56H749.14V593.584H777.655V622.096H749.14V650.608H720.624V622.096H692.108V593.584H720.624V536.56H692.108V508.048H720.624V451.024H692.108V422.512H720.624V394H749.14ZM663.593 451.024H692.108V508.048H663.593V451.024ZM806.171 451.024V479.536H777.655V451.024H806.171ZM806.171 593.584H777.655V536.56H806.171V593.584ZM663.593 593.584V565.072H692.108V593.584H663.593Z" fill="#D0F500"/>
<rect x="440.856" y="653.783" width="190.08" height="31.68" fill="white"/>
</svg>
