<svg width="32" height="32" viewBox="0 0 32 32" fill="none" xmlns="http://www.w3.org/2000/svg">
<path d="M16 32C24.8366 32 32 24.8366 32 16C32 7.16344 24.8366 0 16 0C7.16344 0 0 7.16344 0 16C0 24.8366 7.16344 32 16 32Z" fill="white"/>
<path fillRule="evenodd" clipRule="evenodd" d="M16 30.5C24.0081 30.5 30.5 24.0081 30.5 16C30.5 7.99187 24.0081 1.5 16 1.5C7.99187 1.5 1.5 7.99187 1.5 16C1.5 24.0081 7.99187 30.5 16 30.5ZM32 16C32 24.8366 24.8366 32 16 32C7.16344 32 0 24.8366 0 16C0 7.16344 7.16344 0 16 0C24.8366 0 32 7.16344 32 16Z" fill="#0052FF"/>
<path d="M15.998 4V12.5022L22.9952 15.7133L15.998 4Z" fill="#0052FF" fill-opacity="0.6"/>
<path d="M15.9981 4L9 15.7133L15.9981 12.5022V4Z" fill="#0052FF"/>
<path d="M15.998 21.2228V26.9999L22.9999 17.0513L15.998 21.2228Z" fill="#0052FF" fill-opacity="0.6"/>
<path d="M15.9981 26.9999V21.2218L9 17.0513L15.9981 26.9999Z" fill="#0052FF"/>
<path d="M15.998 19.8856L22.9952 15.7131L15.998 12.5039V19.8856Z" fill="#0052FF" fill-opacity="0.2"/>
<path d="M9 15.7131L15.9981 19.8856V12.5039L9 15.7131Z" fill="#0052FF" fill-opacity="0.6"/>
</svg>
