<svg width="256" height="256" viewBox="0 0 256 256" fill="none" xmlns="http://www.w3.org/2000/svg">
<rect width="256" height="256" rx="128" fill="#0052FF"/>
<path fill-rule="evenodd" clip-rule="evenodd" d="M120.7 39V86.1173C104.828 88.4781 95.6931 98.8236 95.6931 111.23C95.6931 127.092 106.094 133.681 120.848 136.243L129.798 137.83C138.143 139.294 142.134 140.392 142.134 146.493C142.134 152.349 137.659 156.986 128.105 156.986C118.671 156.986 112.866 152.837 112.866 144.418H94C94 158.572 104.522 168.699 120.848 170.896V187.246H135.603V170.774C151.083 168.333 161 158.694 161 144.906C161 128.19 149.39 122.334 135.119 120.138L126.532 118.795C118.913 117.575 114.681 115.867 114.681 109.644C114.681 104.764 118.309 100.005 127.5 100.005C137.054 100.005 141.045 104.642 141.045 110.864H159.912C159.67 99.0536 151.239 88.8224 135.7 86.2336V39.1162C181.286 43.2568 217 81.5805 217 128.246C217 177.675 176.929 217.746 127.5 217.746C78.0705 217.746 38 177.675 38 128.246C38 81.1038 74.4472 42.4747 120.7 39Z" fill="white"/>
</svg>
