<svg viewBox="0 0 80 80" fill="none" xmlns="http://www.w3.org/2000/svg">
<g clip-path="url(#clip0_388_1849)">
<rect width="80" height="80" rx="40" fill="#00A3FF"/>
<path opacity="0.6" d="M54.7672 35.9437L55.1703 36.562C59.7161 43.5354 58.7009 52.6681 52.7294 58.5191C49.2164 61.9612 44.6122 63.6825 40.0079 63.683C40.0079 63.683 40.0079 63.683 54.7672 35.9437Z" fill="white"/>
<path opacity="0.2" d="M40.0061 44.3744L54.7655 35.9437C40.0062 63.683 40.0061 63.683 40.0061 63.683C40.0061 57.6415 40.0061 50.7189 40.0061 44.3744Z" fill="white"/>
<path d="M25.2328 35.9437L24.8297 36.562C20.2839 43.5354 21.2991 52.6681 27.2706 58.5191C30.7836 61.9612 35.3878 63.6825 39.9921 63.683C39.9921 63.683 39.9921 63.683 25.2328 35.9437Z" fill="white"/>
<path opacity="0.6" d="M39.9878 44.3744L25.2284 35.9437C39.9878 63.683 39.9878 63.683 39.9878 63.683C39.9878 57.6415 39.9878 50.7189 39.9878 44.3744Z" fill="white"/>
<path opacity="0.2" d="M40.0117 25.5405V40.0811L52.7253 32.8155L40.0117 25.5405Z" fill="white"/>
<path opacity="0.6" d="M40.0079 25.5405L27.2852 32.8154L40.0079 40.0811V25.5405Z" fill="white"/>
<path d="M40.0079 13.3118L27.2852 32.8199L40.0079 25.5246V13.3118Z" fill="white"/>
<path opacity="0.6" d="M40.0117 25.5226L52.735 32.8181L40.0117 13.3003V25.5226Z" fill="white"/>
<g opacity="0.7" filter="url(#filter0_f_388_1849)">
<path opacity="0.6" d="M62.2372 45.2369L62.6618 45.8882C67.45 53.2334 66.3806 62.8531 60.0907 69.0161C56.3904 72.6417 51.5407 74.4548 46.6908 74.4553C46.6908 74.4553 46.6908 74.4553 62.2372 45.2369Z" fill="white"/>
<path opacity="0.2" d="M46.6891 54.1171L62.2355 45.2369C46.6892 74.4553 46.6891 74.4553 46.6891 74.4553C46.6891 68.0917 46.6891 60.8 46.6891 54.1171Z" fill="white"/>
<path d="M31.1279 45.2369L30.7034 45.8882C25.9151 53.2334 26.9845 62.8531 33.2744 69.0161C36.9747 72.6417 41.8244 74.4548 46.6743 74.4553C46.6743 74.4553 46.6743 74.4553 31.1279 45.2369Z" fill="white"/>
<path opacity="0.6" d="M46.6698 54.1171L31.1234 45.2369C46.6698 74.4553 46.6698 74.4553 46.6698 74.4553C46.6698 68.0917 46.6698 60.8 46.6698 54.1171Z" fill="white"/>
<path opacity="0.2" d="M46.6949 34.2791V49.5949L60.0864 41.942L46.6949 34.2791Z" fill="white"/>
<path opacity="0.6" d="M46.691 34.2791L33.2898 41.9418L46.691 49.5949V34.2791Z" fill="white"/>
<path d="M46.691 21.3983L33.2898 41.9466L46.691 34.2623V21.3983Z" fill="white"/>
<path opacity="0.6" d="M46.6949 34.2601L60.0967 41.9446L46.6949 21.3861V34.2601Z" fill="white"/>
</g>
</g>
<defs>
<filter id="filter0_f_388_1849" x="-6.27722" y="-12.6139" width="105.92" height="121.069" filterUnits="userSpaceOnUse" color-interpolation-filters="sRGB">
<feFlood flood-opacity="0" result="BackgroundImageFix"/>
<feBlend mode="normal" in="SourceGraphic" in2="BackgroundImageFix" result="shape"/>
<feGaussianBlur stdDeviation="17" result="effect1_foregroundBlur_388_1849"/>
</filter>
<clipPath id="clip0_388_1849">
<rect width="80" height="80" rx="40" fill="white"/>
</clipPath>
</defs>
</svg>