<svg width="108" height="30" viewBox="0 0 108 30" fill="none" xmlns="http://www.w3.org/2000/svg">
<path fill-rule="evenodd" clip-rule="evenodd" d="M27.9269 18.82H25.8528V16.74H23.7787V14.66H21.7046V12.58H19.6306V6.34001H17.5565V4.26001H15.4824V16.74H17.5565V18.82H19.6306V29.22H30.0009V14.66H27.9269V18.82ZM23.7787 21.94V24.02H25.8528V21.94H23.7787Z" fill="#8A919E"/>
<path d="M11.334 4.25993H13.4081V2.17993H11.334V4.25993Z" fill="#8A919E"/>
<path d="M15.4823 2.1801V0.100098H13.4082V2.1801H15.4823Z" fill="#8A919E"/>
<path d="M17.5565 2.1801V0.100098H15.4824V2.1801H17.5565Z" fill="#8A919E"/>
<path d="M17.5547 4.25993H19.6288V2.17993H17.5547V4.25993Z" fill="#8A919E"/>
<path fill-rule="evenodd" clip-rule="evenodd" d="M15.4814 16.74V4.26001H13.4073V6.34001H11.3333V12.58H9.25919V14.66H7.18511V16.74H5.11104V18.82H3.03696V14.66H0.962891V29.22H11.3333V18.82H13.4073V16.74H15.4814ZM7.18511 21.94V24.02H5.11104V21.94H7.18511Z" fill="#8A919E"/>
<path d="M96.8432 29.6381C92.8141 29.6381 89.7852 26.0153 89.7852 21.4728C89.7852 16.9025 92.8141 13.28 96.8432 13.28C99.2053 13.28 101.234 14.4502 102.095 16.0945H102.234V9.32275H107.014V29.22H102.373V26.9905H102.234C100.817 29.0529 98.9274 29.6381 96.8432 29.6381ZM98.2326 25.1791C100.4 25.1791 101.678 23.6464 101.678 21.4728C101.678 19.2714 100.4 17.7387 98.2326 17.7387C96.0375 17.7387 94.8703 19.2714 94.8703 21.4728C94.8703 23.6464 96.0375 25.1791 98.2326 25.1791Z" fill="#8A919E"/>
<path d="M87.4271 29.22H82.7031V9.32275H87.4271V29.22Z" fill="#8A919E"/>
<path d="M76.7906 11.8029C75.3177 11.8029 74.123 10.6046 74.123 9.12754C74.123 7.67856 75.3177 6.48022 76.7906 6.48022C78.2357 6.48022 79.4303 7.67856 79.4303 9.12754C79.4303 10.6046 78.2357 11.8029 76.7906 11.8029ZM79.1527 29.1642H74.373V13.6978H79.1527V29.1642Z" fill="#8A919E"/>
<path d="M64.4019 29.6381C60.4002 29.6381 57.5938 26.8233 57.5938 23.0892V13.6978H62.3455V23.3958C62.3455 24.5382 63.068 25.1791 64.4019 25.1791C65.8745 25.1791 66.4303 24.3988 66.4303 23.3958V13.6978H71.2098V23.0892C71.2098 26.8233 68.431 29.6381 64.4019 29.6381Z" fill="#8A919E"/>
<path d="M46.4772 29.638C40.753 29.638 36.168 24.984 36.168 19.2713C36.168 13.5026 40.753 8.90454 46.4772 8.90454C49.3116 8.90454 52.4518 9.96352 54.1191 12.0537L51.2846 15.1747C50.0342 13.9207 48.8393 13.2798 46.4772 13.2798C43.4205 13.2798 40.9197 15.8156 40.9197 19.2713C40.9197 22.671 43.4205 25.2349 46.4772 25.2349C48.2279 25.2349 49.2839 24.9283 50.3953 23.8972V21.6399H46.4772V17.1811H55.0916V25.0396C54.2023 26.461 51.3123 29.638 46.4772 29.638Z" fill="#8A919E"/>
</svg>
