<svg width="242" height="84" viewBox="0 0 242 84" fill="none" xmlns="http://www.w3.org/2000/svg">
<path d="M0 82.5075V67.6852L34.6553 15.1087H3.89681V1.38428H52.1979V14.1159L16.0936 68.7899H53.6193V82.5144H0V82.5075Z" fill="#5B616E"/>
<path d="M52.5869 42.4459C52.5869 32.7834 54.008 24.8201 56.8374 18.5696C59.6731 12.3192 63.376 7.65579 67.9521 4.60045C72.5285 1.53115 78.0687 0 84.5863 0C94.0301 0 101.72 3.6356 107.662 10.8999C113.604 18.1711 116.579 28.5187 116.579 41.9493C116.579 55.3802 113.431 66.1333 107.135 73.768C101.609 80.5221 94.1066 83.8918 84.6278 83.8918C75.1495 83.8918 67.5429 80.5568 62.0169 73.8801C55.7277 66.2452 52.5798 55.7647 52.5869 42.4459ZM66.3089 41.8934C66.3089 51.2273 68.0698 58.2258 71.5853 62.8962C75.1008 67.5666 79.4623 69.9018 84.6696 69.9018C89.87 69.9018 94.2519 67.5875 97.6983 62.9592C101.144 58.3307 102.864 51.2202 102.864 41.6208C102.864 32.0282 101.186 25.2606 97.8297 20.758C94.4808 16.2624 90.085 14.0041 84.6625 14.0041C79.2402 14.0041 74.8233 16.2694 71.4193 20.8139C68.0076 25.3445 66.3089 32.3711 66.3089 41.8934Z" fill="#5B616E"/>
<path d="M120.315 82.5075V1.38428H148.357C155.526 1.38428 160.649 2.1114 163.72 3.56564C166.799 5.02688 169.325 7.55085 171.294 11.1445C173.269 14.7382 174.255 19.052 174.255 24.0649C174.255 30.4135 172.747 35.5174 169.727 39.3973C166.717 43.2779 162.431 45.7108 156.865 46.7037C159.72 48.7662 162.079 51.0315 163.944 53.4857C165.807 55.9396 168.355 60.337 171.57 66.6855L179.587 82.5144H163.696L154.049 64.8609C150.581 58.4775 148.225 54.4851 146.977 52.8773C145.728 51.2692 144.411 50.1645 143.024 49.5564C141.63 48.9477 139.405 48.6401 136.326 48.6401H133.58V82.5075H120.315ZM133.601 35.692H143.482C149.52 35.692 153.361 35.4262 155.006 34.8878C156.656 34.3496 157.987 33.2731 159.012 31.6509C160.031 30.0287 160.546 27.8753 160.546 25.1766C160.546 22.4779 160.031 20.5202 159.012 18.9541C157.987 17.388 156.6 16.3113 154.839 15.717C153.59 15.3115 149.991 15.1087 144.029 15.1087H133.601V35.692Z" fill="#5B616E"/>
<path d="M241.783 82.5075H227.345L221.571 64.1338H195.159L189.704 82.5075H175.545L201.233 1.38428H215.343L241.783 82.5075ZM217.277 50.4093L208.165 20.3035L199.228 50.4093H217.277Z" fill="#5B616E"/>
</svg>
