<svg width="819" height="499" viewBox="0 0 819 499" fill="none" xmlns="http://www.w3.org/2000/svg">
<path d="M714.741 608C697.422 608 682.42 603.975 669.735 595.925C657.295 587.875 647.782 577.264 641.196 564.092C634.853 550.92 631.682 536.65 631.682 521.282L631.316 311.624H653.636V434.565C653.636 445.298 656.197 455.299 661.32 464.568C666.686 473.594 673.882 480.79 682.908 486.156C692.177 491.523 702.3 494.206 713.277 494.206C724.01 494.206 733.889 491.523 742.915 486.156C752.184 480.79 759.38 473.594 764.502 464.568C769.869 455.299 772.552 445.298 772.552 434.565V356.629C772.552 340.286 776.943 328.089 785.724 320.04C794.75 311.99 805.239 307.965 817.191 307.965C825.485 307.965 832.803 310.039 839.145 314.185C845.731 318.088 851.83 323.821 857.44 331.382C863.05 338.7 869.758 349.189 877.564 362.849L993.919 562.263C998.31 569.581 1000.75 576.533 1001.24 583.119C1001.72 589.461 1000.14 594.583 996.48 598.486C993.065 602.389 987.821 604.341 980.747 604.341H839.877V410.416C839.877 404.318 837.682 399.073 833.291 394.682C828.9 390.292 823.534 388.096 817.191 388.096C809.63 388.096 803.897 390.414 799.994 395.048C796.335 399.439 794.506 404.562 794.506 410.416V521.282C794.506 547.871 788.774 568.971 777.309 584.582C766.088 600.194 745.232 608 714.741 608Z" fill="#B33AA2"/>
<path d="M73.1791 344.555V381.144H36.5896V344.555H73.1791ZM540.794 307.965V344.555H73.1791V307.965H540.794ZM36.5896 381.144V437.858H0V381.144H36.5896ZM73.1791 437.858V474.448H36.5896V437.858H73.1791ZM36.5896 474.448V531.162H0V474.448H36.5896ZM73.1791 531.162V567.751H36.5896V531.162H73.1791ZM540.794 567.751V604.341H73.1791V567.751H540.794ZM520.304 474.448V507.378H73.1791V474.448H520.304ZM540.794 567.751V531.162H577.383V567.751H540.794ZM577.383 531.162V474.448H613.973V531.162H577.383ZM540.794 474.448V437.858H577.383V474.448H540.794ZM577.383 437.858V381.144H613.973V437.858H577.383ZM540.794 381.144V344.555H577.383V381.144H540.794ZM93.3034 437.858V404.927H540.794V437.858H93.3034Z" fill="#098551"/>
<path d="M612.914 3.65527H904.533V140.5H886.238C884.531 118.79 877.945 98.9101 866.48 80.8593C855.015 62.5645 839.891 48.1726 821.109 37.6836C802.326 26.9506 781.714 21.5842 759.272 21.5842C736.099 21.5842 714.633 27.3165 694.875 38.7812C675.36 50.246 659.871 65.8575 648.406 85.6159C636.941 105.13 631.209 126.474 631.209 149.648C631.209 172.821 636.941 194.165 648.406 213.679C659.871 233.194 675.36 248.683 694.875 260.148C714.633 271.369 736.099 276.979 759.272 276.979C782.202 276.979 803.18 271.491 822.206 260.514C841.477 249.293 856.723 234.657 867.943 216.607C879.164 198.312 885.262 179.041 886.238 158.795H904.533V296.372H612.914V3.65527Z" fill="#CF470E"/>
<path d="M462.125 3.65898H488.835L478.224 35.126H482.615L483.713 32.5647C487.372 24.0272 493.958 16.4653 503.471 9.87919C512.985 3.29306 524.815 0 538.963 0C549.94 0 559.941 2.43931 568.967 7.31793C577.992 11.9526 585.066 18.7827 590.189 27.8081C595.555 36.8335 598.238 47.3225 598.238 59.2751V296.376H579.943C579.943 274.666 579.943 258.444 579.943 247.711C579.943 236.735 579.943 225.88 579.943 215.147C579.943 204.17 579.943 187.827 579.943 166.117C579.943 157.091 577.626 148.798 572.991 141.236C568.601 133.43 562.624 127.332 555.063 122.941C547.501 118.55 539.207 116.355 530.182 116.355C521.156 116.355 512.741 118.55 504.935 122.941C497.373 127.332 491.397 133.43 487.006 141.236C482.615 148.798 480.42 157.091 480.42 166.117C480.42 187.827 480.42 204.17 480.42 215.147C480.42 225.88 480.42 236.735 480.42 247.711C480.42 258.444 480.42 274.666 480.42 296.376H462.125V3.65898Z" fill="#B33AA2"/>
<path d="M29.0508 150.017C29.0508 119.038 37.7103 92.3277 55.0294 69.8861C72.5924 47.2006 97.2294 29.8815 128.94 17.9289C160.895 5.9763 198.095 0 240.539 0C282.738 0 319.694 5.9763 351.405 17.9289C383.116 29.8815 407.631 47.2006 424.95 69.8861C442.269 92.3277 450.929 119.038 450.929 150.017C450.929 180.996 442.269 207.829 424.95 230.514C407.631 252.956 383.116 270.153 351.405 282.106C319.694 294.058 282.738 300.034 240.539 300.034C198.095 300.034 160.895 294.058 128.94 282.106C97.2294 270.153 72.5924 252.956 55.0294 230.514C37.7103 207.829 29.0508 180.996 29.0508 150.017ZM407.753 222.831V76.8381H72.2265V222.831H407.753Z" fill="#8A55E9"/>
</svg>
