<svg width="24" height="24" viewBox="0 0 24 24" fill="none" xmlns="http://www.w3.org/2000/svg">
  <path
    d="M18.6362 18.9805H20.28L20.2737 18.9741V16.9543H5.87364C5.40214 16.9543 5.01346 16.5656 5.01346 16.0941C5.01346 15.6226 5.40214 15.2339 5.87364 15.2339L19.7124 15.2339L20.9995 6.97115L6.67066 5.96794L6.11576 3.00024H3.02549V5.02644H4.44001L5.97558 13.2204H5.88001C4.29346 13.2204 3 14.5139 3 16.1004C3 17.687 4.29346 18.9805 5.88001 18.9805H6.10299C6.10302 20.0955 7.00779 21.0002 8.12282 21.0002C9.23785 21.0002 10.1426 20.0955 10.1426 18.9805H14.5966C14.5966 20.0955 15.5014 21.0002 16.6164 21.0002C17.7314 21.0002 18.6362 20.0955 18.6362 18.9805ZM8.02924 13.2339L7.05051 7.99943L18.6883 8.81423L17.9999 13.2339H8.02924Z"
    fill="#3CC28A" />
</svg>