<svg width="24" height="24" viewBox="0 0 24 24" fill="none" xmlns="http://www.w3.org/2000/svg">
<path d="M19 12.5C19 17.7467 14.7467 22 9.5 22C4.25329 22 0 17.7467 0 12.5C0 7.25329 4.25329 3 9.5 3C14.7467 3 19 7.25329 19 12.5ZM9.5 7.25L8.10942 10.7654L4.5 11.0697L7.25 13.5466L6.40983 17.25L9.5 15.2654L12.5902 17.25L11.75 13.5466L14.5 11.0697L10.8906 10.7654L9.5 7.25Z" fill="#FF9533"/>
<path d="M24 12.5C24 15.697 22.4208 18.5251 20 20.2469V17.5991C21.2412 16.2609 22 14.4691 22 12.5C22 10.5309 21.2412 8.73907 20 7.40093V4.75311C22.4208 6.47491 24 9.30304 24 12.5Z" fill="#FF9533"/>
</svg>
