<svg width="24" height="24" viewBox="0 0 24 24" fill="none" xmlns="http://www.w3.org/2000/svg">
<path d="M10 2C8.89543 2 8 2.89543 8 4L18 4V18C19.1046 18 20 17.1046 20 16L20 2L10 2Z" fill="#CB51BB"/>
<path d="M13 14C11.5975 13.505 10.495 12.4025 10 11C9.505 12.4025 8.4025 13.505 7 14C8.4025 14.495 9.505 15.5975 10 17C10.495 15.5975 11.5975 14.495 13 14Z" fill="#CB51BB"/>
<path d="M6 6C4.89543 6 4 6.89543 4 8L4 22H14C15.1046 22 16 21.1046 16 20L16 6L6 6ZM6 8L14 8L14 20H6L6 8Z" fill="#CB51BB"/>
</svg>
