<svg width="414" height="269" viewBox="0 0 414 269" fill="none" xmlns="http://www.w3.org/2000/svg">
  <g clip-path="url(#clip0_10282_5286)">
    <rect x="-0.000213623" width="414" height="269" rx="16" fill="white" />
    <rect x="-13.0002" width="440" height="200.603" fill="url(#paint0_linear_10282_5286)" />
    <mask id="path-3-inside-1_10282_5286" fill="white">
      <path
        d="M-0.000213623 201H414V253C414 261.837 406.836 269 398 269H15.9998C7.16324 269 -0.000213623 261.837 -0.000213623 253V201Z" />
    </mask>
    <path
      d="M-0.000213623 201H414H-0.000213623ZM415 253C415 262.389 407.389 270 398 270H15.9998C6.61095 270 -1.00021 262.389 -1.00021 253H0.999786C0.999786 261.284 7.71552 268 15.9998 268H398C406.284 268 413 261.284 413 253H415ZM15.9998 270C6.61095 270 -1.00021 262.389 -1.00021 253V201H0.999786V253C0.999786 261.284 7.71552 268 15.9998 268V270ZM415 201V253C415 262.389 407.389 270 398 270V268C406.284 268 413 261.284 413 253V201H415Z"
      fill="#5B616E" fill-opacity="0.2" mask="url(#path-3-inside-1_10282_5286)" />
    <rect x="15.9998" y="213" width="382" height="44" rx="22" fill="#EEF0F3" />
  </g>
  <defs>
    <linearGradient id="paint0_linear_10282_5286" x1="207" y1="0" x2="207" y2="200.603" gradientUnits="userSpaceOnUse">
      <stop stop-color="#B139FF" />
      <stop offset="1" stop-color="#FF9533" />
    </linearGradient>
    <clipPath id="clip0_10282_5286">
      <rect x="-0.000213623" width="414" height="269" rx="16" fill="white" />
    </clipPath>
  </defs>
</svg>