<svg width="638" height="568" viewBox="0 0 638 568" fill="none" xmlns="http://www.w3.org/2000/svg">
  <g clip-path="url(#clip0_10282_4517)">
    <g filter="url(#filter0_b_10282_4517)">
      <path
        d="M0 24C0 10.7452 10.7571 0 24.012 0C250.48 0 387.52 0 613.988 0C627.243 0 638 10.7452 638 24V544C638 557.255 627.243 568 613.988 568C387.52 568 250.48 568 24.0119 568C10.7571 568 0 557.255 0 544V24Z"
        fill="#F4F4F4" />
    </g>
    <ellipse cx="2.51233" cy="2.51327" rx="2.51233" ry="2.51327" fill="#0052FF" fill-opacity="0.1" />
    <ellipse cx="2.51233" cy="213.628" rx="2.51233" ry="2.51327" fill="#0052FF" fill-opacity="0.1" />
    <ellipse cx="2.51233" cy="37.6991" rx="2.51233" ry="2.51327" fill="#0052FF" fill-opacity="0.1" />
    <ellipse cx="2.51233" cy="248.814" rx="2.51233" ry="2.51327" fill="#0052FF" fill-opacity="0.1" />
    <ellipse cx="2.51233" cy="72.8848" rx="2.51233" ry="2.51327" fill="#0052FF" fill-opacity="0.1" />
    <ellipse cx="2.51233" cy="283.999" rx="2.51233" ry="2.51327" fill="#0052FF" fill-opacity="0.1" />
    <ellipse cx="2.51233" cy="424.743" rx="2.51233" ry="2.51327" fill="#0052FF" fill-opacity="0.1" />
    <ellipse cx="2.51233" cy="108.071" rx="2.51233" ry="2.51327" fill="#0052FF" fill-opacity="0.1" />
    <ellipse cx="2.51233" cy="319.185" rx="2.51233" ry="2.51327" fill="#0052FF" fill-opacity="0.1" />
    <ellipse cx="2.51233" cy="459.928" rx="2.51233" ry="2.51327" fill="#0052FF" fill-opacity="0.1" />
    <ellipse cx="2.51233" cy="143.256" rx="2.51233" ry="2.51327" fill="#0052FF" fill-opacity="0.1" />
    <ellipse cx="2.51233" cy="354.371" rx="2.51233" ry="2.51327" fill="#0052FF" fill-opacity="0.1" />
    <ellipse cx="2.51233" cy="495.114" rx="2.51233" ry="2.51327" fill="#0052FF" fill-opacity="0.1" />
    <ellipse cx="2.51233" cy="178.441" rx="2.51233" ry="2.51327" fill="#0052FF" fill-opacity="0.1" />
    <ellipse cx="2.51233" cy="389.557" rx="2.51233" ry="2.51327" fill="#0052FF" fill-opacity="0.1" />
    <ellipse cx="2.51233" cy="530.301" rx="2.51233" ry="2.51327" fill="#0052FF" fill-opacity="0.1" />
    <ellipse cx="2.51233" cy="565.487" rx="2.51233" ry="2.51327" fill="#0052FF" fill-opacity="0.1" />
    <ellipse cx="283.893" cy="2.51327" rx="2.51233" ry="2.51327" fill="#0052FF" fill-opacity="0.1" />
    <ellipse cx="283.893" cy="213.628" rx="2.51233" ry="2.51327" fill="#0052FF" fill-opacity="0.1" />
    <ellipse cx="283.893" cy="37.6991" rx="2.51233" ry="2.51327" fill="#0052FF" fill-opacity="0.1" />
    <ellipse cx="283.893" cy="248.814" rx="2.51233" ry="2.51327" fill="#0052FF" fill-opacity="0.1" />
    <ellipse cx="283.893" cy="72.8848" rx="2.51233" ry="2.51327" fill="#0052FF" fill-opacity="0.1" />
    <ellipse cx="283.893" cy="283.999" rx="2.51233" ry="2.51327" fill="#0052FF" fill-opacity="0.1" />
    <ellipse cx="283.893" cy="424.743" rx="2.51233" ry="2.51327" fill="#0052FF" fill-opacity="0.1" />
    <ellipse cx="283.893" cy="108.071" rx="2.51233" ry="2.51327" fill="#0052FF" fill-opacity="0.1" />
    <ellipse cx="283.893" cy="319.185" rx="2.51233" ry="2.51327" fill="#0052FF" fill-opacity="0.1" />
    <ellipse cx="283.893" cy="459.928" rx="2.51233" ry="2.51327" fill="#0052FF" fill-opacity="0.1" />
    <ellipse cx="283.893" cy="143.256" rx="2.51233" ry="2.51327" fill="#0052FF" fill-opacity="0.1" />
    <ellipse cx="283.893" cy="354.371" rx="2.51233" ry="2.51327" fill="#0052FF" fill-opacity="0.1" />
    <ellipse cx="283.893" cy="495.114" rx="2.51233" ry="2.51327" fill="#0052FF" fill-opacity="0.1" />
    <ellipse cx="283.893" cy="178.441" rx="2.51233" ry="2.51327" fill="#0052FF" fill-opacity="0.1" />
    <ellipse cx="283.893" cy="389.557" rx="2.51233" ry="2.51327" fill="#0052FF" fill-opacity="0.1" />
    <ellipse cx="283.893" cy="530.301" rx="2.51233" ry="2.51327" fill="#0052FF" fill-opacity="0.1" />
    <ellipse cx="283.893" cy="565.487" rx="2.51233" ry="2.51327" fill="#0052FF" fill-opacity="0.1" />
    <ellipse cx="143.202" cy="2.51327" rx="2.51233" ry="2.51327" fill="#0052FF" fill-opacity="0.1" />
    <ellipse cx="143.202" cy="213.628" rx="2.51233" ry="2.51327" fill="#0052FF" fill-opacity="0.1" />
    <ellipse cx="143.202" cy="37.6991" rx="2.51233" ry="2.51327" fill="#0052FF" fill-opacity="0.1" />
    <ellipse cx="143.202" cy="248.814" rx="2.51233" ry="2.51327" fill="#0052FF" fill-opacity="0.1" />
    <ellipse cx="143.202" cy="72.8848" rx="2.51233" ry="2.51327" fill="#0052FF" fill-opacity="0.1" />
    <ellipse cx="143.202" cy="283.999" rx="2.51233" ry="2.51327" fill="#0052FF" fill-opacity="0.1" />
    <ellipse cx="143.202" cy="424.743" rx="2.51233" ry="2.51327" fill="#0052FF" fill-opacity="0.1" />
    <ellipse cx="143.202" cy="108.071" rx="2.51233" ry="2.51327" fill="#0052FF" fill-opacity="0.1" />
    <ellipse cx="143.202" cy="319.185" rx="2.51233" ry="2.51327" fill="#0052FF" fill-opacity="0.1" />
    <ellipse cx="143.202" cy="459.928" rx="2.51233" ry="2.51327" fill="#0052FF" fill-opacity="0.1" />
    <ellipse cx="143.202" cy="143.256" rx="2.51233" ry="2.51327" fill="#0052FF" fill-opacity="0.1" />
    <ellipse cx="143.202" cy="354.371" rx="2.51233" ry="2.51327" fill="#0052FF" fill-opacity="0.1" />
    <ellipse cx="143.202" cy="495.114" rx="2.51233" ry="2.51327" fill="#0052FF" fill-opacity="0.1" />
    <ellipse cx="143.202" cy="178.441" rx="2.51233" ry="2.51327" fill="#0052FF" fill-opacity="0.1" />
    <ellipse cx="143.202" cy="389.557" rx="2.51233" ry="2.51327" fill="#0052FF" fill-opacity="0.1" />
    <ellipse cx="143.202" cy="530.301" rx="2.51233" ry="2.51327" fill="#0052FF" fill-opacity="0.1" />
    <ellipse cx="143.202" cy="565.487" rx="2.51233" ry="2.51327" fill="#0052FF" fill-opacity="0.1" />
    <ellipse cx="424.584" cy="2.51327" rx="2.51233" ry="2.51327" fill="#0052FF" fill-opacity="0.1" />
    <ellipse cx="424.584" cy="213.628" rx="2.51233" ry="2.51327" fill="#0052FF" fill-opacity="0.1" />
    <ellipse cx="424.584" cy="37.6991" rx="2.51233" ry="2.51327" fill="#0052FF" fill-opacity="0.1" />
    <ellipse cx="424.584" cy="248.814" rx="2.51233" ry="2.51327" fill="#0052FF" fill-opacity="0.1" />
    <ellipse cx="424.584" cy="72.8848" rx="2.51233" ry="2.51327" fill="#0052FF" fill-opacity="0.1" />
    <ellipse cx="424.584" cy="283.999" rx="2.51233" ry="2.51327" fill="#0052FF" fill-opacity="0.1" />
    <ellipse cx="424.584" cy="424.743" rx="2.51233" ry="2.51327" fill="#0052FF" fill-opacity="0.1" />
    <ellipse cx="424.584" cy="108.071" rx="2.51233" ry="2.51327" fill="#0052FF" fill-opacity="0.1" />
    <ellipse cx="424.584" cy="319.185" rx="2.51233" ry="2.51327" fill="#0052FF" fill-opacity="0.1" />
    <ellipse cx="424.584" cy="459.928" rx="2.51233" ry="2.51327" fill="#0052FF" fill-opacity="0.1" />
    <ellipse cx="424.584" cy="143.256" rx="2.51233" ry="2.51327" fill="#0052FF" fill-opacity="0.1" />
    <ellipse cx="424.584" cy="354.371" rx="2.51233" ry="2.51327" fill="#0052FF" fill-opacity="0.1" />
    <ellipse cx="424.584" cy="495.114" rx="2.51233" ry="2.51327" fill="#0052FF" fill-opacity="0.1" />
    <ellipse cx="424.584" cy="178.441" rx="2.51233" ry="2.51327" fill="#0052FF" fill-opacity="0.1" />
    <ellipse cx="424.584" cy="389.557" rx="2.51233" ry="2.51327" fill="#0052FF" fill-opacity="0.1" />
    <ellipse cx="424.584" cy="530.301" rx="2.51233" ry="2.51327" fill="#0052FF" fill-opacity="0.1" />
    <ellipse cx="424.584" cy="565.487" rx="2.51233" ry="2.51327" fill="#0052FF" fill-opacity="0.1" />
    <ellipse cx="72.8572" cy="2.51327" rx="2.51233" ry="2.51327" fill="#0052FF" fill-opacity="0.1" />
    <ellipse cx="72.8572" cy="213.628" rx="2.51233" ry="2.51327" fill="#0052FF" fill-opacity="0.1" />
    <ellipse cx="72.8572" cy="37.6991" rx="2.51233" ry="2.51327" fill="#0052FF" fill-opacity="0.1" />
    <ellipse cx="72.8572" cy="248.814" rx="2.51233" ry="2.51327" fill="#0052FF" fill-opacity="0.1" />
    <ellipse cx="72.8572" cy="72.8848" rx="2.51233" ry="2.51327" fill="#0052FF" fill-opacity="0.1" />
    <ellipse cx="72.8572" cy="283.999" rx="2.51233" ry="2.51327" fill="#0052FF" fill-opacity="0.1" />
    <ellipse cx="72.8572" cy="424.743" rx="2.51233" ry="2.51327" fill="#0052FF" fill-opacity="0.1" />
    <ellipse cx="72.8572" cy="108.071" rx="2.51233" ry="2.51327" fill="#0052FF" fill-opacity="0.1" />
    <ellipse cx="72.8572" cy="319.185" rx="2.51233" ry="2.51327" fill="#0052FF" fill-opacity="0.1" />
    <ellipse cx="72.8572" cy="459.928" rx="2.51233" ry="2.51327" fill="#0052FF" fill-opacity="0.1" />
    <ellipse cx="72.8572" cy="143.256" rx="2.51233" ry="2.51327" fill="#0052FF" fill-opacity="0.1" />
    <ellipse cx="72.8572" cy="354.371" rx="2.51233" ry="2.51327" fill="#0052FF" fill-opacity="0.1" />
    <ellipse cx="72.8572" cy="495.114" rx="2.51233" ry="2.51327" fill="#0052FF" fill-opacity="0.1" />
    <ellipse cx="72.8572" cy="178.441" rx="2.51233" ry="2.51327" fill="#0052FF" fill-opacity="0.1" />
    <ellipse cx="72.8572" cy="389.557" rx="2.51233" ry="2.51327" fill="#0052FF" fill-opacity="0.1" />
    <ellipse cx="72.8572" cy="530.301" rx="2.51233" ry="2.51327" fill="#0052FF" fill-opacity="0.1" />
    <ellipse cx="72.8572" cy="565.487" rx="2.51233" ry="2.51327" fill="#0052FF" fill-opacity="0.1" />
    <ellipse cx="354.238" cy="2.51327" rx="2.51233" ry="2.51327" fill="#0052FF" fill-opacity="0.1" />
    <ellipse cx="354.238" cy="213.628" rx="2.51233" ry="2.51327" fill="#0052FF" fill-opacity="0.1" />
    <ellipse cx="354.238" cy="37.6991" rx="2.51233" ry="2.51327" fill="#0052FF" fill-opacity="0.1" />
    <ellipse cx="354.238" cy="248.814" rx="2.51233" ry="2.51327" fill="#0052FF" fill-opacity="0.1" />
    <ellipse cx="354.238" cy="72.8848" rx="2.51233" ry="2.51327" fill="#0052FF" fill-opacity="0.1" />
    <ellipse cx="354.238" cy="283.999" rx="2.51233" ry="2.51327" fill="#0052FF" fill-opacity="0.1" />
    <ellipse cx="354.238" cy="424.743" rx="2.51233" ry="2.51327" fill="#0052FF" fill-opacity="0.1" />
    <ellipse cx="354.238" cy="108.071" rx="2.51233" ry="2.51327" fill="#0052FF" fill-opacity="0.1" />
    <ellipse cx="354.238" cy="319.185" rx="2.51233" ry="2.51327" fill="#0052FF" fill-opacity="0.1" />
    <ellipse cx="354.238" cy="459.928" rx="2.51233" ry="2.51327" fill="#0052FF" fill-opacity="0.1" />
    <ellipse cx="354.238" cy="143.256" rx="2.51233" ry="2.51327" fill="#0052FF" fill-opacity="0.1" />
    <ellipse cx="354.238" cy="354.371" rx="2.51233" ry="2.51327" fill="#0052FF" fill-opacity="0.1" />
    <ellipse cx="354.238" cy="495.114" rx="2.51233" ry="2.51327" fill="#0052FF" fill-opacity="0.1" />
    <ellipse cx="354.238" cy="178.441" rx="2.51233" ry="2.51327" fill="#0052FF" fill-opacity="0.1" />
    <ellipse cx="354.238" cy="389.557" rx="2.51233" ry="2.51327" fill="#0052FF" fill-opacity="0.1" />
    <ellipse cx="354.238" cy="530.301" rx="2.51233" ry="2.51327" fill="#0052FF" fill-opacity="0.1" />
    <ellipse cx="354.238" cy="565.487" rx="2.51233" ry="2.51327" fill="#0052FF" fill-opacity="0.1" />
    <ellipse cx="213.548" cy="2.51327" rx="2.51233" ry="2.51327" fill="#0052FF" fill-opacity="0.1" />
    <ellipse cx="213.548" cy="213.628" rx="2.51233" ry="2.51327" fill="#0052FF" fill-opacity="0.1" />
    <ellipse cx="213.548" cy="37.6991" rx="2.51233" ry="2.51327" fill="#0052FF" fill-opacity="0.1" />
    <ellipse cx="213.548" cy="248.814" rx="2.51233" ry="2.51327" fill="#0052FF" fill-opacity="0.1" />
    <ellipse cx="213.548" cy="72.8848" rx="2.51233" ry="2.51327" fill="#0052FF" fill-opacity="0.1" />
    <ellipse cx="213.548" cy="283.999" rx="2.51233" ry="2.51327" fill="#0052FF" fill-opacity="0.1" />
    <ellipse cx="213.548" cy="424.743" rx="2.51233" ry="2.51327" fill="#0052FF" fill-opacity="0.1" />
    <ellipse cx="213.548" cy="108.071" rx="2.51233" ry="2.51327" fill="#0052FF" fill-opacity="0.1" />
    <ellipse cx="213.548" cy="319.185" rx="2.51233" ry="2.51327" fill="#0052FF" fill-opacity="0.1" />
    <ellipse cx="213.548" cy="459.928" rx="2.51233" ry="2.51327" fill="#0052FF" fill-opacity="0.1" />
    <ellipse cx="213.548" cy="143.256" rx="2.51233" ry="2.51327" fill="#0052FF" fill-opacity="0.1" />
    <ellipse cx="213.548" cy="354.371" rx="2.51233" ry="2.51327" fill="#0052FF" fill-opacity="0.1" />
    <ellipse cx="213.548" cy="495.114" rx="2.51233" ry="2.51327" fill="#0052FF" fill-opacity="0.1" />
    <ellipse cx="213.548" cy="178.441" rx="2.51233" ry="2.51327" fill="#0052FF" fill-opacity="0.1" />
    <ellipse cx="213.548" cy="389.557" rx="2.51233" ry="2.51327" fill="#0052FF" fill-opacity="0.1" />
    <ellipse cx="213.548" cy="530.301" rx="2.51233" ry="2.51327" fill="#0052FF" fill-opacity="0.1" />
    <ellipse cx="213.548" cy="565.487" rx="2.51233" ry="2.51327" fill="#0052FF" fill-opacity="0.1" />
    <ellipse cx="494.929" cy="2.51327" rx="2.51233" ry="2.51327" fill="#0052FF" fill-opacity="0.1" />
    <ellipse cx="494.929" cy="213.628" rx="2.51233" ry="2.51327" fill="#0052FF" fill-opacity="0.1" />
    <ellipse cx="494.929" cy="248.47" rx="2.51233" ry="2.51327" fill="#0052FF" fill-opacity="0.1" />
    <ellipse cx="494.929" cy="283.977" rx="2.51233" ry="2.51327" fill="#0052FF" fill-opacity="0.1" />
    <ellipse cx="494.929" cy="319.484" rx="2.51233" ry="2.51327" fill="#0052FF" fill-opacity="0.1" />
    <ellipse cx="494.929" cy="353.978" rx="2.51233" ry="2.51327" fill="#0052FF" fill-opacity="0.1" />
    <ellipse cx="494.929" cy="37.6991" rx="2.51233" ry="2.51327" fill="#0052FF" fill-opacity="0.1" />
    <ellipse cx="494.929" cy="72.8848" rx="2.51233" ry="2.51327" fill="#0052FF" fill-opacity="0.1" />
    <ellipse cx="494.929" cy="424.743" rx="2.51233" ry="2.51327" fill="#0052FF" fill-opacity="0.1" />
    <ellipse cx="494.929" cy="108.071" rx="2.51233" ry="2.51327" fill="#0052FF" fill-opacity="0.1" />
    <ellipse cx="494.929" cy="459.928" rx="2.51233" ry="2.51327" fill="#0052FF" fill-opacity="0.1" />
    <ellipse cx="494.929" cy="143.256" rx="2.51233" ry="2.51327" fill="#0052FF" fill-opacity="0.1" />
    <ellipse cx="494.929" cy="495.114" rx="2.51233" ry="2.51327" fill="#0052FF" fill-opacity="0.1" />
    <ellipse cx="494.929" cy="178.441" rx="2.51233" ry="2.51327" fill="#0052FF" fill-opacity="0.1" />
    <ellipse cx="494.929" cy="389.557" rx="2.51233" ry="2.51327" fill="#0052FF" fill-opacity="0.1" />
    <ellipse cx="494.929" cy="530.301" rx="2.51233" ry="2.51327" fill="#0052FF" fill-opacity="0.1" />
    <ellipse cx="494.929" cy="565.487" rx="2.51233" ry="2.51327" fill="#0052FF" fill-opacity="0.1" />
    <ellipse cx="37.6844" cy="2.51327" rx="2.51233" ry="2.51327" fill="#0052FF" fill-opacity="0.1" />
    <ellipse cx="37.6844" cy="213.628" rx="2.51233" ry="2.51327" fill="#0052FF" fill-opacity="0.1" />
    <ellipse cx="37.6844" cy="37.6991" rx="2.51233" ry="2.51327" fill="#0052FF" fill-opacity="0.1" />
    <ellipse cx="37.6844" cy="248.814" rx="2.51233" ry="2.51327" fill="#0052FF" fill-opacity="0.1" />
    <ellipse cx="37.6844" cy="72.8848" rx="2.51233" ry="2.51327" fill="#0052FF" fill-opacity="0.1" />
    <ellipse cx="37.6844" cy="283.999" rx="2.51233" ry="2.51327" fill="#0052FF" fill-opacity="0.1" />
    <ellipse cx="37.6844" cy="424.743" rx="2.51233" ry="2.51327" fill="#0052FF" fill-opacity="0.1" />
    <ellipse cx="37.6844" cy="108.071" rx="2.51233" ry="2.51327" fill="#0052FF" fill-opacity="0.1" />
    <ellipse cx="37.6844" cy="319.185" rx="2.51233" ry="2.51327" fill="#0052FF" fill-opacity="0.1" />
    <ellipse cx="37.6844" cy="459.928" rx="2.51233" ry="2.51327" fill="#0052FF" fill-opacity="0.1" />
    <ellipse cx="37.6844" cy="143.256" rx="2.51233" ry="2.51327" fill="#0052FF" fill-opacity="0.1" />
    <ellipse cx="37.6844" cy="354.371" rx="2.51233" ry="2.51327" fill="#0052FF" fill-opacity="0.1" />
    <ellipse cx="37.6844" cy="495.114" rx="2.51233" ry="2.51327" fill="#0052FF" fill-opacity="0.1" />
    <ellipse cx="37.6844" cy="178.441" rx="2.51233" ry="2.51327" fill="#0052FF" fill-opacity="0.1" />
    <ellipse cx="37.6844" cy="389.557" rx="2.51233" ry="2.51327" fill="#0052FF" fill-opacity="0.1" />
    <ellipse cx="37.6844" cy="530.301" rx="2.51233" ry="2.51327" fill="#0052FF" fill-opacity="0.1" />
    <ellipse cx="37.6844" cy="565.487" rx="2.51233" ry="2.51327" fill="#0052FF" fill-opacity="0.1" />
    <ellipse cx="319.066" cy="2.51327" rx="2.51233" ry="2.51327" fill="#0052FF" fill-opacity="0.1" />
    <ellipse cx="319.066" cy="213.628" rx="2.51233" ry="2.51327" fill="#0052FF" fill-opacity="0.1" />
    <ellipse cx="319.066" cy="37.6991" rx="2.51233" ry="2.51327" fill="#0052FF" fill-opacity="0.1" />
    <ellipse cx="319.066" cy="248.814" rx="2.51233" ry="2.51327" fill="#0052FF" fill-opacity="0.1" />
    <ellipse cx="319.066" cy="72.8848" rx="2.51233" ry="2.51327" fill="#0052FF" fill-opacity="0.1" />
    <ellipse cx="319.066" cy="283.999" rx="2.51233" ry="2.51327" fill="#0052FF" fill-opacity="0.1" />
    <ellipse cx="319.066" cy="424.743" rx="2.51233" ry="2.51327" fill="#0052FF" fill-opacity="0.1" />
    <ellipse cx="319.066" cy="108.071" rx="2.51233" ry="2.51327" fill="#0052FF" fill-opacity="0.1" />
    <ellipse cx="319.066" cy="319.185" rx="2.51233" ry="2.51327" fill="#0052FF" fill-opacity="0.1" />
    <ellipse cx="319.066" cy="459.928" rx="2.51233" ry="2.51327" fill="#0052FF" fill-opacity="0.1" />
    <ellipse cx="319.066" cy="143.256" rx="2.51233" ry="2.51327" fill="#0052FF" fill-opacity="0.1" />
    <ellipse cx="319.066" cy="354.371" rx="2.51233" ry="2.51327" fill="#0052FF" fill-opacity="0.1" />
    <ellipse cx="319.066" cy="495.114" rx="2.51233" ry="2.51327" fill="#0052FF" fill-opacity="0.1" />
    <ellipse cx="319.066" cy="178.441" rx="2.51233" ry="2.51327" fill="#0052FF" fill-opacity="0.1" />
    <ellipse cx="319.066" cy="389.557" rx="2.51233" ry="2.51327" fill="#0052FF" fill-opacity="0.1" />
    <ellipse cx="319.066" cy="530.301" rx="2.51233" ry="2.51327" fill="#0052FF" fill-opacity="0.1" />
    <ellipse cx="319.066" cy="565.487" rx="2.51233" ry="2.51327" fill="#0052FF" fill-opacity="0.1" />
    <ellipse cx="178.374" cy="2.51327" rx="2.51233" ry="2.51327" fill="#0052FF" fill-opacity="0.1" />
    <ellipse cx="178.374" cy="213.628" rx="2.51233" ry="2.51327" fill="#0052FF" fill-opacity="0.1" />
    <ellipse cx="178.374" cy="37.6991" rx="2.51233" ry="2.51327" fill="#0052FF" fill-opacity="0.1" />
    <ellipse cx="178.374" cy="248.814" rx="2.51233" ry="2.51327" fill="#0052FF" fill-opacity="0.1" />
    <ellipse cx="178.374" cy="72.8848" rx="2.51233" ry="2.51327" fill="#0052FF" fill-opacity="0.1" />
    <ellipse cx="178.374" cy="283.999" rx="2.51233" ry="2.51327" fill="#0052FF" fill-opacity="0.1" />
    <ellipse cx="178.374" cy="424.743" rx="2.51233" ry="2.51327" fill="#0052FF" fill-opacity="0.1" />
    <ellipse cx="178.374" cy="108.071" rx="2.51233" ry="2.51327" fill="#0052FF" fill-opacity="0.1" />
    <ellipse cx="178.374" cy="319.185" rx="2.51233" ry="2.51327" fill="#0052FF" fill-opacity="0.1" />
    <ellipse cx="178.374" cy="459.928" rx="2.51233" ry="2.51327" fill="#0052FF" fill-opacity="0.1" />
    <ellipse cx="178.374" cy="143.256" rx="2.51233" ry="2.51327" fill="#0052FF" fill-opacity="0.1" />
    <ellipse cx="178.374" cy="354.371" rx="2.51233" ry="2.51327" fill="#0052FF" fill-opacity="0.1" />
    <ellipse cx="178.374" cy="495.114" rx="2.51233" ry="2.51327" fill="#0052FF" fill-opacity="0.1" />
    <ellipse cx="178.374" cy="178.441" rx="2.51233" ry="2.51327" fill="#0052FF" fill-opacity="0.1" />
    <ellipse cx="178.374" cy="389.557" rx="2.51233" ry="2.51327" fill="#0052FF" fill-opacity="0.1" />
    <ellipse cx="178.374" cy="530.301" rx="2.51233" ry="2.51327" fill="#0052FF" fill-opacity="0.1" />
    <ellipse cx="178.374" cy="565.487" rx="2.51233" ry="2.51327" fill="#0052FF" fill-opacity="0.1" />
    <ellipse cx="459.756" cy="2.51327" rx="2.51233" ry="2.51327" fill="#0052FF" fill-opacity="0.1" />
    <ellipse cx="459.756" cy="213.628" rx="2.51233" ry="2.51327" fill="#0052FF" fill-opacity="0.1" />
    <ellipse cx="459.756" cy="37.6991" rx="2.51233" ry="2.51327" fill="#0052FF" fill-opacity="0.1" />
    <ellipse cx="459.756" cy="248.814" rx="2.51233" ry="2.51327" fill="#0052FF" fill-opacity="0.1" />
    <ellipse cx="459.756" cy="72.8848" rx="2.51233" ry="2.51327" fill="#0052FF" fill-opacity="0.1" />
    <ellipse cx="459.756" cy="283.999" rx="2.51233" ry="2.51327" fill="#0052FF" fill-opacity="0.1" />
    <ellipse cx="459.756" cy="424.743" rx="2.51233" ry="2.51327" fill="#0052FF" fill-opacity="0.1" />
    <ellipse cx="459.756" cy="108.071" rx="2.51233" ry="2.51327" fill="#0052FF" fill-opacity="0.1" />
    <ellipse cx="459.756" cy="319.185" rx="2.51233" ry="2.51327" fill="#0052FF" fill-opacity="0.1" />
    <ellipse cx="459.756" cy="459.928" rx="2.51233" ry="2.51327" fill="#0052FF" fill-opacity="0.1" />
    <ellipse cx="459.756" cy="143.256" rx="2.51233" ry="2.51327" fill="#0052FF" fill-opacity="0.1" />
    <ellipse cx="459.756" cy="354.371" rx="2.51233" ry="2.51327" fill="#0052FF" fill-opacity="0.1" />
    <ellipse cx="459.756" cy="495.114" rx="2.51233" ry="2.51327" fill="#0052FF" fill-opacity="0.1" />
    <ellipse cx="459.756" cy="178.441" rx="2.51233" ry="2.51327" fill="#0052FF" fill-opacity="0.1" />
    <ellipse cx="459.756" cy="389.557" rx="2.51233" ry="2.51327" fill="#0052FF" fill-opacity="0.1" />
    <ellipse cx="459.756" cy="530.301" rx="2.51233" ry="2.51327" fill="#0052FF" fill-opacity="0.1" />
    <ellipse cx="459.756" cy="565.487" rx="2.51233" ry="2.51327" fill="#0052FF" fill-opacity="0.1" />
    <ellipse cx="108.03" cy="2.51327" rx="2.51233" ry="2.51327" fill="#0052FF" fill-opacity="0.1" />
    <ellipse cx="108.03" cy="213.628" rx="2.51233" ry="2.51327" fill="#0052FF" fill-opacity="0.1" />
    <ellipse cx="108.03" cy="37.6991" rx="2.51233" ry="2.51327" fill="#0052FF" fill-opacity="0.1" />
    <ellipse cx="108.03" cy="248.814" rx="2.51233" ry="2.51327" fill="#0052FF" fill-opacity="0.1" />
    <ellipse cx="108.03" cy="72.8848" rx="2.51233" ry="2.51327" fill="#0052FF" fill-opacity="0.1" />
    <ellipse cx="108.03" cy="283.999" rx="2.51233" ry="2.51327" fill="#0052FF" fill-opacity="0.1" />
    <ellipse cx="108.03" cy="424.743" rx="2.51233" ry="2.51327" fill="#0052FF" fill-opacity="0.1" />
    <ellipse cx="108.03" cy="108.071" rx="2.51233" ry="2.51327" fill="#0052FF" fill-opacity="0.1" />
    <ellipse cx="108.03" cy="319.185" rx="2.51233" ry="2.51327" fill="#0052FF" fill-opacity="0.1" />
    <ellipse cx="108.03" cy="459.928" rx="2.51233" ry="2.51327" fill="#0052FF" fill-opacity="0.1" />
    <ellipse cx="108.03" cy="143.256" rx="2.51233" ry="2.51327" fill="#0052FF" fill-opacity="0.1" />
    <ellipse cx="108.03" cy="354.371" rx="2.51233" ry="2.51327" fill="#0052FF" fill-opacity="0.1" />
    <ellipse cx="108.03" cy="495.114" rx="2.51233" ry="2.51327" fill="#0052FF" fill-opacity="0.1" />
    <ellipse cx="108.03" cy="178.441" rx="2.51233" ry="2.51327" fill="#0052FF" fill-opacity="0.1" />
    <ellipse cx="108.03" cy="389.557" rx="2.51233" ry="2.51327" fill="#0052FF" fill-opacity="0.1" />
    <ellipse cx="108.03" cy="530.301" rx="2.51233" ry="2.51327" fill="#0052FF" fill-opacity="0.1" />
    <ellipse cx="108.03" cy="565.487" rx="2.51233" ry="2.51327" fill="#0052FF" fill-opacity="0.1" />
    <ellipse cx="389.411" cy="2.51327" rx="2.51233" ry="2.51327" fill="#0052FF" fill-opacity="0.1" />
    <ellipse cx="389.411" cy="213.628" rx="2.51233" ry="2.51327" fill="#0052FF" fill-opacity="0.1" />
    <ellipse cx="389.411" cy="37.6991" rx="2.51233" ry="2.51327" fill="#0052FF" fill-opacity="0.1" />
    <ellipse cx="389.411" cy="248.814" rx="2.51233" ry="2.51327" fill="#0052FF" fill-opacity="0.1" />
    <ellipse cx="389.411" cy="72.8848" rx="2.51233" ry="2.51327" fill="#0052FF" fill-opacity="0.1" />
    <ellipse cx="389.411" cy="283.999" rx="2.51233" ry="2.51327" fill="#0052FF" fill-opacity="0.1" />
    <ellipse cx="389.411" cy="424.743" rx="2.51233" ry="2.51327" fill="#0052FF" fill-opacity="0.1" />
    <ellipse cx="389.411" cy="108.071" rx="2.51233" ry="2.51327" fill="#0052FF" fill-opacity="0.1" />
    <ellipse cx="389.411" cy="319.185" rx="2.51233" ry="2.51327" fill="#0052FF" fill-opacity="0.1" />
    <ellipse cx="389.411" cy="459.928" rx="2.51233" ry="2.51327" fill="#0052FF" fill-opacity="0.1" />
    <ellipse cx="389.411" cy="143.256" rx="2.51233" ry="2.51327" fill="#0052FF" fill-opacity="0.1" />
    <ellipse cx="389.411" cy="354.371" rx="2.51233" ry="2.51327" fill="#0052FF" fill-opacity="0.1" />
    <ellipse cx="389.411" cy="495.114" rx="2.51233" ry="2.51327" fill="#0052FF" fill-opacity="0.1" />
    <ellipse cx="389.411" cy="178.441" rx="2.51233" ry="2.51327" fill="#0052FF" fill-opacity="0.1" />
    <ellipse cx="389.411" cy="389.557" rx="2.51233" ry="2.51327" fill="#0052FF" fill-opacity="0.1" />
    <ellipse cx="389.411" cy="530.301" rx="2.51233" ry="2.51327" fill="#0052FF" fill-opacity="0.1" />
    <ellipse cx="389.411" cy="565.487" rx="2.51233" ry="2.51327" fill="#0052FF" fill-opacity="0.1" />
    <ellipse cx="248.721" cy="2.51327" rx="2.51233" ry="2.51327" fill="#0052FF" fill-opacity="0.1" />
    <ellipse cx="248.721" cy="213.628" rx="2.51233" ry="2.51327" fill="#0052FF" fill-opacity="0.1" />
    <ellipse cx="248.721" cy="37.6991" rx="2.51233" ry="2.51327" fill="#0052FF" fill-opacity="0.1" />
    <ellipse cx="248.721" cy="248.814" rx="2.51233" ry="2.51327" fill="#0052FF" fill-opacity="0.1" />
    <ellipse cx="248.721" cy="72.8848" rx="2.51233" ry="2.51327" fill="#0052FF" fill-opacity="0.1" />
    <ellipse cx="248.721" cy="283.999" rx="2.51233" ry="2.51327" fill="#0052FF" fill-opacity="0.1" />
    <ellipse cx="248.721" cy="424.743" rx="2.51233" ry="2.51327" fill="#0052FF" fill-opacity="0.1" />
    <ellipse cx="248.721" cy="108.071" rx="2.51233" ry="2.51327" fill="#0052FF" fill-opacity="0.1" />
    <ellipse cx="248.721" cy="319.185" rx="2.51233" ry="2.51327" fill="#0052FF" fill-opacity="0.1" />
    <ellipse cx="248.721" cy="459.928" rx="2.51233" ry="2.51327" fill="#0052FF" fill-opacity="0.1" />
    <ellipse cx="248.721" cy="143.256" rx="2.51233" ry="2.51327" fill="#0052FF" fill-opacity="0.1" />
    <ellipse cx="248.721" cy="354.371" rx="2.51233" ry="2.51327" fill="#0052FF" fill-opacity="0.1" />
    <ellipse cx="248.721" cy="495.114" rx="2.51233" ry="2.51327" fill="#0052FF" fill-opacity="0.1" />
    <ellipse cx="248.721" cy="178.441" rx="2.51233" ry="2.51327" fill="#0052FF" fill-opacity="0.1" />
    <ellipse cx="248.721" cy="389.557" rx="2.51233" ry="2.51327" fill="#0052FF" fill-opacity="0.1" />
    <ellipse cx="248.721" cy="530.301" rx="2.51233" ry="2.51327" fill="#0052FF" fill-opacity="0.1" />
    <ellipse cx="248.721" cy="565.487" rx="2.51233" ry="2.51327" fill="#0052FF" fill-opacity="0.1" />
    <ellipse cx="530.101" cy="213.628" rx="2.51233" ry="2.51327" fill="#0052FF" fill-opacity="0.1" />
    <ellipse cx="530.101" cy="248.47" rx="2.51233" ry="2.51327" fill="#0052FF" fill-opacity="0.1" />
    <ellipse cx="530.101" cy="283.977" rx="2.51233" ry="2.51327" fill="#0052FF" fill-opacity="0.1" />
    <ellipse cx="530.101" cy="319.484" rx="2.51233" ry="2.51327" fill="#0052FF" fill-opacity="0.1" />
    <ellipse cx="530.101" cy="2.51327" rx="2.51233" ry="2.51327" fill="#0052FF" fill-opacity="0.1" />
    <ellipse cx="530.101" cy="353.978" rx="2.51233" ry="2.51327" fill="#0052FF" fill-opacity="0.1" />
    <ellipse cx="530.101" cy="37.6991" rx="2.51233" ry="2.51327" fill="#0052FF" fill-opacity="0.1" />
    <ellipse cx="530.101" cy="72.8848" rx="2.51233" ry="2.51327" fill="#0052FF" fill-opacity="0.1" />
    <ellipse cx="530.101" cy="108.071" rx="2.51233" ry="2.51327" fill="#0052FF" fill-opacity="0.1" />
    <ellipse cx="530.101" cy="459.928" rx="2.51233" ry="2.51327" fill="#0052FF" fill-opacity="0.1" />
    <ellipse cx="530.101" cy="143.256" rx="2.51233" ry="2.51327" fill="#0052FF" fill-opacity="0.1" />
    <ellipse cx="530.101" cy="495.114" rx="2.51233" ry="2.51327" fill="#0052FF" fill-opacity="0.1" />
    <ellipse cx="530.101" cy="178.441" rx="2.51233" ry="2.51327" fill="#0052FF" fill-opacity="0.1" />
    <ellipse cx="530.101" cy="389.557" rx="2.51233" ry="2.51327" fill="#0052FF" fill-opacity="0.1" />
    <ellipse cx="530.101" cy="424.993" rx="2.51233" ry="2.51327" fill="#0052FF" fill-opacity="0.1" />
    <ellipse cx="565.348" cy="389.557" rx="2.51233" ry="2.51327" fill="#0052FF" fill-opacity="0.1" />
    <ellipse cx="565.348" cy="424.993" rx="2.51233" ry="2.51327" fill="#0052FF" fill-opacity="0.1" />
    <ellipse cx="530.101" cy="530.301" rx="2.51233" ry="2.51327" fill="#0052FF" fill-opacity="0.1" />
    <ellipse cx="565.273" cy="213.628" rx="2.51233" ry="2.51327" fill="#0052FF" fill-opacity="0.1" />
    <ellipse cx="565.273" cy="248.47" rx="2.51233" ry="2.51327" fill="#0052FF" fill-opacity="0.1" />
    <ellipse cx="565.273" cy="283.977" rx="2.51233" ry="2.51327" fill="#0052FF" fill-opacity="0.1" />
    <ellipse cx="565.273" cy="319.484" rx="2.51233" ry="2.51327" fill="#0052FF" fill-opacity="0.1" />
    <ellipse cx="530.101" cy="565.487" rx="2.51233" ry="2.51327" fill="#0052FF" fill-opacity="0.1" />
    <ellipse cx="565.273" cy="2.51327" rx="2.51233" ry="2.51327" fill="#0052FF" fill-opacity="0.1" />
    <ellipse cx="565.273" cy="353.978" rx="2.51233" ry="2.51327" fill="#0052FF" fill-opacity="0.1" />
    <ellipse cx="565.273" cy="37.6991" rx="2.51233" ry="2.51327" fill="#0052FF" fill-opacity="0.1" />
    <ellipse cx="565.273" cy="72.8848" rx="2.51233" ry="2.51327" fill="#0052FF" fill-opacity="0.1" />
    <ellipse cx="565.273" cy="108.071" rx="2.51233" ry="2.51327" fill="#0052FF" fill-opacity="0.1" />
    <ellipse cx="565.273" cy="459.928" rx="2.51233" ry="2.51327" fill="#0052FF" fill-opacity="0.1" />
    <ellipse cx="565.273" cy="143.256" rx="2.51233" ry="2.51327" fill="#0052FF" fill-opacity="0.1" />
    <ellipse cx="565.273" cy="495.114" rx="2.51233" ry="2.51327" fill="#0052FF" fill-opacity="0.1" />
    <ellipse cx="565.273" cy="178.441" rx="2.51233" ry="2.51327" fill="#0052FF" fill-opacity="0.1" />
    <ellipse cx="565.273" cy="530.301" rx="2.51233" ry="2.51327" fill="#0052FF" fill-opacity="0.1" />
    <ellipse cx="565.273" cy="565.487" rx="2.51233" ry="2.51327" fill="#0052FF" fill-opacity="0.1" />
    <ellipse cx="635.619" cy="213.628" rx="2.51233" ry="2.51327" fill="#0052FF" fill-opacity="0.1" />
    <ellipse cx="635.619" cy="248.47" rx="2.51233" ry="2.51327" fill="#0052FF" fill-opacity="0.1" />
    <ellipse cx="635.619" cy="283.977" rx="2.51233" ry="2.51327" fill="#0052FF" fill-opacity="0.1" />
    <ellipse cx="635.619" cy="319.484" rx="2.51233" ry="2.51327" fill="#0052FF" fill-opacity="0.1" />
    <ellipse cx="635.619" cy="2.51327" rx="2.51233" ry="2.51327" fill="#0052FF" fill-opacity="0.1" />
    <ellipse cx="635.619" cy="353.978" rx="2.51233" ry="2.51327" fill="#0052FF" fill-opacity="0.1" />
    <ellipse cx="635.619" cy="37.6991" rx="2.51233" ry="2.51327" fill="#0052FF" fill-opacity="0.1" />
    <ellipse cx="635.619" cy="72.8848" rx="2.51233" ry="2.51327" fill="#0052FF" fill-opacity="0.1" />
    <ellipse cx="635.619" cy="108.071" rx="2.51233" ry="2.51327" fill="#0052FF" fill-opacity="0.1" />
    <ellipse cx="635.619" cy="459.928" rx="2.51233" ry="2.51327" fill="#0052FF" fill-opacity="0.1" />
    <ellipse cx="635.619" cy="143.256" rx="2.51233" ry="2.51327" fill="#0052FF" fill-opacity="0.1" />
    <ellipse cx="635.619" cy="495.114" rx="2.51233" ry="2.51327" fill="#0052FF" fill-opacity="0.1" />
    <ellipse cx="635.619" cy="389.557" rx="2.51233" ry="2.51327" fill="#0052FF" fill-opacity="0.1" />
    <ellipse cx="635.619" cy="178.441" rx="2.51233" ry="2.51327" fill="#0052FF" fill-opacity="0.1" />
    <ellipse cx="635.619" cy="424.993" rx="2.51233" ry="2.51327" fill="#0052FF" fill-opacity="0.1" />
    <ellipse cx="635.619" cy="530.301" rx="2.51233" ry="2.51327" fill="#0052FF" fill-opacity="0.1" />
    <ellipse cx="635.619" cy="565.487" rx="2.51233" ry="2.51327" fill="#0052FF" fill-opacity="0.1" />
    <ellipse cx="600.447" cy="213.628" rx="2.51233" ry="2.51327" fill="#0052FF" fill-opacity="0.1" />
    <ellipse cx="600.447" cy="248.47" rx="2.51233" ry="2.51327" fill="#0052FF" fill-opacity="0.1" />
    <ellipse cx="600.447" cy="283.977" rx="2.51233" ry="2.51327" fill="#0052FF" fill-opacity="0.1" />
    <ellipse cx="600.447" cy="319.484" rx="2.51233" ry="2.51327" fill="#0052FF" fill-opacity="0.1" />
    <ellipse cx="600.447" cy="2.51327" rx="2.51233" ry="2.51327" fill="#0052FF" fill-opacity="0.1" />
    <ellipse cx="600.447" cy="353.978" rx="2.51233" ry="2.51327" fill="#0052FF" fill-opacity="0.1" />
    <ellipse cx="600.447" cy="37.6991" rx="2.51233" ry="2.51327" fill="#0052FF" fill-opacity="0.1" />
    <ellipse cx="600.447" cy="72.8848" rx="2.51233" ry="2.51327" fill="#0052FF" fill-opacity="0.1" />
    <ellipse cx="600.447" cy="108.071" rx="2.51233" ry="2.51327" fill="#0052FF" fill-opacity="0.1" />
    <ellipse cx="600.447" cy="459.928" rx="2.51233" ry="2.51327" fill="#0052FF" fill-opacity="0.1" />
    <ellipse cx="600.447" cy="143.256" rx="2.51233" ry="2.51327" fill="#0052FF" fill-opacity="0.1" />
    <ellipse cx="600.447" cy="389.557" rx="2.51233" ry="2.51327" fill="#0052FF" fill-opacity="0.1" />
    <ellipse cx="600.447" cy="495.114" rx="2.51233" ry="2.51327" fill="#0052FF" fill-opacity="0.1" />
    <ellipse cx="600.447" cy="178.441" rx="2.51233" ry="2.51327" fill="#0052FF" fill-opacity="0.1" />
    <ellipse cx="600.447" cy="424.993" rx="2.51233" ry="2.51327" fill="#0052FF" fill-opacity="0.1" />
    <ellipse cx="600.447" cy="530.301" rx="2.51233" ry="2.51327" fill="#0052FF" fill-opacity="0.1" />
    <ellipse cx="600.447" cy="565.487" rx="2.51233" ry="2.51327" fill="#0052FF" fill-opacity="0.1" />
  </g>
  <defs>
    <filter id="filter0_b_10282_4517" x="-100" y="-100" width="838" height="768" filterUnits="userSpaceOnUse"
      color-interpolation-filters="sRGB">
      <feFlood flood-opacity="0" result="BackgroundImageFix" />
      <feGaussianBlur in="BackgroundImageFix" stdDeviation="50" />
      <feComposite in2="SourceAlpha" operator="in" result="effect1_backgroundBlur_10282_4517" />
      <feBlend mode="normal" in="SourceGraphic" in2="effect1_backgroundBlur_10282_4517" result="shape" />
    </filter>
    <clipPath id="clip0_10282_4517">
      <rect width="638" height="568" rx="24" fill="white" />
    </clipPath>
  </defs>
</svg>