<svg width="280" height="45" viewBox="0 0 280 45" fill="none" xmlns="http://www.w3.org/2000/svg">
<path d="M50.64 32C50.464 32 50.328 31.952 50.232 31.856C50.136 31.744 50.088 31.608 50.088 31.448V15.776C50.088 15.6 50.136 15.464 50.232 15.368C50.328 15.256 50.464 15.2 50.64 15.2H57.216C58.416 15.2 59.392 15.4 60.144 15.8C60.912 16.184 61.472 16.712 61.824 17.384C62.192 18.056 62.376 18.808 62.376 19.64C62.376 20.296 62.264 20.864 62.04 21.344C61.832 21.808 61.568 22.192 61.248 22.496C60.928 22.784 60.616 23.008 60.312 23.168C60.936 23.472 61.488 23.968 61.968 24.656C62.464 25.344 62.712 26.176 62.712 27.152C62.712 28.032 62.512 28.84 62.112 29.576C61.712 30.312 61.112 30.904 60.312 31.352C59.528 31.784 58.552 32 57.384 32H50.64ZM52.44 30.056H57.072C58.112 30.056 58.912 29.776 59.472 29.216C60.032 28.656 60.312 27.968 60.312 27.152C60.312 26.304 60.032 25.608 59.472 25.064C58.912 24.504 58.112 24.224 57.072 24.224H52.44V30.056ZM52.44 22.304H56.856C57.88 22.304 58.656 22.072 59.184 21.608C59.712 21.128 59.976 20.48 59.976 19.664C59.976 18.848 59.712 18.224 59.184 17.792C58.656 17.36 57.88 17.144 56.856 17.144H52.44V22.304ZM69.1433 32.24C68.1193 32.24 67.2473 32.016 66.5273 31.568C65.8233 31.104 65.2873 30.464 64.9193 29.648C64.5513 28.832 64.3673 27.896 64.3673 26.84V20.072C64.3673 19.912 64.4153 19.784 64.5113 19.688C64.6233 19.576 64.7593 19.52 64.9193 19.52H66.1193C66.2793 19.52 66.4073 19.576 66.5033 19.688C66.6153 19.784 66.6713 19.912 66.6713 20.072V26.72C66.6713 29.104 67.7113 30.296 69.7913 30.296C70.7833 30.296 71.5753 29.984 72.1673 29.36C72.7753 28.72 73.0793 27.84 73.0793 26.72V20.072C73.0793 19.912 73.1273 19.784 73.2233 19.688C73.3353 19.576 73.4713 19.52 73.6313 19.52H74.8073C74.9833 19.52 75.1193 19.576 75.2153 19.688C75.3113 19.784 75.3593 19.912 75.3593 20.072V31.448C75.3593 31.608 75.3113 31.744 75.2153 31.856C75.1193 31.952 74.9833 32 74.8073 32H73.7033C73.5433 32 73.4073 31.952 73.2953 31.856C73.1993 31.744 73.1513 31.608 73.1513 31.448V30.392C72.7193 30.952 72.1913 31.4 71.5673 31.736C70.9593 32.072 70.1513 32.24 69.1433 32.24ZM79.2368 32C79.0768 32 78.9408 31.952 78.8288 31.856C78.7328 31.744 78.6848 31.608 78.6848 31.448V20.072C78.6848 19.912 78.7328 19.784 78.8288 19.688C78.9408 19.576 79.0768 19.52 79.2368 19.52H80.3888C80.5488 19.52 80.6768 19.576 80.7728 19.688C80.8688 19.784 80.9168 19.912 80.9168 20.072V31.448C80.9168 31.608 80.8688 31.744 80.7728 31.856C80.6768 31.952 80.5488 32 80.3888 32H79.2368ZM79.0448 17.192C78.8848 17.192 78.7488 17.144 78.6368 17.048C78.5408 16.936 78.4928 16.8 78.4928 16.64V15.344C78.4928 15.184 78.5408 15.056 78.6368 14.96C78.7488 14.848 78.8848 14.792 79.0448 14.792H80.5568C80.7168 14.792 80.8448 14.848 80.9408 14.96C81.0528 15.056 81.1088 15.184 81.1088 15.344V16.64C81.1088 16.8 81.0528 16.936 80.9408 17.048C80.8448 17.144 80.7168 17.192 80.5568 17.192H79.0448ZM84.8333 32C84.6733 32 84.5373 31.952 84.4253 31.856C84.3293 31.744 84.2813 31.608 84.2813 31.448V15.512C84.2813 15.352 84.3293 15.224 84.4253 15.128C84.5373 15.016 84.6733 14.96 84.8333 14.96H85.9613C86.1373 14.96 86.2733 15.016 86.3693 15.128C86.4653 15.224 86.5133 15.352 86.5133 15.512V31.448C86.5133 31.608 86.4653 31.744 86.3693 31.856C86.2733 31.952 86.1373 32 85.9613 32H84.8333ZM94.7252 32C93.8292 32 93.1012 31.832 92.5412 31.496C91.9812 31.144 91.5732 30.656 91.3172 30.032C91.0612 29.392 90.9332 28.64 90.9332 27.776V21.44H89.0612C88.9012 21.44 88.7652 21.392 88.6532 21.296C88.5572 21.184 88.5092 21.048 88.5092 20.888V20.072C88.5092 19.912 88.5572 19.784 88.6532 19.688C88.7652 19.576 88.9012 19.52 89.0612 19.52H90.9332V15.512C90.9332 15.352 90.9812 15.224 91.0772 15.128C91.1892 15.016 91.3252 14.96 91.4852 14.96H92.6132C92.7732 14.96 92.9012 15.016 92.9972 15.128C93.1092 15.224 93.1652 15.352 93.1652 15.512V19.52H96.1412C96.3012 19.52 96.4292 19.576 96.5252 19.688C96.6372 19.784 96.6932 19.912 96.6932 20.072V20.888C96.6932 21.048 96.6372 21.184 96.5252 21.296C96.4292 21.392 96.3012 21.44 96.1412 21.44H93.1652V27.608C93.1652 28.36 93.2932 28.952 93.5492 29.384C93.8052 29.816 94.2612 30.032 94.9172 30.032H96.3812C96.5412 30.032 96.6692 30.088 96.7652 30.2C96.8772 30.296 96.9332 30.424 96.9332 30.584V31.448C96.9332 31.608 96.8772 31.744 96.7652 31.856C96.6692 31.952 96.5412 32 96.3812 32H94.7252ZM109.743 32.24C108.527 32.24 107.511 32.008 106.695 31.544C105.879 31.08 105.255 30.44 104.823 29.624C104.391 28.792 104.151 27.848 104.103 26.792C104.087 26.52 104.079 26.176 104.079 25.76C104.079 25.328 104.087 24.984 104.103 24.728C104.151 23.656 104.391 22.712 104.823 21.896C105.271 21.08 105.903 20.44 106.719 19.976C107.535 19.512 108.543 19.28 109.743 19.28C110.943 19.28 111.951 19.512 112.767 19.976C113.583 20.44 114.207 21.08 114.639 21.896C115.087 22.712 115.335 23.656 115.383 24.728C115.399 24.984 115.407 25.328 115.407 25.76C115.407 26.176 115.399 26.52 115.383 26.792C115.335 27.848 115.095 28.792 114.663 29.624C114.231 30.44 113.607 31.08 112.791 31.544C111.975 32.008 110.959 32.24 109.743 32.24ZM109.743 30.392C110.735 30.392 111.527 30.08 112.119 29.456C112.711 28.816 113.031 27.888 113.079 26.672C113.095 26.432 113.103 26.128 113.103 25.76C113.103 25.392 113.095 25.088 113.079 24.848C113.031 23.632 112.711 22.712 112.119 22.088C111.527 21.448 110.735 21.128 109.743 21.128C108.751 21.128 107.951 21.448 107.343 22.088C106.751 22.712 106.439 23.632 106.407 24.848C106.391 25.088 106.383 25.392 106.383 25.76C106.383 26.128 106.391 26.432 106.407 26.672C106.439 27.888 106.751 28.816 107.343 29.456C107.951 30.08 108.751 30.392 109.743 30.392ZM118.364 32C118.204 32 118.068 31.952 117.956 31.856C117.86 31.744 117.812 31.608 117.812 31.448V20.072C117.812 19.912 117.86 19.784 117.956 19.688C118.068 19.576 118.204 19.52 118.364 19.52H119.492C119.652 19.52 119.78 19.576 119.876 19.688C119.988 19.784 120.044 19.912 120.044 20.072V21.128C120.46 20.584 120.98 20.144 121.604 19.808C122.244 19.456 123.06 19.28 124.052 19.28C125.092 19.28 125.972 19.512 126.692 19.976C127.428 20.424 127.98 21.056 128.348 21.872C128.716 22.672 128.9 23.608 128.9 24.68V31.448C128.9 31.608 128.852 31.744 128.756 31.856C128.66 31.952 128.532 32 128.372 32H127.172C127.012 32 126.876 31.952 126.764 31.856C126.668 31.744 126.62 31.608 126.62 31.448V24.8C126.62 23.68 126.348 22.808 125.804 22.184C125.26 21.544 124.46 21.224 123.404 21.224C122.412 21.224 121.612 21.544 121.004 22.184C120.412 22.808 120.116 23.68 120.116 24.8V31.448C120.116 31.608 120.06 31.744 119.948 31.856C119.852 31.952 119.724 32 119.564 32H118.364ZM142.126 32C141.23 32 140.502 31.832 139.942 31.496C139.382 31.144 138.974 30.656 138.718 30.032C138.462 29.392 138.334 28.64 138.334 27.776V21.44H136.462C136.302 21.44 136.166 21.392 136.054 21.296C135.958 21.184 135.91 21.048 135.91 20.888V20.072C135.91 19.912 135.958 19.784 136.054 19.688C136.166 19.576 136.302 19.52 136.462 19.52H138.334V15.512C138.334 15.352 138.382 15.224 138.478 15.128C138.59 15.016 138.726 14.96 138.886 14.96H140.014C140.174 14.96 140.302 15.016 140.398 15.128C140.51 15.224 140.566 15.352 140.566 15.512V19.52H143.542C143.702 19.52 143.83 19.576 143.926 19.688C144.038 19.784 144.094 19.912 144.094 20.072V20.888C144.094 21.048 144.038 21.184 143.926 21.296C143.83 21.392 143.702 21.44 143.542 21.44H140.566V27.608C140.566 28.36 140.694 28.952 140.95 29.384C141.206 29.816 141.662 30.032 142.318 30.032H143.782C143.942 30.032 144.07 30.088 144.166 30.2C144.278 30.296 144.334 30.424 144.334 30.584V31.448C144.334 31.608 144.278 31.744 144.166 31.856C144.07 31.952 143.942 32 143.782 32H142.126ZM146.965 32C146.805 32 146.669 31.952 146.557 31.856C146.461 31.744 146.413 31.608 146.413 31.448V15.512C146.413 15.352 146.461 15.224 146.557 15.128C146.669 15.016 146.805 14.96 146.965 14.96H148.165C148.341 14.96 148.477 15.016 148.573 15.128C148.669 15.224 148.717 15.352 148.717 15.512V21.104C149.149 20.56 149.677 20.12 150.301 19.784C150.925 19.448 151.717 19.28 152.677 19.28C153.717 19.28 154.597 19.512 155.317 19.976C156.053 20.424 156.605 21.056 156.973 21.872C157.357 22.672 157.549 23.608 157.549 24.68V31.448C157.549 31.608 157.501 31.744 157.405 31.856C157.309 31.952 157.173 32 156.997 32H155.797C155.637 32 155.501 31.952 155.389 31.856C155.293 31.744 155.245 31.608 155.245 31.448V24.8C155.245 23.68 154.973 22.808 154.429 22.184C153.885 21.544 153.085 21.224 152.029 21.224C151.037 21.224 150.237 21.544 149.629 22.184C149.021 22.808 148.717 23.68 148.717 24.8V31.448C148.717 31.608 148.669 31.744 148.573 31.856C148.477 31.952 148.341 32 148.165 32H146.965ZM165.742 32.24C164.094 32.24 162.782 31.736 161.806 30.728C160.83 29.704 160.294 28.312 160.198 26.552C160.182 26.344 160.174 26.08 160.174 25.76C160.174 25.424 160.182 25.152 160.198 24.944C160.262 23.808 160.526 22.816 160.99 21.968C161.454 21.104 162.086 20.44 162.886 19.976C163.702 19.512 164.654 19.28 165.742 19.28C166.958 19.28 167.974 19.536 168.79 20.048C169.622 20.56 170.254 21.288 170.686 22.232C171.118 23.176 171.334 24.28 171.334 25.544V25.952C171.334 26.128 171.278 26.264 171.166 26.36C171.07 26.456 170.942 26.504 170.782 26.504H162.478C162.478 26.52 162.478 26.552 162.478 26.6C162.478 26.648 162.478 26.688 162.478 26.72C162.51 27.376 162.654 27.992 162.91 28.568C163.166 29.128 163.534 29.584 164.014 29.936C164.494 30.288 165.07 30.464 165.742 30.464C166.318 30.464 166.798 30.376 167.182 30.2C167.566 30.024 167.878 29.832 168.118 29.624C168.358 29.4 168.518 29.232 168.598 29.12C168.742 28.912 168.854 28.792 168.934 28.76C169.014 28.712 169.142 28.688 169.318 28.688H170.47C170.63 28.688 170.758 28.736 170.854 28.832C170.966 28.912 171.014 29.032 170.998 29.192C170.982 29.432 170.854 29.728 170.614 30.08C170.374 30.416 170.03 30.752 169.582 31.088C169.134 31.424 168.59 31.704 167.95 31.928C167.31 32.136 166.574 32.24 165.742 32.24ZM162.478 24.848H169.054V24.776C169.054 24.056 168.918 23.416 168.646 22.856C168.39 22.296 168.014 21.856 167.518 21.536C167.022 21.2 166.43 21.032 165.742 21.032C165.054 21.032 164.462 21.2 163.966 21.536C163.486 21.856 163.118 22.296 162.862 22.856C162.606 23.416 162.478 24.056 162.478 24.776V24.848ZM185.943 32.24C184.583 32.24 183.415 32.008 182.439 31.544C181.463 31.064 180.711 30.336 180.183 29.36C179.655 28.368 179.359 27.128 179.295 25.64C179.279 24.936 179.271 24.264 179.271 23.624C179.271 22.968 179.279 22.288 179.295 21.584C179.359 20.112 179.663 18.888 180.207 17.912C180.767 16.92 181.535 16.184 182.511 15.704C183.503 15.208 184.647 14.96 185.943 14.96C187.255 14.96 188.399 15.208 189.375 15.704C190.367 16.184 191.143 16.92 191.703 17.912C192.263 18.888 192.567 20.112 192.615 21.584C192.647 22.288 192.663 22.968 192.663 23.624C192.663 24.264 192.647 24.936 192.615 25.64C192.567 27.128 192.271 28.368 191.727 29.36C191.199 30.336 190.447 31.064 189.471 31.544C188.495 32.008 187.319 32.24 185.943 32.24ZM185.943 30.2C187.175 30.2 188.175 29.832 188.943 29.096C189.727 28.36 190.151 27.168 190.215 25.52C190.247 24.8 190.263 24.16 190.263 23.6C190.263 23.024 190.247 22.384 190.215 21.68C190.183 20.576 189.975 19.68 189.591 18.992C189.223 18.304 188.727 17.8 188.103 17.48C187.479 17.16 186.759 17 185.943 17C185.159 17 184.455 17.16 183.831 17.48C183.207 17.8 182.703 18.304 182.319 18.992C181.951 19.68 181.743 20.576 181.695 21.68C181.679 22.384 181.671 23.024 181.671 23.6C181.671 24.16 181.679 24.8 181.695 25.52C181.759 27.168 182.183 28.36 182.967 29.096C183.751 29.832 184.743 30.2 185.943 30.2ZM196.113 32C195.937 32 195.801 31.952 195.705 31.856C195.609 31.744 195.561 31.608 195.561 31.448V15.776C195.561 15.6 195.609 15.464 195.705 15.368C195.801 15.256 195.937 15.2 196.113 15.2H202.209C203.393 15.2 204.417 15.392 205.281 15.776C206.161 16.16 206.841 16.736 207.321 17.504C207.801 18.256 208.041 19.2 208.041 20.336C208.041 21.472 207.801 22.416 207.321 23.168C206.841 23.92 206.161 24.488 205.281 24.872C204.417 25.256 203.393 25.448 202.209 25.448H197.961V31.448C197.961 31.608 197.905 31.744 197.793 31.856C197.697 31.952 197.561 32 197.385 32H196.113ZM197.937 23.432H202.089C203.273 23.432 204.161 23.168 204.753 22.64C205.345 22.112 205.641 21.344 205.641 20.336C205.641 19.344 205.353 18.576 204.777 18.032C204.201 17.488 203.305 17.216 202.089 17.216H197.937V23.432ZM221.223 32.24C219.831 32.24 218.663 32.032 217.719 31.616C216.775 31.184 216.047 30.632 215.535 29.96C215.039 29.272 214.775 28.544 214.743 27.776C214.743 27.648 214.791 27.536 214.887 27.44C214.999 27.328 215.127 27.272 215.271 27.272H216.495C216.687 27.272 216.831 27.32 216.927 27.416C217.023 27.512 217.087 27.624 217.119 27.752C217.199 28.136 217.391 28.52 217.695 28.904C218.015 29.272 218.455 29.584 219.015 29.84C219.591 30.08 220.327 30.2 221.223 30.2C222.599 30.2 223.607 29.96 224.247 29.48C224.903 28.984 225.231 28.328 225.231 27.512C225.231 26.952 225.055 26.504 224.703 26.168C224.367 25.816 223.847 25.504 223.143 25.232C222.439 24.96 221.527 24.664 220.407 24.344C219.239 24.008 218.271 23.64 217.503 23.24C216.735 22.84 216.159 22.344 215.775 21.752C215.407 21.16 215.223 20.408 215.223 19.496C215.223 18.632 215.455 17.864 215.919 17.192C216.383 16.504 217.047 15.96 217.911 15.56C218.791 15.16 219.855 14.96 221.103 14.96C222.095 14.96 222.959 15.096 223.695 15.368C224.447 15.624 225.071 15.976 225.567 16.424C226.063 16.856 226.439 17.328 226.695 17.84C226.951 18.336 227.087 18.824 227.103 19.304C227.103 19.416 227.063 19.528 226.983 19.64C226.903 19.736 226.775 19.784 226.599 19.784H225.327C225.215 19.784 225.095 19.752 224.967 19.688C224.855 19.624 224.767 19.504 224.703 19.328C224.607 18.672 224.239 18.12 223.599 17.672C222.959 17.224 222.127 17 221.103 17C220.063 17 219.215 17.2 218.559 17.6C217.919 18 217.599 18.624 217.599 19.472C217.599 20.016 217.751 20.472 218.055 20.84C218.359 21.192 218.839 21.504 219.495 21.776C220.151 22.048 221.007 22.336 222.063 22.64C223.343 22.992 224.391 23.368 225.207 23.768C226.023 24.152 226.623 24.64 227.007 25.232C227.407 25.808 227.607 26.552 227.607 27.464C227.607 28.472 227.343 29.336 226.815 30.056C226.287 30.76 225.543 31.304 224.583 31.688C223.639 32.056 222.519 32.24 221.223 32.24ZM234.713 32C233.817 32 233.089 31.832 232.529 31.496C231.969 31.144 231.561 30.656 231.305 30.032C231.049 29.392 230.921 28.64 230.921 27.776V21.44H229.049C228.889 21.44 228.753 21.392 228.641 21.296C228.545 21.184 228.497 21.048 228.497 20.888V20.072C228.497 19.912 228.545 19.784 228.641 19.688C228.753 19.576 228.889 19.52 229.049 19.52H230.921V15.512C230.921 15.352 230.969 15.224 231.065 15.128C231.177 15.016 231.313 14.96 231.473 14.96H232.601C232.761 14.96 232.889 15.016 232.985 15.128C233.097 15.224 233.153 15.352 233.153 15.512V19.52H236.129C236.289 19.52 236.417 19.576 236.513 19.688C236.625 19.784 236.681 19.912 236.681 20.072V20.888C236.681 21.048 236.625 21.184 236.513 21.296C236.417 21.392 236.289 21.44 236.129 21.44H233.153V27.608C233.153 28.36 233.281 28.952 233.537 29.384C233.793 29.816 234.249 30.032 234.905 30.032H236.369C236.529 30.032 236.657 30.088 236.753 30.2C236.865 30.296 236.921 30.424 236.921 30.584V31.448C236.921 31.608 236.865 31.744 236.753 31.856C236.657 31.952 236.529 32 236.369 32H234.713ZM242.456 32.24C241.656 32.24 240.928 32.08 240.272 31.76C239.616 31.44 239.088 31.008 238.688 30.464C238.288 29.92 238.088 29.304 238.088 28.616C238.088 27.512 238.536 26.632 239.432 25.976C240.328 25.32 241.496 24.888 242.936 24.68L246.512 24.176V23.48C246.512 22.712 246.288 22.112 245.84 21.68C245.408 21.248 244.696 21.032 243.704 21.032C242.984 21.032 242.4 21.176 241.952 21.464C241.52 21.752 241.216 22.12 241.04 22.568C240.944 22.808 240.776 22.928 240.536 22.928H239.456C239.28 22.928 239.144 22.88 239.048 22.784C238.968 22.672 238.928 22.544 238.928 22.4C238.928 22.16 239.016 21.864 239.192 21.512C239.384 21.16 239.672 20.816 240.056 20.48C240.44 20.144 240.928 19.864 241.52 19.64C242.128 19.4 242.864 19.28 243.728 19.28C244.688 19.28 245.496 19.408 246.152 19.664C246.808 19.904 247.32 20.232 247.688 20.648C248.072 21.064 248.344 21.536 248.504 22.064C248.68 22.592 248.768 23.128 248.768 23.672V31.448C248.768 31.608 248.712 31.744 248.6 31.856C248.504 31.952 248.376 32 248.216 32H247.112C246.936 32 246.8 31.952 246.704 31.856C246.608 31.744 246.56 31.608 246.56 31.448V30.416C246.352 30.704 246.072 30.992 245.72 31.28C245.368 31.552 244.928 31.784 244.4 31.976C243.872 32.152 243.224 32.24 242.456 32.24ZM242.96 30.44C243.616 30.44 244.216 30.304 244.76 30.032C245.304 29.744 245.728 29.304 246.032 28.712C246.352 28.12 246.512 27.376 246.512 26.48V25.808L243.728 26.216C242.592 26.376 241.736 26.648 241.16 27.032C240.584 27.4 240.296 27.872 240.296 28.448C240.296 28.896 240.424 29.272 240.68 29.576C240.952 29.864 241.288 30.08 241.688 30.224C242.104 30.368 242.528 30.44 242.96 30.44ZM256.778 32.24C255.642 32.24 254.658 32.024 253.826 31.592C253.01 31.144 252.378 30.512 251.93 29.696C251.482 28.864 251.242 27.872 251.21 26.72C251.194 26.48 251.186 26.16 251.186 25.76C251.186 25.36 251.194 25.04 251.21 24.8C251.242 23.648 251.482 22.664 251.93 21.848C252.378 21.016 253.01 20.384 253.826 19.952C254.658 19.504 255.642 19.28 256.778 19.28C257.706 19.28 258.498 19.408 259.154 19.664C259.826 19.92 260.378 20.248 260.81 20.648C261.242 21.048 261.562 21.48 261.77 21.944C261.994 22.408 262.114 22.848 262.13 23.264C262.146 23.424 262.098 23.552 261.986 23.648C261.874 23.744 261.738 23.792 261.578 23.792H260.426C260.266 23.792 260.146 23.76 260.066 23.696C259.986 23.616 259.906 23.488 259.826 23.312C259.538 22.528 259.146 21.976 258.65 21.656C258.154 21.336 257.538 21.176 256.802 21.176C255.842 21.176 255.058 21.472 254.45 22.064C253.858 22.656 253.538 23.608 253.49 24.92C253.474 25.496 253.474 26.056 253.49 26.6C253.538 27.928 253.858 28.888 254.45 29.48C255.058 30.056 255.842 30.344 256.802 30.344C257.538 30.344 258.154 30.184 258.65 29.864C259.146 29.544 259.538 28.992 259.826 28.208C259.906 28.032 259.986 27.912 260.066 27.848C260.146 27.768 260.266 27.728 260.426 27.728H261.578C261.738 27.728 261.874 27.776 261.986 27.872C262.098 27.968 262.146 28.096 262.13 28.256C262.114 28.592 262.042 28.936 261.914 29.288C261.786 29.64 261.578 30 261.29 30.368C261.018 30.72 260.674 31.04 260.258 31.328C259.842 31.6 259.338 31.824 258.746 32C258.17 32.16 257.514 32.24 256.778 32.24ZM265.076 32C264.916 32 264.78 31.952 264.668 31.856C264.572 31.744 264.524 31.608 264.524 31.448V15.512C264.524 15.352 264.572 15.224 264.668 15.128C264.78 15.016 264.916 14.96 265.076 14.96H266.204C266.364 14.96 266.492 15.016 266.588 15.128C266.7 15.224 266.756 15.352 266.756 15.512V23.864L271.484 19.928C271.676 19.768 271.82 19.664 271.916 19.616C272.028 19.552 272.204 19.52 272.444 19.52H273.716C273.86 19.52 273.98 19.568 274.076 19.664C274.172 19.76 274.22 19.88 274.22 20.024C274.22 20.088 274.196 20.16 274.148 20.24C274.116 20.32 274.044 20.4 273.932 20.48L268.388 25.088L274.532 31.064C274.724 31.224 274.82 31.368 274.82 31.496C274.82 31.64 274.772 31.76 274.676 31.856C274.58 31.952 274.46 32 274.316 32H273.068C272.828 32 272.652 31.976 272.54 31.928C272.428 31.864 272.284 31.752 272.108 31.592L266.756 26.48V31.448C266.756 31.608 266.7 31.744 266.588 31.856C266.492 31.952 266.364 32 266.204 32H265.076Z" fill="white"/>
<path fillRule="evenodd" clipRule="evenodd" d="M23 41C13.0589 41 5 32.9411 5 23C5 13.0589 13.0589 5 23 5C32.9411 5 41 13.0589 41 23C41 32.9411 32.9411 41 23 41ZM14.3619 29.1866C14.9451 29.3702 15.5769 29.462 16.2573 29.462C17.8233 29.462 19.0707 29.1002 19.9995 28.3766C20.9283 27.6422 21.5763 26.5352 21.9435 25.0556C22.0515 24.5912 22.1541 24.1268 22.2513 23.6624C22.3593 23.198 22.4511 22.7282 22.5267 22.253C22.6563 21.5186 22.6347 20.876 22.4619 20.3252C22.2999 19.7744 22.0137 19.31 21.6033 18.932C21.2037 18.554 20.7123 18.2732 20.1291 18.0896C19.5567 17.8952 18.9303 17.798 18.2499 17.798C16.6731 17.798 15.4203 18.176 14.4915 18.932C13.5627 19.688 12.9201 20.795 12.5637 22.253C12.4557 22.7282 12.3477 23.198 12.2397 23.6624C12.1425 24.1268 12.0507 24.5912 11.9643 25.0556C11.8455 25.79 11.8671 26.4326 12.0291 26.9834C12.2019 27.5342 12.4881 27.9932 12.8877 28.3604C13.2873 28.7276 13.7787 29.003 14.3619 29.1866ZM18.0069 26.6108C17.5641 26.9564 17.0511 27.1292 16.4679 27.1292C15.8739 27.1292 15.4473 26.9564 15.1881 26.6108C14.9289 26.2652 14.8641 25.7144 14.9937 24.9584C15.0801 24.4832 15.1665 24.035 15.2529 23.6138C15.3501 23.1926 15.4581 22.7552 15.5769 22.3016C15.7605 21.5456 16.0683 20.9948 16.5003 20.6492C16.9431 20.3036 17.4561 20.1308 18.0393 20.1308C18.6225 20.1308 19.0491 20.3036 19.3191 20.6492C19.5891 20.9948 19.6539 21.5456 19.5135 22.3016C19.4379 22.7552 19.3515 23.1926 19.2543 23.6138C19.1679 24.035 19.0653 24.4832 18.9465 24.9584C18.7629 25.7144 18.4497 26.2652 18.0069 26.6108ZM22.9303 29.1866C22.9951 29.2622 23.0815 29.3 23.1895 29.3H25.3927C25.5115 29.3 25.6141 29.2622 25.7005 29.1866C25.7977 29.111 25.8571 29.0138 25.8787 28.895L26.6239 25.3472H28.8109C30.2041 25.3472 31.3111 25.0502 32.1319 24.4562C32.9635 23.8622 33.5143 22.9442 33.7843 21.7022C33.9139 21.0758 33.9085 20.5304 33.7681 20.066C33.6277 19.5908 33.3793 19.1966 33.0229 18.8834C32.6665 18.5702 32.2183 18.338 31.6783 18.1868C31.1491 18.0356 30.5551 17.96 29.8963 17.96H25.5871C25.4791 17.96 25.3765 17.9978 25.2793 18.0734C25.1821 18.149 25.1227 18.2462 25.1011 18.365L22.8655 28.895C22.8439 29.0138 22.8655 29.111 22.9303 29.1866ZM28.9081 23.1116H27.0451L27.6769 20.2118H29.6209C30.0097 20.2118 30.2959 20.2766 30.4795 20.4062C30.6739 20.5358 30.7873 20.7086 30.8197 20.9246C30.8521 21.1406 30.8413 21.389 30.7873 21.6698C30.6793 22.1558 30.4471 22.5176 30.0907 22.7552C29.7451 22.9928 29.3509 23.1116 28.9081 23.1116Z" fill="white"/>
</svg>
