<svg width="269" height="66" viewBox="0 0 269 66" fill="none" xmlns="http://www.w3.org/2000/svg">
<path d="M8.138 37.668H14.276V41.55H8.138V50.464C8.138 51.452 8.396 52.208 8.914 52.738C9.432 53.268 10.184 53.534 11.17 53.534H14.276V58.046H11.392C9.494 58.046 7.94 57.806 6.732 57.324C5.524 56.844 4.63 56.024 4.05 54.864C3.47 53.706 3.18 52.14 3.18 50.166V41.548H0V37.666H3.18V32.044H8.136V37.666L8.138 37.668ZM28.848 37.04H28.626C27.072 37.04 25.782 37.41 24.76 38.15C23.802 38.842 23.074 39.84 22.56 41.114V30.788H17.272V57.788H22.56V46.174C22.56 44.868 22.936 43.814 23.688 43.012C24.44 42.212 25.432 41.81 26.666 41.81C27.826 41.81 28.762 42.174 29.478 42.9C30.192 43.628 30.55 44.608 30.55 45.84V57.786H35.838V46.32C35.838 43.312 35.246 41.012 34.062 39.422C32.878 37.832 31.14 37.036 28.848 37.036V37.04ZM57.586 42.162C58.35 43.704 58.732 45.362 58.732 47.136V49.058H43.688C43.776 49.79 43.934 50.468 44.178 51.074C44.56 52.024 45.152 52.77 45.954 53.312C46.756 53.854 47.772 54.126 49.006 54.126C50.24 54.126 51.236 53.88 52.002 53.386C52.766 52.894 53.26 52.302 53.482 51.61H58.364C58.068 52.966 57.5 54.168 56.662 55.216C55.824 56.264 54.758 57.072 53.462 57.638C52.168 58.204 50.682 58.488 49.006 58.488C47.33 58.488 45.77 58.192 44.476 57.6C43.18 57.008 42.102 56.212 41.24 55.214C40.376 54.216 39.73 53.1 39.298 51.866C38.866 50.632 38.652 49.376 38.652 48.094V47.354C38.652 46.022 38.866 44.74 39.298 43.508C39.73 42.276 40.372 41.166 41.222 40.18C42.072 39.194 43.132 38.412 44.404 37.832C45.674 37.254 47.134 36.962 48.786 36.962C50.954 36.962 52.774 37.444 54.242 38.406C55.708 39.368 56.824 40.62 57.59 42.16L57.586 42.162ZM44.198 44.308C44.006 44.77 43.862 45.284 43.764 45.842H53.664C53.572 45.228 53.43 44.662 53.224 44.16C52.854 43.26 52.3 42.564 51.56 42.07C50.82 41.576 49.896 41.33 48.786 41.33C47.676 41.33 46.734 41.588 45.956 42.108C45.178 42.626 44.594 43.36 44.2 44.308H44.198ZM84.252 43.068C82.796 42.402 81.096 41.982 79.148 41.81L76.854 41.626C75.522 41.502 74.562 41.132 73.97 40.516C73.378 39.9 73.082 39.184 73.082 38.372C73.082 37.706 73.248 37.09 73.58 36.522C73.914 35.956 74.412 35.5 75.078 35.154C75.744 34.81 76.582 34.636 77.592 34.636C78.602 34.636 79.528 34.826 80.218 35.21C80.908 35.592 81.426 36.092 81.772 36.708C82.118 37.324 82.29 37.992 82.29 38.706H87.58C87.58 36.956 87.178 35.426 86.378 34.12C85.576 32.812 84.43 31.802 82.938 31.086C81.446 30.372 79.664 30.014 77.592 30.014C75.52 30.014 73.9 30.352 72.432 31.032C70.964 31.71 69.818 32.672 68.992 33.916C68.164 35.162 67.752 36.648 67.752 38.374C67.752 40.692 68.53 42.554 70.082 43.958C71.636 45.364 73.718 46.176 76.332 46.4L78.626 46.584C80.328 46.732 81.578 47.09 82.38 47.656C83.182 48.224 83.582 48.976 83.582 49.912C83.582 50.652 83.372 51.318 82.954 51.91C82.534 52.502 81.906 52.976 81.068 53.334C80.228 53.692 79.182 53.87 77.924 53.87C76.518 53.87 75.39 53.668 74.54 53.26C73.69 52.852 73.066 52.322 72.672 51.67C72.278 51.018 72.08 50.32 72.08 49.58H66.792C66.792 51.306 67.224 52.842 68.088 54.186C68.95 55.53 70.208 56.584 71.86 57.348C73.512 58.112 75.534 58.494 77.926 58.494C80.168 58.494 82.11 58.136 83.752 57.422C85.392 56.708 86.656 55.702 87.542 54.408C88.43 53.112 88.874 51.616 88.874 49.914C88.874 48.212 88.468 46.906 87.654 45.772C86.84 44.638 85.706 43.738 84.252 43.072V43.068ZM104.41 49.54C104.41 50.798 104.046 51.796 103.318 52.536C102.59 53.276 101.636 53.646 100.452 53.646C99.268 53.646 98.41 53.296 97.732 52.592C97.054 51.89 96.716 50.934 96.716 49.726V37.67H91.428V49.32C91.428 52.354 92.056 54.628 93.314 56.144C94.572 57.66 96.372 58.418 98.714 58.418H98.936C100.49 58.418 101.778 58.08 102.8 57.4C103.824 56.722 104.6 55.704 105.13 54.348C105.284 53.954 105.41 53.52 105.518 53.066V57.788H109.698V37.668H104.41V49.54ZM135.016 43.27C135.448 44.516 135.664 45.866 135.664 47.32V48.096C135.664 49.552 135.454 50.908 135.034 52.164C134.614 53.42 133.992 54.518 133.166 55.456C132.34 56.394 131.354 57.126 130.208 57.656C129.06 58.186 127.76 58.452 126.306 58.452C124.852 58.452 123.426 58.138 122.182 57.508C121.122 56.974 120.248 56.174 119.538 55.14V65.184H114.25V37.666H118.43V42.74C118.612 42.186 118.818 41.656 119.076 41.18C119.828 39.8 120.832 38.764 122.092 38.074C123.35 37.384 124.754 37.038 126.308 37.038C127.738 37.038 129.028 37.302 130.172 37.832C131.32 38.362 132.304 39.09 133.132 40.014C133.958 40.938 134.586 42.024 135.018 43.268L135.016 43.27ZM130.374 47.692C130.374 46.458 130.146 45.38 129.69 44.456C129.232 43.53 128.598 42.81 127.784 42.292C126.97 41.774 126.022 41.514 124.936 41.514C123.95 41.514 123.036 41.73 122.198 42.162C121.36 42.594 120.682 43.234 120.164 44.086C119.646 44.936 119.388 45.954 119.388 47.138V48.58C119.388 49.714 119.652 50.688 120.182 51.502C120.712 52.316 121.404 52.938 122.254 53.37C123.104 53.802 123.998 54.016 124.936 54.016C126.02 54.016 126.97 53.746 127.784 53.202C128.598 52.66 129.232 51.914 129.69 50.964C130.146 50.016 130.374 48.924 130.374 47.69V47.692ZM156.412 42.162C157.176 43.704 157.558 45.362 157.558 47.136V49.058H142.514C142.602 49.79 142.76 50.468 143.004 51.074C143.386 52.024 143.978 52.77 144.78 53.312C145.582 53.854 146.598 54.126 147.832 54.126C149.066 54.126 150.062 53.88 150.828 53.386C151.592 52.894 152.086 52.302 152.308 51.61H157.19C156.894 52.966 156.326 54.168 155.488 55.216C154.65 56.264 153.584 57.072 152.288 57.638C150.994 58.204 149.508 58.488 147.832 58.488C146.156 58.488 144.596 58.192 143.302 57.6C142.006 57.008 140.928 56.212 140.066 55.214C139.202 54.216 138.556 53.1 138.124 51.866C137.692 50.632 137.478 49.376 137.478 48.094V47.354C137.478 46.022 137.692 44.74 138.124 43.508C138.556 42.276 139.198 41.166 140.048 40.18C140.898 39.194 141.958 38.412 143.23 37.832C144.5 37.254 145.96 36.962 147.612 36.962C149.78 36.962 151.6 37.444 153.068 38.406C154.534 39.368 155.65 40.62 156.416 42.16L156.412 42.162ZM143.022 44.308C142.83 44.77 142.686 45.284 142.588 45.842H152.488C152.396 45.228 152.254 44.662 152.048 44.16C151.678 43.26 151.124 42.564 150.384 42.07C149.644 41.576 148.72 41.33 147.61 41.33C146.5 41.33 145.558 41.588 144.78 42.108C144.002 42.626 143.418 43.36 143.024 44.308H143.022ZM166.398 39.664C165.464 40.804 164.886 42.336 164.66 44.254V37.668H160.48V57.788H165.77V47.358C165.77 45.632 166.238 44.312 167.176 43.4C168.112 42.488 169.432 42.032 171.134 42.032H172.576V37.408H171.8C169.432 37.408 167.634 38.16 166.4 39.664H166.398ZM187.184 52.166C186.814 52.708 186.316 53.14 185.686 53.46C185.058 53.78 184.3 53.94 183.412 53.94C182.252 53.94 181.31 53.676 180.582 53.144C179.854 52.614 179.318 51.874 178.972 50.926C178.626 49.978 178.454 48.924 178.454 47.764C178.454 46.53 178.64 45.452 179.01 44.528C179.38 43.602 179.928 42.87 180.656 42.328C181.382 41.786 182.288 41.514 183.374 41.514C184.682 41.514 185.692 41.86 186.408 42.55C187.122 43.24 187.542 44.092 187.666 45.102H192.844C192.746 43.474 192.276 42.05 191.438 40.83C190.6 39.61 189.49 38.66 188.11 37.982C186.728 37.304 185.15 36.964 183.374 36.964C181.698 36.964 180.224 37.254 178.954 37.834C177.684 38.414 176.618 39.19 175.754 40.164C174.89 41.138 174.244 42.254 173.812 43.512C173.38 44.77 173.164 46.076 173.164 47.432V48.134C173.164 49.416 173.374 50.674 173.794 51.906C174.212 53.14 174.848 54.254 175.698 55.254C176.55 56.252 177.616 57.042 178.898 57.62C180.18 58.2 181.684 58.49 183.412 58.49C185.14 58.49 186.814 58.144 188.22 57.454C189.626 56.764 190.754 55.802 191.604 54.568C192.454 53.336 192.916 51.906 192.99 50.278H187.85C187.776 50.994 187.554 51.622 187.184 52.164V52.166ZM207.34 37.04H207.118C205.564 37.04 204.276 37.41 203.252 38.15C202.294 38.842 201.568 39.838 201.052 41.114V30.79H195.764V57.79H201.052V46.176C201.052 44.87 201.426 43.816 202.18 43.014C202.932 42.214 203.924 41.812 205.158 41.812C206.316 41.812 207.252 42.176 207.968 42.902C208.684 43.63 209.042 44.61 209.042 45.842V57.788H214.33V46.322C214.33 43.314 213.738 41.014 212.554 39.424C211.37 37.834 209.632 37.038 207.338 37.038L207.34 37.04ZM233.768 40.794C234.47 41.966 234.822 43.488 234.822 45.362V57.79H230.642V53.912C230.48 54.434 230.28 54.918 230.032 55.35C229.478 56.312 228.712 57.046 227.74 57.55C226.764 58.056 225.576 58.308 224.172 58.308C222.768 58.308 221.44 58.05 220.344 57.532C219.246 57.014 218.396 56.274 217.792 55.312C217.188 54.35 216.886 53.192 216.886 51.836C216.886 50.356 217.25 49.148 217.978 48.212C218.704 47.276 219.734 46.572 221.066 46.104C222.398 45.636 223.952 45.402 225.728 45.402H229.76V45.254C229.76 44.12 229.482 43.27 228.928 42.702C228.374 42.136 227.516 41.852 226.358 41.852C225.766 41.852 225.038 41.864 224.176 41.888C223.312 41.912 222.43 41.944 221.53 41.98C220.63 42.016 219.834 42.06 219.144 42.11V37.634C219.712 37.584 220.352 37.536 221.066 37.486C221.782 37.436 222.528 37.406 223.304 37.394C224.082 37.382 224.802 37.376 225.468 37.376C227.54 37.376 229.266 37.652 230.646 38.208C232.026 38.762 233.068 39.626 233.772 40.798L233.768 40.794ZM229.088 52.87C229.482 52.254 229.704 51.416 229.754 50.354V48.506H225.684C224.524 48.506 223.638 48.79 223.022 49.356C222.406 49.924 222.098 50.664 222.098 51.576C222.098 52.488 222.406 53.186 223.022 53.74C223.638 54.294 224.526 54.572 225.684 54.572C226.374 54.572 227.016 54.444 227.608 54.184C228.2 53.926 228.692 53.488 229.088 52.87ZM237.114 37.668V41.626H239.926V57.788H245.214V37.668H237.114ZM241.886 35.338C242.896 35.338 243.648 35.074 244.14 34.542C244.634 34.012 244.88 33.328 244.88 32.49C244.88 31.652 244.634 30.966 244.14 30.438C243.648 29.908 242.894 29.642 241.886 29.642C240.878 29.642 240.086 29.906 239.592 30.438C239.098 30.968 238.852 31.652 238.852 32.49C238.852 33.328 239.098 34.012 239.592 34.542C240.084 35.072 240.85 35.338 241.886 35.338ZM266.48 39.352C265.246 37.81 263.434 37.04 261.044 37.04H260.822C259.218 37.04 257.88 37.384 256.808 38.076C255.736 38.766 254.928 39.802 254.386 41.182C254.204 41.646 254.064 42.16 253.942 42.698V37.67H249.762V57.79H255.05V45.992C255.05 44.734 255.426 43.724 256.178 42.96C256.93 42.196 257.922 41.814 259.156 41.814C260.39 41.814 261.312 42.184 262.004 42.924C262.694 43.664 263.04 44.638 263.04 45.846V57.792H268.328V46.29C268.328 43.208 267.712 40.896 266.48 39.356V39.352ZM60.098 3.18H64.812V16.704H67.882V3.18H72.598V0.466H60.098V3.18ZM100.044 5.338C100.4 6.316 100.578 7.304 100.578 8.296V8.784C100.578 9.688 100.404 10.626 100.054 11.598C99.706 12.57 99.182 13.474 98.486 14.312C97.79 15.15 96.904 15.828 95.828 16.346C94.752 16.864 93.488 17.124 92.034 17.124C90.58 17.124 89.294 16.864 88.22 16.346C87.146 15.828 86.254 15.15 85.552 14.312C84.848 13.474 84.324 12.57 83.984 11.598C83.642 10.626 83.472 9.69 83.472 8.784V8.296C83.472 7.302 83.65 6.316 84.006 5.338C84.362 4.36 84.896 3.466 85.608 2.658C86.32 1.85 87.21 1.204 88.278 0.724C89.346 0.242 90.598 0 92.036 0C93.474 0 94.702 0.242 95.762 0.724C96.822 1.206 97.712 1.85 98.432 2.658C99.15 3.466 99.688 4.36 100.044 5.338ZM97.464 8.564C97.464 7.748 97.338 6.996 97.086 6.306C96.834 5.616 96.47 5.012 95.996 4.494C95.522 3.974 94.95 3.574 94.284 3.292C93.616 3.01 92.868 2.87 92.036 2.87C91.204 2.87 90.432 3.012 89.756 3.292C89.082 3.574 88.506 3.974 88.032 4.494C87.558 5.012 87.198 5.616 86.954 6.306C86.71 6.996 86.586 7.748 86.586 8.564C86.586 9.334 86.708 10.062 86.954 10.744C87.198 11.426 87.558 12.034 88.032 12.568C88.506 13.102 89.082 13.516 89.756 13.814C90.43 14.112 91.19 14.26 92.036 14.26C92.882 14.26 93.62 14.112 94.294 13.814C94.968 13.518 95.542 13.102 96.018 12.568C96.492 12.034 96.852 11.426 97.096 10.744C97.34 10.062 97.464 9.336 97.464 8.564ZM117.636 14.146H117.326L110.386 0.466H105.336V16.704H108.206V3.024H108.494L115.456 16.704H120.528V0.466H117.636V14.146ZM13.204 9.508C13.686 10.108 13.928 10.92 13.928 11.944V12.256C13.928 13.22 13.716 14.044 13.294 14.724C12.872 15.406 12.244 15.926 11.414 16.282C10.584 16.638 9.552 16.816 8.322 16.816H1.87V0.356H7.652C9.492 0.356 10.884 0.742 11.834 1.512C12.784 2.282 13.258 3.388 13.258 4.826V5.138C13.258 6.146 13.016 6.95 12.534 7.552C12.274 7.874 11.96 8.144 11.598 8.366C12.258 8.63 12.796 9.006 13.202 9.51L13.204 9.508ZM4.896 2.846V7.318H7.944C8.73 7.318 9.304 7.114 9.668 6.706C10.032 6.298 10.214 5.76 10.214 5.094C10.214 4.428 10.032 3.866 9.668 3.458C9.306 3.05 8.73 2.846 7.944 2.846H4.896ZM10.88 12.01C10.88 11.284 10.684 10.72 10.29 10.32C9.896 9.92 9.314 9.72 8.544 9.72H4.896V14.324H8.544C9.3 14.324 9.878 14.12 10.28 13.712C10.68 13.304 10.88 12.736 10.88 12.01ZM29.562 10.342C29.562 11.142 29.414 11.836 29.118 12.422C28.822 13.008 28.384 13.46 27.806 13.778C27.228 14.098 26.524 14.256 25.694 14.256C24.864 14.256 24.136 14.096 23.558 13.778C22.98 13.46 22.542 13.004 22.246 12.41C21.95 11.818 21.802 11.128 21.802 10.342V0.466H18.71V10.164C18.71 11.572 18.98 12.796 19.522 13.834C20.062 14.872 20.848 15.68 21.88 16.258C22.91 16.836 24.182 17.126 25.694 17.126C27.206 17.126 28.478 16.838 29.508 16.258C30.538 15.68 31.318 14.872 31.844 13.834C32.37 12.796 32.634 11.572 32.634 10.164V0.466H29.564V10.342H29.562ZM38.658 16.704H41.75V0.466H38.658V16.704ZM51.958 0.466H48.866V16.704H58.542V13.99H51.958V0.466Z" fill="white"/>
</svg>
