<svg width="672" height="210" viewBox="0 0 672 210" fill="none" xmlns="http://www.w3.org/2000/svg">
<g clip-path="url(#clip0_4240_101)">
<path fill-rule="evenodd" clip-rule="evenodd" d="M202 82.6204H218.809C230.549 82.6204 236 86.5841 236 94.0286C236 98.7555 233.613 101.816 229.506 103.416C234.472 104.88 237.147 108.439 237.147 113.574C237.147 120.392 233.189 125.96 220.154 125.96H202V82.6204ZM209.858 88.2544V100.842H221.453C226.568 100.842 227.856 100.842 227.856 95.5589V94.0325C227.856 88.2544 226.832 88.2544 220.719 88.2544H209.858ZM228.811 114.201V112.255C228.811 106.274 227.252 106.274 221.724 106.274H209.858V120.322H221.453C227.05 120.322 228.811 120.322 228.811 114.201ZM252.016 82.6204H260.059V120.182H280.404L277.888 125.96H252.016V82.6204ZM462.132 82.6204H445.323V125.96H463.472C476.511 125.96 480.469 120.396 480.469 113.577C480.469 108.429 477.795 104.882 472.828 103.418C476.936 101.817 479.323 98.7569 479.323 94.0297C479.323 86.5844 473.871 82.6204 462.132 82.6204ZM453.181 100.844V88.2549L464.023 88.2588C470.165 88.2588 471.179 88.2588 471.179 94.0336V95.5599C471.179 100.844 469.895 100.844 464.775 100.844H453.181ZM472.149 112.257V114.204C472.149 120.325 470.372 120.325 464.775 120.325H453.181V106.276H465.058C470.586 106.276 472.149 106.276 472.149 112.257ZM499.394 82.6204H506.153V125.96H499.394V82.6204ZM545.484 82.6204H526.43V125.96H534.277V106.617H545.821C551.565 106.617 552.568 108.984 552.568 113.921V125.96H560.427V113.434C560.427 108.497 558.873 105.783 555.091 104.113C556.975 103.42 558.61 102.148 559.77 100.469C560.929 98.7888 561.56 96.7827 561.577 94.7218C561.577 86.2453 555.284 82.6204 545.484 82.6204ZM534.277 100.913V88.3245H545.147C550.888 88.3245 553.109 88.3245 553.109 93.8885V96.2401C553.109 100.913 551.429 100.913 547.242 100.913H534.277ZM579.15 82.6204H592.858C608.743 82.6204 617.071 90.9012 617 104.538C616.859 118.875 608.253 125.96 593.139 125.96H579.15V82.6204ZM607.615 106.068V101.963C607.615 88.3305 602.449 88.3305 593.124 88.3305H587.249V120.195H593.186L593.471 120.196C603.098 120.197 607.615 120.197 607.615 106.068ZM433.288 82.6204L413.278 99.4189L434.508 125.96H424.736L407.352 104.392L400.879 109.792V125.96H398.122H392.603V82.6204H398.122H400.879V102.464L424.094 82.6204H433.288ZM323.267 125.96H331.772L313.277 82.6204H305.991L287.163 125.96H293.946L299.1 113.89H318.208L323.267 125.96ZM301.566 108.112L308.744 91.307L315.785 108.104L301.566 108.112ZM380.401 113.275H373.282C372.209 121.255 365.535 121.447 362.255 121.542C362.186 121.544 362.119 121.546 362.055 121.548H361.568H361.11H360.643H360.156C356.21 121.49 353.282 121.038 351.483 118.666C350.13 116.873 349.423 113.972 349.423 109.309V100.611C349.423 95.9282 350.13 93.0237 351.495 91.2304C353.295 88.8739 356.221 88.4294 360.156 88.3681H360.643H361.568H362.055L362.119 88.3706C365.34 88.4939 372.195 88.7564 373.29 96.798H380.436C379.38 87.6324 371.929 82.6204 361.284 82.6204H360.927C349.416 82.6204 342.977 88.7053 340.971 96.8172C340.223 99.4606 339.856 102.192 339.883 104.933C339.862 107.471 340.169 110.002 340.797 112.466C342.617 120.8 349.071 127.314 360.936 127.314H361.291C372.222 127.314 379.353 122.038 380.401 113.275Z" fill="white"/>
</g>
<path d="M128.854 123.517V66.5002C126.519 66.4947 124.19 66.7356 121.903 67.2191C115.156 68.6376 108.973 72.0862 104.141 77.1259C99.3085 82.1656 96.0451 88.5685 94.7662 95.5194C93.4873 102.47 94.2506 109.655 96.959 116.159C99.6674 122.663 104.199 128.192 109.975 132.042C105.132 130.219 100.746 127.307 97.1397 123.517H62.9375V130.646H84.4455C89.8734 130.647 95.1793 132.299 99.695 135.393L106.663 140.153C111.175 143.246 116.478 144.898 121.903 144.9H122.596C128.024 144.9 133.33 143.248 137.845 140.153L144.813 135.393C149.328 132.297 154.634 130.645 160.062 130.646V123.517H128.854Z" fill="white"/>
<defs>
<clipPath id="clip0_4240_101">
<rect width="415" height="158" fill="white" transform="translate(202 26)"/>
</clipPath>
</defs>
</svg>
