<svg width="672" height="210" viewBox="0 0 672 210" fill="none" xmlns="http://www.w3.org/2000/svg">
<g clip-path="url(#clip0_4240_170)">
<path d="M618 115.601C617.911 116.143 617.843 116.688 617.734 117.226C617.274 119.286 616.266 121.21 614.804 122.83C612.82 125.071 610.349 126.909 607.545 128.226C602.025 130.937 596.401 133.45 590.662 135.765C590.343 135.895 590.004 135.982 589.675 136.098C589.429 136.186 589.168 136.21 588.912 136.168C588.656 136.126 588.416 136.02 588.223 135.861C586.834 134.878 585.445 133.898 584.05 132.918C582.353 131.733 580.672 130.532 578.76 129.63C575.061 127.883 571.197 126.617 567 126.325C566.39 126.284 565.784 126.225 565.181 126.136C565.003 126.119 564.835 126.058 564.694 125.957C564.553 125.857 564.445 125.723 564.384 125.569C564.323 125.416 564.31 125.249 564.348 125.089C564.385 124.93 564.471 124.783 564.596 124.666C564.833 124.428 565.092 124.21 565.37 124.014C567.486 122.388 569.595 120.753 571.727 119.143C572.793 118.339 573.907 117.586 574.988 116.799C575.455 116.469 576.037 116.307 576.624 116.342C578.436 116.4 580.228 116.695 581.946 117.218C585.011 118.041 587.972 119.165 590.771 120.571C593.398 121.931 595.879 123.458 597.837 125.597C598.14 125.922 598.479 126.22 598.845 126.486C599.78 127.178 600.641 127.188 601.623 126.242C602.098 125.739 602.453 125.15 602.662 124.514C603.561 122.218 603.132 120.117 601.55 118.174C600.464 116.799 599.085 115.632 597.508 114.74C595.32 113.53 593.111 112.354 590.865 111.242C587.356 109.506 583.794 107.864 580.29 106.126C578.05 105.039 575.947 103.732 574.017 102.228C570.937 99.787 569.217 96.7435 569.192 92.994C569.15 90.3149 570.221 87.7214 572.19 85.7393C574.333 83.5645 576.953 81.8295 579.883 80.6483C582.52 79.5325 585.236 78.561 587.91 77.5101C591.059 76.2734 594.265 75.1716 597.529 74.2047C597.686 74.1584 597.847 74.12 597.999 74.0615C598.176 73.9813 598.38 73.96 598.579 74.0011C598.772 74.0423 598.949 74.1434 599.069 74.2878C600.077 75.2449 601.096 76.1892 602.114 77.138C603.211 78.1632 604.281 79.2155 605.414 80.2065C607.258 81.7719 609.404 83.0114 611.744 83.8626C612.976 84.3355 614.183 84.8666 615.394 85.3787C615.624 85.4743 615.833 85.6037 616.12 85.7533C615.984 85.8968 615.838 86.0288 615.676 86.1476C614.987 86.5514 614.308 86.9845 613.582 87.328C611.232 88.4459 608.856 89.5248 606.495 90.6309C606.057 90.8385 605.555 90.8967 605.075 90.7948C602.145 90.2951 599.289 89.4599 596.584 88.3086C593.936 87.178 591.67 85.4204 590.014 83.2175C589.586 82.6562 589.137 82.1076 588.662 81.5818C587.789 80.6222 586.693 80.5357 585.633 81.3112C584.896 81.8563 584.291 82.5381 583.862 83.3119C583.429 84.0857 583.183 84.9342 583.131 85.8017C583.089 86.1116 583.131 86.4268 583.257 86.7177C583.382 87.0086 583.586 87.2654 583.847 87.464C584.614 88.0925 585.439 88.6567 586.317 89.1499C589.147 90.5845 592.014 91.9612 594.892 93.3242C599.602 95.4955 604.182 97.9074 608.6 100.549C610.605 101.706 612.454 103.071 614.115 104.619C615.425 105.874 616.444 107.363 617.097 108.993C617.54 110.073 617.802 111.207 617.88 112.358C617.901 112.545 617.943 112.73 618 112.911V115.601Z" fill="white"/>
<path d="M563.555 103.417C563.584 107.471 562.994 111.508 561.804 115.412C560.53 119.829 558.225 123.94 555.049 127.462C552.377 130.507 548.906 132.881 544.96 134.363C543.252 134.971 541.463 135.371 539.64 135.552C538.498 135.677 537.348 135.766 536.198 135.793C533.66 135.794 531.13 135.533 528.656 135.015C525.759 134.48 522.849 133.972 519.923 133.594C518.007 133.343 516.058 133.416 514.171 133.81C512.663 134.163 511.274 134.852 510.127 135.815C509.842 136.041 509.501 136.199 509.135 136.274C508.768 136.35 508.386 136.34 508.024 136.247C507.896 136.234 507.776 136.182 507.684 136.099C507.593 136.016 507.534 135.907 507.519 135.79C507.341 135.165 507.405 134.502 507.7 133.916C507.913 133.488 508.155 133.073 508.423 132.672C509.239 131.517 509.64 130.158 509.573 128.785C509.556 124.987 509.566 121.19 509.559 117.393C509.542 105.339 509.52 93.2857 509.495 81.2326C509.493 80.1684 509.416 79.1055 509.356 78.0403C509.34 77.7817 509.26 77.5299 509.121 77.3044C508.981 77.079 508.788 76.8859 508.554 76.7403C507.854 76.2762 507.117 75.856 506.397 75.4135C505.699 74.9832 504.984 74.5721 504.313 74.1073C503.792 73.7366 503.405 73.2308 503.202 72.6557C503.135 72.5179 503.115 72.3649 503.144 72.2166C503.174 72.0682 503.251 71.9313 503.366 71.8237C503.888 71.332 504.407 70.8372 504.956 70.3713C505.332 70.0519 505.466 70.0641 505.844 70.4135C507.599 72.0141 509.778 73.1693 512.167 73.7659C513.416 74.0659 514.689 74.269 515.974 74.373C519.002 74.6799 522.033 74.4654 525.063 74.3287C528.397 74.1781 531.725 73.8692 535.069 74.0086C539.214 74.122 543.297 74.9592 547.098 76.4753C548.681 77.1314 550.173 77.9574 551.543 78.9361C553.488 80.3157 555.243 81.9062 556.77 83.6728C557.939 85.0366 558.951 86.5068 559.792 88.0601C561.202 90.6401 562.207 93.3899 562.776 96.2276C563.287 98.5956 563.548 101.003 563.555 103.417ZM542.524 106.283C542.583 102.937 542.45 99.5902 542.125 96.2569C541.966 94.0659 541.668 91.8851 541.23 89.7262C540.631 87.0412 539.779 84.4319 538.276 82.0308C537.587 80.8616 536.725 79.7854 535.714 78.8328C535.178 78.2802 534.429 77.9378 533.625 77.8764C532.734 77.8454 531.835 77.8342 530.947 77.8851C530.568 77.8937 530.207 78.0356 529.939 78.2814C529.671 78.5271 529.516 78.8579 529.507 79.2052C529.441 79.7136 529.408 80.2252 529.408 80.7371C529.391 85.4522 529.38 90.1673 529.373 94.8824C529.345 105.657 529.319 116.431 529.294 127.207C529.294 128.057 529.399 128.907 529.464 129.756C529.464 129.913 529.499 130.069 529.566 130.214C529.633 130.359 529.731 130.49 529.855 130.6C529.979 130.709 530.125 130.794 530.286 130.85C530.446 130.907 530.618 130.932 530.789 130.927C532.716 131.045 534.526 130.766 536.074 129.583C537.853 128.242 539.194 126.478 539.951 124.485C540.933 121.838 541.592 119.098 541.917 116.318C542.346 112.988 542.549 109.636 542.524 106.283Z" fill="white"/>
<path d="M480.487 110.908C480.89 111.211 481.314 111.488 481.757 111.739C483.444 112.537 485.138 113.324 486.849 114.078C488.603 114.852 490.386 115.572 492.144 116.337C493.265 116.825 493.303 116.944 492.966 118.023C492.646 119.048 492.278 120.063 492.025 121.101C491.542 123.039 491.453 125.043 491.762 127.011C492.036 128.737 493.058 130.045 494.516 131.109C496.254 132.379 498.287 132.999 500.461 133.271C501.484 133.4 502.516 133.451 503.547 133.545C503.817 133.569 504.086 133.621 504.514 133.683C504.22 133.93 504.047 134.092 503.855 134.233C502.74 134.987 501.496 135.567 500.175 135.951C497.466 136.851 494.554 137.111 491.707 136.706C490.154 136.47 488.637 136.063 487.19 135.493C484.744 134.607 482.458 133.388 480.41 131.877C478.187 130.259 476.371 128.222 475.085 125.905C474.43 124.606 473.989 123.225 473.775 121.807C473.412 119.81 473.536 117.813 473.684 115.81C473.76 114.789 473.803 113.766 473.861 112.744C473.912 112.358 473.832 111.968 473.633 111.624C473.434 111.281 473.125 111.002 472.748 110.823C472.071 110.485 471.383 110.155 470.676 109.872C469.384 109.417 468.159 108.815 467.029 108.082C466.42 107.649 465.842 107.175 465.258 106.714C465.063 106.561 464.898 106.375 464.7 106.226C464.471 106.054 464.262 105.791 463.912 105.91C463.748 105.974 463.61 106.082 463.516 106.22C463.422 106.358 463.377 106.519 463.387 106.682C463.295 107.958 463.155 109.235 463.139 110.512C463.06 117.231 463.018 123.95 462.956 130.67C462.944 132.077 462.914 133.485 462.882 134.893C462.863 135.725 462.585 136.006 461.664 136.047C460.743 136.088 459.83 136.087 458.913 136.086C454.421 136.082 449.929 136.075 445.437 136.063C445.084 136.071 444.731 136.058 444.381 136.023C443.683 135.934 443.448 135.698 443.425 135.053C443.377 133.71 443.319 132.368 443.314 131.023C443.245 114.491 443.174 97.9595 443.1 81.4278C443.091 79.7114 443.04 77.969 442.434 76.3047C442.244 75.7816 441.994 75.2757 441.765 74.7645C441.695 74.6069 441.589 74.4618 441.523 74.3028C441.466 74.2021 441.441 74.0887 441.451 73.9755C441.462 73.8624 441.507 73.7543 441.582 73.6638C441.656 73.5732 441.758 73.504 441.874 73.4641C441.99 73.4241 442.116 73.415 442.237 73.438C443.194 73.5367 444.146 73.6821 445.1 73.7976C448.035 74.1539 450.965 74.5417 453.906 74.8454C455.573 74.9605 457.247 74.927 458.906 74.7453C460.569 74.6201 462.234 74.5012 463.901 74.4273C467.375 74.2327 470.86 74.225 474.335 74.4043C477.102 74.5807 479.869 74.7711 482.566 75.4155C485.699 76.1189 488.628 77.4345 491.154 79.2721C492.568 80.3653 493.845 81.6003 494.959 82.954C495.781 83.9129 496.532 84.921 497.313 85.9082C498.171 86.9771 498.87 88.1466 499.389 89.3854C499.749 90.2621 499.991 91.1753 500.112 92.1052C500.234 93.2958 500.189 94.4957 499.976 95.6756C499.709 97.4995 499.028 99.252 497.977 100.82C497.411 101.632 496.753 102.387 496.013 103.071C494.081 104.894 491.736 106.196 489.225 107.25C486.688 108.316 484.124 109.329 481.576 110.371C481.262 110.5 480.966 110.671 480.487 110.908ZM480.55 91.8469C480.578 90.4515 480.428 89.0579 480.103 87.6946C479.646 85.6595 478.999 83.6876 477.76 81.9086C476.567 80.193 475.068 78.7833 472.973 77.9892C471.33 77.3665 469.682 77.3295 468.096 78.1636C467.586 78.428 467.094 78.7181 466.62 79.0325C464.719 80.3112 463.628 81.9232 463.659 84.18C463.728 89.2755 463.664 94.3725 463.675 99.4687C463.695 100.236 463.759 101.002 463.865 101.763C463.91 102.143 464.136 102.232 464.504 102.047C464.79 101.903 465.052 101.718 465.331 101.562C465.935 101.196 466.647 101.009 467.37 101.026C468.094 101.042 468.794 101.262 469.377 101.656C470.624 102.423 470.816 103.902 469.388 104.799C469.119 104.927 468.837 105.032 468.547 105.113C468.158 105.268 468.103 105.57 468.445 105.793C468.696 105.953 468.969 106.079 469.256 106.171C472.276 107.147 475.034 106.405 477.116 104.188C478.296 102.929 478.946 101.419 479.436 99.8505C480.208 97.242 480.584 94.5495 480.55 91.8469Z" fill="white"/>
<path d="M298.361 109.24C298.738 109.224 299.114 109.189 299.488 109.135C300.907 108.816 302.225 108.199 303.339 107.333C305.492 105.739 307.251 103.744 308.5 101.481C310.147 98.6857 310.929 95.5309 310.761 92.3581C310.656 90.822 310.251 89.3155 309.568 87.9097C309.114 86.9515 308.572 86.0267 308.065 85.0909C307.95 84.8816 307.811 84.6818 307.693 84.4733C307.307 83.7878 307.316 83.6497 307.927 83.1399C310.491 81.0037 313.071 78.8858 315.832 76.9561C317.322 75.9149 318.834 74.8988 320.336 73.8736C320.505 73.7567 320.681 73.6506 320.865 73.5559C320.986 73.4856 321.13 73.4578 321.271 73.4777C321.413 73.4976 321.541 73.5638 321.634 73.664C321.683 73.7101 321.729 73.7589 321.773 73.8083C323.943 76.2217 325.43 78.9287 325.835 82.0429C326.057 83.7411 325.96 85.4617 325.547 87.1297C324.824 89.9845 323.587 92.7088 321.885 95.1905C320.507 97.2335 318.813 99.0673 317.238 100.979C316.099 102.362 315.017 103.784 313.934 105.205C313.446 105.844 313.48 105.879 313.962 106.503C319.469 113.629 324.975 120.754 330.48 127.881C330.722 128.196 330.954 128.516 331.175 128.844C331.564 129.419 331.551 129.735 331.04 130.214C330.459 130.773 329.847 131.304 329.205 131.805C325.588 134.616 321.528 136.911 317.163 138.613C316.968 138.687 316.771 138.757 316.572 138.823C315.853 139.057 315.549 138.972 315.168 138.373C314.662 137.579 314.177 136.774 313.696 135.967C310.062 129.896 306.431 123.824 302.802 117.751C302.03 116.458 301.29 115.149 300.51 113.86C300.271 113.493 299.997 113.145 299.694 112.821C299.561 112.671 299.395 112.55 299.206 112.465C299.122 112.414 299.024 112.386 298.923 112.384C298.822 112.381 298.723 112.404 298.636 112.45C298.549 112.496 298.477 112.564 298.429 112.645C298.381 112.726 298.359 112.818 298.365 112.91C298.351 113.08 298.347 113.251 298.353 113.421C298.343 119.372 298.332 125.324 298.32 131.277C298.316 132.599 298.248 133.921 298.233 135.243C298.225 136.077 297.957 136.308 296.995 136.353C296.103 136.394 295.208 136.404 294.315 136.402C289.729 136.393 285.143 136.379 280.557 136.361C280.463 136.361 280.367 136.361 280.275 136.357C279.41 136.302 279.157 136.078 279.15 135.284C279.116 131.317 279.068 127.349 279.068 123.382C279.068 108.918 279.077 94.4538 279.096 79.9901C279.098 78.369 279.144 76.7472 279.172 75.1268C279.187 74.2181 279.415 73.9998 280.431 73.9928C283.206 73.974 285.982 73.964 288.757 73.9628C291.46 73.9653 294.165 73.9904 296.87 74.0061C297.035 74.002 297.2 74.0066 297.365 74.02C297.579 74.0155 297.786 74.0881 297.943 74.2224C298.099 74.3566 298.191 74.5416 298.2 74.7376C298.23 74.9275 298.243 75.1194 298.238 75.3113C298.269 80.6442 298.3 85.9772 298.329 91.3102C298.35 97.0056 298.362 102.701 298.364 108.396C298.364 108.646 298.361 108.898 298.361 109.24Z" fill="white"/>
<path d="M218.487 106.17C218.213 110.142 217.029 114.016 215.014 117.542C212.998 121.067 210.195 124.165 206.786 126.633C202.608 129.726 198.104 132.431 193.341 134.706C192.021 135.32 190.636 135.807 189.208 136.159C188.618 136.312 187.993 136.3 187.41 136.125C185.039 135.433 182.746 134.534 180.563 133.439C177.51 131.923 174.652 130.1 172.041 128.003C170.163 126.486 168.464 124.791 166.975 122.947C164.977 120.439 163.468 117.633 162.513 114.654C161.535 111.729 161.209 108.654 161.553 105.612C161.947 101.909 163.281 98.4654 165.017 95.1335C167.142 91.0608 170.356 87.7969 174.182 84.9725C179.304 81.1891 184.823 77.9472 190.513 74.93C191.263 74.5318 192.027 74.152 192.773 73.7444C192.986 73.6122 193.24 73.5454 193.496 73.5536C193.754 73.5618 194.002 73.6446 194.205 73.7901C197.321 75.6224 200.286 77.6633 203.074 79.8961C205.243 81.5984 207.286 83.4305 209.19 85.3805C211.832 88.1858 214.123 91.1943 215.65 94.6363C216.806 97.1557 217.645 99.788 218.148 102.482C218.359 103.697 218.379 104.94 218.487 106.17ZM202.817 113.726C202.744 112.941 202.655 111.773 202.518 110.608C202.444 109.974 202.303 109.346 202.171 108.718C201.376 105.14 200.016 101.686 198.135 98.4668C195.246 93.3837 191.324 88.8528 186.579 85.1176C185.642 84.4064 184.657 83.7504 183.63 83.1537C183.032 82.79 182.635 82.8653 182.095 83.2827C181.934 83.4073 181.789 83.5476 181.661 83.7011C180.871 84.6545 180.042 85.5841 179.311 86.5754C177.817 88.5223 176.8 90.7417 176.33 93.0818C175.653 96.755 175.891 100.521 177.028 104.098C178.255 107.911 180.021 111.56 182.281 114.954C185.622 120.165 190.17 124.642 195.605 128.069C195.798 128.19 195.994 128.309 196.198 128.413C196.319 128.483 196.459 128.519 196.601 128.516C196.743 128.514 196.881 128.473 196.998 128.399C197.195 128.284 197.385 128.16 197.569 128.027C199.037 126.852 200.158 125.358 200.83 123.681C202.173 120.613 202.656 117.391 202.817 113.726Z" fill="white"/>
<path d="M382.011 108.663C381.91 105.731 382.4 102.806 383.457 100.036C384.172 98.0027 385.088 96.0341 386.196 94.1549C387.565 91.8353 389.307 89.7178 391.364 87.8738C394.529 85.0521 398.079 82.6601 401.719 80.3859C405.283 78.1608 408.99 76.1369 412.744 74.1877C412.908 74.103 413.072 74.0204 413.239 73.9437C413.411 73.8499 413.61 73.8047 413.81 73.8137C414.01 73.8227 414.203 73.8855 414.364 73.9942C414.847 74.299 415.343 74.5842 415.832 74.8792C420.124 77.4979 424.101 80.5268 427.694 83.915C430.625 86.5987 433.074 89.6892 434.952 93.0725C435.929 94.9399 436.73 96.8799 437.348 98.8717C438.041 100.887 438.448 102.975 438.562 105.086C438.61 106.429 438.519 107.773 438.29 109.1C437.464 113.824 435.353 118.282 432.151 122.061C430.658 123.797 428.939 125.36 427.034 126.715C422.907 129.797 418.449 132.487 413.73 134.745C412.433 135.349 411.072 135.831 409.669 136.184C409.035 136.353 408.36 136.341 407.734 136.149C405.367 135.446 403.079 134.539 400.899 133.44C397.914 131.946 395.118 130.155 392.562 128.1C390.72 126.611 389.051 124.95 387.583 123.146C385.566 120.627 384.039 117.806 383.07 114.81C382.37 112.825 382.014 110.75 382.011 108.663ZM422.936 114.117C422.972 113.394 422.968 112.669 422.924 111.945C422.606 109.166 421.934 106.43 420.92 103.795C419.774 100.777 418.08 97.9944 416.281 95.269C414.043 91.8779 411.173 88.9485 408.023 86.2377C406.85 85.1861 405.554 84.2572 404.157 83.468C403.35 83.0325 402.92 83.0844 402.3 83.7121C401.783 84.2351 401.297 84.7857 400.834 85.3485C398.398 88.3125 396.782 91.5585 396.512 95.3101C396.273 98.3132 396.603 101.331 397.487 104.232C398.697 108.049 400.462 111.701 402.735 115.088C405.497 119.272 408.79 123.053 413.03 126.1C414.098 126.867 415.19 127.608 416.294 128.334C416.795 128.665 417.086 128.632 417.576 128.31C417.709 128.223 417.826 128.118 417.95 128.019C419.641 126.666 420.681 124.93 421.394 123.035C422.472 120.168 422.994 117.15 422.936 114.117Z" fill="white"/>
<path d="M252.596 135.903C250.103 135.852 247.618 135.611 245.168 135.18C243.093 134.799 241.114 134.061 239.337 133.006C237.818 132.114 236.316 131.196 234.796 130.304C234.454 130.121 234.099 129.958 233.733 129.816C233.499 129.711 233.235 129.676 232.979 129.716C232.722 129.756 232.486 129.871 232.304 130.042C231.867 130.396 231.463 130.784 231.095 131.2C229.847 132.641 228.604 134.089 227.403 135.565C227.258 135.795 227.044 135.982 226.787 136.105C226.529 136.228 226.239 136.282 225.95 136.26C225.271 136.214 224.587 136.251 223.905 136.24C223.732 136.248 223.561 136.212 223.41 136.136C223.259 136.059 223.134 135.946 223.05 135.808C222.966 135.67 222.926 135.513 222.934 135.355C222.943 135.197 223 135.045 223.098 134.915C223.246 134.674 223.436 134.453 223.607 134.225C225.13 132.199 226.664 130.18 228.176 128.145C228.408 127.877 228.578 127.568 228.676 127.237C228.774 126.906 228.797 126.561 228.744 126.221C228.689 125.907 228.585 125.602 228.436 125.315C227.631 123.893 226.789 122.49 225.979 121.07C224.16 117.866 222.882 114.428 222.187 110.873C221.71 108.609 221.511 106.304 221.593 104C221.703 101.783 222.047 99.5811 222.621 97.4252C223.868 92.6027 226.331 88.1149 229.813 84.3214C231.253 82.6853 232.86 81.1791 234.613 79.8233C237.827 77.3584 241.637 75.6298 245.726 74.7804C248.362 74.2174 251.08 74.0417 253.777 74.2598C255.975 74.4762 258.136 74.9346 260.213 75.625C262.228 76.2714 264.229 76.9563 266.236 77.6237C266.39 77.675 266.548 77.7189 266.7 77.7757C268.232 78.349 269.598 78.0118 270.853 77.1352C271.262 76.8496 271.63 76.5155 272.023 76.2111C272.451 75.8788 272.876 75.5405 273.325 75.2316C273.902 74.8351 274.208 74.8268 274.794 75.1933C275.043 75.3526 275.266 75.5432 275.457 75.7595C275.681 75.968 275.82 76.2409 275.848 76.532C275.878 76.8232 275.796 77.1146 275.618 77.3569C274.854 78.4564 274.146 79.5949 273.293 80.6347C270.429 84.1241 267.517 87.5811 264.613 91.0433C260.257 96.2371 255.895 101.427 251.527 106.612C249.069 109.524 246.612 112.439 244.076 115.295C242.495 117.076 242.157 119.028 242.655 121.188C243.459 124.864 245.811 128.103 249.203 130.202C252.476 132.301 256.944 132.238 260.34 130.152C263.124 128.443 264.772 126.025 265.736 123.178C266.002 122.388 266.123 121.556 266.308 120.744C266.347 120.577 266.363 120.405 266.419 120.243C266.55 119.865 266.728 119.773 267.162 119.868C267.437 119.921 267.707 119.998 267.967 120.098C270.04 120.955 272.119 121.799 274.17 122.697C274.98 123.052 275.007 123.253 274.795 124.033C274.415 125.384 273.703 126.637 272.713 127.696C270.252 130.447 267.106 132.616 263.539 134.022C261.414 134.839 259.169 135.365 256.877 135.585C255.456 135.734 254.023 135.798 252.596 135.903ZM241.36 103.148C241.36 104.673 241.331 105.804 241.37 106.933C241.398 107.72 241.48 108.505 241.617 109.282C241.722 109.877 242.058 109.971 242.615 109.631C242.852 109.493 243.071 109.33 243.267 109.146C243.777 108.646 244.302 108.153 244.754 107.612C246.442 105.59 248.06 103.519 249.783 101.523C252.362 98.5918 254.775 95.541 257.011 92.3823C257.999 91.0331 258.731 89.5402 259.174 87.9671C259.631 86.1835 259.689 84.4386 258.967 82.6899C257.816 79.9069 255.184 78.5854 252.19 78.7768C250.26 78.9003 248.757 79.8442 247.421 81.0322C246.296 82.0932 245.392 83.3342 244.756 84.6935C243.462 87.3206 242.6 90.1089 242.198 92.9675C241.701 96.3434 241.421 99.7416 241.36 103.148Z" fill="white"/>
<path d="M154.75 94.4607C154.511 95.1138 154.292 95.6058 154.15 96.1156C153.672 97.9889 153.592 99.9285 153.91 101.83C154.481 105.549 155.447 109.208 156.794 112.755C158.455 117.306 160.103 121.864 161.885 126.375C162.891 128.921 164.157 131.381 165.304 133.879C165.449 134.193 165.601 134.507 165.723 134.829C165.98 135.51 165.698 136.005 164.923 136.081C163.688 136.201 162.444 136.305 161.203 136.312C147.469 136.393 133.736 136.463 120.002 136.521C118.943 136.526 117.885 136.548 116.827 136.553C116.38 136.555 115.933 136.542 115.488 136.518C114.793 136.481 114.718 136.416 114.683 135.806C114.652 135.273 114.633 134.74 114.631 134.207C114.566 115.093 114.503 95.9796 114.441 76.8661C114.438 76.099 114.45 75.3311 114.477 74.5626C114.499 73.8652 114.732 73.656 115.5 73.6267C116.064 73.6054 116.629 73.603 117.193 73.6041C122.132 73.6124 127.07 73.6221 132.009 73.6333C132.056 73.6333 132.103 73.634 132.15 73.6354C133.176 73.6626 133.397 73.8408 133.407 74.7722C133.441 78.4195 133.481 82.0669 133.479 85.7143C133.473 98.1084 133.459 110.502 133.438 122.897C133.438 124.731 133.476 126.565 133.518 128.399C133.533 129.059 133.597 129.72 133.68 130.376C133.711 130.742 133.861 131.092 134.111 131.38C134.36 131.667 134.699 131.88 135.081 131.989C135.435 132.105 135.802 132.185 136.175 132.225C137.859 132.404 139.559 132.409 141.244 132.242C142.277 132.153 143.27 131.828 144.131 131.297C144.731 130.922 145.336 130.55 145.906 130.14C148.384 128.403 151.054 126.907 153.87 125.677C154.711 125.297 155.54 124.894 156.36 124.479C156.623 124.338 156.864 124.166 157.076 123.966C157.229 123.848 157.341 123.692 157.401 123.516C157.462 123.342 157.466 123.155 157.416 122.977C157.242 122.403 157.081 121.823 156.855 121.265C155.575 118.104 154.371 114.922 153.353 111.681C152.23 108.203 151.51 104.627 151.205 101.011C151.066 99.1782 151.054 97.3416 151.61 95.549C151.945 94.2769 152.601 93.0945 153.526 92.0969C154.149 91.5035 154.974 91.1224 155.865 91.0165C156.756 90.9106 157.66 91.0861 158.427 91.5142C158.967 91.8565 159.36 92.3606 159.539 92.9397C159.718 93.5188 159.67 94.1368 159.405 94.6873C159.179 95.0663 158.826 95.3694 158.399 95.5524C157.972 95.7354 157.492 95.789 157.029 95.7052C156.473 95.6106 155.955 95.3777 155.533 95.0318C155.328 94.8673 155.107 94.7188 154.75 94.4607Z" fill="white"/>
<path d="M375.378 94.7245C375.218 95.0753 375.073 95.3362 374.978 95.6116C374.355 97.5398 374.187 99.567 374.483 101.559C375.014 105.908 376.42 110.064 377.862 114.213C380.188 120.904 382.735 127.52 385.895 133.932C386.063 134.261 386.211 134.598 386.335 134.943C386.393 135.062 386.42 135.191 386.411 135.321C386.403 135.451 386.361 135.577 386.287 135.689C386.215 135.8 386.114 135.895 385.993 135.963C385.872 136.031 385.735 136.072 385.594 136.082C384.642 136.213 383.683 136.29 382.721 136.311C374.491 136.377 366.262 136.429 358.031 136.469C351.024 136.508 344.016 136.543 337.008 136.573C335.617 136.58 335.6 136.568 335.591 135.286C335.536 125.068 335.485 114.851 335.436 104.635C335.391 95.6973 335.347 86.7598 335.305 77.8225C335.3 76.8841 335.315 75.9454 335.331 75.0071C335.345 74.1147 335.569 73.8853 336.527 73.8849C341.982 73.8819 347.437 73.8854 352.892 73.8954C353.033 73.8922 353.175 73.9 353.314 73.9188C353.888 74.0101 354.082 74.1904 354.158 74.7089C354.179 74.8785 354.188 75.0491 354.187 75.2198C354.202 76.0943 354.225 76.9685 354.225 77.843C354.23 92.8387 354.236 107.834 354.241 122.83C354.241 124.919 354.317 127.009 354.372 129.099C354.383 129.524 354.451 129.948 354.49 130.373C354.512 130.762 354.667 131.135 354.933 131.439C355.2 131.742 355.565 131.96 355.975 132.062C356.399 132.188 356.839 132.266 357.284 132.293C359.138 132.417 361 132.524 362.826 132.116C363.482 131.959 364.111 131.72 364.696 131.406C365.36 131.042 365.993 130.635 366.592 130.186C369.068 128.445 371.735 126.946 374.55 125.714C375.203 125.419 375.858 125.128 376.492 124.807C376.858 124.617 377.205 124.398 377.53 124.153C377.732 124.021 377.883 123.834 377.963 123.619C378.043 123.403 378.047 123.171 377.975 122.953C377.813 122.42 377.651 121.885 377.439 121.367C376.107 118.087 374.866 114.781 373.828 111.412C372.707 107.867 372.017 104.219 371.772 100.536C371.616 98.8525 371.786 97.1574 372.275 95.5286C372.614 94.3471 373.234 93.2488 374.091 92.313C374.718 91.7093 375.553 91.3213 376.455 91.2137C377.357 91.1062 378.273 91.2857 379.048 91.7222C379.575 92.0646 379.957 92.5631 380.128 93.1335C380.301 93.704 380.252 94.3113 379.992 94.8528C379.754 95.2661 379.366 95.5903 378.895 95.7691C378.424 95.948 377.9 95.9704 377.413 95.8323C376.936 95.6649 376.484 95.4452 376.065 95.1782C375.852 95.0656 375.661 94.9146 375.378 94.7245Z" fill="white"/>
<path d="M56.9966 70.0704C58.2711 70.4888 58.6628 71.2211 59.021 72.3902C59.0903 72.6162 59.1763 72.8383 59.2658 73.0583C59.5321 73.8142 60.059 74.4706 60.7674 74.9286C61.4757 75.3867 62.3273 75.6218 63.194 75.5986C64.4193 75.5657 65.6413 75.4642 66.8531 75.2945C70.5929 74.8332 74.3212 74.2934 78.0664 73.8754C80.927 73.5507 83.8135 73.4599 86.6917 73.6041C89.9447 73.7917 93.1495 74.4188 96.2022 75.465C99.4274 76.5055 102.435 78.0421 105.097 80.0086C106.297 80.8732 107.371 81.8758 108.292 82.9917C109.438 84.4447 110.018 86.1105 110.426 87.8334C110.54 88.3132 110.628 88.7975 110.74 89.2773C110.796 89.4542 110.784 89.6434 110.705 89.813C110.627 89.9825 110.488 90.1223 110.31 90.2087C109.171 90.8531 108.064 91.5484 106.886 92.129C105.096 92.9451 103.413 93.946 101.871 95.1121C101.55 95.3628 101.248 95.6343 100.969 95.9245C100.62 96.3004 100.635 96.4574 101.036 96.7918C101.661 97.3127 102.309 97.811 102.944 98.3219C105.079 100.039 107.22 101.749 109.339 103.479C109.899 103.936 110.392 104.459 110.923 104.945C111.09 105.095 111.221 105.275 111.309 105.473C111.396 105.672 111.438 105.885 111.431 106.099C111.419 111.995 111.435 117.891 111.393 123.786C111.342 125.555 110.687 127.266 109.521 128.677C107.498 131.322 104.649 133.344 101.348 134.478C99.2744 135.259 97.0836 135.747 94.8504 135.926C93.4128 136 91.972 136.005 90.5339 135.941C87.8016 135.816 85.0807 135.534 82.3874 135.095C80.2034 134.756 78.0317 134.356 75.8512 134C73.4368 133.591 70.9832 133.409 68.5284 133.456C66.7855 133.548 65.0592 133.818 63.3817 134.262C62.468 134.475 61.5579 134.697 60.6408 134.902C60.0934 135.024 59.9236 134.95 59.6214 134.553C59.5494 134.483 59.5038 134.393 59.4909 134.298C59.478 134.202 59.4986 134.105 59.5498 134.02C59.5959 133.946 59.6221 133.862 59.6701 133.789C60.629 132.324 60.8848 130.727 60.8814 129.05C60.8669 121.83 60.8879 114.609 60.8993 107.389C60.9105 100.297 60.9224 93.2048 60.9351 86.1126C60.9351 84.5748 60.8715 83.0374 60.8517 81.4993C60.8567 81.0155 60.7499 80.5363 60.5385 80.093C60.327 79.6497 60.0156 79.2523 59.6248 78.927C58.8863 78.3021 58.0667 77.756 57.295 77.1629C56.4779 76.5889 55.7007 75.9688 54.9679 75.3061C54.5475 74.8846 54.2502 74.3726 54.1037 73.8178C53.9571 73.2629 53.9661 72.6831 54.1297 72.1322C54.2063 71.6795 54.4179 71.2551 54.7412 70.9056C55.0645 70.5562 55.487 70.2954 55.9619 70.1519C56.0935 70.1059 56.2302 70.0734 56.3696 70.055C56.5777 70.0229 56.7906 70.0281 56.9966 70.0704ZM80.4052 119.199H80.4189C80.4189 122.208 80.4201 125.218 80.4224 128.228C80.4224 128.546 80.4691 128.865 80.4985 129.183C80.5272 129.507 80.6536 129.816 80.8636 130.078C81.0736 130.339 81.3588 130.542 81.6873 130.663C82.0716 130.824 82.4781 130.937 82.8956 130.998C83.9957 131.139 85.1136 131.11 86.2033 130.913C87.2312 130.771 88.212 130.422 89.0748 129.891C90.3481 129.1 91.0231 127.946 91.435 126.646C91.8049 125.321 91.9925 123.959 91.9934 122.591C92.0696 120.501 92.1335 118.407 92.1095 116.317C92.0824 113.928 91.9967 111.54 91.8526 109.153C91.804 107.718 91.4123 106.309 90.7052 105.027C90.1799 104.121 89.4562 103.423 88.2906 103.222C87.2846 103.039 86.2401 103.208 85.3635 103.696C83.5907 104.658 82.242 106.025 81.0409 107.516C80.7969 107.855 80.639 108.241 80.5788 108.644C80.4698 109.232 80.4146 109.829 80.4136 110.426C80.398 113.35 80.4052 116.275 80.4052 119.199ZM80.2095 88.6961H80.2727C80.2727 91.7503 80.2613 94.8049 80.2815 97.8591C80.2778 98.5636 80.3428 99.2669 80.476 99.9608C80.6637 100.875 81.1993 101.119 82.1758 100.842C82.3105 100.803 82.4423 100.757 82.5705 100.702C83.6266 100.276 84.6062 99.7058 85.4758 99.0109C87.9376 96.9746 89.8208 94.4197 90.9629 91.5672C92.2887 88.4767 92.4229 85.0643 91.3436 81.8944C91.0639 80.9942 90.5823 80.1573 89.9297 79.4371C89.2771 78.7169 88.4677 78.1293 87.5532 77.7117C85.9972 77.0152 84.2523 76.7523 82.5347 76.9557C82.0927 77.015 81.6659 77.1464 81.2747 77.3438C80.9611 77.4696 80.6955 77.6779 80.5115 77.9422C80.3275 78.2067 80.2336 78.5152 80.2415 78.8286C80.2381 79.2122 80.2107 79.5957 80.2103 79.9814C80.2075 82.8872 80.2067 85.7921 80.2095 88.6961Z" fill="white"/>
</g>
<defs>
<clipPath id="clip0_4240_170">
<rect width="564" height="73" fill="white" transform="translate(54 68)"/>
</clipPath>
</defs>
</svg>
