<svg width="672" height="210" viewBox="0 0 672 210" fill="none" xmlns="http://www.w3.org/2000/svg">
<g style="mix-blend-mode:luminosity" clip-path="url(#clip0_4240_202)">
<path d="M172.89 51.9104C173.119 51.9581 173.348 52.0057 173.584 52.0547C181.908 53.8234 190.137 57.519 196.681 63.0027C197.033 63.2963 197.39 63.5833 197.748 63.8702C200.937 66.4553 203.894 69.3953 206.321 72.7102C206.615 73.1073 206.917 73.497 207.22 73.8864C212.208 80.3635 215.409 88.1503 217.088 96.108C217.16 96.4406 217.16 96.4406 217.234 96.7798C218.707 103.841 218.614 111.85 217.088 118.89C217.04 119.119 216.993 119.348 216.944 119.584C215.175 127.908 211.479 136.137 205.996 142.681C205.702 143.033 205.415 143.39 205.128 143.748C202.543 146.937 199.603 149.894 196.288 152.321C195.891 152.615 195.501 152.917 195.112 153.22C188.635 158.208 180.848 161.409 172.89 163.088C172.558 163.16 172.558 163.16 172.218 163.234C165.158 164.707 157.148 164.614 150.108 163.088C149.765 163.016 149.765 163.016 149.414 162.944C141.09 161.175 132.861 157.479 126.317 151.996C125.965 151.702 125.608 151.415 125.25 151.128C122.061 148.543 119.104 145.603 116.677 142.288C116.383 141.891 116.082 141.501 115.778 141.112C110.79 134.635 107.59 126.848 105.91 118.89C105.862 118.669 105.814 118.447 105.764 118.218C104.291 111.158 104.385 103.148 105.91 96.108C105.958 95.8791 106.006 95.6501 106.055 95.4142C107.823 87.0902 111.519 78.8615 117.003 72.317C117.296 71.9652 117.583 71.6078 117.87 71.2504C120.455 68.0608 123.395 65.1043 126.71 62.6768C127.107 62.3834 127.497 62.0817 127.886 61.778C134.363 56.7904 142.15 53.5896 150.108 51.9104C150.33 51.8622 150.551 51.814 150.78 51.7643C157.841 50.2912 165.85 50.3845 172.89 51.9104Z" fill="#757575"/>
<path d="M168.334 66.0362C168.627 66.0877 168.627 66.0877 168.926 66.1403C173.57 66.9829 177.87 68.5476 182.003 70.8205C182.147 70.8994 182.291 70.9784 182.439 71.0597C186.455 73.297 189.902 76.291 193.039 79.6344C193.146 79.7479 193.254 79.8613 193.364 79.9782C194.254 80.9479 194.965 82.016 195.673 83.1229C190.807 85.1832 185.932 87.2206 181.041 89.2215C180.855 89.2973 180.67 89.3731 180.479 89.4512C180.292 89.5277 180.105 89.6041 179.913 89.6829C177.499 90.671 175.088 91.6669 172.677 92.663C172.45 92.7567 172.223 92.8505 171.989 92.947C169.631 93.9217 167.272 94.8973 164.917 95.881C158.847 98.4162 152.763 100.917 146.677 103.413C146.392 103.53 146.392 103.53 146.102 103.649C145.57 103.868 145.037 104.086 144.504 104.304C144.349 104.368 144.194 104.431 144.034 104.497C143.25 104.818 142.466 105.136 141.679 105.45C142.394 105.926 143.121 106.244 143.911 106.569C144.068 106.634 144.224 106.7 144.386 106.767C144.907 106.983 145.429 107.199 145.951 107.415C146.321 107.568 146.691 107.722 147.061 107.875C149.857 109.035 152.658 110.183 155.46 111.329C158.405 112.534 161.342 113.757 164.276 114.99C167.996 116.552 171.726 118.089 175.462 119.613C178.528 120.865 181.591 122.125 184.652 123.391C184.87 123.481 185.088 123.571 185.312 123.663C186.171 124.019 187.029 124.374 187.888 124.729C190.017 125.609 192.147 126.486 194.277 127.363C194.445 127.432 194.613 127.501 194.785 127.572C195.689 127.944 196.592 128.316 197.495 128.687C197.495 130.957 195.091 133.205 193.696 134.923C193.489 135.178 193.284 135.435 193.081 135.693C192.816 136.024 192.537 136.344 192.256 136.661L191.645 137.046C188.792 142.043 180.94 145.445 175.852 147.369C175.633 147.454 175.633 147.454 175.41 147.54C172.892 148.505 170.302 148.984 167.651 149.419C167.411 149.46 167.411 149.46 167.166 149.502C160.833 150.56 154.364 149.756 148.286 147.825C148.125 147.774 147.965 147.724 147.799 147.673C142.105 145.853 136.939 142.509 132.566 138.484C132.441 138.369 132.317 138.255 132.188 138.137C129.234 135.392 126.81 132.19 124.82 128.687C124.671 128.432 124.522 128.176 124.369 127.913C122.29 124.256 120.947 120.251 120.036 116.157C119.998 116.001 119.961 115.845 119.923 115.684C118.638 110.159 118.902 103.629 120.264 98.1592C120.312 97.9564 120.361 97.7536 120.412 97.5446C121.125 94.6446 122.134 91.9502 123.453 89.2741C123.534 89.1085 123.615 88.9429 123.698 88.7722C124.856 86.4226 126.188 84.2882 127.782 82.2116C127.932 82.0102 128.082 81.8087 128.237 81.6012C130.675 78.4681 133.628 75.5836 136.895 73.3266C137.133 73.1603 137.372 72.9941 137.617 72.8229C138.422 72.2769 139.247 71.7701 140.084 71.2762C140.252 71.1772 140.42 71.0781 140.593 70.9761C144.847 68.5126 149.563 66.7575 154.437 66.0362C154.678 65.9904 154.92 65.9446 155.168 65.8974C159.414 65.1785 164.097 65.2692 168.334 66.0362Z" fill="#E7E7E7"/>
</g>
<path d="M266.621 139V75H292.246C296.954 75 300.882 75.6979 304.027 77.0937C307.173 78.4896 309.538 80.4271 311.121 82.9062C312.704 85.3646 313.496 88.1979 313.496 91.4063C313.496 93.9062 312.996 96.1042 311.996 98C310.996 99.875 309.621 101.417 307.871 102.625C306.142 103.812 304.163 104.656 301.934 105.156V105.781C304.371 105.885 306.652 106.573 308.777 107.844C310.923 109.115 312.663 110.896 313.996 113.187C315.329 115.458 315.996 118.167 315.996 121.312C315.996 124.708 315.152 127.74 313.465 130.406C311.798 133.052 309.329 135.146 306.059 136.687C302.788 138.229 298.757 139 293.965 139H266.621ZM280.152 127.937H291.184C294.954 127.937 297.704 127.219 299.434 125.781C301.163 124.323 302.027 122.385 302.027 119.969C302.027 118.198 301.6 116.635 300.746 115.281C299.892 113.927 298.673 112.865 297.09 112.094C295.527 111.323 293.663 110.937 291.496 110.937H280.152V127.937ZM280.152 101.781H290.184C292.038 101.781 293.684 101.458 295.121 100.812C296.579 100.146 297.725 99.2083 298.559 98C299.413 96.7917 299.84 95.3438 299.84 93.6563C299.84 91.3438 299.017 89.4792 297.371 88.0625C295.746 86.6458 293.434 85.9375 290.434 85.9375H280.152V101.781ZM332.77 157C331.082 157 329.499 156.865 328.02 156.594C326.561 156.344 325.353 156.021 324.395 155.625L327.395 145.688C328.957 146.167 330.363 146.427 331.613 146.469C332.884 146.51 333.978 146.219 334.895 145.594C335.832 144.969 336.592 143.906 337.176 142.406L337.957 140.375L320.738 91H334.738L344.676 126.25H345.176L355.207 91H369.301L350.645 144.188C349.749 146.771 348.53 149.021 346.988 150.937C345.467 152.875 343.54 154.365 341.207 155.406C338.874 156.469 336.061 157 332.77 157ZM401.645 91V101H372.738V91H401.645ZM379.301 79.5H392.613V124.25C392.613 125.479 392.801 126.437 393.176 127.125C393.551 127.792 394.072 128.26 394.738 128.531C395.426 128.802 396.217 128.937 397.113 128.937C397.738 128.937 398.363 128.885 398.988 128.781C399.613 128.656 400.092 128.562 400.426 128.5L402.52 138.406C401.853 138.615 400.915 138.854 399.707 139.125C398.499 139.417 397.03 139.594 395.301 139.656C392.092 139.781 389.28 139.354 386.863 138.375C384.467 137.396 382.603 135.875 381.27 133.812C379.936 131.75 379.28 129.146 379.301 126V79.5ZM431.676 139.938C426.738 139.938 422.488 138.938 418.926 136.938C415.384 134.917 412.655 132.062 410.738 128.375C408.822 124.667 407.863 120.281 407.863 115.219C407.863 110.281 408.822 105.948 410.738 102.219C412.655 98.4896 415.353 95.5833 418.832 93.5C422.332 91.4167 426.436 90.375 431.145 90.375C434.311 90.375 437.259 90.8854 439.988 91.9062C442.738 92.9062 445.134 94.4167 447.176 96.4375C449.238 98.4583 450.842 101 451.988 104.062C453.134 107.104 453.707 110.667 453.707 114.75V118.406H413.176V110.156H441.176C441.176 108.24 440.759 106.542 439.926 105.063C439.092 103.583 437.936 102.427 436.457 101.594C434.999 100.74 433.301 100.312 431.363 100.312C429.342 100.312 427.551 100.781 425.988 101.719C424.447 102.635 423.238 103.875 422.363 105.437C421.488 106.979 421.04 108.698 421.02 110.594V118.437C421.02 120.812 421.457 122.865 422.332 124.594C423.228 126.323 424.488 127.656 426.113 128.594C427.738 129.531 429.665 130 431.895 130C433.374 130 434.728 129.792 435.957 129.375C437.186 128.958 438.238 128.333 439.113 127.5C439.988 126.667 440.655 125.646 441.113 124.438L453.426 125.25C452.801 128.208 451.52 130.792 449.582 133C447.665 135.187 445.186 136.896 442.145 138.125C439.124 139.333 435.634 139.938 431.676 139.938ZM494.043 139H479.543L501.637 75H519.074L541.137 139H526.637L510.605 89.625H510.105L494.043 139ZM493.137 113.844H527.387V124.406H493.137V113.844ZM562.371 75V139H548.84V75H562.371Z" fill="white"/>
<defs>
<clipPath id="clip0_4240_202">
<rect width="113" height="113" fill="white" transform="translate(105 51)"/>
</clipPath>
</defs>
</svg>
