<svg width="672" height="210" viewBox="0 0 672 210" fill="none" xmlns="http://www.w3.org/2000/svg">
<path d="M96.6141 117.593C102.7 149.667 130.648 173.905 164.212 173.905C171.67 173.905 178.848 172.706 185.579 170.488C171.914 165.445 156.594 158.184 141.035 149.118C123.674 139.007 108.368 128.021 96.6184 117.593H96.6141Z" fill="white"/>
<path d="M164.112 109.923C167.051 109.923 169.432 107.52 169.432 104.556C169.432 101.591 167.051 99.1882 164.112 99.1882C161.174 99.1882 158.793 101.591 158.793 104.556C158.793 107.52 161.174 109.923 164.112 109.923Z" fill="white"/>
<path d="M240.03 144.774C237.588 139.92 233.605 134.649 228.537 129.229C231.45 121.533 233.052 113.183 233.052 104.455C233.047 66.0947 202.23 35 164.213 35C142.276 35 122.738 45.3532 110.136 61.4782C104.298 60.279 98.978 59.7211 94.4592 59.9672C88.6606 60.279 82.6399 62.0273 79.6492 67.2588C76.6541 72.4946 78.1647 78.6266 80.7941 83.8493C82.7531 87.7411 85.7047 91.8962 89.405 96.1881C90.8895 97.9096 92.4915 99.6493 94.2111 101.406C94.6029 101.806 95.0034 102.21 95.4082 102.614C96.4226 103.629 97.4848 104.652 98.5775 105.685C110.432 116.846 126.818 128.908 145.75 139.933C164.914 151.099 183.685 159.454 199.309 164.202C201.112 164.751 202.879 165.252 204.594 165.704C212.848 167.874 220.318 168.977 226.37 168.647C232.168 168.335 238.188 166.587 241.183 161.355C244.179 156.12 242.668 149.988 240.039 144.765L240.03 144.774ZM96.9754 89.5465C93.6538 85.6986 91.2291 82.2285 89.7402 79.2723C87.5418 74.9062 87.9771 72.9603 88.3384 72.3277C88.6998 71.6952 90.1538 70.3423 94.999 70.0787C97.5109 69.9426 100.554 70.1315 104.063 70.6673C100.841 76.4962 98.4295 82.8391 96.9711 89.5465H96.9754ZM188.13 108.821C186.123 120.373 176.137 129.154 164.112 129.154C150.648 129.154 139.73 118.137 139.73 104.551C139.73 97.0839 143.029 90.3898 148.236 85.8787C151.47 83.0763 155.436 81.1172 159.807 80.3309C161.205 80.0806 162.641 79.9488 164.108 79.9488C174.574 79.9488 183.502 86.6079 186.959 95.9554C187.947 98.63 188.491 101.529 188.491 104.551C188.491 106.005 188.365 107.433 188.125 108.821H188.13ZM232.486 156.3C232.125 156.928 230.67 158.281 225.825 158.545C221.759 158.764 216.313 158.131 209.714 156.563C215.321 151.578 220.118 145.683 223.88 139.108C227.188 142.942 229.6 146.399 231.084 149.355C233.282 153.721 232.847 155.667 232.486 156.3Z" fill="white"/>
<path d="M295.527 123.723C292.908 123.723 290.477 123.258 288.236 122.328C286.03 121.363 284.099 120.037 282.444 118.348C280.79 116.625 279.514 114.644 278.617 112.404C277.721 110.13 277.273 107.701 277.273 105.117C277.273 102.532 277.721 100.12 278.617 97.8804C279.514 95.6062 280.79 93.6249 282.444 91.9365C284.099 90.2481 286.03 88.9217 288.236 87.957C290.477 86.9921 292.908 86.5098 295.527 86.5098C298.458 86.5098 300.992 86.9921 303.129 87.957C305.267 88.9217 307.163 90.231 308.818 91.8852L304.784 95.9167C303.716 94.7452 302.405 93.8317 300.854 93.177C299.337 92.5223 297.562 92.1952 295.527 92.1952C293.735 92.1952 292.098 92.5052 290.615 93.1257C289.132 93.7457 287.84 94.6415 286.737 95.813C285.668 96.9504 284.84 98.3112 284.254 99.8964C283.668 101.481 283.375 103.221 283.375 105.117C283.375 107.012 283.668 108.752 284.254 110.337C284.84 111.922 285.668 113.3 286.737 114.472C287.84 115.609 289.132 116.488 290.615 117.108C292.098 117.728 293.735 118.038 295.527 118.038C297.734 118.038 299.596 117.711 301.112 117.056C302.664 116.367 303.974 115.436 305.043 114.265L309.076 118.296C307.421 119.985 305.474 121.311 303.233 122.276C300.992 123.241 298.424 123.723 295.527 123.723ZM324.226 123.723C321.813 123.723 319.624 123.155 317.659 122.018C315.694 120.846 314.125 119.279 312.953 117.314C311.815 115.35 311.246 113.162 311.246 110.751C311.246 108.338 311.815 106.167 312.953 104.238C314.125 102.309 315.694 100.775 317.659 99.6378C319.624 98.4662 321.813 97.8804 324.226 97.8804C326.674 97.8804 328.88 98.4491 330.846 99.5865C332.811 100.723 334.362 102.274 335.499 104.238C336.672 106.167 337.258 108.338 337.258 110.751C337.258 113.162 336.672 115.35 335.499 117.314C334.362 119.279 332.811 120.846 330.846 122.018C328.88 123.155 326.674 123.723 324.226 123.723ZM324.226 118.245C325.64 118.245 326.881 117.934 327.949 117.314C329.052 116.66 329.897 115.764 330.483 114.627C331.104 113.49 331.415 112.197 331.415 110.751C331.415 109.303 331.104 108.028 330.483 106.925C329.863 105.823 329.018 104.962 327.949 104.341C326.881 103.686 325.64 103.359 324.226 103.359C322.847 103.359 321.606 103.686 320.503 104.341C319.434 104.962 318.59 105.823 317.969 106.925C317.383 108.028 317.09 109.303 317.09 110.751C317.09 112.197 317.383 113.49 317.969 114.627C318.59 115.764 319.434 116.66 320.503 117.314C321.606 117.934 322.847 118.245 324.226 118.245ZM353.365 123.723C350.952 123.723 348.763 123.155 346.797 122.018C344.832 120.846 343.264 119.279 342.092 117.314C340.954 115.35 340.385 113.162 340.385 110.751C340.385 108.338 340.954 106.167 342.092 104.238C343.264 102.309 344.832 100.775 346.797 99.6378C348.763 98.4662 350.952 97.8804 353.365 97.8804C355.813 97.8804 358.019 98.4491 359.984 99.5865C361.949 100.723 363.5 102.274 364.638 104.238C365.81 106.167 366.397 108.338 366.397 110.751C366.397 113.162 365.81 115.35 364.638 117.314C363.5 119.279 361.949 120.846 359.984 122.018C358.019 123.155 355.813 123.723 353.365 123.723ZM353.365 118.245C354.779 118.245 356.02 117.934 357.088 117.314C358.191 116.66 359.036 115.764 359.622 114.627C360.243 113.49 360.553 112.197 360.553 110.751C360.553 109.303 360.243 108.028 359.622 106.925C359.001 105.823 358.157 104.962 357.088 104.341C356.02 103.686 354.779 103.359 353.365 103.359C351.986 103.359 350.745 103.686 349.642 104.341C348.573 104.962 347.728 105.823 347.108 106.925C346.521 108.028 346.228 109.303 346.228 110.751C346.228 112.197 346.521 113.49 347.108 114.627C347.728 115.764 348.573 116.66 349.642 117.314C350.745 117.934 351.986 118.245 353.365 118.245ZM384.417 123.723C382.521 123.723 380.832 123.327 379.349 122.535C377.867 121.708 376.694 120.588 375.833 119.175C375.005 117.762 374.592 116.16 374.592 114.368V107.236C374.592 105.444 375.022 103.841 375.884 102.429C376.746 101.016 377.919 99.9136 379.401 99.1209C380.883 98.2941 382.555 97.8804 384.417 97.8804C386.658 97.8804 388.674 98.4662 390.468 99.6378C392.294 100.775 393.725 102.326 394.759 104.29C395.828 106.219 396.363 108.407 396.363 110.854C396.363 113.266 395.828 115.454 394.759 117.418C393.725 119.348 392.294 120.88 390.468 122.018C388.674 123.155 386.658 123.723 384.417 123.723ZM371.127 133.544V98.3972H376.815V105.065L375.833 111.112L376.815 117.108V133.544H371.127ZM383.486 118.348C384.865 118.348 386.072 118.038 387.106 117.418C388.174 116.763 389.002 115.867 389.588 114.73C390.209 113.593 390.519 112.283 390.519 110.802C390.519 109.32 390.209 108.011 389.588 106.874C389.002 105.737 388.174 104.858 387.106 104.238C386.072 103.583 384.865 103.256 383.486 103.256C382.107 103.256 380.883 103.583 379.815 104.238C378.746 104.858 377.919 105.737 377.332 106.874C376.746 108.011 376.453 109.32 376.453 110.802C376.453 112.283 376.746 113.593 377.332 114.73C377.919 115.867 378.746 116.763 379.815 117.418C380.883 118.038 382.107 118.348 383.486 118.348ZM416.338 107.856V102.946H425.49C427.318 102.946 428.732 102.481 429.731 101.55C430.765 100.585 431.282 99.2588 431.282 97.5704C431.282 96.0541 430.782 94.7794 429.783 93.7457C428.783 92.712 427.37 92.1952 425.542 92.1952H416.338V87.0266H425.801C428.076 87.0266 430.076 87.4917 431.799 88.4221C433.523 89.318 434.851 90.5586 435.781 92.1433C436.747 93.6939 437.229 95.4689 437.229 97.4673C437.229 99.5688 436.747 101.395 435.781 102.946C434.851 104.496 433.523 105.702 431.799 106.564C430.076 107.425 428.076 107.856 425.801 107.856H416.338ZM412.252 123.207V87.0266H418.199V123.207H412.252ZM432.11 123.207L419.44 107.494L424.973 105.479L439.608 123.207H432.11ZM454.016 123.723C451.533 123.723 449.293 123.172 447.293 122.07C445.328 120.932 443.76 119.382 442.587 117.418C441.449 115.454 440.881 113.249 440.881 110.802C440.881 108.356 441.449 106.167 442.587 104.238C443.725 102.274 445.259 100.723 447.189 99.5865C449.155 98.4491 451.327 97.8804 453.705 97.8804C456.015 97.8804 458.049 98.4149 459.807 99.4828C461.6 100.551 462.996 102.016 463.996 103.876C465.03 105.737 465.547 107.856 465.547 110.233C465.547 110.647 465.513 111.078 465.444 111.526C465.409 111.939 465.341 112.404 465.237 112.921H444.863V108.27H462.29L460.169 110.13C460.1 108.614 459.807 107.339 459.29 106.305C458.773 105.272 458.032 104.479 457.067 103.928C456.136 103.376 454.981 103.101 453.602 103.101C452.154 103.101 450.896 103.411 449.827 104.031C448.758 104.652 447.931 105.53 447.345 106.667C446.759 107.77 446.466 109.096 446.466 110.647C446.466 112.197 446.776 113.559 447.396 114.73C448.017 115.902 448.896 116.815 450.034 117.469C451.172 118.089 452.481 118.4 453.964 118.4C455.24 118.4 456.412 118.176 457.48 117.728C458.583 117.28 459.514 116.625 460.273 115.764L463.893 119.434C462.686 120.846 461.221 121.914 459.497 122.638C457.773 123.362 455.946 123.723 454.016 123.723ZM481.536 123.723C479.088 123.723 476.865 123.155 474.865 122.018C472.9 120.88 471.349 119.33 470.211 117.366C469.073 115.402 468.504 113.214 468.504 110.802C468.504 108.356 469.073 106.167 470.211 104.238C471.349 102.274 472.9 100.723 474.865 99.5865C476.865 98.4491 479.088 97.8804 481.536 97.8804C483.467 97.8804 485.259 98.2599 486.914 99.0178C488.603 99.7415 490.034 100.792 491.206 102.171L487.483 105.944C486.759 105.082 485.88 104.445 484.845 104.031C483.846 103.583 482.743 103.359 481.536 103.359C480.122 103.359 478.864 103.686 477.761 104.341C476.692 104.962 475.848 105.823 475.227 106.925C474.641 108.028 474.348 109.32 474.348 110.802C474.348 112.249 474.641 113.542 475.227 114.678C475.848 115.781 476.692 116.66 477.761 117.314C478.864 117.934 480.122 118.245 481.536 118.245C482.743 118.245 483.846 118.038 484.845 117.624C485.88 117.177 486.759 116.522 487.483 115.66L491.206 119.434C490.034 120.812 488.603 121.88 486.914 122.638C485.259 123.362 483.467 123.723 481.536 123.723ZM506.179 123.723C503.766 123.723 501.576 123.155 499.611 122.018C497.647 120.846 496.078 119.279 494.905 117.314C493.768 115.35 493.199 113.162 493.199 110.751C493.199 108.338 493.768 106.167 494.905 104.238C496.078 102.309 497.647 100.775 499.611 99.6378C501.576 98.4662 503.766 97.8804 506.179 97.8804C508.627 97.8804 510.833 98.4491 512.798 99.5865C514.763 100.723 516.315 102.274 517.452 104.238C518.624 106.167 519.21 108.338 519.21 110.751C519.21 113.162 518.624 115.35 517.452 117.314C516.315 119.279 514.763 120.846 512.798 122.018C510.833 123.155 508.627 123.723 506.179 123.723ZM506.179 118.245C507.592 118.245 508.834 117.934 509.902 117.314C511.005 116.66 511.85 115.764 512.436 114.627C513.056 113.49 513.367 112.197 513.367 110.751C513.367 109.303 513.056 108.028 512.436 106.925C511.815 105.823 510.971 104.962 509.902 104.341C508.834 103.686 507.592 103.359 506.179 103.359C504.8 103.359 503.559 103.686 502.456 104.341C501.387 104.962 500.542 105.823 499.922 106.925C499.336 108.028 499.043 109.303 499.043 110.751C499.043 112.197 499.336 113.49 499.922 114.627C500.542 115.764 501.387 116.66 502.456 117.314C503.559 117.934 504.8 118.245 506.179 118.245ZM523.941 123.207V98.3972H529.629V123.207H523.941ZM529.629 109.406L527.664 108.425C527.664 105.289 528.354 102.756 529.732 100.826C531.146 98.8628 533.267 97.8804 536.093 97.8804C537.334 97.8804 538.455 98.1043 539.455 98.5522C540.454 99.0007 541.385 99.7238 542.247 100.723L538.524 104.548C538.076 104.066 537.576 103.721 537.024 103.514C536.472 103.307 535.834 103.204 535.111 103.204C533.525 103.204 532.215 103.704 531.18 104.703C530.146 105.702 529.629 107.27 529.629 109.406ZM554.636 123.723C552.396 123.723 550.361 123.155 548.534 122.018C546.742 120.88 545.311 119.348 544.242 117.418C543.208 115.454 542.69 113.266 542.69 110.854C542.69 108.407 543.208 106.219 544.242 104.29C545.311 102.326 546.742 100.775 548.534 99.6378C550.361 98.4662 552.396 97.8804 554.636 97.8804C556.532 97.8804 558.204 98.2941 559.652 99.1209C561.134 99.9136 562.307 101.016 563.169 102.429C564.031 103.841 564.462 105.444 564.462 107.236V114.368C564.462 116.16 564.031 117.762 563.169 119.175C562.341 120.588 561.186 121.708 559.704 122.535C558.222 123.327 556.532 123.723 554.636 123.723ZM555.567 118.348C556.98 118.348 558.205 118.038 559.239 117.418C560.307 116.763 561.134 115.867 561.72 114.73C562.307 113.593 562.6 112.283 562.6 110.802C562.6 109.32 562.307 108.011 561.72 106.874C561.134 105.737 560.307 104.858 559.239 104.238C558.205 103.583 556.98 103.256 555.567 103.256C554.188 103.256 552.964 103.583 551.896 104.238C550.861 104.858 550.033 105.737 549.413 106.874C548.827 108.011 548.534 109.32 548.534 110.802C548.534 112.283 548.827 113.593 549.413 114.73C550.033 115.867 550.861 116.763 551.896 117.418C552.964 118.038 554.188 118.348 555.567 118.348ZM567.926 123.207H562.238V116.539L563.22 110.492L562.238 104.496V85.9929H567.926V123.207ZM582.358 123.723C580.979 123.723 579.652 123.551 578.376 123.207C577.101 122.828 575.928 122.311 574.859 121.656C573.791 120.967 572.86 120.14 572.067 119.175L575.687 115.557C576.549 116.557 577.532 117.314 578.635 117.831C579.772 118.313 581.048 118.555 582.461 118.555C583.737 118.555 584.702 118.365 585.357 117.986C586.012 117.607 586.34 117.056 586.34 116.332C586.34 115.574 586.029 114.988 585.409 114.575C584.788 114.162 583.978 113.817 582.979 113.542C582.013 113.231 580.979 112.921 579.876 112.611C578.807 112.301 577.773 111.887 576.773 111.371C575.808 110.819 575.015 110.078 574.394 109.148C573.774 108.218 573.463 107.012 573.463 105.53C573.463 103.945 573.825 102.584 574.549 101.447C575.308 100.31 576.359 99.4309 577.704 98.8109C579.083 98.1909 580.72 97.8804 582.617 97.8804C584.616 97.8804 586.374 98.2422 587.891 98.9659C589.443 99.6554 590.735 100.706 591.769 102.119L588.15 105.737C587.426 104.841 586.598 104.169 585.667 103.721C584.737 103.273 583.668 103.049 582.461 103.049C581.324 103.049 580.444 103.221 579.824 103.566C579.203 103.91 578.893 104.41 578.893 105.065C578.893 105.754 579.203 106.288 579.824 106.667C580.444 107.046 581.237 107.374 582.203 107.649C583.203 107.925 584.237 108.235 585.305 108.58C586.408 108.89 587.443 109.337 588.408 109.923C589.408 110.475 590.218 111.233 590.839 112.197C591.459 113.128 591.769 114.351 591.769 115.867C591.769 118.279 590.925 120.192 589.236 121.604C587.546 123.017 585.254 123.723 582.358 123.723Z" fill="white"/>
</svg>
