<svg width="672" height="210" viewBox="0 0 672 210" fill="none" xmlns="http://www.w3.org/2000/svg">
<path d="M294.691 89V99H265.066V89H294.691ZM271.848 137V85.5312C271.848 82.0521 272.525 79.1667 273.879 76.875C275.254 74.5833 277.129 72.8646 279.504 71.7187C281.879 70.5729 284.577 70 287.598 70C289.639 70 291.504 70.1562 293.191 70.4687C294.9 70.7812 296.171 71.0625 297.004 71.3125L294.629 81.3125C294.108 81.1458 293.462 80.9896 292.691 80.8437C291.941 80.6979 291.171 80.625 290.379 80.625C288.421 80.625 287.056 81.0833 286.285 82C285.514 82.8958 285.129 84.1562 285.129 85.7812V137H271.848ZM302.824 137V89H315.73V97.375H316.23C317.105 94.3958 318.574 92.1458 320.637 90.625C322.699 89.0833 325.074 88.3125 327.762 88.3125C328.428 88.3125 329.147 88.3542 329.918 88.4375C330.689 88.5208 331.366 88.6354 331.949 88.7812V100.594C331.324 100.406 330.46 100.24 329.355 100.094C328.251 99.9479 327.241 99.875 326.324 99.875C324.366 99.875 322.616 100.302 321.074 101.156C319.553 101.99 318.345 103.156 317.449 104.656C316.574 106.156 316.137 107.885 316.137 109.844V137H302.824ZM358.473 137.938C353.535 137.938 349.285 136.938 345.723 134.938C342.181 132.917 339.452 130.062 337.535 126.375C335.618 122.667 334.66 118.281 334.66 113.219C334.66 108.281 335.618 103.948 337.535 100.219C339.452 96.4896 342.15 93.5833 345.629 91.5C349.129 89.4167 353.233 88.375 357.941 88.375C361.108 88.375 364.056 88.8854 366.785 89.9062C369.535 90.9062 371.931 92.4167 373.973 94.4375C376.035 96.4583 377.639 99 378.785 102.062C379.931 105.104 380.504 108.667 380.504 112.75V116.406H339.973V108.156H367.973C367.973 106.24 367.556 104.542 366.723 103.063C365.889 101.583 364.733 100.427 363.254 99.5937C361.796 98.7396 360.098 98.3125 358.16 98.3125C356.139 98.3125 354.348 98.7812 352.785 99.7187C351.243 100.635 350.035 101.875 349.16 103.437C348.285 104.979 347.837 106.698 347.816 108.594V116.437C347.816 118.812 348.254 120.865 349.129 122.594C350.025 124.323 351.285 125.656 352.91 126.594C354.535 127.531 356.462 128 358.691 128C360.171 128 361.525 127.792 362.754 127.375C363.983 126.958 365.035 126.333 365.91 125.5C366.785 124.667 367.452 123.646 367.91 122.438L380.223 123.25C379.598 126.208 378.316 128.792 376.379 131C374.462 133.187 371.983 134.896 368.941 136.125C365.921 137.333 362.431 137.938 358.473 137.938ZM402.504 109.25V137H389.191V89H401.879V97.4688H402.441C403.504 94.6771 405.285 92.4687 407.785 90.8437C410.285 89.1979 413.316 88.375 416.879 88.375C420.212 88.375 423.118 89.1042 425.598 90.5625C428.077 92.0208 430.004 94.1042 431.379 96.8125C432.754 99.5 433.441 102.708 433.441 106.437V137H420.129V108.812C420.15 105.875 419.4 103.583 417.879 101.938C416.358 100.271 414.264 99.4375 411.598 99.4375C409.806 99.4375 408.223 99.8229 406.848 100.594C405.493 101.365 404.431 102.49 403.66 103.969C402.91 105.427 402.525 107.188 402.504 109.25ZM445.371 155V89H452.496V96.625H453.371C453.913 95.7917 454.663 94.7292 455.621 93.4375C456.6 92.125 457.996 90.9583 459.809 89.9375C461.642 88.8958 464.121 88.375 467.246 88.375C471.288 88.375 474.85 89.3854 477.934 91.4062C481.017 93.4271 483.423 96.2917 485.152 100C486.882 103.708 487.746 108.083 487.746 113.125C487.746 118.208 486.882 122.615 485.152 126.344C483.423 130.052 481.027 132.927 477.965 134.969C474.902 136.99 471.371 138 467.371 138C464.288 138 461.819 137.49 459.965 136.469C458.111 135.427 456.684 134.25 455.684 132.937C454.684 131.604 453.913 130.5 453.371 129.625H452.746V155H445.371ZM452.621 113C452.621 116.625 453.152 119.823 454.215 122.594C455.277 125.344 456.829 127.5 458.871 129.062C460.913 130.604 463.413 131.375 466.371 131.375C469.454 131.375 472.027 130.563 474.09 128.937C476.173 127.292 477.736 125.083 478.777 122.312C479.84 119.521 480.371 116.417 480.371 113C480.371 109.625 479.85 106.583 478.809 103.875C477.788 101.146 476.236 98.9896 474.152 97.4062C472.09 95.8021 469.496 95 466.371 95C463.371 95 460.85 95.7604 458.809 97.2812C456.767 98.7812 455.225 100.885 454.184 103.594C453.142 106.281 452.621 109.417 452.621 113ZM519.121 138C514.496 138 510.507 136.979 507.152 134.938C503.819 132.875 501.246 130 499.434 126.312C497.642 122.604 496.746 118.292 496.746 113.375C496.746 108.458 497.642 104.125 499.434 100.375C501.246 96.6042 503.767 93.6667 506.996 91.5625C510.246 89.4375 514.038 88.375 518.371 88.375C520.871 88.375 523.34 88.7917 525.777 89.625C528.215 90.4583 530.434 91.8125 532.434 93.6875C534.434 95.5417 536.027 98 537.215 101.062C538.402 104.125 538.996 107.896 538.996 112.375V115.5H501.996V109.125H531.496C531.496 106.417 530.954 104 529.871 101.875C528.809 99.75 527.288 98.0729 525.309 96.8437C523.35 95.6146 521.038 95 518.371 95C515.434 95 512.892 95.7292 510.746 97.1875C508.621 98.625 506.986 100.5 505.84 102.812C504.694 105.125 504.121 107.604 504.121 110.25V114.5C504.121 118.125 504.746 121.198 505.996 123.719C507.267 126.219 509.027 128.125 511.277 129.438C513.527 130.729 516.142 131.375 519.121 131.375C521.059 131.375 522.809 131.104 524.371 130.562C525.954 130 527.319 129.167 528.465 128.062C529.611 126.937 530.496 125.542 531.121 123.875L538.246 125.875C537.496 128.292 536.236 130.417 534.465 132.25C532.694 134.062 530.507 135.479 527.902 136.5C525.298 137.5 522.371 138 519.121 138ZM571.09 89V95.25H546.215V89H571.09ZM553.465 77.5H560.84V123.25C560.84 125.333 561.142 126.896 561.746 127.937C562.371 128.958 563.163 129.646 564.121 130C565.1 130.333 566.132 130.5 567.215 130.5C568.027 130.5 568.694 130.458 569.215 130.375C569.736 130.271 570.152 130.187 570.465 130.125L571.965 136.75C571.465 136.937 570.767 137.125 569.871 137.313C568.975 137.521 567.84 137.625 566.465 137.625C564.382 137.625 562.34 137.177 560.34 136.281C558.361 135.385 556.715 134.021 555.402 132.188C554.111 130.354 553.465 128.042 553.465 125.25V77.5Z" fill="white"/>
<g clip-path="url(#clip0_4240_68)">
<path fill-rule="evenodd" clip-rule="evenodd" d="M118.9 41H216.099V50.9196H118.9V41ZM118.9 158.231V148.312H109V50.9196H118.9L118.9 138.392H128.8V158.231H138.25V148.312H148.15V168.151H138.25V168.15H128.8H118.9V158.231ZM177.401 138.392V148.312V158.231H186.849V148.312H196.75V158.231V168.15V168.151H186.849V168.15H177.401H167.5V158.231V148.312H148.15L148.151 138.392H167.5H177.401ZM216.101 138.392H196.75V148.312H216.101H226V138.392V50.9196H216.101V138.392Z" fill="white"/>
<path d="M148.163 75.1923V104.5H158.063V75.1923H148.163Z" fill="white"/>
<path d="M196.75 75.3004V104.608H206.65V75.3004H196.75Z" fill="white"/>
</g>
<defs>
<clipPath id="clip0_4240_68">
<rect width="117" height="127" fill="white" transform="translate(109 41)"/>
</clipPath>
</defs>
</svg>
