<svg width="672" height="210" viewBox="0 0 672 210" fill="none" xmlns="http://www.w3.org/2000/svg">
<g clip-path="url(#clip0_4240_25)">
<path fill-rule="evenodd" clip-rule="evenodd" d="M222.968 115.474H213.971V106.421H204.973V97.3684H195.976V88.3158H186.978V61.1579H177.98V52.1053H168.983V106.421H177.98V115.474H186.978V160.737H231.966V97.3684H222.968V115.474ZM204.973 129.053V138.105H213.971V129.053H204.973Z" fill="white"/>
<path d="M150.988 52.1053H159.985V43.0526H150.988V52.1053Z" fill="white"/>
<path d="M168.983 43.0526V34H159.985V43.0526H168.983Z" fill="white"/>
<path d="M177.98 43.0526V34H168.983V43.0526H177.98Z" fill="white"/>
<path d="M177.98 52.1053H186.978V43.0526H177.98V52.1053Z" fill="white"/>
<path fill-rule="evenodd" clip-rule="evenodd" d="M168.983 106.421V52.1053H159.985V61.1579H150.988V88.3158H141.99V97.3684H132.993V106.421H123.995V115.474H114.998V97.3684H106V160.737H150.988V115.474H159.985V106.421H168.983ZM132.993 129.053V138.105H123.995V129.053H132.993Z" fill="white"/>
<path d="M521.939 162.557C504.46 162.557 491.32 146.79 491.32 127.02C491.32 107.129 504.46 91.3627 521.939 91.3627C532.186 91.3627 540.985 96.456 544.723 103.612H545.325V74.1401H566.059V160.738H545.928V151.034H545.325C539.177 160.01 530.98 162.557 521.939 162.557ZM527.966 143.151C537.369 143.151 542.914 136.48 542.914 127.02C542.914 117.439 537.369 110.768 527.966 110.768C518.443 110.768 513.38 117.439 513.38 127.02C513.38 136.48 518.443 143.151 527.966 143.151Z" fill="white"/>
<path d="M481.095 160.738H460.602V74.1401H481.095V160.738Z" fill="white"/>
<path d="M434.949 84.9336C428.559 84.9336 423.377 79.7181 423.377 73.2896C423.377 66.9833 428.559 61.7679 434.949 61.7679C441.218 61.7679 446.4 66.9833 446.4 73.2896C446.4 79.7181 441.218 84.9336 434.949 84.9336ZM445.196 160.494H424.461V93.1805H445.196V160.494Z" fill="white"/>
<path d="M381.203 162.556C363.844 162.556 351.669 150.306 351.669 134.054V93.1802H372.282V135.388C372.282 140.36 375.417 143.15 381.203 143.15C387.592 143.15 390.003 139.754 390.003 135.388V93.1802H410.737V134.054C410.737 150.306 398.682 162.556 381.203 162.556Z" fill="white"/>
<path d="M303.441 162.556C278.609 162.556 258.719 142.3 258.719 117.437C258.719 92.3309 278.609 72.319 303.441 72.319C315.738 72.319 329.36 76.9279 336.593 86.0247L324.297 99.6081C318.872 94.1505 313.688 91.3612 303.441 91.3612C290.181 91.3612 279.332 102.397 279.332 117.437C279.332 132.234 290.181 143.392 303.441 143.392C311.036 143.392 315.617 142.058 320.439 137.57V127.746H303.441V108.341H340.812V142.542C336.954 148.729 324.417 162.556 303.441 162.556Z" fill="white"/>
</g>
<defs>
<clipPath id="clip0_4240_25">
<rect width="460" height="129" fill="white" transform="translate(106 34)"/>
</clipPath>
</defs>
</svg>
