<svg width="672" height="210" viewBox="0 0 672 210" fill="none" xmlns="http://www.w3.org/2000/svg">
<g style="mix-blend-mode:luminosity">
<path d="M336.758 116.511C337.323 120.141 339.035 123.165 341.895 125.584C344.793 127.966 348.669 129.157 353.524 129.157C357.325 129.157 360.618 128.571 363.403 127.399C366.225 126.189 368.652 124.601 370.685 122.635L376.668 130.915C373.281 134.317 369.688 136.642 365.887 137.89C362.123 139.137 358.002 139.761 353.524 139.761C349.459 139.761 345.677 139.08 342.178 137.719C338.678 136.359 335.648 134.468 333.089 132.049C330.53 129.592 328.517 126.681 327.049 123.316C325.619 119.951 324.904 116.209 324.904 112.088C324.904 108.081 325.563 104.395 326.879 101.03C328.234 97.6282 330.116 94.6983 332.525 92.241C334.971 89.7457 337.887 87.8179 341.274 86.4567C344.661 85.0581 348.406 84.3586 352.508 84.3586C356.76 84.3586 360.618 85.0958 364.08 86.5701C367.542 88.0068 370.496 90.1049 372.943 92.8648C375.427 95.6243 377.365 99.008 378.757 103.015C380.149 106.985 380.846 111.483 380.846 116.511H336.758ZM367.636 106.191C367.034 102.788 365.284 100.066 362.387 98.0251C359.489 95.9458 356.196 94.906 352.508 94.906C348.82 94.906 345.508 95.9458 342.573 98.0251C339.637 100.066 337.868 102.788 337.266 106.191H367.636ZM422.996 138.457H387.658V127.909H399.174V75.059H387.658V64.4548H410.859V127.909H422.996V138.457ZM481.489 122.635C481.489 126.076 480.717 128.873 479.175 131.028C477.631 133.183 475.637 134.922 473.191 136.245C470.781 137.568 468.074 138.475 465.061 138.967C462.089 139.496 459.172 139.761 456.314 139.761C451.532 139.761 446.772 139.062 442.031 137.663C437.289 136.264 433.187 134.43 429.726 132.162L434.578 122.522C438.72 124.942 442.501 126.662 445.926 127.682C449.387 128.665 452.849 129.157 456.314 129.157C461.015 129.157 464.44 128.665 466.588 127.682C468.732 126.662 469.803 125.263 469.803 123.486C469.803 122.617 469.501 121.898 468.901 121.331C468.298 120.764 467.301 120.254 465.907 119.8C464.517 119.309 462.674 118.836 460.378 118.383C458.12 117.891 455.295 117.381 451.911 116.851C449.2 116.398 446.621 115.85 444.175 115.207C441.766 114.526 439.64 113.582 437.797 112.372C435.954 111.162 434.468 109.631 433.338 107.778C432.246 105.926 431.701 103.601 431.701 100.803C431.701 97.9682 432.415 95.5109 433.846 93.4317C435.314 91.3147 437.212 89.5757 439.547 88.2148C441.917 86.8539 444.572 85.871 447.507 85.2661C450.443 84.6612 453.378 84.3586 456.314 84.3586C460.452 84.3586 464.461 84.9069 468.335 86.0033C472.249 87.0616 475.674 88.5928 478.609 90.5964L473.981 99.6694C471.046 97.817 468.184 96.5695 465.4 95.9269C462.652 95.2463 459.624 94.906 456.314 94.906C454.92 94.906 453.471 94.9817 451.966 95.1329C450.461 95.284 449.068 95.5866 447.788 96.0404C446.508 96.4561 445.437 97.0421 444.572 97.7982C443.741 98.5165 443.329 99.4048 443.329 100.463C443.329 101.862 444.551 103.015 446.997 103.923C449.483 104.792 453.698 105.661 459.643 106.531C462.88 106.985 465.834 107.571 468.504 108.289C471.178 108.969 473.474 109.915 475.394 111.124C477.311 112.296 478.797 113.827 479.852 115.717C480.944 117.57 481.489 119.876 481.489 122.635ZM489.704 123.259C489.704 120.159 490.535 117.456 492.191 115.15C493.846 112.806 496.009 110.859 498.683 109.31C501.391 107.76 504.477 106.607 507.938 105.851C511.44 105.057 514.997 104.66 518.609 104.66C520.603 104.66 522.314 104.697 523.744 104.773C525.175 104.849 526.624 104.962 528.092 105.113V103.015C528.092 100.255 527.018 98.1951 524.874 96.8341C522.766 95.4732 519.981 94.7926 516.52 94.7926C513.36 94.7926 510.141 95.2463 506.867 96.1535C503.594 97.0233 500.489 98.3085 497.554 100.01L492.812 90.8232C496.274 88.8197 499.978 87.2508 503.932 86.1167C507.92 84.9446 512.117 84.3586 516.52 84.3586C519.378 84.3586 522.184 84.6801 524.929 85.3227C527.717 85.9653 530.2 87.0239 532.381 88.4983C534.603 89.9726 536.372 91.9007 537.689 94.2823C539.006 96.6261 539.664 99.5371 539.664 103.015V138.457H528.092V130.688C526.249 133.561 523.52 135.791 519.908 137.379C516.332 138.967 512.474 139.761 508.335 139.761C505.775 139.761 503.347 139.402 501.052 138.683C498.794 138.003 496.837 136.963 495.181 135.565C493.526 134.166 492.191 132.446 491.172 130.404C490.194 128.325 489.704 125.943 489.704 123.259ZM511.326 129.27C513.621 129.27 515.766 128.987 517.763 128.42C519.794 127.815 521.581 127.002 523.123 125.981C524.668 124.923 525.871 123.656 526.738 122.182C527.64 120.708 528.092 119.082 528.092 117.305V115.321C526.249 115.018 524.517 114.848 522.898 114.81C521.28 114.772 519.849 114.753 518.609 114.753C512.889 114.753 508.56 115.509 505.624 117.022C502.726 118.534 501.277 120.405 501.277 122.635C501.277 127.059 504.628 129.27 511.326 129.27Z" fill="white"/>
<mask id="mask0_4240_220" style="mask-type:luminance" maskUnits="userSpaceOnUse" x="116" y="37" width="180" height="136">
<path d="M295.61 37H116V173H295.61V37Z" fill="white"/>
</mask>
<g mask="url(#mask0_4240_220)">
<path d="M295.608 108.185C295.608 119.951 290.752 130.662 282.961 136.701C283.175 135.872 283.356 135.032 283.538 134.171V134.149C283.623 133.73 283.698 133.299 283.772 132.869C283.847 132.427 283.922 131.986 283.986 131.544C284.05 131.103 284.114 130.651 284.167 130.199C284.221 129.833 284.263 129.478 284.295 129.101C284.349 128.649 284.392 128.197 284.424 127.723C284.477 127.163 284.509 126.593 284.541 126.011C284.573 125.355 284.605 124.741 284.626 124.149C284.648 123.568 284.658 123.008 284.658 122.481V121.576C284.68 119.596 284.701 116.485 284.53 112.599C284.509 112.233 284.498 111.856 284.477 111.468C284.456 111.081 284.434 110.693 284.413 110.295C284.37 109.606 284.328 108.896 284.263 108.174C284.242 107.905 284.221 107.636 284.199 107.356C284.146 106.732 284.092 106.086 284.028 105.429C283.89 104.008 283.73 102.545 283.527 101.048C283.399 100.112 283.26 99.1644 283.111 98.1957C282.887 96.721 282.62 95.2247 282.31 93.6959C282.204 93.1899 282.097 92.6735 281.99 92.1567C281.873 91.6077 281.755 91.0479 281.627 90.499C281.52 90.0684 281.414 89.6271 281.307 89.1857C281.179 88.6151 281.029 88.0445 280.869 87.4742C280.731 86.9466 280.592 86.4193 280.443 85.8917C280.261 85.2135 280.058 84.5246 279.834 83.8356C279.728 83.4588 279.61 83.0821 279.482 82.7053C279.311 82.1671 279.14 81.6395 278.959 81.1014C278.778 80.5741 278.585 80.0357 278.393 79.4975C278.031 78.4642 277.636 77.4306 277.209 76.3973C277.198 76.3649 277.187 76.3327 277.166 76.3003C288.031 80.6817 295.608 93.4808 295.608 108.185Z" fill="#D80012"/>
<path d="M135.83 75.7965C135.563 76.3776 135.296 76.959 135.04 77.5401C134.517 78.7029 134.026 79.8654 133.589 81.0278C133.386 81.5338 133.194 82.0398 133.002 82.5458C132.938 82.6963 132.884 82.858 132.831 83.0085C132.649 83.5037 132.468 84.0096 132.297 84.5048C132.094 85.0862 131.902 85.6676 131.71 86.2487C131.134 87.9818 130.622 89.6935 130.173 91.3941C130.013 91.9539 129.864 92.5245 129.725 93.0842C129.586 93.644 129.448 94.2038 129.319 94.7527C129.181 95.3125 129.053 95.8614 128.935 96.4107C128.764 97.1426 128.615 97.8745 128.476 98.5956C128.434 98.7573 128.402 98.9186 128.38 99.0803C128.231 99.8014 128.103 100.523 127.975 101.233C127.793 102.277 127.623 103.311 127.473 104.312C126.939 107.832 126.609 111.083 126.406 113.946C126.342 114.678 126.299 115.389 126.267 116.078C126.256 116.153 126.256 116.228 126.256 116.303C126.235 116.616 126.224 116.917 126.214 117.208C126.192 117.692 126.171 118.155 126.16 118.596C126.139 119.318 126.118 119.996 126.118 120.62C126.096 121.266 126.096 121.858 126.096 122.396C126.096 122.934 126.096 123.505 126.128 124.108C126.139 124.399 126.15 124.711 126.16 125.023C126.16 125.346 126.192 125.669 126.203 126.013C126.246 126.821 126.31 127.617 126.384 128.403C126.406 128.64 126.427 128.877 126.459 129.113C126.502 129.576 126.555 130.028 126.619 130.47C126.747 131.493 126.897 132.504 127.089 133.484C127.164 133.882 127.238 134.27 127.324 134.657C127.398 135.045 127.484 135.432 127.58 135.809C120.429 129.619 116 119.274 116 108.187C116 92.8583 124.325 79.5961 135.83 75.7965Z" fill="#D80012"/>
<path d="M281.449 121.545V122.471C281.439 123.483 281.407 124.57 281.332 125.83C281.278 126.82 281.204 127.799 281.108 128.747C280.809 131.599 280.318 134.258 279.614 136.809C279.571 136.949 279.528 137.1 279.486 137.24C279.432 137.477 279.358 137.714 279.272 137.94C279.166 138.295 279.037 138.661 278.909 139.005C278.877 139.091 278.856 139.167 278.824 139.242C278.738 139.457 278.664 139.673 278.578 139.877C277.212 143.354 275.153 146.627 272.41 149.652C252.526 173.624 205.93 173.022 205.47 172.989H205.3C204.841 173.022 158.223 173.614 138.297 149.598C135.469 146.476 133.334 143.01 131.957 139.296C131.648 138.478 131.381 137.649 131.146 136.809C130.559 134.689 130.122 132.493 129.812 130.168C129.631 128.779 129.503 127.336 129.417 125.84C129.353 124.527 129.321 123.44 129.321 122.385C129.3 117.25 129.695 107.002 132.47 95.344C132.747 94.214 133.035 93.062 133.355 91.8995C134.156 88.9823 135.106 86.0221 136.237 83.0508C136.696 81.8562 137.176 80.6613 137.688 79.4771C138.211 78.2822 138.756 77.1089 139.321 75.9247C139.62 75.3328 139.908 74.7514 140.218 74.1595C153.057 49.4977 175.705 37 207.53 37C239.356 37 261.374 49.5838 272.826 74.3963C274.843 78.7452 276.38 83.2017 277.575 87.5614C281.61 102.406 281.492 116.195 281.449 121.545Z" fill="#D80012"/>
<path d="M129.81 130.167C130.109 132.492 130.546 134.688 131.133 136.809H131.144C130.557 134.688 130.119 132.492 129.81 130.167ZM129.735 112.47C129.756 112.255 129.778 112.05 129.799 111.824C129.82 111.544 129.852 111.254 129.874 110.973C129.82 111.49 129.778 111.985 129.735 112.47ZM129.34 119.811C129.372 118.272 129.447 116.464 129.586 114.45C129.425 116.604 129.361 118.52 129.329 120.134V120.403C129.308 121.125 129.308 121.792 129.308 122.384C129.308 123.439 129.34 124.526 129.415 125.84C129.351 124.526 129.319 123.439 129.319 122.384C129.319 121.9 129.319 121.383 129.329 120.812C129.329 120.489 129.34 120.156 129.34 119.811ZM129.329 120.134V120.812C129.329 120.489 129.34 120.156 129.34 119.811C129.34 119.919 129.34 120.026 129.329 120.134Z" fill="white"/>
<path d="M171.493 101.319C165.729 101.89 159.443 101.825 152.591 101.254H152.548C150.275 100.942 148.151 102.46 147.671 104.731C145.91 113.117 144.128 121.524 144.149 129.63C144.149 130.545 144.181 131.449 144.235 132.354C144.405 135.303 144.832 138.209 145.643 141.051C146.796 145.067 148.877 148.49 151.609 151.407C167.586 170.083 203.916 169.9 205.741 169.804C207.566 169.9 243.896 170.083 259.873 151.407C262.594 148.49 264.686 145.067 265.839 141.051C266.65 138.209 267.077 135.292 267.248 132.343C267.301 131.46 267.333 130.577 267.333 129.695C267.365 121.578 265.583 113.149 263.811 104.742C263.331 102.482 261.217 100.964 258.933 101.265H258.891C252.039 101.836 245.753 101.9 239.99 101.33C234.109 100.458 226.884 96.712 220.576 92.7399C211.472 87.0239 199.989 87.0239 190.885 92.7399C184.577 96.7012 177.352 100.447 171.471 101.319H171.493Z" fill="white"/>
<path d="M171.616 133.732C176.269 133.732 180.047 129.932 180.047 125.228C180.047 120.523 176.269 116.724 171.616 116.724C166.962 116.724 163.185 120.523 163.185 125.228C163.185 129.932 166.962 133.732 171.616 133.732Z" fill="#D80012"/>
<path d="M239.449 133.732C244.103 133.732 247.881 129.932 247.881 125.228C247.881 120.523 244.103 116.724 239.449 116.724C234.796 116.724 231.018 120.523 231.018 125.228C231.018 129.932 234.796 133.732 239.449 133.732Z" fill="#D80012"/>
<path d="M194.347 142.806L216.279 142.752C216.279 142.752 217.88 156.897 204.518 156.531C192.65 156.197 194.358 142.806 194.358 142.806H194.347Z" fill="#D80012"/>
<path d="M204.989 82.0444C213.39 82.0444 220.201 75.2029 220.201 66.7635C220.201 58.3241 213.39 51.4826 204.989 51.4826C196.588 51.4826 189.777 58.3241 189.777 66.7635C189.777 75.2029 196.588 82.0444 204.989 82.0444Z" fill="white"/>
<path d="M204.99 77.4609C210.87 77.4609 215.638 72.6719 215.638 66.7643C215.638 60.8567 210.87 56.0677 204.99 56.0677C199.109 56.0677 194.341 60.8567 194.341 66.7643C194.341 72.6719 199.109 77.4609 204.99 77.4609Z" fill="#D80012"/>
<path d="M204.988 72.8744C208.348 72.8744 211.072 70.1378 211.072 66.762C211.072 63.3863 208.348 60.6497 204.988 60.6497C201.627 60.6497 198.903 63.3863 198.903 66.762C198.903 70.1378 201.627 72.8744 204.988 72.8744Z" fill="white"/>
</g>
</g>
</svg>
