<svg width="672" height="210" viewBox="0 0 672 210" fill="none" xmlns="http://www.w3.org/2000/svg">
<mask id="mask0_4240_85" style="mask-type:luminance" maskUnits="userSpaceOnUse" x="63" y="77" width="85" height="55">
<path d="M147.449 77.5987H63V131.268H147.449V77.5987Z" fill="white"/>
</mask>
<g mask="url(#mask0_4240_85)">
<path d="M63 98.1876C63 96.1317 64.5138 94.383 66.5286 93.9773C73.4275 92.5883 88.8497 88.5658 98.2698 79.0687V100.131V113.477C98.2698 113.906 98.297 114.326 98.3525 114.752C98.7542 117.84 100.456 131.206 99.7601 130.75C89.803 124.238 73.351 120.16 66.3358 118.633C64.4029 118.212 63 116.513 63 114.534V98.1876Z" fill="white"/>
<mask id="mask1_4240_85" style="mask-type:luminance" maskUnits="userSpaceOnUse" x="63" y="79" width="37" height="52">
<path d="M63 98.1876C63 96.1317 64.5138 94.383 66.5286 93.9773C73.4275 92.5883 88.8497 88.5658 98.2698 79.0687V100.131V113.477C98.2698 113.906 98.297 114.326 98.3525 114.752C98.7542 117.84 100.456 131.206 99.7601 130.75C89.803 124.238 73.351 120.16 66.3358 118.633C64.4029 118.212 63 116.513 63 114.534V98.1876Z" fill="white"/>
</mask>
<g mask="url(#mask1_4240_85)">
<path d="M98.2697 79.0687H103.138V67.2476L94.8142 75.6388L98.2697 79.0687ZM93.4018 100.131V113.477H103.138V100.131H93.4018ZM67.8678 114.534V98.1877H58.1321V114.534H67.8678ZM67.489 98.7512C74.4507 97.3496 91.1883 93.1215 101.725 82.4988L94.8142 75.6388C86.511 84.01 72.4041 87.8271 65.5682 89.2034L67.489 98.7512ZM93.4018 79.0687V100.131H103.138V79.0687H93.4018ZM93.5252 115.38C93.7252 116.917 94.245 120.983 94.6273 124.593C94.8202 126.414 94.9689 128.037 95.0298 129.144C95.0447 129.415 95.053 129.632 95.0561 129.799C95.0595 129.979 95.0559 130.046 95.0564 130.034C95.057 130.027 95.061 129.953 95.0783 129.835C95.091 129.747 95.1353 129.454 95.2674 129.075C95.3297 128.897 95.7336 127.669 97.0285 126.763C97.8154 126.212 98.8538 125.842 100.021 125.898C101.111 125.949 101.932 126.353 102.424 126.675L97.0961 134.826C97.6095 135.162 98.4511 135.574 99.561 135.626C100.747 135.682 101.804 135.306 102.608 134.744C103.938 133.814 104.371 132.537 104.459 132.284C104.726 131.519 104.764 130.806 104.775 130.607C104.812 129.984 104.786 129.253 104.751 128.61C104.676 127.243 104.505 125.417 104.309 123.567C103.914 119.836 103.381 115.675 103.179 114.123L93.5252 115.38ZM102.424 126.675C91.6159 119.605 74.3129 115.385 67.3705 113.875L65.301 123.391C72.389 124.934 87.9902 128.87 97.0961 134.826L102.424 126.675ZM58.1321 114.534C58.1321 118.863 61.1888 122.497 65.301 123.391L67.3705 113.875C67.617 113.928 67.8678 114.164 67.8678 114.534H58.1321ZM93.4018 113.477C93.4018 114.117 93.4429 114.747 93.5252 115.38L103.179 114.123C103.151 113.906 103.138 113.695 103.138 113.477H93.4018ZM67.8678 98.1877C67.8678 98.3787 67.7935 98.5279 67.7242 98.6099C67.6603 98.6853 67.5789 98.7331 67.489 98.7512L65.5682 89.2034C61.4164 90.0392 58.1321 93.677 58.1321 98.1877H67.8678Z" fill="white"/>
</g>
<path fill-rule="evenodd" clip-rule="evenodd" d="M75.4381 125.724V117.446H69.6802V126.616C69.6802 129.305 71.8588 131.484 74.5462 131.484H81.7257C84.4132 131.484 86.5917 129.305 86.5917 126.616V119.795H80.8338V125.724H75.4381Z" fill="white"/>
<path fill-rule="evenodd" clip-rule="evenodd" d="M139.496 83.7433H102.737C101.739 83.7433 100.931 84.5522 100.931 85.5498V123.317C100.931 124.315 101.739 125.124 102.737 125.124H139.496C140.494 125.124 141.302 124.315 141.302 123.317V85.5498C141.302 84.5522 140.494 83.7433 139.496 83.7433ZM102.737 77.5987C98.3469 77.5987 94.7883 81.1586 94.7883 85.5498V123.317C94.7883 127.708 98.3469 131.268 102.737 131.268H139.496C143.886 131.268 147.445 127.708 147.445 123.317V85.5498C147.445 81.1586 143.886 77.5987 139.496 77.5987H102.737Z" fill="white"/>
<path d="M116.44 100.506H114.656C113.587 100.506 112.721 101.373 112.721 102.443V107.107C112.721 108.177 113.587 109.043 114.656 109.043H116.44C117.509 109.043 118.376 108.177 118.376 107.107V102.443C118.376 101.373 117.509 100.506 116.44 100.506Z" fill="white" stroke="white" stroke-width="0.0536622"/>
<path d="M129.815 100.506H128.031C126.963 100.506 126.096 101.373 126.096 102.443V107.107C126.096 108.177 126.963 109.043 128.031 109.043H129.815C130.884 109.043 131.751 108.177 131.751 107.107V102.443C131.751 101.373 130.884 100.506 129.815 100.506Z" fill="white" stroke="white" stroke-width="0.0536622"/>
</g>
<path d="M176.43 133.8V81.96H188.906L205.668 121.448H205.924L222.749 81.96H235.161V133.8H226.268V93.5439H226.012L209.25 133.8H201.829L185.003 93.48H184.747V133.8H176.43ZM263.689 134.568C259.636 134.568 256.097 133.757 253.068 132.136C250.083 130.472 247.78 128.125 246.159 125.096C244.538 122.067 243.728 118.525 243.728 114.472C243.728 110.419 244.517 106.92 246.095 103.976C247.716 100.989 249.998 98.6853 252.94 97.0641C255.884 95.4426 259.359 94.632 263.369 94.632C267.207 94.632 270.513 95.4 273.286 96.936C276.057 98.4294 278.19 100.584 279.683 103.4C281.218 106.173 281.986 109.48 281.986 113.32V116.52H252.045C252.386 120.019 253.559 122.728 255.563 124.648C257.569 126.525 260.256 127.464 263.624 127.464C266.098 127.464 268.125 126.995 269.703 126.056C271.28 125.117 272.368 123.709 272.965 121.832H281.794C280.856 125.843 278.787 128.979 275.589 131.24C272.432 133.459 268.465 134.568 263.689 134.568ZM252.301 110.44H273.67C273.328 107.624 272.261 105.469 270.47 103.976C268.68 102.44 266.311 101.672 263.369 101.672C260.427 101.672 257.995 102.44 256.076 103.976C254.156 105.469 252.898 107.624 252.301 110.44ZM306.724 149.928C301.223 149.928 296.744 148.797 293.289 146.536C289.834 144.275 287.788 141.139 287.147 137.128H296.36C297.469 140.925 300.86 142.824 306.532 142.824C310.244 142.824 313.081 141.949 315.042 140.2C317.004 138.493 317.984 136.04 317.984 132.84V127.08H317.664C316.599 129.256 315 130.92 312.866 132.072C310.733 133.224 308.196 133.8 305.254 133.8C301.628 133.8 298.471 133.011 295.784 131.432C293.141 129.811 291.072 127.549 289.579 124.648C288.13 121.704 287.404 118.227 287.404 114.216C287.404 108.2 289.024 103.443 292.266 99.9441C295.55 96.4026 300.05 94.632 305.764 94.632C308.921 94.632 311.609 95.2293 313.825 96.4239C316.086 97.5759 317.879 99.2613 319.199 101.48H321.886V95.4H330.907V104.168H326.493V133.032C326.493 138.408 324.765 142.568 321.311 145.512C317.9 148.456 313.036 149.928 306.724 149.928ZM307.365 126.248C310.562 126.248 313.102 125.352 314.977 123.56C316.854 121.725 317.793 119.272 317.793 116.2V112.168C317.793 109.139 316.833 106.728 314.914 104.936C313.036 103.101 310.52 102.184 307.365 102.184C303.824 102.184 301.052 103.251 299.047 105.384C297.085 107.475 296.104 110.419 296.104 114.216C296.104 118.056 297.085 121.021 299.047 123.112C301.052 125.203 303.824 126.248 307.365 126.248ZM349.966 134.504C345.572 134.504 342.097 133.416 339.538 131.24C337.022 129.064 335.763 126.205 335.763 122.664C335.763 118.952 337.043 116.072 339.601 114.024C342.16 111.976 345.83 110.952 350.605 110.952H362.762V109.352C362.762 104.232 359.862 101.672 354.06 101.672C349.156 101.672 346.213 103.443 345.231 106.984H336.531C337.256 103.016 339.133 99.9654 342.16 97.8321C345.231 95.6988 349.219 94.632 354.125 94.632C359.626 94.632 363.827 95.9121 366.727 98.472C369.629 100.989 371.078 104.659 371.078 109.48V125.032H375.237V133.8H366.216V127.72H363.529C362.207 129.853 360.416 131.517 358.155 132.712C355.894 133.907 353.165 134.504 349.966 134.504ZM351.246 127.72C353.42 127.72 355.382 127.293 357.13 126.44C358.881 125.587 360.245 124.456 361.226 123.048C362.249 121.597 362.762 119.997 362.762 118.248V117.032H351.054C346.361 117.032 344.016 118.781 344.016 122.28C344.016 123.987 344.655 125.331 345.935 126.312C347.215 127.251 348.985 127.72 351.246 127.72ZM383.34 149.16V104.168H378.926V95.4H388.01V101.48H390.697C391.977 99.2613 393.747 97.5759 396.008 96.4239C398.267 95.2293 400.977 94.632 404.132 94.632C408.013 94.632 411.297 95.4639 413.984 97.128C416.715 98.7493 418.782 101.053 420.191 104.04C421.64 107.027 422.365 110.547 422.365 114.6C422.365 118.653 421.661 122.195 420.254 125.224C418.89 128.211 416.884 130.515 414.241 132.136C411.639 133.757 408.504 134.568 404.836 134.568C401.936 134.568 399.397 134.013 397.223 132.904C395.09 131.752 393.447 130.131 392.296 128.04H392.041V149.16H383.34ZM402.597 127.08C406.18 127.08 408.909 125.971 410.786 123.752C412.706 121.533 413.665 118.483 413.665 114.6C413.665 110.717 412.706 107.667 410.786 105.448C408.909 103.229 406.18 102.12 402.597 102.12C399.397 102.12 396.839 103.037 394.919 104.872C393 106.707 392.041 109.181 392.041 112.296V116.904C392.041 120.019 393 122.493 394.919 124.328C396.839 126.163 399.397 127.08 402.597 127.08ZM429.747 133.8V80.04H438.447V101.288H438.704C439.94 99.1119 441.626 97.4694 443.758 96.36C445.933 95.2506 448.493 94.6959 451.435 94.6959C456.254 94.6959 460.072 96.1467 462.888 99.048C465.744 101.907 467.173 105.747 467.173 110.568V133.8H458.473V112.104C458.473 108.947 457.619 106.536 455.913 104.872C454.251 103.208 451.777 102.376 448.493 102.376C445.207 102.376 442.712 103.208 441.008 104.872C439.301 106.536 438.447 108.947 438.447 112.104V133.8H429.747ZM494.356 134.568C490.305 134.568 486.766 133.757 483.737 132.136C480.752 130.472 478.426 128.147 476.764 125.16C475.1 122.173 474.269 118.653 474.269 114.6C474.269 110.547 475.079 107.027 476.699 104.04C478.363 101.053 480.708 98.7493 483.737 97.128C486.766 95.4639 490.326 94.632 494.422 94.632C498.558 94.632 502.12 95.4426 505.104 97.0641C508.091 98.6853 510.394 100.989 512.014 103.976C513.636 106.963 514.446 110.504 514.446 114.6C514.446 118.653 513.636 122.195 512.014 125.224C510.394 128.211 508.07 130.515 505.041 132.136C502.057 133.757 498.494 134.568 494.356 134.568ZM494.356 127.016C497.982 127.016 500.776 125.907 502.738 123.688C504.744 121.469 505.746 118.44 505.746 114.6C505.746 110.675 504.744 107.624 502.738 105.448C500.776 103.272 497.982 102.184 494.356 102.184C490.775 102.184 487.981 103.293 485.977 105.512C483.971 107.688 482.969 110.717 482.969 114.6C482.969 118.44 483.971 121.469 485.977 123.688C487.981 125.907 490.775 127.016 494.356 127.016ZM523.988 133.8V104.168H519.574V95.4H528.658V101.48H531.345C532.71 99.3039 534.523 97.6401 536.784 96.4881C539.088 95.2933 541.859 94.6959 545.101 94.6959C550.219 94.6959 554.206 96.1467 557.064 99.048C559.964 101.907 561.415 105.747 561.415 110.568V133.8H552.715V112.104C552.715 108.947 551.86 106.536 550.154 104.872C548.492 103.208 546.018 102.376 542.734 102.376C539.448 102.376 536.953 103.208 535.249 104.872C533.543 106.536 532.689 108.947 532.689 112.104V133.8H523.988ZM588.469 134.568C584.418 134.568 580.878 133.757 577.85 132.136C574.863 130.472 572.56 128.125 570.94 125.096C569.32 122.067 568.508 118.525 568.508 114.472C568.508 110.419 569.297 106.92 570.877 103.976C572.497 100.989 574.779 98.6853 577.721 97.0641C580.665 95.4426 584.141 94.632 588.151 94.632C591.989 94.632 595.294 95.4 598.066 96.936C600.839 98.4294 602.971 100.584 604.465 103.4C606 106.173 606.768 109.48 606.768 113.32V116.52H576.827C577.166 120.019 578.341 122.728 580.345 124.648C582.349 126.525 585.036 127.464 588.406 127.464C590.88 127.464 592.905 126.995 594.484 126.056C596.062 125.117 597.15 123.709 597.747 121.832H606.576C605.637 125.843 603.568 128.979 600.369 131.24C597.213 133.459 593.246 134.568 588.469 134.568ZM577.082 110.44H598.45C598.11 107.624 597.043 105.469 595.252 103.976C593.459 102.44 591.093 101.672 588.151 101.672C585.206 101.672 582.777 102.44 580.857 103.976C578.938 105.469 577.679 107.624 577.082 110.44Z" fill="white"/>
</svg>
