<svg width="672" height="210" viewBox="0 0 672 210" fill="none" xmlns="http://www.w3.org/2000/svg">
<g clip-path="url(#clip0_4240_208)">
<path d="M112.991 143.054C109.463 144.319 105.644 145 101.679 145C83.0835 145 68 129.899 68 111.245C68 92.5912 83.0835 77.4899 101.679 77.4899C105.644 77.4899 109.447 78.1711 112.991 79.4363C99.9471 84.0916 90.609 96.5815 90.609 111.245C90.609 125.908 99.9471 138.398 112.991 143.054ZM146.913 77.4899C142.948 77.4899 139.145 78.1711 135.6 79.4363C148.645 84.0916 157.983 96.5815 157.983 111.245C157.983 125.908 148.645 138.398 135.6 143.054C139.129 144.319 142.948 145 146.913 145C165.525 145 180.592 129.882 180.592 111.245C180.592 92.6075 165.508 77.4899 146.913 77.4899Z" fill="white"/>
<path d="M284.137 135.235V110.985C284.137 106.963 284.137 102.47 282.454 99.4688C281.046 97.0357 278.618 95.8191 275.252 95.8191C271.335 95.8191 267.127 98.3496 264.231 102.372C264.603 104.708 264.7 107.433 264.7 110.142V135.235H253.387V110.985C253.387 106.963 253.387 102.178 251.51 99.1768C250.199 96.9221 247.869 95.8029 244.777 95.8029C240.942 95.8029 236.653 98.8037 233.934 102.259V135.219H222.622V87.0114H232.995L233.465 93.4672C237.203 88.4063 242.803 85.8759 247.852 85.8759C252.902 85.8759 257.757 88.1306 260.848 92.429C261.22 92.9968 261.495 93.5483 261.868 94.2944C266.254 88.017 272.42 85.8597 278.213 85.8597C284.007 85.8597 288.215 88.1144 291.112 91.8613C294.753 96.5491 295.498 103.005 295.498 110.126V135.219H284.104L284.137 135.235Z" fill="white"/>
<path d="M350.297 111.083C350.297 125.227 339.745 136.371 325.341 136.371C310.937 136.371 300.385 125.227 300.385 111.083C300.385 96.9384 310.937 85.8921 325.341 85.8921C339.745 85.8921 350.297 97.0357 350.297 111.083ZM325.341 95.8191C317.492 95.8191 311.892 102.648 311.892 111.083C311.892 119.517 317.492 126.444 325.341 126.444C333.19 126.444 338.79 119.615 338.79 111.083C338.79 102.551 333.19 95.8191 325.341 95.8191Z" fill="white"/>
<path d="M402.895 111.083C402.895 125.227 392.343 136.371 377.939 136.371C363.535 136.371 352.983 125.227 352.983 111.083C352.983 96.9384 363.535 85.8921 377.939 85.8921C392.343 85.8921 402.895 97.0357 402.895 111.083ZM377.939 95.8191C370.09 95.8191 364.49 102.648 364.49 111.083C364.49 119.517 370.09 126.444 377.939 126.444C385.788 126.444 391.388 119.615 391.388 111.083C391.388 102.551 385.788 95.8191 377.939 95.8191Z" fill="white"/>
<path d="M418.496 87.0114L419.062 94.1322C422.898 88.601 428.595 85.8921 434.389 85.8921C440.183 85.8921 444.666 88.2279 447.66 92.0722C451.204 96.7599 451.964 103.118 451.964 110.142V135.235H440.652V110.985C440.652 106.963 440.555 102.47 438.775 99.4688C437.367 97.0357 434.939 95.8191 431.492 95.8191C427.009 95.8191 422.332 98.7226 419.532 103.216V135.251H408.219V87.0114H418.496Z" fill="white"/>
<path d="M502.588 119.891H502.782L511.376 87.1087H522.964L509.045 135.251H497.183L488.492 103.686H488.298L479.413 135.251H467.08L453.81 87.1087H465.964L473.813 119.988H474.007L483.264 87.1087H493.913L502.604 119.891H502.588Z" fill="white"/>
<path d="M532.674 113.986C533.418 121.204 538.273 127.092 546.123 127.092C552.386 127.092 556.4 124.659 559.394 119.599L567.049 124.757C561.724 132.624 555.461 136.371 545.459 136.371C530.602 136.371 521.264 125.779 521.264 111.456C521.264 97.133 531.816 85.8921 545.459 85.8921C559.102 85.8921 568.165 95.3487 568.165 108.277C568.165 110.061 567.971 112.202 567.696 113.986H532.658H532.674ZM545.751 94.9757C538.84 94.9757 534.826 99.6634 533.321 105.843H556.594C556.319 99.5661 551.739 94.9757 545.751 94.9757Z" fill="white"/>
<path d="M584.818 135.235H573.506V65H584.818V135.235Z" fill="white"/>
<path d="M605 135.235H593.688V65H605V135.235Z" fill="white"/>
</g>
<defs>
<clipPath id="clip0_4240_208">
<rect width="537" height="80" fill="white" transform="translate(68 65)"/>
</clipPath>
</defs>
</svg>
