<svg width="672" height="210" viewBox="0 0 672 210" fill="none" xmlns="http://www.w3.org/2000/svg">
<g clip-path="url(#clip0_4240_154)">
<mask id="mask0_4240_154" style="mask-type:luminance" maskUnits="userSpaceOnUse" x="93" y="55" width="492" height="100">
<path d="M585 55H93V155H585V55Z" fill="white"/>
</mask>
<g mask="url(#mask0_4240_154)">
<path d="M105.077 120.312V148.291C105.077 150.014 106.524 150.728 106.974 150.891C107.424 151.086 108.935 151.508 110.285 150.241L131.29 129.9C133.078 128.168 134.805 126.348 136.102 124.217C136.713 123.216 136.966 122.652 136.966 122.652C138.252 120.02 138.252 117.485 136.998 114.95C135.134 111.181 130.376 107.346 123.207 103.707L110.96 110.596C107.327 112.676 105.077 116.348 105.077 120.312Z" fill="white" fill-opacity="0.8"/>
<path d="M93 58.0823V87.4262C93 91.0983 95.4431 94.3479 98.9149 95.3878C110.745 98.8323 131.35 106.241 136.333 117.127C136.975 118.557 137.361 119.955 137.491 121.417C140.801 115.34 142.312 108.354 141.605 101.269C140.64 91.2282 135.368 82.0968 127.139 76.28L97.7898 55.5801C97.2754 55.1902 96.6646 54.9952 96.0539 54.9952C95.5395 54.9952 95.0895 55.0927 94.6073 55.3527C93.6429 55.9051 93 56.9125 93 58.0823Z" fill="white"/>
<path d="M183.202 120.312V148.291C183.202 150.014 181.756 150.728 181.306 150.891C180.856 151.086 179.344 151.508 177.995 150.241L156.501 129.427C155.038 128.01 153.64 126.512 152.538 124.794C151.665 123.435 151.314 122.652 151.314 122.652C150.028 120.02 150.028 117.485 151.281 114.95C153.146 111.181 157.904 107.346 165.071 103.707L177.319 110.596C180.984 112.676 183.202 116.348 183.202 120.312Z" fill="white" fill-opacity="0.8"/>
<path d="M195.3 58.0803V87.4241C195.3 91.0961 192.856 94.3456 189.384 95.3855C177.555 98.8301 156.949 106.239 151.967 117.125C151.323 118.555 150.937 119.953 150.809 121.415C147.498 115.338 145.987 108.352 146.695 101.267C147.658 91.2261 152.93 82.0948 161.16 76.278L190.51 55.578C191.024 55.1881 191.635 54.9931 192.245 54.9931C192.759 54.9931 193.21 55.0906 193.691 55.3506C194.656 55.903 195.3 56.9104 195.3 58.0803Z" fill="white"/>
<path d="M245.091 64.4214H256.327L282.367 125.112H283.138L309.178 64.4214H320.22V134.393H312.022V78.7073H311.251L287.382 134.393H277.93L254.06 78.7073H253.288V134.393H245.091V64.4214Z" fill="white"/>
<path d="M329.275 109.66C329.275 92.9446 339.354 83.7122 354.302 83.7122C369.202 83.7122 379.329 92.9446 379.329 109.66C379.329 126.327 369.202 135.559 354.302 135.559C339.354 135.559 329.275 126.327 329.275 109.66ZM337.858 109.66C337.858 121.905 344.465 128.562 354.302 128.562C364.091 128.562 370.698 121.905 370.698 109.66C370.698 97.3665 364.091 90.758 354.302 90.758C344.465 90.758 337.858 97.3665 337.858 109.66Z" fill="white"/>
<path d="M387.434 84.8784H395.632V90.8066H396.403C398.092 87.308 401.178 84.6841 408.555 84.6841H415.403V92.07H408.748C399.538 92.07 395.921 97.1721 395.921 107.231V134.393H387.434V84.8784Z" fill="white"/>
<path d="M421.931 153.83V84.8785H430.226V91.7299H430.997C434.662 85.9961 440.641 83.7608 447.585 83.7608C460.363 83.7608 470.153 92.5073 470.153 109.66C470.153 126.764 460.363 135.511 447.585 135.511C440.785 135.511 434.855 133.324 431.19 127.833H430.418V153.83H421.931ZM430.129 109.66C430.129 121.662 436.494 128.416 445.849 128.416C455.252 128.416 461.618 121.662 461.618 109.66C461.618 97.6094 455.252 90.8552 445.849 90.8552C436.494 90.8552 430.129 97.6094 430.129 109.66Z" fill="white"/>
<path d="M478.279 64.4214H486.766V91.001H487.538C491.057 85.7531 496.893 83.7608 503.788 83.7608C515.217 83.7608 522.45 89.5918 522.45 101.691V134.393H513.963V102.517C513.963 94.451 509.574 90.9038 501.908 90.9038C493.517 90.9038 486.766 95.9087 486.766 106.745V134.393H478.279V64.4214Z" fill="white"/>
<path d="M530.085 109.66C530.085 92.9446 540.162 83.7122 555.111 83.7122C570.012 83.7122 580.139 92.9446 580.139 109.66C580.139 126.327 570.012 135.559 555.111 135.559C540.162 135.559 530.085 126.327 530.085 109.66ZM538.668 109.66C538.668 121.905 545.274 128.562 555.111 128.562C564.901 128.562 571.506 121.905 571.506 109.66C571.506 97.3665 564.901 90.758 555.111 90.758C545.274 90.758 538.668 97.3665 538.668 109.66Z" fill="white"/>
</g>
</g>
<defs>
<clipPath id="clip0_4240_154">
<rect width="492" height="100" fill="white" transform="translate(93 55)"/>
</clipPath>
</defs>
</svg>
