<svg width="672" height="210" viewBox="0 0 672 210" fill="none" xmlns="http://www.w3.org/2000/svg">
<g clip-path="url(#clip0_4240_144)">
<path d="M511.166 143.383C503.008 143.491 498.984 137.934 499.854 128.999L504.205 84.2143C505.292 72.446 511.384 65.7991 521.173 65.7991C529.548 65.7991 535.204 71.1384 537.162 81.0543L541.078 100.777L545.102 81.0543C547.169 71.1384 552.934 65.7991 561.309 65.7991C571.099 65.7991 576.972 72.5549 578.06 84.2143L582.737 128.999C583.716 138.261 579.474 143.491 571.642 143.383C564.572 143.383 560.548 139.133 559.895 130.96L557.72 102.847L552.39 131.941C550.976 139.569 547.278 143.383 541.295 143.383C535.422 143.383 531.724 139.569 530.201 131.941L524.436 102.847L522.696 130.96C522.152 139.133 518.236 143.274 511.166 143.383Z" fill="#FBFBFB"/>
<path d="M446.419 143.491C436.195 143.491 432.388 135.101 434.672 127.8L450.553 77.0225C452.837 69.7218 458.275 65.7991 466.325 65.7991C474.374 65.7991 479.812 69.7218 482.096 77.0225L497.977 127.8C500.152 134.665 496.998 143.491 486.121 143.491C479.812 143.491 476.223 139.787 474.809 132.595L474.374 130.416H458.711L457.84 133.031C455.665 140.114 451.749 143.491 446.419 143.491ZM461.43 113.417H471.328L466.325 90.0984L461.43 113.417Z" fill="#FBFBFB"/>
<path d="M408.951 143.818C389.154 143.818 375.776 129.326 375.776 104.7C375.776 80.4005 388.828 65.3632 409.93 65.3632C423.308 65.3632 432.445 71.5742 432.445 80.6184C432.445 86.7205 427.986 91.5149 422.112 91.5149C416.347 91.5149 415.586 86.7205 410.256 86.7205C403.73 86.7205 399.705 93.5853 399.705 104.591C399.705 115.487 403.838 122.461 410.365 122.461C415.912 122.461 416.782 117.34 422.438 117.34C428.421 117.34 432.771 121.916 432.771 128.018C432.771 137.389 423.091 143.818 408.951 143.818Z" fill="#FBFBFB"/>
<path d="M361.161 143.383C353.764 143.383 349.413 138.806 349.413 131.069V78.1122C349.413 70.3756 353.764 65.7991 361.161 65.7991C368.557 65.7991 372.908 70.3756 372.908 78.1122V131.069C372.908 138.806 368.557 143.383 361.161 143.383Z" fill="#FBFBFB"/>
<path d="M300.028 143.383C292.631 143.383 288.281 138.806 288.281 131.069V78.1122C288.281 70.3756 292.631 65.7991 300.028 65.7991C307.424 65.7991 311.775 70.3756 311.775 78.1122V89.0087C311.775 92.9315 313.407 95.2198 316.126 95.2198H317.214C319.933 95.2198 321.564 92.9315 321.564 89.0087V78.1122C321.564 70.3756 325.915 65.7991 333.312 65.7991C340.708 65.7991 345.059 70.3756 345.059 78.1122V131.069C345.059 138.806 340.708 143.383 333.312 143.383C325.915 143.383 321.564 138.806 321.564 131.069V120.173C321.564 116.25 319.933 113.962 317.214 113.962H316.126C313.407 113.962 311.775 116.25 311.775 120.173V131.069C311.775 138.806 307.424 143.383 300.028 143.383Z" fill="#FBFBFB"/>
<path d="M259.289 143.818C245.475 143.818 235.685 136.845 235.685 127.691C235.685 121.698 239.819 117.449 245.583 117.449C252.11 117.449 253.415 122.788 258.31 122.788C260.811 122.788 262.66 121.371 262.66 119.301C262.66 111.565 237.317 109.276 237.317 87.2653C237.317 73.7536 246.889 65.3632 262.334 65.3632C274.952 65.3632 283.762 70.9205 283.762 78.8749C283.762 84.4322 279.846 88.246 274.299 88.246C269.404 88.246 268.534 85.086 264.836 85.086C262.443 85.086 260.811 86.5025 260.811 88.6818C260.811 97.0722 286.155 97.0722 286.155 119.628C286.155 134.12 275.604 143.818 259.289 143.818Z" fill="#FBFBFB"/>
<path d="M204.542 143.818C185.289 143.818 172.672 128.345 172.672 104.591C172.672 80.8363 185.289 65.3632 204.542 65.3632C223.903 65.3632 236.52 80.8363 236.52 104.591C236.52 128.345 223.903 143.818 204.542 143.818ZM196.601 104.373C196.601 117.558 199.103 123.442 204.542 123.442C210.089 123.442 212.591 117.558 212.591 104.373C212.591 91.188 210.089 85.3039 204.542 85.3039C199.103 85.3039 196.601 91.188 196.601 104.373Z" fill="#FBFBFB"/>
<path d="M100.553 143.383C92.3949 143.491 88.3704 137.934 89.2406 128.999L93.5914 84.2143C94.6791 72.446 100.77 65.7991 110.56 65.7991C118.935 65.7991 124.591 71.1384 126.549 81.0543L130.465 100.777L134.489 81.0543C136.556 71.1384 142.321 65.7991 150.696 65.7991C160.485 65.7991 166.359 72.5549 167.447 84.2143L172.124 128.999C173.103 138.261 168.861 143.491 161.029 143.383C153.959 143.383 149.935 139.133 149.282 130.96L147.107 102.847L141.777 131.941C140.363 139.569 136.665 143.383 130.682 143.383C124.809 143.383 121.11 139.569 119.588 131.941L113.823 102.847L112.082 130.96C111.539 139.133 107.623 143.274 100.553 143.383Z" fill="#FBFBFB"/>
</g>
<defs>
<clipPath id="clip0_4240_144">
<rect width="494" height="79" fill="white" transform="translate(89 65)"/>
</clipPath>
</defs>
</svg>
