<svg width="672" height="210" viewBox="0 0 672 210" fill="none" xmlns="http://www.w3.org/2000/svg">
<g style="mix-blend-mode:luminosity">
<path d="M152.016 128.081H144.008V136.2H136V152.439H160.027V136.2H152.016V128.081ZM224.096 128.081V136.2H216.088V128.081H208.079V152.442H232.107V128.081H224.096Z" fill="#E8DDFF"/>
<path d="M176.044 71.2361V79.3556H168.036V87.475H160.027V79.3583H152.016V87.4778H136V63.1167H144.008V71.2389H160.027V63.1167H168.036V71.2361H176.044ZM224.093 71.2361V63.1167H216.082V71.2361H208.071V63.1167H200.063V71.2361H192.055V79.3556H200.063V87.475H208.071V79.3583H224.09V87.4778H232.099V71.2361H224.093Z" fill="#8E55FF"/>
<path d="M192.066 79.3611H176.047V87.4806H192.066V79.3611Z" fill="#8E55FF"/>
<path d="M160.027 55V71.2389H144.008V63.1194H136V55H160.027ZM208.079 55V71.2389H216.088V63.1194H224.096V71.2389H232.104V55H208.079Z" fill="#6A2DE0"/>
<path d="M232.107 87.4806V103.719H224.099V95.6H216.088V103.719H208.082V95.6H200.074V103.719H184.055V95.6H176.047V103.719H168.038V95.6H160.027V103.719H144.008V95.6H136V87.4806H152.016V79.3611H160.027V87.4806H168.036V79.3611H176.044V87.4806H192.063V79.3611H200.071V87.4806H208.079V79.3611H224.099V87.4806H232.107Z" fill="#A577FF"/>
<path d="M168.036 95.6028H160.027V103.722H168.036V95.6028ZM184.06 103.722V95.6028H176.049V103.722H168.041V111.844H176.049V119.964H192.068V111.844H200.077V103.722H184.06ZM224.096 103.722V95.6028H216.088V103.722H208.079V119.964H216.088V111.844H224.096V119.964H232.104V103.722H224.096Z" fill="#BB99FF"/>
<path d="M208.071 95.6028H200.063V103.722H208.071V95.6028ZM144.008 103.722V95.6028H136V119.964H152.016V111.844H160.027V103.722H144.008Z" fill="#BB99FF"/>
<path d="M224.096 119.956V111.836H216.088V119.956H208.079V128.075H216.088V136.197H224.096V128.075H232.104V119.956H224.096ZM152.016 119.956H136V136.197H144.008V128.075H152.016V136.197H160.027V111.836H152.016V119.956Z" fill="#D2BBFF"/>
<path d="M261.438 72.7639H281.164L294.222 91.4917H294.874L307.934 72.7639H327.658V134.578H308.205V100.925H307.715L294.904 118.056H294.252L281.438 100.925H280.948V134.578H261.496V72.7639H261.438ZM338.14 103.714C338.14 99.2722 338.984 95.0528 340.644 91.1083C342.267 87.2539 344.593 83.7445 347.499 80.7639C350.43 77.807 353.893 75.4477 357.701 73.8139C361.592 72.1028 365.756 71.275 370.134 71.275C374.512 71.275 378.677 72.1305 382.567 73.8139C386.458 75.525 389.858 77.8417 392.77 80.7639C395.687 83.7367 398.014 87.2492 399.625 91.1111C401.312 95.0555 402.129 99.2778 402.129 103.717C402.145 108.047 401.293 112.336 399.625 116.322C398.001 120.177 395.676 123.686 392.77 126.667C389.839 129.624 386.375 131.983 382.567 133.617C378.677 135.328 374.512 136.156 370.134 136.156C365.756 136.156 361.592 135.3 357.701 133.617C353.9 131.971 350.438 129.613 347.499 126.667C344.582 123.695 342.255 120.183 340.644 116.322C338.956 112.378 338.14 108.153 338.14 103.714ZM357.345 103.717C357.342 105.511 357.678 107.194 358.353 108.764C359.004 110.307 359.937 111.711 361.101 112.903C362.271 114.089 363.605 114.997 365.184 115.689C366.755 116.375 368.45 116.722 370.162 116.708C371.93 116.712 373.589 116.372 375.14 115.689C376.661 115.029 378.046 114.084 379.222 112.903C380.391 111.715 381.323 110.31 381.967 108.764C382.645 107.171 382.988 105.452 382.975 103.717C382.979 101.924 382.643 100.242 381.967 98.6694C381.316 97.1268 380.384 95.7226 379.219 94.5305C378.049 93.3447 376.663 92.3987 375.14 91.7444C373.568 91.058 371.873 90.7109 370.162 90.725C368.392 90.7213 366.732 91.0611 365.184 91.7444C363.662 92.4044 362.277 93.3497 361.101 94.5305C359.931 95.7182 358.998 97.1235 358.353 98.6694C357.676 100.263 357.331 101.982 357.345 103.717Z" fill="white"/>
<path d="M418.121 102.619L401.934 72.7722H423.236L428.731 82.8694L434.227 72.7722H455.611L439.422 102.619L456.781 134.589H435.479L428.704 122.256L422.038 134.589H400.737L418.093 102.617L418.121 102.619ZM463.677 72.7722H484.323V134.589H463.677V72.7722ZM496.194 72.7722H535.37V88.9944H515.647V95.8611H535.099V111.25H515.647V118.397H535.994V134.617H496.167V72.7972L496.194 72.7722Z" fill="white"/>
</g>
</svg>
