<svg width="672" height="210" viewBox="0 0 672 210" fill="none" xmlns="http://www.w3.org/2000/svg">
<path d="M161.874 109.711C166.563 100.257 155.865 84.7755 137.716 74.8895C119.344 64.8767 100.285 64.3918 95.1489 73.8077C92.6704 78.3514 93.8872 84.3725 97.8812 90.513L97.8961 90.5354C99.3071 92.714 101.076 94.9002 103.152 97.0489C103.197 97.1012 103.249 97.1459 103.294 97.1982C107.459 101.481 112.842 105.562 119.12 108.987C131.087 115.507 143.353 117.985 151.863 116.321C151.915 116.314 151.96 116.298 152.013 116.291C150.848 117.53 148.9 118.47 146.361 119.074C145.794 119.216 145.197 119.335 144.57 119.44C139.03 120.357 131.371 119.962 123.189 118.045C117.328 116.671 112.05 114.717 107.855 112.516C104.04 110.509 101.114 108.3 99.4564 106.122C98.2096 104.48 97.6796 102.861 98.0305 101.376C98.2694 100.339 98.9189 99.4365 99.9192 98.6755C97.7692 96.4744 96.1194 94.4599 94.6337 92.2291C91.6178 94.1764 89.5872 96.6983 88.8854 99.6976C88.1016 103.048 89.0646 106.599 91.4162 110.024C92.3643 111.412 93.5364 112.777 94.91 114.098C95.5968 114.762 96.3359 115.418 97.1197 116.052C98.5083 117.186 100.046 118.283 101.711 119.32C107.078 122.67 113.812 125.468 121.345 127.236C132.677 129.885 143.427 129.646 151.161 127.11C151.452 127.013 151.736 126.916 152.02 126.811C148.832 131.303 137.686 134.489 124.488 134.295C111.401 134.093 102.704 130.139 97.2765 126.11C95.8655 125.058 94.5143 123.946 92.7749 124.259C89.4229 124.879 87.9299 128.878 90.1023 131.504C95.8431 138.451 109.124 143.442 124.667 143.673C145.592 143.987 162.688 135.548 162.845 124.819C162.867 123.051 162.434 121.327 161.59 119.686C162.076 118.828 162.434 117.917 162.665 116.963C163.218 114.597 162.904 112.143 161.844 109.695L161.874 109.711ZM149.661 107.36C148.698 107.614 147.578 107.748 146.339 107.763C140.531 107.838 132.005 105.331 123.338 100.608C121.173 99.429 119.128 98.183 117.231 96.8923C116.769 96.5789 116.313 96.2655 115.873 95.9447C119.008 95.982 122.36 96.2506 125.824 96.7654C130.273 97.4294 134.215 98.4218 137.686 99.6305C141.367 100.921 144.144 102.219 146.772 103.883C147.302 104.219 147.974 104.577 148.661 104.585C149.511 104.585 149.877 104.174 150.056 103.689C150.325 102.966 150.191 101.578 149.101 99.8394C146.846 96.2282 140.695 91.5128 127.422 88.5135C118.657 86.5363 110.759 87.0585 106.944 87.9762C103.577 83.9995 102.181 80.3286 103.532 77.859C106.31 72.7706 119.68 74.703 133.401 82.179C145.675 88.8641 154.065 97.7204 153.715 103.152C153.677 103.734 153.536 104.279 153.289 104.779C153.267 104.831 153.237 104.876 153.214 104.928C152.565 106.114 151.34 106.92 149.668 107.36H149.661Z" fill="white"/>
<path d="M241.946 87.045C237.706 84.4112 232.846 83.0906 227.366 83.0906C221.887 83.0906 216.952 84.3889 212.787 86.9928C208.621 89.5967 205.426 93.1556 203.201 97.6621C200.976 102.176 199.864 107.205 199.864 112.756C199.864 118.307 200.976 123.358 203.201 127.902C205.426 132.446 208.598 136.042 212.734 138.676C216.863 141.31 221.745 142.63 227.374 142.63C233.003 142.63 237.788 141.31 241.954 138.676C246.119 136.042 249.33 132.461 251.584 127.954C253.839 123.448 254.966 118.382 254.966 112.756C254.966 107.13 253.853 102.191 251.636 97.7144C249.412 93.2377 246.187 89.6788 241.954 87.045H241.946ZM239.863 123.321C238.751 126.41 237.116 128.82 234.966 130.558C232.809 132.297 230.278 133.162 227.359 133.162C224.44 133.162 221.924 132.297 219.804 130.558C217.684 128.827 216.086 126.432 215.011 123.373C213.936 120.321 213.399 116.777 213.399 112.756C213.399 108.734 213.936 105.399 215.011 102.348C216.086 99.2961 217.684 96.9011 219.804 95.1627C221.924 93.4317 224.44 92.5588 227.359 92.5588C230.278 92.5588 232.794 93.4242 234.906 95.1627C237.027 96.9011 238.654 99.2887 239.804 102.348C240.946 105.399 241.521 108.869 241.521 112.756C241.521 116.643 240.961 120.239 239.856 123.321H239.863Z" fill="white"/>
<path d="M312.253 102.661C312.253 98.9156 311.596 95.5656 310.275 92.6185C308.953 89.6713 306.96 87.3434 304.287 85.6423C301.615 83.9412 298.263 83.0906 294.239 83.0906C291.32 83.0906 288.528 83.7845 285.855 85.1723C283.183 86.5601 280.801 88.4701 278.719 90.9024C276.636 93.3347 274.971 96.0729 273.717 99.1245V84.553H261.115V141.183H273.717V115.576C273.717 111.346 274.493 107.503 276.061 104.071C277.621 100.639 279.674 97.9681 282.205 96.058C284.743 94.148 287.394 93.193 290.178 93.193C293.306 93.193 295.643 94.148 297.21 96.058C298.771 97.9681 299.555 100.833 299.555 104.646V141.183H312.887C312.469 137.087 312.26 132.58 312.26 127.648V102.661H312.253Z" fill="white"/>
<path d="M364.178 86.7792C360.535 84.317 356.28 83.0785 351.42 83.0785C347.672 83.0785 344.23 84.1752 341.11 86.3613C337.982 88.5474 335.489 91.4796 333.607 95.158V66.7387H321.006V141.171H333.607V130.867C335.481 134.478 337.982 137.343 341.11 139.454C344.238 141.573 347.635 142.633 351.315 142.633C356.108 142.633 360.356 141.387 364.073 138.887C367.791 136.388 370.673 132.881 372.718 128.375C374.764 123.868 375.787 118.69 375.787 112.863C375.787 107.036 374.764 101.761 372.718 97.2471C370.673 92.7331 367.821 89.2488 364.178 86.7866V86.7792ZM360.535 123.003C359.318 125.95 357.631 128.24 355.481 129.874C353.323 131.509 350.86 132.322 348.083 132.322C345.305 132.322 343.029 131.575 340.841 130.083C338.654 128.591 336.9 126.561 335.586 123.995C334.264 121.428 333.607 118.578 333.607 115.46V110.565C333.607 107.514 334.249 104.663 335.533 102.03C336.817 99.3958 338.557 97.2918 340.744 95.7324C342.932 94.1731 345.38 93.3897 348.09 93.3897C350.8 93.3897 353.331 94.188 355.488 95.7847C357.638 97.3813 359.326 99.657 360.542 102.604C361.759 105.551 362.364 108.976 362.364 112.856C362.364 116.735 361.752 120.056 360.542 123.01L360.535 123.003Z" fill="white"/>
<path d="M421.201 87.045C416.961 84.4112 412.101 83.0906 406.622 83.0906C401.142 83.0906 396.207 84.3889 392.042 86.9928C387.876 89.5967 384.681 93.1556 382.456 97.6621C380.232 102.176 379.119 107.205 379.119 112.756C379.119 118.307 380.232 123.358 382.456 127.902C384.681 132.446 387.854 136.042 391.989 138.676C396.118 141.31 401 142.63 406.629 142.63C412.258 142.63 417.043 141.31 421.209 138.676C425.375 136.042 428.585 132.461 430.839 127.954C433.094 123.448 434.221 118.382 434.221 112.756C434.221 107.13 433.109 102.191 430.892 97.7144C428.667 93.2377 425.442 89.6788 421.209 87.045H421.201ZM419.119 123.321C418.006 126.41 416.371 128.82 414.221 130.558C412.064 132.297 409.533 133.162 406.614 133.162C403.695 133.162 401.18 132.297 399.059 130.558C396.939 128.827 395.342 126.432 394.267 123.373C393.192 120.321 392.654 116.777 392.654 112.756C392.654 108.734 393.192 105.399 394.267 102.348C395.342 99.2961 396.939 96.9011 399.059 95.1627C401.18 93.4317 403.695 92.5588 406.614 92.5588C409.533 92.5588 412.049 93.4242 414.162 95.1627C416.282 96.9011 417.909 99.2887 419.059 102.348C420.201 105.399 420.776 108.869 420.776 112.756C420.776 116.643 420.216 120.239 419.111 123.321H419.119Z" fill="white"/>
<path d="M488.805 133.877C487.902 133.877 487.207 133.631 486.722 133.146C486.237 132.661 485.953 131.825 485.886 130.646V103.272C485.886 99.1085 485.169 95.5346 483.751 92.5502C482.325 89.5657 480.055 87.2379 476.928 85.5741C473.8 83.9102 469.805 83.0746 464.946 83.0746C459.459 83.0746 454.3 84.3206 449.478 86.8201C444.655 89.3195 440.504 92.9979 437.032 97.855L446.096 104.831C448.178 100.81 450.746 97.7357 453.807 95.6167C456.861 93.4977 460.16 92.4382 463.706 92.4382C466.902 92.4382 469.276 93.4455 470.843 95.46C472.403 97.4745 473.187 100.25 473.187 103.787V104.197C465.939 104.876 459.69 106.13 454.539 108.002C448.917 110.046 444.625 112.703 441.676 115.963C438.727 119.224 437.249 123.044 437.249 127.416C437.249 131.788 438.757 135.675 441.78 138.451C444.804 141.226 448.85 142.614 453.919 142.614C458.645 142.614 462.654 141.368 465.946 138.868C469.119 136.459 471.523 133.31 473.187 129.46V130.229C473.187 134.258 474.195 137.324 476.211 139.443C478.219 141.562 480.966 142.622 484.438 142.622C485.685 142.622 486.886 142.502 488.028 142.256C489.171 142.01 490.268 141.652 491.306 141.167L492.866 132.84C492.03 133.191 491.321 133.452 490.731 133.623C490.141 133.795 489.499 133.884 488.805 133.884V133.877ZM471 124.304C469.544 126.946 467.648 128.938 465.319 130.288C462.99 131.639 460.474 132.318 457.771 132.318C455.48 132.318 453.688 131.728 452.404 130.55C451.12 129.371 450.478 127.707 450.478 125.55C450.478 122.917 451.5 120.708 453.546 118.94C455.591 117.172 458.443 115.799 462.087 114.829C465.244 113.986 468.962 113.366 473.18 112.941V115.142C473.18 118.612 472.448 121.663 470.993 124.304H471Z" fill="white"/>
<path d="M529.217 83.858C527.971 83.3358 526.545 83.0746 524.947 83.0746C522.029 83.0746 519.201 84.4474 516.459 87.1857C513.721 89.9239 511.443 93.55 509.635 98.0639V84.5295H496.93V141.159H510.16C509.807 137.824 509.635 133.802 509.635 129.08V113.255C509.635 109.651 510.213 106.435 511.353 103.622C512.496 100.81 513.959 98.6757 515.73 97.2208C517.5 95.7659 519.291 95.0347 521.098 95.0347C522.41 95.0347 523.562 95.2287 524.529 95.6092C525.5 95.9898 526.578 96.7359 527.762 97.8475L532.869 86.3948C531.689 85.2159 530.471 84.3654 529.226 83.8431L529.217 83.858Z" fill="white"/>
<path d="M585.992 141.171C585.574 137.074 585.365 132.568 585.365 127.636V66.7387H572.762V94.8446C570.889 91.2334 568.385 88.3758 565.258 86.2569C562.131 84.1379 558.725 83.0785 555.053 83.0785C550.262 83.0785 546.004 84.3244 542.295 86.8239C538.578 89.3234 535.697 92.8301 533.652 97.3366C531.607 101.851 530.582 107.021 530.582 112.848C530.582 118.675 531.59 123.95 533.607 128.464C535.623 132.978 538.467 136.463 542.148 138.925C545.828 141.387 550.098 142.618 554.955 142.618C558.705 142.618 562.148 141.521 565.266 139.335C568.394 137.149 570.889 134.217 572.771 130.538V141.155H585.996L585.992 141.171ZM570.836 123.682C569.553 126.323 567.812 128.42 565.623 129.979C563.439 131.538 561.025 132.322 558.385 132.322C555.533 132.322 553.033 131.523 550.881 129.927C548.73 128.33 547.045 126.054 545.828 123.107C544.611 120.16 544.004 116.743 544.004 112.856C544.004 108.968 544.611 105.656 545.828 102.709C547.045 99.7614 548.73 97.4709 550.881 95.8369C553.033 94.2029 555.533 93.3897 558.385 93.3897C560.951 93.3897 563.332 94.1358 565.521 95.628C567.709 97.1202 569.463 99.1496 570.783 101.716C572.098 104.283 572.762 107.133 572.762 110.252V115.146C572.762 118.198 572.119 121.048 570.836 123.682Z" fill="white"/>
</svg>
