<svg width="672" height="210" viewBox="0 0 672 210" fill="none" xmlns="http://www.w3.org/2000/svg">
<g style="mix-blend-mode:luminosity">
<g clip-path="url(#clip0_4240_129)">
<path d="M257.989 131.867C252.689 131.867 247.817 130.697 243.374 128.357C238.984 126.016 235.478 122.76 232.854 118.589C230.285 114.366 229 109.635 229 104.395C229 99.1553 230.285 94.4495 232.854 90.2779C235.478 86.1063 238.984 82.8504 243.374 80.5102C247.817 78.1701 252.689 77 257.989 77C263.288 77 268.133 78.1701 272.523 80.5102C276.966 82.8504 280.446 86.1063 282.962 90.2779C285.532 94.4495 286.816 99.1553 286.816 104.395C286.816 109.635 285.532 114.366 282.962 118.589C280.392 122.76 276.913 126.016 272.523 128.357C268.133 130.697 263.288 131.867 257.989 131.867ZM257.989 119.962C262.485 119.962 266.072 118.538 268.749 115.689C271.479 112.84 272.844 109.076 272.844 104.395C272.844 99.664 271.479 95.8994 268.749 93.1014C266.072 90.2525 262.485 88.828 257.989 88.828C253.438 88.828 249.798 90.2271 247.068 93.025C244.391 95.8231 243.053 99.6131 243.053 104.395C243.053 109.126 244.391 112.917 247.068 115.765C249.798 118.563 253.438 119.962 257.989 119.962Z" fill="white"/>
<path d="M308.187 94.7802C309.525 92.7962 311.372 91.1936 313.728 89.9727C316.083 88.7517 318.84 88.1412 321.999 88.1412C325.693 88.1412 329.038 89.0315 332.036 90.8121C335.034 92.5926 337.39 95.1363 339.103 98.443C340.869 101.75 341.753 105.591 341.753 109.966C341.753 114.341 340.869 118.207 339.103 121.565C337.39 124.872 335.034 127.441 332.036 129.272C329.038 131.053 325.693 131.943 321.999 131.943C318.894 131.943 316.137 131.333 313.728 130.112C311.372 128.891 309.525 127.314 308.187 125.38V144H294.456V88.7517H308.187V94.7802ZM327.78 109.966C327.78 106.71 326.817 104.166 324.89 102.335C323.016 100.453 320.687 99.5114 317.903 99.5114C315.173 99.5114 312.844 100.453 310.917 102.335C309.044 104.217 308.107 106.786 308.107 110.042C308.107 113.298 309.044 115.867 310.917 117.749C312.844 119.632 315.173 120.573 317.903 120.573C320.634 120.573 322.962 119.632 324.89 117.749C326.817 115.816 327.78 113.222 327.78 109.966Z" fill="white"/>
<path d="M391.194 109.355C391.194 110.576 391.114 111.848 390.954 113.171H359.877C360.092 115.816 360.975 117.851 362.527 119.276C364.133 120.649 366.087 121.336 368.39 121.336C371.816 121.336 374.197 119.962 375.536 117.215H390.15C389.401 120.013 388.036 122.531 386.055 124.77C384.128 127.008 381.692 128.764 378.748 130.035C375.803 131.307 372.511 131.943 368.872 131.943C364.482 131.943 360.574 131.053 357.147 129.272C353.721 127.492 351.044 124.948 349.117 121.641C347.19 118.334 346.226 114.468 346.226 110.042C346.226 105.616 347.163 101.75 349.037 98.443C350.964 95.1363 353.64 92.5926 357.067 90.8121C360.493 89.0315 364.428 88.1412 368.872 88.1412C373.207 88.1412 377.062 89.0061 380.434 90.7358C383.807 92.4655 386.43 94.9328 388.304 98.1378C390.231 101.343 391.194 105.082 391.194 109.355ZM377.142 105.921C377.142 103.683 376.339 101.902 374.733 100.58C373.127 99.2571 371.119 98.5957 368.711 98.5957C366.408 98.5957 364.455 99.2316 362.848 100.503C361.296 101.775 360.332 103.581 359.958 105.921H377.142Z" fill="white"/>
<path d="M425.741 88.2938C430.987 88.2938 435.163 89.9218 438.267 93.1777C441.426 96.3826 443.006 100.809 443.006 106.456V131.333H429.354V108.211C429.354 105.362 428.578 103.149 427.025 101.572C425.473 99.9946 423.386 99.2061 420.763 99.2061C418.139 99.2061 416.052 99.9946 414.499 101.572C412.947 103.149 412.171 105.362 412.171 108.211V131.333H398.439V88.7517H412.171V94.3986C413.562 92.5163 415.436 91.041 417.792 89.9727C420.146 88.8535 422.796 88.2938 425.741 88.2938Z" fill="white"/>
<path d="M472.944 131.867C468.822 131.867 465.128 131.231 461.862 129.959C458.597 128.687 455.974 126.805 453.993 124.312C452.066 121.819 451.048 118.818 450.941 115.307H465.555C465.77 117.292 466.492 118.818 467.725 119.886C468.956 120.904 470.561 121.412 472.543 121.412C474.577 121.412 476.182 120.98 477.36 120.115C478.538 119.199 479.127 117.953 479.127 116.376C479.127 115.053 478.646 113.959 477.682 113.095C476.772 112.23 475.62 111.517 474.229 110.958C472.89 110.398 470.963 109.762 468.447 109.05C464.806 107.982 461.835 106.913 459.533 105.845C457.232 104.777 455.251 103.2 453.591 101.114C451.932 99.0281 451.102 96.3064 451.102 92.9488C451.102 87.9632 453.002 84.0714 456.804 81.2734C460.604 78.4245 465.555 77 471.658 77C477.869 77 482.874 78.4245 486.675 81.2734C490.476 84.0714 492.511 87.9886 492.778 93.025H477.922C477.815 91.2954 477.146 89.9472 475.915 88.9806C474.684 87.9632 473.104 87.4544 471.177 87.4544C469.517 87.4544 468.18 87.8869 467.162 88.7517C466.145 89.5656 465.636 90.7612 465.636 92.3383C465.636 94.0679 466.492 95.4161 468.207 96.3826C469.92 97.3493 472.595 98.3922 476.236 99.5114C479.877 100.681 482.821 101.801 485.069 102.869C487.371 103.937 489.352 105.489 491.011 107.524C492.671 109.559 493.5 112.179 493.5 115.384C493.5 118.436 492.671 121.209 491.011 123.702C489.406 126.194 487.05 128.178 483.945 129.654C480.841 131.129 477.173 131.867 472.944 131.867Z" fill="white"/>
<path d="M544.19 109.355C544.19 110.576 544.109 111.848 543.948 113.171H512.872C513.086 115.816 513.969 117.851 515.522 119.276C517.128 120.649 519.082 121.336 521.384 121.336C524.81 121.336 527.193 119.962 528.531 117.215H543.145C542.396 120.013 541.031 122.531 539.051 124.77C537.123 127.008 534.688 128.764 531.742 130.035C528.798 131.307 525.506 131.943 521.866 131.943C517.476 131.943 513.568 131.053 510.142 129.272C506.716 127.492 504.039 124.948 502.111 121.641C500.185 118.334 499.221 114.468 499.221 110.042C499.221 105.616 500.158 101.75 502.032 98.443C503.958 95.1363 506.635 92.5926 510.061 90.8121C513.487 89.0315 517.422 88.1412 521.866 88.1412C526.202 88.1412 530.056 89.0061 533.429 90.7358C536.802 92.4655 539.425 94.9328 541.298 98.1378C543.226 101.343 544.19 105.082 544.19 109.355ZM530.137 105.921C530.137 103.683 529.334 101.902 527.727 100.58C526.121 99.2571 524.114 98.5957 521.705 98.5957C519.404 98.5957 517.449 99.2316 515.843 100.503C514.29 101.775 513.327 103.581 512.952 105.921H530.137Z" fill="white"/>
<path d="M548.703 109.966C548.703 105.591 549.56 101.75 551.273 98.443C553.039 95.1363 555.421 92.5926 558.419 90.8121C561.418 89.0315 564.763 88.1412 568.457 88.1412C571.615 88.1412 574.373 88.7517 576.728 89.9727C579.137 91.1936 580.984 92.7962 582.269 94.7802V88.7517H596V131.333H582.269V125.304C580.931 127.288 579.057 128.891 576.648 130.112C574.292 131.333 571.535 131.943 568.377 131.943C564.736 131.943 561.418 131.053 558.419 129.272C555.421 127.441 553.039 124.872 551.273 121.565C549.56 118.207 548.703 114.341 548.703 109.966ZM582.269 110.042C582.269 106.786 581.305 104.217 579.378 102.335C577.505 100.453 575.202 99.5114 572.472 99.5114C569.741 99.5114 567.413 100.453 565.486 102.335C563.613 104.166 562.676 106.71 562.676 109.966C562.676 113.222 563.613 115.816 565.486 117.749C567.413 119.632 569.741 120.573 572.472 120.573C575.202 120.573 577.505 119.632 579.378 117.749C581.305 115.867 582.269 113.298 582.269 110.042Z" fill="white"/>
</g>
<g clip-path="url(#clip1_4240_129)">
<path d="M135.968 46.585C103.676 46.351 77.351 72.676 77.585 104.968C77.819 136.441 103.559 162.064 135.032 162.415C167.441 162.649 193.766 136.324 193.415 104.032C193.181 72.559 167.441 46.819 135.968 46.585Z" fill="#2081E2"/>
<path d="M118.652 76.303C122.279 80.866 124.385 86.599 124.385 92.917C124.385 98.299 122.747 103.33 120.056 107.542H100.634L118.652 76.303Z" fill="white"/>
<path d="M177.971 114.445C177.971 114.679 177.854 114.913 177.62 115.03C176.333 115.615 172.004 117.604 170.132 120.178C165.452 126.613 161.942 136.909 153.986 136.909H120.641C108.824 136.909 98.996 127.549 99.113 115.147C99.113 114.796 99.347 114.562 99.698 114.562H115.376C115.961 114.562 116.312 115.03 116.312 115.498V118.54C116.312 120.178 117.599 121.465 119.237 121.465H131.171V114.562H122.981C127.661 108.595 130.469 101.107 130.469 92.917C130.469 83.791 126.959 75.484 121.226 69.283C124.736 69.634 128.012 70.336 131.054 71.272V69.283C131.054 67.294 132.692 65.656 134.681 65.656C136.67 65.656 138.308 67.294 138.308 69.283V73.963C149.423 79.111 156.794 87.769 156.794 97.597C156.794 103.33 154.337 108.712 150.008 113.158C149.189 113.977 148.019 114.445 146.849 114.445H138.425V121.348H148.955C151.178 121.348 155.273 117.019 157.262 114.445C157.262 114.445 157.379 114.328 157.613 114.211C157.847 114.094 177.035 109.765 177.035 109.765C177.386 109.648 177.854 109.999 177.854 110.35L177.971 114.445Z" fill="white"/>
</g>
</g>
<defs>
<clipPath id="clip0_4240_129">
<rect width="367" height="67" fill="white" transform="translate(229 77)"/>
</clipPath>
<clipPath id="clip1_4240_129">
<rect width="117" height="117" fill="white" transform="translate(77 46)"/>
</clipPath>
</defs>
</svg>
