<svg width="672" height="210" viewBox="0 0 672 210" fill="none" xmlns="http://www.w3.org/2000/svg">
<g clip-path="url(#clip0_4240_113)">
<g style="mix-blend-mode:luminosity">
<path fill-rule="evenodd" clip-rule="evenodd" d="M196.714 104.5C196.714 136.809 170.363 163 137.857 163C105.351 163 79 136.809 79 104.5C79 72.1913 105.351 46 137.857 46C170.363 46 196.714 72.1913 196.714 104.5ZM134.513 83.2274C131.189 83.2274 128.494 85.9061 128.494 89.2104C128.494 92.5148 131.189 95.1932 134.513 95.1932V115.136C120.107 115.136 108.429 103.529 108.429 89.2104C108.429 74.8918 120.107 63.2842 134.513 63.2842C148.919 63.2842 160.597 74.8918 160.597 89.2104H140.532C140.532 85.9061 137.837 83.2274 134.513 83.2274ZM147.221 121.119C147.221 124.423 144.526 127.102 141.201 127.102C137.877 127.102 135.182 124.423 135.182 121.119H115.117C115.117 135.437 126.796 147.045 141.201 147.045C155.608 147.045 167.286 135.437 167.286 121.119C167.286 106.8 155.608 95.1927 141.201 95.1927V115.136C144.526 115.136 147.221 117.814 147.221 121.119Z" fill="url(#paint0_linear_4240_113)"/>
</g>
<path d="M229.944 90.7714C229.944 79.8906 239.044 72.325 252.265 72.325C264.971 72.325 273.04 79.2956 273.384 90.5164H262.395C262.138 85.161 258.274 82.0158 252.093 82.0158C245.311 82.0158 240.933 85.246 240.933 90.4314C240.933 94.8518 243.337 97.317 248.574 98.507L258.446 100.632C269.177 102.927 274.414 108.368 274.414 117.634C274.414 129.194 265.314 136.675 251.492 136.675C238.1 136.675 229.343 129.619 229.086 118.484H240.075C240.16 123.754 244.453 126.899 251.492 126.899C258.79 126.899 263.425 123.754 263.425 118.569C263.425 114.403 261.279 111.938 256.128 110.833L246.17 108.623C235.525 106.328 229.944 100.292 229.944 90.7714ZM301.782 136.675C289.163 136.675 280.32 127.579 280.32 114.573C280.32 101.397 288.991 92.3016 301.439 92.3016C314.145 92.3016 322.214 100.717 322.214 113.808V116.953L290.279 117.038C291.051 124.434 295 128.174 301.954 128.174C307.706 128.174 311.483 125.964 312.685 121.969H322.386C320.583 131.15 312.857 136.675 301.782 136.675ZM301.525 100.802C295.344 100.802 291.566 104.117 290.536 110.408H311.827C311.827 104.628 307.792 100.802 301.525 100.802ZM342.797 136.675C333.783 136.675 328.289 131.49 328.289 123.584C328.289 115.848 333.955 111.003 343.999 110.238L356.705 109.303V108.368C356.705 102.672 353.271 100.377 347.948 100.377C341.767 100.377 338.333 102.927 338.333 107.348H329.405C329.405 98.252 336.959 92.3016 348.463 92.3016C359.881 92.3016 366.921 98.422 366.921 110.068V135.57H357.735L356.962 129.364C355.159 133.7 349.408 136.675 342.797 136.675ZM346.231 128.854C352.67 128.854 356.791 125.029 356.791 118.569V116.358L347.948 117.038C341.424 117.634 338.934 119.759 338.934 123.159C338.934 126.984 341.509 128.854 346.231 128.854ZM387.684 135.57H377.21V93.5767H386.826L387.684 98.507C389.831 95.0218 394.123 92.3016 400.218 92.3016C406.657 92.3016 411.121 95.4468 413.353 100.292C415.499 95.4468 420.479 92.3016 426.917 92.3016C437.219 92.3016 442.885 98.422 442.885 108.113V135.57H432.497V110.833C432.497 104.798 429.235 101.652 424.256 101.652C419.191 101.652 415.328 104.883 415.328 111.768V135.57H404.854V110.748C404.854 104.883 401.678 101.737 396.698 101.737C391.719 101.737 387.684 104.968 387.684 111.768V135.57ZM463.725 135.57H453.337V72.325H463.725V135.57ZM493.686 136.675C481.066 136.675 472.224 127.579 472.224 114.573C472.224 101.397 480.895 92.3016 493.343 92.3016C506.048 92.3016 514.118 100.717 514.118 113.808V116.953L482.182 117.038C482.955 124.434 486.904 128.174 493.858 128.174C499.61 128.174 503.387 125.964 504.589 121.969H514.29C512.487 131.15 504.76 136.675 493.686 136.675ZM493.428 100.802C487.247 100.802 483.47 104.117 482.44 110.408H503.73C503.73 104.628 499.695 100.802 493.428 100.802ZM519.237 122.819H529.195C529.281 126.474 532.028 128.769 536.836 128.769C541.729 128.769 544.39 126.814 544.39 123.754C544.39 121.629 543.274 120.099 539.497 119.249L531.857 117.464C524.216 115.763 520.524 112.193 520.524 105.478C520.524 97.2319 527.564 92.3016 537.351 92.3016C546.88 92.3016 553.319 97.742 553.405 105.903H543.446C543.36 102.332 540.956 100.037 536.922 100.037C532.801 100.037 530.397 101.907 530.397 105.053C530.397 107.433 532.286 108.963 535.891 109.813L543.532 111.598C550.657 113.213 554.263 116.443 554.263 122.904C554.263 131.405 546.966 136.675 536.492 136.675C525.933 136.675 519.237 131.065 519.237 122.819ZM558.974 122.819H568.932C569.018 126.474 571.765 128.769 576.573 128.769C581.466 128.769 584.128 126.814 584.128 123.754C584.128 121.629 583.012 120.099 579.234 119.249L571.594 117.464C563.953 115.763 560.262 112.193 560.262 105.478C560.262 97.2319 567.301 92.3016 577.088 92.3016C586.617 92.3016 593.056 97.742 593.142 105.903H583.183C583.097 102.332 580.694 100.037 576.659 100.037C572.538 100.037 570.134 101.907 570.134 105.053C570.134 107.433 572.023 108.963 575.629 109.813L583.269 111.598C590.395 113.213 594 116.443 594 122.904C594 131.405 586.703 136.675 576.23 136.675C565.67 136.675 558.974 131.065 558.974 122.819Z" fill="white"/>
</g>
<defs>
<linearGradient id="paint0_linear_4240_113" x1="51.0428" y1="-100.25" x2="147.096" y2="192.598" gradientUnits="userSpaceOnUse">
<stop stop-color="white"/>
<stop offset="1" stop-color="white"/>
</linearGradient>
<clipPath id="clip0_4240_113">
<rect width="515" height="117" fill="white" transform="translate(79 46)"/>
</clipPath>
</defs>
</svg>
