<svg width="672" height="210" viewBox="0 0 672 210" fill="none" xmlns="http://www.w3.org/2000/svg">
<g clip-path="url(#clip0_4240_238)">
<path d="M150.977 32.941C151.4 32.9388 151.823 32.9366 152.258 32.9344C153.649 32.9274 155.041 32.9239 156.432 32.9206C156.914 32.9192 157.396 32.9178 157.878 32.9165C160.144 32.9101 162.409 32.9054 164.675 32.9026C167.277 32.8993 169.879 32.8906 172.482 32.8771C174.502 32.867 176.523 32.8621 178.543 32.861C179.746 32.8602 180.949 32.8573 182.151 32.8488C183.495 32.8395 184.839 32.841 186.183 32.8433C186.574 32.8391 186.965 32.8348 187.368 32.8304C192.365 32.8615 196.908 34.577 200.562 38C202.949 40.5122 204.513 43.3304 205.72 46.5703C206.881 49.6466 208.297 52.6054 209.687 55.5833C210.091 56.4505 210.494 57.3178 210.896 58.1852C211.145 58.7201 211.394 59.2548 211.643 59.7892C211.986 60.5253 212.327 61.2623 212.666 62C212.793 62.2737 212.919 62.5473 213.049 62.8293C213.171 63.0984 213.294 63.3676 213.42 63.6449C213.531 63.8886 213.642 64.1324 213.757 64.3836C214 65 214 65 214 65.6667C214.284 65.6633 214.284 65.6633 214.574 65.6599C216.559 65.6377 218.544 65.6227 220.529 65.6117C221.268 65.6067 222.007 65.5999 222.747 65.5912C223.813 65.579 224.88 65.5734 225.946 65.569C226.274 65.5638 226.601 65.5587 226.938 65.5534C229.323 65.5528 231.516 65.7856 233.458 67.2726C235.174 69.3302 236.484 71.5174 237.75 73.875C238.626 75.4774 238.626 75.4774 239.509 77.0764C240 78 240 78 240.311 78.7602C240.59 79.4886 240.59 79.4886 241.333 80.3333C242.52 80.7076 243.679 80.7655 244.916 80.8125C245.408 80.8444 245.408 80.8444 245.91 80.8769C246.718 80.9279 247.525 80.9685 248.333 81C248.426 80.7038 248.426 80.7038 248.521 80.4016C250.261 75.0012 253.936 70.8771 258.919 68.1667C263.245 66.0964 267.421 65.617 272.153 65.6784C272.965 65.6804 273.777 65.6814 274.588 65.6816C275.858 65.6822 277.126 65.6875 278.395 65.7089C283.18 66.0504 283.18 66.0504 287.573 64.6283C288.392 63.7973 289.022 62.9695 289.666 62C295.18 56.9252 301.972 55.1702 309.286 55.1888C309.82 55.1873 310.353 55.1855 310.886 55.1835C311.998 55.1805 313.109 55.1813 314.221 55.1846C315.629 55.1885 317.036 55.1817 318.444 55.172C319.544 55.1658 320.644 55.166 321.744 55.1679C322.262 55.1679 322.78 55.166 323.298 55.1618C327.9 55.1298 332.633 55.5968 336.666 58C336.712 57.7925 336.757 57.5849 336.803 57.3711C338.399 50.5197 340.503 43.6746 345.666 38.6667C345.984 38.3444 345.984 38.3444 346.308 38.0156C350.414 34.1053 355.969 32.9563 361.452 32.941C361.967 32.9377 361.967 32.9377 362.493 32.9344C363.627 32.9278 364.76 32.9239 365.894 32.9206C366.478 32.9185 366.478 32.9185 367.073 32.9165C369.135 32.9095 371.196 32.9047 373.257 32.9016C375.375 32.8979 377.493 32.8865 379.611 32.8732C381.249 32.8645 382.887 32.8617 384.525 32.8605C385.305 32.8589 386.085 32.8551 386.865 32.8488C393.983 32.7956 399.684 33.4869 405.172 38.4544C407.27 40.6811 408.928 43.1821 410.541 45.7708C410.953 46.4238 411.364 47.0766 411.776 47.7292C411.981 48.0549 412.186 48.3806 412.398 48.7161C413.294 50.1314 414.209 51.5348 415.125 52.9375C416.818 55.5378 418.507 58.1411 420.187 60.75C420.414 61.0993 420.64 61.4485 420.873 61.8083C424.202 66.9882 424.202 66.9882 424.104 69.1042C424.096 69.3779 424.088 69.6516 424.079 69.9336C424 70.6667 424 70.6667 423.666 71.6667C424.024 71.6614 424.382 71.6562 424.751 71.6508C426.091 71.6326 427.431 71.6212 428.771 71.6117C429.349 71.6067 429.926 71.5999 430.504 71.5912C431.339 71.579 432.174 71.5734 433.009 71.569C433.263 71.5638 433.518 71.5587 433.78 71.5534C435.905 71.5527 437.947 71.9605 439.735 73.1602C441.789 75.3437 443.543 77.7602 445.304 80.1816C445.642 80.6582 445.642 80.6582 446 81C446.727 81.0783 447.457 81.1379 448.187 81.1875C448.586 81.2154 448.986 81.2434 449.397 81.2721C449.706 81.2923 450.015 81.3125 450.333 81.3333C450.416 80.9071 450.498 80.4808 450.583 80.0417C451.24 77.1816 451.978 75.0539 454.268 73.125C456.149 71.9466 458.053 71.8656 460.208 71.7917C460.523 71.78 460.838 71.7683 461.163 71.7563C462.219 71.721 463.276 71.6932 464.333 71.6667C464.721 71.6553 465.108 71.644 465.507 71.6323C472.027 71.4592 477.072 71.6245 482.666 75.3333C483.292 74.3945 483.648 73.5909 484.045 72.5417C484.252 72.0073 484.252 72.0073 484.463 71.4622C484.747 70.7209 485.029 69.9787 485.309 69.2357C487.667 63.1713 491.534 58.4698 497.558 55.7708C501.282 54.1881 504.648 53.5664 508.699 53.5698C509.088 53.5676 509.477 53.5653 509.878 53.563C511.156 53.5567 512.434 53.5554 513.712 53.5547C514.38 53.5531 515.049 53.5515 515.717 53.5497C517.818 53.5443 519.918 53.5427 522.018 53.5431C524.171 53.5435 526.324 53.5365 528.478 53.526C530.338 53.5172 532.198 53.5137 534.058 53.5141C535.163 53.5143 536.269 53.5118 537.375 53.5053C545.288 53.4631 552.051 54.2932 558.019 59.9517C559.357 61.2853 560.419 62.6852 561.333 64.3333C561.458 64.5477 561.583 64.7622 561.712 64.9831C563.518 68.2931 564.019 71.9501 564 75.6667C564.186 75.6124 564.372 75.5581 564.564 75.5022C566.51 74.9356 568.457 74.374 570.404 73.8153C571.13 73.6064 571.856 73.3962 572.581 73.1847C573.626 72.8802 574.672 72.5803 575.719 72.2812C576.201 72.1391 576.201 72.1391 576.693 71.994C579.22 71.2795 581.528 70.911 584.015 71.9687C586.152 73.1651 587.206 74.7488 587.896 77.0599C588.253 80.2871 587.053 83.548 586.222 86.6328C586.077 87.1802 585.931 87.7276 585.785 88.2751C585.48 89.4191 585.174 90.5627 584.866 91.7061C584.475 93.1618 584.087 94.6185 583.7 96.0755C583.399 97.2055 583.097 98.335 582.794 99.4644C582.651 100.001 582.508 100.537 582.365 101.074C579.849 110.529 579.849 110.529 577 112.333C576.78 112.333 576.56 112.333 576.333 112.333C576.562 112.68 576.791 113.026 577.026 113.383C577.876 114.67 578.724 115.957 579.572 117.245C579.939 117.802 580.306 118.358 580.674 118.915C581.203 119.715 581.73 120.516 582.258 121.318C582.422 121.566 582.586 121.814 582.755 122.07C582.986 122.42 582.985 122.42 583.22 122.778C583.355 122.982 583.49 123.186 583.629 123.397C584.947 125.538 584.924 127.517 584.666 130C583.573 133.49 579.342 136.025 576.627 138.217C575.573 139.076 574.535 139.952 573.5 140.833C572.184 141.952 570.861 143.057 569.521 144.146C567.899 145.465 566.314 146.822 564.73 148.186C563.267 149.444 561.779 150.669 560.281 151.885C559.174 152.798 558.086 153.73 557 154.667C555.337 156.1 553.652 157.502 551.948 158.885C550.841 159.798 549.753 160.73 548.666 161.667C546.974 163.124 545.268 164.561 543.531 165.966C542.944 166.442 542.36 166.923 541.781 167.409C541.496 167.645 541.21 167.882 540.916 168.125C540.667 168.334 540.418 168.543 540.161 168.758C538.254 170.083 536.383 170.514 534.121 170.784C533.854 170.819 533.586 170.853 533.311 170.889C532.465 170.999 531.618 171.104 530.771 171.208C529.92 171.316 529.07 171.425 528.22 171.535C527.693 171.602 527.165 171.669 526.638 171.734C525.3 171.899 525.3 171.899 523.982 172.173C521.467 172.795 518.724 172.517 516.386 171.445C514.573 170.324 513.78 168.951 513 167C513 165.79 513 164.58 513 163.333C372.255 163.498 372.255 163.498 228.666 163.667C227.346 166.967 226.026 170.267 224.666 173.667C222.959 175.716 221.835 176.724 219.214 177.118C218.372 177.17 217.541 177.177 216.698 177.167C216.382 177.169 216.067 177.171 215.742 177.173C214.709 177.177 213.676 177.171 212.643 177.165C211.921 177.165 211.198 177.166 210.475 177.167C208.965 177.167 207.455 177.163 205.945 177.156C204.012 177.146 202.08 177.147 200.147 177.151C198.657 177.154 197.166 177.151 195.676 177.147C194.963 177.145 194.25 177.145 193.538 177.146C192.542 177.147 191.545 177.142 190.549 177.135C190.257 177.136 189.964 177.138 189.663 177.139C187.274 177.11 185.484 176.592 183.679 174.932C183.456 174.727 183.232 174.522 183.002 174.31C181.911 173.26 180.849 172.184 179.798 171.094C179.328 170.613 178.859 170.133 178.388 169.654C177.657 168.906 176.928 168.157 176.203 167.404C175.496 166.671 174.783 165.944 174.069 165.219C173.852 164.991 173.636 164.763 173.413 164.529C173.106 164.22 173.106 164.22 172.793 163.904C172.615 163.721 172.437 163.538 172.254 163.349C171.416 162.851 170.953 163.142 170 163.333C169.129 163.37 168.267 163.391 167.397 163.396C167.137 163.398 166.877 163.401 166.609 163.404C165.738 163.412 164.868 163.418 163.997 163.424C163.372 163.429 162.747 163.435 162.122 163.44C156.395 163.489 150.667 163.514 144.939 163.533C140.715 163.548 136.492 163.574 132.268 163.614C129.289 163.641 126.309 163.655 123.329 163.661C121.555 163.664 119.782 163.673 118.009 163.696C110.197 163.794 103.541 163.584 96.2993 160.408C95.0259 159.87 93.7279 159.44 92.4126 159.017C86.5269 157.121 86.5269 157.121 84.8331 154.562C83.631 151.607 83.9814 148.964 85.1471 146.036C85.3324 145.599 85.5204 145.162 85.7107 144.727C85.8136 144.485 85.9165 144.244 86.0226 143.995C86.2443 143.475 86.4671 142.956 86.691 142.437C87.2988 141.029 87.898 139.616 88.4985 138.204C88.6852 137.767 88.6852 137.767 88.8756 137.32C90.0747 134.502 91.2387 131.671 92.3958 128.836C92.7282 128.023 93.0618 127.209 93.3957 126.396C94.3543 124.062 95.3108 121.726 96.2518 119.384C96.6363 118.43 97.025 117.477 97.4147 116.525C97.5931 116.086 97.7696 115.646 97.944 115.206C99.1135 112.256 100.283 109.808 102.982 108.014C104.198 107.599 105.351 107.481 106.625 107.437C106.854 107.426 107.084 107.415 107.32 107.403C107.88 107.376 108.44 107.354 109 107.333C108.984 106.986 108.969 106.639 108.953 106.281C108.94 105.799 108.928 105.316 108.916 104.833C108.905 104.608 108.894 104.382 108.883 104.15C108.852 102.437 109.153 100.867 109.579 99.2158C109.669 98.8654 109.669 98.8654 109.76 98.5079C110.399 96.0275 111.121 93.5729 111.857 91.1198C112.003 90.6288 112.149 90.1377 112.295 89.6467C112.684 88.3397 113.075 87.0332 113.466 85.7269C113.875 84.3589 114.283 82.9907 114.692 81.6225C115.192 79.9466 115.693 78.2708 116.194 76.5952C117.13 73.4667 118.061 70.3368 118.986 67.2049C119.458 65.6052 119.932 64.0062 120.407 62.4074C120.721 61.35 121.034 60.2922 121.345 59.2339C124.186 49.5647 127.019 40.6863 136.264 35.4753C140.844 33.2225 145.963 32.9524 150.977 32.941Z" fill="#343434"/>
<path d="M150.977 32.941C151.4 32.9388 151.823 32.9366 152.258 32.9344C153.649 32.9274 155.041 32.9239 156.432 32.9206C156.914 32.9192 157.396 32.9178 157.878 32.9165C160.144 32.9101 162.409 32.9054 164.675 32.9026C167.277 32.8993 169.879 32.8906 172.482 32.8771C174.502 32.867 176.523 32.8621 178.543 32.861C179.746 32.8602 180.949 32.8573 182.151 32.8488C183.495 32.8395 184.839 32.841 186.183 32.8433C186.574 32.8391 186.965 32.8348 187.368 32.8304C192.365 32.8615 196.908 34.577 200.562 38C202.949 40.5122 204.513 43.3304 205.72 46.5703C206.881 49.6466 208.297 52.6054 209.687 55.5833C210.091 56.4505 210.494 57.3178 210.896 58.1852C211.145 58.7201 211.394 59.2548 211.643 59.7892C211.986 60.5253 212.327 61.2623 212.666 62C212.793 62.2737 212.919 62.5473 213.049 62.8293C213.171 63.0984 213.294 63.3676 213.42 63.6449C213.531 63.8886 213.642 64.1324 213.757 64.3836C214 65 214 65 214 65.6667C214.284 65.6633 214.284 65.6633 214.574 65.6599C216.559 65.6377 218.544 65.6227 220.529 65.6117C221.268 65.6067 222.007 65.5999 222.747 65.5912C223.813 65.579 224.88 65.5734 225.946 65.569C226.274 65.5638 226.601 65.5587 226.938 65.5534C229.323 65.5528 231.516 65.7856 233.458 67.2726C235.174 69.3302 236.484 71.5174 237.75 73.875C238.626 75.4774 238.626 75.4774 239.509 77.0764C240 78 240 78 240.311 78.7602C240.59 79.4886 240.59 79.4886 241.333 80.3333C242.52 80.7076 243.679 80.7655 244.916 80.8125C245.408 80.8444 245.408 80.8444 245.91 80.8769C246.718 80.9279 247.524 80.9685 248.333 81C248.426 80.7038 248.426 80.7038 248.521 80.4016C250.261 75.0012 253.936 70.8771 258.919 68.1667C263.245 66.0964 267.421 65.617 272.153 65.6784C272.965 65.6804 273.777 65.6814 274.588 65.6816C275.858 65.6822 277.126 65.6875 278.395 65.7089C283.18 66.0504 283.18 66.0504 287.573 64.6283C288.392 63.7973 289.022 62.9695 289.666 62C295.18 56.9252 301.972 55.1702 309.286 55.1888C309.82 55.1873 310.353 55.1855 310.886 55.1835C311.998 55.1805 313.109 55.1813 314.221 55.1846C315.629 55.1885 317.036 55.1817 318.444 55.172C319.544 55.1658 320.644 55.166 321.744 55.1679C322.262 55.1679 322.78 55.166 323.298 55.1618C327.9 55.1298 332.633 55.5968 336.666 58C336.712 57.7925 336.757 57.5849 336.803 57.3711C338.399 50.5197 340.503 43.6746 345.666 38.6667C345.984 38.3444 345.984 38.3444 346.308 38.0156C350.414 34.1053 355.969 32.9563 361.452 32.941C361.967 32.9377 361.967 32.9377 362.493 32.9344C363.627 32.9278 364.76 32.9239 365.894 32.9206C366.478 32.9185 366.478 32.9185 367.073 32.9165C369.135 32.9095 371.196 32.9047 373.257 32.9016C375.375 32.8979 377.493 32.8865 379.611 32.8732C381.249 32.8645 382.887 32.8617 384.525 32.8605C385.305 32.8589 386.085 32.8551 386.865 32.8488C393.983 32.7956 399.684 33.4869 405.172 38.4544C407.27 40.6811 408.928 43.1821 410.541 45.7708C410.953 46.4238 411.364 47.0766 411.776 47.7292C411.981 48.0549 412.186 48.3806 412.398 48.7161C413.294 50.1314 414.209 51.5348 415.125 52.9375C416.818 55.5378 418.507 58.1411 420.187 60.75C420.414 61.0993 420.64 61.4485 420.873 61.8083C424.202 66.9882 424.202 66.9882 424.104 69.1042C424.096 69.3779 424.088 69.6516 424.079 69.9336C424 70.6667 424 70.6667 423.666 71.6667C424.024 71.6614 424.382 71.6562 424.751 71.6508C426.091 71.6326 427.431 71.6212 428.771 71.6117C429.349 71.6067 429.926 71.5999 430.504 71.5912C431.339 71.579 432.174 71.5734 433.009 71.569C433.263 71.5638 433.517 71.5587 433.779 71.5534C435.905 71.5527 437.947 71.9605 439.735 73.1602C441.789 75.3437 443.543 77.7602 445.304 80.1816C445.642 80.6582 445.642 80.6582 446 81C446.727 81.0783 447.457 81.1379 448.187 81.1875C448.586 81.2154 448.986 81.2434 449.397 81.2721C449.706 81.2923 450.015 81.3125 450.333 81.3333C450.416 80.9071 450.498 80.4808 450.583 80.0417C451.24 77.1816 451.977 75.0539 454.268 73.125C456.149 71.9466 458.053 71.8656 460.208 71.7917C460.523 71.78 460.838 71.7683 461.163 71.7563C462.219 71.721 463.276 71.6932 464.333 71.6667C464.721 71.6553 465.108 71.644 465.507 71.6323C472.027 71.4592 477.072 71.6245 482.666 75.3333C483.292 74.3945 483.648 73.5909 484.045 72.5417C484.252 72.0073 484.252 72.0073 484.463 71.4622C484.747 70.7209 485.029 69.9787 485.309 69.2357C487.667 63.1713 491.534 58.4698 497.558 55.7708C501.282 54.1881 504.648 53.5664 508.699 53.5698C509.088 53.5676 509.477 53.5653 509.878 53.563C511.156 53.5567 512.434 53.5554 513.712 53.5547C514.38 53.5531 515.049 53.5515 515.717 53.5497C517.818 53.5443 519.918 53.5427 522.018 53.5431C524.171 53.5435 526.324 53.5365 528.478 53.526C530.338 53.5172 532.198 53.5137 534.058 53.5141C535.163 53.5143 536.269 53.5118 537.375 53.5053C545.288 53.4631 552.051 54.2932 558.019 59.9517C559.357 61.2853 560.419 62.6852 561.333 64.3333C561.458 64.5477 561.583 64.7622 561.712 64.9831C563.518 68.2931 564.019 71.9501 564 75.6667C564.186 75.6124 564.372 75.5581 564.564 75.5022C566.51 74.9356 568.457 74.374 570.404 73.8153C571.13 73.6064 571.856 73.3962 572.581 73.1847C573.626 72.8802 574.672 72.5803 575.719 72.2812C576.201 72.1391 576.201 72.1391 576.693 71.994C579.22 71.2795 581.528 70.911 584.015 71.9687C586.152 73.1651 587.206 74.7488 587.896 77.0599C588.253 80.2871 587.053 83.548 586.222 86.6328C586.076 87.1802 585.931 87.7276 585.785 88.2751C585.48 89.4191 585.174 90.5627 584.866 91.706C584.475 93.1618 584.087 94.6185 583.7 96.0755C583.399 97.2055 583.097 98.335 582.794 99.4644C582.651 100.001 582.508 100.537 582.365 101.074C579.849 110.529 579.849 110.529 577 112.333C576.78 112.333 576.56 112.333 576.333 112.333C576.562 112.68 576.791 113.026 577.026 113.383C577.876 114.67 578.724 115.957 579.572 117.245C579.939 117.802 580.306 118.358 580.674 118.915C581.203 119.715 581.73 120.516 582.258 121.318C582.422 121.566 582.586 121.814 582.755 122.07C582.986 122.42 582.985 122.42 583.22 122.778C583.355 122.982 583.49 123.186 583.629 123.397C584.947 125.538 584.924 127.517 584.666 130C583.573 133.49 579.342 136.025 576.627 138.217C575.573 139.076 574.535 139.952 573.5 140.833C572.184 141.952 570.861 143.057 569.521 144.146C567.899 145.465 566.313 146.822 564.73 148.186C563.267 149.444 561.779 150.669 560.281 151.885C559.174 152.798 558.086 153.73 557 154.667C555.337 156.1 553.652 157.502 551.948 158.885C550.841 159.798 549.753 160.73 548.666 161.667C546.974 163.124 545.268 164.561 543.531 165.966C542.944 166.442 542.36 166.923 541.781 167.409C541.496 167.645 541.21 167.882 540.916 168.125C540.667 168.334 540.418 168.543 540.161 168.758C538.254 170.083 536.383 170.514 534.121 170.784C533.854 170.819 533.586 170.853 533.311 170.889C532.464 170.999 531.618 171.104 530.771 171.208C529.92 171.316 529.07 171.425 528.22 171.535C527.693 171.602 527.165 171.669 526.638 171.734C525.3 171.899 525.3 171.899 523.982 172.173C521.467 172.795 518.724 172.517 516.386 171.445C514.573 170.324 513.78 168.951 513 167C513 165.79 513 164.58 513 163.333C372.255 163.498 372.255 163.498 228.666 163.667C227.346 166.967 226.026 170.267 224.666 173.667C222.959 175.716 221.835 176.724 219.214 177.118C218.372 177.17 217.541 177.177 216.698 177.167C216.382 177.169 216.067 177.171 215.742 177.173C214.709 177.177 213.676 177.171 212.643 177.165C211.921 177.165 211.198 177.166 210.475 177.167C208.965 177.167 207.455 177.163 205.945 177.156C204.012 177.146 202.08 177.147 200.147 177.151C198.656 177.154 197.166 177.151 195.676 177.147C194.963 177.145 194.25 177.145 193.538 177.146C192.542 177.147 191.545 177.142 190.549 177.135C190.257 177.136 189.964 177.138 189.663 177.139C187.274 177.11 185.484 176.592 183.679 174.932C183.456 174.727 183.232 174.522 183.002 174.31C181.911 173.26 180.849 172.184 179.798 171.094C179.328 170.613 178.859 170.133 178.388 169.654C177.657 168.906 176.928 168.157 176.203 167.404C175.496 166.671 174.783 165.944 174.069 165.219C173.852 164.991 173.636 164.763 173.413 164.529C173.106 164.22 173.106 164.22 172.793 163.904C172.615 163.721 172.437 163.538 172.254 163.349C171.416 162.851 170.953 163.142 170 163.333C169.129 163.37 168.267 163.391 167.397 163.396C167.137 163.398 166.877 163.401 166.609 163.404C165.738 163.412 164.868 163.418 163.997 163.424C163.372 163.429 162.747 163.435 162.122 163.44C156.395 163.489 150.667 163.514 144.939 163.533C140.715 163.548 136.492 163.574 132.268 163.614C129.289 163.641 126.309 163.655 123.329 163.661C121.555 163.664 119.782 163.673 118.009 163.696C110.197 163.794 103.541 163.584 96.2993 160.408C95.0259 159.87 93.7279 159.44 92.4126 159.017C86.5269 157.121 86.5269 157.121 84.8331 154.562C83.631 151.607 83.9814 148.964 85.1471 146.036C85.3324 145.599 85.5204 145.162 85.7107 144.727C85.8136 144.485 85.9165 144.244 86.0226 143.995C86.2443 143.475 86.4671 142.956 86.691 142.437C87.2988 141.029 87.898 139.616 88.4985 138.204C88.6852 137.767 88.6852 137.767 88.8756 137.32C90.0747 134.502 91.2387 131.671 92.3958 128.836C92.7282 128.023 93.0618 127.209 93.3957 126.396C94.3543 124.062 95.3108 121.726 96.2518 119.384C96.6363 118.43 97.025 117.477 97.4147 116.525C97.5931 116.086 97.7696 115.646 97.944 115.206C99.1135 112.256 100.283 109.808 102.982 108.014C104.198 107.599 105.351 107.481 106.625 107.437C106.854 107.426 107.084 107.415 107.32 107.403C107.88 107.376 108.44 107.354 109 107.333C108.984 106.986 108.969 106.639 108.953 106.281C108.94 105.799 108.928 105.316 108.916 104.833C108.905 104.608 108.894 104.382 108.883 104.15C108.852 102.437 109.153 100.867 109.579 99.2158C109.669 98.8654 109.669 98.8654 109.76 98.5079C110.399 96.0275 111.121 93.5729 111.857 91.1198C112.003 90.6288 112.149 90.1377 112.295 89.6467C112.684 88.3397 113.075 87.0332 113.466 85.7269C113.875 84.3589 114.283 82.9907 114.692 81.6225C115.192 79.9466 115.693 78.2708 116.194 76.5952C117.13 73.4667 118.061 70.3368 118.986 67.2049C119.458 65.6052 119.932 64.0062 120.407 62.4074C120.721 61.35 121.034 60.2922 121.345 59.2339C124.186 49.5647 127.019 40.6863 136.264 35.4753C140.844 33.2225 145.963 32.9524 150.977 32.941ZM135.265 44.9388C131.02 50.0981 129.43 57.0377 127.628 63.3061C127.264 64.5736 126.893 65.8391 126.521 67.1042C126.459 67.3138 126.398 67.5234 126.334 67.7394C125.557 70.3862 124.759 73.0272 123.965 75.6692C123.248 78.0554 122.532 80.4417 121.833 82.8333C121.199 85.0029 120.551 87.1683 119.9 89.3329C119.634 90.2193 119.369 91.106 119.105 91.9932C118.032 95.6018 118.032 95.6018 117.436 97.3477C116.075 101.397 115.315 105.915 117.208 109.917C118.319 111.792 119.51 113.451 121.333 114.667C116.383 114.667 111.433 114.667 106.333 114.667C104.691 117.931 104.691 117.931 103.255 121.251C103.163 121.481 103.071 121.71 102.977 121.946C102.78 122.437 102.584 122.929 102.388 123.421C101.852 124.77 101.309 126.116 100.767 127.462C100.653 127.746 100.538 128.029 100.421 128.322C98.7846 132.372 97.0841 136.396 95.3888 140.423C94.2986 143.013 93.2112 145.605 92.1574 148.211C91.9971 148.607 91.8369 149.003 91.6718 149.41C91.2949 150.274 91.2949 150.274 91.3331 151C100.957 155.026 109.335 156.749 119.744 156.562C121.465 156.536 123.186 156.539 124.907 156.537C127.782 156.531 130.657 156.507 133.532 156.469C137.208 156.42 140.883 156.403 144.559 156.396C147.753 156.389 150.947 156.368 154.141 156.345C155.154 156.339 156.167 156.334 157.18 156.329C158.773 156.321 160.365 156.304 161.958 156.28C162.537 156.273 163.117 156.268 163.696 156.266C167.449 156.252 170.502 155.749 174 154.333C174.101 154.539 174.203 154.745 174.307 154.957C177.191 160.657 182.468 167.348 188.666 169.667C197.935 172.121 208.904 170.527 218.333 169.667C219.542 166.767 220.746 163.865 221.937 160.958C222.188 160.35 222.188 160.35 222.444 159.729C222.602 159.343 222.76 158.957 222.923 158.56C223.137 158.038 223.137 158.038 223.356 157.505C223.705 156.711 223.705 156.711 223.666 156C321.456 156 419.246 156 520 156C520 158.97 520 161.94 520 165C523.135 164.787 526.268 164.57 529.393 164.237C529.855 164.19 530.318 164.148 530.781 164.111C534.29 163.827 536.265 162.957 538.666 160.333C539.252 159.841 539.841 159.353 540.437 158.875C541.806 157.767 543.158 156.641 544.5 155.5C545.815 154.382 547.139 153.276 548.479 152.187C550.1 150.868 551.686 149.512 553.269 148.147C554.732 146.889 556.22 145.664 557.719 144.448C558.825 143.536 559.913 142.603 561 141.667C562.672 140.226 564.364 138.815 566.077 137.423C567.848 135.972 569.588 134.483 571.333 133C572.111 132.34 572.888 131.68 573.666 131.021C573.842 130.871 574.018 130.722 574.199 130.568C575.23 129.694 576.274 128.839 577.333 128C577.062 125.932 575.871 124.464 574.718 122.775C574.338 122.216 573.966 121.651 573.595 121.086C572.061 118.822 570.585 117.198 568.333 115.667C567.924 115.374 567.515 115.08 567.107 114.786C565.964 113.962 564.816 113.146 563.666 112.333C563.954 112.157 564.242 111.981 564.538 111.8C565.611 111.139 566.677 110.467 567.742 109.792C568.202 109.503 568.664 109.216 569.128 108.932C572.173 107.232 572.173 107.232 574.09 104.488C574.185 103.995 574.267 103.498 574.333 103C574.463 102.482 574.598 101.964 574.737 101.448C574.867 100.91 574.996 100.372 575.125 99.8333C575.637 97.7326 576.183 95.652 576.812 93.5833C577.805 90.3055 578.608 86.981 579.423 83.6554C579.833 81.9912 580.25 80.329 580.666 78.6667C578.454 79.0766 576.303 79.5923 574.146 80.2292C573.53 80.4082 572.914 80.587 572.298 80.7656C571.818 80.9052 571.818 80.9052 571.327 81.0475C569.972 81.437 568.614 81.8129 567.255 82.189C564.055 83.0759 560.865 83.9927 557.687 84.9583C557.359 85.0578 557.032 85.1572 556.694 85.2597C555.147 85.7127 555.147 85.7127 553.666 86.3333C553.745 86.13 553.825 85.9267 553.906 85.7172C554.265 84.7912 554.622 83.8643 554.979 82.9375C555.103 82.6176 555.228 82.2977 555.356 81.9681C555.535 81.5024 555.535 81.5024 555.717 81.0273C555.827 80.7428 555.937 80.4583 556.05 80.1651C557.207 76.7622 557.182 72.4234 555.752 69.1185C553.739 65.3489 550.626 62.8836 546.666 61.3333C544.422 60.6799 542.268 60.5677 539.942 60.5698C539.582 60.5676 539.222 60.5653 538.85 60.563C537.666 60.5567 536.482 60.5554 535.298 60.5547C534.469 60.5525 533.64 60.5503 532.811 60.548C531.075 60.544 529.339 60.5427 527.604 60.5431C525.389 60.5432 523.175 60.5341 520.961 60.5226C519.249 60.5152 517.537 60.5139 515.825 60.5142C515.009 60.5134 514.193 60.5105 513.377 60.5053C507.043 60.4688 500.796 60.7581 495.907 65.3999C493.127 68.3051 492.01 71.7463 490.782 75.4749C489.818 78.371 489.07 80.3963 486.333 82C485.446 82.8387 485.446 82.8387 484.708 83.6875C484.461 83.9595 484.215 84.2315 483.961 84.5117C483.341 85.323 482.992 86.0376 482.666 87C482.446 87 482.226 87 482 87C481.965 86.7589 481.931 86.5179 481.896 86.2695C481.268 83.7049 479.334 81.7952 477.168 80.418C476.892 80.28 476.617 80.1421 476.333 80C475.977 79.8191 475.621 79.6382 475.254 79.4518C473.209 78.7104 470.988 78.8767 468.843 78.9062C468.09 78.9166 467.336 78.9199 466.583 78.9219C463.819 78.9369 461.085 79.0471 458.333 79.3333C457.831 80.7561 457.332 82.18 456.833 83.6042C456.618 84.2116 456.618 84.2116 456.4 84.8314C456.264 85.2192 456.129 85.607 455.989 86.0065C455.864 86.3644 455.738 86.7222 455.608 87.0909C455.285 88.0012 455.285 88.0012 455.333 89C455.166 88.9433 454.998 88.8866 454.825 88.8282C453.695 88.607 452.601 88.6935 451.458 88.7487C442.735 89.0249 442.735 89.0249 440.778 87.2539C439.891 86.1634 439.262 84.9651 438.678 83.6903C438.134 82.6021 437.398 81.7746 436.604 80.8542C436.365 80.5658 436.127 80.2775 435.881 79.9805C435.597 79.6451 435.311 79.3108 435 79C434.315 78.9686 433.628 78.9609 432.942 78.9622C432.728 78.9621 432.513 78.9621 432.292 78.962C431.58 78.9622 430.867 78.9648 430.155 78.9674C429.662 78.9681 429.169 78.9685 428.676 78.9689C427.377 78.9701 426.078 78.9734 424.779 78.9771C423.454 78.9805 422.129 78.982 420.804 78.9837C418.202 78.9873 415.601 78.993 413 79C413.113 78.7361 413.225 78.4722 413.342 78.2003C413.76 77.2171 414.173 76.2323 414.585 75.2463C414.763 74.8205 414.943 74.3954 415.125 73.9709C415.386 73.3595 415.642 72.7455 415.897 72.1315C416.052 71.7632 416.208 71.3949 416.368 71.0154C416.689 69.922 416.686 69.4034 416.333 68.3333C415.868 67.5026 415.392 66.713 414.875 65.9167C414.727 65.6842 414.578 65.4517 414.425 65.2122C413.953 64.473 413.477 63.7363 413 63C412.697 62.53 412.395 62.0599 412.092 61.5898C411.329 60.4056 410.562 59.2238 409.794 58.0426C409.191 57.1153 408.591 56.1866 407.991 55.2576C407.691 54.7943 407.391 54.3313 407.091 53.8686C406.24 52.5587 405.398 51.2436 404.566 49.9219C404.284 49.4786 404.284 49.4786 403.997 49.0264C403.636 48.4583 403.277 47.8884 402.922 47.3166C401.336 44.8349 399.533 42.4815 396.729 41.3542C396.424 41.2274 396.12 41.1006 395.806 40.9701C394.649 40.5346 393.743 40.2909 392.512 40.2843C392.208 40.2819 391.903 40.2795 391.589 40.277C391.089 40.2757 391.089 40.2757 390.579 40.2743C390.227 40.2721 389.875 40.27 389.512 40.2677C388.345 40.2611 387.178 40.2572 386.01 40.2539C385.611 40.2525 385.212 40.2512 384.801 40.2498C382.687 40.2428 380.574 40.2381 378.46 40.2349C376.282 40.2313 374.103 40.2198 371.925 40.2066C370.246 40.1978 368.567 40.195 366.889 40.1938C366.086 40.1922 365.283 40.1884 364.481 40.1822C363.354 40.174 362.227 40.1744 361.099 40.1767C360.771 40.1724 360.443 40.1681 360.105 40.1637C356.159 40.193 353.131 41.6322 350.314 44.3216C347.229 47.5466 345.917 51.6387 344.625 55.8125C344.485 56.2555 344.345 56.6984 344.204 57.1413C343.447 59.5359 342.711 61.9372 341.975 64.3383C341.688 65.263 341.396 66.1853 341.099 67.1068C341.013 67.374 340.927 67.6413 340.838 67.9167C340.664 68.4578 340.488 68.9985 340.312 69.5391C340.228 69.802 340.144 70.065 340.057 70.3359C339.982 70.5684 339.906 70.801 339.829 71.0405C339.625 71.7202 339.625 71.7202 339.666 72.6667C339.446 72.6667 339.226 72.6667 339 72.6667C338.979 72.2748 338.979 72.2748 338.958 71.875C338.252 68.9478 336.238 66.2331 333.709 64.5964C330.159 62.696 326.629 62.5083 322.691 62.5104C322.146 62.508 321.6 62.5055 321.055 62.5027C319.916 62.4983 318.777 62.4977 317.639 62.4997C316.191 62.5016 314.743 62.4914 313.295 62.478C312.17 62.4693 311.044 62.4684 309.919 62.4696C309.386 62.469 308.853 62.4659 308.319 62.4599C302.035 62.397 297.849 64.6376 293.206 68.7995C292.343 69.5993 292.343 69.5993 291.846 70.3964C290.898 71.7147 290.178 72.5418 288.566 72.9352C287.207 73.0238 285.876 73.0213 284.515 72.9857C284.013 72.9842 283.511 72.9842 283.009 72.9856C281.69 72.9863 280.373 72.9703 279.055 72.9495C276.951 72.9182 274.847 72.9089 272.742 72.9062C272.014 72.9024 271.286 72.8894 270.558 72.8751C265.779 72.8192 262.087 74.0629 258.592 77.3672C255.735 80.39 253 85.735 253 90C252.73 89.8836 252.461 89.7671 252.183 89.6471C251.827 89.4955 251.471 89.3438 251.104 89.1875C250.752 89.0367 250.4 88.8859 250.038 88.7305C248.298 88.0646 246.77 87.9598 244.91 87.9674C244.683 87.9679 244.456 87.9684 244.222 87.9689C243.502 87.9707 242.782 87.9749 242.062 87.9792C241.572 87.9808 241.082 87.9824 240.592 87.9837C239.394 87.9874 238.197 87.9931 237 88C236.912 87.71 236.824 87.42 236.733 87.1212C236.337 86.0114 235.86 85.0784 235.268 84.0612C235.057 83.6962 234.845 83.3312 234.627 82.9551C234.407 82.578 234.186 82.201 233.958 81.8125C233.745 81.4445 233.532 81.0764 233.312 80.6973C232.541 79.3607 232.541 79.3607 231.741 78.0417C231.333 77.3333 231.333 77.3333 230.834 76.2427C229.709 73.9292 229.709 73.9292 227.579 72.6214C226.229 72.4975 224.945 72.5109 223.594 72.5768C223.104 72.5849 222.615 72.5911 222.125 72.5954C220.844 72.6119 219.565 72.6543 218.285 72.7024C216.976 72.747 215.666 72.7666 214.357 72.7884C211.792 72.8347 209.23 72.9085 206.666 73C206.781 72.71 206.781 72.71 206.897 72.4141C207.774 70.0294 207.689 68.6347 206.618 66.2921C206.521 66.0861 206.424 65.8802 206.324 65.668C206.223 65.4473 206.121 65.2267 206.016 64.9993C205.687 64.2833 205.354 63.5688 205.021 62.8542C204.562 61.8599 204.104 60.8649 203.647 59.8698C203.533 59.6234 203.42 59.3771 203.303 59.1233C202.336 57.0195 201.412 54.899 200.5 52.7708C197.561 45.5009 197.561 45.5009 191.629 40.6775C189.873 40.0498 188.133 40.1105 186.287 40.1335C185.648 40.1316 185.648 40.1316 184.996 40.1296C183.837 40.1263 182.678 40.1333 181.519 40.1424C180.299 40.1504 179.079 40.1493 177.859 40.1495C175.81 40.151 173.761 40.1589 171.712 40.171C169.353 40.1849 166.995 40.1907 164.636 40.1919C162.112 40.1931 159.587 40.1994 157.063 40.2076C156.342 40.2096 155.621 40.2108 154.9 40.2119C153.547 40.2143 152.194 40.2224 150.842 40.2312C150.448 40.2314 150.054 40.2316 149.649 40.2319C144.344 40.279 139.242 41.1236 135.265 44.9388Z" fill="#444444"/>
<path d="M150.276 36.6077C150.703 36.6055 151.13 36.6033 151.57 36.601C152.979 36.5941 154.388 36.5906 155.797 36.5872C156.284 36.5859 156.771 36.5845 157.259 36.5831C159.548 36.5768 161.838 36.572 164.128 36.5693C166.762 36.566 169.395 36.5572 172.029 36.5438C174.071 36.5337 176.114 36.5288 178.156 36.5277C179.373 36.5269 180.59 36.5239 181.807 36.5155C183.166 36.5062 184.525 36.5077 185.884 36.51C186.282 36.5057 186.68 36.5015 187.089 36.4971C191.599 36.5249 195.053 38.1824 198.375 41.1667C200.408 43.2809 201.512 46.0693 202.561 48.7695C203.631 51.4708 204.885 54.0929 206.104 56.7292C206.351 57.2658 206.598 57.8025 206.846 58.3392C207.09 58.8698 207.335 59.4004 207.579 59.931C207.758 60.3194 207.758 60.3194 207.94 60.7156C208.518 61.9681 209.102 63.2168 209.701 64.4591C209.81 64.6874 209.919 64.9157 210.032 65.1508C210.328 65.767 210.626 66.3818 210.925 66.9965C211.333 68 211.333 68 211.333 69.3333C211.666 69.33 211.666 69.33 212.005 69.3266C214.314 69.3045 216.623 69.2894 218.932 69.2784C219.794 69.2734 220.655 69.2666 221.517 69.2579C222.756 69.2458 223.994 69.2401 225.233 69.2357C225.618 69.2305 226.003 69.2254 226.4 69.22C226.76 69.22 227.12 69.2199 227.492 69.2198C227.808 69.2176 228.124 69.2154 228.449 69.2131C229.885 69.4084 230.749 70.0548 231.704 71.1139C232.334 72.0008 232.877 72.8926 233.402 73.8451C233.598 74.1976 233.794 74.5502 233.995 74.9134C234.196 75.2789 234.397 75.6443 234.604 76.0208C235.201 77.1003 235.798 78.1787 236.409 79.2503C237 80.3333 237 80.3333 237.511 81.4814C238.036 82.5819 238.498 83.4432 239.333 84.3333C240.848 84.8442 242.25 84.7901 243.833 84.7083C244.628 84.6929 245.423 84.6798 246.219 84.6693C246.587 84.6612 246.955 84.6532 247.335 84.6449C248.569 84.6718 249.518 84.8977 250.667 85.3333C250.712 85.1469 250.757 84.9604 250.803 84.7682C252.209 79.533 254.868 75.1889 259.443 72.1771C263.601 69.7937 267.504 69.2309 272.22 69.2682C272.686 69.2695 273.153 69.2704 273.62 69.2711C274.838 69.2736 276.056 69.2801 277.274 69.2876C278.521 69.2944 279.768 69.2974 281.015 69.3008C283.454 69.3079 285.894 69.3193 288.333 69.3333C288.43 69.1289 288.527 68.9244 288.626 68.7138C290.874 64.4174 296.617 61.2658 301 59.6667C303.782 58.871 306.533 58.8968 309.402 58.8997C309.926 58.8984 310.451 58.897 310.975 58.8954C312.07 58.8929 313.165 58.893 314.26 58.8948C315.653 58.8967 317.046 58.8911 318.439 58.8833C319.521 58.8784 320.603 58.8781 321.685 58.8792C322.198 58.879 322.711 58.8773 323.224 58.8739C327.227 58.8507 330.852 59.2672 334.458 61.125C334.832 61.3132 335.206 61.5014 335.591 61.6953C336.74 62.3769 337.665 63.1199 338.667 64C338.721 63.7702 338.775 63.5405 338.83 63.3037C343.498 44.0073 343.498 44.0073 351.333 39C351.526 38.8741 351.718 38.7482 351.917 38.6185C356.316 36.0866 361.942 36.5231 366.82 36.5456C367.568 36.5457 368.316 36.5456 369.064 36.5451C370.622 36.5451 372.18 36.5485 373.739 36.5546C375.73 36.5622 377.722 36.5623 379.713 36.5601C381.254 36.559 382.795 36.5612 384.336 36.5645C385.07 36.5658 385.805 36.5661 386.539 36.5656C387.565 36.5655 388.591 36.5697 389.618 36.5751C389.917 36.5743 390.216 36.5735 390.524 36.5726C395.105 36.6108 399.168 37.9989 402.549 41.1419C404.234 42.9863 405.618 45.0436 406.958 47.1458C407.111 47.3833 407.263 47.6208 407.421 47.8655C407.948 48.6873 408.474 49.5103 409 50.3333C409.647 51.3454 410.294 52.3573 410.942 53.3693C411.398 54.0827 411.854 54.7961 412.31 55.5096C413.944 58.0652 415.591 60.6125 417.25 63.1521C417.571 63.6434 417.891 64.1353 418.209 64.628C418.521 65.1083 418.836 65.5861 419.155 66.0614C419.308 66.2938 419.461 66.5262 419.618 66.7656C419.755 66.97 419.892 67.1745 420.033 67.3851C420.634 68.6162 420.363 69.7247 420 71C419.724 71.7593 419.438 72.5148 419.143 73.2669C418.992 73.6546 418.841 74.0424 418.685 74.4418C418.569 74.736 418.453 75.0302 418.333 75.3333C418.653 75.33 418.653 75.33 418.98 75.3266C421.202 75.3045 423.425 75.2894 425.647 75.2784C426.477 75.2734 427.306 75.2666 428.135 75.2579C429.328 75.2458 430.52 75.2401 431.712 75.2357C432.268 75.2279 432.268 75.2279 432.835 75.22C433.182 75.22 433.529 75.2199 433.886 75.2198C434.343 75.2165 434.343 75.2165 434.808 75.2131C438.269 75.6979 440.662 80.1349 442.633 82.7266C443.105 83.361 443.561 84.0084 444 84.6667C444.936 84.837 444.936 84.837 446.034 84.8372C446.438 84.8491 446.842 84.8609 447.258 84.873C447.893 84.8843 447.893 84.8843 448.542 84.8958C448.968 84.9072 449.394 84.9186 449.833 84.9303C450.889 84.9579 451.944 84.9809 453 85C453.039 84.8115 453.079 84.623 453.119 84.4287C453.473 82.7824 453.879 81.1816 454.417 79.5833C454.542 79.1966 454.667 78.8099 454.797 78.4115C455.426 77.146 456.066 76.2921 457.333 75.6667C458.494 75.4212 459.629 75.4027 460.812 75.3958C461.146 75.3882 461.479 75.3805 461.823 75.3726C462.882 75.3512 463.941 75.342 465 75.3333C465.701 75.3206 466.402 75.3076 467.103 75.2943C467.777 75.2856 468.451 75.2777 469.125 75.2708C469.591 75.2642 469.591 75.2642 470.066 75.2574C474.432 75.2531 478.419 76.5171 481.625 79.5833C481.859 79.8308 482.092 80.0783 482.333 80.3333C485.695 78.7187 486.631 76.5397 487.854 73.0833C490.002 67.1431 492.629 62.2517 498.538 59.3867C501.989 57.8707 504.855 57.233 508.599 57.2471C508.985 57.2459 509.371 57.2447 509.769 57.2435C511.041 57.2406 512.312 57.2425 513.583 57.2448C514.47 57.2443 515.356 57.2437 516.243 57.2429C518.099 57.2416 519.955 57.2432 521.811 57.2464C523.951 57.25 526.092 57.2489 528.232 57.2452C530.076 57.2422 531.919 57.2418 533.763 57.2435C534.861 57.2445 535.96 57.2444 537.058 57.2425C538.284 57.2408 539.509 57.2434 540.734 57.2471C541.275 57.245 541.275 57.245 541.826 57.243C546.667 57.27 550.889 58.9874 554.667 62C554.979 62.2378 554.979 62.2378 555.298 62.4805C557.68 64.5398 559.508 68.2368 560 71.3333C560.071 72.5411 560.062 73.7487 560.062 74.9583C560.069 75.4424 560.069 75.4424 560.075 75.9362C560.078 77.7594 559.94 79.2776 559.333 81C559.741 80.8543 559.741 80.8543 560.157 80.7057C563.065 79.6995 565.992 78.8823 568.975 78.1286C571.733 77.4238 574.447 76.6062 577.154 75.728C580.784 74.5789 580.784 74.5789 582.583 75.4375C583.422 76.0667 583.934 76.593 584.107 77.6554C584.138 80.2845 583.5 82.6874 582.812 85.2083C582.69 85.6684 582.568 86.1285 582.447 86.5886C581.628 89.6643 580.752 92.7224 579.837 95.7708C579.023 98.507 578.337 101.269 577.709 104.054C577.026 106.949 576.068 108.544 573.535 110.146C573.276 110.304 573.017 110.462 572.75 110.625C572.486 110.791 572.221 110.957 571.949 111.128C571.302 111.533 570.652 111.935 570 112.333C570.22 112.505 570.44 112.677 570.667 112.854C570.997 113.122 571.327 113.39 571.667 113.667C571.861 113.81 572.055 113.953 572.255 114.101C574.614 115.963 576.057 118.432 577.646 120.938C577.936 121.387 578.226 121.837 578.516 122.286C581.448 126.834 581.448 126.834 581 129C579.813 131.007 577.804 132.431 576.008 133.861C574.932 134.721 573.881 135.606 572.833 136.5C571.518 137.618 570.194 138.724 568.854 139.813C567.233 141.132 565.647 142.488 564.064 143.853C562.601 145.111 561.113 146.336 559.614 147.552C558.508 148.464 557.42 149.397 556.333 150.333C554.661 151.774 552.969 153.185 551.256 154.577C549.485 156.028 547.745 157.517 546 159C544.731 160.079 543.461 161.156 542.187 162.228C541.674 162.661 541.162 163.095 540.65 163.529C540.332 163.794 540.015 164.06 539.687 164.333C539.27 164.684 539.27 164.684 538.845 165.042C537.007 166.401 535.349 166.856 533.13 167.117C532.861 167.152 532.591 167.187 532.314 167.223C531.46 167.332 530.605 167.437 529.75 167.542C528.89 167.649 528.031 167.758 527.172 167.868C526.638 167.936 526.105 168.002 525.571 168.067C524.244 168.215 524.244 168.215 523 168.667C521.211 168.845 519.767 168.887 518.146 168.063C517.333 167.333 517.333 167.333 516.667 166.333C516.667 164.133 516.667 161.933 516.667 159.667C420.747 159.667 324.827 159.667 226 159.667C225.67 160.657 225.34 161.647 225 162.667C224.507 164.054 223.993 165.432 223.468 166.807C223.308 167.229 223.151 167.653 222.996 168.077C222.769 168.698 222.532 169.316 222.295 169.934C222.159 170.299 222.022 170.663 221.881 171.039C221.18 172.268 220.583 172.667 219.333 173.333C218.301 173.524 217.289 173.526 216.242 173.522C215.937 173.526 215.632 173.53 215.318 173.534C214.313 173.545 213.309 173.546 212.305 173.546C211.604 173.549 210.903 173.553 210.202 173.557C208.735 173.563 207.267 173.564 205.799 173.562C203.922 173.56 202.045 173.575 200.168 173.594C198.721 173.606 197.274 173.608 195.827 173.607C195.136 173.608 194.444 173.612 193.752 173.621C192.782 173.631 191.814 173.627 190.844 173.619C190.419 173.629 190.419 173.629 189.986 173.638C187.978 173.6 186.994 172.99 185.569 171.594C185.381 171.398 185.194 171.202 185 171C184.744 170.759 184.488 170.517 184.224 170.268C184.016 170.062 183.809 169.856 183.596 169.644C183.236 169.287 183.236 169.287 182.868 168.923C182.619 168.675 182.371 168.426 182.114 168.171C181.721 167.778 181.721 167.778 181.319 167.378C180.769 166.83 180.22 166.282 179.672 165.734C178.828 164.891 177.982 164.05 177.135 163.21C176.6 162.676 176.066 162.142 175.531 161.608C175.277 161.356 175.023 161.105 174.761 160.845C174.529 160.613 174.298 160.38 174.059 160.14C173.854 159.936 173.649 159.731 173.438 159.52C173 159 173 159 173 158.333C172.782 158.427 172.563 158.52 172.338 158.617C169.179 159.832 166.256 159.88 162.924 159.897C162.318 159.905 161.713 159.914 161.108 159.922C159.472 159.944 157.836 159.957 156.199 159.967C155.169 159.973 154.14 159.98 153.11 159.988C149.867 160.011 146.624 160.029 143.382 160.039C139.678 160.05 135.976 160.082 132.273 160.132C129.388 160.17 126.502 160.188 123.616 160.191C121.904 160.194 120.194 160.204 118.482 160.236C108.037 160.42 99.3289 158.471 89.8672 153.987C89.6526 153.886 89.438 153.785 89.2169 153.68C88.6665 153.333 88.6665 153.333 87.9999 152.333C87.5741 149.753 88.374 147.723 89.4374 145.417C89.7757 144.651 90.1128 143.884 90.4491 143.117C90.5892 142.8 90.5892 142.8 90.732 142.477C91.9868 139.629 93.1589 136.746 94.3414 133.868C94.7504 132.874 95.161 131.88 95.5721 130.887C96.7589 128.019 97.9428 125.151 99.0996 122.271C99.5483 121.156 100.001 120.042 100.454 118.928C100.663 118.412 100.87 117.895 101.074 117.378C101.356 116.666 101.644 115.957 101.933 115.249C102.092 114.852 102.251 114.456 102.414 114.047C103.154 112.725 103.731 112.168 105 111.333C106.053 111.144 106.053 111.144 107.164 111.171C107.564 111.176 107.963 111.181 108.375 111.187C108.787 111.201 109.2 111.215 109.625 111.229C110.045 111.237 110.465 111.244 110.898 111.252C111.933 111.272 112.966 111.299 114 111.333C113.932 111.14 113.863 110.947 113.793 110.747C113.045 108.58 112.618 106.594 112.583 104.292C112.575 103.954 112.566 103.616 112.557 103.268C112.827 100.136 113.909 97.0691 114.792 94.0625C114.894 93.7116 114.997 93.3608 115.102 92.9993C115.644 91.1593 116.209 89.3345 116.833 87.5208C117.694 85.0068 118.386 82.4521 119.091 79.8907C119.733 77.5758 120.423 75.2842 121.167 73C121.994 70.4531 122.749 67.8947 123.458 65.3125C129.295 44.2512 129.295 44.2512 136.333 39.6667C140.77 37.2037 145.292 36.6188 150.276 36.6077ZM135.265 44.9388C131.02 50.0981 129.43 57.0377 127.628 63.3062C127.264 64.5736 126.893 65.8391 126.521 67.1042C126.459 67.3138 126.398 67.5234 126.334 67.7394C125.557 70.3862 124.759 73.0272 123.965 75.6692C123.248 78.0554 122.532 80.4418 121.833 82.8333C121.199 85.0029 120.551 87.1683 119.9 89.3329C119.634 90.2193 119.369 91.1061 119.105 91.9932C118.032 95.6018 118.032 95.6018 117.436 97.3477C116.075 101.397 115.315 105.915 117.208 109.917C118.319 111.792 119.51 113.451 121.333 114.667C116.383 114.667 111.433 114.667 106.333 114.667C104.691 117.931 104.691 117.931 103.255 121.251C103.163 121.481 103.071 121.71 102.977 121.946C102.78 122.437 102.584 122.929 102.388 123.421C101.852 124.77 101.309 126.116 100.767 127.462C100.653 127.746 100.538 128.029 100.421 128.322C98.7847 132.372 97.0841 136.396 95.3889 140.423C94.2987 143.013 93.2112 145.605 92.1574 148.211C91.9972 148.607 91.8369 149.003 91.6718 149.41C91.2949 150.274 91.2949 150.274 91.3332 151C100.957 155.026 109.335 156.749 119.744 156.562C121.465 156.536 123.186 156.539 124.907 156.537C127.782 156.531 130.657 156.507 133.532 156.469C137.208 156.42 140.883 156.403 144.559 156.396C147.753 156.389 150.947 156.369 154.141 156.345C155.154 156.339 156.167 156.334 157.18 156.329C158.773 156.321 160.365 156.304 161.958 156.28C162.537 156.273 163.117 156.268 163.696 156.266C167.449 156.252 170.502 155.749 174 154.333C174.101 154.539 174.203 154.745 174.307 154.957C177.191 160.657 182.468 167.348 188.667 169.667C197.936 172.121 208.904 170.527 218.333 169.667C219.542 166.767 220.746 163.865 221.937 160.958C222.188 160.35 222.188 160.35 222.445 159.729C222.602 159.343 222.76 158.957 222.923 158.56C223.138 158.038 223.138 158.038 223.356 157.505C223.705 156.711 223.705 156.711 223.667 156C321.457 156 419.247 156 520 156C520 158.97 520 161.94 520 165C523.135 164.787 526.268 164.57 529.393 164.237C529.855 164.19 530.318 164.148 530.781 164.111C534.291 163.827 536.265 162.957 538.667 160.333C539.252 159.841 539.841 159.353 540.437 158.875C541.806 157.767 543.158 156.641 544.5 155.5C545.815 154.382 547.139 153.276 548.479 152.188C550.1 150.868 551.686 149.512 553.269 148.147C554.733 146.889 556.22 145.664 557.719 144.448C558.826 143.536 559.913 142.603 561 141.667C562.672 140.226 564.364 138.815 566.077 137.423C567.848 135.972 569.588 134.483 571.333 133C572.111 132.34 572.889 131.68 573.667 131.021C573.842 130.871 574.018 130.722 574.2 130.568C575.23 129.694 576.274 128.839 577.333 128C577.062 125.932 575.871 124.464 574.718 122.775C574.338 122.216 573.967 121.651 573.595 121.086C572.061 118.822 570.586 117.198 568.333 115.667C567.924 115.374 567.515 115.08 567.107 114.786C565.964 113.962 564.817 113.146 563.667 112.333C563.954 112.157 564.242 111.981 564.538 111.8C565.611 111.139 566.677 110.467 567.742 109.792C568.202 109.503 568.664 109.216 569.128 108.932C572.174 107.232 572.174 107.232 574.09 104.488C574.185 103.995 574.267 103.498 574.333 103C574.463 102.482 574.598 101.964 574.737 101.448C574.867 100.91 574.996 100.372 575.125 99.8333C575.637 97.7326 576.183 95.6521 576.812 93.5833C577.805 90.3055 578.609 86.981 579.423 83.6554C579.833 81.9912 580.25 80.329 580.667 78.6667C578.454 79.0767 576.303 79.5923 574.146 80.2292C573.53 80.4082 572.914 80.5871 572.298 80.7656C571.818 80.9052 571.818 80.9052 571.328 81.0475C569.973 81.437 568.614 81.8129 567.255 82.189C564.055 83.0759 560.865 83.9927 557.687 84.9583C557.36 85.0578 557.032 85.1572 556.694 85.2597C555.148 85.7127 555.148 85.7127 553.667 86.3333C553.746 86.13 553.825 85.9267 553.906 85.7172C554.265 84.7912 554.622 83.8644 554.979 82.9375C555.103 82.6176 555.228 82.2977 555.356 81.9681C555.535 81.5024 555.535 81.5024 555.717 81.0273C555.827 80.7428 555.937 80.4583 556.051 80.1651C557.207 76.7622 557.182 72.4234 555.752 69.1185C553.74 65.3489 550.626 62.8836 546.667 61.3333C544.423 60.6799 542.268 60.5677 539.942 60.5698C539.582 60.5676 539.222 60.5653 538.85 60.563C537.666 60.5567 536.482 60.5554 535.298 60.5547C534.469 60.5525 533.64 60.5503 532.811 60.548C531.075 60.544 529.339 60.5427 527.604 60.5431C525.389 60.5432 523.175 60.5341 520.961 60.5226C519.249 60.5152 517.537 60.5139 515.825 60.5142C515.009 60.5134 514.193 60.5105 513.377 60.5053C507.043 60.4688 500.796 60.7581 495.908 65.3999C493.127 68.3051 492.01 71.7463 490.782 75.4749C489.818 78.371 489.07 80.3963 486.333 82C485.446 82.8387 485.446 82.8387 484.708 83.6875C484.462 83.9595 484.215 84.2315 483.961 84.5117C483.341 85.3231 482.992 86.0376 482.667 87C482.447 87 482.227 87 482 87C481.966 86.7589 481.931 86.5179 481.896 86.2695C481.268 83.7049 479.334 81.7952 477.168 80.418C476.892 80.28 476.617 80.1421 476.333 80C475.977 79.8191 475.621 79.6382 475.254 79.4518C473.209 78.7104 470.988 78.8767 468.843 78.9063C468.09 78.9166 467.337 78.9199 466.583 78.9219C463.819 78.9369 461.085 79.0471 458.333 79.3333C457.831 80.7561 457.332 82.18 456.833 83.6042C456.619 84.2116 456.619 84.2116 456.4 84.8314C456.264 85.2192 456.129 85.607 455.989 86.0065C455.864 86.3644 455.738 86.7222 455.609 87.0909C455.285 88.0012 455.285 88.0012 455.333 89C455.166 88.9433 454.998 88.8866 454.825 88.8282C453.695 88.607 452.601 88.6935 451.458 88.7487C442.735 89.0249 442.735 89.0249 440.779 87.2539C439.891 86.1634 439.262 84.9651 438.678 83.6903C438.134 82.6021 437.398 81.7746 436.604 80.8542C436.366 80.5658 436.127 80.2775 435.881 79.9805C435.597 79.6451 435.311 79.3108 435 79C434.315 78.9686 433.628 78.9609 432.943 78.9622C432.728 78.9621 432.513 78.9621 432.292 78.962C431.58 78.9622 430.867 78.9648 430.155 78.9674C429.662 78.9681 429.169 78.9685 428.677 78.9689C427.377 78.9702 426.078 78.9734 424.779 78.9771C423.454 78.9805 422.129 78.982 420.804 78.9837C418.203 78.9873 415.601 78.993 413 79C413.113 78.7361 413.226 78.4722 413.342 78.2003C413.76 77.2171 414.173 76.2323 414.585 75.2463C414.763 74.8205 414.943 74.3954 415.125 73.9709C415.387 73.3595 415.642 72.7455 415.897 72.1315C416.052 71.7632 416.208 71.3949 416.368 71.0154C416.689 69.922 416.686 69.4034 416.333 68.3333C415.868 67.5026 415.393 66.713 414.875 65.9167C414.727 65.6842 414.578 65.4517 414.426 65.2122C413.953 64.473 413.477 63.7363 413 63C412.697 62.53 412.395 62.0599 412.092 61.5898C411.329 60.4056 410.562 59.2238 409.794 58.0426C409.192 57.1153 408.591 56.1866 407.991 55.2577C407.691 54.7943 407.391 54.3313 407.091 53.8687C406.24 52.5587 405.399 51.2436 404.566 49.9219C404.285 49.4786 404.285 49.4786 403.997 49.0264C403.636 48.4583 403.277 47.8884 402.922 47.3167C401.336 44.8349 399.533 42.4815 396.729 41.3542C396.424 41.2274 396.12 41.1007 395.806 40.9701C394.649 40.5346 393.744 40.2909 392.512 40.2843C392.208 40.2819 391.903 40.2795 391.589 40.277C391.089 40.2757 391.089 40.2757 390.579 40.2743C390.227 40.2721 389.875 40.27 389.512 40.2677C388.345 40.2611 387.178 40.2572 386.01 40.2539C385.611 40.2525 385.212 40.2512 384.801 40.2498C382.687 40.2428 380.574 40.2381 378.46 40.2349C376.282 40.2313 374.103 40.2198 371.925 40.2066C370.246 40.1978 368.568 40.195 366.889 40.1939C366.086 40.1922 365.283 40.1884 364.481 40.1822C363.354 40.174 362.227 40.1744 361.099 40.1767C360.771 40.1724 360.443 40.1681 360.105 40.1637C356.159 40.193 353.131 41.6322 350.314 44.3216C347.229 47.5466 345.917 51.6387 344.625 55.8125C344.485 56.2555 344.345 56.6984 344.204 57.1413C343.447 59.5359 342.711 61.9372 341.975 64.3383C341.688 65.263 341.396 66.1854 341.099 67.1068C341.013 67.374 340.927 67.6413 340.838 67.9167C340.664 68.4578 340.489 68.9985 340.312 69.5391C340.228 69.802 340.144 70.065 340.057 70.3359C339.982 70.5685 339.907 70.801 339.829 71.0405C339.625 71.7202 339.625 71.7202 339.667 72.6667C339.447 72.6667 339.227 72.6667 339 72.6667C338.979 72.2748 338.979 72.2748 338.958 71.875C338.252 68.9478 336.239 66.2331 333.71 64.5964C330.159 62.696 326.629 62.5083 322.691 62.5104C322.146 62.508 321.601 62.5055 321.055 62.5027C319.916 62.4983 318.778 62.4977 317.639 62.4997C316.191 62.5016 314.743 62.4914 313.295 62.478C312.17 62.4693 311.045 62.4684 309.919 62.4696C309.386 62.469 308.853 62.4659 308.319 62.4599C302.035 62.397 297.85 64.6376 293.206 68.7995C292.343 69.5993 292.343 69.5993 291.846 70.3964C290.898 71.7147 290.178 72.5418 288.566 72.9352C287.207 73.0238 285.876 73.0213 284.516 72.9857C284.013 72.9842 283.511 72.9842 283.009 72.9857C281.69 72.9863 280.373 72.9703 279.055 72.9495C276.951 72.9182 274.847 72.9089 272.742 72.9063C272.014 72.9024 271.286 72.8894 270.558 72.8751C265.779 72.8192 262.087 74.0629 258.592 77.3672C255.735 80.39 253 85.735 253 90C252.73 89.8836 252.461 89.7671 252.183 89.6471C251.827 89.4955 251.471 89.3438 251.104 89.1875C250.752 89.0367 250.4 88.8859 250.038 88.7305C248.298 88.0646 246.77 87.9598 244.91 87.9674C244.683 87.9679 244.456 87.9684 244.222 87.9689C243.502 87.9707 242.782 87.9749 242.062 87.9792C241.572 87.9808 241.082 87.9824 240.592 87.9837C239.394 87.9874 238.197 87.9931 237 88C236.912 87.71 236.824 87.42 236.733 87.1212C236.337 86.0114 235.86 85.0784 235.268 84.0612C235.057 83.6962 234.845 83.3312 234.627 82.9551C234.407 82.578 234.186 82.201 233.958 81.8125C233.745 81.4445 233.532 81.0764 233.312 80.6973C232.541 79.3607 232.541 79.3607 231.741 78.0417C231.333 77.3333 231.333 77.3333 230.834 76.2428C229.709 73.9292 229.709 73.9292 227.579 72.6214C226.229 72.4975 224.945 72.5109 223.594 72.5768C223.104 72.5849 222.615 72.5911 222.125 72.5954C220.844 72.6119 219.565 72.6543 218.285 72.7025C216.976 72.747 215.666 72.7666 214.357 72.7884C211.792 72.8347 209.23 72.9085 206.667 73C206.781 72.71 206.781 72.71 206.897 72.4141C207.775 70.0294 207.689 68.6347 206.618 66.2921C206.521 66.0861 206.424 65.8802 206.324 65.668C206.223 65.4473 206.121 65.2267 206.016 64.9993C205.687 64.2833 205.354 63.5688 205.021 62.8542C204.562 61.8599 204.104 60.8649 203.647 59.8698C203.534 59.6234 203.42 59.3771 203.303 59.1233C202.336 57.0195 201.412 54.899 200.5 52.7708C197.561 45.5009 197.561 45.5009 191.629 40.6775C189.874 40.0498 188.133 40.1105 186.287 40.1335C185.648 40.1316 185.648 40.1316 184.997 40.1296C183.837 40.1263 182.678 40.1333 181.519 40.1424C180.299 40.1504 179.079 40.1494 177.859 40.1495C175.81 40.151 173.761 40.1589 171.712 40.171C169.353 40.1849 166.995 40.1908 164.636 40.1919C162.112 40.1931 159.588 40.1994 157.063 40.2076C156.342 40.2096 155.621 40.2108 154.9 40.2119C153.547 40.2143 152.195 40.2224 150.842 40.2312C150.448 40.2314 150.054 40.2316 149.649 40.2319C144.344 40.279 139.242 41.1236 135.265 44.9388Z" fill="#505050"/>
<path d="M151.848 46.5698C152.244 46.5676 152.641 46.5653 153.05 46.563C154.348 46.5568 155.646 46.5554 156.944 46.5547C157.394 46.5537 157.845 46.5527 158.295 46.5515C160.649 46.5454 163.003 46.5426 165.357 46.5431C167.545 46.5435 169.733 46.5365 171.921 46.526C173.807 46.5172 175.693 46.5137 177.58 46.5141C178.703 46.5143 179.826 46.5124 180.949 46.5053C182.2 46.4988 183.451 46.5007 184.702 46.5047C185.255 46.4991 185.255 46.4991 185.819 46.4934C187.955 46.5108 189.263 46.728 191 48C192.198 49.4006 192.938 51.0798 192.809 52.9518C192.578 54.1158 192.164 55.193 191.727 56.2942C191.343 57.3077 191.016 58.3222 190.703 59.3599C189.687 62.701 188.611 66.0224 187.533 69.3442C187.273 70.1481 187.014 70.9524 186.757 71.757C186.382 72.9266 186.003 74.0949 185.624 75.263C185.452 75.8036 185.452 75.8036 185.277 76.3551C185.167 76.6881 185.058 77.021 184.946 77.3641C184.852 77.6567 184.757 77.9494 184.66 78.2509C184.116 79.4986 183.553 79.91 182.3 80.4237C181.877 80.566 181.454 80.7049 181.029 80.8411C180.801 80.9167 180.573 80.9923 180.339 81.0702C179.602 81.3138 178.864 81.5529 178.125 81.7917C177.622 81.9566 177.119 82.1217 176.616 82.2869C167.305 85.3333 167.305 85.3333 166 85.3333C166.187 83.1839 166.723 81.3216 167.438 79.2917C168.127 77.2809 168.803 75.2767 169.375 73.2292C170.086 70.6929 170.881 68.1808 171.667 65.6667C165.947 65.6667 160.227 65.6667 154.333 65.6667C154.003 67.3167 154.003 67.3167 153.667 69C153.394 70.1463 153.084 71.2807 152.771 72.4167C152.641 72.8904 152.641 72.8904 152.509 73.3737C151.806 75.9074 151.018 78.4084 150.205 80.9084C149.396 83.4137 148.698 85.9411 148.02 88.4844C147.53 90.3122 146.981 92.0999 146.357 93.8867C145.734 95.8315 145.224 97.8091 144.702 99.7832C144.621 100.088 144.54 100.393 144.456 100.707C144.384 100.98 144.312 101.253 144.238 101.534C143.986 102.381 143.666 103.182 143.333 104C143.686 103.849 143.686 103.849 144.045 103.695C146.664 102.586 149.312 101.592 151.991 100.639C152.424 100.485 152.857 100.33 153.29 100.176C154.187 99.8553 155.085 99.5358 155.983 99.2169C157.133 98.8081 158.283 98.3969 159.433 97.985C160.322 97.6668 161.212 97.3501 162.101 97.0337C162.732 96.8093 163.361 96.5836 163.991 96.3578C164.372 96.2231 164.752 96.0883 165.145 95.9495C165.48 95.8301 165.815 95.7108 166.16 95.5879C167 95.3333 167 95.3333 168 95.3333C167.775 97.5368 167.316 99.6374 166.792 101.788C166.704 102.152 166.617 102.516 166.526 102.892C166.241 104.074 165.954 105.256 165.667 106.438C165.469 107.255 165.271 108.073 165.074 108.891C163.866 113.873 162.624 118.845 161.324 123.804C160.479 127.036 159.71 130.281 159.038 133.554C158.263 137.13 156.894 140.018 154 142.333C153.141 142.884 152.291 143.316 151.333 143.667C150.877 143.837 150.877 143.837 150.412 144.012C148.444 144.563 146.386 144.42 144.36 144.409C143.89 144.409 143.42 144.409 142.95 144.409C141.679 144.41 140.409 144.406 139.138 144.401C137.809 144.397 136.479 144.396 135.149 144.396C132.633 144.394 130.118 144.388 127.602 144.381C124.737 144.374 121.872 144.37 119.007 144.367C113.116 144.36 107.225 144.348 101.333 144.333C101.534 143.287 101.756 142.349 102.177 141.37C102.281 141.127 102.385 140.883 102.492 140.632C102.661 140.243 102.661 140.243 102.833 139.845C102.951 139.571 103.068 139.297 103.189 139.014C103.569 138.127 103.951 137.241 104.333 136.354C104.852 135.146 105.369 133.938 105.886 132.729C106.012 132.434 106.139 132.138 106.269 131.834C107.386 129.222 108.468 126.597 109.525 123.96C110.301 122.032 110.301 122.032 110.667 121.667C111.126 121.631 111.587 121.618 112.048 121.614C112.346 121.611 112.644 121.607 112.951 121.604C113.28 121.602 113.609 121.6 113.948 121.598C114.465 121.593 114.465 121.593 114.993 121.588C116.138 121.578 117.283 121.569 118.429 121.561C119.22 121.554 120.012 121.547 120.804 121.54C122.892 121.522 124.98 121.505 127.069 121.489C129.198 121.473 131.327 121.454 133.457 121.436C137.638 121.4 141.819 121.366 146 121.333C146.269 120.531 146.537 119.728 146.805 118.925C146.919 118.586 146.919 118.586 147.034 118.24C147.532 116.75 148.007 115.26 148.438 113.75C148.546 113.374 148.655 112.997 148.767 112.609C149.04 111.667 149.04 111.667 149 110.667C148.739 110.665 148.477 110.663 148.208 110.661C145.737 110.641 143.265 110.617 140.794 110.588C139.523 110.573 138.253 110.56 136.983 110.551C135.755 110.542 134.527 110.529 133.3 110.512C132.833 110.507 132.366 110.503 131.9 110.501C126.278 110.473 126.278 110.473 124.497 108.885C123.071 107.289 122.572 105.899 122.593 103.778C122.733 102.301 123.248 100.937 123.729 99.5417C123.947 98.8857 124.163 98.2295 124.379 97.5729C124.486 97.2494 124.593 96.9258 124.702 96.5925C125.116 95.3071 125.481 94.0115 125.833 92.7083C127.068 88.1756 128.305 83.6312 129.833 79.1875C130.693 76.6759 131.385 74.1238 132.089 71.5647C132.837 68.8669 133.66 66.2009 134.529 63.5401C135.085 61.8282 135.562 60.1255 135.979 58.375C136.458 56.5163 137.13 54.8585 137.979 53.1458C138.087 52.9274 138.195 52.709 138.307 52.4839C139.585 50.0205 141.012 48.2959 143.667 47.3333C146.387 46.7117 149.067 46.5675 151.848 46.5698Z" fill="white"/>
<path d="M362.27 46.5645C362.594 46.5618 362.918 46.559 363.251 46.5561C364.319 46.5481 365.387 46.5452 366.454 46.543C367.199 46.54 367.944 46.5369 368.689 46.5339C370.249 46.5284 371.81 46.5258 373.37 46.5248C375.365 46.523 377.36 46.5105 379.355 46.4952C380.893 46.4853 382.432 46.4829 383.97 46.4826C384.705 46.4812 385.44 46.477 386.176 46.4701C387.206 46.4611 388.237 46.4627 389.267 46.4669C389.568 46.4619 389.869 46.457 390.179 46.4519C392.335 46.4766 393.932 47.0317 395.667 48.3333C396.666 49.4368 396.981 50.4954 397.146 51.9792C397.084 53.1652 396.708 54.1259 396.279 55.2306C395.763 56.6534 395.405 58.1207 395.021 59.5833C393.978 63.4888 393.978 63.4888 393.333 65.3333C392.683 67.1977 392.177 69.0938 391.667 71C391.072 73.218 390.456 75.4073 389.685 77.5716C389.379 78.5241 389.123 79.4696 388.878 80.4388C388.795 80.757 388.712 81.0751 388.626 81.4029C388.461 82.0412 388.303 82.6812 388.152 83.323C388.075 83.616 387.999 83.909 387.919 84.2109C387.854 84.4753 387.79 84.7396 387.723 85.0119C387.333 85.6667 387.333 85.6667 386.422 86.0656C385.395 86.3181 384.375 86.5473 383.336 86.7396C382.963 86.8096 382.591 86.8797 382.207 86.9518C381.822 87.0227 381.438 87.0936 381.042 87.1667C378.077 87.7036 378.077 87.7036 375.143 88.3854C374 88.6667 374 88.6667 372.667 88.6667C373.02 86.4131 373.568 84.2157 374.104 82C374.252 81.3806 374.252 81.3806 374.403 80.7487C374.997 78.2891 375.649 75.8552 376.355 73.4255C376.801 71.8618 377.196 70.2874 377.583 68.7083C377.831 67.7046 378.078 66.7008 378.333 65.6667C374.153 65.7767 369.973 65.8867 365.667 66C365.364 67.1275 365.062 68.255 364.75 69.4167C363.663 73.4342 363.663 73.4342 363 75.3333C362.35 77.1977 361.844 79.0938 361.333 81C360.724 83.2754 360.08 85.5194 359.309 87.7461C358.829 89.1767 358.429 90.6285 358.021 92.0807C357.641 93.4246 357.249 94.7647 356.854 96.1042C356.748 96.4629 356.748 96.4629 356.641 96.8289C356.497 97.3146 356.354 97.8002 356.211 98.2858C355.19 101.744 354.176 105.205 353.167 108.667C352.967 109.349 352.768 110.032 352.569 110.715C352.213 111.936 351.858 113.157 351.504 114.379C351.357 114.885 351.21 115.39 351.063 115.896C350.998 116.121 350.933 116.347 350.866 116.579C350.525 117.748 350.141 118.878 349.667 120C350.094 119.911 350.521 119.823 350.961 119.732C353.953 119.118 356.93 118.546 359.958 118.146C361.271 117.962 362.567 117.716 363.866 117.456C364.7 117.328 365.49 117.312 366.333 117.333C365.608 120.943 364.694 124.447 363.595 127.961C362.706 130.819 361.921 133.699 361.162 136.594C360.687 138.395 360.183 140.182 359.632 141.961C359.454 142.537 359.454 142.537 359.272 143.124C359.182 143.413 359.092 143.702 359 144C356.015 144.031 353.031 144.055 350.046 144.069C348.66 144.076 347.273 144.085 345.887 144.101C344.547 144.115 343.207 144.123 341.867 144.127C341.358 144.129 340.849 144.134 340.34 144.141C336.591 144.192 333.337 143.9 330.488 141.232C328.279 138.675 327.888 135.443 327.912 132.189C328.058 130.21 328.657 128.432 329.292 126.563C329.498 125.929 329.704 125.295 329.909 124.661C330.124 123.998 330.342 123.336 330.561 122.675C331.217 120.68 331.836 118.674 332.459 116.669C332.736 115.776 333.016 114.884 333.295 113.991C334.18 111.162 335.059 108.331 335.938 105.5C336.063 105.094 336.189 104.689 336.319 104.271C337.055 101.901 337.055 101.901 337.785 99.5286C338.517 97.156 339.289 94.8011 340.082 92.4483C341.247 88.9937 342.351 85.5397 343.324 82.0265C343.873 80.0596 344.528 78.1544 345.24 76.2396C345.778 74.6759 346.223 73.0928 346.667 71.5C347.322 69.148 348.056 66.86 348.908 64.5703C349.441 63.0215 349.875 61.4531 350.313 59.875C353.072 50.0291 353.072 50.0291 356.167 47.7083C358.262 46.7655 360.002 46.5662 362.27 46.5645Z" fill="white"/>
<path d="M307.049 68.9463C307.472 68.9431 307.895 68.9399 308.331 68.9366C308.794 68.935 309.257 68.9335 309.72 68.9323C310.196 68.9304 310.673 68.9284 311.149 68.9265C312.149 68.923 313.149 68.9211 314.149 68.9199C315.423 68.9181 316.696 68.9101 317.97 68.9006C318.955 68.8943 319.94 68.8926 320.925 68.8921C321.394 68.8911 321.863 68.8885 322.332 68.8841C328.552 68.8298 328.552 68.8298 330.979 70.7917C332.654 72.923 333.064 74.5019 332.794 77.2198C332.293 80.2922 331.068 83.2618 330.042 86.1875C329.78 86.9489 329.518 87.7105 329.257 88.4722C328.744 89.9686 328.227 91.4637 327.707 92.9577C327.102 94.6977 326.516 96.4429 325.94 98.1927C325.79 98.6435 325.641 99.0942 325.491 99.5448C325.228 100.335 324.968 101.125 324.711 101.917C323.922 104.246 323.182 105.937 321.021 107.271C320.004 107.665 319.08 107.871 318 108C318.316 108.247 318.632 108.495 318.958 108.75C320.225 109.822 320.608 110.462 320.792 112.146C320.759 113.388 320.461 114.453 320.086 115.635C319.964 116.02 319.843 116.404 319.718 116.799C319.528 117.394 319.528 117.394 319.333 118C319.156 118.558 319.156 118.558 318.976 119.127C318.598 120.315 318.216 121.501 317.833 122.687C317.764 122.903 317.694 123.119 317.622 123.342C315.94 128.554 314.205 133.748 312.465 138.942C311.864 140.738 311.266 142.536 310.667 144.333C305.607 144.333 300.547 144.333 295.333 144.333C296.463 139.814 296.463 139.814 297.292 137.604C297.968 135.744 298.584 133.883 299.125 131.979C299.794 129.629 300.551 127.315 301.333 125C302.413 121.798 303.413 118.584 304.333 115.333C304.465 114.932 304.596 114.53 304.732 114.116C305.104 112.912 305.104 112.912 304.667 111.333C302.577 111.223 300.487 111.113 298.333 111C298.197 111.467 298.062 111.934 297.922 112.415C297.32 114.42 296.625 116.386 295.918 118.355C295.782 118.736 295.646 119.116 295.506 119.508C295.067 120.735 294.627 121.961 294.187 123.187C293.961 123.819 293.735 124.45 293.509 125.081C292.564 127.721 291.615 130.361 290.667 133C290.487 133.499 290.487 133.499 290.304 134.008C289.712 135.655 289.119 137.301 288.524 138.947C288.356 139.411 288.188 139.875 288.021 140.339C287.795 140.966 287.567 141.592 287.34 142.217C287.216 142.558 287.093 142.898 286.966 143.249C286.667 144 286.667 144 286.333 144.333C285.873 144.364 285.411 144.372 284.949 144.371C284.655 144.371 284.362 144.371 284.059 144.371C283.74 144.369 283.421 144.368 283.092 144.366C282.767 144.365 282.442 144.365 282.107 144.364C281.064 144.363 280.022 144.358 278.979 144.354C278.274 144.352 277.569 144.351 276.864 144.35C275.131 144.346 273.399 144.34 271.667 144.333C271.868 142.496 272.323 140.875 272.932 139.134C273.031 138.846 273.13 138.558 273.232 138.261C273.452 137.62 273.672 136.981 273.894 136.341C274.533 134.496 275.164 132.648 275.797 130.801C275.939 130.385 276.082 129.969 276.229 129.541C278.023 124.307 279.785 119.063 281.55 113.819C282.288 111.627 283.027 109.436 283.767 107.244C284.182 106.015 284.597 104.786 285.012 103.557C285.163 103.108 285.163 103.108 285.318 102.649C286.461 99.2627 287.599 95.8754 288.728 92.4847C289.249 90.9216 289.772 89.3594 290.296 87.7974C290.525 87.1102 290.753 86.4226 290.98 85.7345C293.097 79.3079 296.101 73.2648 302.437 70.0417C304.04 69.2818 305.268 68.9572 307.049 68.9463Z" fill="white"/>
<path d="M394.667 75.6667C398.737 75.6667 402.807 75.6667 407 75.6667C406.625 77.9166 406.625 77.9166 406.224 78.9314C406.134 79.1612 406.044 79.3911 405.952 79.6279C405.854 79.8731 405.756 80.1184 405.655 80.3711C405.551 80.6348 405.448 80.8986 405.341 81.1703C405 82.0379 404.656 82.9043 404.313 83.7708C404.074 84.3749 403.837 84.9791 403.599 85.5834C403.101 86.8492 402.602 88.1146 402.103 89.3799C401.331 91.3355 400.567 93.2937 399.805 95.2526C399.621 95.7247 399.621 95.7247 399.433 96.2063C398.956 97.4336 398.478 98.6609 398 99.8882C397.671 100.734 397.342 101.58 397.012 102.426C396.914 102.678 396.816 102.93 396.715 103.19C396.038 104.924 396.038 104.924 395.667 105.667C398.087 105.667 400.507 105.667 403 105.667C403.139 105.141 403.278 104.615 403.422 104.074C403.967 102.077 404.596 100.116 405.253 98.1536C405.369 97.8045 405.485 97.4553 405.605 97.0956C405.848 96.3655 406.092 95.6355 406.336 94.9058C406.711 93.7836 407.084 92.6607 407.457 91.5378C407.694 90.8263 407.932 90.115 408.169 89.4036C408.281 89.0669 408.393 88.7301 408.508 88.3832C408.663 87.9205 408.663 87.9205 408.822 87.4484C408.913 87.176 409.004 86.9035 409.098 86.6228C409.333 86 409.333 86 409.667 85.6667C410.168 85.6356 410.671 85.6275 411.173 85.6288C411.654 85.6289 411.654 85.6289 412.144 85.6289C412.666 85.6315 412.666 85.6315 413.199 85.6341C413.554 85.6346 413.909 85.6351 414.274 85.6355C415.412 85.6374 416.55 85.6416 417.688 85.6458C418.457 85.6475 419.226 85.649 419.995 85.6504C421.886 85.6541 423.776 85.6597 425.667 85.6667C425.018 87.8779 424.323 90.0679 423.578 92.2487C423.423 92.7043 423.423 92.7043 423.265 93.1692C422.928 94.1616 422.589 95.1537 422.25 96.1458C422.132 96.4911 422.015 96.8364 421.893 97.1921C420.041 102.624 418.164 108.047 416.268 113.464C414.193 119.394 412.139 125.332 410.086 131.269C409.736 132.282 409.385 133.295 409.034 134.308C408.546 135.718 408.059 137.13 407.574 138.541C407.33 139.248 407.086 139.955 406.842 140.661C406.729 140.993 406.616 141.324 406.499 141.665C406.394 141.967 406.29 142.269 406.182 142.58C406.09 142.847 405.999 143.114 405.904 143.389C405.667 144 405.667 144 405.333 144.333C404.842 144.364 404.349 144.372 403.857 144.371C403.544 144.371 403.23 144.371 402.907 144.371C402.566 144.369 402.225 144.368 401.874 144.366C401.353 144.365 401.353 144.365 400.821 144.364C399.707 144.363 398.593 144.358 397.479 144.354C396.726 144.352 395.973 144.351 395.219 144.35C393.368 144.346 391.518 144.34 389.667 144.333C389.871 142.281 390.469 140.466 391.155 138.527C391.271 138.193 391.388 137.858 391.508 137.514C391.885 136.432 392.265 135.351 392.646 134.271C392.905 133.531 393.163 132.791 393.422 132.051C395.257 126.803 397.112 121.562 399 116.333C396.58 116.333 394.16 116.333 391.667 116.333C391.557 116.993 391.447 117.653 391.333 118.333C391.138 118.949 390.925 119.56 390.698 120.165C390.563 120.53 390.427 120.895 390.288 121.271C390.138 121.669 389.988 122.068 389.833 122.479C389.503 123.365 389.175 124.252 388.846 125.138C388.712 125.501 388.712 125.501 388.574 125.872C387.761 128.065 386.967 130.265 386.174 132.466C386.047 132.821 385.919 133.176 385.787 133.542C385.27 134.977 384.753 136.413 384.238 137.849C383.874 138.864 383.509 139.878 383.143 140.892C383.033 141.201 382.922 141.51 382.808 141.829C382.706 142.111 382.605 142.392 382.5 142.683C382.411 142.93 382.322 143.178 382.231 143.432C382 144 382 144 381.667 144.333C381.053 144.365 380.438 144.372 379.823 144.371C379.43 144.371 379.036 144.371 378.63 144.371C378.202 144.369 377.773 144.368 377.332 144.366C376.678 144.365 376.678 144.365 376.011 144.364C374.849 144.363 373.688 144.36 372.527 144.356C371.343 144.353 370.159 144.351 368.975 144.35C366.65 144.346 364.325 144.34 362 144.333C362.656 142.012 363.441 139.777 364.339 137.539C364.47 137.21 364.601 136.881 364.736 136.542C365.167 135.458 365.6 134.375 366.034 133.292C366.34 132.523 366.647 131.754 366.953 130.985C367.597 129.369 368.242 127.753 368.888 126.137C369.698 124.111 370.506 122.084 371.314 120.057C374.396 112.323 377.489 104.593 380.612 96.875C380.733 96.5745 380.855 96.274 380.98 95.9644C381.316 95.1332 381.653 94.3023 381.99 93.4714C382.089 93.2279 382.187 92.9844 382.289 92.7336C382.961 91.0776 382.961 91.0776 383.333 90.3333C384.014 90.1353 384.014 90.1353 384.897 89.9766C385.212 89.9186 385.527 89.8605 385.851 89.8008C386.182 89.7428 386.513 89.6848 386.854 89.625C387.187 89.5644 387.519 89.5038 387.861 89.4414C388.685 89.2917 389.509 89.1447 390.333 89C390.371 88.6658 390.409 88.3317 390.449 87.9874C390.638 86.669 391.034 85.4496 391.49 84.2018C391.57 83.9773 391.65 83.7529 391.732 83.5216C391.986 82.8122 392.243 82.1041 392.5 81.3958C392.673 80.9143 392.845 80.4328 393.017 79.9512C394.267 76.4663 394.267 76.4663 394.667 75.6667Z" fill="white"/>
<path d="M188.667 75.6667C191.967 75.6667 195.267 75.6667 198.667 75.6667C197.542 79.7888 197.542 79.7888 196.887 81.7995C196.783 82.1203 196.783 82.1203 196.676 82.4476C196.459 83.1181 196.24 83.7883 196.021 84.4583C195.733 85.3427 195.445 86.2273 195.158 87.112C195.087 87.3281 195.017 87.5443 194.945 87.767C194.382 89.5035 193.842 91.2464 193.309 92.992C192.835 94.5397 192.345 96.0826 191.854 97.625C191.704 98.0977 191.704 98.0977 191.55 98.58C190.858 100.752 190.146 102.916 189.413 105.074C189.061 106.146 188.726 107.221 188.397 108.3C187.696 110.582 186.969 112.855 186.236 115.126C185.968 115.957 185.701 116.787 185.433 117.618C185.016 118.91 184.599 120.203 184.182 121.496C183.776 122.754 183.37 124.013 182.965 125.272C182.84 125.66 182.714 126.048 182.585 126.447C182.469 126.807 182.353 127.167 182.234 127.537C182.132 127.853 182.031 128.168 181.926 128.493C181.703 129.214 181.507 129.933 181.333 130.667C182.133 130.647 182.93 130.618 183.729 130.583C183.954 130.579 184.178 130.574 184.41 130.569C185.5 130.516 186.284 130.36 187.246 129.839C189.26 127.598 189.962 124.249 190.887 121.442C191.038 120.989 191.188 120.536 191.339 120.083C191.662 119.113 191.983 118.144 192.304 117.174C192.811 115.641 193.32 114.109 193.829 112.578C194.817 109.606 195.802 106.634 196.788 103.662C198.045 99.8693 199.304 96.0768 200.564 92.2849C201.071 90.7607 201.576 89.2362 202.081 87.7115C202.394 86.7665 202.708 85.8219 203.022 84.8773C203.168 84.4379 203.313 83.9983 203.458 83.5586C203.656 82.9609 203.855 82.3635 204.053 81.7662C204.164 81.4312 204.276 81.0962 204.39 80.751C204.667 80 204.667 80 205 79.6667C205.45 79.6358 205.902 79.6275 206.354 79.6288C206.641 79.6288 206.927 79.6289 207.223 79.6289C207.535 79.6306 207.847 79.6323 208.168 79.6341C208.486 79.6346 208.803 79.6351 209.131 79.6355C210.15 79.6374 211.169 79.6416 212.188 79.6458C212.877 79.6475 213.566 79.649 214.255 79.6504C215.948 79.6541 217.64 79.6598 219.333 79.6667C218.209 84.9914 216.303 90.1244 214.576 95.2772C212.307 102.049 210.064 108.828 207.864 115.623C207.689 116.163 207.514 116.704 207.339 117.245C207.213 117.633 207.213 117.633 207.085 118.029C206.496 119.844 205.893 121.654 205.286 123.464C204.741 125.09 204.209 126.717 203.714 128.359C202.525 132.272 201.182 136.137 199.882 140.013C198.1 145.328 196.361 150.656 194.667 156C194.447 156 194.227 156 194 156C193.542 155.497 193.109 154.972 192.688 154.437C192.419 154.102 192.15 153.766 191.874 153.421C191.66 153.153 191.66 153.153 191.441 152.879C190.712 151.977 189.96 151.093 189.208 150.208C189.057 150.03 188.907 149.852 188.751 149.668C187.934 148.703 187.112 147.742 186.285 146.785C186.115 146.587 185.946 146.39 185.771 146.186C185.443 145.805 185.114 145.425 184.784 145.046C183.667 143.742 183.667 143.742 183.667 143C183.456 143.04 183.245 143.081 183.028 143.122C170.428 145.492 170.428 145.492 165.188 142.729C164.001 141.716 163.478 140.856 163.216 139.306C163.075 137.073 163.764 135.172 164.505 133.098C165.061 131.529 165.511 129.936 165.958 128.333C166.935 124.863 167.979 121.415 169.036 117.969C169.527 116.369 170.013 114.768 170.5 113.167C170.694 112.528 170.889 111.889 171.083 111.25C171.18 110.934 171.276 110.617 171.375 110.292C174.583 99.75 174.583 99.75 174.875 98.7904C175.069 98.1558 175.262 97.5213 175.455 96.8867C175.961 95.2229 176.468 93.5592 176.975 91.8958C177.081 91.5506 177.186 91.2053 177.294 90.8496C177.495 90.1911 177.696 89.5327 177.897 88.8743C177.988 88.5755 178.079 88.2767 178.173 87.9687C178.307 87.5466 178.307 87.5466 178.444 87.116C178.708 86.2567 178.708 86.2567 178.849 85.0299C179.425 83.8043 179.671 83.7488 180.895 83.2825C181.855 82.9696 182.821 82.6851 183.79 82.4017C185.479 81.9075 185.479 81.9075 186.729 80.7603C186.979 80.0782 187.155 79.3708 187.333 78.6667C187.773 77.6767 188.213 76.6867 188.667 75.6667Z" fill="white"/>
<path d="M509.666 67.1934C510.203 67.1891 510.203 67.1891 510.751 67.1848C511.93 67.177 513.108 67.1767 514.286 67.1771C515.11 67.1747 515.934 67.1722 516.757 67.1694C518.482 67.1649 520.207 67.1644 521.932 67.1663C524.135 67.1683 526.337 67.1581 528.54 67.1446C530.241 67.136 531.942 67.1351 533.643 67.1363C534.454 67.1357 535.266 67.1325 536.078 67.1266C545.236 67.0668 545.236 67.0668 548.095 69.7024C549.98 71.7021 550.126 73.3479 550.104 76.048C549.936 78.1247 549.258 79.9268 548.5 81.8542C548.188 82.6688 547.876 83.4835 547.565 84.2982C547.333 84.8961 547.333 84.8961 547.097 85.506C546.701 86.5739 546.36 87.6408 546.039 88.7331C545.94 89.0476 545.841 89.3621 545.739 89.6861C545.56 90.2586 545.395 90.8358 545.248 91.4174C544.687 93.1066 543.88 93.8505 542.303 94.6848C541.356 95.1465 540.398 95.578 539.432 95.9981C538.665 96.334 537.907 96.6847 537.149 97.0413C535.875 97.6405 534.597 98.2293 533.316 98.8132C532.525 99.1741 531.735 99.5375 530.945 99.901C530.44 100.132 529.935 100.363 529.43 100.594C529.195 100.702 528.959 100.81 528.717 100.922C527.076 101.667 527.076 101.667 526.333 101.667C527.532 106.066 528.757 110.441 530.246 114.753C531.578 118.705 531.578 118.705 531 120C528.791 121.321 526.116 121.778 523.584 122.046C523.328 122.073 523.071 122.101 522.807 122.13C519.748 122.43 516.694 122.406 513.625 122.375C513.042 122.372 512.459 122.369 511.876 122.366C510.473 122.359 509.07 122.347 507.667 122.333C507.623 122.515 507.58 122.697 507.535 122.884C506.643 126.376 505.386 129.751 504.187 133.146C503.851 134.102 503.515 135.059 503.179 136.016C502.971 136.607 502.763 137.198 502.554 137.789C501.789 139.963 501.062 142.146 500.333 144.333C497.143 144.333 493.953 144.333 490.667 144.333C491.085 142.451 491.439 140.916 492.104 139.167C492.752 137.404 493.318 135.639 493.833 133.833C494.444 131.697 495.151 129.618 495.917 127.531C496.38 126.199 496.778 124.856 497.167 123.5C497.778 121.364 498.484 119.284 499.25 117.198C499.713 115.865 500.112 114.523 500.5 113.167C501 111.42 501.54 109.707 502.167 108C502.734 106.453 503.232 104.906 503.682 103.322C504.858 99.2557 506.179 95.2339 507.48 91.2066C507.848 90.0671 508.215 88.9272 508.582 87.7871C508.866 86.9031 509.151 86.0193 509.436 85.1355C509.637 84.5111 509.838 83.8866 510.039 83.262C510.161 82.8866 510.282 82.5112 510.407 82.1244C510.514 81.7936 510.621 81.4628 510.731 81.122C511 80.3333 511 80.3333 511.333 79.6667C506.713 79.6667 502.093 79.6667 497.333 79.6667C498.168 72.1551 498.168 72.1551 501.014 69.7604C503.824 67.7876 506.287 67.1835 509.666 67.1934Z" fill="white"/>
<path d="M223.791 94.6077C224.166 94.6044 224.166 94.6044 224.547 94.601C225.373 94.5945 226.199 94.5906 227.025 94.5872C227.308 94.5859 227.59 94.5845 227.881 94.5831C229.378 94.5762 230.874 94.5714 232.371 94.5683C233.913 94.5646 235.455 94.5531 236.996 94.5399C238.185 94.5312 239.374 94.5284 240.563 94.5272C241.131 94.5256 241.699 94.5217 242.267 94.5155C248.363 94.4531 248.363 94.4531 250.511 96.4825C252.065 98.1994 252.1 99.7868 252.076 102.009C251.953 103.622 251.479 105.064 250.956 106.587C250.845 106.924 250.733 107.262 250.619 107.61C250.254 108.715 249.88 109.818 249.507 110.921C249.249 111.694 248.991 112.467 248.734 113.24C248.195 114.856 247.653 116.47 247.107 118.084C246.41 120.147 245.721 122.214 245.034 124.281C244.503 125.876 243.969 127.47 243.434 129.063C243.178 129.825 242.924 130.586 242.67 131.348C242.315 132.414 241.955 133.479 241.594 134.543C241.491 134.854 241.387 135.166 241.281 135.488C240.301 138.346 239.125 140.884 236.353 142.34C230.319 145.066 223.101 144.541 216.667 144.667C214.687 150.112 214.687 150.112 212.667 155.667C207.937 155.667 203.207 155.667 198.333 155.667C199.458 151.542 199.458 151.542 200.067 149.728C200.203 149.321 200.339 148.915 200.479 148.495C200.626 148.061 200.772 147.627 200.918 147.193C201.073 146.73 201.228 146.266 201.383 145.803C201.79 144.586 202.199 143.369 202.607 142.152C203.33 139.999 204.052 137.846 204.772 135.693C204.852 135.456 204.931 135.219 205.013 134.975C206.235 131.322 207.429 127.661 208.606 123.993C209.965 119.763 211.361 115.546 212.771 111.333C213.111 110.316 213.451 109.298 213.791 108.281C214.008 107.631 214.225 106.981 214.444 106.332C214.911 104.94 215.374 103.547 215.817 102.147C215.89 101.919 215.963 101.69 216.039 101.455C216.226 100.866 216.411 100.276 216.595 99.6862C217.417 97.6173 218.587 96.3006 220.333 95C221.507 94.6088 222.57 94.6123 223.791 94.6077Z" fill="white"/>
<path d="M499.5 84.9167C500.002 84.9234 500.503 84.9294 501.005 84.9349C502.226 84.9495 503.446 84.9724 504.667 85C503.845 87.8335 502.917 90.6305 501.983 93.4284C501.818 93.9242 501.653 94.4201 501.488 94.9159C501.049 96.2342 500.609 97.5522 500.169 98.8702C499.894 99.6919 499.62 100.514 499.346 101.336C497.235 107.666 495.117 113.993 492.946 120.303C491.744 123.799 490.563 127.301 489.397 130.81C489.19 131.434 489.19 131.434 488.978 132.07C488.292 134.135 487.607 136.201 486.925 138.268C486.677 139.015 486.429 139.763 486.181 140.51C486.066 140.859 485.952 141.208 485.833 141.567C485.728 141.883 485.623 142.2 485.515 142.527C485.423 142.805 485.331 143.082 485.236 143.369C485 144 485 144 484.667 144.333C483.754 144.363 482.849 144.372 481.936 144.366C481.663 144.365 481.39 144.365 481.108 144.364C480.232 144.363 479.355 144.358 478.479 144.354C477.887 144.352 477.294 144.351 476.701 144.35C475.245 144.346 473.789 144.34 472.333 144.333C472.735 142.359 473.246 140.468 473.91 138.566C473.999 138.307 474.089 138.047 474.18 137.78C474.473 136.929 474.768 136.079 475.063 135.229C475.268 134.633 475.473 134.036 475.679 133.44C476.113 132.178 476.547 130.916 476.983 129.654C478.037 126.595 479.079 123.531 480.122 120.468C480.66 118.888 481.198 117.308 481.737 115.728C482.047 114.819 482.357 113.909 482.667 113C481.764 113.889 480.878 114.766 480.091 115.759C479.935 115.955 479.779 116.151 479.618 116.354C479.455 116.56 479.293 116.766 479.125 116.979C478.951 117.198 478.778 117.417 478.599 117.642C478.065 118.316 477.532 118.991 477 119.667C476.841 119.869 476.681 120.071 476.517 120.279C475.109 122.065 473.705 123.853 472.313 125.651C472.145 125.866 471.978 126.082 471.805 126.303C471.483 126.718 471.162 127.133 470.842 127.549C469.742 128.962 469.742 128.962 469 129.333C468.689 126.039 468.562 122.752 468.465 119.445C468.446 118.858 468.446 118.858 468.427 118.259C468.417 117.913 468.407 117.566 468.396 117.21C468.311 115.58 468.157 113.958 468 112.333C464.017 124.476 464.017 124.476 460.062 136.627C459.911 137.094 459.76 137.56 459.608 138.026C459.402 138.663 459.196 139.3 458.99 139.938C458.878 140.283 458.766 140.629 458.65 140.986C458.303 142.096 457.986 143.215 457.667 144.333C453.157 144.333 448.647 144.333 444 144.333C444.218 142.806 444.389 141.666 444.861 140.259C444.97 139.932 445.078 139.604 445.19 139.267C445.369 138.738 445.369 138.738 445.552 138.199C445.678 137.822 445.803 137.444 445.933 137.056C446.278 136.022 446.625 134.989 446.973 133.956C447.342 132.859 447.709 131.761 448.076 130.663C448.776 128.568 449.478 126.475 450.18 124.382C451.495 120.467 452.805 116.551 454.115 112.634C454.416 111.737 454.716 110.84 455.017 109.942C457.488 102.56 459.921 95.1667 462.313 87.7587C462.539 87.0604 462.768 86.363 463 85.6667C471.905 84.5177 471.905 84.5177 474.53 86.4727C475.986 88.1067 476.184 89.5345 476.305 91.6406C476.335 92.0703 476.335 92.0703 476.365 92.5087C476.428 93.4223 476.485 94.3361 476.542 95.25C476.602 96.1591 476.663 97.068 476.725 97.977C476.763 98.5412 476.8 99.1056 476.835 99.67C476.95 101.454 477.125 103.224 477.333 105C477.524 104.733 477.714 104.465 477.91 104.19C480.26 100.894 482.622 97.6087 485 94.3333C485.308 93.9084 485.308 93.9084 485.622 93.4749C486.246 92.614 486.873 91.7547 487.5 90.8958C487.692 90.6311 487.883 90.3663 488.081 90.0935C491.423 85.5342 494.037 84.7896 499.5 84.9167Z" fill="white"/>
<path d="M447.044 95.2716C447.775 95.2708 448.506 95.2647 449.238 95.2585C449.706 95.2575 450.174 95.2568 450.642 95.2565C451.273 95.2545 451.273 95.2545 451.917 95.2524C452.946 95.3293 453.497 95.4168 454.333 96C455.128 97.1924 455.186 97.9584 455 99.3333C454.662 100.659 454.223 101.944 453.779 103.237C453.651 103.618 453.523 104 453.391 104.393C453.044 105.424 452.694 106.454 452.343 107.484C451.977 108.561 451.614 109.639 451.251 110.717C450.395 113.258 449.531 115.796 448.667 118.333C448.435 119.013 448.204 119.692 447.973 120.371C447.194 122.658 446.414 124.945 445.629 127.231C444.685 129.981 443.752 132.734 442.836 135.493C442.742 135.777 442.648 136.06 442.551 136.352C442.104 137.701 441.658 139.05 441.214 140.401C441.057 140.875 440.9 141.349 440.743 141.823C440.607 142.237 440.471 142.651 440.331 143.077C440 144 440 144 439.667 144.333C438.778 144.363 437.898 144.372 437.009 144.366C436.743 144.365 436.477 144.365 436.203 144.364C435.351 144.363 434.498 144.358 433.646 144.354C433.069 144.352 432.493 144.351 431.916 144.35C430.5 144.346 429.083 144.34 427.667 144.333C428.428 141.71 429.332 139.209 430.333 136.667C427.033 136.832 427.033 136.832 423.667 137C422.677 139.42 421.687 141.84 420.667 144.333C416.817 144.333 412.967 144.333 409 144.333C409.75 140.958 409.75 140.958 410.291 139.454C410.412 139.115 410.532 138.777 410.656 138.428C410.786 138.07 410.916 137.713 411.049 137.344C411.254 136.773 411.254 136.773 411.462 136.19C411.828 135.17 412.196 134.15 412.564 133.13C412.946 132.073 413.326 131.016 413.706 129.958C414.16 128.696 414.615 127.434 415.07 126.172C415.911 123.843 416.745 121.512 417.57 119.177C420.743 110.226 423.925 102.069 433.007 97.6242C437.56 95.6164 442.133 95.271 447.044 95.2716Z" fill="white"/>
<path d="M269.163 79.6288C269.381 79.6288 269.599 79.6287 269.824 79.6287C270.544 79.6289 271.263 79.6315 271.983 79.6341C272.482 79.6347 272.981 79.6352 273.481 79.6355C274.794 79.6368 276.108 79.6401 277.421 79.6438C278.762 79.6472 280.103 79.6487 281.443 79.6504C284.073 79.654 286.703 79.6597 289.333 79.6667C288.818 81.2212 288.302 82.7756 287.785 84.3298C287.609 84.8587 287.434 85.3876 287.258 85.9167C287.006 86.6764 286.754 87.4359 286.501 88.1953C286.423 88.4325 286.344 88.6697 286.263 88.914C285.704 90.5908 285.704 90.5908 285.333 91.3333C285.031 91.3364 284.728 91.3396 284.416 91.3428C283.287 91.3575 282.158 91.3781 281.028 91.4025C280.541 91.4119 280.053 91.419 279.566 91.4237C278.862 91.4309 278.159 91.4464 277.456 91.4635C277.033 91.4705 276.611 91.4775 276.175 91.4847C274.793 91.6986 274.073 92.1146 273 93C272.546 93.5966 272.546 93.5966 272.307 94.2799C272.203 94.542 272.1 94.8041 271.993 95.0741C271.318 96.9892 270.692 98.9171 270.083 100.854C269.382 103.071 269.382 103.071 268.667 105.333C272.517 105.333 276.367 105.333 280.333 105.333C279.589 107.812 278.81 110.247 277.958 112.687C277.838 113.035 277.718 113.383 277.595 113.742C277.48 114.071 277.365 114.401 277.247 114.741C277.092 115.188 277.092 115.188 276.933 115.645C276.667 116.333 276.667 116.333 276.333 116.667C275.444 116.696 274.564 116.705 273.676 116.699C273.41 116.699 273.144 116.698 272.87 116.698C272.017 116.696 271.165 116.692 270.312 116.687C269.736 116.686 269.159 116.684 268.583 116.683C267.166 116.679 265.75 116.673 264.333 116.667C264.273 116.953 264.273 116.953 264.211 117.245C263.872 118.814 263.486 120.344 263 121.875C262.885 122.245 262.77 122.615 262.651 122.996C262.471 123.566 262.288 124.135 262.099 124.702C261.528 126.485 261.348 128.156 262.021 129.938C263.333 131.419 264.932 131.719 266.832 131.837C267.492 131.861 268.152 131.881 268.812 131.896C269.152 131.907 269.491 131.919 269.84 131.93C270.671 131.958 271.502 131.981 272.333 132C271.506 134.611 270.497 137.133 269.458 139.667C269.289 140.084 269.12 140.501 268.95 140.918C267.709 143.957 267.709 143.957 267.333 144.333C266.853 144.375 266.372 144.394 265.89 144.403C265.583 144.409 265.275 144.416 264.959 144.422C263.536 144.442 262.114 144.458 260.692 144.468C259.945 144.475 259.199 144.487 258.453 144.503C250.26 144.673 250.26 144.673 247.333 142.333C245.297 140.247 244.561 138.177 244.585 135.286C244.734 133.55 245.318 131.969 245.888 130.332C246.016 129.952 246.144 129.573 246.275 129.181C246.621 128.158 246.971 127.136 247.323 126.115C247.692 125.041 248.055 123.965 248.419 122.89C249.142 120.754 249.872 118.62 250.604 116.487C251.158 114.871 251.709 113.255 252.26 111.639C252.813 110.019 253.366 108.4 253.924 106.782C255.027 103.578 256.095 100.364 257.143 97.1419C257.526 95.9716 257.909 94.8013 258.291 93.6311C258.539 92.8712 258.784 92.1108 259.028 91.3497C259.368 90.2867 259.715 89.226 260.062 88.1654C260.161 87.8507 260.26 87.536 260.362 87.2119C261.212 84.6495 262.482 82.4375 264.729 80.8542C264.947 80.6965 265.165 80.5388 265.389 80.3763C266.644 79.6028 267.724 79.6261 269.163 79.6288Z" fill="white"/>
<path d="M568 88.6667C568.11 88.8867 568.22 89.1067 568.333 89.3333C568.001 90.1645 567.647 90.9559 567.258 91.7604C567.143 92.0031 567.028 92.2458 566.91 92.4959C566.539 93.2762 566.166 94.0548 565.792 94.8333C565.547 95.348 565.303 95.8627 565.059 96.3776C564.588 97.3688 564.113 98.3576 563.634 99.3449C563.252 100.135 562.886 100.925 562.532 101.729C561.692 103.592 561.049 104.446 559.104 105.292C558.884 105.392 558.663 105.491 558.436 105.594C557.928 105.824 557.418 106.048 556.907 106.269C555.838 106.738 554.781 107.228 553.723 107.721C551.597 108.712 549.466 109.692 547.333 110.667C547.333 110.887 547.333 111.107 547.333 111.333C548.141 111.952 548.952 112.532 549.792 113.104C550.315 113.467 550.839 113.83 551.362 114.194C551.633 114.382 551.905 114.57 552.185 114.764C553.468 115.66 554.734 116.58 556 117.5C558.456 119.28 560.929 121.036 563.41 122.781C564.611 123.626 565.806 124.479 567 125.333C566.488 126.847 565.242 127.569 564 128.458C563.512 128.816 563.024 129.174 562.536 129.533C562.283 129.719 562.029 129.905 561.768 130.097C560.522 131.022 559.304 131.98 558.083 132.938C555.936 134.617 553.768 136.266 551.583 137.896C549.496 139.454 547.427 141.028 545.386 142.645C543.166 144.402 540.912 146.112 538.661 147.828C537.717 148.55 536.775 149.275 535.833 150C535.491 150.263 535.149 150.526 534.797 150.797C534.19 151.263 533.584 151.731 532.979 152.199C527.449 156.472 527.449 156.472 525 158C525.077 156.774 525.204 155.555 525.333 154.333C525.35 154.114 525.366 153.894 525.383 153.668C525.722 149.335 527.094 147.447 530.333 144.667C530.768 144.197 531.193 143.719 531.604 143.229C532.317 142.393 533.049 141.603 533.833 140.833C534.814 139.868 535.716 138.858 536.613 137.815C537.758 136.52 538.943 135.263 540.127 134.004C540.645 133.451 541.156 132.893 541.667 132.333C541.937 132.046 542.207 131.758 542.486 131.462C543.086 130.715 543.086 130.715 542.922 129.895C542.641 128.912 542.254 128.11 541.766 127.211C541.578 126.865 541.391 126.519 541.198 126.162C540.995 125.792 540.792 125.423 540.583 125.042C540.269 124.464 540.269 124.464 539.949 123.875C538.416 121.062 536.846 118.27 535.262 115.486C533.351 112.126 531.506 108.732 529.667 105.333C530.548 104.269 531.671 103.816 532.91 103.285C533.133 103.188 533.356 103.09 533.585 102.99C534.058 102.783 534.532 102.578 535.006 102.374C535.713 102.07 536.417 101.761 537.122 101.452C539.375 100.47 541.637 99.5362 543.944 98.6888C547.065 97.5421 550.112 96.2285 553.167 94.9167C554.34 94.4148 555.514 93.9138 556.687 93.4128C556.973 93.2907 557.259 93.1687 557.553 93.043C561.025 91.56 564.511 90.1088 568 88.6667Z" fill="white"/>
<path d="M520 80C521.375 79.9807 522.75 79.9688 524.125 79.9583C524.517 79.9527 524.909 79.9472 525.312 79.9414C525.873 79.9382 525.873 79.9382 526.445 79.9349C526.791 79.9314 527.136 79.9279 527.493 79.9243C528.333 80 528.333 80 529 80.6667C528.919 82.6522 527.974 84.4515 527.196 86.2474C527.048 86.5945 526.899 86.9415 526.746 87.2991C526.431 88.0342 526.115 88.7688 525.797 89.5029C525.32 90.6084 524.846 91.7155 524.373 92.8229C523.026 95.9633 521.666 99.0977 520.168 102.169C520.063 102.389 519.958 102.608 519.85 102.834C519.12 104.293 519.12 104.293 518 104.667C517.506 104.694 517.011 104.703 516.517 104.699C516.234 104.698 515.952 104.697 515.661 104.696C515.22 104.692 515.22 104.692 514.771 104.688C514.473 104.686 514.176 104.684 513.869 104.683C513.135 104.679 512.401 104.673 511.667 104.667C512.182 102.018 513.022 99.5179 513.906 96.9727C514.061 96.5243 514.215 96.0759 514.369 95.6275C514.691 94.6934 515.014 93.7597 515.338 92.8263C515.752 91.6317 516.164 90.4364 516.575 89.2408C516.893 88.3172 517.212 87.3939 517.531 86.4707C517.683 86.03 517.835 85.5892 517.987 85.1483C518.199 84.5331 518.412 83.9183 518.625 83.3036C518.746 82.9544 518.867 82.6052 518.992 82.2454C519.285 81.4632 519.608 80.7365 520 80Z" fill="#343434"/>
<path d="M230.667 105.667C231.771 105.657 232.875 105.651 233.979 105.646C234.294 105.643 234.61 105.64 234.934 105.637C235.384 105.636 235.384 105.636 235.842 105.634C236.259 105.631 236.259 105.631 236.684 105.629C237.333 105.667 237.333 105.667 237.667 106C237.927 108.318 237.097 110.282 236.328 112.443C236.191 112.838 236.053 113.233 235.912 113.639C235.547 114.687 235.178 115.733 234.808 116.778C234.437 117.832 234.07 118.887 233.702 119.941C233.037 121.844 232.372 123.747 231.694 125.646C231.45 126.337 231.211 127.03 230.978 127.725C230.864 128.055 230.751 128.386 230.634 128.726C230.536 129.02 230.437 129.314 230.336 129.617C230 130.333 230 130.333 229 131C228.244 131.076 228.244 131.076 227.371 131.065C227.058 131.063 226.746 131.061 226.424 131.059C225.936 131.05 225.936 131.05 225.437 131.042C224.943 131.037 224.943 131.037 224.439 131.033C223.626 131.025 222.813 131.014 222 131C224.793 122.521 227.695 114.084 230.667 105.667Z" fill="#343434"/>
<path d="M441.667 105C441.154 107.613 440.34 110.079 439.476 112.595C439.328 113.032 439.179 113.468 439.031 113.905C438.643 115.045 438.254 116.184 437.864 117.323C437.465 118.489 437.068 119.656 436.67 120.822C435.893 123.104 435.114 125.386 434.333 127.667C431.803 127.667 429.273 127.667 426.667 127.667C428.186 122.095 430.159 116.651 432.562 111.396C432.673 111.146 432.783 110.895 432.897 110.637C434.049 108.214 435.86 106.697 438.333 105.667C439.498 105.291 440.442 105 441.667 105Z" fill="#343434"/>
<path d="M309.277 80.8759C309.64 80.8774 309.64 80.8774 310.009 80.8789C310.273 80.8791 310.537 80.8793 310.809 80.8796C311.085 80.8849 311.362 80.8903 311.646 80.8958C311.921 80.8948 312.196 80.8937 312.479 80.8926C314.533 80.9109 314.533 80.9109 315.667 81.6667C315.934 83.7307 315.281 85.4667 314.608 87.401C314.445 87.8808 314.445 87.8808 314.279 88.3703C314.05 89.0433 313.818 89.7156 313.586 90.3874C313.229 91.4164 312.88 92.4475 312.532 93.4792C312.308 94.1338 312.083 94.7883 311.858 95.4427C311.702 95.9052 311.702 95.9052 311.542 96.3771C311.442 96.6631 311.342 96.9491 311.239 97.2438C311.153 97.4951 311.066 97.7464 310.977 98.0053C310.633 98.7395 310.292 99.1538 309.667 99.6667C308.725 99.9805 308.157 100.039 307.184 100.033C306.901 100.031 306.619 100.03 306.328 100.029C305.887 100.025 305.887 100.025 305.438 100.021C305.14 100.019 304.843 100.018 304.536 100.016C303.802 100.012 303.068 100.007 302.333 100C302.541 97.9051 303.159 96.0317 303.843 94.0469C303.959 93.7048 304.075 93.3627 304.195 93.0103C304.44 92.2906 304.687 91.5711 304.934 90.8521C305.313 89.7499 305.688 88.6466 306.062 87.543C306.301 86.8428 306.541 86.1427 306.78 85.4427C306.892 85.1125 307.004 84.7823 307.12 84.4421C307.226 84.136 307.331 83.83 307.44 83.5147C307.532 83.2456 307.625 82.9765 307.72 82.6993C308.378 81.0588 308.378 81.0588 309.277 80.8759Z" fill="#343434"/>
</g>
<defs>
<clipPath id="clip0_4240_238">
<rect width="504" height="144" fill="white" transform="translate(84 33)"/>
</clipPath>
</defs>
</svg>
