<svg width="672" height="210" viewBox="0 0 672 210" fill="none" xmlns="http://www.w3.org/2000/svg">
<g clip-path="url(#clip0_4240_106)">
<path d="M166 161.06V140.39L214.733 67.0698H171.48V47.9305H239.402V65.6853L188.631 141.93H241.401V161.07H166V161.06Z" fill="white"/>
<path d="M239.948 105.192C239.948 91.7177 241.947 80.6125 245.925 71.896C249.913 63.1795 255.12 56.6763 261.555 52.4155C267.99 48.1353 275.781 46 284.946 46C298.227 46 309.04 51.07 317.396 61.2003C325.752 71.3403 329.935 85.7703 329.935 104.5C329.935 123.23 325.508 138.225 316.655 148.872C308.884 158.291 298.334 162.99 285.005 162.99C271.676 162.99 260.98 158.339 253.208 149.028C244.365 138.381 239.938 123.766 239.948 105.192ZM259.244 104.422C259.244 117.438 261.721 127.198 266.664 133.711C271.608 140.224 277.741 143.481 285.063 143.481C292.376 143.481 298.539 140.253 303.385 133.799C308.231 127.344 310.649 117.429 310.649 104.042C310.649 90.6648 308.289 81.2268 303.57 74.9478C298.86 68.6785 292.678 65.5293 285.054 65.5293C277.429 65.5293 271.218 68.6883 266.43 75.0258C261.633 81.3438 259.244 91.1425 259.244 104.422Z" fill="white"/>
<path d="M335.191 161.06V47.9305H374.622C384.704 47.9305 391.91 48.9445 396.229 50.9725C400.558 53.0103 404.107 56.53 406.877 61.5415C409.656 66.553 411.04 72.5688 411.04 79.5595C411.04 88.4125 408.924 95.53 404.673 100.941C400.441 106.353 394.415 109.746 386.586 111.13C390.603 114.006 393.918 117.165 396.541 120.588C399.164 124.01 402.742 130.143 407.267 138.996L418.538 161.07H396.19L382.627 136.451C377.752 127.549 374.437 121.982 372.682 119.739C370.927 117.497 369.074 115.956 367.124 115.108C365.164 114.26 362.034 113.831 357.705 113.831H353.844V161.06H335.191ZM353.873 95.7738H367.767C376.26 95.7738 381.662 95.4033 383.973 94.6525C386.293 93.9018 388.165 92.4003 389.608 90.1383C391.042 87.8763 391.763 84.8733 391.763 81.1098C391.763 77.3463 391.042 74.6163 389.608 72.4323C388.165 70.2483 386.215 68.7468 383.739 67.918C381.984 67.3525 376.923 67.0698 368.538 67.0698H353.873V95.7738Z" fill="white"/>
<path d="M506 161.06H485.7L477.577 135.437H440.438L432.764 161.06H412.854L448.979 47.9305H468.821L506 161.06ZM471.542 116.298L458.73 74.314L446.161 116.298H471.542Z" fill="white"/>
</g>
<defs>
<clipPath id="clip0_4240_106">
<rect width="340" height="117" fill="white" transform="translate(166 46)"/>
</clipPath>
</defs>
</svg>
