<svg width="32" height="32" viewBox="0 0 32 32" fill="none" xmlns="http://www.w3.org/2000/svg">
<path d="M10.6516 6.66016C10.6516 7.27771 10.5117 7.86257 10.2618 8.38477L12.3084 10.4314C13.3623 9.73334 14.6261 9.32682 15.9849 9.32682C17.6854 9.32682 19.2371 9.96346 20.4148 11.0114L21.7081 9.7181C21.4582 9.1959 21.3183 8.61104 21.3183 7.99349C21.3183 5.78435 23.1091 3.99349 25.3183 3.99349C27.5274 3.99349 29.3183 5.78435 29.3183 7.99349C29.3183 10.2026 27.5274 11.9935 25.3183 11.9935C24.7008 11.9935 24.1159 11.8536 23.5938 11.6037L22.0264 13.171C22.4275 14.0282 22.6516 14.9847 22.6516 15.9935C22.6516 17.3523 22.2451 18.6161 21.547 19.6701L23.5937 21.7167C24.1159 21.4668 24.7007 21.3268 25.3183 21.3268C27.5274 21.3268 29.3183 23.1177 29.3183 25.3268C29.3183 27.536 27.5274 29.3268 25.3183 29.3268C23.1091 29.3268 21.3183 27.536 21.3183 25.3268C21.3183 24.7093 21.4582 24.1245 21.7081 23.6023L19.6614 21.5557C18.6075 22.2537 17.3437 22.6602 15.9849 22.6602C14.2095 22.6602 12.5961 21.9661 11.4014 20.8345L10.4977 21.5575C10.5979 21.9078 10.6516 22.2777 10.6516 22.6602C10.6516 24.8693 8.86075 26.6602 6.65161 26.6602C4.44247 26.6602 2.65161 24.8693 2.65161 22.6602C2.65161 20.451 4.44247 18.6602 6.65161 18.6602C7.50546 18.6602 8.29682 18.9277 8.94644 19.3835L9.86722 18.6469C9.51407 17.8338 9.31828 16.9365 9.31828 15.9935C9.31828 14.6347 9.72477 13.3709 10.4228 12.317L8.37611 10.2704C7.85394 10.5202 7.26912 10.6602 6.65161 10.6602C4.44247 10.6602 2.65161 8.86929 2.65161 6.66016C2.65161 4.45102 4.44247 2.66016 6.65161 2.66016C8.86075 2.66016 10.6516 4.45102 10.6516 6.66016ZM15.9849 19.9935C18.1941 19.9935 19.9849 18.2026 19.9849 15.9935C19.9849 13.7843 18.1941 11.9935 15.9849 11.9935C13.7758 11.9935 11.9849 13.7843 11.9849 15.9935C11.9849 18.2026 13.7758 19.9935 15.9849 19.9935Z" fill="white"/>
</svg>
