<svg width="25" height="24" viewBox="0 0 25 24" fill="none" xmlns="http://www.w3.org/2000/svg">
<g id="Basenet 4">
<path id="Vector" d="M8.05513 15.5078C7.65456 15.3219 7.19244 15.3219 6.79191 15.5079L3.43079 17.0685C2.27303 17.6061 2.27308 19.252 3.43088 19.7895L11.8689 23.7069C12.2694 23.8928 12.7316 23.8928 13.1321 23.7069L21.5701 19.7895C22.7279 19.252 22.7279 17.6061 21.5702 17.0685L18.2091 15.5079C17.8085 15.3219 17.3464 15.3219 16.9459 15.5078L13.132 17.278C12.7315 17.4639 12.2695 17.4639 11.869 17.278L8.05513 15.5078Z" fill="#474950"/>
<path id="Vector_2" fill-rule="evenodd" clip-rule="evenodd" d="M12.5007 11.1429L17.5777 8.78539L21.5707 10.6394C22.7284 11.1769 22.7284 12.8228 21.5707 13.3604L17.5777 15.2144L12.5008 17.5709L7.42376 15.2144L3.43079 13.3604C2.27307 12.8228 2.27307 11.1769 3.43079 10.6394L7.42372 8.78539L12.5007 11.1429Z" fill="#676869"/>
<path id="Vector_3" fill-rule="evenodd" clip-rule="evenodd" d="M21.5702 6.93165L17.5775 8.78554L12.5005 6.42803L7.4235 8.78554L3.43079 6.93165C2.27303 6.39405 2.27308 4.7481 3.43088 4.21061L11.8689 0.293276C12.2694 0.107319 12.7316 0.107319 13.1321 0.293276L21.5701 4.21061C22.7279 4.7481 22.728 6.39405 21.5702 6.93165ZM12.5014 11.1425L7.42444 8.78603L12.5014 6.42851L17.5785 8.78603L12.5014 11.1425Z" fill="#FFDF44"/>
</g>
</svg>
