<svg width="220" height="28" viewBox="0 0 220 28" fill="none" xmlns="http://www.w3.org/2000/svg">
<path d="M219.643 18.3481C219.608 18.5595 219.582 18.772 219.539 18.9818C219.36 19.7848 218.968 20.5352 218.399 21.1666C217.626 22.0406 216.665 22.757 215.573 23.2705C213.424 24.3275 211.235 25.3074 209 26.21C208.876 26.2604 208.744 26.2944 208.616 26.3397C208.521 26.3739 208.419 26.3834 208.319 26.3671C208.22 26.3507 208.126 26.3094 208.051 26.2474C207.51 25.8642 206.969 25.4818 206.427 25.1C205.766 24.6377 205.111 24.1695 204.367 23.818C202.928 23.137 201.423 22.6432 199.789 22.5295C199.551 22.5132 199.315 22.4905 199.082 22.4555C199.012 22.4492 198.945 22.4252 198.89 22.386C198.836 22.3469 198.795 22.2945 198.77 22.2345C198.746 22.1748 198.742 22.1099 198.756 22.0475C198.77 21.9853 198.805 21.928 198.854 21.8824C198.945 21.7897 199.047 21.7047 199.155 21.6285C199.978 20.9942 200.799 20.3569 201.629 19.7291C202.044 19.4156 202.479 19.1223 202.899 18.8151C203.08 18.6866 203.308 18.6236 203.536 18.6372C204.241 18.6596 204.938 18.7746 205.607 18.9787C206.801 19.2995 207.953 19.7378 209.043 20.2861C210.066 20.8163 211.031 21.4116 211.794 22.2455C211.912 22.3722 212.044 22.4882 212.186 22.5921C212.55 22.8619 212.885 22.8658 213.268 22.497C213.453 22.3008 213.591 22.0713 213.672 21.8233C214.022 20.9281 213.855 20.1091 213.239 19.3514C212.816 18.8153 212.28 18.3603 211.666 18.0123C210.814 17.5406 209.954 17.0822 209.08 16.6485C207.713 15.9718 206.327 15.3318 204.963 14.654C204.091 14.2301 203.271 13.7205 202.521 13.1341C201.322 12.1825 200.653 10.9959 200.643 9.53396C200.627 8.48943 201.043 7.47823 201.81 6.7055C202.643 5.85755 203.664 5.18118 204.804 4.72071C205.831 4.28566 206.888 3.90691 207.929 3.49707C209.155 3.01485 210.403 2.58528 211.674 2.20837C211.735 2.19027 211.798 2.17543 211.857 2.15246C211.926 2.12136 212.005 2.11302 212.082 2.12908C212.158 2.14514 212.227 2.18458 212.273 2.24069C212.666 2.61394 213.062 2.98211 213.459 3.35211C213.886 3.7518 214.302 4.16205 214.743 4.54831C215.461 5.15861 216.297 5.64205 217.207 5.97383C217.687 6.15822 218.157 6.36518 218.628 6.56502C218.718 6.60222 218.799 6.65264 218.911 6.71098C218.858 6.76689 218.801 6.81832 218.738 6.86468C218.47 7.02223 218.206 7.19097 217.923 7.32494C217.008 7.76081 216.083 8.18143 215.164 8.61262C214.994 8.69374 214.798 8.71631 214.611 8.67666C213.471 8.4817 212.359 8.15622 211.306 7.70734C210.275 7.26639 209.393 6.58128 208.748 5.72235C208.582 5.5034 208.407 5.28953 208.222 5.08461C207.882 4.71054 207.455 4.6768 207.043 4.9791C206.756 5.19155 206.52 5.45746 206.353 5.75915C206.185 6.06084 206.089 6.39161 206.069 6.72989C206.053 6.85065 206.069 6.97365 206.118 7.08709C206.166 7.20032 206.246 7.30055 206.347 7.378C206.646 7.62298 206.967 7.84294 207.309 8.03526C208.411 8.59453 209.527 9.13144 210.647 9.66285C212.481 10.5094 214.264 11.4496 215.984 12.4793C216.764 12.9304 217.484 13.4631 218.13 14.0663C218.641 14.5558 219.037 15.1362 219.291 15.7717C219.464 16.1927 219.566 16.6349 219.596 17.0838C219.604 17.1566 219.621 17.2287 219.643 17.2995V18.3481Z" fill="#8A919E"/>
<path d="M198.447 13.5979C198.46 15.1783 198.23 16.7524 197.766 18.2745C197.27 19.9966 196.374 21.5996 195.138 22.9727C194.097 24.1597 192.745 25.0856 191.21 25.6631C190.545 25.9002 189.848 26.0561 189.138 26.1266C188.693 26.1754 188.246 26.2102 187.799 26.2208C186.811 26.2212 185.825 26.1195 184.863 25.9174C183.735 25.7089 182.602 25.5106 181.462 25.3635C180.718 25.2657 179.958 25.2941 179.224 25.4476C178.636 25.5853 178.096 25.8538 177.649 26.2295C177.538 26.3175 177.406 26.3791 177.263 26.4084C177.12 26.4379 176.971 26.434 176.83 26.3976C176.78 26.3928 176.734 26.3724 176.698 26.3401C176.663 26.3078 176.64 26.2653 176.634 26.2195C176.565 25.9758 176.59 25.7176 176.704 25.4889C176.787 25.3222 176.882 25.1602 176.986 25.0038C177.303 24.5537 177.46 24.0239 177.433 23.4885C177.427 22.0078 177.431 20.5274 177.428 19.0466C177.421 14.3472 177.413 9.64782 177.403 4.94841C177.402 4.53349 177.372 4.11917 177.349 3.70383C177.343 3.603 177.311 3.5048 177.257 3.41698C177.203 3.32895 177.128 3.25373 177.037 3.19701C176.764 3.01608 176.477 2.85222 176.197 2.67963C175.925 2.51191 175.647 2.35171 175.386 2.17037C175.183 2.02582 175.032 1.82863 174.953 1.60439C174.927 1.55072 174.92 1.49115 174.931 1.43321C174.942 1.37548 174.972 1.32201 175.017 1.28013C175.22 1.08842 175.422 0.895494 175.636 0.713747C175.782 0.58933 175.835 0.594004 175.982 0.730213C176.665 1.35433 177.513 1.80464 178.443 2.03741C178.929 2.15431 179.425 2.23339 179.925 2.27405C181.104 2.39359 182.283 2.31003 183.464 2.25677C184.761 2.19801 186.056 2.07766 187.36 2.13194C188.972 2.17606 190.562 2.50255 192.042 3.09374C192.658 3.34949 193.239 3.67151 193.772 4.0531C194.53 4.59102 195.213 5.21107 195.807 5.89984C196.262 6.43167 196.656 7.00476 196.984 7.61038C197.533 8.61629 197.923 9.68848 198.145 10.7948C198.344 11.718 198.445 12.6568 198.447 13.5979ZM190.261 14.7152C190.283 13.4106 190.232 12.1059 190.106 10.8062C190.043 9.95195 189.927 9.10176 189.757 8.25991C189.525 7.21314 189.193 6.19584 188.608 5.25966C188.34 4.80387 188.004 4.38427 187.61 4.01284C187.4 3.79735 187.11 3.66378 186.797 3.64C186.449 3.6278 186.099 3.62353 185.754 3.64325C185.607 3.64671 185.467 3.702 185.361 3.79775C185.258 3.89371 185.197 4.0226 185.195 4.158C185.168 4.35621 185.156 4.55565 185.156 4.75528C185.148 6.59369 185.144 8.4319 185.142 10.2703C185.132 14.471 185.121 18.672 185.111 22.8731C185.111 23.2044 185.152 23.5358 185.176 23.867C185.176 23.9284 185.19 23.9892 185.217 24.0457C185.243 24.1022 185.282 24.1532 185.329 24.1959C185.377 24.2386 185.434 24.2718 185.497 24.2937C185.558 24.3157 185.626 24.3256 185.693 24.3234C186.443 24.3695 187.148 24.2608 187.75 23.7995C188.443 23.2766 188.966 22.5891 189.258 21.8121C189.643 20.7797 189.899 19.7118 190.025 18.6276C190.192 17.3296 190.271 16.0224 190.261 14.7152Z" fill="#8A919E"/>
<path d="M166.111 16.5184C166.268 16.6365 166.433 16.7447 166.606 16.8423C167.262 17.1535 167.922 17.4601 168.588 17.7545C169.271 18.0559 169.965 18.3367 170.649 18.6351C171.086 18.8254 171.101 18.8716 170.969 19.2926C170.845 19.6919 170.701 20.0877 170.603 20.4925C170.415 21.2483 170.38 22.0294 170.5 22.7968C170.607 23.4695 171.005 23.9796 171.573 24.3945C172.249 24.8898 173.041 25.1313 173.887 25.2374C174.285 25.2876 174.687 25.3077 175.088 25.3441C175.193 25.3537 175.298 25.3738 175.465 25.398C175.35 25.4944 175.283 25.5576 175.208 25.6125C174.774 25.9065 174.29 26.1327 173.776 26.2824C172.721 26.6332 171.588 26.7345 170.479 26.5765C169.874 26.4846 169.284 26.3259 168.721 26.1037C167.768 25.7583 166.878 25.2829 166.081 24.6938C165.216 24.0632 164.509 23.2691 164.008 22.3654C163.753 21.859 163.582 21.3207 163.498 20.7679C163.357 19.9893 163.405 19.2105 163.463 18.4296C163.493 18.0316 163.509 17.6329 163.532 17.2344C163.551 17.084 163.52 16.9315 163.443 16.7977C163.365 16.664 163.245 16.555 163.099 16.4855C162.835 16.3533 162.567 16.2246 162.292 16.1147C161.789 15.937 161.312 15.7024 160.872 15.4165C160.635 15.248 160.41 15.063 160.183 14.8833C160.107 14.8233 160.043 14.7512 159.965 14.693C159.876 14.6259 159.795 14.5233 159.659 14.5698C159.595 14.5946 159.541 14.6367 159.505 14.6906C159.468 14.7444 159.45 14.8073 159.454 14.8705C159.418 15.3684 159.364 15.866 159.358 16.3641C159.327 18.9838 159.311 21.6035 159.287 24.2234C159.282 24.7721 159.27 25.321 159.258 25.8697C159.25 26.1941 159.142 26.3037 158.784 26.3198C158.425 26.3358 158.07 26.3354 157.713 26.335C155.964 26.3336 154.215 26.3305 152.467 26.3261C152.329 26.3293 152.192 26.3242 152.055 26.3104C151.784 26.2756 151.692 26.1835 151.683 25.9323C151.665 25.4086 151.642 24.8853 151.64 24.361C151.613 17.9155 151.585 11.4699 151.557 5.02463C151.553 4.35537 151.534 3.67596 151.298 3.02703C151.224 2.82313 151.126 2.62593 151.037 2.4267C151.01 2.3651 150.969 2.30858 150.943 2.24658C150.921 2.20734 150.911 2.16323 150.915 2.11911C150.919 2.07499 150.937 2.03271 150.966 1.99754C150.995 1.96217 151.034 1.93513 151.079 1.91968C151.125 1.90402 151.174 1.90057 151.221 1.90951C151.594 1.94793 151.964 2.00466 152.335 2.04958C153.478 2.18864 154.619 2.33969 155.764 2.45821C156.412 2.50314 157.064 2.48992 157.71 2.41918C158.357 2.37039 159.006 2.32403 159.654 2.29517C161.007 2.21934 162.363 2.21629 163.716 2.28622C164.793 2.35493 165.871 2.42914 166.921 2.68041C168.14 2.95466 169.281 3.46758 170.264 4.184C170.814 4.61031 171.311 5.09172 171.745 5.61968C172.065 5.99354 172.357 6.38651 172.661 6.77135C172.996 7.18811 173.267 7.64411 173.47 8.12714C173.61 8.46888 173.704 8.82485 173.751 9.18754C173.799 9.65166 173.781 10.1194 173.698 10.5795C173.594 11.2906 173.329 11.9739 172.92 12.5854C172.7 12.902 172.443 13.1959 172.155 13.4629C171.403 14.1736 170.49 14.6812 169.513 15.0923C168.525 15.5076 167.527 15.9026 166.535 16.3092C166.413 16.3592 166.298 16.4259 166.111 16.5184ZM166.136 9.0867C166.147 8.54268 166.088 7.99947 165.962 7.46785C165.784 6.67438 165.532 5.90571 165.05 5.21207C164.585 4.54322 164.002 3.99351 163.186 3.68388C162.546 3.44115 161.905 3.42671 161.287 3.75179C161.089 3.85506 160.897 3.9681 160.713 4.09068C159.973 4.58917 159.548 5.21776 159.56 6.09763C159.587 8.08424 159.562 10.0715 159.566 12.0585C159.574 12.3575 159.599 12.6562 159.64 12.953C159.658 13.101 159.746 13.1358 159.889 13.0638C160.001 13.0073 160.103 12.9355 160.211 12.8743C160.446 12.7318 160.723 12.6588 161.005 12.6653C161.287 12.672 161.559 12.7578 161.786 12.9111C162.272 13.2102 162.346 13.7867 161.79 14.1366C161.686 14.1866 161.576 14.2275 161.463 14.259C161.312 14.3194 161.29 14.4371 161.423 14.5243C161.521 14.5863 161.627 14.6359 161.739 14.6715C162.915 15.052 163.989 14.7629 164.799 13.8983C165.258 13.4076 165.511 12.8188 165.702 12.2073C166.003 11.1902 166.149 10.1404 166.136 9.0867Z" fill="#8A919E"/>
<path d="M95.2098 15.8681C95.3568 15.8618 95.5032 15.8482 95.6485 15.8272C96.2009 15.703 96.7142 15.4623 97.1476 15.1246C97.986 14.5032 98.6707 13.7253 99.157 12.843C99.7982 11.7532 100.103 10.5232 100.037 9.28616C99.996 8.68724 99.8387 8.09992 99.5726 7.55183C99.3961 7.17817 99.1849 6.81752 98.9875 6.45281C98.943 6.37108 98.8887 6.29322 98.8427 6.2119C98.6925 5.94477 98.6959 5.8909 98.934 5.69207C99.9318 4.85917 100.936 4.03337 102.011 3.28117C102.591 2.87519 103.18 2.47897 103.765 2.07929C103.83 2.03375 103.899 1.99227 103.97 1.95548C104.017 1.92803 104.074 1.91726 104.129 1.92498C104.184 1.93271 104.234 1.95853 104.27 1.99756C104.289 2.01545 104.307 2.03456 104.324 2.05387C105.169 2.99473 105.748 4.05025 105.905 5.26434C105.992 5.92647 105.954 6.59735 105.793 7.2477C105.512 8.36075 105.03 9.42277 104.368 10.3905C103.831 11.187 103.172 11.902 102.558 12.6473C102.115 13.1866 101.694 13.741 101.272 14.2948C101.082 14.5442 101.095 14.5578 101.283 14.8012C103.427 17.5792 105.57 20.3575 107.713 23.1362C107.808 23.2587 107.898 23.3838 107.984 23.5116C108.135 23.7355 108.131 23.8587 107.932 24.0457C107.705 24.2634 107.467 24.4704 107.217 24.6658C105.809 25.7617 104.228 26.6568 102.529 27.3204C102.453 27.3493 102.377 27.3765 102.299 27.4019C102.019 27.4932 101.901 27.4603 101.753 27.2267C101.556 26.9173 101.367 26.6034 101.18 26.2887C99.7651 23.9215 98.3516 21.5541 96.9388 19.1863C96.6382 18.6823 96.3501 18.1719 96.0464 17.6693C95.9533 17.5262 95.8469 17.3908 95.7288 17.2641C95.677 17.2058 95.6123 17.1586 95.5388 17.1253C95.506 17.1058 95.4678 17.0948 95.4288 17.0938C95.3895 17.0928 95.3509 17.1019 95.317 17.1198C95.283 17.1377 95.2552 17.1639 95.2364 17.1956C95.2177 17.2271 95.209 17.2629 95.2112 17.2989C95.2059 17.3652 95.2045 17.4318 95.2066 17.4983C95.2027 19.8186 95.1986 22.1392 95.194 24.46C95.1925 24.9756 95.1659 25.4909 95.1602 26.0065C95.1568 26.3316 95.0525 26.4214 94.678 26.4389C94.3308 26.4552 93.9823 26.4588 93.6347 26.458C91.8493 26.4546 90.0642 26.4493 88.279 26.4422C88.2422 26.4422 88.205 26.4422 88.169 26.4405C87.8326 26.4194 87.7338 26.3318 87.7311 26.0224C87.7181 24.4755 87.6994 22.9286 87.6992 21.3819C87.6992 15.7425 87.7029 10.1032 87.71 4.46396C87.7108 3.83191 87.7287 3.19965 87.7397 2.56781C87.7458 2.21366 87.8344 2.12848 88.23 2.12584C89.3103 2.11852 90.3907 2.11446 91.471 2.11405C92.5232 2.11507 93.5765 2.12482 94.6294 2.13092C94.6938 2.1293 94.7581 2.13113 94.8221 2.13641C94.9055 2.13458 94.9862 2.16304 95.047 2.21529C95.1078 2.26754 95.1437 2.33971 95.1472 2.41615C95.159 2.49015 95.1639 2.56496 95.162 2.63978C95.1742 4.71909 95.1862 6.79841 95.1974 8.87753C95.2057 11.0981 95.2102 13.3188 95.211 15.5392C95.211 15.6365 95.2098 15.7349 95.2098 15.8681Z" fill="#8A919E"/>
<path d="M64.116 14.6711C64.0093 16.2196 63.5486 17.7303 62.7639 19.1048C61.9791 20.4795 60.8878 21.6873 59.5609 22.6495C57.9345 23.8554 56.1811 24.9099 54.3268 25.7971C53.8131 26.0362 53.274 26.2261 52.718 26.3635C52.4884 26.4231 52.2449 26.4184 52.0182 26.3501C51.095 26.0805 50.2024 25.7298 49.3526 25.3031C48.1641 24.7121 47.0515 24.0012 46.0352 23.1835C45.3037 22.5919 44.6426 21.9312 44.0628 21.2122C43.2852 20.2343 42.6975 19.1406 42.3258 17.9791C41.9453 16.8386 41.8182 15.6398 41.952 14.4534C42.1055 13.0099 42.6247 11.6672 43.3004 10.3683C44.1279 8.78036 45.3791 7.50772 46.8685 6.40666C48.8622 4.93154 51.0109 3.66765 53.226 2.49117C53.5181 2.33585 53.8153 2.18785 54.1057 2.02887C54.1886 1.97744 54.2874 1.95141 54.3874 1.95446C54.4877 1.95772 54.5842 1.99004 54.6631 2.04676C55.8764 2.76115 57.0305 3.55685 58.1159 4.42736C58.9602 5.09113 59.7557 5.80531 60.4969 6.56564C61.5252 7.65938 62.417 8.8324 63.0115 10.1744C63.4618 11.1567 63.7881 12.1829 63.984 13.2334C64.0664 13.7071 64.0741 14.1915 64.116 14.6711ZM58.0159 17.6173C57.9874 17.3111 57.9526 16.8559 57.8996 16.4013C57.8707 16.1541 57.8158 15.9094 57.7642 15.6648C57.4548 14.2696 56.9256 12.9231 56.1933 11.6678C55.0685 9.68604 53.5415 7.91939 51.6944 6.46318C51.3298 6.18588 50.9462 5.93014 50.5463 5.69736C50.3138 5.55566 50.1591 5.58494 49.9491 5.74778C49.8864 5.79637 49.8299 5.85105 49.7801 5.91082C49.4723 6.28265 49.1497 6.64513 48.8651 7.0316C48.2836 7.79051 47.8878 8.65594 47.7049 9.56833C47.441 11.0004 47.5337 12.4688 47.9763 13.8632C48.4542 15.3499 49.1416 16.7728 50.0214 18.0958C51.3219 20.1278 53.0924 21.8733 55.2083 23.2091C55.2834 23.2565 55.3596 23.3031 55.4393 23.3435C55.486 23.3708 55.5405 23.3848 55.5958 23.3838C55.6511 23.3828 55.705 23.3669 55.7505 23.338C55.8272 23.2931 55.9014 23.2447 55.9727 23.1929C56.5442 22.7348 56.9809 22.1522 57.2421 21.4986C57.7652 20.3022 57.9532 19.0462 58.0159 17.6173Z" fill="#8A919E"/>
<path d="M127.775 15.6432C127.735 14.4999 127.926 13.3594 128.338 12.2795C128.616 11.4868 128.973 10.7194 129.404 9.98671C129.937 9.08225 130.615 8.25666 131.416 7.5378C132.648 6.43756 134.03 5.50504 135.447 4.61826C136.834 3.75079 138.277 2.9618 139.739 2.20187C139.802 2.16874 139.866 2.13661 139.932 2.10653C139.998 2.07014 140.076 2.05245 140.154 2.05591C140.232 2.05957 140.307 2.08396 140.369 2.12625C140.557 2.24518 140.751 2.35638 140.941 2.47144C142.612 3.4924 144.16 4.67335 145.559 5.99437C146.7 7.04054 147.653 8.24548 148.384 9.56467C148.764 10.2927 149.076 11.0491 149.317 11.8257C149.587 12.6115 149.745 13.4257 149.789 14.2484C149.808 14.7721 149.773 15.2962 149.683 15.8136C149.362 17.6555 148.54 19.3932 147.294 20.8669C146.713 21.5437 146.043 22.1532 145.302 22.6816C143.695 23.8829 141.96 24.9317 140.123 25.8121C139.618 26.0476 139.088 26.2356 138.542 26.373C138.295 26.4391 138.032 26.4344 137.788 26.3594C136.867 26.0854 135.976 25.7318 135.128 25.3035C133.966 24.721 132.877 24.0227 131.882 23.2213C131.165 22.6407 130.515 21.9934 129.944 21.29C129.158 20.3077 128.564 19.2078 128.187 18.0397C127.914 17.2657 127.776 16.4566 127.775 15.6432ZM143.707 17.7697C143.72 17.4875 143.719 17.2048 143.702 16.9228C143.578 15.8392 143.316 14.7727 142.921 13.7453C142.475 12.5686 141.816 11.4836 141.116 10.421C140.244 9.09892 139.127 7.95679 137.901 6.89986C137.444 6.48981 136.94 6.12774 136.396 5.81994C136.082 5.65019 135.914 5.67052 135.673 5.91509C135.472 6.1192 135.283 6.33367 135.102 6.55323C134.154 7.70877 133.525 8.97429 133.42 10.437C133.327 11.608 133.455 12.7847 133.8 13.9154C134.27 15.404 134.957 16.8276 135.842 18.1481C136.917 19.7793 138.199 21.2538 139.85 22.4417C140.266 22.7407 140.691 23.0294 141.121 23.3126C141.316 23.4417 141.429 23.4289 141.62 23.3033C141.672 23.2693 141.717 23.2282 141.765 23.1896C142.424 22.6625 142.829 21.9853 143.106 21.2467C143.526 20.1288 143.729 18.9521 143.707 17.7697Z" fill="#8A919E"/>
<path d="M77.3947 26.2635C76.4239 26.2437 75.4566 26.1496 74.503 25.9819C73.6949 25.8331 72.9246 25.5454 72.233 25.1344C71.6414 24.7863 71.0569 24.4285 70.4653 24.0809C70.3319 24.0093 70.1937 23.9457 70.0514 23.8904C69.9603 23.8493 69.8574 23.8357 69.7576 23.8516C69.6576 23.8672 69.5657 23.9117 69.495 23.9784C69.3248 24.1166 69.1675 24.2677 69.0245 24.4299C68.5385 24.992 68.0546 25.5564 67.5872 26.1317C67.5305 26.2214 67.4472 26.2946 67.3471 26.3425C67.2469 26.3905 67.1339 26.4115 67.0213 26.4027C66.7572 26.385 66.4906 26.3993 66.2251 26.395C66.1581 26.3982 66.0914 26.3842 66.0326 26.3545C65.9737 26.3247 65.9251 26.2803 65.8923 26.2267C65.8596 26.1728 65.8442 26.1116 65.8474 26.05C65.8507 25.9884 65.8728 25.929 65.911 25.8784C65.9688 25.7845 66.0426 25.6985 66.1095 25.6093C66.7023 24.8196 67.2996 24.0323 67.8879 23.239C67.9784 23.1345 68.0446 23.014 68.0827 22.8849C68.1207 22.756 68.1296 22.6212 68.1091 22.4889C68.0875 22.3665 68.0471 22.2475 67.9891 22.1355C67.6757 21.5813 67.3482 21.0343 67.0326 20.4807C66.3248 19.2312 65.8271 17.8907 65.5565 16.5048C65.3709 15.6223 65.2934 14.7233 65.3253 13.8252C65.368 12.9607 65.502 12.1022 65.7254 11.2618C66.2111 9.3815 67.1699 7.63172 68.5252 6.15274C69.0857 5.51479 69.7113 4.92767 70.3937 4.3989C71.6452 3.43791 73.1281 2.76398 74.7199 2.43281C75.7463 2.21325 76.8045 2.14474 77.8543 2.22992C78.7098 2.31429 79.551 2.49299 80.3598 2.76215C81.1443 3.01424 81.9231 3.28117 82.7044 3.54139C82.7644 3.56131 82.8257 3.57859 82.8849 3.60075C83.4814 3.82418 84.0134 3.69264 84.5019 3.3509C84.6611 3.23949 84.8042 3.10938 84.9571 2.99066C85.124 2.86116 85.2895 2.72922 85.4641 2.60867C85.6888 2.45416 85.8079 2.45091 86.036 2.59382C86.133 2.65603 86.2198 2.73024 86.2942 2.81461C86.3814 2.89592 86.4353 3.00225 86.4465 3.11569C86.4578 3.22933 86.4261 3.34297 86.3566 3.4373C86.0592 3.86606 85.7839 4.30985 85.4515 4.71543C84.3367 6.07589 83.2031 7.42355 82.0727 8.77344C80.3768 10.7985 78.6787 12.8219 76.9783 14.8437C76.0214 15.9789 75.0649 17.1155 74.0777 18.2288C73.4621 18.9232 73.3308 19.6842 73.5245 20.5264C73.8374 21.9599 74.753 23.2226 76.0734 24.041C77.3479 24.8593 79.0873 24.8347 80.4092 24.0215C81.4929 23.3553 82.1345 22.4124 82.5096 21.3024C82.6133 20.9942 82.6603 20.6702 82.7326 20.3532C82.7475 20.2884 82.754 20.2211 82.7755 20.1583C82.8266 20.0107 82.8959 19.9749 83.0648 20.0117C83.1722 20.0324 83.2771 20.0625 83.3783 20.1013C84.1852 20.4358 84.9945 20.7647 85.7931 21.115C86.1086 21.2534 86.119 21.3315 86.0364 21.6358C85.8886 22.1624 85.6113 22.6509 85.2261 23.064C84.2677 24.1364 83.0431 24.9821 81.6546 25.5302C80.8271 25.8487 79.9534 26.0541 79.0611 26.1399C78.5077 26.1978 77.9499 26.2228 77.3947 26.2635ZM73.0203 13.4928C73.0203 14.0876 73.009 14.5286 73.0244 14.9685C73.0352 15.2755 73.0673 15.5814 73.1204 15.8846C73.1614 16.1165 73.2921 16.1533 73.5091 16.0206C73.6012 15.9667 73.6865 15.9033 73.763 15.8315C73.9614 15.6365 74.1657 15.4442 74.3418 15.2334C74.9986 14.4448 75.6286 13.6375 76.2995 12.8593C77.3036 11.7166 78.2428 10.5271 79.1133 9.2955C79.498 8.76957 79.7828 8.18753 79.9554 7.57419C80.1333 6.87871 80.1557 6.19848 79.8745 5.51662C79.4266 4.43163 78.4018 3.91627 77.2365 3.99108C76.4851 4.03906 75.9 4.40723 75.3798 4.87034C74.9419 5.28405 74.5902 5.7679 74.3424 6.29789C73.8388 7.3221 73.5032 8.40913 73.3468 9.5236C73.1533 10.8399 73.0441 12.1648 73.0203 13.4928Z" fill="#8A919E"/>
<path d="M39.3035 10.1059C39.2102 10.3606 39.125 10.5523 39.0697 10.7511C38.8839 11.4816 38.8524 12.2376 38.9764 12.9791C39.1986 14.429 39.5747 15.8557 40.0992 17.2385C40.7459 19.0131 41.3871 20.7899 42.0812 22.549C42.4725 23.5415 42.9653 24.5005 43.412 25.4747C43.4683 25.5971 43.5274 25.7195 43.575 25.8449C43.675 26.1104 43.5654 26.3035 43.2638 26.333C42.783 26.3798 42.2987 26.4202 41.8155 26.4231C36.4692 26.4546 31.1227 26.4818 25.7762 26.5046C25.3641 26.5066 24.9522 26.5152 24.5401 26.5172C24.3663 26.518 24.1923 26.5129 24.0189 26.5036C23.7485 26.4889 23.7192 26.4637 23.7056 26.2259C23.6936 26.0181 23.6863 25.8101 23.6855 25.6024C23.6603 18.1501 23.6355 10.6981 23.6115 3.24602C23.6104 2.94697 23.6151 2.64751 23.6253 2.34785C23.634 2.07605 23.7247 1.99453 24.0238 1.98314C24.2431 1.97481 24.4631 1.97379 24.6828 1.9742C26.6054 1.97745 28.528 1.98131 30.4506 1.98558C30.4687 1.98558 30.4872 1.98599 30.5055 1.98639C30.9047 1.99696 30.9909 2.06649 30.9946 2.42958C31.0078 3.85164 31.0235 5.2737 31.0226 6.69576C31.0204 11.5281 31.0151 16.3603 31.0068 21.1926C31.0068 21.9078 31.0216 22.623 31.0379 23.338C31.044 23.5954 31.0688 23.853 31.1011 24.1089C31.1131 24.2516 31.1715 24.3881 31.2686 24.5001C31.3658 24.6121 31.4975 24.695 31.6466 24.7377C31.7842 24.7831 31.9271 24.814 32.0723 24.8298C32.7277 24.8994 33.3896 24.9016 34.0455 24.8363C34.4478 24.8016 34.8343 24.6749 35.1697 24.468C35.4031 24.3216 35.6387 24.1766 35.8607 24.0168C36.8253 23.3395 37.8644 22.7562 38.961 22.2766C39.2883 22.1286 39.6109 21.9713 39.9303 21.8096C40.0326 21.7548 40.1263 21.6877 40.209 21.6098C40.2684 21.5635 40.3121 21.5027 40.3355 21.4344C40.3591 21.3663 40.3609 21.2933 40.3414 21.2242C40.2737 21.0003 40.2108 20.7741 40.123 20.5565C39.6247 19.3241 39.1559 18.0834 38.7595 16.8199C38.3222 15.4639 38.0421 14.0695 37.9236 12.6597C37.8693 11.9453 37.8644 11.2291 38.0811 10.5301C38.2116 10.0343 38.467 9.57322 38.8268 9.18432C39.0693 8.95296 39.3905 8.80436 39.7374 8.76309C40.0842 8.72182 40.4361 8.79012 40.7349 8.95703C40.9452 9.0906 41.0982 9.28718 41.1678 9.51284C41.2373 9.7387 41.2188 9.97961 41.1155 10.1943C41.0275 10.3421 40.8903 10.4602 40.724 10.5316C40.5577 10.6029 40.3708 10.6239 40.1907 10.5911C39.974 10.5543 39.7725 10.4635 39.6083 10.3287C39.5286 10.2644 39.4424 10.2065 39.3035 10.1059Z" fill="#8A919E"/>
<path d="M125.192 10.2087C125.13 10.3455 125.074 10.4472 125.036 10.5545C124.794 11.3063 124.728 12.0967 124.844 12.8735C125.05 14.569 125.598 16.1893 126.159 17.8069C127.065 20.4156 128.056 22.9952 129.286 25.4952C129.352 25.6233 129.409 25.755 129.458 25.8894C129.481 25.9357 129.491 25.9861 129.487 26.0368C129.484 26.0874 129.468 26.1366 129.439 26.1801C129.411 26.2236 129.372 26.2604 129.325 26.287C129.278 26.3136 129.224 26.3295 129.169 26.3334C128.799 26.3846 128.425 26.4145 128.051 26.4226C124.847 26.4482 121.643 26.4688 118.439 26.4842C115.711 26.4995 112.983 26.5131 110.255 26.5249C109.714 26.5275 109.707 26.523 109.703 26.0229C109.682 22.0393 109.662 18.0557 109.643 14.0725C109.626 10.588 109.609 7.10334 109.592 3.61883C109.59 3.2531 109.596 2.88696 109.602 2.52123C109.608 2.17319 109.695 2.08374 110.068 2.08374C112.192 2.08252 114.315 2.08394 116.439 2.0878C116.494 2.08658 116.549 2.08963 116.603 2.09695C116.827 2.13253 116.902 2.20287 116.931 2.40495C116.94 2.47102 116.943 2.5375 116.943 2.60418C116.948 2.94511 116.958 3.28583 116.958 3.62696C116.96 9.47337 116.962 15.32 116.964 21.1666C116.964 21.9812 116.993 22.796 117.015 23.6108C117.019 23.7767 117.046 23.942 117.061 24.1077C117.069 24.2593 117.13 24.4047 117.233 24.523C117.337 24.6413 117.479 24.7263 117.639 24.7659C117.804 24.8154 117.975 24.8456 118.148 24.8562C118.87 24.9046 119.595 24.9463 120.306 24.7871C120.561 24.7259 120.806 24.6328 121.034 24.5102C121.292 24.3685 121.539 24.2095 121.772 24.0345C122.736 23.3559 123.774 22.7716 124.87 22.291C125.124 22.176 125.379 22.0625 125.626 21.9375C125.768 21.8633 125.904 21.7779 126.03 21.6825C126.109 21.6309 126.168 21.5581 126.199 21.4742C126.23 21.3902 126.231 21.2995 126.203 21.2148C126.14 21.007 126.077 20.7982 125.995 20.5961C125.476 19.3174 124.993 18.0283 124.589 16.715C124.152 15.3328 123.884 13.9107 123.788 12.4744C123.728 11.8182 123.794 11.1573 123.984 10.5222C124.116 10.0615 124.358 9.63336 124.691 9.26844C124.935 9.03303 125.26 8.88177 125.612 8.83989C125.963 8.79801 126.319 8.86795 126.621 9.03811C126.826 9.17168 126.975 9.36603 127.042 9.58843C127.109 9.81084 127.09 10.0477 126.988 10.2587C126.896 10.4199 126.745 10.5462 126.562 10.6159C126.378 10.6856 126.174 10.6944 125.984 10.6407C125.799 10.5752 125.623 10.4896 125.46 10.3856C125.377 10.3416 125.302 10.2829 125.192 10.2087Z" fill="#8A919E"/>
<path d="M1.24854 0.59645C1.74478 0.759697 1.89726 1.04513 2.03672 1.50092C2.06355 1.58915 2.09709 1.67575 2.13186 1.76154C2.23554 2.05612 2.44067 2.31207 2.71654 2.49057C2.99221 2.66926 3.32379 2.76095 3.66126 2.7518C4.1382 2.73899 4.61391 2.69955 5.08556 2.63328C6.54157 2.45336 7.9929 2.24295 9.45074 2.07991C10.5644 1.95345 11.6882 1.91808 12.8086 1.97419C14.0749 2.04738 15.3226 2.29194 16.511 2.69976C17.7666 3.10554 18.9374 3.70445 19.9736 4.47129C20.4408 4.80835 20.8589 5.19929 21.2174 5.63435C21.6636 6.20073 21.8892 6.85026 22.048 7.52196C22.0925 7.70899 22.1269 7.89785 22.1706 8.08489C22.1924 8.15401 22.1875 8.2276 22.157 8.29388C22.1265 8.35995 22.0722 8.41443 22.0031 8.44818C21.5597 8.69945 21.1287 8.97045 20.6703 9.19672C19.9732 9.51508 19.3182 9.9052 18.7178 10.3598C18.5926 10.4576 18.4753 10.5635 18.3667 10.6767C18.2309 10.8231 18.2366 10.8843 18.3928 11.0148C18.6359 11.2179 18.8882 11.412 19.1356 11.6113C19.9667 12.2805 20.8 12.9473 21.6252 13.6221C21.8431 13.8 22.035 14.0039 22.2416 14.1938C22.3066 14.2521 22.3578 14.322 22.392 14.3995C22.426 14.4769 22.4422 14.5601 22.4394 14.6434C22.4347 16.9421 22.4408 19.241 22.4245 21.5395C22.4048 22.2293 22.1499 22.8961 21.6959 23.4462C20.9083 24.4775 19.7992 25.2659 18.5141 25.7081C17.707 26.0124 16.8542 26.2029 15.9847 26.2726C15.425 26.3013 14.8641 26.3033 14.3045 26.2783C13.2408 26.2299 12.1814 26.12 11.133 25.9488C10.2828 25.8166 9.43733 25.6607 8.58856 25.5219C7.64852 25.3623 6.69343 25.2913 5.73774 25.3096C5.05933 25.3456 4.38723 25.4509 3.73424 25.6237C3.37847 25.7069 3.02413 25.7935 2.66714 25.8734C2.45409 25.9211 2.38801 25.8923 2.27031 25.7373C2.24225 25.7099 2.22456 25.6749 2.21948 25.6377C2.2146 25.6003 2.22253 25.5625 2.24245 25.5296C2.26034 25.5007 2.27071 25.4678 2.28941 25.4393C2.66267 24.8683 2.76228 24.2458 2.76086 23.5918C2.75517 20.7767 2.7635 17.9615 2.76777 15.1464C2.77224 12.3814 2.77692 9.61632 2.7818 6.85108C2.7818 6.25156 2.757 5.65204 2.74927 5.05251C2.7513 4.86385 2.70963 4.67702 2.6275 4.50422C2.54516 4.33121 2.42379 4.1763 2.27173 4.04945C1.98427 3.8059 1.66509 3.59304 1.36482 3.36169C1.04666 3.13807 0.744155 2.89614 0.45893 2.63775C0.295073 2.47349 0.179397 2.27385 0.122474 2.05754C0.0653479 1.84124 0.0688046 1.61517 0.132437 1.40029C0.162321 1.22382 0.244656 1.05834 0.370496 0.922131C0.496337 0.785922 0.660805 0.684273 0.845805 0.628367C0.897036 0.610273 0.950299 0.59767 1.00458 0.590554C1.08549 0.57795 1.16844 0.579983 1.24854 0.59645ZM10.3613 19.7509H10.3666C10.3666 20.9243 10.3672 22.0979 10.368 23.2714C10.368 23.3954 10.3863 23.5196 10.3977 23.6438C10.4089 23.7698 10.4581 23.8906 10.5398 23.9925C10.6215 24.0943 10.7325 24.1734 10.8604 24.2206C11.01 24.2836 11.1684 24.3275 11.3308 24.3513C11.759 24.4062 12.1942 24.395 12.6185 24.3181C13.0186 24.2628 13.4004 24.1266 13.7364 23.9197C14.2321 23.6113 14.4947 23.1614 14.6551 22.6544C14.7991 22.1378 14.8723 21.6068 14.8725 21.0735C14.9021 20.2585 14.9272 19.4421 14.9178 18.6272C14.9072 17.6959 14.8739 16.765 14.8178 15.8344C14.7989 15.2747 14.6464 14.7256 14.3711 14.2257C14.1666 13.8721 13.8848 13.6003 13.4311 13.5219C13.0393 13.4503 12.6327 13.5162 12.2916 13.7064C11.6014 14.0817 11.0763 14.6146 10.6089 15.1958C10.5138 15.3281 10.4524 15.4786 10.429 15.6355C10.3865 15.8653 10.365 16.0976 10.3646 16.3304C10.3585 17.4705 10.3613 18.6108 10.3613 19.7509ZM10.2851 7.85841H10.3099C10.3099 9.04912 10.3054 10.24 10.3131 11.4309C10.3117 11.7056 10.3371 11.9798 10.389 12.2502C10.4619 12.6068 10.6705 12.702 11.0507 12.5938C11.1029 12.5788 11.1544 12.5607 11.2044 12.5395C11.6154 12.3732 11.9968 12.1508 12.3353 11.88C13.2937 11.086 14.0268 10.09 14.4714 8.97777C14.9875 7.77283 15.0398 6.44245 14.6196 5.20641C14.5106 4.85552 14.3232 4.52923 14.069 4.24847C13.8151 3.96772 13.5 3.7386 13.144 3.57576C12.5382 3.30416 11.859 3.2017 11.1904 3.28098C11.0184 3.30416 10.8521 3.35539 10.6998 3.43224C10.5778 3.48123 10.4743 3.56255 10.4028 3.66562C10.331 3.76869 10.2946 3.88904 10.2977 4.01122C10.2963 4.16065 10.2857 4.31027 10.2855 4.46071C10.2845 5.59348 10.2841 6.72605 10.2851 7.85841Z" fill="#8A919E"/>
</svg>
