<svg width="32" height="32" viewBox="0 0 32 32" fill="none" xmlns="http://www.w3.org/2000/svg">
<g id="nav/complianceProduct">
<path id="vector" d="M26.0509 19.3877L29.319 18.2641L29.319 13.7L26.0509 12.6111C25.7959 12.53 25.5873 12.3331 25.4714 12.0551C25.3671 11.8002 25.3787 11.5105 25.4946 11.2789L27.0359 8.18593L23.8026 4.96551L20.7083 6.50621C20.4649 6.62206 20.1868 6.63365 19.9086 6.51781C19.6537 6.41355 19.4566 6.20505 19.3755 5.9502L18.2746 2.66028L13.7084 2.66028L12.619 5.9386C12.5379 6.19345 12.3409 6.40197 12.0628 6.51781C11.8078 6.62207 11.5181 6.62204 11.2747 6.49462L8.18038 4.95398L4.94701 8.18593L6.48835 11.2789C6.60425 11.5221 6.61584 11.8117 6.5463 11.9971L6.48835 12.1246C6.38405 12.3562 6.17545 12.5416 5.93208 12.6227L2.65234 13.7116L2.65234 18.2757L5.93208 19.3646C6.18704 19.4457 6.39565 19.6426 6.51154 19.9206C6.61584 20.1755 6.60425 20.4651 6.48835 20.7084L4.94701 23.8013L8.1688 27.0217L11.2631 25.481C11.5065 25.3652 11.7962 25.3536 12.0743 25.4694C12.3293 25.5737 12.5263 25.7822 12.6075 26.037L13.7084 29.3269H18.2746L19.3639 26.0486C19.445 25.7938 19.6421 25.5853 19.9202 25.4694C20.1752 25.3652 20.4649 25.3768 20.7083 25.4926L23.8026 27.0333L27.0359 23.8129L25.4946 20.7199C25.3787 20.4767 25.3671 20.1987 25.483 19.9206C25.5873 19.6658 25.7959 19.4688 26.0509 19.3877ZM17.8197 14.1603L21.153 15.9936L17.8197 17.8269L15.8197 21.3269L13.9863 17.8269L10.4863 15.9936L13.9863 14.1603L15.8197 10.6603L17.8197 14.1603Z" fill="#FFDF44"/>
</g>
</svg>
