<svg id="Layer_1" xmlns="http://www.w3.org/2000/svg" height="40" width="190" viewBox="0 0 358.13 75.38"><defs><style>.cls-1{fill:#dedede;}.cls-2{fill:black}</style></defs><path class="cls-1" d="M68,3.31h12.61c2.23,0,4.33.45,6.28,1.35,1.96.9,3.67,2.09,5.13,3.59,1.46,1.49,2.62,3.23,3.46,5.22.84,1.99,1.26,4.07,1.26,6.24s-.41,4.21-1.24,6.2c-.83,1.99-1.97,3.73-3.44,5.24-1.46,1.51-3.18,2.71-5.13,3.61-1.96.9-4.07,1.35-6.33,1.35h-12.61V3.31ZM76.53,28.88h1.96c1.48,0,2.8-.23,3.96-.7,1.16-.46,2.14-1.1,2.94-1.91.8-.81,1.41-1.78,1.83-2.89.42-1.12.63-2.34.63-3.68s-.22-2.52-.65-3.65c-.44-1.13-1.05-2.1-1.85-2.91-.8-.81-1.78-1.45-2.94-1.91-1.16-.46-2.46-.7-3.91-.7h-1.96v18.35Z"/><path class="cls-1" d="M105.7,26.27c0,3.39,1.59,5.09,4.78,5.09,1.71,0,3-.7,3.87-2.09h7.61c-1.54,5.1-5.38,7.65-11.53,7.65-1.89,0-3.61-.28-5.18-.85-1.57-.57-2.91-1.37-4.02-2.41-1.12-1.04-1.98-2.29-2.59-3.74-.61-1.45-.91-3.07-.91-4.87s.29-3.53.87-5.02c.58-1.49,1.41-2.76,2.48-3.81,1.07-1.04,2.37-1.85,3.89-2.41,1.52-.57,3.24-.85,5.15-.85s3.58.28,5.09.85c1.51.57,2.78,1.39,3.83,2.46,1.04,1.07,1.84,2.39,2.39,3.94.55,1.55.83,3.3.83,5.24v.83h-16.57ZM114.92,21.7c-.26-1.1-.8-1.99-1.61-2.65-.81-.67-1.8-1-2.96-1-1.22,0-2.21.32-2.98.96-.77.64-1.25,1.54-1.46,2.7h9Z"/><path class="cls-1" d="M141.8,21.01c-1.36-.93-2.74-1.39-4.13-1.39-.75,0-1.46.13-2.11.39-.65.26-1.23.63-1.72,1.11-.49.48-.88,1.04-1.15,1.7-.28.65-.41,1.39-.41,2.2s.14,1.5.41,2.15c.28.65.65,1.22,1.13,1.7s1.05.85,1.72,1.11c.67.26,1.38.39,2.13.39,1.48,0,2.86-.51,4.13-1.52v6.7c-1.94.84-3.78,1.26-5.52,1.26-1.62,0-3.17-.28-4.63-.83-1.46-.55-2.75-1.34-3.87-2.37-1.12-1.03-2.01-2.26-2.67-3.7-.67-1.44-1-3.04-1-4.81s.32-3.39.96-4.85c.64-1.46,1.51-2.72,2.61-3.78,1.1-1.06,2.41-1.88,3.94-2.48,1.52-.59,3.15-.89,4.89-.89,1.91,0,3.68.41,5.31,1.22v6.7Z"/><path class="cls-1" d="M151.58,26.27c0,3.39,1.59,5.09,4.78,5.09,1.71,0,3-.7,3.87-2.09h7.61c-1.54,5.1-5.38,7.65-11.53,7.65-1.89,0-3.61-.28-5.18-.85-1.57-.57-2.91-1.37-4.02-2.41-1.12-1.04-1.98-2.29-2.59-3.74-.61-1.45-.91-3.07-.91-4.87s.29-3.53.87-5.02c.58-1.49,1.41-2.76,2.48-3.81,1.07-1.04,2.37-1.85,3.89-2.41,1.52-.57,3.24-.85,5.15-.85s3.58.28,5.09.85c1.51.57,2.78,1.39,3.83,2.46,1.04,1.07,1.84,2.39,2.39,3.94.55,1.55.83,3.3.83,5.24v.83h-16.57ZM160.8,21.7c-.26-1.1-.8-1.99-1.61-2.65-.81-.67-1.8-1-2.96-1-1.22,0-2.21.32-2.98.96-.77.64-1.25,1.54-1.46,2.7h9Z"/><path class="cls-1" d="M170.85,13.79h7.87v2.83c1.07-1.3,2.16-2.18,3.26-2.63,1.1-.45,2.39-.67,3.87-.67,1.57,0,2.91.25,4.02.76,1.12.51,2.07,1.23,2.85,2.15.64.75,1.07,1.59,1.3,2.52.23.93.35,1.99.35,3.17v14.18h-7.87v-11.26c0-1.1-.08-1.99-.24-2.67-.16-.68-.44-1.22-.85-1.63-.35-.35-.74-.59-1.17-.74-.43-.14-.9-.22-1.39-.22-1.33,0-2.36.4-3.07,1.2-.71.8-1.07,1.94-1.07,3.41v11.92h-7.87V13.79Z"/><path class="cls-1" d="M206.73,20.35v15.74h-7.87v-15.74h-2.61v-6.57h2.61v-6.7h7.87v6.7h4.48v6.57h-4.48Z"/><path class="cls-1" d="M213.44,13.79h7.87v3.65c.84-1.33,1.87-2.36,3.09-3.07,1.22-.71,2.64-1.07,4.26-1.07h.67c.25,0,.53.03.85.09v7.52c-1.04-.52-2.17-.78-3.39-.78-1.83,0-3.2.54-4.11,1.63-.91,1.09-1.37,2.67-1.37,4.76v9.57h-7.87V13.79Z"/><path class="cls-1" d="M248.35,13.79h7.92v22.31h-7.92v-2.48c-1.68,2.12-3.96,3.17-6.83,3.17-1.62,0-3.12-.3-4.48-.89s-2.55-1.43-3.57-2.5c-1.02-1.07-1.81-2.33-2.37-3.78-.57-1.45-.85-3.03-.85-4.74,0-1.59.28-3.11.83-4.54.55-1.44,1.32-2.69,2.3-3.76.99-1.07,2.16-1.92,3.52-2.54,1.36-.62,2.87-.94,4.52-.94,2.78,0,5.09.97,6.92,2.91v-2.22ZM238.44,24.88c0,.73.13,1.4.39,2.02.26.62.62,1.17,1.07,1.63.45.46.99.83,1.61,1.09s1.3.39,2.02.39,1.35-.13,1.98-.39,1.16-.62,1.61-1.09c.45-.46.81-1,1.09-1.61.28-.61.41-1.26.41-1.96s-.14-1.36-.41-1.98c-.27-.62-.64-1.17-1.09-1.63-.45-.46-.99-.83-1.61-1.09-.62-.26-1.28-.39-1.98-.39s-1.4.13-2.02.39c-.62.26-1.16.62-1.61,1.09-.45.46-.8.99-1.07,1.59-.26.59-.39,1.24-.39,1.94Z"/><path class="cls-1" d="M267.71,0v36.1h-7.87V0h7.87Z"/><path class="cls-1" d="M270.8,5.22c0-.61.12-1.18.35-1.72.23-.54.55-1.01.96-1.41s.88-.72,1.41-.96c.54-.23,1.11-.35,1.72-.35s1.18.12,1.72.35c.54.23,1.01.55,1.41.96.41.41.72.88.96,1.41.23.54.35,1.11.35,1.72s-.12,1.18-.35,1.72c-.23.54-.55,1.01-.96,1.41-.41.41-.88.73-1.41.96-.54.23-1.11.35-1.72.35s-1.18-.12-1.72-.35c-.54-.23-1.01-.55-1.41-.96-.41-.41-.73-.88-.96-1.41-.23-.54-.35-1.11-.35-1.72ZM279.19,13.79v22.31h-7.87V13.79h7.87Z"/><path class="cls-1" d="M294.28,29.53h9.39v6.57h-22.62l10.53-15.74h-9.09v-6.57h22.22l-10.44,15.74Z"/><path class="cls-1" d="M313.72,26.27c0,3.39,1.59,5.09,4.78,5.09,1.71,0,3-.7,3.87-2.09h7.61c-1.54,5.1-5.38,7.65-11.53,7.65-1.89,0-3.61-.28-5.18-.85-1.56-.57-2.91-1.37-4.02-2.41-1.12-1.04-1.98-2.29-2.59-3.74-.61-1.45-.91-3.07-.91-4.87s.29-3.53.87-5.02c.58-1.49,1.41-2.76,2.48-3.81,1.07-1.04,2.37-1.85,3.89-2.41,1.52-.57,3.24-.85,5.15-.85s3.58.28,5.09.85c1.51.57,2.78,1.39,3.83,2.46,1.04,1.07,1.84,2.39,2.39,3.94.55,1.55.83,3.3.83,5.24v.83h-16.57ZM322.94,21.7c-.26-1.1-.8-1.99-1.61-2.65-.81-.67-1.8-1-2.96-1-1.22,0-2.21.32-2.98.96-.77.64-1.25,1.54-1.46,2.7h9Z"/><path class="cls-1" d="M350.21,0h7.92v36.1h-7.92v-2.48c-1.68,2.12-3.96,3.17-6.83,3.17-1.62,0-3.12-.3-4.48-.91-1.36-.61-2.55-1.45-3.57-2.52-1.02-1.07-1.81-2.33-2.37-3.78-.56-1.45-.85-3.02-.85-4.7,0-1.59.27-3.11.8-4.54.54-1.44,1.3-2.69,2.28-3.76.99-1.07,2.17-1.92,3.55-2.54,1.38-.62,2.89-.94,4.54-.94,2.78,0,5.09.97,6.92,2.91V0ZM340.3,24.88c0,.73.13,1.4.39,2.02.26.62.62,1.17,1.07,1.63.45.46.99.83,1.61,1.09s1.3.39,2.02.39,1.35-.13,1.98-.39c.62-.26,1.16-.62,1.61-1.09.45-.46.81-1,1.09-1.61s.41-1.26.41-1.96-.14-1.36-.41-1.98c-.28-.62-.64-1.17-1.09-1.63-.45-.46-.99-.83-1.61-1.09-.62-.26-1.28-.39-1.98-.39s-1.36.13-1.98.39c-.62.26-1.16.62-1.61,1.09-.45.46-.81.99-1.09,1.59-.28.59-.41,1.24-.41,1.94Z"/><path class="cls-1" d="M76.53,74.55h-8.52v-32.79h13.57c3.68,0,6.5.96,8.46,2.87,1.96,1.91,2.94,4.61,2.94,8.09s-.98,6.18-2.94,8.09c-1.96,1.91-4.78,2.87-8.46,2.87h-5.05v10.87ZM76.53,56.81h2.83c3.13,0,4.7-1.36,4.7-4.09s-1.57-4.09-4.7-4.09h-2.83v8.18Z"/><path class="cls-1" d="M94.45,43.67c0-.61.12-1.18.35-1.72.23-.54.55-1.01.96-1.41.41-.41.88-.72,1.41-.96.54-.23,1.11-.35,1.72-.35s1.18.12,1.72.35c.54.23,1.01.55,1.41.96.41.41.72.88.96,1.41.23.54.35,1.11.35,1.72s-.12,1.18-.35,1.72c-.23.54-.55,1.01-.96,1.41-.41.41-.88.73-1.41.96-.54.23-1.11.35-1.72.35s-1.18-.12-1.72-.35c-.54-.23-1.01-.55-1.41-.96-.41-.41-.73-.88-.96-1.41-.23-.54-.35-1.11-.35-1.72ZM102.84,52.24v22.31h-7.87v-22.31h7.87Z"/><path class="cls-1" d="M123.28,59.46c-1.36-.93-2.74-1.39-4.13-1.39-.75,0-1.46.13-2.11.39-.65.26-1.23.63-1.72,1.11-.49.48-.88,1.04-1.15,1.7-.28.65-.41,1.39-.41,2.2s.14,1.5.41,2.15c.28.65.65,1.22,1.13,1.7s1.05.85,1.72,1.11c.67.26,1.38.39,2.13.39,1.48,0,2.86-.51,4.13-1.52v6.7c-1.94.84-3.78,1.26-5.52,1.26-1.62,0-3.17-.28-4.63-.83-1.46-.55-2.75-1.34-3.87-2.37-1.12-1.03-2.01-2.26-2.67-3.7-.67-1.44-1-3.04-1-4.81s.32-3.39.96-4.85c.64-1.46,1.51-2.72,2.61-3.78,1.1-1.06,2.41-1.88,3.94-2.48,1.52-.59,3.15-.89,4.89-.89,1.91,0,3.68.41,5.31,1.22v6.7Z"/><path class="cls-1" d="M135.82,58.81v15.74h-7.87v-15.74h-2.61v-6.57h2.61v-6.7h7.87v6.7h4.48v6.57h-4.48Z"/><path class="cls-1" d="M150.4,52.24v12.57c0,2.75,1.33,4.13,4,4.13s4-1.38,4-4.13v-12.57h7.87v14.09c0,3.02-.99,5.28-2.98,6.78-1.99,1.51-4.95,2.26-8.89,2.26s-6.91-.75-8.89-2.26c-1.99-1.51-2.98-3.77-2.98-6.78v-14.09h7.87Z"/><path class="cls-1" d="M168.79,52.24h7.87v3.65c.84-1.33,1.87-2.36,3.09-3.07,1.22-.71,2.64-1.07,4.26-1.07h.67c.25,0,.53.03.85.09v7.52c-1.04-.52-2.17-.78-3.39-.78-1.83,0-3.2.54-4.11,1.63-.91,1.09-1.37,2.67-1.37,4.76v9.57h-7.87v-22.31Z"/><path class="cls-1" d="M194.62,64.72c0,3.39,1.59,5.09,4.78,5.09,1.71,0,3-.7,3.87-2.09h7.61c-1.54,5.1-5.38,7.65-11.53,7.65-1.89,0-3.61-.28-5.18-.85-1.57-.57-2.91-1.37-4.02-2.41-1.12-1.04-1.98-2.29-2.59-3.74-.61-1.45-.91-3.07-.91-4.87s.29-3.53.87-5.02c.58-1.49,1.41-2.76,2.48-3.81,1.07-1.04,2.37-1.85,3.89-2.41,1.52-.57,3.24-.85,5.15-.85s3.58.28,5.09.85c1.51.57,2.78,1.39,3.83,2.46,1.04,1.07,1.84,2.39,2.39,3.94.55,1.55.83,3.3.83,5.24v.83h-16.57ZM203.84,60.15c-.26-1.1-.8-1.99-1.61-2.65-.81-.67-1.8-1-2.96-1-1.22,0-2.21.32-2.98.96-.77.64-1.25,1.54-1.46,2.7h9Z"/><path class="cls-1" d="M227.62,57.98c-1.45-.75-2.87-1.13-4.26-1.13-.73,0-1.31.15-1.76.44-.45.29-.67.68-.67,1.17,0,.26.04.47.11.63.07.16.23.31.48.46.25.15.61.28,1.09.39.48.12,1.11.26,1.89.44,2.17.43,3.8,1.21,4.87,2.33,1.07,1.12,1.61,2.54,1.61,4.28,0,1.3-.26,2.48-.78,3.52-.52,1.04-1.25,1.92-2.17,2.63-.93.71-2.04,1.26-3.35,1.65-1.31.39-2.74.59-4.31.59-3.02,0-5.99-.85-8.92-2.57l2.87-5.57c2.2,1.51,4.29,2.26,6.26,2.26.72,0,1.32-.16,1.78-.48.46-.32.7-.72.7-1.22,0-.29-.04-.53-.11-.72-.07-.19-.23-.36-.46-.52-.23-.16-.57-.3-1.02-.44s-1.04-.27-1.76-.41c-2.44-.49-4.14-1.22-5.11-2.2-.97-.97-1.46-2.31-1.46-4.02,0-1.25.23-2.37.7-3.37.46-1,1.13-1.85,2-2.54.87-.7,1.92-1.23,3.15-1.61,1.23-.38,2.6-.57,4.11-.57,2.46,0,4.86.48,7.18,1.44l-2.65,5.13Z"/><path class="cls-1" d="M51.66,3.38h-13.88c-1.07,0-1.95.87-1.95,1.95v8.82c-2.82-1.01-5.86-1.56-9.03-1.56C12.37,12.57.6,23.99.03,38.28c-.01.09-.03.18-.03.27v34.9c0,1.06.86,1.92,1.92,1.92h13.93c1.06,0,1.92-.86,1.92-1.92v-8.84c2.82,1.01,5.86,1.56,9.03,1.56,14.02,0,25.53-10.77,26.7-24.5.06-.19.11-.39.11-.6V5.32c0-1.07-.87-1.95-1.95-1.95ZM26.8,48.37c-4.97,0-8.99-4.03-8.99-8.99s4.03-8.99,8.99-8.99,8.99,4.03,8.99,8.99-4.03,8.99-8.99,8.99Z"/><rect class="cls-2" x="37.16" y="4.85" width="2.21" height="1.54" rx=".68" ry=".68"/><rect class="cls-2" x="37.16" y="8.5" width="2.21" height="1.54" rx=".68" ry=".68"/><rect class="cls-2" x="37.16" y="12.15" width="2.21" height="1.54" rx=".68" ry=".68"/><rect class="cls-2" x="50.55" y="4.85" width="2.21" height="1.54" rx=".68" ry=".68"/><rect class="cls-2" x="50.55" y="8.5" width="2.21" height="1.54" rx=".68" ry=".68"/><rect class="cls-2" x="50.55" y="12.15" width="2.21" height="1.54" rx=".68" ry=".68"/><rect class="cls-2" x="50.55" y="15.8" width="2.21" height="1.54" rx=".68" ry=".68"/><rect class="cls-2" x="50.55" y="19.45" width="2.21" height="1.54" rx=".68" ry=".68"/><rect class="cls-2" x="50.55" y="23.1" width="2.21" height="1.54" rx=".68" ry=".68"/><rect class="cls-2" x="50.55" y="26.75" width="2.21" height="1.54" rx=".68" ry=".68"/><rect class="cls-2" x="50.55" y="30.4" width="2.21" height="1.54" rx=".68" ry=".68"/><rect class="cls-2" x="37.16" y="4.85" width="2.21" height="1.54" rx=".68" ry=".68"/><rect class="cls-2" x="37.16" y="8.5" width="2.21" height="1.54" rx=".68" ry=".68"/><rect class="cls-2" x="37.16" y="12.15" width="2.21" height="1.54" rx=".68" ry=".68"/><rect class="cls-2" x="50.55" y="4.85" width="2.21" height="1.54" rx=".68" ry=".68"/><rect class="cls-2" x="50.55" y="8.5" width="2.21" height="1.54" rx=".68" ry=".68"/><rect class="cls-2" x="50.55" y="12.15" width="2.21" height="1.54" rx=".68" ry=".68"/><rect class="cls-2" x="50.55" y="15.8" width="2.21" height="1.54" rx=".68" ry=".68"/><rect class="cls-2" x="50.55" y="19.45" width="2.21" height="1.54" rx=".68" ry=".68"/><rect class="cls-2" x="50.55" y="23.1" width="2.21" height="1.54" rx=".68" ry=".68"/><rect class="cls-2" x="50.55" y="26.75" width="2.21" height="1.54" rx=".68" ry=".68"/><rect class="cls-2" x="50.55" y="30.4" width="2.21" height="1.54" rx=".68" ry=".68"/><rect class="cls-2" x="37.16" y="4.85" width="2.21" height="1.54" rx=".68" ry=".68"/><rect class="cls-2" x="37.16" y="8.5" width="2.21" height="1.54" rx=".68" ry=".68"/><rect class="cls-2" x="37.16" y="12.15" width="2.21" height="1.54" rx=".68" ry=".68"/><rect class="cls-2" x="50.55" y="4.85" width="2.21" height="1.54" rx=".68" ry=".68"/><rect class="cls-2" x="50.55" y="8.5" width="2.21" height="1.54" rx=".68" ry=".68"/><rect class="cls-2" x="50.55" y="12.15" width="2.21" height="1.54" rx=".68" ry=".68"/><rect class="cls-2" x="50.55" y="15.8" width="2.21" height="1.54" rx=".68" ry=".68"/><rect class="cls-2" x="50.55" y="19.45" width="2.21" height="1.54" rx=".68" ry=".68"/><rect class="cls-2" x="50.55" y="23.1" width="2.21" height="1.54" rx=".68" ry=".68"/><rect class="cls-2" x="50.55" y="26.75" width="2.21" height="1.54" rx=".68" ry=".68"/><rect class="cls-2" x="50.55" y="30.4" width="2.21" height="1.54" rx=".68" ry=".68"/><rect class="cls-2" x="50.55" y="4.85" width="2.21" height="1.54" rx=".68" ry=".68"/><rect class="cls-2" x="50.55" y="8.5" width="2.21" height="1.54" rx=".68" ry=".68"/><rect class="cls-2" x="50.55" y="12.15" width="2.21" height="1.54" rx=".68" ry=".68"/><rect class="cls-2" x="50.55" y="15.8" width="2.21" height="1.54" rx=".68" ry=".68"/><rect class="cls-2" x="50.55" y="19.45" width="2.21" height="1.54" rx=".68" ry=".68"/><rect class="cls-2" x="50.55" y="23.1" width="2.21" height="1.54" rx=".68" ry=".68"/><rect class="cls-2" x="50.55" y="26.75" width="2.21" height="1.54" rx=".68" ry=".68"/><rect class="cls-2" x="50.55" y="30.4" width="2.21" height="1.54" rx=".68" ry=".68"/><rect class="cls-2" x="14.43" y="72.52" width="2.21" height="1.54" rx=".68" ry=".68" transform="translate(31.07 146.58) rotate(-180)"/><rect class="cls-2" x="14.43" y="68.87" width="2.21" height="1.54" rx=".68" ry=".68" transform="translate(31.07 139.28) rotate(-180)"/><rect class="cls-2" x="14.43" y="65.22" width="2.21" height="1.54" rx=".68" ry=".68" transform="translate(31.07 131.98) rotate(180)"/><rect class="cls-2" x="1.04" y="72.52" width="2.21" height="1.54" rx=".68" ry=".68" transform="translate(4.3 146.58) rotate(-180)"/><rect class="cls-2" x="1.04" y="68.87" width="2.21" height="1.54" rx=".68" ry=".68" transform="translate(4.3 139.28) rotate(-180)"/><rect class="cls-2" x="1.04" y="65.22" width="2.21" height="1.54" rx=".68" ry=".68" transform="translate(4.3 131.98) rotate(-180)"/><rect class="cls-2" x="1.04" y="61.57" width="2.21" height="1.54" rx=".68" ry=".68" transform="translate(4.3 124.68) rotate(-180)"/><rect class="cls-2" x="1.04" y="57.92" width="2.21" height="1.54" rx=".68" ry=".68" transform="translate(4.3 117.38) rotate(180)"/><rect class="cls-2" x="1.04" y="54.27" width="2.21" height="1.54" rx=".68" ry=".68" transform="translate(4.3 110.08) rotate(-180)"/><rect class="cls-2" x="1.04" y="50.62" width="2.21" height="1.54" rx=".68" ry=".68" transform="translate(4.3 102.78) rotate(180)"/><rect class="cls-2" x="1.04" y="46.97" width="2.21" height="1.54" rx=".68" ry=".68" transform="translate(4.3 95.48) rotate(-180)"/><path class="cls-1" d="M26.8,12.67C12.01,12.67.02,24.66.02,39.45s11.99,26.78,26.78,26.78,26.78-11.99,26.78-26.78-11.99-26.78-26.78-26.78ZM26.8,48.44c-4.97,0-8.99-4.03-8.99-8.99s4.03-8.99,8.99-8.99,8.99,4.03,8.99,8.99-4.03,8.99-8.99,8.99Z"/></svg>