<svg width="32" height="32" viewBox="0 0 32 32" fill="none" xmlns="http://www.w3.org/2000/svg">
<g id="nav/globe">
<path id="vector" d="M29.319 15.9936C29.319 23.3574 23.3495 29.3269 15.9857 29.3269C8.62188 29.3269 2.65234 23.3574 2.65234 15.9936C2.65234 8.62981 8.62188 2.66028 15.9857 2.66028C23.3495 2.66028 29.319 8.62981 29.319 15.9936ZM26.6523 15.9936C26.6523 12.0454 24.5073 8.59826 21.319 6.75395V9.32694H17.319V11.9936H14.6523V14.6603H22.6523V20.6603C24.4232 20.6603 25.6005 20.6181 25.6005 20.6181C25.6005 20.6181 26.6523 17.7851 26.6523 15.9936ZM5.68167 13.2256C5.44513 14.1083 5.31901 15.0363 5.31901 15.9936C5.31901 21.8846 10.0946 26.6603 15.9856 26.6603C16.3651 24.3836 15.4487 23.0319 14.5887 21.7633C13.9377 20.803 13.319 19.8904 13.319 18.6603V15.5833L5.68167 13.2256Z" fill="#FFDF44"/>
</g>
</svg>
