
<svg id="Layer_1" xmlns="http://www.w3.org/2000/svg" version="1.1" viewBox="0 0 1000 337.02" height="50"  fill="white">
  <g>
    <path d="M211.49,233.7c-1.26,4.96-5.75,8.63-11.11,8.63s-9.85-3.67-11.11-8.63l-32.7-129.64c-4.96-19.85-22.95-34.6-44.32-34.6-25.19,0-45.68,20.49-45.68,45.68v10.31c0,9.55,7.74,17.3,17.3,17.3s17.3-7.74,17.3-17.3v-10.31c0-6.11,4.98-11.09,11.09-11.09,5.19,0,9.57,3.59,10.77,8.42l33.2,131.64c5.19,19.54,23.02,33.98,44.16,33.98s38.98-14.44,44.16-33.98l33.2-131.64c1.2-4.83,5.57-8.42,10.77-8.42,6.11,0,11.09,4.98,11.09,11.09v145.65c0,9.56,7.74,17.3,17.3,17.3s17.3-7.74,17.3-17.3V115.14c0-25.19-20.49-45.68-45.68-45.68-21.37,0-39.36,14.74-44.33,34.6l-32.7,129.64Z"/>
    <path d="M101.16,260.79c0,9.56-7.74,17.3-17.3,17.3s-17.3-7.74-17.3-17.3v-38.69c0-9.55,7.74-17.3,17.3-17.3s17.3,7.74,17.3,17.3v38.69Z"/>
    <path d="M72.02,161.93c2.14-2.14,3.98-3.89,5.54-5.32l.16-.14c3.47-3.14,8.77-3.15,12.25-.03l.18.16c1.57,1.43,3.41,3.19,5.56,5.34l.03.03c2.13,2.13,3.88,3.97,5.31,5.53l.16.18c3.12,3.48,3.11,8.78-.03,12.25l-.14.16c-1.43,1.56-3.18,3.4-5.32,5.54l-.04.04c-2.12,2.12-3.95,3.86-5.5,5.29l-.16.14c-3.47,3.14-8.77,3.15-12.25.03l-.18-.16c-1.56-1.43-3.39-3.17-5.53-5.31l-.03-.03c-2.15-2.15-3.91-3.99-5.34-5.56l-.16-.18c-3.12-3.48-3.11-8.78.03-12.25l.14-.16c1.42-1.55,3.17-3.39,5.29-5.51l.03-.03Z"/>
  </g>
  <path d="M558.39,243.98c-4.23,0-8.08-1.6-11.11-4.64s-4.64-6.88-4.64-11.11v-51.77l-16.78,43.47c-2.16,5.34-4.49,9.22-7.16,11.95-3.14,3.22-7.36,4.85-12.55,4.85-2.73,0-5.14-.43-7.17-1.29-2.08-.88-3.93-2.2-5.5-3.93-1.36-1.5-2.59-3.27-3.66-5.26-.92-1.72-1.91-3.77-2.95-6.07l-.09-.22-16.79-42.97v51.41c0,4.25-1.62,8.08-4.68,11.07-3.03,2.95-6.86,4.51-11.07,4.51s-8.05-1.57-11.03-4.55-4.56-6.8-4.56-11.03v-105.3c0-2.26.36-4.51,1.06-6.69.75-2.33,1.93-4.43,3.52-6.25,1.57-1.8,3.54-3.28,5.83-4.39,2.36-1.14,5.04-1.72,7.97-1.72,3.73,0,7.18.92,10.24,2.74,3.19,1.9,5.85,5.23,7.9,9.88l.05.13,30.92,76.07,31.17-76.47c2.06-4.39,4.72-7.59,7.91-9.52,3.12-1.89,6.61-2.84,10.35-2.84,2.82,0,5.45.58,7.81,1.72,2.29,1.11,4.25,2.59,5.83,4.39,1.55,1.77,2.75,3.82,3.56,6.11.79,2.23,1.19,4.53,1.19,6.82v105.13c0,4.2-1.56,8.03-4.51,11.06-2.99,3.07-6.81,4.69-11.07,4.69Z"/>
  <path d="M920.56,243.49h-102.76c-4.47,0-8.32-1.54-11.44-4.58-3.16-3.08-4.75-7.09-4.75-11.94v-106.57c0-4.39,1.44-8.22,4.29-11.38,2.94-3.25,6.99-4.97,11.74-4.97s8.98,1.73,11.86,5.01c2.77,3.15,4.17,6.97,4.17,11.33v91.2h86.9c4.68,0,8.61,1.51,11.68,4.5,3.06,2.99,4.67,6.91,4.67,11.36s-1.55,8.32-4.62,11.4c-3.08,3.07-7.03,4.63-11.73,4.63Z"/>
  <path d="M687.8,243.98c-.48,0-.92-.02-1.34-.06-.18,0-.4-.03-.66-.07-.2-.03-.39-.06-.57-.09-.28-.04-.56-.09-.84-.15-.57-.12-1.06-.26-1.51-.42-.34-.11-.74-.25-1.17-.44-.06-.03-.12-.05-.18-.08h-.16l-1.14-.64c-.34-.19-.75-.43-1.19-.73-.33-.22-.66-.46-1.01-.74-.42-.34-.83-.7-1.21-1.09-.12-.12-.24-.24-.35-.36-.23-.22-.44-.45-.63-.7-.05-.06-.09-.11-.14-.17l-.11-.14c-.53-.64-1-1.33-1.38-2.04-.09-.16-.2-.36-.32-.59-.23-.39-.39-.75-.5-1.04l-51.75-108.03c-.99-2.12-1.49-4.36-1.49-6.69,0-8.64,7.03-15.66,15.66-15.66,6.03,0,11.59,3.52,14.18,8.97l37.82,78.99,37.83-79.01c2.56-5.43,8.12-8.95,14.16-8.95,8.64,0,15.66,7.03,15.66,15.66,0,2.34-.5,4.58-1.47,6.66l-52.05,108.72c-.12.27-.25.49-.35.66-.26.51-.55.95-.78,1.29-.27.41-.58.83-.92,1.24-.35.42-.66.76-.97,1.07l-.11.11c-.3.3-.63.6-1.03.93-.38.32-.79.62-1.2.89-.44.31-.86.55-1.18.73l-1.12.64h-.18s-.09.04-.14.06c-.47.21-.9.36-1.26.48-.39.14-.88.27-1.44.39-.26.06-.53.11-.81.16-.22.04-.43.07-.64.09-.25.04-.46.06-.63.07-.42.04-.86.06-1.34.06Z"/>
</svg>