<svg id="Layer_1" data-name="Layer 1" xmlns="http://www.w3.org/2000/svg" height="35"  viewBox="0 0 686.93 128.72">
  <defs>
    <style>
      .cls-1 {
        fill:white;
      }
    </style>
  </defs>
  <g>
    <path class="cls-1" d="M186.71,126.81V51.78h27.34c6.22,0,11.27,1.14,15.13,3.43,3.86,2.29,6.69,5.27,8.49,8.94,1.8,3.68,2.7,7.61,2.7,11.81,0,5.33-1.2,9.81-3.6,13.44-2.4,3.64-5.53,6.38-9.39,8.21-3.86,1.84-8.04,2.76-12.54,2.76h-11.59v26.44h-16.54ZM203.24,86.65h9.9c3.07,0,5.55-.97,7.42-2.92,1.87-1.95,2.81-4.42,2.81-7.42,0-3.15-.94-5.72-2.81-7.71-1.88-1.99-4.39-2.98-7.54-2.98h-9.79v21.04Z"/>
    <path class="cls-1" d="M262.98,126.81V51.78h27.9c5.85,0,10.72,1.07,14.62,3.21,3.9,2.14,6.82,4.99,8.77,8.55,1.95,3.56,2.93,7.48,2.93,11.76,0,4.8-1.07,9.04-3.21,12.71-2.14,3.68-5.16,6.6-9.06,8.77l16.65,30.04h-18.67l-13.95-27.56h-9.45v27.56h-16.54ZM279.51,85.64h10.46c3.15,0,5.62-.94,7.42-2.81,1.8-1.87,2.7-4.24,2.7-7.09,0-3.07-.92-5.51-2.76-7.31-1.84-1.8-4.29-2.7-7.37-2.7h-10.46v19.91Z"/>
    <path class="cls-1" d="M378.62,128.72c-5.55,0-10.69-.99-15.41-2.98-4.72-1.99-8.87-4.78-12.43-8.38-3.56-3.6-6.32-7.8-8.27-12.6-1.95-4.8-2.92-9.97-2.92-15.52s.97-10.82,2.92-15.58c1.95-4.76,4.69-8.94,8.21-12.54,3.52-3.6,7.67-6.39,12.43-8.38,4.76-1.99,9.92-2.98,15.47-2.98s10.69.99,15.41,2.98c4.72,1.99,8.87,4.78,12.43,8.38,3.56,3.6,6.32,7.78,8.27,12.54,1.95,4.76,2.92,9.96,2.92,15.58s-.98,10.73-2.92,15.52c-1.95,4.8-4.71,9-8.27,12.6-3.56,3.6-7.71,6.39-12.43,8.38-4.73,1.99-9.86,2.98-15.41,2.98ZM378.62,112.75c4.42,0,8.23-1.09,11.42-3.26,3.19-2.17,5.62-5.06,7.31-8.66,1.69-3.6,2.53-7.54,2.53-11.81s-.84-8.19-2.53-11.76c-1.69-3.56-4.13-6.41-7.31-8.55-3.19-2.14-6.99-3.21-11.42-3.21s-8.23,1.07-11.42,3.21c-3.19,2.14-5.64,4.99-7.37,8.55-1.73,3.56-2.59,7.48-2.59,11.76s.86,8.21,2.59,11.81c1.72,3.6,4.18,6.49,7.37,8.66,3.19,2.18,6.99,3.26,11.42,3.26Z"/>
    <path class="cls-1" d="M476.71,128.72c-5.55,0-10.69-.99-15.41-2.98-4.72-1.99-8.87-4.78-12.43-8.38-3.56-3.6-6.32-7.8-8.27-12.6-1.95-4.8-2.92-9.97-2.92-15.52s.97-10.82,2.92-15.58c1.95-4.76,4.69-8.94,8.21-12.54,3.52-3.6,7.67-6.39,12.43-8.38,4.76-1.99,9.92-2.98,15.47-2.98s10.69.99,15.41,2.98c4.72,1.99,8.87,4.78,12.43,8.38,3.56,3.6,6.32,7.78,8.27,12.54,1.95,4.76,2.92,9.96,2.92,15.58s-.98,10.73-2.92,15.52c-1.95,4.8-4.71,9-8.27,12.6-3.56,3.6-7.71,6.39-12.43,8.38-4.73,1.99-9.86,2.98-15.41,2.98ZM476.71,112.75c4.42,0,8.23-1.09,11.42-3.26,3.19-2.17,5.62-5.06,7.31-8.66,1.69-3.6,2.53-7.54,2.53-11.81s-.84-8.19-2.53-11.76c-1.69-3.56-4.13-6.41-7.31-8.55-3.19-2.14-6.99-3.21-11.42-3.21s-8.23,1.07-11.42,3.21c-3.19,2.14-5.64,4.99-7.37,8.55-1.73,3.56-2.59,7.48-2.59,11.76s.86,8.21,2.59,11.81c1.72,3.6,4.18,6.49,7.37,8.66,3.19,2.18,6.99,3.26,11.42,3.26Z"/>
    <path class="cls-1" d="M538.7,126.81V51.78h50.4v14.96h-33.41v16.99h25.42v14.51h-25.42v28.57h-16.99Z"/>
    <path class="cls-1" d="M641.67,85.92c-2.36-1.41-4.44-3.5-6.25-6.25-1.81-2.75-2.71-5.85-2.71-9.31,0-3.85,1.04-7.27,3.12-10.25,2.08-2.99,5.01-5.34,8.78-7.07,3.77-1.73,8.17-2.59,13.2-2.59s9.78.87,13.55,2.59c3.77,1.73,6.66,4.07,8.66,7.01s3,6.31,3,10.08-.94,6.76-2.83,9.43c-1.89,2.67-4.01,4.71-6.36,6.13,4.01,1.81,7.19,4.36,9.55,7.66,2.36,3.3,3.54,7.35,3.54,12.14,0,2.59-.57,5.26-1.71,8.01-1.14,2.75-2.89,5.26-5.24,7.54-2.36,2.28-5.36,4.12-9.02,5.54-3.65,1.41-8.03,2.12-13.14,2.12-6.76,0-12.3-1.16-16.62-3.48-4.32-2.32-7.48-5.24-9.49-8.78-2-3.54-3-7.11-3-10.72,0-4.79,1.2-8.86,3.59-12.2,2.4-3.34,5.52-5.87,9.37-7.6ZM657.7,93.22c-3.06.71-5.83,2.06-8.31,4.07-2.47,2-3.71,4.62-3.71,7.84,0,2.36.61,4.28,1.83,5.77,1.22,1.49,2.75,2.59,4.6,3.3,1.84.71,3.75,1.06,5.72,1.06s3.87-.35,5.72-1.06c1.84-.71,3.38-1.81,4.6-3.3,1.22-1.49,1.83-3.42,1.83-5.77,0-2.12-.61-3.99-1.83-5.6-1.22-1.61-2.75-2.95-4.6-4.01-1.85-1.06-3.79-1.83-5.83-2.3ZM657.82,81.09c2.75-.86,5.03-2.22,6.83-4.07,1.81-1.85,2.71-3.87,2.71-6.07,0-2.51-.88-4.56-2.65-6.13-1.77-1.57-4.07-2.36-6.89-2.36s-5.05.81-6.89,2.42c-1.85,1.61-2.77,3.71-2.77,6.3,0,2.12.92,4.09,2.77,5.89,1.85,1.81,4.14,3.14,6.89,4.01Z"/>
  </g>
  <g>
    <rect class="cls-1" x="77.99" y="77.99" width="48.82" height="48.82"/>
    <polygon class="cls-1" points="103.99 0 52 0 0 0 0 52 0 103.99 52 103.99 52 52 103.99 52 103.99 0"/>
  </g>
</svg>