<svg width="32" height="32" viewBox="0 0 32 32" fill="none" xmlns="http://www.w3.org/2000/svg">
<g id="ui/taxesReceipt">
<path id="vector" d="M2.65234 2.66022H29.319V29.2901L26.4441 26.8775L22.9052 29.3269L19.3663 26.8775L15.8275 29.3269L12.2886 26.8775L8.74976 29.3269L5.2109 26.8775L2.65234 29.1771V2.66022ZM18.1907 19.6467C18.871 20.3936 20.028 20.4476 20.7749 19.7673C21.5218 19.087 21.5758 17.93 20.8955 17.1831C20.2152 16.4362 19.0582 16.3822 18.3113 17.0625C17.5644 17.7428 17.5104 18.8998 18.1907 19.6467ZM13.759 12.0646C14.506 11.3843 14.5599 10.2273 13.8796 9.48039C13.1993 8.73348 12.0423 8.67949 11.2954 9.3598C10.5485 10.0401 10.4945 11.1971 11.1748 11.944C11.8551 12.6909 13.0121 12.7449 13.759 12.0646ZM20.6761 8.77952L9.84407 18.6457L11.6397 20.6172L22.4718 10.751L20.6761 8.77952Z" fill="#FFDF44"/>
</g>
</svg>
