<svg width="70" height="70" viewBox="0 0 70 70" fill="none" xmlns="http://www.w3.org/2000/svg">
<circle cx="35" cy="35" r="35" fill="#0052FF"/>
<path fill-rule="evenodd" clip-rule="evenodd" d="M11 35C11 48.2533 21.7467 59 35 59C48.2533 59 59 48.2533 59 35C59 21.7467 48.2533 11 35 11C21.7467 11 11 21.7467 11 35ZM28.8667 27.2667C27.98 27.2667 27.2667 27.98 27.2667 28.8667V41.1333C27.2667 42.02 27.98 42.7333 28.8667 42.7333H41.1333C42.02 42.7333 42.7333 42.02 42.7333 41.1333V28.8667C42.7333 27.98 42.02 27.2667 41.1333 27.2667H28.8667Z" fill="white"/>
</svg>
