<svg width="32" height="32" viewBox="0 0 32 32" fill="none" xmlns="http://www.w3.org/2000/svg">
<path d="M15.9999 32C24.8266 32 32 24.8266 32 15.9999C32 7.17325 24.8266 -0.000103951 15.9999 -0.000103951C7.17325 -0.000103951 -0.000103951 7.17325 -0.000103951 15.9999C-0.000103951 24.8266 7.17325 32 15.9999 32ZM15.9999 1.33323C24.0933 1.33323 30.6667 7.90659 30.6667 15.9999C30.6667 24.0933 24.0933 30.6667 15.9999 30.6667C7.90659 30.6667 1.33323 24.0933 1.33323 15.9999C1.33323 7.90659 7.90659 1.33323 15.9999 1.33323Z" fill="#27AD75"/>
<path d="M13.8107 19.2491L19 19.2491V20.7491L11.25 20.7491V12.9991L12.75 12.9991L12.75 18.1884L19.9697 10.9688L21.0303 12.0294L13.8107 19.2491Z" fill="#27AD75"/>
</svg>
