<svg width="32" height="32" viewBox="0 0 32 32" fill="none" xmlns="http://www.w3.org/2000/svg">
<path d="M15.9999 32C24.8266 32 32 24.8266 32 15.9999C32 7.17325 24.8266 -0.000102997 15.9999 -0.000102997C7.17325 -0.000102997 -0.000102997 7.17325 -0.000102997 15.9999C-0.000102997 24.8266 7.17325 32 15.9999 32ZM15.9999 1.33323C24.0933 1.33323 30.6667 7.90659 30.6667 15.9999C30.6667 24.0933 24.0933 30.6667 15.9999 30.6667C7.90659 30.6667 1.33323 24.0933 1.33323 15.9999C1.33323 7.90659 7.90659 1.33323 15.9999 1.33323Z" fill="#27AD75"/>
<path d="M18.1893 12.7509L13 12.7509L13 11.2509L20.75 11.2509L20.75 19.0009L19.25 19.0009L19.25 13.8116L12.0303 21.0313L10.9697 19.9706L18.1893 12.7509Z" fill="#27AD75"/>
</svg>
