<svg width="32" height="32" viewBox="0 0 32 32" fill="none" xmlns="http://www.w3.org/2000/svg">
<path d="M15.9999 32C24.8266 32 32 24.8266 32 15.9999C32 7.17325 24.8266 -0.000102997 15.9999 -0.000102997C7.17325 -0.000102997 -0.000102997 7.17325 -0.000102997 15.9999C-0.000102997 24.8266 7.17325 32 15.9999 32ZM15.9999 1.33323C24.0933 1.33323 30.6667 7.90659 30.6667 15.9999C30.6667 24.0933 24.0933 30.6667 15.9999 30.6667C7.90659 30.6667 1.33323 24.0933 1.33323 15.9999C1.33323 7.90659 7.90659 1.33323 15.9999 1.33323Z" fill="#F0616D"/>
<path d="M15 10H17L16.75 18H15.25L15 10Z" fill="#F0616D"/>
<path d="M14.75 20.75C14.75 20.06 15.31 19.5 16 19.5C16.69 19.5 17.25 20.06 17.25 20.75C17.25 21.44 16.69 22 16 22C15.31 22 14.75 21.44 14.75 20.75Z" fill="#F0616D"/>
</svg>
