<svg width="28" height="32" viewBox="0 0 28 32" fill="none" xmlns="http://www.w3.org/2000/svg">
<path d="M0.495355 5.71805C0.260506 5.50816 0.239553 5.14684 0.457676 4.91962C2.55526 2.73454 5.23325 1.18673 8.18228 0.462143C11.3162 -0.307869 14.6097 -0.112228 17.6304 1.02338C20.651 2.15899 23.2577 4.18148 25.1082 6.82533C26.9587 9.46918 27.9664 12.6108 27.9992 15.8377C28.0319 19.0647 27.0881 22.2261 25.2916 24.9069C23.4951 27.5878 20.93 29.6627 17.933 30.8593C14.9359 32.056 11.6471 32.3184 8.49821 31.6121C5.53509 30.9475 2.82626 29.4543 0.684786 27.3122C0.4621 27.0895 0.47572 26.7278 0.706263 26.5132C0.936806 26.2986 1.29691 26.3123 1.5202 26.5345C3.50448 28.5085 6.00922 29.8849 8.74784 30.4991C11.6722 31.1551 14.7266 30.9114 17.51 29.8C20.2934 28.6887 22.6757 26.7617 24.3441 24.272C26.0125 21.7822 26.889 18.8462 26.8586 15.8493C26.8282 12.8524 25.8923 9.93475 24.1738 7.47938C22.4552 5.024 20.0343 3.14569 17.229 2.09104C14.4236 1.03639 11.3649 0.854692 8.45444 1.56981C5.72883 2.2395 3.25253 3.66638 1.3087 5.68024C1.08995 5.90686 0.730203 5.92793 0.495355 5.71805Z" fill="url(#paint0_linear_6397_225651)"/>
<path d="M12.75 15.5V13H11.25V17H14.25V15.5H12.75Z" fill="#8A919E"/>
<path d="M12 22C15.3137 22 18 19.3137 18 16C18 12.6863 15.3137 10 12 10C8.68629 10 6 12.6863 6 16C6 19.3137 8.68629 22 12 22ZM16.5 16C16.5 18.4853 14.4853 20.5 12 20.5C9.51472 20.5 7.5 18.4853 7.5 16C7.5 13.5147 9.51472 11.5 12 11.5C14.4853 11.5 16.5 13.5147 16.5 16Z" fill="#8A919E"/>
<defs>
<linearGradient id="paint0_linear_6397_225651" x1="4" y1="29" x2="-4" y2="17" gradientUnits="userSpaceOnUse">
<stop stop-color="#8A919E"/>
<stop offset="1" stop-color="#8A919E" stop-opacity="0"/>
</linearGradient>
</defs>
</svg>
